<?xml version="1.0" encoding="utf-8"?>
<!-- Generator: Adobe Illustrator 23.0.1, SVG Export Plug-In . SVG Version: 6.00 Build 0)  -->
<svg version="1.1" id="Livello_1" xmlns="http://www.w3.org/2000/svg" xmlns:xlink="http://www.w3.org/1999/xlink" x="0px" y="0px"
	 viewBox="0 0 46 46" style="enable-background:new 0 0 46 46;" xml:space="preserve">
<style type="text/css">
	.st0{fill:#3C3C3B;}
	.st1{fill:none;stroke:#3C3C3B;stroke-miterlimit:10;}
</style>
<title>Risorsa 9</title>
<g>
	<g id="Livello_1-2">
		<rect x="6.8" y="31.3" class="st0" width="32.4" height="6.7"/>
		<rect x="14" y="28.7" class="st0" width="11.1" height="2.6"/>
		<polygon class="st0" points="39.6,31.7 39.6,34.6 41.4,33.8 41.4,31.7 		"/>
		<circle class="st0" cx="8.2" cy="29.6" r="1.4"/>
		<g>
			<path class="st0" d="M21,12.6c0-0.6-0.1-1.2-0.2-1.8c0,0-1,0.2-1,0c-0.1-0.4-0.3-0.7-0.5-1c0,0,0.7-0.5,0.7-0.7
				c-0.3-0.5-0.6-1-1-1.4c0,0-0.7,0.9-0.8,0.7c-0.1-0.2-0.9-0.7-0.9-0.7c0.1-0.3,0.2-0.7,0.2-1c-0.6-0.3-1.1-0.5-1.6-0.7l-0.5,0.8
				c-0.4-0.1-0.8-0.1-1.1,0l-0.2-1c-0.6,0-1.2,0.1-1.8,0.2v1c-0.3,0.1-0.7,0.2-1,0.4l-0.7-0.7c-0.5,0.3-1,0.6-1.4,1l0.4,0.8
				C9.4,8.8,9.2,9.1,9,9.4L8,9.1c-0.2,0.5-0.4,1.1-0.6,1.6l0.9,0.5c-0.1,0.4-0.1,0.7-0.1,1.1l-1,0.3c0,0.6,0.1,1.2,0.2,1.7h1
				c0.1,0.3,0.2,0.7,0.4,1L8.2,16c0.3,0.5,0.6,1,1,1.4l0.9-0.6c0.1,0.2,0.9,0.7,0.9,0.7l-0.3,1c0.5,0.3,1,0.5,1.6,0.7l0.5-0.9
				c0.2,0.1,1.1,0.1,1.1,0.1l0.3,1c0.6,0,1.1-0.1,1.7-0.2v-1c0.1,0.1,1-0.4,1-0.4l0.7,0.7c0.4-0.3,0.9-0.6,1.3-1l-0.5-0.9
				c0.3-0.3,0.5-0.6,0.7-0.9L20,16c0.3-0.5,0.5-1,0.7-1.6l-0.9-0.5c0.1-0.4,0.2-0.7,0.2-1.1L21,12.6z M14.1,16c-2,0-3.6-1.6-3.6-3.6
				s1.6-3.6,3.6-3.6c2,0,3.6,1.6,3.6,3.6S16.1,16,14.1,16z"/>
			<path class="st0" d="M27.7,9.5C27.9,9.4,28,9.2,28.1,9l0.5,0.1c0.2-0.3,0.3-0.6,0.4-0.9l-0.5-0.3c0.1-0.2,0.1-0.4,0.1-0.6
				l0.5-0.1c0-0.3,0-0.7-0.1-1c0,0-0.5,0.1-0.5,0c0-0.1-0.3-0.5-0.3-0.5s0.4-0.3,0.4-0.4c-0.2-0.2-0.4-0.5-0.6-0.7
				c0,0-0.3,0.2-0.4,0.2c-0.1,0-0.5-0.3-0.5-0.3c0.1-0.1,0.1-0.3,0.1-0.5c-0.2-0.2-0.5-0.3-0.8-0.4l-0.3,0.5C25.9,4,25.7,4,25.5,4
				l-0.2-0.5c-0.3,0-0.6,0-0.9,0.1v0.6c-0.1,0-0.3,0.1-0.5,0.2L23.5,4c-0.2,0.2-0.5,0.3-0.8,0.5L23,5c-0.2,0.1-0.3,0.2-0.4,0.4
				l-0.5-0.1c-0.2,0.2-0.3,0.5-0.4,0.8l0.5,0.3c0,0.2,0,0.4,0,0.6l-0.5,0.2c0,0.3,0,0.6,0.1,0.9h0.5c0,0.2,0.1,0.4,0.2,0.6l-0.4,0.4
				c0.1,0.2,0.3,0.5,0.5,0.7l0.5-0.3c0.1,0.2,0.5,0.4,0.5,0.4l-0.1,0.5c0.3,0.2,0.6,0.3,0.9,0.4l0.3-0.5c0.2,0.1,0.4,0.1,0.6,0.1
				l0.1,0.5c0.3,0,0.6,0,0.9-0.1v-0.6c0.1,0.1,0.6-0.2,0.6-0.2l0.4,0.5c0.2-0.2,0.5-0.4,0.7-0.6L27.7,9.5z M25.4,9.1
				c-1.1,0-2-0.9-2-2c0-1.1,0.9-2,2-2c1.1,0,2,0.9,2,2C27.4,8.2,26.5,9.1,25.4,9.1z"/>
			<path class="st0" d="M36.1,15l0.6-0.1c0-0.4,0-0.8-0.1-1.2c0,0-0.7,0.1-0.7,0c0-0.1-0.3-0.7-0.3-0.7s0.5-0.4,0.5-0.5
				c-0.2-0.3-0.4-0.6-0.7-0.9L34.8,12l-0.6-0.4c0-0.2,0.1-0.5,0.1-0.7c-0.3-0.1-0.7-0.3-1-0.4L33,11.1c-0.3,0-0.5-0.1-0.7-0.1
				l-0.1-0.6c-0.4,0-0.8,0-1.2,0.1v0.7c-0.2,0.1-0.5,0.2-0.7,0.3L29.8,11c-0.3,0.2-0.6,0.4-0.9,0.7l0.4,0.6
				c-0.2,0.2-0.4,0.4-0.5,0.6l-0.7-0.2c-0.2,0.4-0.4,0.7-0.5,1.1l0.6,0.4c-0.1,0.3-0.1,0.5-0.1,0.8l-0.7,0.2c0,0.3,0,0.7,0.1,1.1
				h0.7c0.1,0.2,0.2,0.5,0.3,0.7L28,17.5c0.2,0.3,0.4,0.6,0.7,0.9l0.6-0.4c0.1,0.2,0.6,0.5,0.6,0.5l-0.2,0.6
				c0.3,0.2,0.7,0.4,1.1,0.5l0.4-0.6c0.2,0.1,0.8,0.1,0.8,0.1l0.1,0.7c0.4,0,0.8,0,1.2-0.1V19c0.1,0,0.7-0.3,0.7-0.3l0.5,0.2
				c0.3-0.2,0.6-0.4,0.9-0.7L35,17.6c0.2-0.2,0.4-0.4,0.5-0.6l0.6,0.2c0.2-0.4,0.4-0.7,0.5-1.1L36,15.8C36,15.5,36.1,15.3,36.1,15z
				 M32.1,17.4c-1.4,0-2.5-1.1-2.5-2.5c0-1.4,1.1-2.5,2.5-2.5c1.4,0,2.5,1.1,2.5,2.5C34.6,16.3,33.5,17.4,32.1,17.4z"/>
		</g>
		<polygon class="st0" points="24.5,12.4 23.1,21.4 20.9,21 23.8,23.8 26.6,21.9 24.8,21.6 		"/>
		<polygon class="st0" points="29.6,19.9 26.7,25.8 24.7,24.8 26.9,27.8 29.8,27.4 28.1,26.5 		"/>
		<polygon class="st0" points="16.9,19 17.9,25.5 15.6,25.9 19.1,27 21.3,25 19.5,25.3 		"/>
		<circle class="st1" cx="23" cy="23" r="22.5"/>
	</g>
</g>
</svg>
