<?xml version="1.0" encoding="utf-8"?>
<!-- Generator: Adobe Illustrator 23.0.1, SVG Export Plug-In . SVG Version: 6.00 Build 0)  -->
<svg version="1.1" id="Livello_1" xmlns="http://www.w3.org/2000/svg" xmlns:xlink="http://www.w3.org/1999/xlink" x="0px" y="0px"
	 viewBox="0 0 46 46" style="enable-background:new 0 0 46 46;" xml:space="preserve">
<style type="text/css">
	.st0{clip-path:url(#SVGID_2_);}
	.st1{fill:#3C3C3B;}
	.st2{fill:none;stroke:#3C3C3B;stroke-miterlimit:10;}
</style>
<title>Risorsa 3</title>
<g>
	<g id="Livello_1-2">
		<g>
			<defs>
				<circle id="SVGID_1_" cx="23" cy="23" r="22.5"/>
			</defs>
			<clipPath id="SVGID_2_">
				<use xlink:href="#SVGID_1_"  style="overflow:visible;"/>
			</clipPath>
			<g class="st0">
				<path class="st1" d="M17,17c1.3,2.9,1.6,6.2,0.8,9.3c-2,7.8-10,8.9-10.9,9.2c0.6,0,1.4,0.1,2.3,0.1c2.5,0,5-0.5,7.3-1.3
					c1.6-0.6,3.2-1.4,4.7-2.3c6.6-4.2,9.3-14.3,9.5-15H37L23.6,0.5L11.3,17H17z"/>
				<path class="st1" d="M6.9,36.2c2.1,0.1,4.2,0.1,6.2-0.2c2.4-0.2,4.4-1.2,5.8-1.6c0,2.3,0,5.3,0,7.7H7L6.9,36.2z"/>
				<path class="st1" d="M20.2,34c0,2.9,0,5.2,0,8.1h8.6V24.8c-0.9,2.1-2.1,4-3.6,5.7C23.6,31.8,21.9,33,20.2,34z"/>
				<path class="st1" d="M29.5,23.2v18.9H37V18h-2.6l-2.8-0.1c-0.1,0.5-0.2,0.9-0.3,1.4c-0.1,0.4-0.3,0.8-0.5,1.2
					c-0.5,1.1-0.5,1.2-0.7,1.6S29.7,22.9,29.5,23.2z"/>
			</g>
		</g>
		<circle class="st2" cx="23" cy="23" r="22.5"/>
	</g>
</g>
</svg>
