<?xml version="1.0" encoding="utf-8"?>
<!-- Generator: Adobe Illustrator 23.0.1, SVG Export Plug-In . SVG Version: 6.00 Build 0)  -->
<svg version="1.1" id="Livello_1" xmlns="http://www.w3.org/2000/svg" xmlns:xlink="http://www.w3.org/1999/xlink" x="0px" y="0px"
	 viewBox="0 0 523.3 127.6" style="enable-background:new 0 0 523.3 127.6;" xml:space="preserve">
<style type="text/css">
	.st0{clip-path:url(#SVGID_2_);}
	.st1{clip-path:url(#SVGID_4_);}
	.st2{opacity:0.5;}
	.st3{clip-path:url(#SVGID_6_);}
	.st4{fill:#FFFFFF;}
	.st5{clip-path:url(#SVGID_8_);}
	.st6{clip-path:url(#SVGID_10_);}
	.st7{clip-path:url(#SVGID_12_);}
	.st8{clip-path:url(#SVGID_14_);}
	.st9{clip-path:url(#SVGID_16_);}
	.st10{clip-path:url(#SVGID_18_);}
	.st11{clip-path:url(#SVGID_20_);}
	.st12{clip-path:url(#SVGID_22_);}
	.st13{clip-path:url(#SVGID_24_);}
	.st14{clip-path:url(#SVGID_26_);}
	.st15{clip-path:url(#SVGID_28_);}
	.st16{clip-path:url(#SVGID_30_);}
	.st17{clip-path:url(#SVGID_32_);}
	.st18{clip-path:url(#SVGID_34_);}
	.st19{clip-path:url(#SVGID_36_);}
	.st20{clip-path:url(#SVGID_38_);}
	.st21{clip-path:url(#SVGID_40_);}
	.st22{clip-path:url(#SVGID_42_);}
	.st23{clip-path:url(#SVGID_44_);}
	.st24{fill:#DADADA;}
	.st25{clip-path:url(#SVGID_46_);}
	.st26{fill:#799AA7;}
	.st27{clip-path:url(#SVGID_48_);}
	.st28{clip-path:url(#SVGID_50_);}
	.st29{clip-path:url(#SVGID_52_);}
	.st30{clip-path:url(#SVGID_54_);}
	.st31{clip-path:url(#SVGID_56_);}
	.st32{clip-path:url(#SVGID_58_);}
	.st33{clip-path:url(#SVGID_60_);}
	.st34{clip-path:url(#SVGID_62_);}
	.st35{clip-path:url(#SVGID_64_);}
	.st36{fill:#D0D0D0;}
	.st37{clip-path:url(#SVGID_66_);}
	.st38{fill:#EDEDED;}
</style>
<title>schema</title>
<g>
	<g id="Livello_1-2">
		<g>
			<defs>
				<rect id="SVGID_1_" y="0" width="523.3" height="127.6"/>
			</defs>
			<clipPath id="SVGID_2_">
				<use xlink:href="#SVGID_1_"  style="overflow:visible;"/>
			</clipPath>
			<g class="st0">
				<g>
					<defs>
						<rect id="SVGID_3_" y="0" width="523.3" height="127.6"/>
					</defs>
					<clipPath id="SVGID_4_">
						<use xlink:href="#SVGID_3_"  style="overflow:visible;"/>
					</clipPath>
					<g class="st1">
						<g class="st2">
							<g>
								<defs>
									<rect id="SVGID_5_" x="-8.5" y="-6.5" width="65.6" height="70.3"/>
								</defs>
								<clipPath id="SVGID_6_">
									<use xlink:href="#SVGID_5_"  style="overflow:visible;"/>
								</clipPath>
								<g class="st3">
									<rect x="0.5" y="0.5" class="st4" width="47.6" height="62.3"/>
								</g>
							</g>
						</g>
						<g class="st2">
							<g>
								<defs>
									<rect id="SVGID_7_" x="86.5" y="-6.5" width="64.9" height="70.3"/>
								</defs>
								<clipPath id="SVGID_8_">
									<use xlink:href="#SVGID_7_"  style="overflow:visible;"/>
								</clipPath>
								<g class="st5">
									<rect x="95.5" y="0.5" class="st4" width="46.9" height="62.3"/>
								</g>
							</g>
						</g>
						<g class="st2">
							<g>
								<defs>
									<rect id="SVGID_9_" x="133.9" y="-6.5" width="65.3" height="70.3"/>
								</defs>
								<clipPath id="SVGID_10_">
									<use xlink:href="#SVGID_9_"  style="overflow:visible;"/>
								</clipPath>
								<g class="st6">
									<rect x="142.9" y="0.5" class="st4" width="47.3" height="62.3"/>
								</g>
							</g>
						</g>
						<g class="st2">
							<g>
								<defs>
									<rect id="SVGID_11_" x="275.4" y="-6.5" width="64.7" height="70.3"/>
								</defs>
								<clipPath id="SVGID_12_">
									<use xlink:href="#SVGID_11_"  style="overflow:visible;"/>
								</clipPath>
								<g class="st7">
									<rect x="284.4" y="0.5" class="st4" width="46.7" height="62.3"/>
								</g>
							</g>
						</g>
						<g class="st2">
							<g>
								<defs>
									<rect id="SVGID_13_" x="322.5" y="-6.5" width="65.4" height="70.3"/>
								</defs>
								<clipPath id="SVGID_14_">
									<use xlink:href="#SVGID_13_"  style="overflow:visible;"/>
								</clipPath>
								<g class="st8">
									<rect x="331.5" y="0.5" class="st4" width="47.4" height="62.3"/>
								</g>
							</g>
						</g>
						<g class="st2">
							<g>
								<defs>
									<rect id="SVGID_15_" x="39.6" y="56.5" width="64.4" height="71.5"/>
								</defs>
								<clipPath id="SVGID_16_">
									<use xlink:href="#SVGID_15_"  style="overflow:visible;"/>
								</clipPath>
								<g class="st9">
									<rect x="48.6" y="63.5" class="st4" width="46.4" height="63.5"/>
								</g>
							</g>
						</g>
						<g class="st2">
							<g>
								<defs>
									<rect id="SVGID_17_" x="-8.5" y="56.5" width="65.6" height="71.5"/>
								</defs>
								<clipPath id="SVGID_18_">
									<use xlink:href="#SVGID_17_"  style="overflow:visible;"/>
								</clipPath>
								<g class="st10">
									<rect x="0.5" y="63.5" class="st4" width="47.6" height="63.5"/>
								</g>
							</g>
						</g>
						<g class="st2">
							<g>
								<defs>
									<rect id="SVGID_19_" x="39.6" y="-6.5" width="64.4" height="70.3"/>
								</defs>
								<clipPath id="SVGID_20_">
									<use xlink:href="#SVGID_19_"  style="overflow:visible;"/>
								</clipPath>
								<g class="st11">
									<rect x="48.6" y="0.5" class="st4" width="46.4" height="62.3"/>
								</g>
							</g>
						</g>
						<g class="st2">
							<g>
								<defs>
									<rect id="SVGID_21_" x="370.4" y="-6.5" width="64.4" height="70.3"/>
								</defs>
								<clipPath id="SVGID_22_">
									<use xlink:href="#SVGID_21_"  style="overflow:visible;"/>
								</clipPath>
								<g class="st12">
									<rect x="379.4" y="0.5" class="st4" width="46.5" height="62.3"/>
								</g>
							</g>
						</g>
						<g class="st2">
							<g>
								<defs>
									<rect id="SVGID_23_" x="275.4" y="56.5" width="64.7" height="71.5"/>
								</defs>
								<clipPath id="SVGID_24_">
									<use xlink:href="#SVGID_23_"  style="overflow:visible;"/>
								</clipPath>
								<g class="st13">
									<rect x="284.4" y="63.5" class="st4" width="46.7" height="63.5"/>
								</g>
							</g>
						</g>
						<g class="st2">
							<g>
								<defs>
									<rect id="SVGID_25_" x="322.5" y="56.5" width="65.4" height="71.5"/>
								</defs>
								<clipPath id="SVGID_26_">
									<use xlink:href="#SVGID_25_"  style="overflow:visible;"/>
								</clipPath>
								<g class="st14">
									<rect x="331.5" y="63.5" class="st4" width="47.4" height="63.5"/>
								</g>
							</g>
						</g>
						<g class="st2">
							<g>
								<defs>
									<rect id="SVGID_27_" x="370.4" y="56.5" width="64.4" height="71.5"/>
								</defs>
								<clipPath id="SVGID_28_">
									<use xlink:href="#SVGID_27_"  style="overflow:visible;"/>
								</clipPath>
								<g class="st15">
									<rect x="379.4" y="63.5" class="st4" width="46.5" height="63.5"/>
								</g>
							</g>
						</g>
						<g class="st2">
							<g>
								<defs>
									<rect id="SVGID_29_" x="417.3" y="56.5" width="64.9" height="71.5"/>
								</defs>
								<clipPath id="SVGID_30_">
									<use xlink:href="#SVGID_29_"  style="overflow:visible;"/>
								</clipPath>
								<g class="st16">
									<rect x="426.3" y="63.5" class="st4" width="46.9" height="63.5"/>
								</g>
							</g>
						</g>
						<g class="st2">
							<g>
								<defs>
									<rect id="SVGID_31_" x="464.7" y="56.5" width="67.1" height="71.5"/>
								</defs>
								<clipPath id="SVGID_32_">
									<use xlink:href="#SVGID_31_"  style="overflow:visible;"/>
								</clipPath>
								<g class="st17">
									<rect x="473.7" y="63.5" class="st4" width="49.1" height="63.5"/>
								</g>
							</g>
						</g>
						<g class="st2">
							<g>
								<defs>
									<rect id="SVGID_33_" x="133.9" y="56.5" width="65.3" height="71.5"/>
								</defs>
								<clipPath id="SVGID_34_">
									<use xlink:href="#SVGID_33_"  style="overflow:visible;"/>
								</clipPath>
								<g class="st18">
									<rect x="142.9" y="63.5" class="st4" width="47.3" height="63.5"/>
								</g>
							</g>
						</g>
						<g class="st2">
							<g>
								<defs>
									<rect id="SVGID_35_" x="181.6" y="56.5" width="64.8" height="71.5"/>
								</defs>
								<clipPath id="SVGID_36_">
									<use xlink:href="#SVGID_35_"  style="overflow:visible;"/>
								</clipPath>
								<g class="st19">
									<rect x="190.6" y="63.5" class="st4" width="46.8" height="63.5"/>
								</g>
							</g>
						</g>
						<g class="st2">
							<g>
								<defs>
									<rect id="SVGID_37_" x="228.9" y="56.5" width="64" height="71.5"/>
								</defs>
								<clipPath id="SVGID_38_">
									<use xlink:href="#SVGID_37_"  style="overflow:visible;"/>
								</clipPath>
								<g class="st20">
									<rect x="237.9" y="63.5" class="st4" width="46" height="63.5"/>
								</g>
							</g>
						</g>
						<g class="st2">
							<g>
								<defs>
									<rect id="SVGID_39_" x="181.6" y="-6.5" width="64.8" height="70.3"/>
								</defs>
								<clipPath id="SVGID_40_">
									<use xlink:href="#SVGID_39_"  style="overflow:visible;"/>
								</clipPath>
								<g class="st21">
									<rect x="190.6" y="0.5" class="st4" width="46.8" height="62.3"/>
								</g>
							</g>
						</g>
						<g class="st2">
							<g>
								<defs>
									<rect id="SVGID_41_" x="228.9" y="-6.5" width="64" height="70.3"/>
								</defs>
								<clipPath id="SVGID_42_">
									<use xlink:href="#SVGID_41_"  style="overflow:visible;"/>
								</clipPath>
								<g class="st22">
									<rect x="237.9" y="0.5" class="st4" width="46" height="62.3"/>
								</g>
							</g>
						</g>
						<g class="st2">
							<g>
								<defs>
									<rect id="SVGID_43_" x="86.5" y="56.5" width="64.9" height="71.5"/>
								</defs>
								<clipPath id="SVGID_44_">
									<use xlink:href="#SVGID_43_"  style="overflow:visible;"/>
								</clipPath>
								<g class="st23">
									<rect x="95.5" y="63.5" class="st4" width="46.9" height="63.5"/>
								</g>
							</g>
						</g>
					</g>
				</g>
				<path class="st24" d="M0.5,0.5h47.6V63H0.5V0.5z M0,63.5h48.5V0H0V63.5z"/>
				<g>
					<defs>
						<rect id="SVGID_45_" y="0" width="523.3" height="127.6"/>
					</defs>
					<clipPath id="SVGID_46_">
						<use xlink:href="#SVGID_45_"  style="overflow:visible;"/>
					</clipPath>
					<g class="st25">
						<path class="st26" d="M37.2,49.9h-4.8v-2.7h4.8V49.9z M29.5,49.9h-4.8v-2.7h4.8L29.5,49.9z M21.5,49.9h-4.8v-2.7h4.7
							L21.5,49.9z M30.8,46.1V39l-7.7,7.1v-7L15.3,46c-0.4-11.6,0-17,0-17H10c0,0,0.4,7.6,0,22.6h28.3V39.1L30.8,46.1z"/>
						<path class="st26" d="M11,26.6L11,26.6c0.4,0,0.7-0.1,0.8-0.4c0.2-0.3,0.3-0.7,0.3-1.1c0-0.4-0.1-0.8-0.3-1.1
							c-0.2-0.3-0.5-0.4-0.8-0.4H11V26.6z M10.1,27.5v-4.7h0.8c0.6,0,1.2,0.2,1.6,0.6c0.4,0.5,0.6,1.1,0.5,1.8
							c0,0.4-0.1,0.8-0.2,1.2c-0.1,0.3-0.3,0.6-0.6,0.8c-0.2,0.1-0.4,0.2-0.6,0.3c-0.3,0.1-0.6,0.1-0.9,0.1H10.1z"/>
						<path class="st26" d="M14.7,26.8c0.2,0,0.3-0.1,0.4-0.2c0.1-0.2,0.1-0.4,0.1-0.6c0-0.2,0-0.4-0.1-0.6
							c-0.1-0.1-0.2-0.2-0.4-0.2c-0.2,0-0.3,0.1-0.4,0.2c-0.1,0.2-0.1,0.4-0.1,0.6c0,0.2,0,0.4,0.1,0.7
							C14.4,26.7,14.5,26.8,14.7,26.8 M16,25.9c0,0.4-0.1,0.8-0.4,1.2c-0.2,0.3-0.6,0.5-1,0.4c-0.4,0-0.7-0.1-1-0.4
							c-0.5-0.7-0.5-1.6,0-2.4c0.2-0.3,0.6-0.5,1-0.4c0.4,0,0.8,0.1,1,0.4C15.9,25.1,16,25.5,16,25.9"/>
						<path class="st26" d="M18.4,24.4l0.3,1.3c0,0.1,0,0.3,0,0.4c0,0.2,0,0.3,0.1,0.5c0-0.2,0-0.4,0.1-0.5s0.1-0.3,0.1-0.4l0.2-1.3
							h0.8l-0.8,3.2h-0.8l-0.2-1.3c0,0,0-0.2,0-0.4s0-0.4-0.1-0.7v0.1c0,0.5-0.1,0.8-0.1,0.9l-0.3,1.3H17l-0.8-3.1H17l0.2,1.3
							c0,0,0,0.2,0.1,0.6v0.3c0-0.2,0-0.4,0.1-0.5c0-0.2,0-0.3,0.1-0.4l0.3-1.4L18.4,24.4z"/>
						<path class="st26" d="M21.7,27.5v-1.9c0-0.1,0-0.3-0.1-0.4c0-0.1-0.1-0.1-0.2-0.1c-0.1,0-0.2,0-0.2,0.1
							c-0.1,0.1-0.1,0.3-0.1,0.4v1.9h-0.9v-3.2H21v0.5c0.1-0.2,0.2-0.3,0.4-0.4c0.1-0.1,0.3-0.1,0.5-0.1c0.2,0,0.4,0.1,0.5,0.2
							c0.1,0.3,0.2,0.5,0.1,0.8v2.2H21.7z"/>
						<path class="st26" d="M22.9,27.2l0.4-0.6c0.1,0.1,0.2,0.1,0.3,0.2c0.1,0,0.1,0,0.2,0c0.1,0,0.1,0,0.2-0.1c0,0,0.1-0.1,0.1-0.2
							c0-0.1-0.1-0.2-0.3-0.4l-0.1-0.1c-0.2-0.1-0.3-0.2-0.4-0.4c-0.1-0.1-0.1-0.3-0.1-0.5c0-0.3,0.1-0.5,0.3-0.7
							c0.2-0.2,0.5-0.3,0.7-0.3c0.1,0,0.3,0,0.4,0.1c0.1,0,0.3,0.1,0.4,0.2l-0.4,0.6c-0.1-0.1-0.2-0.1-0.2-0.2c-0.1,0-0.1,0-0.2,0
							c-0.1,0-0.1,0-0.2,0.1c0,0-0.1,0.1-0.1,0.1c0,0.1,0.1,0.2,0.3,0.3l0.1,0.1c0.2,0.1,0.3,0.3,0.5,0.4c0.1,0.1,0.1,0.3,0.1,0.5
							c0,0.3-0.1,0.5-0.3,0.7c-0.2,0.2-0.5,0.3-0.8,0.3c-0.2,0-0.3,0-0.5-0.1C23.2,27.4,23.1,27.3,22.9,27.2"/>
					</g>
				</g>
				<polygon class="st26" points="25.5,27.5 25.5,25.1 25.1,25.1 25.1,24.4 25.5,24.4 25.5,23.5 26.3,23.5 26.3,24.4 26.7,24.4 
					26.7,25.1 26.3,25.1 26.3,27.5 				"/>
				<g>
					<defs>
						<rect id="SVGID_47_" y="0" width="523.3" height="127.6"/>
					</defs>
					<clipPath id="SVGID_48_">
						<use xlink:href="#SVGID_47_"  style="overflow:visible;"/>
					</clipPath>
					<g class="st27">
						<path class="st26" d="M27,27.5v-3.2h0.8v0.6c0.1-0.2,0.1-0.3,0.3-0.5c0.1-0.1,0.3-0.2,0.4-0.2v0.8h-0.1c-0.2,0-0.3,0-0.5,0.2
							c-0.1,0.2-0.2,0.5-0.1,0.7v1.5H27z"/>
						<path class="st26" d="M30.5,25.7c0-0.2,0-0.4-0.1-0.5C30.3,25.1,30.2,25,30,25c-0.1,0-0.3,0.1-0.3,0.2
							c-0.1,0.2-0.1,0.3-0.1,0.5H30.5z M29.6,26.2L29.6,26.2c0,0.2,0,0.4,0.1,0.5c0.1,0.1,0.2,0.2,0.4,0.2c0.1,0,0.2,0,0.3-0.1
							c0.1-0.1,0.1-0.2,0.2-0.3h0.7c-0.1,0.3-0.2,0.5-0.4,0.7c-0.2,0.2-0.5,0.3-0.8,0.3c-0.4,0-0.7-0.1-0.9-0.4
							c-0.2-0.3-0.4-0.8-0.3-1.2c0-0.4,0.1-0.8,0.3-1.2c0.2-0.3,0.6-0.5,0.9-0.4c0.4,0,0.7,0.1,0.9,0.4c0.2,0.4,0.3,0.8,0.3,1.3v0.2
							L29.6,26.2z"/>
						<path class="st26" d="M33.2,25.9c0-0.2,0-0.4-0.1-0.6c0-0.1-0.2-0.2-0.3-0.2c-0.1,0-0.2,0.1-0.3,0.2c-0.1,0.2-0.1,0.4-0.1,0.7
							c0,0.2,0,0.5,0.1,0.7c0.1,0.2,0.2,0.2,0.3,0.2c0.1,0,0.3-0.1,0.3-0.2C33.2,26.4,33.2,26.1,33.2,25.9 M34,27.5h-0.8V27
							c-0.1,0.1-0.2,0.3-0.3,0.4c-0.1,0.1-0.3,0.1-0.4,0.1c-0.3,0-0.5-0.2-0.7-0.4c-0.2-0.4-0.3-0.8-0.2-1.2c0-0.4,0.1-0.8,0.3-1.2
							c0.1-0.3,0.4-0.4,0.7-0.4c0.1,0,0.3,0,0.4,0.1c0.1,0.1,0.2,0.2,0.3,0.4v-0.5H34L34,27.5z"/>
						<path class="st26" d="M34.7,27.5v-3.2h0.8v0.5c0.1-0.2,0.2-0.3,0.4-0.4c0.1-0.1,0.3-0.1,0.5-0.1c0.1,0,0.3,0,0.4,0.1
							c0.1,0.1,0.2,0.2,0.2,0.4c0.1-0.2,0.2-0.3,0.4-0.4c0.1-0.1,0.3-0.1,0.4-0.1c0.2,0,0.4,0.1,0.5,0.2c0.1,0.3,0.2,0.7,0.1,1v2
							h-0.9v-2c0-0.1,0-0.2,0-0.4c0-0.1-0.1-0.1-0.2-0.1c-0.1,0-0.2,0-0.2,0.1C37,25.4,37,25.5,37,25.7v1.9h-0.8v-1.9
							c0-0.1,0-0.2,0-0.4c0-0.1-0.1-0.1-0.2-0.1c-0.1,0-0.2,0-0.3,0.1c-0.1,0.1-0.1,0.3-0.1,0.4v1.9H34.7z"/>
					</g>
				</g>
				<path class="st24" d="M95.5,0.5h46.9V63H95.5V0.5z M95,63.5h47.9V0H95L95,63.5z"/>
				<g>
					<defs>
						<rect id="SVGID_49_" y="0" width="523.3" height="127.6"/>
					</defs>
					<clipPath id="SVGID_50_">
						<use xlink:href="#SVGID_49_"  style="overflow:visible;"/>
					</clipPath>
					<g class="st28">
						<path class="st26" d="M121.3,38.1c0,0-7.5-6.9-12.8,0c-0.9,1.2-1.5,2.4-1.3,5.8h-4.8l7.1,7.1l6.9-7.1h-4.7
							C111.9,43.9,111.2,33.6,121.3,38.1"/>
						<path class="st26" d="M125.3,48l-4.9-4.9l7-7.1l4.9,4.9L125.3,48z M135.3,38.1l-1.1-1.1c-0.3,0.7-1,1.1-1.7,1.1
							c-1,0-1.9-0.8-1.9-1.9c0,0,0,0,0,0c0-0.7,0.4-1.3,1.1-1.6l-1.3-1.3c-0.6-0.6-1.5-0.6-2.1,0l-10.7,10.6c-0.6,0.6-0.6,1.5,0,2.1
							c0,0,0,0,0,0l1.3,1.3c0.5-0.9,1.6-1.3,2.5-0.8s1.3,1.6,0.8,2.5c-0.2,0.3-0.5,0.6-0.8,0.8l1.1,1.1c0.6,0.6,1.5,0.6,2.1,0
							l10.7-10.7C135.9,39.7,135.9,38.7,135.3,38.1C135.3,38.1,135.3,38.1,135.3,38.1"/>
					</g>
				</g>
				
					<rect x="123.2" y="40.3" transform="matrix(0.7071 -0.7071 0.7071 0.7071 7.2897 101.7966)" class="st26" width="6.7" height="3.5"/>
				<path class="st24" d="M142.9,0.5h47.3V63h-47.3V0.5z M142.4,63.5h48.2V0h-48.2V63.5z"/>
				<g>
					<defs>
						<rect id="SVGID_51_" y="0" width="523.3" height="127.6"/>
					</defs>
					<clipPath id="SVGID_52_">
						<use xlink:href="#SVGID_51_"  style="overflow:visible;"/>
					</clipPath>
					<g class="st29">
						<path class="st26" d="M158.5,26.7c-0.2,0-0.4,0.1-0.4,0.3v23c0,0.2,0.2,0.4,0.4,0.3h15.8c0.2,0,0.4-0.1,0.4-0.3v-23
							c0-0.2-0.2-0.4-0.4-0.3H158.5z M174.3,51.2h-15.8c-0.7,0-1.2-0.5-1.2-1.2c0,0,0,0,0,0v-23c0-0.7,0.5-1.2,1.2-1.2c0,0,0,0,0,0
							h15.8c0.7,0,1.2,0.5,1.2,1.2c0,0,0,0,0,0v23C175.4,50.7,174.9,51.2,174.3,51.2C174.3,51.2,174.3,51.2,174.3,51.2"/>
						<path class="st26" d="M163.1,32.3c0,0.8-0.6,1.4-1.4,1.4c-0.8,0-1.4-0.6-1.4-1.4c0-0.8,0.6-1.4,1.4-1.4c0,0,0,0,0,0
							C162.5,30.9,163.1,31.5,163.1,32.3"/>
						<path class="st26" d="M163.1,38.5c0,0.8-0.6,1.4-1.4,1.4c-0.8,0-1.4-0.6-1.4-1.4s0.6-1.4,1.4-1.4c0,0,0,0,0,0
							C162.5,37.1,163.1,37.8,163.1,38.5"/>
						<path class="st26" d="M163.1,45.3c0,0.8-0.6,1.4-1.4,1.4c-0.8,0-1.4-0.6-1.4-1.4s0.6-1.4,1.4-1.4S163.1,44.6,163.1,45.3
							L163.1,45.3"/>
					</g>
				</g>
				<rect x="164.6" y="31.5" class="st26" width="7.5" height="1.2"/>
				<rect x="164.6" y="37.9" class="st26" width="7.5" height="1.2"/>
				<rect x="164.6" y="44.7" class="st26" width="7.5" height="1.2"/>
				<g>
					<defs>
						<rect id="SVGID_53_" y="0" width="523.3" height="127.6"/>
					</defs>
					<clipPath id="SVGID_54_">
						<use xlink:href="#SVGID_53_"  style="overflow:visible;"/>
					</clipPath>
					<g class="st30">
						<path class="st26" d="M179.2,23.7c-0.8-0.5-1.8-0.4-2.4,0.4l-3.8,5.3l-1.6-2c-0.6-0.7-1.7-0.8-2.4-0.3s-0.8,1.7-0.3,2.4l3,3.8
							c0.3,0.4,0.7,0.6,1.1,0.6c0.1,0,0.2,0,0.2,0c0.5,0,1-0.3,1.3-0.7l5.1-7.1C180.2,25.3,180,24.3,179.2,23.7"/>
					</g>
				</g>
				<path class="st24" d="M284.4,0.5H331V63h-46.7V0.5z M283.9,63.5h47.6V0h-47.6V63.5z"/>
				<g>
					<defs>
						<rect id="SVGID_55_" y="0" width="523.3" height="127.6"/>
					</defs>
					<clipPath id="SVGID_56_">
						<use xlink:href="#SVGID_55_"  style="overflow:visible;"/>
					</clipPath>
					<g class="st31">
						<path class="st26" d="M299.8,27.3c-0.2,0-0.4,0.1-0.4,0.3v23c0,0.2,0.2,0.4,0.4,0.3h15.7c0.2,0,0.4-0.1,0.4-0.3v-23
							c0-0.2-0.2-0.4-0.4-0.3H299.8z M315.5,51.8h-15.7c-0.7,0-1.2-0.5-1.2-1.2c0,0,0,0,0,0v-23c0-0.7,0.6-1.2,1.2-1.2c0,0,0,0,0,0
							h15.7c0.7,0,1.2,0.5,1.2,1.2v23C316.7,51.3,316.1,51.8,315.5,51.8C315.5,51.8,315.5,51.8,315.5,51.8"/>
						<path class="st26" d="M304.4,32.9c0,0.8-0.6,1.4-1.4,1.4c-0.8,0-1.4-0.6-1.4-1.4c0-0.8,0.6-1.4,1.4-1.4c0,0,0,0,0,0
							C303.8,31.5,304.4,32.1,304.4,32.9"/>
						<path class="st26" d="M304.4,39.2c0,0.8-0.6,1.4-1.4,1.4s-1.4-0.6-1.4-1.4c0-0.8,0.6-1.4,1.4-1.4c0,0,0,0,0,0
							C303.8,37.7,304.4,38.4,304.4,39.2C304.4,39.2,304.4,39.2,304.4,39.2"/>
						<path class="st26" d="M304.4,45.9c0,0.8-0.6,1.4-1.4,1.4s-1.4-0.6-1.4-1.4c0-0.8,0.6-1.4,1.4-1.4c0,0,0,0,0,0
							C303.8,44.5,304.4,45.1,304.4,45.9"/>
					</g>
				</g>
				<rect x="305.9" y="32.1" class="st26" width="7.5" height="1.2"/>
				<rect x="305.9" y="38.5" class="st26" width="7.5" height="1.2"/>
				<rect x="305.9" y="45.3" class="st26" width="7.5" height="1.2"/>
				<g>
					<defs>
						<rect id="SVGID_57_" y="0" width="523.3" height="127.6"/>
					</defs>
					<clipPath id="SVGID_58_">
						<use xlink:href="#SVGID_57_"  style="overflow:visible;"/>
					</clipPath>
					<g class="st32">
						<path class="st26" d="M320.5,24.3c-0.8-0.5-1.8-0.4-2.4,0.4l-3.8,5.3l-1.6-2c-0.6-0.7-1.7-0.9-2.4-0.3
							c-0.7,0.6-0.9,1.7-0.3,2.4l3,3.8c0.3,0.4,0.7,0.6,1.1,0.6h0.3c0.5,0,1-0.3,1.3-0.7l5.1-7.1C321.5,25.9,321.3,24.9,320.5,24.3"
							/>
					</g>
				</g>
				<path class="st24" d="M331.5,0.5h47.4V63h-47.4V0.5z M331,63.5h48.4V0H331L331,63.5z"/>
				<g>
					<defs>
						<rect id="SVGID_59_" y="0" width="523.3" height="127.6"/>
					</defs>
					<clipPath id="SVGID_60_">
						<use xlink:href="#SVGID_59_"  style="overflow:visible;"/>
					</clipPath>
					<g class="st33">
						<path class="st26" d="M355.2,32.2c-5,0-9.1-1-9.1-2.2s4.1-2.2,9.1-2.2s9.1,1,9.1,2.2S360.2,32.2,355.2,32.2 M365.3,29.5
							c0-1.5-4.5-2.7-10.1-2.7s-10.1,1.2-10.1,2.7c0,0.1,0,0.1,0,0.2l0,0V32l7.5,7.4V46h0c0,0,0,4.2,0,4.3c0,0.7,1.1,1.2,2.5,1.2
							s2.6-0.5,2.6-1.2c0-0.1,0-4.2,0-4.3h0v-6.4l7.5-7.5v-2.3l0,0C365.4,29.7,365.4,29.6,365.3,29.5"/>
					</g>
				</g>
				<path class="st24" d="M48.6,63.4H95v63.7H48.6V63.4z M48.1,127.6h47.4V63H48.1V127.6z"/>
				<g>
					<defs>
						<rect id="SVGID_61_" y="0" width="523.3" height="127.6"/>
					</defs>
					<clipPath id="SVGID_62_">
						<use xlink:href="#SVGID_61_"  style="overflow:visible;"/>
					</clipPath>
					<g class="st34">
						<path d="M80.3,104.2H63.8V92.6h-3.6c-0.3,0-0.6-0.3-0.6-0.6s0.3-0.6,0.6-0.6c0,0,0,0,0,0H65v11.5h14.1V91.4h4.2
							c0.3,0,0.6,0.3,0.6,0.6s-0.3,0.6-0.6,0.6c0,0,0,0,0,0h-3L80.3,104.2z"/>
						<path class="st26" d="M82.4,90.5H61.1c-0.3,0-0.6-0.3-0.6-0.6c0-0.3,0.3-0.6,0.6-0.6h21.3c0.3,0,0.6,0.3,0.6,0.6
							C83,90.3,82.7,90.5,82.4,90.5"/>
						<path class="st26" d="M78.8,78.7c-0.7,0.2-1.4-0.1-1.5-0.6s0.4-1,1.2-1.2s1.4,0.1,1.5,0.6C80.1,78,79.5,78.5,78.8,78.7
							 M75,79.1c-0.5,0-0.8-0.4-0.8-0.9c0-0.5,0.4-0.8,0.9-0.8c0.5,0,0.8,0.4,0.8,0.9C75.9,78.8,75.5,79.2,75,79.1
							C75,79.1,75,79.1,75,79.1 M73.3,74.8c-0.1-0.8,0.2-1.4,0.7-1.5c0.5-0.1,1,0.5,1,1.3s-0.2,1.4-0.7,1.5S73.3,75.6,73.3,74.8
							 M80.6,77.3c-0.4-1-1.5-1.5-2.5-1.2c-0.5,0.1-0.9,0.4-1.3,0.9l-1.2,0.2c-0.1-0.4-0.1-0.7-0.2-1c0.4-0.5,0.5-1.1,0.4-1.8
							c0-1-0.9-1.8-1.9-1.7c-1,0-1.8,0.9-1.7,1.9c0,0.2,0,0.4,0.1,0.5c0.1,0.7,0.6,1.3,1.2,1.6c0,0.2,0.1,0.5,0.2,0.8
							c-1.3,0.2-2.7,0.5-4,0.9c-1,0.4-1.3,2-1.3,2l5.7-1l1,5.7c0,0,1.4-0.7,1.4-1.9c-0.1-1.4-0.2-2.8-0.5-4.2l0.9-0.2
							c0.5,0.6,1.4,0.8,2.2,0.6C80.1,79.3,80.7,78.3,80.6,77.3"/>
					</g>
				</g>
				<path class="st24" d="M0.5,63.4h47.6v63.7H0.5V63.4z M0,127.6h48.5V63H0V127.6z"/>
				<g>
					<defs>
						<rect id="SVGID_63_" y="0" width="523.3" height="127.6"/>
					</defs>
					<clipPath id="SVGID_64_">
						<use xlink:href="#SVGID_63_"  style="overflow:visible;"/>
					</clipPath>
					<g class="st35">
						<path d="M33.2,104.2H16.6V92.6h-3.6c-0.3,0-0.6-0.3-0.6-0.6c0-0.3,0.3-0.6,0.6-0.6h4.8v11.5h14.1V91.4h4.2
							c0.3,0,0.6,0.3,0.6,0.6c0,0.3-0.3,0.6-0.6,0.6h-3L33.2,104.2z"/>
						<path class="st36" d="M35.3,90.5H13.9c-0.3,0-0.6-0.3-0.6-0.6c0-0.3,0.3-0.6,0.6-0.6c0,0,0,0,0,0h21.3c0.3,0,0.6,0.3,0.6,0.6
							C35.9,90.3,35.6,90.5,35.3,90.5"/>
						<path class="st26" d="M13.5,107.3c-1.6,0-2.9,1.2-3,2.8v0.1c0.1,1.6,1.4,2.8,3,2.8h22.2c1.6,0.1,3-1.1,3.1-2.8V110
							c-0.1-1.6-1.5-2.8-3.1-2.8H13.5z M35.6,113.7H13.5c-2.1,0.1-3.8-1.5-3.9-3.6V110c0.1-2.1,1.9-3.7,3.9-3.6h22.2
							c2.1-0.1,3.8,1.5,3.9,3.6v0.1C39.5,112.2,37.8,113.8,35.6,113.7"/>
						<path class="st26" d="M11.8,110c0,1.4,1.1,2.5,2.5,2.5s2.5-1.1,2.5-2.5s-1.1-2.5-2.5-2.5S11.8,108.6,11.8,110L11.8,110"/>
						<path class="st26" d="M32.4,110c0,1.4,1.1,2.5,2.5,2.5c1.4,0,2.5-1.1,2.5-2.5c0-1.4-1.1-2.5-2.5-2.5c0,0,0,0,0,0
							C33.5,107.4,32.4,108.6,32.4,110C32.4,110,32.4,110,32.4,110"/>
					</g>
				</g>
				<path class="st24" d="M48.6,0.5H95V63H48.6V0.5z M48.1,63.5h47.4V0H48.1V63.5z"/>
				<polygon class="st36" points="68.1,46 65.7,39.8 66.1,39.7 68.4,45.9 				"/>
				<polygon class="st36" points="72.9,43.3 70.7,36.3 71.1,36.1 73.3,43.2 				"/>
				<g>
					<defs>
						<rect id="SVGID_65_" y="0" width="523.3" height="127.6"/>
					</defs>
					<clipPath id="SVGID_66_">
						<use xlink:href="#SVGID_65_"  style="overflow:visible;"/>
					</clipPath>
					<g class="st37">
						<path class="st26" d="M73.5,31.8c0,2.6,2.1,4.6,4.6,4.6c2.6,0,4.6-2.1,4.6-4.6c0-2.6-2.1-4.6-4.6-4.6c0,0,0,0,0,0
							C75.6,27.2,73.5,29.3,73.5,31.8"/>
						<path class="st26" d="M58.3,39.6c0,1.7,1.4,3.2,3.1,3.2s3.2-1.4,3.2-3.1c0-1.7-1.4-3.2-3.1-3.2c0,0,0,0,0,0
							C59.8,36.6,58.4,38,58.3,39.6"/>
						<path class="st26" d="M69.8,47c0,1.5,1.2,2.6,2.6,2.6c1.5,0,2.6-1.2,2.6-2.6c0-1.4-1.2-2.6-2.6-2.6C71,44.3,69.9,45.5,69.8,47
							"/>
						<path class="st26" d="M77.8,35.5c-2.1,0-3.7-1.7-3.7-3.7c0-2.1,1.7-3.7,3.7-3.7c2.1,0,3.7,1.7,3.7,3.7c0,0,0,0,0,0
							C81.6,33.9,79.9,35.6,77.8,35.5 M81.6,37.8c0.6-0.4,1.1-0.8,1.5-1.3l1.6,0.9l1.5-2.5L84.6,34c0.2-0.6,0.3-1.3,0.3-2l1.8-0.3
							l-0.5-2.9l-1.8,0.3c-0.3-0.6-0.6-1.2-1-1.7l1.2-1.4l-2.2-1.9l-1.2,1.4c-0.6-0.3-1.2-0.5-1.9-0.7v-1.8h-2.9v1.9
							c-0.7,0.1-1.3,0.4-1.9,0.7l-1.2-1.4l-2.2,1.9l1.2,1.5c-0.4,0.5-0.7,1.1-1,1.7l-1.8-0.4L69,31.8l1.8,0.3c0,0.7,0.1,1.4,0.3,2
							L69.5,35l1.5,2.6l1.6-1c0.4,0.5,1,0.9,1.5,1.3l-0.6,1.8l2.7,1l0.6-1.7c0.3,0,0.7,0.1,1,0.1c0.3,0,0.7,0,1-0.1l0.6,1.7l2.7-1
							L81.6,37.8z"/>
						<path class="st26" d="M62.5,41.5c-1.1,0.6-2.4,0.2-3-0.9s-0.2-2.4,0.9-3c1.1-0.6,2.4-0.2,3,0.9C64,39.6,63.6,41,62.5,41.5
							C62.5,41.5,62.5,41.5,62.5,41.5 M66.6,40.6v-1.7h-1.1c-0.1-0.4-0.2-0.8-0.4-1.1l0.9-0.7l-1.1-1.4l-0.9,0.7
							c-0.3-0.3-0.6-0.5-1-0.6l0.2-1.1l-1.7-0.3l-0.2,1.1c-0.4,0-0.8,0.1-1.2,0.2l-0.5-1l-1.5,0.9l0.5,1c-0.3,0.3-0.6,0.6-0.8,0.9
							l-1-0.4l-0.6,1.5l1,0.4c-0.1,0.4-0.1,0.8,0,1.2l-1,0.3l0.6,1.6l1-0.3c0.2,0.3,0.4,0.7,0.7,0.9L58,43.6l1.5,0.9l0.6-0.9
							c0.4,0.1,0.8,0.2,1.2,0.2l0.2,1.1l1.7-0.3l-0.2-1.1c0.2-0.1,0.4-0.1,0.5-0.2c0.2-0.1,0.3-0.2,0.5-0.3l0.8,0.7l1.2-1.3
							l-0.8-0.7c0.2-0.3,0.3-0.7,0.4-1.1H66.6z"/>
						<path class="st26" d="M73.4,48.6c-0.9,0.5-2.1,0.2-2.6-0.8c-0.5-0.9-0.2-2.1,0.8-2.6c0.9-0.5,2.1-0.2,2.6,0.8c0,0,0,0,0,0
							C74.7,47,74.3,48.1,73.4,48.6 M77,47.8v-1.5h-1c-0.1-0.3-0.2-0.7-0.3-1l0.8-0.6l-0.9-1.2l-0.8,0.6c-0.3-0.2-0.6-0.4-0.9-0.5
							l0.2-0.9l-1.5-0.3l-0.2,0.9c-0.3,0-0.7,0.1-1,0.2L71,42.6l-1.3,0.7l0.4,0.8c-0.3,0.2-0.5,0.5-0.7,0.8l-0.9-0.4L68,46l0.9,0.3
							c0,0.3,0,0.7,0,1L68,47.6l0.5,1.4l0.9-0.3c0.2,0.3,0.4,0.6,0.6,0.8l-0.5,0.8l1.3,0.8l0.5-0.8c0.3,0.1,0.7,0.2,1,0.2l0.1,1
							l1.5-0.2l-0.1-0.9c0.2-0.1,0.3-0.1,0.5-0.2c0.1-0.1,0.3-0.2,0.4-0.3l0.7,0.6l1-1.1l-0.7-0.6c0.2-0.3,0.3-0.6,0.4-1L77,47.8z"
							/>
						<path class="st38" d="M61.5,37.8c-1,0-1.8,0.8-1.8,1.8c0,1,0.8,1.8,1.8,1.8c1,0,1.8-0.8,1.8-1.8
							C63.3,38.7,62.5,37.8,61.5,37.8 M61.5,42.3c-1.5,0-2.6-1.2-2.6-2.6S60,37,61.5,37c1.5,0,2.6,1.2,2.6,2.6c0,0,0,0,0,0
							C64.1,41.1,62.9,42.3,61.5,42.3"/>
						<path class="st38" d="M72.5,45.2c-1,0-1.8,0.8-1.8,1.8s0.8,1.8,1.8,1.8c1,0,1.8-0.8,1.8-1.8C74.3,46,73.5,45.2,72.5,45.2
							 M72.5,49.5c-1.5,0-2.6-1.2-2.6-2.6s1.2-2.6,2.6-2.6c1.5,0,2.6,1.2,2.6,2.6c0,0,0,0,0,0C75.1,48.4,73.9,49.5,72.5,49.5
							C72.5,49.6,72.5,49.6,72.5,49.5"/>
						<path class="st38" d="M77.8,28.2c-2,0-3.7,1.6-3.7,3.7s1.6,3.6,3.7,3.6s3.6-1.6,3.6-3.7l0,0C81.5,29.8,79.8,28.2,77.8,28.2
							 M77.8,36.7c-2.7,0-4.9-2.2-4.9-4.9s2.2-4.9,4.9-4.9s4.9,2.2,4.9,4.9l0,0C82.7,34.6,80.5,36.7,77.8,36.7"/>
					</g>
				</g>
				<path class="st24" d="M379.4,0.5h46.4V63h-46.4V0.5z M378.9,63.5h47.4V0h-47.4V63.5z"/>
				<g>
					<g>
						<path class="st26" d="M405,34.3c0,1.4,1.1,2.5,2.5,2.5s2.5-1.1,2.5-2.5c0-1.4-1.1-2.5-2.5-2.5c0,0,0,0,0,0
							C406.1,31.7,405,32.9,405,34.3C405,34.3,405,34.3,405,34.3"/>
						<path class="st26" d="M407.5,42.4c-3.2,0-6.1-1.9-7.4-4.9h3.3v-1.3h-3.7c-0.2-0.7-0.2-1.3-0.2-2c0-4.5,3.7-8.1,8.2-8.1
							c4.5,0,8.1,3.7,8.1,8.2C415.6,38.8,412,42.4,407.5,42.4 M409.1,44h-15v-0.7h15V44z M409.1,47h-15v-0.7h15V47z M409.1,45.6h-15
							v-0.7h15V45.6z M394.1,34h3.5v0.7h-3.5V34z M394.1,31.8h4.3v0.7h-4.3V31.8z M394.1,29.6h4.3v0.7h-4.3V29.6z M394.1,27.6h6v0.7
							h-6V27.6z M415.9,34.4c0-4.7-3.8-8.4-8.5-8.4c-0.5,0-1,0-1.5,0.1h-13.5v10.1h-0.5v-6.4h-1.4v7.8h1.9v2.3h-1.9l0.5,8.7h1.1
							l-0.1,3h2.5v-3.1h14.9v3.1h2.3v-3.1l1.2-7.9C414.9,39,415.9,36.7,415.9,34.4"/>
					</g>
				</g>
				<path class="st24" d="M284.4,63.4H331v63.7h-46.7V63.4z M283.9,127.6h47.6V63h-47.6V127.6z"/>
				<path class="st24" d="M331.5,63.4h47.4v63.7h-47.4V63.4z M331,127.6h48.4V63H331L331,127.6z"/>
				<path class="st24" d="M379.4,63.4h46.4v63.7h-46.4V63.4z M378.9,127.6h47.4V63h-47.4V127.6z"/>
				<path class="st24" d="M426.3,63.4h46.9v63.7h-46.9V63.4z M425.8,127.6h47.9V63h-47.9V127.6z"/>
				<path class="st24" d="M473.7,63.4h49.1v63.7h-49.1V63.4z M473.2,127.6h50V63h-50L473.2,127.6z"/>
				<g>
					<g>
						<path class="st26" d="M493.1,99c0,1.5,1.2,2.7,2.8,2.7c1.5,0,2.7-1.2,2.7-2.8s-1.2-2.7-2.8-2.7c0,0,0,0,0,0
							C494.3,96.2,493.1,97.5,493.1,99C493.1,99,493.1,99,493.1,99"/>
						<path d="M498.5,91.6L498.5,91.6l-0.8-0.2h-24.1v1.2h23.9l0.5,0.1c2.3,1.1,3.8,3.4,3.9,5.9c0.1,3-2.2,5.5-5.1,5.6
							c-2.3,0.1-4.2-1.7-4.3-4c-0.1-1.8,1.3-3.3,3.1-3.3c0.6,0,1.3,0.2,1.8,0.7c0.5,0.4,0.8,1,0.8,1.7c0,1-0.7,1.9-1.7,1.9
							c0,0,0,0,0,0c-0.3,0-0.6,0.3-0.6,0.6c0,0.3,0.3,0.6,0.6,0.6c0,0,0,0,0,0c1.7-0.1,3-1.5,2.9-3.2c0,0,0,0,0,0
							c-0.1-2-1.8-3.6-3.8-3.5c-2.4,0.1-4.3,2.2-4.2,4.6c0.1,3,2.6,5.3,5.6,5.2c3.6-0.2,6.4-3.2,6.3-6.8
							C503,95.6,501.2,92.9,498.5,91.6"/>
					</g>
				</g>
				<path class="st24" d="M142.9,63.4h47.3v63.7h-47.3V63.4z M142.4,127.6h48.2V63h-48.2V127.6z"/>
				<path class="st24" d="M190.6,63.4h46.9v63.7h-46.8L190.6,63.4z M190.1,127.6h47.8V63h-47.8V127.6z"/>
				<path class="st24" d="M237.9,63.4h46v63.7h-46V63.4z M237.5,127.6h46.9V63h-46.9V127.6z"/>
				<rect x="250.7" y="83.5" class="st26" width="1.2" height="15.2"/>
				<rect x="270.1" y="83.6" class="st26" width="1.2" height="15.2"/>
				<polygon points="284.1,91.4 268,91.4 268,102.9 253.9,102.9 253.9,91.4 237.7,91.4 237.7,92.6 252.7,92.6 252.7,104.2 
					269.3,104.2 269.3,92.6 284.1,92.6 				"/>
				<g>
					<g>
						<path class="st36" d="M269,63.2v23.7c0,1.7-1.3,3-3,3h-28.3v1.2H266c2.3,0,4.2-1.9,4.2-4.2c0,0,0,0,0,0V63.2H269z"/>
					</g>
				</g>
				<path class="st24" d="M190.6,0.5h46.9V63h-46.8L190.6,0.5z M190.1,63.5h47.8V0h-47.8V63.5z"/>
				<path class="st24" d="M237.9,0.5h46V63h-46V0.5z M237.4,63.5h46.9V0h-46.9L237.4,63.5z"/>
				<g>
					<g>
						<path class="st26" d="M265.8,34.5c-0.4,0-0.8-0.3-0.8-0.7c0-0.4,0.3-0.8,0.7-0.8s0.8,0.3,0.8,0.7c0,0,0,0,0,0
							C266.5,34.2,266.2,34.5,265.8,34.5 M260.8,49.7h-7.5v-9.3h7.5V49.7z M265.5,30.7h-1.2v-5.2h-14v5.2h-1.2c-2,0-3.5,1.8-3.5,4.1
							v7.6c0,1.3,1,2.3,2.3,2.3h3.5v7h11.3v-7h4c1.3,0,2.3-1,2.3-2.3v-7.6C269,32.5,267.5,30.7,265.5,30.7"/>
						<path class="st36" d="M266,28.7h-28.3v1.2H266c1.7,0,3,1.3,3,3v30.3h1.2V32.9C270.2,30.6,268.3,28.7,266,28.7"/>
					</g>
				</g>
				<path class="st24" d="M95.5,63.4h46.9v63.7H95.5V63.4z M95,127.6h47.9V63H95L95,127.6z"/>
				<g>
					<g>
						<path d="M142.6,91.4H127v11.5H113V91.4h-13c-0.3,0-0.6,0.3-0.6,0.6c0,0.3,0.3,0.6,0.6,0.6h11.8v11.5h16.5V92.6h14.4V91.4z"/>
						<path class="st36" d="M142.6,89.9h-42.6c-0.3,0-0.6,0.3-0.6,0.6c0,0,0,0,0,0c0,0.3,0.3,0.6,0.6,0.6c0,0,0,0,0,0h42.6
							L142.6,89.9z"/>
						<path class="st26" d="M122.1,107.7c0,0-4.4,3.7-7.2-0.4c-0.5-0.7-0.8-1.4-0.5-3.3l-2.7-0.2l4.2-3.8l3.7,4.2l-2.6-0.2
							C117.1,104.1,116.3,109.9,122.1,107.7"/>
						<path class="st26" d="M128.5,106.5l-2.9,2.6l-3.7-4.2l2.9-2.6L128.5,106.5z M130.1,107l-5.6-6.3c-0.3-0.3-0.8-0.4-1.2-0.1
							l-0.7,0.6c0.5,0.3,0.6,1,0.3,1.4c-0.3,0.5-1,0.6-1.4,0.3c-0.2-0.1-0.3-0.3-0.4-0.4l-0.8,0.7c-0.3,0.3-0.4,0.8-0.1,1.2l5.6,6.3
							c0.3,0.3,0.8,0.4,1.2,0.1l0.8-0.7c-0.5-0.2-0.8-0.9-0.5-1.4c0.2-0.4,0.7-0.7,1.1-0.6c0.4,0,0.8,0.3,0.9,0.7l0.7-0.6
							C130.4,107.8,130.4,107.3,130.1,107"/>
					</g>
				</g>
				
					<rect x="124.2" y="103.7" transform="matrix(0.7471 -0.6647 0.6647 0.7471 -38.5548 109.9094)" class="st26" width="2" height="3.8"/>
				<path class="st26" d="M205,104.3h16.7V84.7H205V104.3z M222.9,105.5h-19v-22h19V105.5z"/>
				<polygon points="237.7,91.4 222.2,91.4 221,91.4 220.5,91.4 220.5,102.9 206.4,102.9 206.4,91.4 190.4,91.4 190.4,92.6 
					205.1,92.6 205.1,104.2 221.7,104.2 221.7,92.6 222.2,92.6 237.7,92.6 				"/>
				<rect x="190.4" y="89.9" class="st36" width="47.3" height="1.2"/>
				<polygon points="331.3,91.4 314.4,91.4 314.4,102.9 300.3,102.9 300.3,91.4 284.1,91.4 284.1,92.6 299.1,92.6 299.1,104.2 
					315.6,104.2 315.6,92.6 331.3,92.6 				"/>
				<polygon class="st26" points="365.7,101.5 365.7,105.9 345,105.9 345,101.5 346.2,101.5 346.2,104.7 364.5,104.7 364.5,101.5 
									"/>
				<polygon points="379.2,91.4 362.5,91.4 362.5,102.9 348.4,102.9 348.4,91.4 331.3,91.4 331.3,92.6 347.2,92.6 347.2,104.2 
					363.8,104.2 363.8,92.6 379.2,92.6 				"/>
				<polygon class="st26" points="412.1,101.5 412.1,105.9 391.4,105.9 391.4,101.5 392.6,101.5 392.6,104.7 410.9,104.7 
					410.9,101.5 				"/>
				<polygon points="426.1,91.4 408.8,91.4 408.8,102.9 394.7,102.9 394.7,91.4 381.7,91.4 380.5,91.4 379.2,91.4 379.2,92.6 
					380.5,92.6 381.7,92.6 393.5,92.6 393.5,104.2 410,104.2 410,92.6 426.1,92.6 				"/>
				<polygon class="st26" points="459.3,95.7 459.3,105.9 438.6,105.9 438.6,95.7 436.3,95.7 436.3,93.2 439.8,93.2 439.8,104.7 
					458.1,104.7 458.1,93.2 461.6,93.2 461.6,95.7 				"/>
				<polygon class="st26" points="449.6,93.6 449.6,81.9 448.3,81.9 448.3,93.6 446.9,93.6 448.8,99.9 451,93.6 				"/>
				<polygon class="st26" points="444.5,91.4 447.4,82.5 446.5,82.2 443.5,91.1 442.4,90.7 442.3,96.1 445.5,91.8 				"/>
				<polygon class="st26" points="453.4,91.4 450.4,82.5 451.4,82.2 454.4,91.1 455.5,90.7 455.6,96.1 452.4,91.8 				"/>
				<polygon points="473.5,91.4 470.3,91.4 460.4,91.4 456.1,91.4 456.1,102.9 442,102.9 442,91.4 432.5,91.4 429,91.4 426.1,91.4 
					426.1,92.6 429,92.6 437.3,92.6 440.9,92.6 440.9,104.2 457.4,104.2 457.4,92.6 460.4,92.6 470.3,92.6 473.5,92.6 				"/>
				<polygon points="190.4,91.4 181.5,91.4 180.6,91.4 172.7,91.4 172.7,102.9 158.6,102.9 158.6,91.4 143.1,91.4 142.6,91.4 
					142.6,92.6 143.1,92.6 157.4,92.6 157.4,104.2 173.9,104.2 173.9,92.6 180.6,92.6 181.5,92.6 190.4,92.6 				"/>
				<rect x="142.6" y="89.9" class="st36" width="47.7" height="1.2"/>
				<g>
					<g>
						<path class="st26" d="M201.6,36.5c0,1.5,1.2,2.8,2.8,2.8s2.8-1.2,2.8-2.8s-1.2-2.8-2.8-2.8S201.6,35,201.6,36.5"/>
						<path class="st36" d="M204.2,33c-2-0.1-3.8,1.5-3.9,3.5c-0.1,1.7,1.3,3.2,3,3.2c0,0,0,0,0,0c0.3,0,0.6-0.3,0.6-0.7
							c0-0.3-0.2-0.5-0.5-0.6c-1,0-1.8-0.9-1.8-1.9c0,0,0,0,0,0c0-0.7,0.3-1.3,0.8-1.7c0.5-0.4,1.1-0.7,1.8-0.7
							c1.8,0.1,3.2,1.6,3.1,3.4c0,0,0,0,0,0c-0.1,2.3-2.1,4.1-4.4,4c-3-0.1-5.3-2.7-5.2-5.6c0.1-2.6,1.6-4.9,4-6l0.5-0.2h35.5v-1.2
							H202l-0.7,0.2h-0.1c-2.8,1.3-4.6,4-4.7,7.1c-0.2,3.7,2.7,6.8,6.4,6.9c0,0,0,0,0,0c3,0.1,5.6-2.2,5.7-5.2c0,0,0,0,0,0
							C208.6,35.2,206.7,33.1,204.2,33"/>
					</g>
				</g>
			</g>
		</g>
	</g>
</g>
</svg>
