<?xml version="1.0" encoding="utf-8"?>
<!-- Generator: Adobe Illustrator 23.0.1, SVG Export Plug-In . SVG Version: 6.00 Build 0)  -->
<svg version="1.1" id="Livello_1" xmlns="http://www.w3.org/2000/svg" xmlns:xlink="http://www.w3.org/1999/xlink" x="0px" y="0px"
	 viewBox="0 0 46 46" style="enable-background:new 0 0 46 46;" xml:space="preserve">
<style type="text/css">
	.st0{clip-path:url(#SVGID_2_);}
	.st1{fill:#3C3C3B;}
	.st2{fill:none;stroke:#3C3C3B;stroke-miterlimit:10;}
</style>
<title>Risorsa 6</title>
<g>
	<g id="Livello_1-2">
		<g>
			<defs>
				<circle id="SVGID_1_" cx="23" cy="23" r="22.5"/>
			</defs>
			<clipPath id="SVGID_2_">
				<use xlink:href="#SVGID_1_"  style="overflow:visible;"/>
			</clipPath>
			<g class="st0">
				<path class="st1" d="M22.7,16.4l4.4,4.6l-17,19.3l-2.3,2.6c-0.9,0.9-2.2,1.1-3.3,0.5l-2.7-2.9c-0.7-0.8-0.7-2.1,0-2.9L22.7,16.4
					z"/>
				<path class="st1" d="M23.7,15.5l4.4,4.6l1.7-1.6c0,0,1.9-0.5,2.7,0.3c0.3,0.2,0.6,0.5,0.9,0.7c0.3,0.3,0.6,0.6,0.9,1
					c0.1,0.3,0.2,0.6,0.1,0.9c-0.1,0.2-0.2,0.4-0.3,0.6c-0.1,0.2-0.2,0.4-0.2,0.7c0,0.3,0.1,0.5,0.2,0.8c0.2,0.3,0.4,0.5,0.7,0.7
					c0,0,1.6,1.7,2.6,0.8l3.8-4c0.5-0.7,0.4-1.8-0.4-2.3c-0.1,0-0.1-0.1-0.2-0.1c-0.3-0.4-0.7-0.7-1.2-0.9c-0.2-0.1-0.5-0.1-0.7,0
					c-0.3,0-0.3,0.1-0.6,0.2c-0.2,0.1-0.5,0.1-0.7,0c-0.3-0.2-0.6-0.4-0.9-0.6c-0.3-0.4-0.6-0.8-0.7-1.3c0.1-0.5,0.1-1,0-1.4
					c-0.1-0.8-0.5-1.6-1-2.2l-3.7-3.8c0,0-1.6-1.7-6-3c0,0-5.6-1.1-9.7,0.6v1.5c2.1-0.1,4.1,0.3,6,1.1c0.9,0.4,1.8,0.9,2.5,1.6
					c0.5,0.4,0.9,0.9,1.3,1.5c0.2,0.4,0.3,0.9,0.2,1.3C25.3,14.1,24.6,15,23.7,15.5z"/>
			</g>
		</g>
		<circle class="st2" cx="23" cy="23" r="22.5"/>
	</g>
</g>
</svg>
