<?xml version="1.0" encoding="utf-8"?>
<!-- Generator: Adobe Illustrator 23.0.1, SVG Export Plug-In . SVG Version: 6.00 Build 0)  -->
<svg version="1.1" id="Livello_1" xmlns="http://www.w3.org/2000/svg" xmlns:xlink="http://www.w3.org/1999/xlink" x="0px" y="0px"
	 viewBox="0 0 46 46" style="enable-background:new 0 0 46 46;" xml:space="preserve">
<style type="text/css">
	.st0{fill:#3C3C3B;}
	.st1{fill:none;stroke:#3C3C3B;stroke-miterlimit:10;}
</style>
<title>Risorsa 5</title>
<g>
	<g id="Livello_1-2">
		<path class="st0" d="M32.4,21.5l6.5-6.3c0.4-0.3,0.5-1,0.2-1.4c0-0.1-0.1-0.1-0.2-0.2c0,0-0.8-1.1-1.8,0c0,0-2.2,1.2-3.3,0.1
			c-1.4-0.7-2.2-2.3-1.7-3.9L33,8c0,0,0.2-0.7-1-1.1l-4.4-1.8c0,0-0.6-0.2-1.1,0.8c-0.1,0.4-0.3,0.8-0.5,1.1c-0.2,0.4-0.5,0.7-0.8,1
			c-0.5,0.5-1.1,0.8-1.8,0.9c-0.4,0-0.9,0-1.3-0.2c-0.5-0.2-1-0.6-1.4-1.1c-0.4-0.5-0.7-1-0.9-1.6c0-0.4-0.2-0.8-0.5-0.9
			c-0.3-0.1-0.6,0-0.8,0.2l-4.9,2c-0.5,0.3-0.7,1-0.3,1.5c0,0,0.1,0.1,0.1,0.1c0.7,1.1,0.7,2.4,0.1,3.5c-0.5,1-1.4,1.6-2.5,1.6
			c-0.9,0-1.8-0.3-2.5-0.8c0,0-0.9-0.4-1.4,0.7l-1.6,4.2c-0.2,0.5,0,1,0.5,1.3c0,0,2.9,0.6,2.9,2.4c0,0,0.7,2.5-1.2,3.6
			c-0.5,0.4-1.1,0.6-1.7,0.6c-0.5,0.2-0.8,0.8-0.6,1.3c0,0.1,0,0.1,0.1,0.2l1.9,4.7c0,0,0.6,0.9,1.9,0c0,0,2.3-0.8,3.2,0.2
			c0,0,2,1.2,1.5,3.1c0,0.3-0.1,0.7-0.2,1c-0.2,0.8-0.5,1.1-0.3,1.6c0.1,0.3,0.3,0.5,0.5,0.6l4.5,2c0.2-0.4,0.4-0.9,0.6-1.3
			c0.3-0.8,0.5-1.7,0.7-2.6c0.1-0.3,0.2-0.7,0.4-1.2c0-0.1,0.3-0.8,0.5-1.3c0.4-0.8,0.8-1.5,1.5-2.1c0,0-3.9-0.8-5.7-3.2
			c0,0-2.6-2.2-2.4-7.1c0.3-2.3,1.4-4.4,3.1-6c0,0,3.5-2.8,7-2.3c2.4,0.1,4.7,1.2,6.2,3.1C30,16.7,32.1,19.7,32.4,21.5z"/>
		<polyline class="st0" points="30.4,39.2 23.6,31.3 39.3,16.6 38.5,32.5 		"/>
		<polygon class="st0" points="23.1,31.7 29.8,39.5 23.8,40.4 21,37.2 		"/>
		<polygon class="st0" points="20.6,37.8 23,40.6 19.6,41 		"/>
		<circle class="st1" cx="23" cy="23" r="22.5"/>
	</g>
</g>
</svg>
