<?xml version="1.0" encoding="utf-8"?>
<!-- Generator: Adobe Illustrator 23.0.1, SVG Export Plug-In . SVG Version: 6.00 Build 0)  -->
<svg version="1.1" id="Livello_1" xmlns="http://www.w3.org/2000/svg" xmlns:xlink="http://www.w3.org/1999/xlink" x="0px" y="0px"
	 viewBox="0 0 46 46" style="enable-background:new 0 0 46 46;" xml:space="preserve">
<style type="text/css">
	.st0{clip-path:url(#SVGID_2_);}
	.st1{fill:#3C3C3B;}
	.st2{fill:none;stroke:#3C3C3B;stroke-miterlimit:10;}
</style>
<title>Risorsa 11</title>
<g>
	<g id="Livello_1-2">
		<g>
			<defs>
				<circle id="SVGID_1_" cx="23" cy="23" r="22.5"/>
			</defs>
			<clipPath id="SVGID_2_">
				<use xlink:href="#SVGID_1_"  style="overflow:visible;"/>
			</clipPath>
			<g class="st0">
				<g>
					<g>
						<path class="st1" d="M23.2,15.7c2.5,0,4.4-2,4.4-4.4c0-2.5-2-4.4-4.4-4.4s-4.4,2-4.4,4.4S20.8,15.7,23.2,15.7L23.2,15.7z"/>
						<path class="st1" d="M17.7,32.3c0.1-0.2,0.1-0.3,0-0.5l-4.4-7.9c-0.2-0.2-0.5-0.3-0.7-0.2c-0.1,0-0.1,0.1-0.2,0.2L8,31.8
							c-0.1,0.2-0.1,0.3,0,0.5c0.1,0.2,0.3,0.2,0.4,0.3h8.9C17.5,32.5,17.7,32.4,17.7,32.3L17.7,32.3z"/>
					</g>
				</g>
				<path class="st1" d="M39,24.1c0-0.3-0.2-0.5-0.5-0.5h-7.9c-0.3,0-0.5,0.2-0.5,0.5V32c0,0.3,0.2,0.5,0.5,0.5c0,0,0,0,0,0h7.9
					c0.3,0,0.5-0.2,0.5-0.5V24.1z"/>
				<path class="st1" d="M23.2,35c-2.3,0-4.5-0.7-6.4-1.9l-0.5,0.8c4.3,2.8,9.9,2.7,14.2-0.2L29.9,33C27.9,34.3,25.6,35,23.2,35z"/>
				<path class="st1" d="M35.1,22.7h1c-0.2-4.7-2.9-8.9-7.2-11l-0.4,0.9C32.4,14.5,34.9,18.4,35.1,22.7L35.1,22.7z"/>
				<path class="st1" d="M11.4,24.1c0-0.3,0-0.6,0-1c0-4.5,2.5-8.6,6.6-10.6l-0.4-0.9c-4.4,2.2-7.2,6.6-7.2,11.5c0,0.3,0,0.7,0,1
					L11.4,24.1z"/>
				<path class="st1" d="M16,10.5l0.7,0.7l1.5-1.5c0.2-0.2,0.2-0.5,0-0.7l-1.5-1.5L16,8.2l0.6,0.6h-3.3v1h3.3L16,10.5z"/>
				<path class="st1" d="M37,18.2c0.1,0,0.3-0.1,0.3-0.1l1.5-1.5l-0.7-0.7l-0.6,0.6v-3.3h-1v3.2l-0.6-0.6l-0.7,0.7l1.5,1.5
					C36.8,18.2,36.9,18.2,37,18.2L37,18.2z"/>
				<path class="st1" d="M12.5,33.7L11,35.1l0.7,0.7l0.6-0.6v3.3h1v-3.3l0.6,0.6l0.7-0.7l-1.5-1.5C13,33.5,12.7,33.5,12.5,33.7
					L12.5,33.7z"/>
				<path class="st1" d="M27.7,22.7c0-1.6-0.8-3.1-2.2-3.9L25,19.7c1.7,1,2.2,3.1,1.2,4.7c-0.5,0.8-1.2,1.4-2.1,1.6l0.6-1.1
					l-0.9-0.4l-1,2c-0.1,0.2-0.1,0.4,0.1,0.6l1.5,1.5l0.7-0.7L24.3,27C26.3,26.5,27.7,24.7,27.7,22.7L27.7,22.7z"/>
				<path class="st1" d="M21,26.5l0.5-0.9c-1.7-0.9-2.2-3.1-1.3-4.7c0.5-0.8,1.2-1.4,2.2-1.6l-0.6,1.1l0.9,0.4l1-2
					c0.1-0.2,0.1-0.4-0.1-0.6l-1.5-1.5l-0.7,0.7l0.8,0.8c-2.4,0.6-3.8,3-3.3,5.4C19.2,24.9,19.9,25.9,21,26.5z"/>
			</g>
		</g>
		<circle class="st2" cx="23" cy="23" r="22.5"/>
	</g>
</g>
</svg>
