<?xml version="1.0" encoding="utf-8"?>
<!-- Generator: Adobe Illustrator 23.0.3, SVG Export Plug-In . SVG Version: 6.00 Build 0)  -->
<svg version="1.1" id="Livello_1" xmlns="http://www.w3.org/2000/svg" xmlns:xlink="http://www.w3.org/1999/xlink" x="0px" y="0px"
	 viewBox="0 0 326 185" style="enable-background:new 0 0 326 185;" xml:space="preserve">
<style type="text/css">
	.st0{fill:#3C3C3B;stroke:#000000;stroke-width:0.25;stroke-miterlimit:10;}
	.st1{enable-background:new    ;}
	.st2{fill:#E30613;}
</style>
<g>
	<path class="st0" d="M88.8,181.3H49.4V45.2h39.5L88.8,181.3L88.8,181.3z M49.6,181.1h39V45.4h-39V181.1z"/>
</g>
<g>
	<path class="st0" d="M180.1,181.3h-39.5V45.2h39.5V181.3z M140.9,181.1h39V45.4h-39V181.1z"/>
</g>
<g>
	<path class="st0" d="M272.4,181.3H233V45.2h39.5v136.1H272.4z M233.2,181.1h39V45.4h-39L233.2,181.1L233.2,181.1z"/>
</g>
<g>
	<path class="st0" d="M134.2,181.3H94.8V45.2h39.5v136.1H134.2z M95,181.1h39V45.4H95V181.1z"/>
</g>
<g>
	<path class="st0" d="M226.6,181.3h-39.5V45.2h39.5V181.3z M187.4,181.1h39V45.4h-39V181.1z"/>
</g>
<g>
	<path class="st0" d="M318.8,181.3h-39.5V45.2h39.5V181.3z M279.6,181.1h39V45.4h-39V181.1z"/>
</g>
<g class="st1">
	<path class="st2" d="M37.6,129.5c1.5,1.6,2.2,3.5,2.2,5.9c0,2-0.5,3.7-1.6,5.1c-1.1,1.4-2.6,2.3-4.6,2.7v-1.8
		c1.3-0.3,2.4-1.1,3.3-2.3c0.9-1.2,1.3-2.4,1.3-3.8c0-1.8-0.6-3.3-1.8-4.5c-1.3-1.3-2.8-1.9-4.5-1.9c-2.2,0-3.9,0.8-5.1,2.3
		c-0.9,1.2-1.4,2.4-1.4,3.6v1.7H23v-1.7c0-1.7-0.5-3-1.4-4.1c-0.9-1-2.2-1.5-4-1.5c-1.7,0-3,0.5-4.1,1.6s-1.6,2.5-1.6,4.1
		c0,3.2,1.7,5.2,5.1,5.8v1.9c-2.1-0.2-3.7-1.1-4.9-2.5s-1.8-3.1-1.8-5.3s0.7-4,2-5.5s3.1-2.2,5.3-2.2c3.6,0,5.7,1.8,6.5,5.4
		c1.1-3.8,3.7-5.6,7.7-5.6C34.2,127.2,36.2,127.9,37.6,129.5z"/>
</g>
<g class="st1">
	<path class="st2" d="M25.2,109.4c0.3,0.2,0.7,0.6,1.3,1.1s1.3,1.1,2.1,1.8l9.3,8.2v-13.7h1.6v17.4l-16.3-14.1
		c-1.6-1.1-3.3-1.7-5-1.7s-3.1,0.7-4.3,2s-1.7,2.9-1.7,4.7c0,2.2,0.7,3.9,2.1,5.1c0.8,0.8,1.9,1.3,3.1,1.6v1.8
		c-1.4-0.2-2.8-0.9-4.1-2.1c-1.8-1.6-2.7-3.7-2.7-6.4c0-2.3,0.7-4.2,2.1-5.9c1.4-1.6,3.2-2.5,5.5-2.5
		C20.7,106.7,22.9,107.6,25.2,109.4z"/>
	<path class="st2" d="M35,85.2c3.4,1.9,5.1,4.7,5.1,8.2s-1.7,6.2-5.1,8.2c-2.8,1.6-6.1,2.4-9.9,2.4s-7.1-0.8-9.9-2.4
		C11.7,99.7,10,97,10,93.4c0-3.5,1.7-6.2,5.1-8.2c2.8-1.6,6.1-2.4,9.9-2.4C28.9,82.9,32.2,83.7,35,85.2z M16.3,86.5
		c-3.1,1.6-4.7,3.9-4.7,6.9c0,2.7,1.4,4.9,4.2,6.5c2.5,1.5,5.6,2.2,9.2,2.2c3.3,0,6.2-0.6,8.6-1.9c3.1-1.6,4.7-3.9,4.7-6.9
		c0-2.8-1.4-5-4.1-6.6c-2.4-1.5-5.5-2.2-9.2-2.2C21.7,84.6,18.8,85.3,16.3,86.5z"/>
</g>
<g class="st1">
	<path class="st2" d="M64,16c-0.1,0.6-0.2,1.2-0.3,1.8c-0.1,0.5-0.3,1.1-0.5,1.5c-0.2,0.5-0.4,1-0.7,1.5l-7.2,12.8L53.8,33l5.7-10.3
		l-1.7,0.8L56.1,24l-1.8,0.2c-2.8,0-5.2-0.9-7.1-2.8c-1.9-1.9-2.8-4.2-2.8-7.1c0-2.8,0.9-5.2,2.8-7.1s4.2-2.8,7.1-2.8
		c2.8,0,5.2,0.9,7,2.8c1.9,1.9,2.8,4.2,2.8,7.1C64.1,14.8,64.1,15.4,64,16z M60.2,8.4C58.6,6.8,56.6,6,54.3,6
		c-2.4,0-4.3,0.8-5.9,2.4C46.8,10,46,11.9,46,14.3c0,2.3,0.8,4.2,2.4,5.8c1.6,1.6,3.5,2.4,5.9,2.4c2.3,0,4.3-0.8,5.9-2.4
		c1.6-1.6,2.4-3.5,2.4-5.9C62.5,11.9,61.7,9.9,60.2,8.4z"/>
</g>
<g class="st1">
	<path class="st2" d="M80.9,30.7c-1.9,2-4.4,3-7.4,3c-4.6,0-7.7-2-9.4-6l1.5-0.6c0.8,1.6,1.7,2.8,2.7,3.5c1.3,1,3,1.4,5.1,1.4
		c2.5,0,4.5-0.9,6.1-2.6s2.4-3.8,2.4-6.4c0-2.5-0.9-4.5-2.7-6c-1.7-1.4-3.6-2.1-5.9-2H72h-0.6c-0.2,0-0.6,0.1-1,0.2
		c-0.9,0-1.9,0.2-2.9,0.6l2.9-11.1h11v1.6H72l-1.7,7.4l1.6-0.2l1.7-0.1c2.6-0.2,4.9,0.6,7,2.4s3.2,4.3,3.2,7.3
		C83.7,26.1,82.8,28.7,80.9,30.7z"/>
</g>
</svg>
