<?xml version="1.0" encoding="utf-8"?>
<!-- Generator: Adobe Illustrator 23.0.3, SVG Export Plug-In . SVG Version: 6.00 Build 0)  -->
<svg version="1.1" id="Livello_1" xmlns="http://www.w3.org/2000/svg" xmlns:xlink="http://www.w3.org/1999/xlink" x="0px" y="0px"
	 viewBox="0 0 326 185" style="enable-background:new 0 0 326 185;" xml:space="preserve">
<style type="text/css">
	.st0{fill:#3C3C3B;stroke:#000000;stroke-width:0.25;stroke-miterlimit:10;}
	.st1{enable-background:new    ;}
	.st2{fill:#E30613;}
</style>
<g>
	<path class="st0" d="M102.3,162.1H32.6v-48.7h69.8L102.3,162.1L102.3,162.1z M32.8,161.9h69.3v-48.2H32.8V161.9z"/>
</g>
<g>
	<path class="st0" d="M102.3,106H32.6V57.4h69.8L102.3,106L102.3,106z M32.8,105.8h69.3V57.6H32.8V105.8z"/>
</g>
<g>
	<path class="st0" d="M248,162.1h-69.8v-48.7H248V162.1z M178.5,161.9h69.3v-48.2h-69.3V161.9z"/>
</g>
<g>
	<path class="st0" d="M248,106h-69.8V57.4H248V106z M178.5,105.8h69.3V57.6h-69.3V105.8z"/>
</g>
<g>
	<path class="st0" d="M175.2,162.1h-69.7v-48.7h69.7V162.1z M105.7,161.9H175v-48.2h-69.2v48.2H105.7z"/>
</g>
<g>
	<path class="st0" d="M175.2,106h-69.7V57.4h69.7V106z M105.7,105.8H175V57.6h-69.2v48.2H105.7z"/>
</g>
<g>
	<path class="st0" d="M320.9,162.1h-69.8v-48.7h69.8V162.1z M251.4,161.9h69.3v-48.2h-69.3L251.4,161.9L251.4,161.9z"/>
</g>
<g>
	<path class="st0" d="M320.9,106h-69.8V57.4h69.8V106z M251.4,105.8h69.3V57.6h-69.3L251.4,105.8L251.4,105.8z"/>
</g>
<g class="st1">
	<path class="st2" d="M26.4,99.5H5.6v3.7l-1.3-0.8v-4.2h22.1C26.4,98.2,26.4,99.5,26.4,99.5z"/>
</g>
<g class="st1">
	<path class="st2" d="M24.4,82.6c1.5,1.5,2.3,3.4,2.3,5.7c0,3.5-1.5,5.9-4.6,7.2l-0.5-1.2c1.2-0.6,2.1-1.3,2.7-2.1
		c0.7-1,1.1-2.3,1.1-3.9c0-1.9-0.7-3.5-2-4.7s-3-1.9-4.9-1.9s-3.5,0.7-4.6,2.1c-1.1,1.3-1.6,2.8-1.6,4.5v1v0.5c0,0.2,0,0.4,0.1,0.7
		c0,0.7,0.1,1.4,0.4,2.2l-8.6-2.2V82h1.3v7.5l5.7,1.3L11,89.6l-0.1-1.3c-0.1-2,0.5-3.8,1.9-5.4c1.4-1.7,3.3-2.5,5.6-2.5
		C20.9,80.4,22.9,81.1,24.4,82.6z"/>
	<path class="st2" d="M22.9,64.5c2.6,1.5,3.9,3.6,3.9,6.3c0,2.7-1.3,4.8-3.9,6.3c-2.1,1.2-4.7,1.8-7.6,1.8c-3,0-5.5-0.6-7.6-1.8
		c-2.6-1.5-3.9-3.6-3.9-6.3s1.3-4.8,3.9-6.3c2.2-1.2,4.7-1.8,7.6-1.8S20.7,63.3,22.9,64.5z M8.5,65.5c-2.4,1.2-3.6,3-3.6,5.3
		c0,2.1,1.1,3.8,3.2,5c1.9,1.1,4.3,1.7,7.1,1.7c2.5,0,4.8-0.5,6.7-1.5c2.4-1.2,3.6-3,3.6-5.3c0-2.1-1.1-3.8-3.2-5.1
		c-1.9-1-4.3-1.6-7.1-1.6C12.6,64,10.4,64.5,8.5,65.5z"/>
</g>
<g class="st1">
	<path class="st2" d="M58.2,39.2c-0.2,0.2-0.5,0.6-0.8,1c-0.4,0.4-0.8,1-1.4,1.7L49.6,49h10.6v1.3H46.8l10.8-12.5
		c0.9-1.2,1.3-2.5,1.3-3.9c0-1.3-0.5-2.4-1.5-3.3s-2.2-1.3-3.6-1.3c-1.7,0-3,0.5-3.9,1.6c-0.6,0.6-1,1.4-1.2,2.4h-1.4
		c0.1-1.1,0.7-2.1,1.6-3.2c1.2-1.4,2.9-2,4.9-2c1.8,0,3.3,0.5,4.5,1.6c1.3,1.1,1.9,2.5,1.9,4.2C60.2,35.7,59.6,37.5,58.2,39.2z"/>
</g>
<g class="st1">
	<path class="st2" d="M65.1,50.3V29.5h-3.7l0.8-1.3h4.2v22.1C66.4,50.3,65.1,50.3,65.1,50.3z"/>
</g>
<g class="st1">
	<path class="st2" d="M81.8,46.1v4.2h-1.3v-4.2H69.2l12.7-18.2v17h2.6v1.2H81.8z M80.5,31.8l-9.1,13h9.1V31.8z"/>
</g>
</svg>
