<?xml version="1.0" encoding="utf-8"?>
<!-- Generator: Adobe Illustrator 23.0.3, SVG Export Plug-In . SVG Version: 6.00 Build 0)  -->
<svg version="1.1" id="Livello_1" xmlns="http://www.w3.org/2000/svg" xmlns:xlink="http://www.w3.org/1999/xlink" x="0px" y="0px"
	 viewBox="0 0 326 185" style="enable-background:new 0 0 326 185;" xml:space="preserve">
<style type="text/css">
	.st0{fill:#3C3C3B;stroke:#000000;stroke-width:0.25;stroke-miterlimit:10;}
	.st1{enable-background:new    ;}
	.st2{fill:#E30613;}
</style>
<g>
	<path class="st0" d="M66.3,145.8H34.1v-32.3h32.3L66.3,145.8L66.3,145.8z M34.3,145.6h31.8v-31.8H34.3V145.6z"/>
</g>
<g>
	<path class="st0" d="M66.3,104.3H34.1V72.1h32.3L66.3,104.3L66.3,104.3z M34.3,104.1h31.8V72.3H34.3V104.1z"/>
</g>
<g>
	<path class="st0" d="M212.8,145.8h-32.3v-32.3h32.3V145.8z M180.8,145.6h31.8v-31.8h-31.8V145.6z"/>
</g>
<g>
	<path class="st0" d="M212.8,104.3h-32.3V72.1h32.3V104.3z M180.8,104.1h31.8V72.3h-31.8V104.1z"/>
</g>
<g>
	<path class="st0" d="M139.2,145.8H107v-32.3h32.3v32.3H139.2z M107.2,145.6H139v-31.8h-31.8V145.6z"/>
</g>
<g>
	<path class="st0" d="M139.2,104.3H107V72.1h32.3v32.2H139.2z M107.2,104.1H139V72.3h-31.8V104.1z"/>
</g>
<g>
	<path class="st0" d="M285.7,145.8h-32.3v-32.3h32.3V145.8z M253.7,145.6h31.8v-31.8h-31.8V145.6z"/>
</g>
<g>
	<path class="st0" d="M285.7,104.3h-32.3V72.1h32.3V104.3z M253.7,104.1h31.8V72.3h-31.8V104.1z"/>
</g>
<g>
	<path class="st0" d="M103,145.8H70.8v-32.3H103V145.8z M71,145.6h31.8v-31.8H71V145.6z"/>
</g>
<g>
	<path class="st0" d="M103,104.3H70.8V72.1H103V104.3z M71,104.1h31.8V72.3H71V104.1z"/>
</g>
<g>
	<path class="st0" d="M249.5,145.8h-32.3v-32.3h32.3V145.8z M217.5,145.6h31.8v-31.8h-31.8V145.6z"/>
</g>
<g>
	<path class="st0" d="M249.5,104.3h-32.3V72.1h32.3V104.3z M217.5,104.1h31.8V72.3h-31.8V104.1z"/>
</g>
<g>
	<path class="st0" d="M175.9,145.8h-32.3v-32.3h32.3V145.8z M143.9,145.6h31.8v-31.8h-31.8V145.6z"/>
</g>
<g>
	<path class="st0" d="M175.9,104.3h-32.3V72.1h32.3V104.3z M143.9,104.1h31.8V72.3h-31.8V104.1z"/>
</g>
<g>
	<path class="st0" d="M322.4,145.8h-32.3v-32.3h32.3V145.8z M290.4,145.6h31.8v-31.8h-31.8V145.6z"/>
</g>
<g>
	<path class="st0" d="M322.4,104.3h-32.3V72.1h32.3V104.3z M290.4,104.1h31.8V72.3h-31.8V104.1z"/>
</g>
<g class="st1">
	<path class="st2" d="M13.9,91.5c0.5,0.1,1,0.1,1.4,0.3c0.4,0.1,0.8,0.2,1.2,0.4c0.4,0.2,0.8,0.3,1.1,0.6l10,5.6L27,99.6l-8.1-4.5
		l0.7,1.3l0.4,1.4l0.1,1.4c0,2.2-0.7,4.1-2.2,5.5c-1.5,1.5-3.3,2.2-5.5,2.2s-4.1-0.7-5.5-2.2c-1.5-1.5-2.2-3.3-2.2-5.5
		s0.7-4.1,2.2-5.5c1.5-1.5,3.3-2.2,5.5-2.2C13,91.4,13.4,91.5,13.9,91.5z M7.9,94.5C6.7,95.7,6,97.3,6,99.1c0,1.8,0.6,3.4,1.9,4.6
		c1.2,1.2,2.8,1.9,4.6,1.9s3.3-0.6,4.6-1.9c1.3-1.2,1.9-2.8,1.9-4.6c0-1.8-0.6-3.4-1.9-4.6c-1.2-1.2-2.8-1.9-4.6-1.9
		C10.7,92.7,9.1,93.3,7.9,94.5z"/>
	<path class="st2" d="M13.9,74.4c0.5,0.1,1,0.1,1.4,0.3c0.4,0.1,0.8,0.2,1.2,0.4c0.4,0.2,0.8,0.3,1.1,0.6l10,5.6L27,82.5L18.9,78
		l0.7,1.3l0.4,1.4l0.1,1.4c0,2.2-0.7,4.1-2.2,5.5c-1.5,1.5-3.3,2.2-5.5,2.2S8.5,89,7,87.5S4.8,84.2,4.8,82s0.7-4.1,2.2-5.5
		c1.5-1.5,3.3-2.2,5.5-2.2C13,74.3,13.4,74.3,13.9,74.4z M7.9,77.4C6.7,78.6,6,80.2,6,82c0,1.8,0.6,3.4,1.9,4.6
		c1.2,1.2,2.8,1.9,4.6,1.9s3.3-0.6,4.6-1.9c1.3-1.2,1.9-2.8,1.9-4.6c0-1.8-0.6-3.4-1.9-4.6c-1.2-1.2-2.8-1.9-4.6-1.9
		S9.1,76.2,7.9,77.4z"/>
</g>
<g class="st1">
	<path class="st2" d="M49.4,53.6c-0.1,0.5-0.1,1-0.3,1.4c-0.1,0.4-0.2,0.8-0.4,1.2s-0.3,0.8-0.6,1.1l-5.6,10l-1.2-0.6l4.5-8.1
		l-1.3,0.7l-1.4,0.4l-1.4,0.1c-2.2,0-4.1-0.7-5.5-2.2c-1.5-1.5-2.2-3.3-2.2-5.5s0.7-4.1,2.2-5.5c1.5-1.5,3.3-2.2,5.5-2.2
		s4.1,0.7,5.5,2.2c1.5,1.5,2.2,3.3,2.2,5.5C49.5,52.6,49.5,53.1,49.4,53.6z M46.4,47.6c-1.2-1.2-2.8-1.9-4.6-1.9s-3.4,0.6-4.6,1.9
		c-1.2,1.2-1.9,2.8-1.9,4.6s0.6,3.3,1.9,4.6c1.2,1.3,2.8,1.9,4.6,1.9s3.4-0.6,4.6-1.9c1.2-1.2,1.9-2.8,1.9-4.6
		C48.2,50.3,47.6,48.8,46.4,47.6z"/>
	<path class="st2" d="M66.6,53.6c-0.1,0.5-0.1,1-0.3,1.4c-0.1,0.4-0.2,0.8-0.4,1.2c-0.2,0.4-0.3,0.8-0.6,1.1l-5.6,10l-1.2-0.6
		l4.5-8.1l-1.3,0.7l-1.4,0.4l-1.4,0.1c-2.2,0-4.1-0.7-5.5-2.2c-1.5-1.5-2.2-3.3-2.2-5.5s0.7-4.1,2.2-5.5c1.5-1.5,3.3-2.2,5.5-2.2
		s4.1,0.7,5.5,2.2c1.5,1.5,2.2,3.3,2.2,5.5C66.7,52.6,66.6,53.1,66.6,53.6z M63.6,47.6c-1.2-1.2-2.8-1.9-4.6-1.9s-3.4,0.6-4.6,1.9
		c-1.2,1.2-1.9,2.8-1.9,4.6s0.6,3.3,1.9,4.6c1.2,1.3,2.8,1.9,4.6,1.9s3.4-0.6,4.6-1.9c1.2-1.2,1.9-2.8,1.9-4.6
		C65.4,50.3,64.8,48.8,63.6,47.6z"/>
</g>
</svg>
