<?xml version="1.0" encoding="utf-8"?>
<!-- Generator: Adobe Illustrator 23.0.3, SVG Export Plug-In . SVG Version: 6.00 Build 0)  -->
<svg version="1.1" id="Livello_1" xmlns="http://www.w3.org/2000/svg" xmlns:xlink="http://www.w3.org/1999/xlink" x="0px" y="0px"
	 viewBox="0 0 326 185" style="enable-background:new 0 0 326 185;" xml:space="preserve">
<style type="text/css">
	.st0{fill:#3C3C3B;stroke:#000000;stroke-width:0.25;stroke-miterlimit:10;}
	.st1{enable-background:new    ;}
	.st2{fill:#E30613;}
</style>
<g>
	<path class="st0" d="M68,163.7H35.8V57.3H68V163.7z M36,163.5h31.8v-106H36V163.5z"/>
</g>
<g>
	<path class="st0" d="M214.2,163.7H182V57.3h32.3v106.4H214.2z M182.2,163.5H214v-106h-31.8V163.5z"/>
</g>
<g>
	<path class="st0" d="M140.8,163.7h-32.3V57.3h32.3V163.7z M108.8,163.5h31.8v-106h-31.8V163.5z"/>
</g>
<g>
	<path class="st0" d="M286.9,163.7h-32.3V57.3h32.3V163.7z M254.9,163.5h31.8v-106h-31.8L254.9,163.5L254.9,163.5z"/>
</g>
<g>
	<path class="st0" d="M104.6,163.7H72.4V57.3h32.3L104.6,163.7L104.6,163.7z M72.6,163.5h31.8v-106H72.6V163.5z"/>
</g>
<g>
	<path class="st0" d="M250.8,163.7h-32.3V57.3h32.3V163.7z M218.8,163.5h31.8v-106h-31.8V163.5z"/>
</g>
<g>
	<path class="st0" d="M177.4,163.7h-32.3V57.3h32.3V163.7z M145.4,163.5h31.8v-106h-31.8V163.5z"/>
</g>
<g>
	<path class="st0" d="M323.5,163.7h-32.3V57.3h32.3V163.7z M291.5,163.5h31.8v-106h-31.8V163.5z"/>
</g>
<g class="st1">
	<path class="st2" d="M24.8,123.2c1.2,1.2,1.7,2.8,1.7,4.6c0,1.5-0.4,2.9-1.3,4c-0.9,1.1-2.1,1.8-3.6,2.1v-1.4
		c1-0.3,1.9-0.9,2.6-1.8c0.7-0.9,1-1.9,1-3c0-1.4-0.5-2.6-1.4-3.5c-1-1-2.2-1.5-3.5-1.5c-1.7,0-3,0.6-4,1.8
		c-0.7,0.9-1.1,1.9-1.1,2.8v1.3h-1.9v-1.3c0-1.3-0.4-2.4-1.1-3.2c-0.7-0.8-1.7-1.2-3.1-1.2c-1.3,0-2.4,0.4-3.2,1.3
		c-0.8,0.8-1.3,1.9-1.3,3.2c0,2.5,1.3,4,4,4.6v1.5c-1.6-0.2-2.9-0.8-3.8-1.9c-0.9-1.1-1.4-2.5-1.4-4.1c0-1.7,0.5-3.2,1.6-4.3
		c1-1.2,2.4-1.7,4.1-1.7c2.8,0,4.5,1.4,5.1,4.2c0.9-2.9,2.9-4.4,6-4.4C22.2,121.4,23.7,122,24.8,123.2z"/>
</g>
<g class="st1">
	<path class="st2" d="M15.1,107.5c0.2,0.2,0.6,0.5,1,0.8c0.5,0.4,1,0.9,1.7,1.4l7.3,6.4v-10.7h1.3V119l-12.7-11
		c-1.3-0.9-2.6-1.3-3.9-1.3s-2.4,0.5-3.4,1.6c-0.9,1-1.4,2.3-1.4,3.6c0,1.7,0.5,3,1.6,4c0.6,0.6,1.5,1,2.4,1.2v1.4
		c-1.1-0.1-2.2-0.7-3.2-1.6c-1.4-1.3-2.1-2.9-2.1-5c0-1.8,0.6-3.3,1.7-4.6c1.1-1.3,2.5-1.9,4.3-1.9
		C11.5,105.5,13.3,106.2,15.1,107.5z"/>
	<path class="st2" d="M22.7,88.7c2.6,1.5,4,3.6,4,6.4c0,2.7-1.3,4.9-4,6.4c-2.2,1.2-4.8,1.9-7.7,1.9c-3,0-5.6-0.6-7.8-1.9
		c-2.7-1.5-4-3.6-4-6.4c0-2.7,1.3-4.9,4-6.4c2.2-1.2,4.8-1.9,7.8-1.9C18,86.9,20.6,87.5,22.7,88.7z M8.1,89.7
		c-2.4,1.2-3.6,3-3.6,5.4c0,2.1,1.1,3.8,3.3,5.1c2,1.2,4.4,1.7,7.2,1.7c2.6,0,4.8-0.5,6.8-1.5c2.4-1.3,3.6-3,3.6-5.4
		c0-2.2-1.1-3.9-3.2-5.2c-1.9-1.2-4.3-1.7-7.2-1.7C12.3,88.2,10.1,88.7,8.1,89.7z"/>
</g>
<g class="st1">
	<path class="st2" d="M50,35.6c0,0.4-0.1,0.9-0.2,1.4c-0.1,0.4-0.2,0.8-0.4,1.2s-0.3,0.8-0.5,1.1l-5.6,10l-1.2-0.6l4.5-8.1l-1.3,0.7
		l-1.4,0.4l-1.4,0.1c-2.2,0-4.1-0.7-5.5-2.2c-1.5-1.5-2.2-3.3-2.2-5.5s0.7-4.1,2.2-5.5c1.5-1.5,3.3-2.2,5.5-2.2s4.1,0.7,5.5,2.2
		c1.5,1.5,2.2,3.3,2.2,5.5C50.1,34.7,50.1,35.1,50,35.6z M47,29.6c-1.2-1.2-2.8-1.9-4.6-1.9s-3.4,0.6-4.6,1.9
		c-1.2,1.2-1.9,2.8-1.9,4.6s0.6,3.3,1.9,4.6c1.2,1.3,2.8,1.9,4.6,1.9s3.4-0.6,4.6-1.9c1.2-1.2,1.9-2.8,1.9-4.6
		C48.9,32.3,48.3,30.8,47,29.6z"/>
	<path class="st2" d="M67.2,35.6C67.1,36,67,36.5,66.9,37c-0.1,0.4-0.2,0.8-0.4,1.2c-0.2,0.4-0.3,0.8-0.5,1.1l-5.6,10l-1.2-0.6
		l4.5-8.1l-1.3,0.7L61,41.8l-1.4,0.1c-2.2,0-4.1-0.7-5.5-2.2c-1.5-1.5-2.2-3.3-2.2-5.5s0.7-4.1,2.2-5.5c1.5-1.5,3.3-2.2,5.5-2.2
		s4.1,0.7,5.5,2.2c1.5,1.5,2.2,3.3,2.2,5.5C67.2,34.7,67.2,35.1,67.2,35.6z M64.2,29.6c-1.2-1.2-2.8-1.9-4.6-1.9s-3.4,0.6-4.6,1.9
		c-1.2,1.2-1.9,2.8-1.9,4.6s0.6,3.3,1.9,4.6c1.2,1.3,2.8,1.9,4.6,1.9s3.4-0.6,4.6-1.9c1.2-1.2,1.9-2.8,1.9-4.6
		C66,32.3,65.4,30.8,64.2,29.6z"/>
</g>
</svg>
