<?xml version="1.0" encoding="utf-8"?>
<!-- Generator: Adobe Illustrator 23.0.3, SVG Export Plug-In . SVG Version: 6.00 Build 0)  -->
<svg version="1.1" id="Livello_1" xmlns="http://www.w3.org/2000/svg" xmlns:xlink="http://www.w3.org/1999/xlink" x="0px" y="0px"
	 viewBox="0 0 326 185" style="enable-background:new 0 0 326 185;" xml:space="preserve">
<style type="text/css">
	.st0{fill:#3C3C3B;stroke:#000000;stroke-width:0.25;stroke-miterlimit:10;}
	.st1{enable-background:new    ;}
	.st2{fill:#E30613;}
</style>
<g>
	<path class="st0" d="M111.6,182.3H47.3v-138h64.4L111.6,182.3L111.6,182.3z M47.5,182.1h63.9V44.6H47.5V182.1z"/>
</g>
<g>
	<path class="st0" d="M250.1,182.3h-64.3v-138h64.3V182.3z M186,182.1h63.8V44.6H186V182.1z"/>
</g>
<g>
	<path class="st0" d="M180.8,182.3h-64.4v-138h64.4V182.3z M116.7,182.1h63.9V44.6h-63.9C116.7,44.6,116.7,182.1,116.7,182.1z"/>
</g>
<g>
	<path class="st0" d="M319.3,182.3H255v-138h64.4v138H319.3z M255.2,182.1h63.9V44.6h-63.9L255.2,182.1L255.2,182.1z"/>
</g>
<g class="st1">
	<path class="st2" d="M34.9,131.9c1.5,1.6,2.2,3.6,2.2,6c0,2-0.6,3.7-1.7,5.2c-1.1,1.4-2.7,2.3-4.7,2.8v-1.8
		c1.3-0.4,2.4-1.1,3.3-2.3c0.9-1.2,1.3-2.4,1.3-3.8c0-1.8-0.6-3.3-1.8-4.6c-1.3-1.3-2.8-1.9-4.6-1.9c-2.2,0-3.9,0.8-5.2,2.4
		c-1,1.2-1.4,2.4-1.4,3.7v1.7H20v-1.7c0-1.7-0.5-3.1-1.4-4.1s-2.3-1.5-4-1.5s-3.1,0.5-4.1,1.6c-1.1,1.1-1.6,2.5-1.6,4.2
		c0,3.3,1.7,5.2,5.1,5.9v1.9c-2.1-0.2-3.8-1.1-5-2.5s-1.8-3.2-1.8-5.3c0-2.2,0.7-4.1,2-5.6s3.1-2.2,5.4-2.2c3.6,0,5.8,1.8,6.6,5.5
		c1.1-3.8,3.7-5.7,7.8-5.7C31.4,129.6,33.4,130.4,34.9,131.9z"/>
</g>
<g class="st1">
	<path class="st2" d="M22.3,111.6c0.3,0.2,0.7,0.6,1.3,1.1c0.6,0.5,1.3,1.1,2.2,1.9l9.4,8.3V109h1.7v17.6l-16.5-14.3
		c-1.6-1.1-3.3-1.7-5.1-1.7c-1.7,0-3.2,0.7-4.4,2c-1.2,1.4-1.8,2.9-1.8,4.7c0,2.2,0.7,3.9,2.1,5.2c0.8,0.8,1.9,1.3,3.1,1.6v1.8
		c-1.4-0.2-2.8-0.9-4.2-2.1c-1.8-1.6-2.7-3.8-2.7-6.5c0-2.3,0.7-4.3,2.2-5.9c1.4-1.7,3.3-2.5,5.6-2.5C17.7,109,20,109.8,22.3,111.6z
		"/>
	<path class="st2" d="M32.2,87.2c3.4,2,5.1,4.7,5.1,8.3c0,3.6-1.7,6.3-5.2,8.3c-2.8,1.6-6.2,2.4-10,2.4c-3.9,0-7.2-0.8-10.1-2.4
		c-3.4-2-5.2-4.7-5.2-8.3c0-3.6,1.7-6.3,5.2-8.3c2.9-1.6,6.2-2.4,10.1-2.4C26,84.8,29.4,85.6,32.2,87.2z M13.3,88.5
		c-3.1,1.6-4.7,3.9-4.7,7c0,2.7,1.4,5,4.2,6.6c2.6,1.5,5.7,2.2,9.3,2.2c3.3,0,6.3-0.6,8.8-1.9c3.1-1.6,4.7-4,4.7-7
		c0-2.8-1.4-5-4.2-6.7c-2.5-1.5-5.6-2.2-9.3-2.2C18.7,86.6,15.8,87.2,13.3,88.5z"/>
</g>
<g class="st1">
	<path class="st2" d="M56.4,34.4V7h-4.9l1.1-1.7h5.5v29.1H56.4z"/>
</g>
<g class="st1">
	<path class="st2" d="M78.7,31.8c-1.9,2-4.4,3.1-7.5,3.1c-4.6,0-7.8-2-9.5-6.1l1.5-0.6c0.8,1.6,1.7,2.8,2.8,3.6
		c1.3,1,3.1,1.5,5.2,1.5c2.5,0,4.6-0.9,6.2-2.6c1.6-1.7,2.4-3.9,2.4-6.5c0-2.5-0.9-4.6-2.7-6.1c-1.7-1.5-3.7-2.2-5.9-2.1h-1.3h-0.6
		c-0.2,0-0.6,0.1-1,0.2c-0.9,0-1.9,0.2-2.9,0.6l2.9-11.3h11.2V7h-9.9l-1.8,7.5l1.6-0.2l1.7-0.1c2.6-0.2,5,0.7,7.1,2.4
		c2.2,1.8,3.3,4.3,3.3,7.4C81.6,27.2,80.6,29.8,78.7,31.8z"/>
</g>
<g class="st1">
	<path class="st2" d="M88.5,34.4V7h-4.9l1.1-1.7h5.5v29.1H88.5z"/>
</g>
</svg>
