<?xml version="1.0" encoding="utf-8"?>
<!-- Generator: Adobe Illustrator 23.0.3, SVG Export Plug-In . SVG Version: 6.00 Build 0)  -->
<svg version="1.1" id="Livello_1" xmlns="http://www.w3.org/2000/svg" xmlns:xlink="http://www.w3.org/1999/xlink" x="0px" y="0px"
	 viewBox="0 0 326 185" style="enable-background:new 0 0 326 185;" xml:space="preserve">
<style type="text/css">
	.st0{fill:#3C3C3B;stroke:#000000;stroke-width:0.25;stroke-miterlimit:10;}
	.st1{enable-background:new    ;}
	.st2{fill:#E30613;}
</style>
<g>
	<path class="st0" d="M82.6,109H42.5V45.6h40.1V109z M42.7,108.8h39.6v-63H42.7V108.8z"/>
</g>
<g>
	<path class="st0" d="M82.6,182.3H42.5v-63.5h40.1V182.3z M42.7,182.1h39.6v-63H42.7V182.1z"/>
</g>
<g>
	<path class="st0" d="M175.8,109h-40.2V45.6h40.2V109z M135.9,108.8h39.7v-63h-39.7V108.8z"/>
</g>
<g>
	<path class="st0" d="M175.8,182.3h-40.2v-63.5h40.2V182.3z M135.9,182.1h39.7v-63h-39.7V182.1z"/>
</g>
<g>
	<path class="st0" d="M269.8,109h-40.2V45.6h40.2V109z M229.9,108.8h39.7v-63h-39.7L229.9,108.8L229.9,108.8z"/>
</g>
<g>
	<path class="st0" d="M269.8,182.3h-40.2v-63.5h40.2V182.3z M229.9,182.1h39.7v-63h-39.7L229.9,182.1L229.9,182.1z"/>
</g>
<g>
	<path class="st0" d="M128.8,109H88.7V45.6h40.2L128.8,109L128.8,109z M88.9,108.8h39.7v-63H88.9V108.8z"/>
</g>
<g>
	<path class="st0" d="M128.8,182.3H88.7v-63.5h40.2L128.8,182.3L128.8,182.3z M88.9,182.1h39.7v-63H88.9V182.1z"/>
</g>
<g>
	<path class="st0" d="M223.1,109H183V45.6h40.2L223.1,109L223.1,109z M183.2,108.8h39.7v-63h-39.7V108.8z"/>
</g>
<g>
	<path class="st0" d="M223.1,182.3H183v-63.5h40.2L223.1,182.3L223.1,182.3z M183.2,182.1h39.7v-63h-39.7V182.1z"/>
</g>
<g>
	<path class="st0" d="M317.2,109h-40.1V45.6h40.1V109z M277.3,108.8H317v-63h-39.6v63H277.3z"/>
</g>
<g>
	<path class="st0" d="M317.2,182.3h-40.1v-63.5h40.1V182.3z M277.3,182.1H317v-63h-39.6v63H277.3z"/>
</g>
<g class="st1">
	<path class="st2" d="M37.2,97.8H9.6v5l-1.7-1.1v-5.5h29.3V97.8z"/>
</g>
<g class="st1">
	<path class="st2" d="M31.6,75.8h5.6v1.7h-5.6v15L7.5,75.8H30v-3.4h1.6V75.8z M12.7,77.5l17.3,12v-12H12.7z"/>
	<path class="st2" d="M35.4,54.7c1.6,1.6,2.3,3.6,2.3,6.1s-0.8,4.5-2.3,6.1c-1.6,1.6-3.6,2.4-6,2.4c-1.8,0-3.3-0.5-4.7-1.4
		c-1.3-1-2.3-2.3-3-4c-0.4,1.4-1.3,2.5-2.6,3.3c-1.3,0.8-2.6,1.2-4.1,1.2c-2.2,0-4-0.7-5.4-2.1s-2.1-3.2-2.1-5.4s0.7-4.1,2.1-5.5
		s3.2-2.1,5.5-2.1c1.5,0,2.9,0.4,4.2,1.2c1.2,0.8,2.1,1.9,2.5,3.4c0.5-1.5,1.3-2.7,2.3-3.6c1.4-1.3,3.2-2,5.4-2
		C31.8,52.3,33.8,53.1,35.4,54.7z M10.7,56.7C9.6,57.8,9,59.2,9,60.9s0.6,3.1,1.7,4.2s2.5,1.7,4.2,1.7c1.6,0,3-0.6,4.1-1.7
		c0.5-0.5,1-1.2,1.4-1.9s0.5-1.5,0.5-2.3c0-0.9-0.2-1.7-0.5-2.4s-0.8-1.3-1.3-1.9c-1-1-2.4-1.6-4.1-1.6S11.9,55.6,10.7,56.7z
		 M24.6,56c-0.7,0.7-1.2,1.4-1.6,2.2s-0.6,1.7-0.6,2.6c0,0.9,0.2,1.8,0.6,2.6s0.9,1.5,1.6,2.2c1.4,1.4,3,2,4.8,2
		c1.9,0,3.4-0.6,4.7-1.9s2-3,2-4.9c0-2-0.6-3.6-1.9-4.9c-1.3-1.3-2.9-2-4.8-2C27.5,54,25.9,54.7,24.6,56z"/>
</g>
<g class="st1">
	<path class="st2" d="M58.6,17.4c-0.1,0.6-0.2,1.2-0.3,1.9c-0.1,0.5-0.3,1.1-0.5,1.6s-0.4,1-0.7,1.5l-7.3,13.1l-1.6-0.7L54,24.2
		L52.3,25l-1.8,0.5l-1.8,0.2c-2.9,0-5.3-0.9-7.2-2.8s-2.9-4.3-2.9-7.2s1-5.3,2.9-7.2s4.3-2.9,7.2-2.9s5.3,1,7.2,2.9s2.9,4.3,2.9,7.2
		C58.7,16.2,58.7,16.8,58.6,17.4z M54.7,9.6c-1.6-1.6-3.6-2.4-6-2.4s-4.4,0.8-6,2.4s-2.4,3.6-2.4,6c0,2.3,0.8,4.3,2.4,5.9
		c1.6,1.6,3.6,2.5,6,2.5s4.4-0.8,6-2.4s2.4-3.6,2.4-6C57.1,13.2,56.3,11.2,54.7,9.6z"/>
</g>
<g class="st1">
	<path class="st2" d="M75.9,32.3c-1.9,2-4.5,3.1-7.5,3.1c-4.6,0-7.8-2-9.6-6.1l1.6-0.6c0.8,1.6,1.7,2.8,2.8,3.6
		c1.3,1,3.1,1.5,5.2,1.5c2.5,0,4.6-0.9,6.3-2.7c1.6-1.7,2.5-3.9,2.5-6.5c0-2.5-0.9-4.6-2.7-6.1c-1.7-1.5-3.7-2.2-6-2.1h-1.3h-0.6
		c-0.2,0-0.6,0.1-1,0.2c-0.9,0-1.9,0.2-2.9,0.6l2.9-11.4h11.2v1.7h-9.9L65,15l1.6-0.2l1.7-0.1c2.6-0.2,5,0.7,7.1,2.5
		c2.2,1.9,3.3,4.3,3.3,7.5C78.7,27.7,77.8,30.3,75.9,32.3z"/>
</g>
</svg>
