<?xml version="1.0" encoding="utf-8"?>
<!-- Generator: Adobe Illustrator 23.0.3, SVG Export Plug-In . SVG Version: 6.00 Build 0)  -->
<svg version="1.1" id="Livello_1" xmlns="http://www.w3.org/2000/svg" xmlns:xlink="http://www.w3.org/1999/xlink" x="0px" y="0px"
	 viewBox="0 0 326 185" style="enable-background:new 0 0 326 185;" xml:space="preserve">
<style type="text/css">
	.st0{fill:#3C3C3B;stroke:#000000;stroke-width:0.25;stroke-miterlimit:10;}
	.st1{enable-background:new    ;}
	.st2{fill:#E30613;}
</style>
<g>
	<path class="st0" d="M95.3,108.9H45.1V44.6h50.3L95.3,108.9L95.3,108.9z M45.3,108.7h49.8V44.8H45.3V108.7z"/>
</g>
<g>
	<path class="st0" d="M95.3,181.3H45.1V117h50.3L95.3,181.3L95.3,181.3z M45.3,181.1h49.8v-63.9H45.3V181.1z"/>
</g>
<g>
	<path class="st0" d="M204.9,108.9h-50.3V44.6h50.3V108.9z M154.9,108.7h49.8V44.8h-49.8V108.7z"/>
</g>
<g>
	<path class="st0" d="M204.9,181.3h-50.3V117h50.3V181.3z M154.9,181.1h49.8v-63.9h-49.8V181.1z"/>
</g>
<g>
	<path class="st0" d="M150.4,108.9h-50.3V44.6h50.3V108.9z M100.4,108.7h49.8V44.8h-49.8C100.4,44.8,100.4,108.7,100.4,108.7z"/>
</g>
<g>
	<path class="st0" d="M150.4,181.3h-50.3V117h50.3V181.3z M100.4,181.1h49.8v-63.9h-49.8C100.4,117.2,100.4,181.1,100.4,181.1z"/>
</g>
<g>
	<path class="st0" d="M260,108.9h-50.3V44.6H260V108.9z M210,108.7h49.8V44.8H210V108.7z"/>
</g>
<g>
	<path class="st0" d="M260,181.3h-50.3V117H260V181.3z M210,181.1h49.8v-63.9H210V181.1z"/>
</g>
<g>
	<path class="st0" d="M315,108.9h-50.3V44.6H315V108.9z M265,108.7h49.8V44.8H265V108.7z"/>
</g>
<g>
	<path class="st0" d="M315,181.3h-50.3V117H315V181.3z M265,181.1h49.8v-63.9H265V181.1z"/>
</g>
<g class="st1">
	<path class="st2" d="M37,96.8H9.4v5l-1.7-1.1v-5.5H37V96.8z"/>
</g>
<g class="st1">
	<path class="st2" d="M34.3,74.3c2,1.9,3.1,4.5,3.1,7.5c0,4.6-2,7.8-6.1,9.6l-0.6-1.6c1.6-0.8,2.8-1.7,3.6-2.8
		c1-1.3,1.5-3.1,1.5-5.2c0-2.5-0.9-4.6-2.7-6.3c-1.7-1.6-3.9-2.5-6.5-2.5c-2.5,0-4.6,0.9-6.1,2.7c-1.5,1.7-2.2,3.7-2.1,6V83v0.6
		c0,0.2,0.1,0.6,0.2,1c0,0.9,0.2,1.9,0.6,2.9L7.7,84.8V73.5h1.7v9.9l7.5,1.8l-0.2-1.6l-0.1-1.7c-0.2-2.6,0.7-5,2.5-7.1
		c1.9-2.2,4.3-3.3,7.5-3.3C29.7,71.5,32.3,72.4,34.3,74.3z"/>
	<path class="st2" d="M32.2,50.3c3.4,2,5.2,4.8,5.2,8.4s-1.7,6.4-5.2,8.3c-2.8,1.6-6.2,2.4-10.1,2.4S14.8,68.6,12,67
		c-3.5-2-5.2-4.7-5.2-8.3s1.7-6.4,5.2-8.3c2.9-1.6,6.3-2.4,10.1-2.4C26,48,29.4,48.8,32.2,50.3z M13.2,51.7c-3.2,1.6-4.8,4-4.8,7.1
		c0,2.8,1.4,5,4.3,6.7c2.6,1.5,5.7,2.3,9.4,2.3c3.4,0,6.3-0.6,8.8-1.9c3.2-1.6,4.8-4,4.8-7c0-2.8-1.4-5.1-4.2-6.7
		c-2.5-1.5-5.6-2.3-9.3-2.3C18.7,49.7,15.7,50.4,13.2,51.7z"/>
</g>
<g class="st1">
	<path class="st2" d="M53.2,34V6.4h-5l1.1-1.7h5.5V34H53.2z"/>
</g>
<g class="st1">
	<path class="st2" d="M64.3,34V6.4h-5l1.1-1.7H66V34H64.3z"/>
</g>
<g class="st1">
	<path class="st2" d="M85.8,32.2c-1.6,1.6-3.6,2.3-6.1,2.3s-4.5-0.8-6.1-2.3c-1.6-1.6-2.4-3.6-2.4-6c0-1.8,0.5-3.3,1.4-4.7
		c1-1.3,2.3-2.3,4-3c-1.4-0.4-2.5-1.3-3.3-2.6s-1.2-2.6-1.2-4.1c0-2.2,0.7-4,2.1-5.4s3.2-2.1,5.4-2.1c2.2,0,4.1,0.7,5.5,2.1
		s2.1,3.2,2.1,5.5c0,1.5-0.4,2.9-1.2,4.2c-0.8,1.2-1.9,2.1-3.4,2.5c1.5,0.5,2.7,1.3,3.6,2.3c1.3,1.4,2,3.2,2,5.4
		C88.2,28.7,87.4,30.7,85.8,32.2z M84.5,21.5c-0.7-0.7-1.4-1.2-2.2-1.6s-1.7-0.6-2.6-0.6s-1.8,0.2-2.6,0.6c-0.8,0.4-1.5,0.9-2.2,1.6
		c-1.4,1.4-2,3-2,4.8c0,1.9,0.6,3.4,1.9,4.7c1.3,1.3,3,2,4.9,2c2,0,3.6-0.6,4.9-1.9c1.3-1.3,2-2.9,2-4.8
		C86.5,24.4,85.9,22.8,84.5,21.5z M83.8,7.6c-1.1-1.1-2.5-1.7-4.2-1.7s-3.1,0.6-4.2,1.7s-1.7,2.5-1.7,4.2c0,1.6,0.6,3,1.7,4.1
		c0.5,0.5,1.2,1,1.9,1.4c0.7,0.4,1.5,0.5,2.3,0.5c0.9,0,1.7-0.2,2.4-0.5c0.7-0.3,1.3-0.8,1.9-1.3c1.1-1.1,1.7-2.5,1.7-4.2
		C85.5,10.1,85,8.7,83.8,7.6z"/>
</g>
</svg>
