<?xml version="1.0" encoding="utf-8"?>
<!-- Generator: Adobe Illustrator 23.0.3, SVG Export Plug-In . SVG Version: 6.00 Build 0)  -->
<svg version="1.1" id="Livello_1" xmlns="http://www.w3.org/2000/svg" xmlns:xlink="http://www.w3.org/1999/xlink" x="0px" y="0px"
	 viewBox="0 0 326 185" style="enable-background:new 0 0 326 185;" xml:space="preserve">
<style type="text/css">
	.st0{fill:#3C3C3B;stroke:#000000;stroke-width:0.25;stroke-miterlimit:10;}
	.st1{enable-background:new    ;}
	.st2{fill:#E30613;}
</style>
<g>
	<path class="st0" d="M228.5,178.3h-85.2v-133h85.2V178.3z M143.6,178.1h84.7V45.5h-84.7V178.1z"/>
</g>
<g>
	<path class="st0" d="M317.6,178.3h-85.2v-133h85.2V178.3z M232.7,178.1h84.7V45.5h-84.7V178.1z"/>
</g>
<g>
	<path class="st0" d="M138.9,178.3H53.8v-133h85.1V178.3z M54,178.1h84.6V45.5H54V178.1z"/>
</g>
<g class="st1">
	<path class="st2" d="M42,129.7c1.4,1.5,2.2,3.4,2.2,5.8c0,1.9-0.5,3.6-1.6,5c-1.1,1.3-2.6,2.2-4.5,2.7v-1.7
		c1.3-0.3,2.4-1.1,3.2-2.2c0.9-1.1,1.3-2.4,1.3-3.7c0-1.7-0.6-3.2-1.8-4.4s-2.7-1.8-4.4-1.8c-2.1,0-3.8,0.8-5,2.3
		c-0.9,1.2-1.4,2.3-1.4,3.5v1.6h-2.3V135c0-1.6-0.5-3-1.4-4s-2.2-1.5-3.9-1.5c-1.6,0-2.9,0.5-4,1.6c-1,1-1.6,2.4-1.6,4
		c0,3.1,1.6,5,4.9,5.7v1.8c-2-0.2-3.6-1-4.8-2.4s-1.8-3.1-1.8-5.1c0-2.1,0.7-3.9,2-5.4c1.3-1.4,3-2.2,5.2-2.2c3.5,0,5.6,1.8,6.4,5.3
		c1.1-3.7,3.6-5.5,7.5-5.5C38.7,127.4,40.6,128.2,42,129.7z"/>
</g>
<g class="st1">
	<path class="st2" d="M29.8,110.1c0.3,0.2,0.7,0.6,1.3,1.1c0.6,0.5,1.3,1.1,2.1,1.8l9.1,8v-13.4h1.6v17L28,110.8
		c-1.6-1.1-3.2-1.6-4.9-1.6c-1.6,0-3,0.7-4.2,2c-1.1,1.3-1.7,2.8-1.7,4.6c0,2.1,0.7,3.8,2,5c0.8,0.7,1.8,1.2,3,1.5v1.8
		c-1.4-0.2-2.7-0.9-4-2c-1.7-1.6-2.6-3.7-2.6-6.2c0-2.2,0.7-4.1,2.1-5.7s3.2-2.4,5.4-2.4C25.4,107.5,27.6,108.4,29.8,110.1z"/>
	<path class="st2" d="M39.4,86.5c3.3,1.9,4.9,4.6,4.9,8s-1.7,6.1-5,8c-2.7,1.5-5.9,2.3-9.7,2.3c-3.7,0-7-0.8-9.7-2.3
		c-3.3-1.9-5-4.5-5-8c0-3.4,1.7-6.1,5-8c2.8-1.5,6-2.3,9.7-2.3C33.5,84.2,36.7,85,39.4,86.5z M21.2,87.8c-3,1.5-4.6,3.8-4.6,6.8
		c0,2.6,1.4,4.8,4.1,6.4c2.5,1.4,5.5,2.2,9,2.2c3.2,0,6-0.6,8.4-1.8c3-1.6,4.6-3.8,4.6-6.7c0-2.7-1.3-4.8-4-6.4
		c-2.4-1.4-5.4-2.2-9-2.2C26.4,85.9,23.6,86.5,21.2,87.8z"/>
</g>
<g class="st1">
	<path class="st2" d="M76.6,21.6c-0.2,0.3-0.6,0.7-1.1,1.3c-0.5,0.6-1.1,1.3-1.8,2.1l-8,9.1h13.4v1.6h-17l13.7-15.9
		c1.1-1.6,1.6-3.2,1.6-4.9c0-1.6-0.7-3-2-4.2C74.2,9.6,72.7,9,71,9c-2.1,0-3.8,0.7-5,2c-0.7,0.8-1.2,1.8-1.5,3h-1.8
		c0.2-1.4,0.9-2.7,2-4c1.6-1.7,3.7-2.6,6.2-2.6c2.2,0,4.1,0.7,5.7,2.1s2.4,3.2,2.4,5.4C79.1,17.2,78.3,19.4,76.6,21.6z"/>
	<path class="st2" d="M100.1,31.1c-1.9,3.3-4.6,4.9-8,4.9s-6.1-1.7-8-5c-1.5-2.7-2.3-5.9-2.3-9.7c0-3.7,0.8-7,2.3-9.7
		c1.9-3.3,4.5-5,8-5c3.4,0,6.1,1.7,8,5c1.5,2.8,2.3,6,2.3,9.7C102.4,25.2,101.7,28.4,100.1,31.1z M98.9,12.9c-1.5-3-3.8-4.6-6.8-4.6
		c-2.6,0-4.8,1.4-6.4,4.1c-1.4,2.5-2.2,5.5-2.2,9c0,3.2,0.6,6,1.8,8.4c1.6,3,3.8,4.6,6.7,4.6c2.7,0,4.8-1.3,6.4-4
		c1.4-2.4,2.2-5.4,2.2-9C100.7,18.2,100.1,15.3,98.9,12.9z"/>
	<path class="st2" d="M120.6,33.6c-1.8,1.8-4.1,2.7-6.9,2.7c-2.9,0-5.2-0.9-7-2.7s-2.7-4.2-2.7-7v-0.9c0-0.1,0-0.3,0-0.4
		c0-0.2,0-0.3,0-0.5s0.1-0.4,0.1-0.7c0.1-0.3,0.1-0.7,0.3-1.1c0.1-0.5,0.3-1.1,0.5-1.6s0.4-0.9,0.7-1.4l7-12.6h1.8l-6,10.9l1.6-0.8
		l1.7-0.5l1.8-0.2c2.7,0,5,0.9,6.9,2.7c1.9,1.9,2.8,4.1,2.8,6.9C123.4,29.5,122.5,31.8,120.6,33.6z M119.5,21
		c-1.6-1.6-3.5-2.4-5.7-2.4s-4.1,0.8-5.7,2.4s-2.4,3.5-2.4,5.7c0,2.3,0.8,4.3,2.3,5.8s3.5,2.3,5.8,2.3s4.2-0.8,5.8-2.3
		c1.5-1.5,2.3-3.5,2.3-5.8C121.8,24.6,121,22.7,119.5,21z"/>
</g>
</svg>
