<?xml version="1.0" encoding="utf-8"?>
<!-- Generator: Adobe Illustrator 23.0.3, SVG Export Plug-In . SVG Version: 6.00 Build 0)  -->
<svg version="1.1" id="Livello_1" xmlns="http://www.w3.org/2000/svg" xmlns:xlink="http://www.w3.org/1999/xlink" x="0px" y="0px"
	 viewBox="0 0 326 185" style="enable-background:new 0 0 326 185;" xml:space="preserve">
<style type="text/css">
	.st0{fill:#3C3C3B;stroke:#000000;stroke-width:0.25;stroke-miterlimit:10;}
	.st1{enable-background:new    ;}
	.st2{fill:#E30613;}
</style>
<g>
	<path class="st0" d="M83.2,107.7H49.1V73.6h34.1V107.7z M49.3,107.5H83V73.8H49.3V107.5z"/>
</g>
<g>
	<path class="st0" d="M83.2,152.2H49.1v-34.1h34.1V152.2z M49.3,152H83v-33.6H49.3V152z"/>
</g>
<g>
	<path class="st0" d="M239.1,107.7H205V73.6h34.2L239.1,107.7L239.1,107.7z M205.2,107.5h33.7V73.8h-33.7V107.5z"/>
</g>
<g>
	<path class="st0" d="M239.1,152.2H205v-34.1h34.2L239.1,152.2L239.1,152.2z M205.2,152h33.7v-33.6h-33.7V152z"/>
</g>
<g>
	<path class="st0" d="M161.4,107.7h-34.1V73.6h34.1V107.7z M127.5,107.5h33.6V73.8h-33.6C127.5,73.8,127.5,107.5,127.5,107.5z"/>
</g>
<g>
	<path class="st0" d="M161.4,152.2h-34.1v-34.1h34.1V152.2z M127.5,152h33.6v-33.6h-33.6C127.5,118.4,127.5,152,127.5,152z"/>
</g>
<g>
	<path class="st0" d="M317.3,107.7h-34.2V73.6h34.2V107.7z M283.4,107.5h33.7V73.8h-33.7V107.5z"/>
</g>
<g>
	<path class="st0" d="M317.3,152.2h-34.2v-34.1h34.2V152.2z M283.4,152h33.7v-33.6h-33.7V152z"/>
</g>
<g>
	<path class="st0" d="M122.2,107.7H88.1V73.6h34.1V107.7z M88.3,107.5H122V73.8H88.3V107.5z"/>
</g>
<g>
	<path class="st0" d="M122.2,152.2H88.1v-34.1h34.1V152.2z M88.3,152H122v-33.6H88.3V152z"/>
</g>
<g>
	<path class="st0" d="M278.1,107.7H244V73.6h34.2v34.1H278.1z M244.2,107.5h33.7V73.8h-33.7V107.5z"/>
</g>
<g>
	<path class="st0" d="M278.1,152.2H244v-34.1h34.2v34.1H278.1z M244.2,152h33.7v-33.6h-33.7V152z"/>
</g>
<g>
	<path class="st0" d="M200.4,107.7h-34.1V73.6h34.1V107.7z M166.5,107.5h33.6V73.8h-33.6V107.5z"/>
</g>
<g>
	<path class="st0" d="M200.4,152.2h-34.1v-34.1h34.1V152.2z M166.5,152h33.6v-33.6h-33.6V152z"/>
</g>
<g class="st1">
	<path class="st2" d="M39.5,94.5c1.6,1.6,2.4,3.7,2.4,6.2s-0.8,4.6-2.3,6.2c-1.6,1.6-3.6,2.5-6.1,2.5c-1.8,0-3.4-0.5-4.8-1.5
		s-2.4-2.3-3-4.1c-0.4,1.4-1.3,2.5-2.7,3.3c-1.3,0.8-2.7,1.2-4.2,1.2c-2.2,0-4.1-0.7-5.5-2.1s-2.2-3.2-2.2-5.5s0.7-4.1,2.1-5.5
		s3.3-2.1,5.5-2.1c1.6,0,3,0.4,4.2,1.3c1.2,0.8,2.1,1.9,2.6,3.4c0.6-1.5,1.3-2.7,2.4-3.7c1.4-1.4,3.3-2,5.5-2
		C35.9,92.1,37.9,92.9,39.5,94.5z M14.4,96.5c-1.1,1.1-1.7,2.6-1.7,4.3c0,1.7,0.6,3.1,1.7,4.2s2.6,1.7,4.3,1.7s3.1-0.6,4.2-1.7
		c0.6-0.6,1-1.2,1.4-1.9c0.4-0.7,0.5-1.5,0.5-2.4s-0.2-1.7-0.5-2.4C24,97.6,23.5,97,23,96.4c-1.1-1.1-2.6-1.7-4.3-1.7
		C17,94.8,15.6,95.4,14.4,96.5z M28.6,95.8c-0.7,0.7-1.2,1.5-1.6,2.3s-0.6,1.7-0.6,2.7c0,0.9,0.2,1.8,0.6,2.6
		c0.4,0.8,0.9,1.6,1.6,2.2c1.4,1.4,3,2.1,4.9,2.1c1.9,0,3.5-0.7,4.8-2s2-3,2-5s-0.6-3.7-1.9-5c-1.3-1.4-2.9-2-4.9-2
		C31.5,93.8,29.9,94.5,28.6,95.8z"/>
	<path class="st2" d="M36.5,69.3c3.5,2,5.2,4.8,5.2,8.5c0,3.6-1.8,6.5-5.3,8.5c-2.9,1.6-6.3,2.5-10.2,2.5c-4,0-7.4-0.8-10.3-2.5
		c-3.5-2-5.3-4.8-5.3-8.5c0-3.6,1.8-6.5,5.3-8.5c2.9-1.6,6.4-2.5,10.3-2.5C30.2,66.9,33.6,67.7,36.5,69.3z M17.1,70.6
		c-3.2,1.6-4.8,4-4.8,7.2c0,2.8,1.4,5.1,4.3,6.8c2.6,1.5,5.8,2.3,9.5,2.3c3.4,0,6.4-0.7,9-2c3.2-1.7,4.8-4,4.8-7.1
		c0-2.9-1.4-5.1-4.3-6.8c-2.5-1.5-5.7-2.3-9.5-2.3C22.7,68.7,19.7,69.3,17.1,70.6z"/>
</g>
<g class="st1">
	<path class="st2" d="M59.7,60.8c-1.6,1.6-3.7,2.4-6.2,2.4s-4.6-0.8-6.2-2.3c-1.6-1.6-2.5-3.6-2.5-6.1c0-1.8,0.5-3.4,1.5-4.8
		c1-1.4,2.3-2.4,4.1-3c-1.4-0.4-2.5-1.3-3.3-2.7c-0.8-1.3-1.2-2.7-1.2-4.2c0-2.2,0.7-4.1,2.1-5.5c1.4-1.4,3.2-2.2,5.5-2.2
		s4.1,0.7,5.5,2.1c1.4,1.4,2.1,3.3,2.1,5.5c0,1.6-0.4,3-1.3,4.2c-0.8,1.2-1.9,2.1-3.4,2.6c1.5,0.6,2.7,1.3,3.7,2.4
		c1.4,1.4,2,3.3,2,5.5C62.1,57.2,61.3,59.2,59.7,60.8z M58.3,49.9c-0.7-0.7-1.5-1.2-2.3-1.6c-0.8-0.4-1.7-0.6-2.7-0.6
		c-0.9,0-1.8,0.2-2.6,0.6c-0.8,0.4-1.6,0.9-2.2,1.6c-1.4,1.4-2.1,3-2.1,4.9s0.7,3.5,2,4.8s3,2,5,2s3.7-0.6,5-1.9
		c1.4-1.3,2-2.9,2-4.9S59.7,51.2,58.3,49.9z M57.7,35.7c-1.1-1.1-2.6-1.7-4.3-1.7s-3.1,0.6-4.2,1.7c-1.1,1.1-1.7,2.6-1.7,4.3
		s0.6,3.1,1.7,4.2c0.6,0.6,1.2,1,1.9,1.4s1.5,0.5,2.4,0.5s1.7-0.2,2.4-0.5s1.3-0.8,1.9-1.3c1.1-1.1,1.7-2.6,1.7-4.3
		C59.4,38.3,58.8,36.9,57.7,35.7z"/>
	<path class="st2" d="M84.9,57.8c-2,3.5-4.8,5.2-8.5,5.2c-3.6,0-6.5-1.8-8.5-5.3c-1.6-2.9-2.5-6.3-2.5-10.2c0-4,0.8-7.4,2.5-10.3
		c2-3.5,4.8-5.3,8.5-5.3c3.6,0,6.5,1.8,8.5,5.3c1.6,2.9,2.5,6.4,2.5,10.3C87.3,51.5,86.5,54.9,84.9,57.8z M83.5,38.5
		c-1.6-3.2-4-4.8-7.2-4.8c-2.8,0-5.1,1.4-6.8,4.3c-1.5,2.6-2.3,5.8-2.3,9.5c0,3.4,0.7,6.4,2,9c1.7,3.2,4,4.8,7.1,4.8
		c2.9,0,5.1-1.4,6.8-4.3c1.5-2.5,2.3-5.7,2.3-9.5C85.5,44,84.9,41,83.5,38.5z"/>
</g>
</svg>
