<?xml version="1.0" encoding="utf-8"?>
<!-- Generator: Adobe Illustrator 23.0.3, SVG Export Plug-In . SVG Version: 6.00 Build 0)  -->
<svg version="1.1" id="Livello_1" xmlns="http://www.w3.org/2000/svg" xmlns:xlink="http://www.w3.org/1999/xlink" x="0px" y="0px"
	 viewBox="0 0 326 185" style="enable-background:new 0 0 326 185;" xml:space="preserve">
<style type="text/css">
	.st0{fill:#3C3C3B;stroke:#000000;stroke-width:0.25;stroke-miterlimit:10;}
	.st1{enable-background:new    ;}
	.st2{fill:#E30613;}
</style>
<g>
	<path class="st0" d="M89,180.3H56.1v-136H89V180.3z M56.3,180.1h32.4V44.5H56.3V180.1z"/>
</g>
<g>
	<path class="st0" d="M239.3,180.3h-33v-136h33V180.3z M206.6,180.1h32.5V44.5h-32.5V180.1z"/>
</g>
<g>
	<path class="st0" d="M164.4,180.3h-32.9v-136h32.9V180.3z M131.7,180.1h32.4V44.5h-32.4L131.7,180.1L131.7,180.1z"/>
</g>
<g>
	<path class="st0" d="M314.7,180.3h-32.9v-136h32.9V180.3z M282,180.1h32.4V44.5H282V180.1z"/>
</g>
<g>
	<path class="st0" d="M126.6,180.3h-33v-136h33V180.3z M93.9,180.1h32.5V44.5H93.9V180.1z"/>
</g>
<g>
	<path class="st0" d="M276.9,180.3h-33v-136h33V180.3z M244.2,180.1h32.5V44.5h-32.5L244.2,180.1L244.2,180.1z"/>
</g>
<g>
	<path class="st0" d="M202,180.3h-33v-136h33V180.3z M169.3,180.1h32.5V44.5h-32.5V180.1z"/>
</g>
<g class="st1">
	<path class="st2" d="M45.8,128.5c1.5,1.6,2.2,3.5,2.2,5.9c0,2-0.5,3.7-1.6,5.1c-1.1,1.4-2.6,2.3-4.6,2.7v-1.8
		c1.3-0.3,2.4-1.1,3.3-2.3c0.9-1.2,1.3-2.4,1.3-3.8c0-1.8-0.6-3.3-1.8-4.5c-1.3-1.3-2.8-1.9-4.5-1.9c-2.2,0-3.9,0.8-5.1,2.3
		c-0.9,1.2-1.4,2.4-1.4,3.6v1.7h-2.4v-1.7c0-1.7-0.5-3-1.4-4.1c-0.9-1-2.2-1.5-4-1.5c-1.7,0-3,0.5-4.1,1.6s-1.6,2.4-1.6,4.1
		c0,3.2,1.7,5.2,5.1,5.8v1.9c-2.1-0.2-3.7-1.1-4.9-2.5c-1.2-1.4-1.8-3.1-1.8-5.3s0.7-4,2-5.5s3.1-2.2,5.3-2.2c3.6,0,5.7,1.8,6.5,5.4
		c1.1-3.7,3.7-5.6,7.7-5.6C42.5,126.2,44.4,126.9,45.8,128.5z"/>
</g>
<g class="st1">
	<path class="st2" d="M33.4,108.4c0.3,0.2,0.7,0.6,1.3,1.1s1.3,1.1,2.1,1.8l9.3,8.2v-13.7h1.6v17.4l-16.3-14.1
		c-1.6-1.1-3.3-1.7-5-1.7s-3.1,0.7-4.3,2c-1.2,1.3-1.7,2.9-1.7,4.7c0,2.2,0.7,3.9,2.1,5.1c0.8,0.8,1.9,1.3,3.1,1.6v1.8
		c-1.4-0.2-2.8-0.9-4.1-2.1c-1.8-1.6-2.7-3.7-2.7-6.4c0-2.3,0.7-4.2,2.1-5.9c1.4-1.6,3.2-2.4,5.5-2.4
		C28.9,105.8,31.2,106.6,33.4,108.4z"/>
	<path class="st2" d="M43.2,84.3c3.4,1.9,5.1,4.7,5.1,8.2s-1.7,6.2-5.1,8.2c-2.8,1.6-6.1,2.4-9.9,2.4s-7.1-0.8-9.9-2.4
		c-3.4-1.9-5.1-4.6-5.1-8.2c0-3.5,1.7-6.2,5.1-8.2c2.8-1.6,6.1-2.4,9.9-2.4C37.1,81.9,40.4,82.7,43.2,84.3z M24.6,85.6
		c-3.1,1.6-4.7,3.9-4.7,6.9c0,2.7,1.4,4.9,4.2,6.5c2.5,1.5,5.6,2.2,9.2,2.2c3.3,0,6.2-0.6,8.6-1.9c3.1-1.6,4.7-3.9,4.7-6.9
		c0-2.8-1.4-5-4.1-6.6c-2.4-1.5-5.5-2.2-9.2-2.2C29.9,83.7,27,84.3,24.6,85.6z"/>
</g>
<g class="st1">
	<path class="st2" d="M63.2,30.6c-1.6,1.5-3.6,2.3-6,2.3s-4.4-0.8-6-2.3s-2.4-3.5-2.4-5.9c0-1.7,0.5-3.3,1.4-4.6
		c0.9-1.3,2.2-2.3,3.9-2.9c-1.3-0.4-2.4-1.3-3.2-2.6s-1.2-2.6-1.2-4c0-2.2,0.7-3.9,2-5.3c1.4-1.4,3.1-2.1,5.3-2.1s4,0.7,5.3,2
		c1.4,1.4,2,3.1,2,5.3c0,1.5-0.4,2.9-1.2,4.1s-1.9,2-3.3,2.5c1.4,0.5,2.6,1.3,3.5,2.3c1.3,1.4,2,3.1,2,5.3
		C65.6,27.1,64.8,29.1,63.2,30.6z M62,20.1c-0.7-0.7-1.4-1.2-2.2-1.6s-1.7-0.6-2.6-0.6c-0.9,0-1.8,0.2-2.5,0.6
		c-0.8,0.4-1.5,0.9-2.2,1.5c-1.3,1.3-2,2.9-2,4.7c0,1.8,0.6,3.4,1.9,4.6c1.3,1.3,2.9,1.9,4.8,1.9c2,0,3.6-0.6,4.8-1.8
		c1.3-1.2,2-2.8,2-4.7C64,22.9,63.3,21.3,62,20.1z M61.3,6.4c-1.1-1.1-2.5-1.6-4.1-1.6s-3,0.5-4.1,1.6s-1.6,2.5-1.6,4.1
		s0.5,3,1.6,4.1c0.5,0.5,1.1,1,1.8,1.3s1.4,0.5,2.3,0.5c0.9,0,1.6-0.2,2.3-0.5c0.7-0.3,1.3-0.8,1.8-1.3c1.1-1.1,1.6-2.5,1.6-4.1
		C63,8.9,62.4,7.5,61.3,6.4z"/>
	<path class="st2" d="M87.5,27.7c-1.9,3.4-4.7,5.1-8.2,5.1s-6.2-1.7-8.2-5.1c-1.6-2.8-2.4-6.1-2.4-9.9s0.8-7.1,2.4-9.9
		c1.9-3.4,4.6-5.1,8.2-5.1c3.5,0,6.2,1.7,8.2,5.1c1.6,2.8,2.4,6.1,2.4,9.9S89.1,24.9,87.5,27.7z M86.3,9c-1.6-3.1-3.9-4.7-6.9-4.7
		c-2.7,0-4.9,1.4-6.5,4.2c-1.5,2.5-2.2,5.6-2.2,9.2c0,3.3,0.6,6.2,1.9,8.6c1.6,3.1,3.9,4.7,6.9,4.7c2.8,0,5-1.4,6.6-4.1
		c1.5-2.4,2.2-5.5,2.2-9.2C88.1,14.4,87.5,11.5,86.3,9z"/>
</g>
</svg>
