<?xml version="1.0" encoding="utf-8"?>
<!-- Generator: Adobe Illustrator 23.0.3, SVG Export Plug-In . SVG Version: 6.00 Build 0)  -->
<svg version="1.1" id="Livello_1" xmlns="http://www.w3.org/2000/svg" xmlns:xlink="http://www.w3.org/1999/xlink" x="0px" y="0px"
	 viewBox="0 0 326 185" style="enable-background:new 0 0 326 185;" xml:space="preserve">
<style type="text/css">
	.st0{fill:#3C3C3B;stroke:#000000;stroke-width:0.25;stroke-miterlimit:10;}
	.st1{enable-background:new    ;}
	.st2{fill:#E30613;}
</style>
<g>
	<path class="st0" d="M107.4,106.8H42.7V42.5h64.8L107.4,106.8L107.4,106.8z M42.9,106.6h64.3V42.7H42.9V106.6z"/>
</g>
<g>
	<path class="st0" d="M107.4,181.3H42.7V117h64.8L107.4,181.3L107.4,181.3z M42.9,181.1h64.3v-63.9H42.9V181.1z"/>
</g>
<g>
	<path class="st0" d="M246.8,106.8H182V42.5h64.8V106.8z M182.3,106.6h64.3V42.7h-64.3V106.6z"/>
</g>
<g>
	<path class="st0" d="M246.8,181.3H182V117h64.8V181.3z M182.3,181.1h64.3v-63.9h-64.3V181.1z"/>
</g>
<g>
	<path class="st0" d="M177.1,106.8h-64.8V42.5h64.8V106.8z M112.6,106.6h64.3V42.7h-64.3C112.6,42.7,112.6,106.6,112.6,106.6z"/>
</g>
<g>
	<path class="st0" d="M177.1,181.3h-64.8V117h64.8V181.3z M112.6,181.1h64.3v-63.9h-64.3C112.6,117.2,112.6,181.1,112.6,181.1z"/>
</g>
<g>
	<path class="st0" d="M316.4,106.8h-64.8V42.5h64.8V106.8z M251.9,106.6h64.3V42.7h-64.3L251.9,106.6L251.9,106.6z"/>
</g>
<g>
	<path class="st0" d="M316.4,181.3h-64.8V117h64.8V181.3z M251.9,181.1h64.3v-63.9h-64.3L251.9,181.1L251.9,181.1z"/>
</g>
<g class="st1">
	<path class="st2" d="M37.3,96.8H9.7v5L8,100.7v-5.5h29.3V96.8z"/>
</g>
<g class="st1">
	<path class="st2" d="M34.7,74.3c2,1.9,3.1,4.5,3.1,7.5c0,4.6-2,7.8-6.1,9.6L31,89.9c1.6-0.8,2.8-1.7,3.6-2.8c1-1.3,1.5-3.1,1.5-5.2
		c0-2.5-0.9-4.6-2.7-6.3c-1.7-1.6-3.9-2.5-6.5-2.5c-2.5,0-4.6,0.9-6.1,2.7c-1.5,1.7-2.2,3.7-2.1,6v1.3v0.6c0,0.2,0.1,0.6,0.2,1
		c0,0.9,0.2,1.9,0.6,2.9L8.1,84.8V73.5h1.7v9.9l7.5,1.8l-0.2-1.6L17,81.9c-0.2-2.6,0.7-5,2.5-7.1c1.9-2.2,4.3-3.3,7.5-3.3
		C30.1,71.5,32.6,72.4,34.7,74.3z"/>
	<path class="st2" d="M32.6,50.3c3.4,2,5.2,4.8,5.2,8.4s-1.7,6.4-5.2,8.3c-2.8,1.6-6.2,2.4-10.1,2.4s-7.3-0.8-10.1-2.4
		c-3.5-2-5.2-4.7-5.2-8.3s1.7-6.4,5.2-8.3c2.9-1.6,6.3-2.4,10.1-2.4C26.4,48,29.8,48.8,32.6,50.3z M13.6,51.7
		c-3.2,1.6-4.8,4-4.8,7.1c0,2.8,1.4,5,4.3,6.7c2.6,1.5,5.7,2.3,9.4,2.3c3.4,0,6.3-0.6,8.8-1.9c3.2-1.6,4.8-4,4.8-7
		c0-2.8-1.4-5.1-4.2-6.7c-2.5-1.5-5.6-2.3-9.3-2.3C19,49.7,16.1,50.4,13.6,51.7z"/>
</g>
<g class="st1">
	<path class="st2" d="M58.4,34V6.4h-5l1.1-1.7H60V34H58.4z"/>
</g>
<g class="st1">
	<path class="st2" d="M80.9,31.3c-1.9,2-4.5,3.1-7.5,3.1c-4.6,0-7.8-2-9.6-6.1l1.6-0.6c0.8,1.6,1.7,2.8,2.8,3.6
		c1.3,1,3.1,1.5,5.2,1.5c2.5,0,4.6-0.9,6.3-2.7c1.6-1.7,2.5-3.9,2.5-6.5c0-2.5-0.9-4.6-2.7-6.1c-1.7-1.5-3.7-2.2-6-2.1h-1.3h-0.6
		c-0.2,0-0.6,0.1-1,0.2c-0.9,0-1.9,0.2-2.9,0.6l2.9-11.4h11.2v1.7h-9.9L70,14l1.6-0.2l1.7-0.1c2.6-0.2,5,0.7,7.1,2.5
		c2.2,1.9,3.3,4.3,3.3,7.5C83.8,26.7,82.8,29.3,80.9,31.3z"/>
</g>
<g class="st1">
	<path class="st2" d="M90.7,34V6.4h-5l1.1-1.7h5.5V34H90.7z"/>
</g>
</svg>
