<?xml version="1.0" encoding="utf-8"?>
<!-- Generator: Adobe Illustrator 23.0.3, SVG Export Plug-In . SVG Version: 6.00 Build 0)  -->
<svg version="1.1" id="Livello_1" xmlns="http://www.w3.org/2000/svg" xmlns:xlink="http://www.w3.org/1999/xlink" x="0px" y="0px"
	 viewBox="0 0 326 185" style="enable-background:new 0 0 326 185;" xml:space="preserve">
<style type="text/css">
	.st0{fill:#3C3C3B;stroke:#000000;stroke-width:0.25;stroke-miterlimit:10;}
	.st1{enable-background:new    ;}
	.st2{fill:#E30613;}
</style>
<g>
	<path class="st0" d="M81.9,161.7H38.1V58.3h43.8C81.9,58.3,81.9,161.7,81.9,161.7z M38.3,161.5h43.3v-103H38.3V161.5z"/>
</g>
<g>
	<path class="st0" d="M177.7,161.7h-43.8V58.3h43.8V161.7z M134.1,161.5h43.3v-103h-43.3V161.5z"/>
</g>
<g>
	<path class="st0" d="M273.7,161.7h-43.8V58.3h43.8V161.7z M230.1,161.5h43.3v-103h-43.3L230.1,161.5L230.1,161.5z"/>
</g>
<g>
	<path class="st0" d="M130.1,161.7H86.3V58.3h43.9v103.4H130.1z M86.5,161.5h43.4v-103H86.5V161.5z"/>
</g>
<g>
	<path class="st0" d="M225.9,161.7h-43.8V58.3h43.8V161.7z M182.3,161.5h43.3v-103h-43.3V161.5z"/>
</g>
<g>
	<path class="st0" d="M321.9,161.7h-43.8V58.3h43.8V161.7z M278.3,161.5h43.3v-103h-43.3V161.5z"/>
</g>
<g class="st1">
	<path class="st2" d="M29.6,122.4c1.1,1.2,1.7,2.7,1.7,4.5c0,1.5-0.4,2.8-1.3,3.9c-0.8,1-2,1.7-3.5,2.1v-1.3c1-0.3,1.8-0.8,2.5-1.7
		s1-1.8,1-2.9c0-1.3-0.5-2.5-1.4-3.4c-1-1-2.1-1.4-3.4-1.4c-1.6,0-2.9,0.6-3.9,1.8c-0.7,0.9-1.1,1.8-1.1,2.7v1.3h-1.8v-1.3
		c0-1.3-0.4-2.3-1.1-3.1c-0.7-0.8-1.7-1.1-3-1.1s-2.3,0.4-3.1,1.2c-0.8,0.8-1.2,1.9-1.2,3.1c0,2.4,1.3,3.9,3.8,4.4v1.4
		c-1.6-0.2-2.8-0.8-3.7-1.9c-0.9-1.1-1.4-2.4-1.4-4c0-1.7,0.5-3.1,1.5-4.2s2.3-1.7,4-1.7c2.7,0,4.4,1.4,5,4.1
		c0.9-2.8,2.8-4.3,5.9-4.3C27.1,120.6,28.5,121.2,29.6,122.4z"/>
</g>
<g class="st1">
	<path class="st2" d="M20.2,107.1c0.2,0.2,0.6,0.5,1,0.8c0.4,0.4,1,0.8,1.6,1.4l7.1,6.3v-10.4h1.3v13.2l-12.4-10.7
		c-1.2-0.9-2.5-1.3-3.8-1.3s-2.4,0.5-3.3,1.5s-1.3,2.2-1.3,3.5c0,1.6,0.5,2.9,1.6,3.9c0.6,0.6,1.4,1,2.3,1.2v1.4
		c-1.1-0.1-2.1-0.7-3.1-1.6c-1.3-1.2-2-2.8-2-4.9c0-1.7,0.5-3.2,1.6-4.5c1.1-1.2,2.5-1.9,4.2-1.9C16.7,105.1,18.5,105.7,20.2,107.1z
		"/>
	<path class="st2" d="M27.6,88.8c2.6,1.5,3.8,3.5,3.8,6.2s-1.3,4.7-3.9,6.2c-2.1,1.2-4.6,1.8-7.5,1.8s-5.4-0.6-7.5-1.8
		c-2.6-1.5-3.9-3.5-3.9-6.2s1.3-4.7,3.9-6.2c2.2-1.2,4.7-1.8,7.5-1.8C23,87,25.5,87.6,27.6,88.8z M13.4,89.7c-2.4,1.2-3.5,3-3.5,5.2
		c0,2.1,1.1,3.7,3.2,5c1.9,1.1,4.2,1.7,7,1.7c2.5,0,4.7-0.5,6.6-1.4c2.4-1.2,3.5-3,3.5-5.2c0-2.1-1-3.8-3.1-5
		c-1.9-1.1-4.2-1.7-7-1.7C17.5,88.3,15.3,88.8,13.4,89.7z"/>
</g>
<g class="st1">
	<path class="st2" d="M33.4,50.3V29.8h-3.7l0.8-1.3h4.1v21.8H33.4z"/>
</g>
<g class="st1">
	<path class="st2" d="M48.1,48.8c-1.2,1.1-2.7,1.7-4.5,1.7c-1.5,0-2.8-0.4-3.9-1.3c-1-0.8-1.7-2-2.1-3.5H39c0.3,1,0.8,1.8,1.7,2.5
		s1.8,1,2.9,1c1.3,0,2.5-0.5,3.4-1.4c1-1,1.4-2.1,1.4-3.4c0-1.6-0.6-2.9-1.8-3.9c-0.9-0.7-1.8-1.1-2.7-1.1h-1.3v-1.8h1.3
		c1.3,0,2.3-0.4,3.1-1.1c0.8-0.7,1.1-1.7,1.1-3s-0.4-2.3-1.2-3.1c-0.8-0.8-1.9-1.2-3.1-1.2c-2.4,0-3.9,1.3-4.4,3.8H38
		c0.2-1.6,0.8-2.8,1.9-3.7c1.1-0.9,2.4-1.4,4-1.4c1.7,0,3.1,0.5,4.2,1.5c1.1,1,1.7,2.3,1.7,4c0,2.7-1.4,4.4-4.1,5
		c2.8,0.9,4.3,2.8,4.3,5.9C49.8,46.2,49.2,47.7,48.1,48.8z"/>
</g>
<g class="st1">
	<path class="st2" d="M52,50.6l-1-0.8l13.2-20.1h-13v-1.3h15.3L52,50.6z"/>
	<path class="st2" d="M68.7,53.5l-0.4-0.3l2.3-5l1.1,0.5L68.7,53.5z"/>
	<path class="st2" d="M74.1,50.6l-1-0.8l13.2-20.1h-13v-1.3h15.3L74.1,50.6z"/>
</g>
</svg>
