<?xml version="1.0" encoding="utf-8"?>
<!-- Generator: Adobe Illustrator 23.0.3, SVG Export Plug-In . SVG Version: 6.00 Build 0)  -->
<svg version="1.1" id="Livello_1" xmlns="http://www.w3.org/2000/svg" xmlns:xlink="http://www.w3.org/1999/xlink" x="0px" y="0px"
	 viewBox="0 0 326 185" style="enable-background:new 0 0 326 185;" xml:space="preserve">
<style type="text/css">
	.st0{fill:#3C3C3B;stroke:#000000;stroke-width:0.25;stroke-miterlimit:10;}
	.st1{enable-background:new    ;}
	.st2{fill:#E30613;}
</style>
<g>
	<path class="st0" d="M83.1,181.3H55.4v-136h27.8L83.1,181.3L83.1,181.3z M55.6,181.1h27.3V45.5H55.6V181.1z"/>
</g>
<g>
	<path class="st0" d="M215.1,181.3h-27.8v-136h27.8V181.3z M187.6,181.1h27.3V45.5h-27.3V181.1z"/>
</g>
<g>
	<path class="st0" d="M149.2,181.3h-27.8v-136h27.8V181.3z M121.7,181.1H149V45.5h-27.3V181.1z"/>
</g>
<g>
	<path class="st0" d="M281.3,181.3h-27.8v-136h27.8V181.3z M253.8,181.1h27.3V45.5h-27.3V181.1z"/>
</g>
<g>
	<path class="st0" d="M116.1,181.3H88.4v-136h27.8L116.1,181.3L116.1,181.3z M88.6,181.1h27.3V45.5H88.6V181.1z"/>
</g>
<g>
	<path class="st0" d="M248.2,181.3h-27.8v-136h27.8V181.3z M220.7,181.1H248V45.5h-27.3V181.1z"/>
</g>
<g>
	<path class="st0" d="M182.2,181.3h-27.7v-136h27.7V181.3z M154.7,181.1H182V45.5h-27.2v135.6H154.7z"/>
</g>
<g>
	<path class="st0" d="M314.3,181.3h-27.8v-136h27.8V181.3z M286.8,181.1h27.3V45.5h-27.3V181.1z"/>
</g>
<g class="st1">
	<path class="st2" d="M46.4,129.5c1.5,1.6,2.2,3.5,2.2,5.9c0,2-0.5,3.7-1.6,5.1c-1.1,1.4-2.6,2.3-4.6,2.7v-1.8
		c1.3-0.3,2.4-1.1,3.3-2.3c0.9-1.2,1.3-2.4,1.3-3.8c0-1.8-0.6-3.3-1.8-4.5c-1.3-1.3-2.8-1.9-4.5-1.9c-2.2,0-3.9,0.8-5.1,2.3
		c-0.9,1.2-1.4,2.4-1.4,3.6v1.7h-2.4v-1.7c0-1.7-0.5-3-1.4-4.1c-0.9-1-2.2-1.5-4-1.5c-1.7,0-3,0.5-4.1,1.6s-1.6,2.5-1.6,4.1
		c0,3.2,1.7,5.2,5.1,5.8v1.9c-2.1-0.2-3.7-1.1-4.9-2.5c-1.2-1.4-1.8-3.1-1.8-5.3s0.7-4,2-5.5s3.1-2.2,5.3-2.2c3.6,0,5.7,1.8,6.5,5.4
		c1.1-3.7,3.7-5.6,7.7-5.6C43,127.2,45,127.9,46.4,129.5z"/>
</g>
<g class="st1">
	<path class="st2" d="M34,109.4c0.3,0.2,0.7,0.6,1.3,1.1s1.3,1.1,2.1,1.8l9.3,8.2v-13.7h1.6v17.4L32,110.1c-1.6-1.1-3.3-1.7-5-1.7
		s-3.1,0.7-4.3,2c-1.2,1.3-1.7,2.9-1.7,4.7c0,2.2,0.7,3.9,2.1,5.1c0.8,0.8,1.9,1.3,3.1,1.6v1.8c-1.4-0.2-2.8-0.9-4.1-2.1
		c-1.8-1.6-2.7-3.7-2.7-6.4c0-2.3,0.7-4.2,2.1-5.9c1.4-1.6,3.2-2.5,5.5-2.5C29.5,106.8,31.7,107.6,34,109.4z"/>
	<path class="st2" d="M43.8,85.3c3.4,1.9,5.1,4.7,5.1,8.2s-1.7,6.2-5.1,8.2c-2.8,1.6-6.1,2.4-9.9,2.4s-7.1-0.8-9.9-2.4
		c-3.4-1.9-5.1-4.6-5.1-8.2s1.7-6.2,5.1-8.2c2.8-1.6,6.1-2.4,9.9-2.4S41,83.7,43.8,85.3z M25.1,86.6c-3.1,1.6-4.7,3.9-4.7,6.9
		c0,2.7,1.4,4.9,4.2,6.5c2.5,1.5,5.6,2.2,9.2,2.2c3.3,0,6.2-0.6,8.6-1.9c3.1-1.6,4.7-3.9,4.7-6.9c0-2.8-1.4-5-4.1-6.6
		c-2.4-1.5-5.5-2.2-9.2-2.2C30.5,84.7,27.6,85.3,25.1,86.6z"/>
</g>
<g class="st1">
	<path class="st2" d="M64.8,31.2c-1.8,1.9-4.2,2.8-7,2.8c-2.9,0-5.3-0.9-7.1-2.7C48.9,29.4,48,27,48,24.2v-0.9c0-0.1,0-0.3,0-0.4
		c0-0.2,0-0.3,0-0.5s0.1-0.4,0.1-0.7c0.1-0.3,0.1-0.7,0.3-1.1c0.1-0.6,0.3-1.1,0.5-1.6s0.4-1,0.7-1.4l7.2-12.9h1.9l-6.1,11.1
		l1.7-0.8l1.7-0.5l1.8-0.2c2.8,0,5.2,0.9,7,2.8c1.9,1.9,2.9,4.2,2.9,7C67.7,27,66.7,29.3,64.8,31.2z M63.6,18.4
		c-1.6-1.6-3.6-2.5-5.9-2.5c-2.3,0-4.2,0.8-5.8,2.4s-2.4,3.5-2.4,5.8c0,2.4,0.8,4.4,2.3,5.9c1.6,1.6,3.5,2.4,5.9,2.4
		s4.3-0.8,5.9-2.4c1.6-1.6,2.4-3.5,2.4-5.9C66.1,21.9,65.2,20,63.6,18.4z"/>
	<path class="st2" d="M85.7,31.6c-1.6,1.5-3.6,2.3-6,2.3s-4.4-0.8-6-2.3s-2.4-3.5-2.4-5.9c0-1.7,0.5-3.3,1.4-4.6
		c0.9-1.3,2.2-2.3,3.9-2.9c-1.3-0.4-2.4-1.3-3.2-2.6c-0.8-1.3-1.2-2.6-1.2-4c0-2.2,0.7-3.9,2-5.3c1.4-1.4,3.1-2.1,5.3-2.1
		c2.2,0,4,0.7,5.3,2c1.4,1.4,2,3.1,2,5.3c0,1.5-0.4,2.9-1.2,4.1c-0.8,1.2-1.9,2-3.3,2.5c1.4,0.5,2.6,1.3,3.5,2.3
		c1.3,1.4,2,3.1,2,5.3C88,28.1,87.2,30,85.7,31.6z M84.4,21.1c-0.7-0.7-1.4-1.2-2.2-1.6c-0.8-0.4-1.7-0.6-2.6-0.6s-1.8,0.2-2.5,0.6
		c-0.8,0.4-1.5,0.9-2.2,1.5c-1.3,1.3-2,2.9-2,4.7c0,1.8,0.6,3.4,1.9,4.6c1.3,1.3,2.9,1.9,4.8,1.9c2,0,3.6-0.6,4.8-1.8
		c1.3-1.2,2-2.8,2-4.7C86.4,23.9,85.7,22.3,84.4,21.1z M83.8,7.4c-1.1-1.1-2.5-1.6-4.1-1.6s-3,0.5-4.1,1.6S74,9.9,74,11.5
		s0.5,3,1.6,4.1c0.5,0.5,1.1,1,1.8,1.3c0.7,0.3,1.4,0.5,2.3,0.5s1.6-0.2,2.3-0.5c0.7-0.3,1.3-0.8,1.8-1.3c1.1-1.1,1.6-2.5,1.6-4.1
		C85.4,9.9,84.9,8.5,83.8,7.4z"/>
</g>
</svg>
