<?xml version="1.0" encoding="utf-8"?>
<!-- Generator: Adobe Illustrator 23.0.3, SVG Export Plug-In . SVG Version: 6.00 Build 0)  -->
<svg version="1.1" id="Livello_1" xmlns="http://www.w3.org/2000/svg" xmlns:xlink="http://www.w3.org/1999/xlink" x="0px" y="0px"
	 viewBox="0 0 326 185" style="enable-background:new 0 0 326 185;" xml:space="preserve">
<style type="text/css">
	.st0{fill:#3C3C3B;stroke:#000000;stroke-width:0.25;stroke-miterlimit:10;}
	.st1{enable-background:new    ;}
	.st2{fill:#E30613;}
</style>
<g>
	<path class="st0" d="M227.1,107.8h-88.8V43.6h88.8V107.8z M138.6,107.6h88.3V43.8h-88.3V107.6z"/>
</g>
<g>
	<path class="st0" d="M227.1,182.3h-88.8V118h88.8V182.3z M138.6,182.1h88.3v-63.8h-88.3V182.1z"/>
</g>
<g>
	<path class="st0" d="M320,107.8h-88.8V43.6H320V107.8z M231.5,107.6h88.3V43.8h-88.3L231.5,107.6L231.5,107.6z"/>
</g>
<g>
	<path class="st0" d="M320,182.3h-88.8V118H320V182.3z M231.5,182.1h88.3v-63.8h-88.3L231.5,182.1L231.5,182.1z"/>
</g>
<g>
	<path class="st0" d="M133.7,107.8H45V43.6h88.8v64.2H133.7z M45.2,107.6h88.3V43.8H45.2V107.6z"/>
</g>
<g>
	<path class="st0" d="M133.7,182.3H45V118h88.8v64.3H133.7z M45.2,182.1h88.3v-63.8H45.2V182.1z"/>
</g>
<g class="st1">
	<path class="st2" d="M37.4,97.9H9.8v5l-1.7-1.1v-5.5h29.2L37.4,97.9L37.4,97.9z"/>
</g>
<g class="st1">
	<path class="st2" d="M34.7,75.5c2,1.9,3.1,4.5,3.1,7.5c0,4.6-2,7.8-6.1,9.5L31,91c1.6-0.8,2.8-1.7,3.6-2.8c1-1.3,1.5-3.1,1.5-5.2
		c0-2.5-0.9-4.6-2.7-6.3c-1.7-1.6-3.9-2.5-6.5-2.5c-2.5,0-4.6,0.9-6.1,2.7c-1.5,1.7-2.2,3.7-2.1,6v1.3V85c0,0.2,0.1,0.6,0.2,1
		c0,0.9,0.2,1.9,0.6,2.9l-11.4-3V74.7h1.7v9.9l7.5,1.8l-0.2-1.6L17,83c-0.2-2.6,0.7-5,2.5-7.1c1.9-2.2,4.3-3.3,7.5-3.3
		C30.1,72.6,32.7,73.6,34.7,75.5z"/>
	<path class="st2" d="M32.6,51.6c3.4,2,5.2,4.8,5.2,8.4c0,3.6-1.7,6.3-5.2,8.3c-2.8,1.6-6.2,2.4-10.1,2.4s-7.3-0.8-10.1-2.4
		c-3.5-2-5.2-4.7-5.2-8.3s1.7-6.3,5.2-8.3c2.9-1.6,6.3-2.4,10.1-2.4C26.4,49.2,29.8,50,32.6,51.6z M13.6,52.9c-3.2,1.6-4.8,4-4.8,7
		c0,2.8,1.4,5,4.3,6.7c2.6,1.5,5.7,2.3,9.4,2.3c3.4,0,6.3-0.6,8.8-1.9c3.2-1.6,4.8-4,4.8-7c0-2.8-1.4-5.1-4.2-6.7
		c-2.5-1.5-5.6-2.3-9.3-2.3C19.1,50.9,16.1,51.6,13.6,52.9z"/>
</g>
<g class="st1">
	<path class="st2" d="M68.7,20.4c-0.2,0.3-0.6,0.7-1.1,1.3s-1.1,1.3-1.9,2.2l-8.4,9.5h14v1.7H53.7L68,18.6c1.1-1.6,1.7-3.3,1.7-5.1
		c0-1.7-0.7-3.2-2-4.4c-1.4-1.2-2.9-1.8-4.8-1.8c-2.2,0-3.9,0.7-5.2,2.1c-0.8,0.8-1.3,1.9-1.6,3.2h-1.8c0.2-1.4,0.9-2.8,2.1-4.2
		c1.6-1.8,3.8-2.7,6.5-2.7c2.3,0,4.3,0.7,6,2.2c1.7,1.4,2.5,3.3,2.5,5.6C71.4,15.8,70.5,18.2,68.7,20.4z"/>
	<path class="st2" d="M93.3,30.4c-2,3.4-4.8,5.2-8.4,5.2s-6.3-1.7-8.3-5.2c-1.6-2.8-2.4-6.2-2.4-10.1S75,13,76.6,10.2
		c2-3.5,4.7-5.2,8.3-5.2c3.6,0,6.3,1.7,8.3,5.2c1.6,2.9,2.4,6.3,2.4,10.1C95.7,24.2,94.9,27.6,93.3,30.4z M92,11.4
		c-1.6-3.2-4-4.8-7-4.8c-2.8,0-5,1.4-6.7,4.3c-1.5,2.6-2.3,5.7-2.3,9.4c0,3.4,0.6,6.3,1.9,8.8c1.6,3.2,4,4.8,7,4.8
		c2.8,0,5.1-1.4,6.7-4.2c1.5-2.5,2.3-5.6,2.3-9.3C93.9,16.9,93.3,13.9,92,11.4z"/>
	<path class="st2" d="M114.7,33c-1.9,1.9-4.3,2.9-7.2,2.9c-3,0-5.4-0.9-7.2-2.8c-1.9-1.9-2.8-4.3-2.8-7.3v-0.9c0-0.1,0-0.3,0-0.4
		c0-0.2,0-0.3,0-0.5s0.1-0.4,0.1-0.7c0.1-0.3,0.1-0.7,0.3-1.1c0.1-0.6,0.3-1.1,0.5-1.6s0.5-1,0.7-1.5L106.4,6h1.9l-6.2,11.3l1.7-0.9
		l1.8-0.5l1.8-0.2c2.9,0,5.3,1,7.2,2.9c1.9,1.9,2.9,4.3,2.9,7.2C117.5,28.7,116.6,31.1,114.7,33z M113.4,19.9
		c-1.6-1.7-3.6-2.5-6-2.5c-2.3,0-4.3,0.8-5.9,2.5c-1.6,1.6-2.5,3.6-2.5,5.9c0,2.4,0.8,4.4,2.4,6c1.6,1.6,3.6,2.4,6,2.4
		s4.4-0.8,6-2.4s2.4-3.6,2.4-6C115.9,23.5,115.1,21.6,113.4,19.9z"/>
</g>
</svg>
