<?xml version="1.0" encoding="utf-8"?>
<!-- Generator: Adobe Illustrator 23.0.3, SVG Export Plug-In . SVG Version: 6.00 Build 0)  -->
<svg version="1.1" id="Livello_1" xmlns="http://www.w3.org/2000/svg" xmlns:xlink="http://www.w3.org/1999/xlink" x="0px" y="0px"
	 viewBox="0 0 326 185" style="enable-background:new 0 0 326 185;" xml:space="preserve">
<style type="text/css">
	.st0{fill:#3C3C3B;stroke:#000000;stroke-width:0.25;stroke-miterlimit:10;}
	.st1{enable-background:new    ;}
	.st2{fill:#E30613;}
</style>
<g>
	<path class="st0" d="M71.3,150.8H34.1v-37.3h37.3L71.3,150.8L71.3,150.8z M34.3,150.6h36.8v-36.8H34.3V150.6z"/>
</g>
<g>
	<path class="st0" d="M71.3,104.4H34.1V67.2h37.3L71.3,104.4L71.3,104.4z M34.3,104.2h36.8V67.4H34.3V104.2z"/>
</g>
<g>
	<path class="st0" d="M155.4,150.8h-37.3v-37.3h37.3V150.8z M118.4,150.6h36.8v-36.8h-36.8C118.4,113.8,118.4,150.6,118.4,150.6z"/>
</g>
<g>
	<path class="st0" d="M155.4,104.4h-37.3V67.2h37.3V104.4z M118.4,104.2h36.8V67.4h-36.8C118.4,67.4,118.4,104.2,118.4,104.2z"/>
</g>
<g>
	<path class="st0" d="M281.8,150.8h-37.3v-37.3h37.3V150.8z M244.8,150.6h36.8v-36.8h-36.8V150.6z"/>
</g>
<g>
	<path class="st0" d="M281.8,104.4h-37.3V67.2h37.3V104.4z M244.8,104.2h36.8V67.4h-36.8V104.2z"/>
</g>
<g>
	<path class="st0" d="M112.9,150.8H75.7v-37.3H113L112.9,150.8L112.9,150.8z M75.9,150.6h36.8v-36.8H75.9V150.6z"/>
</g>
<g>
	<path class="st0" d="M112.9,104.4H75.7V67.2H113L112.9,104.4L112.9,104.4z M75.9,104.2h36.8V67.4H75.9V104.2z"/>
</g>
<g>
	<path class="st0" d="M239.3,150.8H202v-37.3h37.3V150.8z M202.3,150.6h36.8v-36.8h-36.8V150.6z"/>
</g>
<g>
	<path class="st0" d="M239.3,104.4H202V67.2h37.3V104.4z M202.3,104.2h36.8V67.4h-36.8V104.2z"/>
</g>
<g>
	<path class="st0" d="M197,150.8h-37.3v-37.3H197V150.8z M160,150.6h36.8v-36.8H160V150.6z"/>
</g>
<g>
	<path class="st0" d="M197,104.4h-37.3V67.2H197V104.4z M160,104.2h36.8V67.4H160V104.2z"/>
</g>
<g>
	<path class="st0" d="M323.4,150.8h-37.3v-37.3h37.3V150.8z M286.4,150.6h36.8v-36.8h-36.8V150.6z"/>
</g>
<g>
	<path class="st0" d="M323.4,104.4h-37.3V67.2h37.3V104.4z M286.4,104.2h36.8V67.4h-36.8V104.2z"/>
</g>
<g class="st1">
	<path class="st2" d="M28.5,98.8h-21v3.8l-1.3-0.8v-4.2h22.2L28.5,98.8L28.5,98.8z"/>
</g>
<g class="st1">
	<path class="st2" d="M28.5,90.3h-21v3.8l-1.3-0.8V89h22.2L28.5,90.3L28.5,90.3z"/>
</g>
<g class="st1">
	<path class="st2" d="M26.4,73.2c1.6,1.5,2.3,3.4,2.3,5.7c0,3.5-1.6,5.9-4.7,7.3L23.5,85c1.2-0.6,2.1-1.3,2.7-2.1
		c0.7-1,1.1-2.3,1.1-4c0-1.9-0.7-3.5-2-4.8c-1.3-1.2-3-1.9-5-1.9c-1.9,0-3.5,0.7-4.7,2.1c-1.1,1.3-1.7,2.8-1.6,4.5v1v0.5
		c0,0.2,0,0.4,0.1,0.7c0,0.7,0.1,1.4,0.4,2.2L5.9,81v-8.5h1.3V80l5.7,1.3l-0.2-1.2L13,79c-0.1-2,0.5-3.8,1.9-5.4
		c1.4-1.7,3.3-2.5,5.7-2.5C22.9,71.1,24.9,71.8,26.4,73.2z"/>
</g>
<g class="st1">
	<path class="st2" d="M40.4,63.3v-21h-3.8l0.8-1.3h4.2v22.2L40.4,63.3L40.4,63.3z"/>
</g>
<g class="st1">
	<path class="st2" d="M48.9,63.3v-21h-3.8l0.8-1.3h4.2v22.2L48.9,63.3L48.9,63.3z"/>
</g>
<g class="st1">
	<path class="st2" d="M66,61.3c-1.5,1.6-3.4,2.3-5.7,2.3c-3.5,0-5.9-1.6-7.3-4.7l1.2-0.5c0.6,1.2,1.3,2.1,2.1,2.7
		c1,0.7,2.3,1.1,4,1.1c1.9,0,3.5-0.7,4.8-2c1.2-1.3,1.9-3,1.9-5c0-1.9-0.7-3.5-2.1-4.7c-1.3-1.1-2.8-1.7-4.5-1.6h-1h-0.5
		c-0.2,0-0.4,0-0.7,0.1c-0.7,0-1.4,0.1-2.2,0.4l2.2-8.6h8.5v1.3H59l-1.3,5.7l1.2-0.2l1.3-0.1c2-0.1,3.8,0.5,5.4,1.9
		c1.7,1.4,2.5,3.3,2.5,5.7C68.1,57.8,67.4,59.8,66,61.3z"/>
</g>
</svg>
