<?xml version="1.0" encoding="utf-8"?>
<!-- Generator: Adobe Illustrator 23.0.3, SVG Export Plug-In . SVG Version: 6.00 Build 0)  -->
<svg version="1.1" id="Livello_1" xmlns="http://www.w3.org/2000/svg" xmlns:xlink="http://www.w3.org/1999/xlink" x="0px" y="0px"
	 viewBox="0 0 326 185" style="enable-background:new 0 0 326 185;" xml:space="preserve">
<style type="text/css">
	.st0{fill:#3C3C3B;stroke:#000000;stroke-width:0.25;stroke-miterlimit:10;}
	.st1{enable-background:new    ;}
	.st2{fill:#E30613;}
</style>
<g>
	<path class="st0" d="M99.9,182.1H50.4V45.4h49.5V182.1z M50.6,181.9h49V45.6h-49V181.9z"/>
</g>
<g>
	<path class="st0" d="M207.9,182.1h-49.5V45.4h49.5V182.1z M158.6,181.9h49V45.6h-49V181.9z"/>
</g>
<g>
	<path class="st0" d="M154.1,182.1h-49.5V45.4h49.5V182.1z M104.8,181.9h49V45.6h-49V181.9z"/>
</g>
<g>
	<path class="st0" d="M262.1,182.1h-49.5V45.4h49.5V182.1z M212.8,181.9h49V45.6h-49L212.8,181.9L212.8,181.9z"/>
</g>
<g>
	<path class="st0" d="M316.3,182.1h-49.5V45.4h49.5V182.1z M267,181.9h49V45.6h-49V181.9z"/>
</g>
<g class="st1">
	<path class="st2" d="M38.8,130.1c1.5,1.6,2.2,3.5,2.2,5.9c0,2-0.6,3.7-1.7,5.1c-1.1,1.4-2.7,2.3-4.6,2.7V142
		c1.3-0.3,2.4-1.1,3.3-2.3c0.9-1.2,1.3-2.4,1.3-3.8c0-1.8-0.6-3.3-1.8-4.6c-1.3-1.3-2.8-1.9-4.5-1.9c-2.2,0-3.9,0.8-5.1,2.3
		c-0.9,1.2-1.4,2.4-1.4,3.6v1.7h-2.4v-1.7c0-1.7-0.5-3.1-1.4-4.1s-2.2-1.5-4-1.5c-1.7,0-3,0.5-4.1,1.6s-1.6,2.5-1.6,4.2
		c0,3.2,1.7,5.2,5.1,5.9v1.9c-2.1-0.2-3.7-1.1-4.9-2.5s-1.8-3.2-1.8-5.3c0-2.2,0.7-4.1,2-5.5c1.3-1.5,3.1-2.2,5.3-2.2
		c3.6,0,5.8,1.8,6.6,5.4c1.1-3.8,3.7-5.7,7.8-5.7C35.4,127.8,37.3,128.6,38.8,130.1z"/>
</g>
<g class="st1">
	<path class="st2" d="M26.3,109.9c0.3,0.2,0.7,0.6,1.3,1.1s1.3,1.1,2.2,1.9l9.4,8.3v-13.8h1.7v17.4l-16.4-14.1
		c-1.6-1.1-3.3-1.7-5-1.7s-3.1,0.7-4.3,2s-1.7,2.9-1.7,4.7c0,2.2,0.7,3.9,2.1,5.1c0.8,0.8,1.9,1.3,3.1,1.6v1.8
		c-1.4-0.2-2.8-0.9-4.2-2.1c-1.8-1.6-2.7-3.8-2.7-6.4c0-2.3,0.7-4.3,2.1-5.9s3.2-2.5,5.5-2.5C21.8,107.3,24.1,108.2,26.3,109.9z"/>
	<path class="st2" d="M36.1,85.7c3.4,1.9,5.1,4.7,5.1,8.2s-1.7,6.3-5.1,8.2c-2.8,1.6-6.1,2.4-9.9,2.4s-7.2-0.8-10-2.4
		c-3.4-1.9-5.1-4.7-5.1-8.2s1.7-6.3,5.1-8.2c2.9-1.6,6.2-2.4,10-2.4C30,83.3,33.4,84.1,36.1,85.7z M17.4,87
		c-3.1,1.6-4.7,3.9-4.7,6.9c0,2.7,1.4,4.9,4.2,6.6c2.5,1.5,5.6,2.2,9.2,2.2c3.3,0,6.2-0.6,8.7-1.9c3.1-1.6,4.7-3.9,4.7-6.9
		c0-2.8-1.4-5-4.2-6.6c-2.5-1.5-5.5-2.2-9.2-2.2C22.8,85.1,19.9,85.7,17.4,87z"/>
</g>
<g class="st1">
	<path class="st2" d="M57.5,33.5V6.3h-4.9l1.1-1.7h5.5v28.8L57.5,33.5L57.5,33.5z"/>
</g>
<g class="st1">
	<path class="st2" d="M68.5,33.5V6.3h-4.9l1.1-1.7h5.5v28.8L68.5,33.5L68.5,33.5z"/>
</g>
<g class="st1">
	<path class="st2" d="M89.6,31.7C88,33.2,86,34,83.6,34s-4.5-0.8-6.1-2.3s-2.4-3.5-2.4-5.9c0-1.8,0.5-3.3,1.4-4.6
		c0.9-1.3,2.3-2.3,4-2.9c-1.3-0.4-2.4-1.3-3.2-2.6c-0.8-1.3-1.2-2.6-1.2-4c0-2.2,0.7-4,2.1-5.3c1.4-1.4,3.1-2.1,5.3-2.1
		c2.2,0,4,0.7,5.4,2.1S91,9.6,91,11.8c0,1.5-0.4,2.9-1.2,4.1c-0.8,1.2-1.9,2-3.3,2.5c1.5,0.5,2.6,1.3,3.6,2.3c1.3,1.4,2,3.2,2,5.3
		C92,28.2,91.2,30.2,89.6,31.7z M88.3,21.1c-0.7-0.7-1.4-1.2-2.2-1.6c-0.8-0.4-1.7-0.6-2.6-0.6s-1.8,0.2-2.5,0.6
		c-0.8,0.4-1.5,0.9-2.2,1.6c-1.3,1.3-2,2.9-2,4.7s0.6,3.4,1.9,4.6c1.3,1.3,2.9,1.9,4.8,1.9c2,0,3.6-0.6,4.8-1.9c1.3-1.2,2-2.8,2-4.7
		C90.4,24,89.7,22.4,88.3,21.1z M87.7,7.4c-1.1-1.1-2.5-1.7-4.2-1.7c-1.6,0-3,0.6-4.1,1.7s-1.7,2.5-1.7,4.2c0,1.6,0.6,3,1.7,4.1
		c0.5,0.5,1.2,1,1.8,1.3s1.4,0.5,2.3,0.5s1.6-0.2,2.3-0.5c0.7-0.3,1.3-0.8,1.8-1.3c1.1-1.1,1.7-2.5,1.7-4.2
		C89.4,9.9,88.8,8.5,87.7,7.4z"/>
</g>
</svg>
