<?xml version="1.0" encoding="utf-8"?>
<!-- Generator: Adobe Illustrator 23.0.3, SVG Export Plug-In . SVG Version: 6.00 Build 0)  -->
<svg version="1.1" id="Livello_1" xmlns="http://www.w3.org/2000/svg" xmlns:xlink="http://www.w3.org/1999/xlink" x="0px" y="0px"
	 viewBox="0 0 326 185" style="enable-background:new 0 0 326 185;" xml:space="preserve">
<style type="text/css">
	.st0{fill:#3C3C3B;stroke:#000000;stroke-width:0.25;stroke-miterlimit:10;}
	.st1{enable-background:new    ;}
	.st2{fill:#E30613;}
</style>
<g>
	<path class="st0" d="M71.1,162.5h-37V58h37V162.5z M34.4,162.3h36.5V58.2H34.4V162.3z"/>
</g>
<g>
	<path class="st0" d="M154.3,162.5h-37V58h37V162.5z M117.6,162.3h36.5V58.2h-36.5C117.6,58.2,117.6,162.3,117.6,162.3z"/>
</g>
<g>
	<path class="st0" d="M279.5,162.5h-37V58h37V162.5z M242.8,162.3h36.5V58.2h-36.5L242.8,162.3L242.8,162.3z"/>
</g>
<g>
	<path class="st0" d="M112.3,162.5h-37V58h37V162.5z M75.6,162.3h36.5V58.2H75.6V162.3z"/>
</g>
<g>
	<path class="st0" d="M237.5,162.5h-37V58h37V162.5z M200.8,162.3h36.5V58.2h-36.5V162.3z"/>
</g>
<g>
	<path class="st0" d="M195.6,162.5h-37V58h37V162.5z M158.9,162.3h36.5V58.2h-36.5V162.3z"/>
</g>
<g>
	<path class="st0" d="M320.8,162.5h-37V58h37V162.5z M284.1,162.3h36.5V58.2h-36.5V162.3z"/>
</g>
<g class="st1">
	<path class="st2" d="M27.1,122.7c1.1,1.2,1.7,2.7,1.7,4.5c0,1.5-0.4,2.8-1.3,3.9c-0.8,1-2,1.7-3.5,2.1v-1.4c1-0.3,1.9-0.9,2.5-1.8
		c0.7-0.9,1-1.9,1-2.9c0-1.4-0.5-2.5-1.4-3.5c-1-1-2.1-1.4-3.5-1.4c-1.7,0-3,0.6-3.9,1.8c-0.7,0.9-1.1,1.8-1.1,2.8v1.3h-1.8v-1.3
		c0-1.3-0.4-2.3-1.1-3.1c-0.7-0.8-1.7-1.1-3.1-1.1c-1.3,0-2.3,0.4-3.1,1.2c-0.8,0.8-1.2,1.9-1.2,3.2c0,2.5,1.3,4,3.9,4.5v1.5
		c-1.6-0.2-2.9-0.8-3.8-1.9c-0.9-1.1-1.4-2.4-1.4-4c0-1.7,0.5-3.1,1.5-4.2s2.4-1.7,4.1-1.7c2.7,0,4.4,1.4,5,4.1
		c0.9-2.9,2.8-4.3,5.9-4.3C24.5,120.9,25.9,121.5,27.1,122.7z"/>
</g>
<g class="st1">
	<path class="st2" d="M17.5,107.3c0.2,0.2,0.6,0.5,1,0.8c0.4,0.4,1,0.8,1.7,1.4l7.2,6.3v-10.5h1.3v13.3l-12.5-10.8
		c-1.2-0.9-2.5-1.3-3.9-1.3c-1.3,0-2.4,0.5-3.3,1.5c-0.9,1-1.3,2.2-1.3,3.6c0,1.7,0.5,3,1.6,3.9c0.6,0.6,1.4,1,2.4,1.2v1.4
		c-1.1-0.1-2.1-0.7-3.2-1.6c-1.4-1.2-2-2.9-2-4.9c0-1.7,0.5-3.2,1.6-4.5s2.5-1.9,4.2-1.9C14,105.3,15.8,105.9,17.5,107.3z"/>
	<path class="st2" d="M25,88.8c2.6,1.5,3.9,3.6,3.9,6.3c0,2.7-1.3,4.8-3.9,6.3c-2.1,1.2-4.7,1.8-7.6,1.8s-5.5-0.6-7.6-1.8
		c-2.6-1.5-3.9-3.6-3.9-6.3c0-2.7,1.3-4.8,3.9-6.3c2.2-1.2,4.7-1.8,7.6-1.8C20.4,87,22.9,87.6,25,88.8z M10.7,89.8
		c-2.4,1.2-3.6,3-3.6,5.3c0,2.1,1.1,3.8,3.2,5c1.9,1.1,4.3,1.7,7.1,1.7c2.5,0,4.7-0.5,6.6-1.5c2.4-1.2,3.6-3,3.6-5.3
		c0-2.1-1.1-3.8-3.2-5.1c-1.9-1.1-4.2-1.7-7-1.7C14.8,88.3,12.6,88.8,10.7,89.8z"/>
</g>
<g class="st1">
	<path class="st2" d="M40.2,49.9V29.1h-3.7l0.8-1.3h4.2v22L40.2,49.9L40.2,49.9z"/>
</g>
<g class="st1">
	<path class="st2" d="M48.6,49.9V29.1h-3.7l0.8-1.3h4.2v22L48.6,49.9L48.6,49.9z"/>
</g>
<g class="st1">
	<path class="st2" d="M65.5,47.9c-1.5,1.5-3.4,2.3-5.7,2.3c-3.5,0-5.9-1.5-7.2-4.6l1.2-0.5c0.6,1.2,1.3,2.1,2.1,2.7
		c1,0.7,2.3,1.1,3.9,1.1c1.9,0,3.5-0.7,4.7-2c1.2-1.3,1.9-3,1.9-4.9s-0.7-3.5-2.1-4.6c-1.3-1.1-2.8-1.6-4.5-1.6h-1h-0.5
		c-0.2,0-0.4,0-0.7,0.1c-0.7,0-1.4,0.1-2.2,0.4l2.2-8.5h8.5v1.3h-7.5l-1.3,5.7l1.2-0.2l1.3-0.1c2-0.1,3.8,0.5,5.4,1.9
		s2.5,3.3,2.5,5.6C67.7,44.4,67,46.3,65.5,47.9z"/>
</g>
</svg>
