<?xml version="1.0" encoding="utf-8"?>
<!-- Generator: Adobe Illustrator 23.0.3, SVG Export Plug-In . SVG Version: 6.00 Build 0)  -->
<svg version="1.1" id="Livello_1" xmlns="http://www.w3.org/2000/svg" xmlns:xlink="http://www.w3.org/1999/xlink" x="0px" y="0px"
	 viewBox="0 0 326 185" style="enable-background:new 0 0 326 185;" xml:space="preserve">
<style type="text/css">
	.st0{fill:#3C3C3B;stroke:#000000;stroke-width:0.25;stroke-miterlimit:10;}
	.st1{enable-background:new    ;}
	.st2{fill:#E30613;}
</style>
<g>
	<path class="st0" d="M78.8,162.5H34.1v-48.3h44.8L78.8,162.5L78.8,162.5z M34.3,162.3h44.3v-47.8H34.3V162.3z"/>
</g>
<g>
	<path class="st0" d="M78.8,105.4H34.1V57.2h44.8L78.8,105.4L78.8,105.4z M34.3,105.2h44.3V57.4H34.3V105.2z"/>
</g>
<g>
	<path class="st0" d="M176.5,162.5h-44.8v-48.3h44.8V162.5z M132,162.3h44.3v-47.8H132V162.3z"/>
</g>
<g>
	<path class="st0" d="M176.5,105.4h-44.8V57.2h44.8V105.4z M132,105.2h44.3V57.4H132V105.2z"/>
</g>
<g>
	<path class="st0" d="M274.4,162.5h-44.8v-48.3h44.8V162.5z M229.9,162.3h44.3v-47.8h-44.3L229.9,162.3L229.9,162.3z"/>
</g>
<g>
	<path class="st0" d="M274.4,105.4h-44.8V57.2h44.8V105.4z M229.9,105.2h44.3V57.4h-44.3L229.9,105.2L229.9,105.2z"/>
</g>
<g>
	<path class="st0" d="M127.9,162.5H83.2v-48.3H128L127.9,162.5L127.9,162.5z M83.4,162.3h44.3v-47.8H83.4V162.3z"/>
</g>
<g>
	<path class="st0" d="M127.9,105.4H83.2V57.2H128L127.9,105.4L127.9,105.4z M83.4,105.2h44.3V57.4H83.4V105.2z"/>
</g>
<g>
	<path class="st0" d="M225.6,162.5h-44.8v-48.3h44.8V162.5z M181.1,162.3h44.3v-47.8h-44.3V162.3z"/>
</g>
<g>
	<path class="st0" d="M225.6,105.4h-44.8V57.2h44.8V105.4z M181.1,105.2h44.3V57.4h-44.3V105.2z"/>
</g>
<g>
	<path class="st0" d="M323.5,162.5h-44.8v-48.3h44.8V162.5z M279,162.3h44.3v-47.8H279V162.3z"/>
</g>
<g>
	<path class="st0" d="M323.5,105.4h-44.8V57.2h44.8V105.4z M279,105.2h44.3V57.4H279V105.2z"/>
</g>
<g class="st1">
	<path class="st2" d="M27.6,99.6H6.7v3.8l-1.3-0.8v-4.2h22.2V99.6z"/>
</g>
<g class="st1">
	<path class="st2" d="M23.4,82.8h4.2v1.3h-4.2v11.4L5.1,82.8h17.1v-2.6h1.2C23.4,80.2,23.4,82.8,23.4,82.8z M9.1,84.1l13.1,9.1v-9.1
		H9.1z"/>
	<path class="st2" d="M26.3,66.8c1.2,1.2,1.8,2.8,1.8,4.6c0,1.9-0.6,3.4-1.7,4.7c-1.2,1.2-2.7,1.8-4.6,1.8c-1.3,0-2.5-0.4-3.6-1.1
		c-1-0.7-1.8-1.7-2.3-3c-0.3,1-1,1.9-2,2.5s-2,0.9-3.1,0.9c-1.7,0-3-0.5-4.1-1.6s-1.6-2.4-1.6-4.1s0.5-3.1,1.6-4.1
		c1.1-1.1,2.4-1.6,4.1-1.6c1.2,0,2.2,0.3,3.2,0.9c0.9,0.6,1.6,1.5,1.9,2.6c0.4-1.1,1-2,1.8-2.7c1.1-1,2.4-1.5,4.1-1.5
		C23.6,65,25.1,65.6,26.3,66.8z M7.6,68.3c-0.9,0.9-1.3,1.9-1.3,3.2c0,1.3,0.4,2.3,1.3,3.2c0.9,0.9,1.9,1.3,3.2,1.3
		c1.2,0,2.3-0.4,3.1-1.3c0.4-0.4,0.8-0.9,1-1.4c0.3-0.5,0.4-1.1,0.4-1.8c0-0.7-0.1-1.3-0.4-1.8s-0.6-1-1-1.4C13,67.4,12,67,10.7,67
		S8.4,67.5,7.6,68.3z M18.1,67.8c-0.5,0.5-0.9,1.1-1.2,1.7c-0.3,0.6-0.5,1.3-0.5,2s0.2,1.4,0.5,2s0.7,1.2,1.2,1.7
		c1,1,2.3,1.6,3.6,1.6c1.4,0,2.6-0.5,3.6-1.5s1.5-2.2,1.5-3.7s-0.5-2.8-1.4-3.7c-1-1-2.2-1.5-3.6-1.5C20.3,66.3,19.1,66.8,18.1,67.8
		z"/>
</g>
<g class="st1">
	<path class="st2" d="M31.2,50.1V29.2h-3.8l0.8-1.3h4.2v22.2C32.4,50.1,31.2,50.1,31.2,50.1z"/>
</g>
<g class="st1">
	<path class="st2" d="M46,48.6c-1.2,1.1-2.7,1.7-4.6,1.7c-1.5,0-2.9-0.4-4-1.3c-1.1-0.9-1.8-2-2.1-3.6h1.4c0.3,1,0.9,1.9,1.8,2.6
		c0.9,0.7,1.9,1,2.9,1c1.4,0,2.5-0.5,3.5-1.4c1-1,1.5-2.1,1.5-3.5c0-1.7-0.6-3-1.8-4c-0.9-0.7-1.8-1.1-2.8-1.1h-1.3v-1.8h1.3
		c1.3,0,2.4-0.4,3.1-1.1c0.8-0.7,1.2-1.7,1.2-3.1c0-1.3-0.4-2.3-1.2-3.1c-0.8-0.8-1.9-1.2-3.2-1.2c-2.5,0-4,1.3-4.5,3.9h-1.5
		c0.2-1.6,0.8-2.9,1.9-3.8c1.1-0.9,2.4-1.4,4.1-1.4c1.7,0,3.1,0.5,4.3,1.6c1.1,1,1.7,2.4,1.7,4.1c0,2.8-1.4,4.4-4.2,5.1
		c2.9,0.9,4.4,2.9,4.4,6C47.8,46,47.2,47.5,46,48.6z"/>
</g>
<g class="st1">
	<path class="st2" d="M50.2,50.4l-1.1-0.8l13.5-20.4H49.3v-1.3H65L50.2,50.4z"/>
	<path class="st2" d="M67.2,53.3L66.8,53l2.3-5.1l1.1,0.5L67.2,53.3z"/>
	<path class="st2" d="M72.7,50.4l-1.1-0.8l13.5-20.4H71.9v-1.3h15.6L72.7,50.4z"/>
</g>
</svg>
