<?xml version="1.0" encoding="utf-8"?>
<!-- Generator: Adobe Illustrator 23.0.3, SVG Export Plug-In . SVG Version: 6.00 Build 0)  -->
<svg version="1.1" id="Livello_1" xmlns="http://www.w3.org/2000/svg" xmlns:xlink="http://www.w3.org/1999/xlink" x="0px" y="0px"
	 viewBox="0 0 326 185" style="enable-background:new 0 0 326 185;" xml:space="preserve">
<style type="text/css">
	.st0{fill:#3C3C3B;stroke:#000000;stroke-width:0.25;stroke-miterlimit:10;}
	.st1{enable-background:new    ;}
	.st2{fill:#E30613;}
</style>
<g>
	<path class="st0" d="M129.5,164.4H39.9V65.5h89.6V164.4z M40.1,164.2h89.1V65.7H40.1V164.2z"/>
</g>
<g>
	<path class="st0" d="M222.7,164.4h-89.6V65.5h89.6L222.7,164.4L222.7,164.4z M133.3,164.2h89.1V65.7h-89.1L133.3,164.2L133.3,164.2
		z"/>
</g>
<g>
	<path class="st0" d="M315.7,164.4h-89.6V65.5h89.6V164.4z M226.3,164.2h89.1V65.7h-89.1L226.3,164.2L226.3,164.2z"/>
</g>
<g class="st1">
	<path class="st2" d="M30.8,128.3c1.1,1.1,1.6,2.6,1.6,4.3c0,1.4-0.4,2.7-1.2,3.7c-0.8,1-1.9,1.7-3.4,2V137c1-0.3,1.8-0.8,2.4-1.7
		c0.6-0.8,1-1.8,1-2.7c0-1.3-0.4-2.4-1.3-3.3c-0.9-0.9-2-1.4-3.3-1.4c-1.6,0-2.8,0.6-3.7,1.7c-0.7,0.9-1,1.7-1,2.6v1.2h-1.7v-1.2
		c0-1.2-0.3-2.2-1-3c-0.7-0.7-1.6-1.1-2.9-1.1c-1.2,0-2.2,0.4-3,1.2s-1.2,1.8-1.2,3c0,2.3,1.2,3.7,3.7,4.2v1.4
		c-1.5-0.2-2.7-0.8-3.6-1.8c-0.9-1-1.3-2.3-1.3-3.8c0-1.6,0.5-2.9,1.5-4c1-1.1,2.2-1.6,3.9-1.6c2.6,0,4.2,1.3,4.8,3.9
		c0.8-2.7,2.7-4.1,5.6-4.1C28.3,126.6,29.7,127.2,30.8,128.3z"/>
</g>
<g class="st1">
	<path class="st2" d="M21.8,113.7c0.2,0.2,0.5,0.4,0.9,0.8s0.9,0.8,1.6,1.3l6.8,6v-10h1.2v12.6l-11.8-10.2c-1.2-0.8-2.4-1.2-3.7-1.2
		c-1.2,0-2.3,0.5-3.1,1.5s-1.3,2.1-1.3,3.4c0,1.6,0.5,2.8,1.5,3.7c0.6,0.5,1.4,0.9,2.2,1.1v1.3c-1-0.1-2-0.6-3-1.5
		c-1.3-1.2-1.9-2.7-1.9-4.6c0-1.7,0.5-3.1,1.5-4.3c1-1.2,2.3-1.8,4-1.8C18.5,111.8,20.1,112.5,21.8,113.7z"/>
	<path class="st2" d="M28.8,96.2c2.5,1.4,3.7,3.4,3.7,6s-1.2,4.5-3.7,5.9c-2,1.1-4.4,1.7-7.2,1.7s-5.2-0.6-7.2-1.7
		c-2.5-1.4-3.7-3.4-3.7-5.9s1.2-4.5,3.7-5.9c2.1-1.1,4.5-1.7,7.2-1.7C24.4,94.5,26.8,95.1,28.8,96.2z M15.3,97.2
		c-2.3,1.1-3.4,2.8-3.4,5c0,2,1,3.6,3,4.8c1.8,1.1,4.1,1.6,6.7,1.6c2.4,0,4.5-0.5,6.3-1.4c2.3-1.2,3.4-2.8,3.4-5c0-2-1-3.6-3-4.8
		c-1.8-1.1-4-1.6-6.7-1.6C19.2,95.8,17.1,96.2,15.3,97.2z"/>
</g>
<g class="st1">
	<path class="st2" d="M70,48.9c-0.2,0.2-0.4,0.5-0.8,0.9s-0.8,0.9-1.3,1.6l-6,6.8h10v1.2H59.2l10.2-11.8c0.8-1.2,1.2-2.4,1.2-3.7
		c0-1.2-0.5-2.3-1.5-3.1s-2.1-1.3-3.4-1.3c-1.6,0-2.8,0.5-3.7,1.5c-0.5,0.6-0.9,1.4-1.1,2.2h-1.3c0.1-1,0.6-2,1.5-3
		c1.2-1.3,2.7-1.9,4.6-1.9c1.7,0,3.1,0.5,4.3,1.5c1.2,1,1.8,2.3,1.8,4C71.9,45.6,71.2,47.3,70,48.9z"/>
	<path class="st2" d="M88.5,46.8c0,0.4-0.1,0.9-0.2,1.3c-0.1,0.4-0.2,0.8-0.4,1.1s-0.3,0.7-0.5,1.1l-5.2,9.3l-1.1-0.5l4.1-7.5
		L84,52.3l-1.3,0.3l-1.3,0.1c-2.1,0-3.8-0.7-5.1-2c-1.4-1.4-2-3.1-2-5.1c0-2.1,0.7-3.8,2-5.1c1.4-1.4,3.1-2,5.1-2
		c2.1,0,3.8,0.7,5.1,2c1.4,1.4,2,3.1,2,5.1C88.6,46,88.5,46.4,88.5,46.8z M85.7,41.3c-1.1-1.1-2.6-1.7-4.3-1.7s-3.1,0.6-4.3,1.7
		c-1.1,1.1-1.7,2.6-1.7,4.3c0,1.6,0.6,3,1.7,4.2s2.6,1.8,4.3,1.8c1.7,0,3.1-0.6,4.3-1.7c1.1-1.1,1.7-2.6,1.7-4.3
		C87.4,43.8,86.8,42.4,85.7,41.3z"/>
	<path class="st2" d="M103.4,56c-1.4,2.5-3.4,3.7-6,3.7s-4.5-1.2-5.9-3.7c-1.1-2-1.7-4.4-1.7-7.2s0.6-5.2,1.7-7.2
		c1.4-2.5,3.4-3.7,5.9-3.7s4.5,1.2,5.9,3.7c1.1,2.1,1.7,4.5,1.7,7.2C105.1,51.6,104.5,54,103.4,56z M102.5,42.4
		c-1.1-2.3-2.8-3.4-5-3.4c-2,0-3.6,1-4.8,3c-1.1,1.8-1.6,4.1-1.6,6.7c0,2.4,0.5,4.5,1.4,6.3c1.2,2.3,2.8,3.4,5,3.4c2,0,3.6-1,4.8-3
		c1.1-1.8,1.6-4,1.6-6.7C103.8,46.3,103.4,44.2,102.5,42.4z"/>
</g>
</svg>
