<?xml version="1.0" encoding="utf-8"?>
<!-- Generator: Adobe Illustrator 23.0.3, SVG Export Plug-In . SVG Version: 6.00 Build 0)  -->
<svg version="1.1" id="Livello_1" xmlns="http://www.w3.org/2000/svg" xmlns:xlink="http://www.w3.org/1999/xlink" x="0px" y="0px"
	 viewBox="0 0 326 185" style="enable-background:new 0 0 326 185;" xml:space="preserve">
<style type="text/css">
	.st0{fill:#3C3C3B;stroke:#000000;stroke-width:0.25;stroke-miterlimit:10;}
	.st1{enable-background:new    ;}
	.st2{fill:#E30613;}
</style>
<g>
	<path class="st0" d="M75.4,114.8H45.9V85.3h29.5V114.8z M46.1,114.6h29V85.5h-29V114.6z"/>
</g>
<g>
	<path class="st0" d="M75.4,155.2H45.9v-29.5h29.5V155.2z M46.1,155h29v-29h-29V155z"/>
</g>
<g>
	<path class="st0" d="M215.9,114.8h-29.5V85.3h29.5V114.8z M186.6,114.6h29V85.5h-29V114.6z"/>
</g>
<g>
	<path class="st0" d="M215.9,155.2h-29.5v-29.5h29.5V155.2z M186.6,155h29v-29h-29V155z"/>
</g>
<g>
	<path class="st0" d="M145.7,114.8h-29.6V85.3h29.6V114.8z M116.4,114.6h29.1V85.5h-29.1V114.6z"/>
</g>
<g>
	<path class="st0" d="M145.7,155.2h-29.6v-29.5h29.6V155.2z M116.4,155h29.1v-29h-29.1V155z"/>
</g>
<g>
	<path class="st0" d="M286.2,114.8h-29.5V85.3h29.5V114.8z M256.9,114.6h29V85.5h-29V114.6z"/>
</g>
<g>
	<path class="st0" d="M286.2,155.2h-29.5v-29.5h29.5V155.2z M256.9,155h29v-29h-29V155z"/>
</g>
<g>
	<path class="st0" d="M110.5,114.8H81V85.3h29.5V114.8z M81.2,114.6h29V85.5h-29V114.6z"/>
</g>
<g>
	<path class="st0" d="M110.5,155.2H81v-29.5h29.5V155.2z M81.2,155h29v-29h-29V155z"/>
</g>
<g>
	<path class="st0" d="M251,114.8h-29.6V85.3H251V114.8z M221.7,114.6h29.1V85.5h-29.1V114.6z"/>
</g>
<g>
	<path class="st0" d="M251,155.2h-29.6v-29.5H251V155.2z M221.7,155h29.1v-29h-29.1V155z"/>
</g>
<g>
	<path class="st0" d="M180.9,114.8h-29.5V85.3h29.5V114.8z M151.6,114.6h29V85.5h-29V114.6z"/>
</g>
<g>
	<path class="st0" d="M180.9,155.2h-29.5v-29.5h29.5V155.2z M151.6,155h29v-29h-29V155z"/>
</g>
<g>
	<path class="st0" d="M321.3,114.8h-29.5V85.3h29.5V114.8z M292,114.6h29V85.5h-29V114.6z"/>
</g>
<g>
	<path class="st0" d="M321.3,155.2h-29.5v-29.5h29.5V155.2z M292,155h29v-29h-29V155z"/>
</g>
<g class="st1">
	<path class="st2" d="M36.2,105.2c2,2,3,4.5,3,7.5c0,3.1-1,5.6-2.9,7.6c-2,1.9-4.5,2.9-7.6,2.9h-0.9c-0.1,0-0.3,0-0.4,0
		c-0.2,0-0.3,0-0.5,0s-0.4-0.1-0.7-0.1c-0.3-0.1-0.7-0.2-1.2-0.3c-0.6-0.1-1.2-0.3-1.7-0.6c-0.5-0.2-1-0.5-1.5-0.7L8,113.8v-2
		l11.8,6.5l-0.9-1.8l-0.5-1.8l-0.2-1.9c0-3,1-5.5,3-7.5s4.5-3,7.5-3C31.7,102.2,34.2,103.2,36.2,105.2z M22.5,106.5
		c-1.7,1.7-2.6,3.8-2.6,6.2c0,2.4,0.9,4.5,2.6,6.2s3.8,2.6,6.2,2.6c2.5,0,4.6-0.8,6.3-2.5s2.5-3.8,2.5-6.3s-0.8-4.6-2.5-6.3
		c-1.7-1.7-3.8-2.5-6.3-2.5C26.3,104,24.3,104.8,22.5,106.5z"/>
	<path class="st2" d="M36.6,83.1c1.6,1.7,2.4,3.8,2.4,6.4s-0.8,4.7-2.4,6.4c-1.6,1.7-3.7,2.5-6.3,2.5c-1.9,0-3.5-0.5-4.9-1.5
		s-2.4-2.4-3.1-4.2c-0.4,1.4-1.3,2.6-2.7,3.4c-1.3,0.8-2.8,1.2-4.3,1.2c-2.3,0-4.2-0.7-5.6-2.2c-1.5-1.5-2.2-3.3-2.2-5.6
		c0-2.3,0.7-4.2,2.2-5.7s3.3-2.2,5.7-2.2c1.6,0,3,0.4,4.4,1.3c1.3,0.8,2.2,2,2.6,3.5c0.6-1.5,1.4-2.8,2.4-3.8
		c1.5-1.4,3.3-2.1,5.6-2.1C32.9,80.6,35,81.4,36.6,83.1z M10.9,85.1c-1.2,1.2-1.8,2.6-1.8,4.4c0,1.7,0.6,3.2,1.8,4.4
		c1.2,1.2,2.6,1.8,4.4,1.8c1.7,0,3.1-0.6,4.3-1.8c0.6-0.6,1-1.2,1.4-1.9c0.4-0.7,0.6-1.5,0.6-2.4s-0.2-1.7-0.5-2.5
		c-0.3-0.7-0.8-1.4-1.4-1.9c-1.2-1.2-2.6-1.8-4.4-1.8C13.5,83.4,12.1,83.9,10.9,85.1z M25.4,84.4c-0.7,0.7-1.3,1.5-1.7,2.3
		c-0.4,0.8-0.6,1.8-0.6,2.8s0.2,1.9,0.6,2.7c0.4,0.8,1,1.6,1.6,2.3c1.4,1.4,3.1,2.1,5,2.1c1.9,0,3.6-0.7,4.9-2
		c1.4-1.4,2.1-3.1,2.1-5.1c0-2.1-0.7-3.8-2-5.1c-1.3-1.4-3-2.1-5-2.1C28.4,82.3,26.8,83,25.4,84.4z"/>
</g>
<g class="st1">
	<path class="st2" d="M57.7,66.3c-2,2-4.5,3-7.5,3c-3.1,0-5.6-1-7.6-2.9c-1.9-2-2.9-4.5-2.9-7.6v-0.9c0-0.1,0-0.3,0-0.4
		c0-0.2,0-0.3,0-0.5s0.1-0.4,0.1-0.7c0.1-0.3,0.2-0.7,0.3-1.2c0.1-0.6,0.3-1.2,0.6-1.7c0.2-0.5,0.5-1,0.7-1.5L49,38.2h2L44.5,50
		l1.8-0.9l1.8-0.5l1.9-0.2c3,0,5.5,1,7.5,3s3,4.5,3,7.5C60.7,61.8,59.7,64.3,57.7,66.3z M56.4,52.6c-1.7-1.7-3.8-2.6-6.2-2.6
		s-4.5,0.9-6.2,2.6c-1.7,1.7-2.6,3.8-2.6,6.2c0,2.5,0.8,4.6,2.5,6.3c1.7,1.7,3.8,2.5,6.3,2.5s4.6-0.8,6.3-2.5
		c1.7-1.7,2.5-3.8,2.5-6.3C59,56.5,58.1,54.4,56.4,52.6z"/>
	<path class="st2" d="M79.9,66.7c-1.7,1.6-3.8,2.4-6.4,2.4s-4.7-0.8-6.4-2.4c-1.7-1.6-2.5-3.7-2.5-6.3c0-1.9,0.5-3.5,1.5-4.9
		s2.4-2.4,4.2-3.1c-1.4-0.4-2.6-1.3-3.4-2.7c-0.8-1.3-1.2-2.8-1.2-4.3c0-2.3,0.7-4.2,2.2-5.6c1.5-1.5,3.3-2.2,5.6-2.2
		c2.3,0,4.2,0.7,5.7,2.2s2.2,3.3,2.2,5.7c0,1.6-0.4,3-1.3,4.4c-0.8,1.3-2,2.2-3.5,2.6c1.5,0.6,2.8,1.4,3.8,2.4
		c1.4,1.5,2.1,3.3,2.1,5.6C82.3,63,81.5,65.1,79.9,66.7z M78.5,55.5c-0.7-0.7-1.5-1.3-2.3-1.7s-1.8-0.6-2.8-0.6s-1.9,0.2-2.7,0.6
		c-0.8,0.4-1.6,1-2.3,1.6c-1.4,1.4-2.1,3.1-2.1,5s0.7,3.6,2,4.9c1.4,1.4,3.1,2.1,5.1,2.1c2.1,0,3.8-0.7,5.1-2c1.4-1.3,2.1-3,2.1-5
		C80.6,58.5,79.9,56.9,78.5,55.5z M77.8,41c-1.2-1.2-2.6-1.8-4.4-1.8c-1.7,0-3.2,0.6-4.4,1.8c-1.2,1.2-1.8,2.6-1.8,4.4
		c0,1.7,0.6,3.1,1.8,4.3c0.6,0.6,1.2,1,1.9,1.4c0.7,0.4,1.5,0.6,2.4,0.6s1.7-0.2,2.5-0.5c0.7-0.3,1.4-0.8,1.9-1.4
		c1.2-1.2,1.8-2.6,1.8-4.4C79.6,43.7,79,42.2,77.8,41z"/>
</g>
</svg>
