<?xml version="1.0" encoding="utf-8"?>
<!-- Generator: Adobe Illustrator 23.0.3, SVG Export Plug-In . SVG Version: 6.00 Build 0)  -->
<svg version="1.1" id="Livello_1" xmlns="http://www.w3.org/2000/svg" xmlns:xlink="http://www.w3.org/1999/xlink" x="0px" y="0px"
	 viewBox="0 0 326 185" style="enable-background:new 0 0 326 185;" xml:space="preserve">
<style type="text/css">
	.st0{fill:#3C3C3B;stroke:#000000;stroke-width:0.25;stroke-miterlimit:10;}
	.st1{enable-background:new    ;}
	.st2{fill:#E30613;}
</style>
<g>
	<path class="st0" d="M107.7,160.5H39.4V57.8h68.4v102.7H107.7z M39.6,160.3h67.9V58H39.6V160.3z"/>
</g>
<g>
	<path class="st0" d="M250.4,160.5h-68.3V57.8h68.3V160.5z M182.3,160.3h67.8V58h-67.8V160.3z"/>
</g>
<g>
	<path class="st0" d="M179.1,160.5h-68.4V57.8h68.4V160.5z M111,160.3h67.9V58H111V160.3z"/>
</g>
<g>
	<path class="st0" d="M321.8,160.5h-68.4V57.8h68.4V160.5z M253.7,160.3h67.9V58h-67.9L253.7,160.3L253.7,160.3z"/>
</g>
<g class="st1">
	<path class="st2" d="M29.5,122.9c1.1,1.2,1.7,2.7,1.7,4.5c0,1.5-0.4,2.8-1.2,3.8c-0.8,1-2,1.7-3.5,2.1V132c1-0.3,1.8-0.8,2.5-1.7
		s1-1.8,1-2.8c0-1.3-0.5-2.5-1.4-3.4c-1-0.9-2.1-1.4-3.4-1.4c-1.6,0-2.9,0.6-3.8,1.8c-0.7,0.9-1.1,1.8-1.1,2.7v1.3h-1.8V127
		c0-1.3-0.4-2.3-1.1-3.1c-0.7-0.7-1.7-1.1-3-1.1s-2.3,0.4-3.1,1.2c-0.8,0.8-1.2,1.8-1.2,3.1c0,2.4,1.3,3.9,3.8,4.4v1.4
		c-1.6-0.2-2.8-0.8-3.7-1.8s-1.4-2.4-1.4-4c0-1.7,0.5-3,1.5-4.2c1-1.1,2.3-1.7,4-1.7c2.7,0,4.3,1.4,4.9,4.1c0.8-2.8,2.8-4.2,5.8-4.2
		C27,121.2,28.5,121.8,29.5,122.9z"/>
</g>
<g class="st1">
	<path class="st2" d="M20.2,107.8c0.2,0.2,0.6,0.5,1,0.8c0.4,0.4,1,0.8,1.6,1.4l7,6.2v-10.4H31V119l-12.3-10.6
		c-1.2-0.8-2.5-1.3-3.8-1.3s-2.4,0.5-3.2,1.5c-0.9,1-1.3,2.2-1.3,3.5c0,1.6,0.5,2.9,1.6,3.8c0.6,0.6,1.4,1,2.3,1.2v1.4
		c-1.1-0.1-2.1-0.7-3.1-1.6c-1.3-1.2-2-2.8-2-4.8c0-1.7,0.5-3.2,1.6-4.4c1.1-1.2,2.4-1.8,4.2-1.8C16.8,105.9,18.5,106.5,20.2,107.8z
		"/>
	<path class="st2" d="M27.5,89.7c2.5,1.5,3.8,3.5,3.8,6.2c0,2.6-1.3,4.7-3.8,6.2c-2.1,1.2-4.6,1.8-7.5,1.8s-5.4-0.6-7.5-1.8
		c-2.6-1.5-3.8-3.5-3.8-6.2c0-2.6,1.3-4.7,3.8-6.2c2.1-1.2,4.6-1.8,7.5-1.8C23,87.9,25.5,88.5,27.5,89.7z M13.5,90.6
		c-2.3,1.2-3.5,2.9-3.5,5.2c0,2,1.1,3.7,3.2,4.9c1.9,1.1,4.2,1.7,6.9,1.7c2.5,0,4.7-0.5,6.5-1.4c2.3-1.2,3.5-2.9,3.5-5.2
		c0-2.1-1-3.7-3.1-5c-1.8-1.1-4.1-1.7-6.9-1.7C17.5,89.2,15.3,89.7,13.5,90.6z"/>
</g>
<g class="st1">
	<path class="st2" d="M65.4,40.5c-0.2,0.2-0.5,0.6-0.8,1s-0.8,1-1.4,1.6l-6.2,7h10.4v1.2H54.3L64.9,39c0.8-1.2,1.3-2.5,1.3-3.8
		s-0.5-2.4-1.5-3.2c-1-0.9-2.2-1.3-3.5-1.3c-1.6,0-2.9,0.5-3.8,1.6c-0.6,0.6-1,1.4-1.2,2.3h-1.4c0.1-1.1,0.7-2.1,1.6-3.1
		c1.2-1.3,2.8-2,4.8-2c1.7,0,3.2,0.5,4.4,1.6c1.2,1.1,1.8,2.4,1.8,4.2S66.7,38.8,65.4,40.5z"/>
</g>
<g class="st1">
	<path class="st2" d="M72.2,51.4V31h-3.7l0.8-1.2h4.1v21.6H72.2z"/>
</g>
<g class="st1">
	<path class="st2" d="M88.5,47.3v4.1h-1.3v-4.1H76.1l12.4-17.8V46H91v1.2L88.5,47.3L88.5,47.3z M87.2,33.3L78.3,46h8.9
		C87.2,46,87.2,33.3,87.2,33.3z"/>
</g>
</svg>
