<?xml version="1.0" encoding="utf-8"?>
<!-- Generator: Adobe Illustrator 23.0.3, SVG Export Plug-In . SVG Version: 6.00 Build 0)  -->
<svg version="1.1" id="Livello_1" xmlns="http://www.w3.org/2000/svg" xmlns:xlink="http://www.w3.org/1999/xlink" x="0px" y="0px"
	 viewBox="0 0 326 185" style="enable-background:new 0 0 326 185;" xml:space="preserve">
<style type="text/css">
	.st0{fill:#3C3C3B;stroke:#000000;stroke-width:0.25;stroke-miterlimit:10;}
	.st1{enable-background:new    ;}
	.st2{fill:#E30613;}
</style>
<g>
	<path class="st0" d="M127.8,163H33.6v-48.3h94.3L127.8,163L127.8,163z M33.8,162.8h93.8V115H33.8V162.8z"/>
</g>
<g>
	<path class="st0" d="M127.8,107.2H33.6V59h94.3L127.8,107.2L127.8,107.2z M33.8,107h93.8V59.2H33.8V107z"/>
</g>
<g>
	<path class="st0" d="M225.8,163h-94.3v-48.3h94.3V163z M131.8,162.8h93.8V115h-93.8V162.8z"/>
</g>
<g>
	<path class="st0" d="M225.8,107.2h-94.3V59h94.3V107.2z M131.8,107h93.8V59.2h-93.8V107z"/>
</g>
<g>
	<path class="st0" d="M323.6,163h-94.3v-48.3h94.3V163z M229.6,162.8h93.8V115h-93.8L229.6,162.8L229.6,162.8z"/>
</g>
<g>
	<path class="st0" d="M323.6,107.2h-94.3V59h94.3V107.2z M229.6,107h93.8V59.2h-93.8L229.6,107L229.6,107z"/>
</g>
<g class="st1">
	<path class="st2" d="M25.6,100.8H4.9v3.7l-1.3-0.8v-4.1h21.9v1.2H25.6z"/>
</g>
<g class="st1">
	<path class="st2" d="M23.6,83.9c1.5,1.5,2.3,3.3,2.3,5.7c0,3.5-1.5,5.9-4.6,7.2l-0.5-1.2c1.2-0.6,2.1-1.3,2.7-2.1
		c0.7-1,1.1-2.3,1.1-3.9c0-1.9-0.7-3.5-2-4.7s-2.9-1.8-4.9-1.8c-1.9,0-3.4,0.7-4.6,2.1c-1.1,1.3-1.6,2.8-1.6,4.5v1V91
		c0,0.2,0,0.4,0.1,0.7c0,0.7,0.1,1.4,0.4,2.2l-8.5-2.2v-8.4h1.3v7.4l5.7,1.3l-0.2-1.2l-0.1-1.3c-0.1-2,0.5-3.7,1.8-5.3
		c1.4-1.6,3.3-2.5,5.6-2.5C20.1,81.8,22,82.5,23.6,83.9z"/>
	<path class="st2" d="M22,66c2.6,1.5,3.9,3.6,3.9,6.3c0,2.7-1.3,4.8-3.9,6.2c-2.1,1.2-4.6,1.8-7.6,1.8c-2.9,0-5.5-0.6-7.6-1.8
		c-2.6-1.5-3.9-3.6-3.9-6.2c0-2.7,1.3-4.8,3.9-6.2c2.2-1.2,4.7-1.8,7.6-1.8C17.3,64.2,19.9,64.8,22,66z M7.7,66.9
		c-2.4,1.2-3.6,3-3.6,5.3c0,2.1,1.1,3.7,3.2,5c1.9,1.1,4.3,1.7,7,1.7c2.5,0,4.7-0.5,6.6-1.4c2.4-1.2,3.6-3,3.6-5.3
		c0-2.1-1.1-3.8-3.2-5c-1.9-1.1-4.2-1.7-7-1.7C11.8,65.5,9.6,66,7.7,66.9z"/>
</g>
<g class="st1">
	<path class="st2" d="M65.2,38.2c-0.2,0.2-0.5,0.6-0.8,1c-0.4,0.4-0.8,1-1.4,1.6L56.7,48h10.5v1.3H53.9l10.8-12.4
		c0.9-1.2,1.3-2.5,1.3-3.8s-0.5-2.4-1.5-3.3s-2.2-1.3-3.6-1.3c-1.7,0-3,0.5-3.9,1.6c-0.6,0.6-1,1.4-1.2,2.4h-1.4
		c0.1-1.1,0.7-2.1,1.6-3.2c1.2-1.4,2.9-2,4.9-2c1.7,0,3.2,0.5,4.5,1.6c1.2,1.1,1.9,2.5,1.9,4.2C67.2,34.7,66.6,36.5,65.2,38.2z"/>
	<path class="st2" d="M84.7,36.1c-0.1,0.5-0.1,0.9-0.3,1.4c-0.1,0.4-0.2,0.8-0.4,1.2c-0.2,0.4-0.3,0.8-0.5,1.1L78,49.6L76.9,49
		l4.4-7.9L80,41.8l-1.3,0.4l-1.4,0.1c-2.2,0-4-0.7-5.4-2.1c-1.4-1.4-2.2-3.2-2.2-5.4s0.7-4,2.2-5.4c1.4-1.4,3.2-2.2,5.4-2.2
		c2.2,0,4,0.7,5.4,2.2c1.4,1.4,2.2,3.2,2.2,5.4C84.8,35.1,84.8,35.6,84.7,36.1z M81.8,30.2c-1.2-1.2-2.7-1.8-4.5-1.8
		S74,29,72.8,30.2c-1.2,1.2-1.8,2.7-1.8,4.5c0,1.7,0.6,3.2,1.8,4.5c1.2,1.2,2.7,1.8,4.5,1.8s3.3-0.6,4.5-1.8s1.8-2.7,1.8-4.5
		C83.6,32.9,83,31.4,81.8,30.2z"/>
	<path class="st2" d="M100.4,45.7c-1.5,2.6-3.6,3.9-6.3,3.9c-2.7,0-4.8-1.3-6.2-3.9c-1.2-2.1-1.8-4.6-1.8-7.6c0-2.9,0.6-5.5,1.8-7.6
		c1.5-2.6,3.6-3.9,6.2-3.9c2.7,0,4.8,1.3,6.2,3.9c1.2,2.2,1.8,4.7,1.8,7.6C102.2,41,101.6,43.6,100.4,45.7z M99.4,31.4
		c-1.2-2.4-3-3.6-5.3-3.6c-2.1,0-3.7,1.1-5,3.2c-1.1,1.9-1.7,4.3-1.7,7c0,2.5,0.5,4.7,1.4,6.6c1.2,2.4,3,3.6,5.3,3.6
		c2.1,0,3.8-1.1,5-3.2c1.1-1.9,1.7-4.2,1.7-7C100.9,35.5,100.4,33.3,99.4,31.4z"/>
</g>
</svg>
