<?xml version="1.0" encoding="utf-8"?>
<!-- Generator: Adobe Illustrator 23.0.3, SVG Export Plug-In . SVG Version: 6.00 Build 0)  -->
<svg version="1.1" id="Livello_1" xmlns="http://www.w3.org/2000/svg" xmlns:xlink="http://www.w3.org/1999/xlink" x="0px" y="0px"
	 viewBox="0 0 326 185" style="enable-background:new 0 0 326 185;" xml:space="preserve">
<style type="text/css">
	.st0{fill:#3C3C3B;stroke:#000000;stroke-width:0.25;stroke-miterlimit:10;}
	.st1{enable-background:new    ;}
	.st2{fill:#E30613;}
</style>
<g>
	<path class="st0" d="M89.9,164.2H34.2V57.1H90L89.9,164.2L89.9,164.2z M34.4,164h55.3V57.3H34.4V164z"/>
</g>
<g>
	<path class="st0" d="M207.1,164.2h-55.8V57.1h55.8V164.2z M151.6,164h55.3V57.3h-55.3V164z"/>
</g>
<g>
	<path class="st0" d="M148.2,164.2H92.5V57.1h55.8v107.1H148.2z M92.7,164H148V57.3H92.7V164z"/>
</g>
<g>
	<path class="st0" d="M266.3,164.2h-55.8V57.1h55.8V164.2z M210.8,164h55.3V57.3h-55.3V164z"/>
</g>
<g>
	<path class="st0" d="M324.8,164.2H269V57.1h55.8V164.2z M269.3,164h55.3V57.3h-55.3V164z"/>
</g>
<g class="st1">
	<path class="st2" d="M27.6,123.4c1.2,1.2,1.7,2.8,1.7,4.6c0,1.6-0.4,2.9-1.3,4s-2.1,1.8-3.6,2.2v-1.4c1-0.3,1.9-0.9,2.6-1.8
		c0.7-0.9,1-1.9,1-3c0-1.4-0.5-2.6-1.4-3.6c-1-1-2.2-1.5-3.5-1.5c-1.7,0-3,0.6-4,1.8c-0.7,0.9-1.1,1.9-1.1,2.8v1.3h-1.9v-1.3
		c0-1.3-0.4-2.4-1.1-3.2c-0.7-0.8-1.8-1.2-3.1-1.2s-2.4,0.4-3.2,1.3c-0.8,0.8-1.3,1.9-1.3,3.3c0,2.5,1.3,4.1,4,4.6v1.5
		c-1.6-0.2-2.9-0.8-3.9-1.9c-0.9-1.1-1.4-2.5-1.4-4.1c0-1.7,0.5-3.2,1.6-4.3c1-1.2,2.4-1.7,4.2-1.7c2.8,0,4.5,1.4,5.2,4.2
		c0.9-3,2.9-4.4,6.1-4.4C24.9,121.6,26.4,122.2,27.6,123.4z"/>
</g>
<g class="st1">
	<path class="st2" d="M17.8,107.6c0.2,0.2,0.6,0.5,1,0.9c0.5,0.4,1,0.9,1.7,1.5l7.3,6.5v-10.8h1.3v13.7l-12.8-11.1
		c-1.3-0.9-2.6-1.3-4-1.3c-1.3,0-2.5,0.5-3.4,1.6s-1.4,2.3-1.4,3.7c0,1.7,0.5,3,1.6,4c0.7,0.6,1.5,1,2.4,1.2v1.4
		c-1.1-0.1-2.2-0.7-3.3-1.6c-1.4-1.3-2.1-2.9-2.1-5c0-1.8,0.6-3.3,1.7-4.6c1.1-1.3,2.5-1.9,4.3-1.9C14.2,105.6,16,106.3,17.8,107.6z
		"/>
	<path class="st2" d="M25.5,88.7c2.7,1.5,4,3.7,4,6.5s-1.3,4.9-4,6.4c-2.2,1.2-4.8,1.9-7.8,1.9s-5.6-0.6-7.8-1.9
		c-2.7-1.5-4-3.7-4-6.4c0-2.8,1.3-4.9,4-6.4c2.2-1.2,4.8-1.9,7.8-1.9C20.7,86.8,23.3,87.4,25.5,88.7z M10.8,89.7
		c-2.4,1.2-3.7,3.1-3.7,5.4c0,2.1,1.1,3.8,3.3,5.2c2,1.2,4.4,1.7,7.2,1.7c2.6,0,4.9-0.5,6.8-1.5c2.4-1.3,3.7-3.1,3.7-5.4
		c0-2.2-1.1-3.9-3.3-5.2c-1.9-1.2-4.3-1.7-7.2-1.7C15,88.2,12.8,88.7,10.8,89.7z"/>
</g>
<g class="st1">
	<path class="st2" d="M42.8,48.8V27.5H39l0.9-1.3h4.3v22.6C44.2,48.8,42.8,48.8,42.8,48.8z"/>
</g>
<g class="st1">
	<path class="st2" d="M61.1,47.1c-1.5,1.5-3.3,2.2-5.6,2.2s-4.2-0.7-5.6-2.1c-1.4-1.5-2.1-3.4-2.1-5.6v-0.7c0-0.1,0-0.2,0-0.3
		s0-0.3,0-0.4c0-0.1,0.1-0.3,0.1-0.5s0.1-0.5,0.2-0.9c0.1-0.4,0.2-0.9,0.4-1.2c0.2-0.4,0.3-0.8,0.5-1.1l5.7-10.1h1.5L51.4,35
		l1.3-0.7l1.4-0.4l1.4-0.1c2.2,0,4.1,0.7,5.5,2.2c1.5,1.5,2.2,3.3,2.2,5.5C63.3,43.8,62.6,45.6,61.1,47.1z M60.2,37
		c-1.3-1.3-2.8-1.9-4.6-1.9S52.3,35.7,51,37c-1.3,1.3-1.9,2.8-1.9,4.6c0,1.9,0.6,3.4,1.8,4.6c1.2,1.2,2.8,1.9,4.6,1.9
		c1.9,0,3.4-0.6,4.6-1.9c1.2-1.2,1.9-2.8,1.9-4.6C62.1,39.8,61.4,38.3,60.2,37z"/>
	<path class="st2" d="M77.5,47.4c-1.2,1.2-2.8,1.8-4.7,1.8c-1.9,0-3.5-0.6-4.7-1.8s-1.9-2.8-1.9-4.6c0-1.4,0.4-2.6,1.1-3.6
		s1.8-1.8,3.1-2.3c-1.1-0.3-1.9-1-2.5-2s-0.9-2-0.9-3.2c0-1.7,0.5-3.1,1.6-4.2s2.5-1.6,4.2-1.6s3.1,0.5,4.2,1.6s1.6,2.5,1.6,4.2
		c0,1.2-0.3,2.3-0.9,3.2s-1.5,1.6-2.6,2c1.1,0.4,2.1,1,2.8,1.8c1,1.1,1.5,2.5,1.5,4.1C79.3,44.7,78.7,46.2,77.5,47.4z M76.5,39.1
		c-0.5-0.5-1.1-0.9-1.7-1.2s-1.3-0.5-2-0.5s-1.4,0.2-2,0.5s-1.2,0.7-1.7,1.2c-1.1,1.1-1.6,2.3-1.6,3.7s0.5,2.6,1.5,3.6
		s2.3,1.5,3.8,1.5s2.8-0.5,3.8-1.5s1.5-2.2,1.5-3.7C78.1,41.3,77.6,40.1,76.5,39.1z M76,28.4c-0.9-0.9-2-1.3-3.3-1.3
		s-2.4,0.4-3.2,1.3s-1.3,2-1.3,3.3c0,1.3,0.4,2.3,1.3,3.2c0.4,0.4,0.9,0.8,1.4,1c0.5,0.3,1.1,0.4,1.8,0.4c0.7,0,1.3-0.1,1.8-0.4
		c0.5-0.3,1-0.6,1.4-1c0.9-0.9,1.3-1.9,1.3-3.3C77.3,30.3,76.9,29.3,76,28.4z"/>
</g>
</svg>
