<?xml version="1.0" encoding="utf-8"?>
<!-- Generator: Adobe Illustrator 23.0.3, SVG Export Plug-In . SVG Version: 6.00 Build 0)  -->
<svg version="1.1" id="Livello_1" xmlns="http://www.w3.org/2000/svg" xmlns:xlink="http://www.w3.org/1999/xlink" x="0px" y="0px"
	 viewBox="0 0 326 185" style="enable-background:new 0 0 326 185;" xml:space="preserve">
<style type="text/css">
	.st0{fill:#3C3C3B;stroke:#000000;stroke-width:0.25;stroke-miterlimit:10;}
	.st1{enable-background:new    ;}
	.st2{fill:#E30613;}
</style>
<g>
	<path class="st0" d="M89.4,162.2H34.7v-48.8h54.8L89.4,162.2L89.4,162.2z M34.9,162h54.3v-48.3H34.9V162z"/>
</g>
<g>
	<path class="st0" d="M89.4,105.9H34.7V57.2h54.8L89.4,105.9L89.4,105.9z M34.9,105.7h54.3V57.4H34.9V105.7z"/>
</g>
<g>
	<path class="st0" d="M204.5,162.2h-54.8v-48.8h54.8V162.2z M150,162h54.3v-48.3H150V162z"/>
</g>
<g>
	<path class="st0" d="M204.5,105.9h-54.8V57.2h54.8V105.9z M150,105.7h54.3V57.4H150V105.7z"/>
</g>
<g>
	<path class="st0" d="M146.7,162.2H92v-48.8h54.8v48.8H146.7z M92.2,162h54.3v-48.3H92.2V162z"/>
</g>
<g>
	<path class="st0" d="M146.7,105.9H92V57.2h54.8v48.7H146.7z M92.2,105.7h54.3V57.4H92.2V105.7z"/>
</g>
<g>
	<path class="st0" d="M262.7,162.2H208v-48.8h54.8L262.7,162.2L262.7,162.2z M208.2,162h54.3v-48.3h-54.3V162z"/>
</g>
<g>
	<path class="st0" d="M262.7,105.9H208V57.2h54.8L262.7,105.9L262.7,105.9z M208.2,105.7h54.3V57.4h-54.3V105.7z"/>
</g>
<g>
	<path class="st0" d="M320.3,162.2h-54.8v-48.8h54.8V162.2z M265.8,162h54.3v-48.3h-54.3V162z"/>
</g>
<g>
	<path class="st0" d="M320.3,105.9h-54.8V57.2h54.8V105.9z M265.8,105.7h54.3V57.4h-54.3V105.7z"/>
</g>
<g class="st1">
	<path class="st2" d="M29.2,99.5H8.3v3.8L7,102.4v-4.2h22.2V99.5z"/>
</g>
<g class="st1">
	<path class="st2" d="M27.2,82.5c1.6,1.5,2.3,3.4,2.3,5.7c0,3.5-1.6,5.9-4.7,7.2l-0.5-1.2c1.2-0.6,2.1-1.3,2.7-2.1
		c0.7-1,1.1-2.3,1.1-3.9c0-1.9-0.7-3.5-2-4.8c-1.3-1.2-3-1.9-4.9-1.9s-3.5,0.7-4.7,2.1c-1.1,1.3-1.6,2.8-1.6,4.5v1v0.5
		c0,0.2,0,0.4,0.1,0.7c0,0.7,0.1,1.4,0.4,2.2L7,90.4v-8.5h1.3v7.5l5.7,1.3l-0.2-1.2l-0.1-1.3c-0.1-2,0.5-3.8,1.9-5.4
		c1.4-1.7,3.3-2.5,5.7-2.5S25.7,81,27.2,82.5z"/>
	<path class="st2" d="M25.6,64.3c2.6,1.5,3.9,3.6,3.9,6.3c0,2.7-1.3,4.8-3.9,6.3c-2.2,1.2-4.7,1.8-7.6,1.8c-3,0-5.5-0.6-7.7-1.8
		c-2.6-1.5-3.9-3.6-3.9-6.3c0-2.7,1.3-4.8,3.9-6.3c2.2-1.2,4.8-1.8,7.7-1.8C20.9,62.5,23.5,63.1,25.6,64.3z M11.2,65.3
		c-2.4,1.2-3.6,3-3.6,5.3c0,2.1,1.1,3.8,3.2,5.1c1.9,1.1,4.3,1.7,7.1,1.7c2.5,0,4.8-0.5,6.7-1.5c2.4-1.2,3.6-3,3.6-5.3
		c0-2.1-1.1-3.8-3.2-5.1c-1.9-1.1-4.2-1.7-7.1-1.7C15.4,63.8,13.1,64.3,11.2,65.3z"/>
</g>
<g class="st1">
	<path class="st2" d="M47.7,50.3V29.4h-3.8l0.8-1.3H49v22.2C49,50.3,47.7,50.3,47.7,50.3z"/>
</g>
<g class="st1">
	<path class="st2" d="M65.7,48.6c-1.5,1.5-3.3,2.2-5.5,2.2c-2.3,0-4.1-0.7-5.5-2.1c-1.4-1.4-2.1-3.3-2.1-5.5v-0.7c0-0.1,0-0.2,0-0.3
		s0-0.2,0-0.4c0-0.1,0.1-0.3,0.1-0.5s0.1-0.5,0.2-0.9c0.1-0.4,0.2-0.8,0.4-1.2s0.3-0.8,0.5-1.1l5.6-10h1.5l-4.7,8.6l1.3-0.7l1.3-0.4
		l1.4-0.1c2.2,0,4,0.7,5.4,2.2c1.5,1.5,2.2,3.3,2.2,5.4C67.9,45.3,67.2,47.2,65.7,48.6z M64.8,38.7c-1.2-1.3-2.8-1.9-4.5-1.9
		c-1.8,0-3.3,0.6-4.5,1.9c-1.2,1.2-1.9,2.7-1.9,4.5s0.6,3.4,1.8,4.6c1.2,1.2,2.7,1.8,4.6,1.8c1.8,0,3.3-0.6,4.6-1.8
		c1.2-1.2,1.8-2.7,1.8-4.6C66.6,41.5,66,40,64.8,38.7z"/>
	<path class="st2" d="M81.8,48.9c-1.2,1.2-2.8,1.8-4.6,1.8c-1.9,0-3.4-0.6-4.7-1.7c-1.2-1.2-1.8-2.7-1.8-4.6c0-1.3,0.4-2.5,1.1-3.6
		c0.7-1,1.7-1.8,3-2.3c-1-0.3-1.9-1-2.5-2s-0.9-2-0.9-3.1c0-1.7,0.5-3,1.6-4.1s2.4-1.6,4.1-1.6s3.1,0.5,4.1,1.6
		c1.1,1.1,1.6,2.4,1.6,4.1c0,1.2-0.3,2.2-0.9,3.2c-0.6,0.9-1.4,1.6-2.5,1.9c1.1,0.4,2,1,2.7,1.8c1,1.1,1.5,2.4,1.5,4.1
		C83.6,46.2,83,47.7,81.8,48.9z M80.8,40.8c-0.5-0.5-1.1-0.9-1.7-1.2s-1.3-0.5-2-0.5s-1.4,0.2-2,0.5s-1.2,0.7-1.7,1.2
		c-1,1-1.6,2.2-1.6,3.6c0,1.4,0.5,2.6,1.5,3.6s2.2,1.5,3.7,1.5s2.8-0.5,3.7-1.4c1-1,1.5-2.2,1.5-3.6C82.4,43,81.9,41.8,80.8,40.8z
		 M80.3,30.2c-0.8-0.8-1.9-1.3-3.2-1.3c-1.3,0-2.3,0.4-3.2,1.3s-1.3,1.9-1.3,3.2c0,1.2,0.4,2.3,1.3,3.1c0.4,0.4,0.9,0.8,1.4,1
		c0.5,0.3,1.1,0.4,1.8,0.4c0.7,0,1.3-0.1,1.8-0.4c0.5-0.2,1-0.6,1.4-1c0.8-0.8,1.3-1.9,1.3-3.2S81.2,31.1,80.3,30.2z"/>
</g>
</svg>
