<?xml version="1.0" encoding="utf-8"?>
<!-- Generator: Adobe Illustrator 23.0.3, SVG Export Plug-In . SVG Version: 6.00 Build 0)  -->
<svg version="1.1" xmlns="http://www.w3.org/2000/svg" xmlns:xlink="http://www.w3.org/1999/xlink" x="0px" y="0px"
	 viewBox="0 0 304 200" style="enable-background:new 0 0 304 200;" xml:space="preserve">
<style type="text/css">
	.st0{display:none;}
	.st1{display:inline;}
	.st2{fill:#D90F15;}
	.st3{fill:#3C3C3B;}
	.st4{fill:#FFFFFF;}
</style>
<g id="SITO">
</g>
<g id="LOGHI">
	<g class="st0">
		<g class="st1">
			<path class="st2" d="M20.7,97.3c21.9-0.6,43.8-1.1,65.7-1.6l65.7-1.2c11-0.2,21.9-0.5,32.9-0.8c11-0.3,21.9-0.3,32.9,0l16.4,0.5
				c5.5,0.2,11,0.4,16.4,0.7c11,0.6,21.9,1.3,32.9,2.4v0.8c-11,1.1-21.9,1.9-32.9,2.4c-5.5,0.3-11,0.5-16.4,0.7l-16.4,0.5
				c-11,0.2-21.9,0.2-32.9,0c-11-0.3-21.9-0.5-32.9-0.8l-65.7-1.2c-21.9-0.5-43.8-1-65.7-1.6V97.3z"/>
		</g>
		<g class="st1">
			<path class="st3" d="M20.4,109.5l11-0.4l11-0.4l0.5,0l0.2,0.5l10.8,20.8l10.7,20.9c3.6,7,7.1,13.9,10.6,20.9
				c3.5,7,7.1,13.9,10.5,21l-2.4-1.5c11.5-0.1,23.1-0.3,34.6-0.3l34.6-0.1l34.6,0.1c11.5,0,23.1,0.2,34.6,0.3l-2.4,1.5
				c3.3-7,6.7-14,10.1-21c3.4-7,6.7-14,10.2-20.9l10.3-20.9l10.4-20.8l0.2-0.5l0.5,0l11,0.4l11,0.4l-11,0.4l-11,0.4l0.7-0.5
				l-9.2,21.4l-9.4,21.3c-3.1,7.1-6.3,14.2-9.5,21.2c-3.2,7.1-6.3,14.2-9.6,21.2l-0.7,1.5l-1.7,0c-11.5,0.1-23.1,0.3-34.6,0.3
				l-34.6,0.1l-34.6-0.1c-11.5,0-23.1-0.2-34.6-0.3l-1.7,0l-0.7-1.5c-3.4-7.1-6.7-14.1-10-21.2c-3.3-7.1-6.7-14.1-9.9-21.2
				l-9.8-21.3l-9.7-21.4l0.7,0.4l-11-0.4L20.4,109.5z"/>
		</g>
		<g class="st1">
			<path class="st2" d="M61.2,57.9h-3.8V28H46.6v-3.5H72V28L61.2,28V57.9z"/>
			<path class="st2" d="M97.9,25.2c2.9,1.2,4.4,3.7,5,8c0.1,1.5,0.2,2.3,0.2,6.5c0,7.8-0.1,9-0.6,11.5c-0.6,3-2.1,4.9-4.5,5.9
				c-2.1,0.9-3.8,1.1-8.7,1.1c-5.9,0-7.5-0.2-9.6-1.1c-2.4-1.1-3.8-2.9-4.5-5.9c-0.6-2.6-0.6-3.7-0.6-11.5c0-7,0.3-8.9,1.7-11.5
				c1.1-2,3-3.3,5.9-3.9c1.2-0.2,3.8-0.3,6.7-0.3C94,24.1,96,24.4,97.9,25.2z M80.1,29c-1,1.1-1.4,2.6-1.6,5.5c0,0.7,0,0.7,0,6.7
				c0,6.9,0,6.9,0.3,8.8c0.4,2.3,1.3,3.7,2.8,4.3c1.4,0.5,2.8,0.7,7.2,0.7c6.1,0,7.8-0.3,8.9-1.6c1-1.1,1.4-2.6,1.6-5.5
				c0-0.7,0-0.7,0-6.8c0-6.9,0-6.9-0.3-8.8c-0.4-2.3-1.3-3.7-2.8-4.3c-1.4-0.5-2.8-0.7-7.2-0.7C82.9,27.4,81.3,27.7,80.1,29z"/>
			<path class="st2" d="M108.4,24.5h14c4.3,0,5.5,0.2,7,0.8c2.8,1.2,4.1,4.2,4.1,9.5c0,5-1.3,7.8-4.1,9.2c-1.6,0.8-1.8,0.8-7.6,0.9
				h-9.7v13.1h-3.8V24.5z M121.1,41.6c7.4,0,8.6-0.9,8.6-6.6c0-4.4-0.5-6-2-6.7c-1-0.5-1.4-0.5-5.4-0.6h-10.1v13.8H121.1z"/>
			<path class="st2" d="M169.9,33.5c0-2.5-0.1-3.4-0.7-4.3c-0.9-1.5-2.5-1.9-7-1.9c-5.2,0-7,0.3-8,1.5c-0.8,0.9-1.2,2.3-1.2,4.4
				c0,3,0.7,4.5,2.4,5.2c1.1,0.4,1.4,0.5,6.9,0.7c6.2,0.3,8,0.6,9.5,1.8c1.8,1.4,2.4,3.4,2.4,7.4c0,4.6-0.8,7-2.8,8.3
				c-1.9,1.2-4.3,1.5-11.1,1.5c-4.7,0-6.2-0.3-8.2-1.3c-1.3-0.8-2.4-2.4-2.7-4.1c-0.3-1.5-0.4-2.4-0.5-5.3h3.8
				c0,3.6,0.1,4.3,0.8,5.5c0.9,1.7,2,2,8,2c8.1,0,8.9-0.7,8.9-6.9c0-2.8-0.6-4.1-2.1-4.7c-0.9-0.4-0.9-0.4-7.1-0.8
				c-6.2-0.3-6.7-0.4-8.3-1.2c-2.7-1.3-3.8-3.6-3.8-7.8c0-3.9,0.8-6.3,2.5-7.5c1.9-1.5,4.3-2,10-2c6.3,0,8.9,0.6,10.4,2.8
				c1,1.4,1.4,3.1,1.4,6.1v0.5H169.9z"/>
			<path class="st2" d="M182.9,39h16.9v3.2h-16.9v12.4h17.7v3.3h-21.4V24.5h21.4v3.3h-17.7V39z"/>
			<path class="st2" d="M210.4,50.8l-2.5,7.1h-4L216,24.5h5.3l12.5,33.4h-4l-2.6-7.1H210.4z M218.7,27.5l-7.3,20.3h14.7L218.7,27.5z
				"/>
			<path class="st2" d="M240.9,54.4h17.2v3.5h-20.9V24.5h3.8V54.4z"/>
		</g>
		<g class="st1">
			<g>
				<path class="st3" d="M86.6,125.3v6.9c2.4-2.5,4.8-4.9,7.2-7.3c5.8-5.7,11.5-11.4,17.3-17.1h-8.1
					C97.6,113.7,92.1,119.5,86.6,125.3z"/>
			</g>
			<g>
				<path class="st3" d="M95.2,126.3c-2.8,3-5.7,5.9-8.6,8.8v7c5.6-5.8,11.1-11.6,16.8-17.2c5.7-5.7,11.5-11.4,17.3-17.1h-8.1
					C106.9,114,101,120.2,95.2,126.3z"/>
			</g>
			<g>
				<path class="st3" d="M86.7,122.5c4.9-4.9,9.8-9.8,14.8-14.6C93.7,108.4,87.4,114.6,86.7,122.5z"/>
			</g>
			<g>
				<path class="st3" d="M104.8,126.3c-6,6.2-12.1,12.4-18.2,18.5v7.4c8.8-9.1,17.4-18.3,26.4-27.2c5.8-5.7,11.5-11.4,17.3-17.1
					h-8.1C116.5,114,110.6,120.2,104.8,126.3z"/>
			</g>
			<g>
				<path class="st3" d="M134.4,152.2c8.8-9.1,17.5-18.3,26.4-27.3c5.8-5.7,11.5-11.4,17.3-17.1h-8.1c-5.8,6.2-11.6,12.3-17.4,18.5
					c-8.8,9.1-17.8,18-26.7,27l-26.8,27l-3.3,3.3c2,0.9,4.2,1.5,6.6,1.5h0.4l5.2-5.5L134.4,152.2z"/>
			</g>
			<g>
				<path class="st3" d="M124.8,152.2c8.8-9.1,17.5-18.3,26.4-27.3c5.7-5.7,11.5-11.4,17.3-17.1h-8.1c-5.8,6.2-11.6,12.3-17.4,18.5
					c-8.8,9.1-17.8,18-26.7,27l-25.9,26.1c1.3,1.5,2.8,2.8,4.6,3.7l3.4-3.6L124.8,152.2z"/>
			</g>
			<g>
				<path class="st3" d="M114.4,126.3c-8.8,9.1-17.8,18-26.7,27l-1,1v7.7l9.5-9.9c8.8-9.1,17.5-18.3,26.4-27.3
					c5.8-5.7,11.5-11.4,17.3-17.1h-8.1C126,114,120.2,120.2,114.4,126.3z"/>
			</g>
			<g>
				<path class="st3" d="M214.7,178.3c1.9-2.7,3-5.9,3-9.4v-1.8l-13.1,13.2l-4.7,4.8h2c3.6,0,6.8-1.2,9.5-3.2l2.1-2.2L214.7,178.3z"
					/>
			</g>
			<g>
				<path class="st3" d="M106.8,153.3l-19.6,19.7c0.5,2,1.5,3.9,2.7,5.5l25.4-26.4c8.8-9.1,17.5-18.3,26.4-27.3
					c5.8-5.7,11.5-11.4,17.3-17.1H151c-5.8,6.2-11.6,12.3-17.4,18.5C124.7,135.5,115.7,144.4,106.8,153.3z"/>
			</g>
			<g>
				<path class="st3" d="M123.9,126.3c-8.8,9.1-17.8,18-26.7,27L86.6,164v4.8c0,1,0.1,2,0.3,2.9l18.8-19.5
					c8.8-9.1,17.5-18.3,26.4-27.3c5.7-5.7,11.5-11.4,17.3-17.1h-8.1C135.6,114,129.8,120.2,123.9,126.3z"/>
			</g>
			<g>
				<path class="st3" d="M165.5,179.6l26.4-27.4c8.6-8.9,17.1-17.9,25.8-26.6v-1.5c0-1.7-0.3-3.3-0.7-4.9c-2.3,2.4-4.5,4.8-6.8,7.2
					c-8.8,9.1-17.8,18-26.7,27l-26.8,27l-4.7,4.8h8.4L165.5,179.6z"/>
			</g>
			<g>
				<path class="st3" d="M184.7,179.6l26.4-27.4c2.2-2.3,4.4-4.6,6.6-6.9v-7.1c-5,5.1-10.1,10.1-15.1,15.1l-26.8,27l-4.7,4.8h8.4
					L184.7,179.6z"/>
			</g>
			<g>
				<path class="st3" d="M175.1,179.6l26.4-27.4c5.4-5.6,10.8-11.3,16.2-16.9v-6.9c-8.1,8.4-16.4,16.6-24.7,24.9l-26.8,27l-4.7,4.8
					h8.4L175.1,179.6z"/>
			</g>
			<g>
				<path class="st3" d="M117.6,179.6l26.4-27.4c8.8-9.1,17.5-18.3,26.4-27.3c5.8-5.7,11.5-11.4,17.3-17.1h-8.1
					c-5.8,6.2-11.6,12.3-17.4,18.5c-8.8,9.1-17.8,18-26.7,27l-26.8,27l-4.7,4.8h8.4L117.6,179.6z"/>
			</g>
			<g>
				<polygon class="st3" points="203.8,179.6 217.7,165.2 217.7,157.4 195,180.3 190.2,185.1 198.6,185.1 				"/>
			</g>
			<g>
				<path class="st3" d="M194.3,179.6l23.4-24.3v-7.5c-1.8,1.8-3.7,3.7-5.5,5.5l-26.8,27l-4.7,4.8h8.4L194.3,179.6z"/>
			</g>
			<g>
				<path class="st3" d="M136.8,179.6l26.4-27.4c8.8-9.1,17.5-18.3,26.4-27.3c5.5-5.5,11.1-11,16.6-16.4c-1.4-0.4-2.9-0.7-4.4-0.7
					h-3c-5.8,6.2-11.6,12.3-17.4,18.5c-8.8,9.1-17.8,18-26.7,27l-26.8,27l-4.7,4.8h8.4L136.8,179.6z"/>
			</g>
			<g>
				<path class="st3" d="M127.2,179.6l26.4-27.4c8.8-9.1,17.5-18.3,26.4-27.3c5.8-5.7,11.5-11.4,17.3-17.1h-8.1
					c-5.8,6.2-11.6,12.3-17.4,18.5c-8.8,9.1-17.8,18-26.7,27l-26.8,27l-4.7,4.8h8.4L127.2,179.6z"/>
			</g>
			<g>
				<path class="st3" d="M156,179.6l26.4-27.4c8.8-9.1,17.5-18.3,26.4-27.3c2.5-2.5,5-5,7.5-7.5c-0.7-1.7-1.8-3.2-3-4.5
					c-4.2,4.5-8.5,9-12.7,13.4c-8.8,9.1-17.8,18-26.7,27l-26.8,27l-4.7,4.8h8.4L156,179.6z"/>
			</g>
			<g>
				<path class="st3" d="M146.4,179.6l26.4-27.4c8.8-9.1,17.5-18.3,26.4-27.3c4.4-4.3,8.7-8.7,13.1-13c-1.4-1.3-3.1-2.3-4.9-3
					c-5.4,5.8-10.9,11.6-16.5,17.4c-8.8,9.1-17.8,18-26.7,27l-26.8,27l-4.7,4.8h8.4L146.4,179.6z"/>
			</g>
		</g>
	</g>
	<g class="st0">
		<g class="st1">
			<path class="st3" d="M20.7,109.5l11-0.4l11-0.4l0.5,0l0.2,0.5l10.8,20.8l10.7,20.9c3.6,7,7.1,13.9,10.6,20.9
				c3.5,7,7.1,13.9,10.5,21l-2.4-1.5c11.5-0.1,23.1-0.3,34.6-0.3l34.6-0.1l34.6,0.1c11.5,0,23.1,0.2,34.6,0.3l-2.4,1.5
				c3.3-7,6.7-14,10.1-21c3.4-7,6.7-14,10.2-20.9l10.3-20.9l10.4-20.8l0.2-0.5l0.5,0l11,0.4l11,0.4l-11,0.4l-11,0.4l0.7-0.5
				l-9.2,21.4l-9.4,21.3c-3.1,7.1-6.3,14.2-9.5,21.2c-3.2,7.1-6.3,14.2-9.6,21.2l-0.7,1.5l-1.7,0c-11.5,0.1-23.1,0.3-34.6,0.3
				l-34.6,0.1l-34.6-0.1c-11.5,0-23.1-0.2-34.6-0.3l-1.7,0l-0.7-1.5c-3.4-7.1-6.7-14.1-10-21.2c-3.3-7.1-6.7-14.1-9.9-21.2
				l-9.8-21.3l-9.7-21.4l0.7,0.4l-11-0.4L20.7,109.5z"/>
		</g>
		<g class="st1">
			<g>
				<path class="st3" d="M86.5,138.1v5.5c2.4-1.9,4.8-3.8,7.2-5.7c5.8-4.5,11.5-9,17.3-13.4h-8.1C97.5,129,92,133.6,86.5,138.1z"/>
			</g>
			<g>
				<path class="st3" d="M95.1,138.9c-2.8,2.3-5.7,4.6-8.6,6.9v5.5c5.6-4.5,11.1-9.1,16.8-13.5c5.7-4.5,11.5-9,17.3-13.4h-8.1
					C106.7,129.3,100.9,134.1,95.1,138.9z"/>
			</g>
			<g>
				<path class="st3" d="M86.5,135.9c4.9-3.8,9.8-7.7,14.8-11.5C93.6,124.8,87.3,129.7,86.5,135.9z"/>
			</g>
			<g>
				<path class="st3" d="M104.6,138.9c-6,4.9-12.1,9.7-18.2,14.5v5.8c8.8-7.2,17.4-14.4,26.4-21.4c5.8-4.5,11.5-9,17.3-13.4h-8.1
					C116.3,129.3,110.5,134.1,104.6,138.9z"/>
			</g>
			<g>
				<path class="st3" d="M134.3,159.3c8.8-7.2,17.5-14.4,26.4-21.5c5.8-4.5,11.5-9,17.3-13.4H170c-5.8,4.9-11.6,9.7-17.4,14.5
					c-8.8,7.2-17.8,14.2-26.7,21.2L99,181.3l-3.3,2.6c2,0.7,4.2,1.2,6.6,1.2h0.4l5.2-4.3L134.3,159.3z"/>
			</g>
			<g>
				<path class="st3" d="M124.7,159.3c8.8-7.2,17.5-14.4,26.4-21.5c5.7-4.5,11.5-9,17.3-13.4h-8.1c-5.8,4.9-11.6,9.7-17.4,14.5
					c-8.8,7.2-17.8,14.2-26.7,21.2l-25.9,20.5c1.3,1.2,2.8,2.2,4.6,2.9l3.4-2.8L124.7,159.3z"/>
			</g>
			<g>
				<path class="st3" d="M114.2,138.9c-8.8,7.2-17.8,14.2-26.7,21.2l-1,0.8v6l9.5-7.8c8.8-7.2,17.5-14.4,26.4-21.5
					c5.7-4.5,11.5-9,17.3-13.4h-8.1C125.9,129.3,120,134.1,114.2,138.9z"/>
			</g>
			<g>
				<path class="st3" d="M214.6,179.7c1.9-2.1,3-4.6,3-7.4v-1.4l-13.1,10.4l-4.7,3.7h2c3.6,0,6.8-1,9.5-2.5l2.1-1.7L214.6,179.7z"/>
			</g>
			<g>
				<path class="st3" d="M106.7,160.1L87,175.7c0.5,1.6,1.5,3.1,2.7,4.3l25.4-20.7c8.8-7.2,17.5-14.4,26.4-21.5
					c5.8-4.5,11.5-9,17.3-13.4h-8.1c-5.8,4.9-11.6,9.7-17.4,14.5C124.6,146.1,115.6,153.1,106.7,160.1z"/>
			</g>
			<g>
				<path class="st3" d="M123.8,138.9c-8.8,7.2-17.8,14.2-26.7,21.2l-10.6,8.4v3.8c0,0.8,0.1,1.5,0.3,2.3l18.8-15.3
					c8.8-7.2,17.5-14.4,26.4-21.5c5.7-4.5,11.5-9,17.3-13.4h-8.1C135.5,129.3,129.6,134.1,123.8,138.9z"/>
			</g>
			<g>
				<path class="st3" d="M165.4,180.8l26.4-21.5c8.6-7,17.1-14.1,25.8-20.9v-1.2c0-1.3-0.3-2.6-0.7-3.8c-2.3,1.9-4.5,3.7-6.8,5.6
					c-8.8,7.2-17.8,14.2-26.7,21.2l-26.8,21.2l-4.7,3.7h8.4L165.4,180.8z"/>
			</g>
			<g>
				<path class="st3" d="M184.5,180.8l26.4-21.5c2.2-1.8,4.4-3.6,6.6-5.4v-5.6c-5,4-10.1,7.9-15.1,11.9l-26.8,21.2l-4.7,3.7h8.4
					L184.5,180.8z"/>
			</g>
			<g>
				<path class="st3" d="M175,180.8l26.4-21.5c5.4-4.4,10.8-8.8,16.2-13.2v-5.4c-8.1,6.6-16.4,13.1-24.7,19.6l-26.8,21.2l-4.7,3.7
					h8.4L175,180.8z"/>
			</g>
			<g>
				<path class="st3" d="M117.5,180.8l26.4-21.5c8.8-7.2,17.5-14.4,26.4-21.5c5.8-4.5,11.5-9,17.3-13.4h-8.1
					c-5.8,4.9-11.6,9.7-17.4,14.5c-8.8,7.2-17.8,14.2-26.7,21.2l-26.8,21.2l-4.7,3.7h8.4L117.5,180.8z"/>
			</g>
			<g>
				<polygon class="st3" points="203.7,180.8 217.5,169.5 217.5,163.4 194.8,181.3 190.1,185.1 198.5,185.1 				"/>
			</g>
			<g>
				<path class="st3" d="M194.1,180.8l23.4-19.1v-5.9c-1.8,1.4-3.7,2.9-5.5,4.3l-26.8,21.2l-4.7,3.7h8.4L194.1,180.8z"/>
			</g>
			<g>
				<path class="st3" d="M136.6,180.8l26.4-21.5c8.8-7.2,17.5-14.4,26.4-21.5c5.5-4.3,11.1-8.6,16.6-12.9c-1.4-0.3-2.9-0.5-4.4-0.5
					h-3c-5.8,4.9-11.6,9.7-17.4,14.5c-8.8,7.2-17.8,14.2-26.7,21.2l-26.8,21.2l-4.7,3.7h8.4L136.6,180.8z"/>
			</g>
			<g>
				<path class="st3" d="M127.1,180.8l26.4-21.5c8.8-7.2,17.5-14.4,26.4-21.5c5.8-4.5,11.5-9,17.3-13.4h-8.1
					c-5.8,4.9-11.6,9.7-17.4,14.5c-8.8,7.2-17.8,14.2-26.7,21.2l-26.8,21.2l-4.7,3.7h8.4L127.1,180.8z"/>
			</g>
			<g>
				<path class="st3" d="M155.8,180.8l26.4-21.5c8.8-7.2,17.5-14.4,26.4-21.5c2.5-2,5-3.9,7.5-5.9c-0.7-1.3-1.8-2.5-3-3.6
					c-4.2,3.5-8.5,7-12.7,10.6c-8.8,7.2-17.8,14.2-26.7,21.2l-26.8,21.2l-4.7,3.7h8.4L155.8,180.8z"/>
			</g>
			<g>
				<path class="st3" d="M146.2,180.8l26.4-21.5c8.8-7.2,17.5-14.4,26.4-21.5c4.4-3.4,8.7-6.8,13.1-10.2c-1.4-1-3.1-1.8-4.9-2.4
					c-5.4,4.6-10.9,9.1-16.5,13.7c-8.8,7.2-17.8,14.2-26.7,21.2l-26.8,21.2l-4.7,3.7h8.4L146.2,180.8z"/>
			</g>
		</g>
		<g class="st1">
			<path class="st2" d="M121.7,17.2c0-2.1-0.1-2.9-0.6-3.7c-0.8-1.2-2.1-1.6-5.9-1.6c-4.5,0-5.9,0.3-6.8,1.3c-0.7,0.8-1,2-1,3.8
				c0,2.6,0.6,3.9,2.1,4.4c0.9,0.3,1.2,0.4,5.9,0.6c5.3,0.3,6.8,0.6,8.1,1.6c1.5,1.2,2.1,2.9,2.1,6.3c0,3.9-0.7,5.9-2.4,7.1
				c-1.6,1-3.6,1.3-9.5,1.3c-4,0-5.3-0.2-7-1.2c-1.1-0.6-2-2-2.3-3.5c-0.3-1.2-0.3-2.1-0.4-4.5h3.2c0,3.1,0.1,3.6,0.6,4.7
				c0.8,1.5,1.7,1.7,6.8,1.7c6.9,0,7.6-0.6,7.6-5.9c0-2.4-0.5-3.5-1.8-4c-0.8-0.3-0.8-0.3-6-0.6c-5.3-0.3-5.7-0.3-7.1-1
				c-2.3-1.2-3.3-3.1-3.3-6.7c0-3.3,0.7-5.3,2.1-6.5c1.6-1.3,3.7-1.7,8.6-1.7c5.4,0,7.6,0.6,8.9,2.4c0.9,1.2,1.2,2.7,1.2,5.2v0.5
				H121.7z"/>
			<path class="st2" d="M132.8,21.9h2.8l11.7-12.5h4.2l-13.1,13.9L153.1,38h-4.4l-13.1-13.2h-2.8V38h-3.2V9.4h3.2V21.9z"/>
			<path class="st2" d="M159.3,38h-3.2V9.4h3.2V38z"/>
			<path class="st2" d="M189,38h-5.3l-12-19.4l-1.9-3.2l-1-1.6l-0.9-1.6h-0.1l0,1.1v1.1v2.1V38h-3.2V9.4h5.3l10.4,17l2.7,4.5
				l1.4,2.2l1.3,2.2h0.1l0-1.1v-1.1v-2.1V9.4h3.2V38z"/>
			<path class="st2" d="M35.9,74h-3.2V48.4h-9.3v-3h21.7v3l-9.2,0V74z"/>
			<path class="st2" d="M51.8,57.9h14.5v2.7H51.8v10.6h15.1V74H48.6V45.4h18.3v2.8H51.8V57.9z"/>
			<path class="st2" d="M93.2,64.4c0,5.1-0.2,6.1-1.4,7.6c-1.2,1.5-3.1,2.1-6.8,2.2c-1.1,0-2.8,0-4.3,0c-4,0-5.6-0.3-7.4-1.5
				c-1.3-0.9-2.4-2.8-2.7-4.8c-0.3-1.7-0.5-5.2-0.5-8.2c0-6.2,0-6.9,0.3-8.5c0.5-2.9,2.7-5.1,5.8-5.7c1.6-0.3,3.5-0.4,7.3-0.4
				c3.6,0,4.9,0.2,6.4,1c1.5,0.8,2.5,2.5,2.7,4.5c0.1,0.9,0.1,1.5,0.2,3.5h-3.2c0-3-0.2-3.9-0.7-4.8c-0.7-1.2-2-1.5-5.5-1.5
				c-4,0-6.5,0.2-7.6,0.6c-1.8,0.8-2.4,2.4-2.4,6.8c0,16.1,0,16.2,7.9,16.2c7.7,0,8.6-0.6,8.6-5.4v-1.6H93.2z"/>
			<path class="st2" d="M120.3,74h-3.2V60.7h-16.7V74h-3.2V45.4h3.2V58h16.7V45.4h3.2V74z"/>
			<path class="st2" d="M150,74h-5.3l-12-19.4l-1.9-3.2l-1-1.6l-0.9-1.6h-0.1l0,1.1v1.1v2.1V74h-3.2V45.4h5.3l10.4,17l2.7,4.5
				l1.4,2.2l1.3,2.2h0.1l0-1.1v-1.1v-2.1V45.4h3.2V74z"/>
			<path class="st2" d="M174.6,46.1c2.4,1,3.7,3.1,4.2,6.8c0.1,1.3,0.2,2,0.2,5.6c0,6.7,0,7.7-0.5,9.8c-0.5,2.5-1.8,4.2-3.8,5
				c-1.8,0.8-3.3,0.9-7.4,0.9c-5,0-6.4-0.2-8.2-0.9c-2.1-0.9-3.3-2.5-3.8-5c-0.5-2.2-0.5-3.2-0.5-9.8c0-5.9,0.3-7.6,1.4-9.8
				c0.9-1.7,2.6-2.8,5-3.3c1-0.2,3.3-0.3,5.7-0.3C171.2,45.1,172.9,45.3,174.6,46.1z M159.3,49.3c-0.9,1-1.2,2.3-1.4,4.7
				c0,0.6,0,0.6,0,5.7c0,5.9,0,5.9,0.3,7.5c0.3,2,1.1,3.2,2.4,3.7c1.2,0.5,2.4,0.6,6.2,0.6c5.2,0,6.6-0.3,7.6-1.4
				c0.9-1,1.2-2.3,1.4-4.7c0-0.6,0-0.6,0-5.8c0-5.9,0-5.9-0.3-7.5c-0.3-2-1.1-3.2-2.4-3.7c-1.2-0.5-2.4-0.6-6.2-0.6
				C161.7,47.9,160.3,48.2,159.3,49.3z"/>
			<path class="st2" d="M186.9,71h14.7v3h-17.9V45.4h3.2V71z"/>
			<path class="st2" d="M223.7,46.1c2.4,1,3.7,3.1,4.2,6.8c0.1,1.3,0.2,2,0.2,5.6c0,6.7,0,7.7-0.5,9.8c-0.5,2.5-1.8,4.2-3.8,5
				c-1.8,0.8-3.3,0.9-7.4,0.9c-5,0-6.4-0.2-8.2-0.9c-2.1-0.9-3.3-2.5-3.8-5c-0.5-2.2-0.5-3.2-0.5-9.8c0-5.9,0.3-7.6,1.4-9.8
				c0.9-1.7,2.6-2.8,5-3.3c1-0.2,3.3-0.3,5.7-0.3C220.4,45.1,222.1,45.3,223.7,46.1z M208.5,49.3c-0.9,1-1.2,2.3-1.4,4.7
				c0,0.6,0,0.6,0,5.7c0,5.9,0,5.9,0.3,7.5c0.3,2,1.1,3.2,2.4,3.7c1.2,0.5,2.4,0.6,6.2,0.6c5.2,0,6.6-0.3,7.6-1.4
				c0.9-1,1.2-2.3,1.4-4.7c0-0.6,0-0.6,0-5.8c0-5.9,0-5.9-0.3-7.5c-0.3-2-1.1-3.2-2.4-3.7c-1.2-0.5-2.4-0.6-6.2-0.6
				C210.9,47.9,209.5,48.2,208.5,49.3z"/>
			<path class="st2" d="M255.6,59.8c0.1,1.2,0.1,1.3,0.1,3.1c0,5.2-0.2,6.7-1.1,8.2c-0.7,1.3-1.8,2.1-3.5,2.7
				c-1.2,0.3-3.5,0.5-7.1,0.5c-5.6,0-7.6-0.4-9.6-2.1c-1.3-1.1-2.2-3.3-2.4-5.7c0-1.3,0-1.5-0.1-7.1v-1.2c0-5.1,0.3-7.3,1.4-9.4
				c0.9-1.8,2.6-2.9,5-3.3c0.9-0.2,2.8-0.3,5.4-0.3c6.4,0,7.5,0.2,9.5,1.4c1.1,0.7,1.9,2,2.1,3.5c0.1,1,0.2,1.6,0.2,3.7h-3.2
				c0-5.5-0.5-5.8-9.1-5.8c-4.9,0-6.5,0.5-7.3,2.3c-0.6,1.4-0.8,3.3-0.8,9.1c0,7.4,0.1,8.6,0.8,10c0.9,1.8,2.7,2.3,8.6,2.3
				c7.3,0,7.9-0.6,7.9-7.3c0-0.3,0-0.9,0-1.7h-9.1v-2.8H255.6z"/>
			<path class="st2" d="M270.8,62V74h-3.2V62l-10.5-16.6h3.7l6.1,9.6c0.9,1.4,1.4,2.2,1.5,2.4c0.3,0.4,0.6,0.9,0.8,1.3h0.1
				c0.3-0.6,0.8-1.4,1.1-1.8l1.2-1.9l6.1-9.6h3.8L270.8,62z"/>
		</g>
		<g class="st1">
			<path class="st2" d="M21.7,99l25.6-0.3c0.2,0,0.6,0,1,0.1c0.3,0.1,0.7,0.3,0.9,0.6c0.1,0.1,0.2,0.3,0.3,0.4l0.2,0.4l0.4,0.7
				l1.4,2.9l2.9,5.7l5.7,11.5l11.5,22.9l5.7,11.5l2.9,5.7l0.7,1.4l0.1,0.2c0,0.1,0,0,0,0.1c0,0,0,0,0,0.1c0,0,0.1,0,0.1,0
				c0.1,0,0.2,0,0.3-0.1c0,0,0-0.1,0-0.1c0,0,0,0,0-0.1c0,0,0-0.1,0-0.1l0-0.2l-0.3-25.6l-0.1-6.4l0-1.6c0-0.2,0-0.6,0-0.9
				c0-0.3,0.1-0.6,0.1-1c0.2-1.3,0.6-2.5,1.3-3.6c1.3-2.2,3.5-3.9,6.1-4.6c1.3-0.4,2.6-0.4,3.6-0.4l3.2-0.1l51.2-1.2l51.2-1.4
				l12.8-0.3l3.2-0.1l1.6,0c0.3,0,0.7,0,1.1,0c0.4,0,0.7,0.1,1.1,0.1c2.9,0.5,5.6,2.2,7.3,4.6c0.9,1.2,1.5,2.6,1.8,4
				c0.2,0.7,0.3,1.4,0.3,2.2l0,0.5l0,0.4l0,0.8l-0.1,6.4c-0.1,4.3-0.2,8.5-0.3,12.8l-0.1,3.2l0,1.6c0,0.3,0,0.7,0.1,1
				c0.1,0.6,0.4,1.1,0.5,1.2c0.1,0.1,0,0,0,0c-0.1,0-0.2,0-0.1,0c0.1,0,0.6-0.4,0.9-1.2l1.4-2.8l2.9-5.7l5.8-11.4l5.9-11.4l5.9-11.4
				l3-5.7l1.5-2.8l0.8-1.4l0.2-0.4c0.1-0.1,0.2-0.3,0.3-0.5c0.3-0.4,0.6-0.7,0.9-0.9c0.4-0.2,0.8-0.4,1.2-0.5c0.2,0,0.4-0.1,0.6-0.1
				l0.4,0l1.6,0.1l3.2,0.1l6.4,0.2c4.3,0.1,8.5,0.3,12.8,0.5v0.6c-4.3,0.2-8.5,0.4-12.8,0.5l-6.4,0.2l-3.2,0.1l-1.6,0.1l-0.4,0
				c-0.1,0-0.1,0-0.2,0c-0.1,0-0.2,0.1-0.3,0.1c-0.1,0.1-0.1,0.1-0.2,0.2l-0.2,0.5l-0.7,1.5l-1.3,2.9l-2.7,5.8l-5.3,11.6l-5.4,11.6
				l-5.4,11.6l-2.7,5.8l-1.4,2.9c-0.5,1.2-1.4,2.7-3.1,3.7c-0.9,0.5-2,0.8-3.2,0.6c-1.1-0.1-2.2-0.7-2.9-1.3
				c-1.5-1.3-2.1-2.9-2.4-4.3c-0.2-0.7-0.2-1.4-0.2-2.2l0-1.6l0-3.2c0-4.3,0-8.5,0-12.8l0-6.4l0-0.8l0-0.4c0-0.1,0-0.2,0-0.3
				c0-0.3-0.1-0.7-0.1-1c-0.2-0.6-0.4-1.3-0.8-1.8c-0.8-1.1-2-1.8-3.3-2.1c-0.4-0.1-0.6-0.1-1-0.1l-1.6,0l-3.2,0l-12.8,0.1
				l-51.3,0.1l-51.2,0.3l-3.2,0c-1.2,0-1.9,0-2.7,0.2c-1.6,0.4-3.1,1.4-4,2.9c-0.4,0.7-0.8,1.5-0.9,2.3c0,0.2-0.1,0.4-0.1,0.6
				c0,0.2,0,0.4,0,0.7l0,1.6l-0.1,6.4l-0.3,25.6l0,0.2c0,0.1,0,0.1,0,0.3c0,0.2,0,0.5-0.1,0.7c-0.1,0.5-0.4,0.9-0.8,1.3
				c-0.7,0.7-1.7,0.9-2.7,0.7c-0.5-0.1-0.9-0.4-1.3-0.7c-0.2-0.2-0.3-0.4-0.4-0.6c-0.1-0.1-0.1-0.2-0.2-0.3l-0.1-0.2l-0.7-1.4
				l-2.8-5.8l-5.5-11.6l-11-23.1l-5.5-11.6l-2.8-5.8l-1.4-2.9l-0.3-0.7l-0.2-0.3c0-0.1-0.1-0.1-0.1-0.2c-0.1-0.1-0.3-0.2-0.4-0.3
				c-0.2-0.1-0.3-0.1-0.6-0.1l-25.6-0.3V99z"/>
		</g>
	</g>
	<g class="st0">
		<g class="st1">
			<path class="st3" d="M20.7,121.5l11-0.5l11-0.4l0.5,0l0.3,0.5l10.8,17.8l10.7,17.8l10.6,17.9c3.5,6,7,11.9,10.5,17.9l-2.3-1.3
				c11.5-0.1,23.1-0.3,34.6-0.3l34.6-0.1l34.6,0.1c11.5,0,23.1,0.2,34.6,0.3l-2.3,1.4c3.3-6,6.7-12,10.1-17.9l10.1-17.9l10.2-17.9
				l10.4-17.8l0.3-0.5l0.5,0l11,0.4l11,0.5l-11,0.5l-11,0.4l0.8-0.5l-9.3,18.4l-9.4,18.3l-9.5,18.3c-3.2,6.1-6.3,12.2-9.6,18.2
				l-0.7,1.4l-1.6,0c-11.5,0.1-23.1,0.3-34.6,0.3l-34.6,0.1l-34.6-0.1c-11.5,0-23.1-0.2-34.6-0.3l-1.5,0l-0.7-1.3
				c-3.4-6.1-6.7-12.1-10-18.2l-9.9-18.3l-9.8-18.3l-9.7-18.4l0.8,0.4l-11-0.4L20.7,121.5z"/>
		</g>
		<g class="st1">
			<g>
				<path class="st3" d="M86.5,115.5v8.1c2.4-2.9,4.8-5.7,7.2-8.5c5.8-6.6,11.5-13.3,17.3-19.9h-8.1C97.5,102.1,92,108.8,86.5,115.5
					z"/>
			</g>
			<g>
				<path class="st3" d="M95.1,116.7c-2.8,3.4-5.7,6.9-8.6,10.3v8.2c5.6-6.7,11.1-13.5,16.8-20.1c5.7-6.6,11.5-13.3,17.3-19.9h-8.1
					C106.7,102.5,100.9,109.6,95.1,116.7z"/>
			</g>
			<g>
				<path class="st3" d="M86.5,112.3c4.9-5.7,9.8-11.4,14.8-17C93.6,95.9,87.3,103.1,86.5,112.3z"/>
			</g>
			<g>
				<path class="st3" d="M104.6,116.7c-6,7.3-12.1,14.4-18.2,21.5v8.6c8.8-10.6,17.4-21.3,26.4-31.7c5.8-6.6,11.5-13.3,17.3-19.9
					h-8.1C116.3,102.5,110.5,109.6,104.6,116.7z"/>
			</g>
			<g>
				<path class="st3" d="M134.3,146.9c8.8-10.6,17.5-21.3,26.4-31.8c5.8-6.6,11.5-13.3,17.3-19.9H170c-5.8,7.2-11.6,14.4-17.4,21.5
					c-8.8,10.6-17.8,21-26.7,31.4L99,179.5l-3.3,3.8c2,1.1,4.2,1.7,6.6,1.7h0.4l5.2-6.3L134.3,146.9z"/>
			</g>
			<g>
				<path class="st3" d="M124.7,146.9c8.8-10.6,17.5-21.3,26.4-31.8c5.7-6.6,11.5-13.3,17.3-19.9h-8.1c-5.8,7.2-11.6,14.4-17.4,21.5
					c-8.8,10.6-17.8,21-26.7,31.4l-25.9,30.3c1.3,1.8,2.8,3.3,4.6,4.4l3.4-4.2L124.7,146.9z"/>
			</g>
			<g>
				<path class="st3" d="M114.2,116.7c-8.8,10.6-17.8,21-26.7,31.4l-1,1.2v9l9.5-11.5c8.8-10.6,17.5-21.3,26.4-31.8
					c5.8-6.6,11.5-13.3,17.3-19.9h-8.1C125.9,102.5,120,109.6,114.2,116.7z"/>
			</g>
			<g>
				<path class="st3" d="M214.6,177.1c1.9-3.1,3-6.9,3-11v-2l-13.1,15.4l-4.7,5.5h2c3.6,0,6.8-1.4,9.5-3.8l2.1-2.6L214.6,177.1z"/>
			</g>
			<g>
				<path class="st3" d="M106.7,148.2l-19.6,23c0.5,2.4,1.5,4.5,2.7,6.4l25.4-30.7c8.8-10.6,17.5-21.3,26.4-31.8
					c5.8-6.6,11.5-13.3,17.3-19.9h-8.1c-5.8,7.2-11.6,14.4-17.4,21.5C124.6,127.4,115.6,137.7,106.7,148.2z"/>
			</g>
			<g>
				<path class="st3" d="M123.8,116.7c-8.8,10.6-17.8,21-26.7,31.4l-10.6,12.4v5.6c0,1.2,0.1,2.3,0.3,3.4l18.8-22.7
					c8.8-10.6,17.5-21.3,26.4-31.8c5.7-6.6,11.5-13.3,17.3-19.9h-8.1C135.5,102.5,129.6,109.6,123.8,116.7z"/>
			</g>
			<g>
				<path class="st3" d="M165.4,178.7l26.4-31.8c8.6-10.4,17.1-20.8,25.8-31v-1.8c0-2-0.3-3.9-0.7-5.7c-2.3,2.8-4.5,5.6-6.8,8.3
					c-8.8,10.6-17.8,21-26.7,31.4l-26.8,31.3l-4.7,5.5h8.4L165.4,178.7z"/>
			</g>
			<g>
				<path class="st3" d="M184.5,178.7l26.4-31.8c2.2-2.7,4.4-5.4,6.6-8v-8.3c-5,5.9-10.1,11.7-15.1,17.6l-26.8,31.3l-4.7,5.5h8.4
					L184.5,178.7z"/>
			</g>
			<g>
				<path class="st3" d="M175,178.7l26.4-31.8c5.4-6.5,10.8-13.1,16.2-19.6v-8.1c-8.1,9.8-16.4,19.4-24.7,29l-26.8,31.3l-4.7,5.5
					h8.4L175,178.7z"/>
			</g>
			<g>
				<path class="st3" d="M117.5,178.7l26.4-31.8c8.8-10.6,17.5-21.3,26.4-31.8c5.8-6.6,11.5-13.3,17.3-19.9h-8.1
					c-5.8,7.2-11.6,14.4-17.4,21.5c-8.8,10.6-17.8,21-26.7,31.4l-26.8,31.3l-4.7,5.5h8.4L117.5,178.7z"/>
			</g>
			<g>
				<polygon class="st3" points="203.7,178.7 217.5,162 217.5,152.9 194.8,179.5 190.1,185.1 198.5,185.1 				"/>
			</g>
			<g>
				<path class="st3" d="M194.1,178.7l23.4-28.3v-8.7c-1.8,2.1-3.7,4.3-5.5,6.4l-26.8,31.3l-4.7,5.5h8.4L194.1,178.7z"/>
			</g>
			<g>
				<path class="st3" d="M136.6,178.7l26.4-31.8c8.8-10.6,17.5-21.3,26.4-31.8c5.5-6.4,11.1-12.8,16.6-19.1
					c-1.4-0.5-2.9-0.8-4.4-0.8h-3c-5.8,7.2-11.6,14.4-17.4,21.5c-8.8,10.6-17.8,21-26.7,31.4l-26.8,31.3l-4.7,5.5h8.4L136.6,178.7z"
					/>
			</g>
			<g>
				<path class="st3" d="M127.1,178.7l26.4-31.8c8.8-10.6,17.5-21.3,26.4-31.8c5.8-6.6,11.5-13.3,17.3-19.9h-8.1
					c-5.8,7.2-11.6,14.4-17.4,21.5c-8.8,10.6-17.8,21-26.7,31.4l-26.8,31.3l-4.7,5.5h8.4L127.1,178.7z"/>
			</g>
			<g>
				<path class="st3" d="M155.8,178.7l26.4-31.8c8.8-10.6,17.5-21.3,26.4-31.8c2.5-2.9,5-5.8,7.5-8.7c-0.7-2-1.8-3.7-3-5.3
					c-4.2,5.2-8.5,10.4-12.7,15.6c-8.8,10.6-17.8,21-26.7,31.4l-26.8,31.3l-4.7,5.5h8.4L155.8,178.7z"/>
			</g>
			<g>
				<path class="st3" d="M146.2,178.7l26.4-31.8c8.8-10.6,17.5-21.3,26.4-31.8c4.4-5,8.7-10.1,13.1-15.1c-1.4-1.5-3.1-2.7-4.9-3.5
					c-5.4,6.8-10.9,13.5-16.5,20.3c-8.8,10.6-17.8,21-26.7,31.4l-26.8,31.3l-4.7,5.5h8.4L146.2,178.7z"/>
			</g>
		</g>
		<g class="st1">
			<path class="st2" d="M121.7,17.2c0-2.1-0.1-2.9-0.6-3.7c-0.8-1.2-2.1-1.6-5.9-1.6c-4.5,0-5.9,0.3-6.8,1.3c-0.7,0.8-1,2-1,3.8
				c0,2.6,0.6,3.9,2.1,4.4c0.9,0.3,1.2,0.4,5.9,0.6c5.3,0.3,6.8,0.6,8.1,1.6c1.5,1.2,2.1,2.9,2.1,6.3c0,3.9-0.7,5.9-2.4,7.1
				c-1.6,1-3.6,1.3-9.5,1.3c-4,0-5.3-0.2-7-1.2c-1.1-0.6-2-2-2.3-3.5c-0.3-1.2-0.3-2.1-0.4-4.5h3.2c0,3.1,0.1,3.6,0.6,4.7
				c0.8,1.5,1.7,1.7,6.8,1.7c6.9,0,7.6-0.6,7.6-5.9c0-2.4-0.5-3.5-1.8-4c-0.8-0.3-0.8-0.3-6-0.6c-5.3-0.3-5.7-0.3-7.1-1
				c-2.3-1.2-3.3-3.1-3.3-6.7c0-3.3,0.7-5.3,2.1-6.5c1.6-1.3,3.7-1.7,8.6-1.7c5.4,0,7.6,0.6,8.9,2.4c0.9,1.2,1.2,2.7,1.2,5.2v0.5
				H121.7z"/>
			<path class="st2" d="M132.8,21.9h2.8l11.7-12.5h4.2l-13.1,13.9L153.1,38h-4.4l-13.1-13.2h-2.8V38h-3.2V9.4h3.2V21.9z"/>
			<path class="st2" d="M159.3,38h-3.2V9.4h3.2V38z"/>
			<path class="st2" d="M189,38h-5.3l-12-19.4l-1.9-3.2l-1-1.6l-0.9-1.6h-0.1l0,1.1v1.1v2.1V38h-3.2V9.4h5.3l10.4,17l2.7,4.5
				l1.4,2.2l1.3,2.2h0.1l0-1.1v-1.1v-2.1V9.4h3.2V38z"/>
			<path class="st2" d="M29.7,45.4h11.9c3.7,0,4.7,0.1,6,0.7c2.4,1,3.5,3.6,3.5,8.1c0,4.3-1.1,6.7-3.5,7.8c-1.3,0.6-1.5,0.6-6.5,0.7
				H33V74h-3.2V45.4z M40.6,60c6.3,0,7.4-0.8,7.4-5.6c0-3.7-0.4-5.1-1.8-5.7c-0.9-0.4-1.2-0.4-4.6-0.5H33V60H40.6z"/>
			<path class="st2" d="M55,45.4h13.6c6.1,0,8.3,2.2,8.3,8.2c0,5.2-1.1,6.9-4.9,7.5v0c3,0.2,4.6,2.1,4.5,5.5V74h-3.2v-6.5
				c0.1-3.6-1.5-5.1-5.4-5h-9.7V74H55V45.4z M67.5,59.7c4.7,0,6.2-1.2,6.2-5.1c0-3-0.2-4.2-0.8-5c-0.6-0.9-2.1-1.4-4.3-1.4H58.2
				v11.5H67.5z"/>
			<path class="st2" d="M100.8,46.1c2.4,1,3.7,3.1,4.2,6.8c0.1,1.3,0.2,2,0.2,5.6c0,6.7,0,7.7-0.5,9.8c-0.5,2.5-1.8,4.2-3.8,5
				c-1.8,0.8-3.3,0.9-7.4,0.9c-5,0-6.4-0.2-8.2-0.9c-2.1-0.9-3.3-2.5-3.8-5c-0.5-2.2-0.5-3.2-0.5-9.8c0-5.9,0.3-7.6,1.4-9.8
				c0.9-1.7,2.6-2.8,5-3.3c1-0.2,3.3-0.3,5.7-0.3C97.4,45.1,99.1,45.3,100.8,46.1z M85.5,49.3c-0.9,1-1.2,2.3-1.4,4.7
				c0,0.6,0,0.6,0,5.7c0,5.9,0,5.9,0.3,7.5c0.3,2,1.1,3.2,2.4,3.7c1.2,0.5,2.4,0.6,6.2,0.6c5.2,0,6.6-0.3,7.6-1.4
				c0.9-1,1.2-2.3,1.4-4.7c0-0.6,0-0.6,0-5.8c0-5.9,0-5.9-0.3-7.5c-0.3-2-1.1-3.2-2.4-3.7c-1.2-0.5-2.4-0.6-6.2-0.6
				C87.9,47.9,86.5,48.2,85.5,49.3z"/>
			<path class="st2" d="M119.9,74h-3.2V48.4h-9.3v-3h21.7v3l-9.2,0V74z"/>
			<path class="st2" d="M132.5,45.4h13.6c6.1,0,8.3,2.2,8.3,8.2c0,5.2-1.1,6.9-4.9,7.5v0c3,0.2,4.6,2.1,4.5,5.5V74h-3.2v-6.5
				c0.1-3.6-1.5-5.1-5.4-5h-9.7V74h-3.2V45.4z M145,59.7c4.7,0,6.2-1.2,6.2-5.1c0-3-0.2-4.2-0.8-5c-0.6-0.9-2.1-1.4-4.3-1.4h-10.4
				v11.5H145z"/>
			<path class="st2" d="M181.4,45.4v20c0,3.4-0.3,4.9-1.5,6.3c-1.7,2-3.8,2.6-10.1,2.6c-3.8,0-5.4-0.2-6.8-0.7
				c-3.3-1.2-4.2-3.1-4.2-8.1v-20h3.2v20c0,2.3,0.2,3.5,0.6,4.2c0.9,1.5,2.5,1.9,7.1,1.9c7.6,0,8.5-0.6,8.5-6.1v-20H181.4z"/>
			<path class="st2" d="M186.7,45.4h13.2c4.2,0,6.5,0.7,8,2.5c1.9,2.2,2.5,4.7,2.5,10.6c0,7-0.3,9.3-1.4,11.4
				c-1.1,2-2.6,3.1-4.9,3.6c-1.3,0.3-2.6,0.5-3.4,0.5h-14V45.4z M199.2,71.2c3.1,0,5.4-0.6,6.3-1.8c1.2-1.5,1.6-3.6,1.6-9.1
				c0-6.9-0.3-8.5-1.5-10.2c-1-1.4-2.7-1.9-5.8-1.9h-10v23H199.2z"/>
			<path class="st2" d="M218.1,74h-3.2V45.4h3.2V74z"/>
			<path class="st2" d="M247.8,74h-5.3l-12-19.4l-1.9-3.2l-1-1.6l-0.9-1.6h-0.1l0,1.1v1.1v2.1V74h-3.2V45.4h5.3l10.4,17l2.7,4.5
				l1.4,2.2l1.3,2.2h0.1l0-1.1v-1.1v-2.1V45.4h3.2V74z"/>
			<path class="st2" d="M276,59.8c0.1,1.2,0.1,1.3,0.1,3.1c0,5.2-0.2,6.7-1.1,8.2c-0.7,1.3-1.8,2.1-3.5,2.7
				c-1.2,0.3-3.5,0.5-7.1,0.5c-5.6,0-7.6-0.4-9.6-2.1c-1.3-1.1-2.2-3.3-2.4-5.7c0-1.3,0-1.5-0.1-7.1v-1.2c0-5.1,0.3-7.3,1.4-9.4
				c0.9-1.8,2.6-2.9,5-3.3c0.9-0.2,2.8-0.3,5.4-0.3c6.4,0,7.5,0.2,9.5,1.4c1.1,0.7,1.9,2,2.1,3.5c0.1,1,0.2,1.6,0.2,3.7h-3.2
				c0-5.5-0.5-5.8-9.1-5.8c-4.9,0-6.5,0.5-7.3,2.3c-0.6,1.4-0.8,3.3-0.8,9.1c0,7.4,0.1,8.6,0.8,10c0.9,1.8,2.7,2.3,8.6,2.3
				c7.3,0,7.9-0.6,7.9-7.3c0-0.3,0-0.9,0-1.7h-9.1v-2.8H276z"/>
		</g>
		<g class="st1">
			<path class="st2" d="M21.7,111l14.2-0.2l7.1-0.1l3.5,0c0.3,0,0.7,0,1,0.1c0.3,0.1,0.7,0.2,1,0.4c0.6,0.3,1.1,0.9,1.5,1.5l0-0.1
				l28.5,44.9l0,0l0,0.1c0.2,0.4,0.5,0.7,0.9,0.8c0.4,0.1,0.8,0.1,1.2-0.1c0.4-0.2,0.7-0.5,0.8-0.8c0.1-0.2,0.1-0.4,0.1-0.6l0-1
				l-0.1-8.8l-0.1-17.6l-0.1-17.6l-0.1-8.8l0-2.2l0-1.1l0-0.6l0-0.7c0.1-1.8,0.7-3.5,1.7-5c1-1.5,2.4-2.7,4-3.4
				c0.8-0.4,1.7-0.7,2.6-0.8c0.9-0.2,1.8-0.2,2.5-0.2l8.8-0.2l17.6-0.4l35.2-0.9l35.2-0.9c5.9-0.2,11.7-0.3,17.6-0.4l8.8-0.2
				c0.3,0,0.9,0,1.4,0c0.5,0,1,0.1,1.5,0.2c1,0.2,2,0.6,2.8,1c1.8,1,3.3,2.4,4.4,4.1c1.1,1.7,1.7,3.7,1.7,5.7c0,0.3,0,0.5,0,0.6
				l0,0.6l0,1.1l0,2.2l-0.1,8.8l-0.2,17.6l-0.2,17.6l-0.1,4.4l0,2.1c0,0.5,0.1,1,0.2,1.3c0.1,0.4,0.3,0.6,0.4,0.7c0.1,0.1,0,0-0.1,0
				c-0.1,0,0,0,0.2-0.2c0.2-0.2,0.5-0.6,0.7-1.1l0.1-0.3l0.1-0.1c4.5-6.8,9-13.6,13.5-20.4l6.8-10.2l6.9-10.1l-0.1,0.2
				c0.4-0.8,1.1-1.5,2-1.8c0.2-0.1,0.4-0.1,0.7-0.2c0.2,0,0.5,0,0.6,0l0.8,0l3.4,0.1l6.7,0.2c4.5,0.1,8.9,0.3,13.4,0.5v0.6
				c-4.5,0.2-8.9,0.4-13.4,0.5l-6.7,0.2l-3.4,0.1l-0.8,0c-0.2,0-0.2,0-0.2,0c-0.1,0-0.1,0-0.2,0.1c-0.2,0.1-0.3,0.3-0.4,0.4l0,0
				l-0.1,0.1l-6.2,10.6l-6.2,10.5c-4.1,7-8.4,14-12.6,21l0.2-0.4c-0.4,0.9-0.9,1.8-1.6,2.7c-0.8,0.8-2,1.7-3.5,1.9
				c-1.6,0.2-3.2-0.4-4.2-1.3c-1-0.9-1.6-1.9-2-3c-0.4-1-0.6-2-0.6-3c0-0.5,0-0.9,0-1.2l0-1.1l0-4.4l0-17.6l0-17.6l0-8.8l0-4.3
				c0-0.9-0.3-1.8-0.8-2.6c-0.5-0.8-1.2-1.4-2-1.8c-0.4-0.2-0.8-0.4-1.3-0.5c-0.2,0-0.5-0.1-0.7-0.1c-0.2,0-0.4,0-0.8,0l-8.8,0.1
				c-5.9,0.1-11.7,0.1-17.6,0.1l-35.3,0.1l-35.3,0.2l-17.6,0.1l-8.8,0c-0.8,0-1.3,0-1.9,0.1c-0.6,0.1-1.1,0.3-1.6,0.5
				c-1,0.5-2,1.2-2.6,2.2c-0.6,1-1.1,2.1-1.1,3.2l0,0.4l0,0.5l0,1.1l0,2.2l-0.1,8.8l-0.1,17.6l-0.1,17.6l-0.1,8.8c0,0.4,0,0.7,0,1.2
				c0,0.5-0.1,1-0.4,1.5c-0.4,1-1.3,1.8-2.3,2.2c-1,0.4-2.1,0.4-3.1,0c-1-0.4-1.8-1.2-2.3-2.1l0.1,0.1l-27.5-45.5l0,0l0,0
				c-0.4-0.9-1.3-1.4-2.3-1.3l-3.5,0l-7.1-0.1l-14.2-0.2V111z"/>
		</g>
	</g>
	<g>
		<g>
			<path class="st2" d="M20.9,83.3c21.9-0.6,43.8-1.1,65.7-1.6l65.7-1.2c11-0.2,21.9-0.5,32.9-0.8c11-0.3,21.9-0.3,32.9,0l16.4,0.5
				c5.5,0.2,11,0.4,16.4,0.7c11,0.6,21.9,1.3,32.9,2.4v0.8c-11,1.1-21.9,1.9-32.9,2.4c-5.5,0.3-11,0.5-16.4,0.7l-16.4,0.5
				c-11,0.2-21.9,0.2-32.9,0c-11-0.3-21.9-0.5-32.9-0.8l-65.7-1.2c-21.9-0.5-43.8-1-65.7-1.6V83.3z"/>
		</g>
		<g>
			<path class="st3" d="M20.2,100.5l11-0.4l11-0.4l0.5,0l0.2,0.5c3.7,7.7,7.3,15.4,10.9,23.1l10.7,23.1l10.6,23.2
				c3.5,7.7,7,15.5,10.5,23.2l-2.4-1.6c11.5-0.1,23.1-0.2,34.6-0.2l34.6-0.1l34.6,0.1c11.5,0,23.1,0.2,34.6,0.2l-2.4,1.6
				c3.3-7.8,6.7-15.5,10.1-23.2l10.2-23.2l10.3-23.1c3.5-7.7,6.9-15.4,10.5-23.1l0.2-0.5l0.5,0l11,0.4l11,0.4l-11,0.4l-11,0.4
				l0.7-0.5c-3,7.9-6.1,15.7-9.2,23.6l-9.3,23.5l-9.5,23.5c-3.1,7.8-6.3,15.6-9.6,23.4l-0.7,1.6l-1.8,0c-11.5,0.1-23.1,0.2-34.6,0.2
				l-34.6,0.1l-34.6-0.1c-11.5,0-23.1-0.2-34.6-0.2l-1.8,0l-0.7-1.6c-3.4-7.8-6.7-15.6-10-23.4l-9.9-23.5l-9.8-23.5
				c-3.2-7.9-6.5-15.7-9.6-23.6l0.7,0.5l-11-0.4L20.2,100.5z"/>
		</g>
		<g>
			<path class="st2" d="M52.9,41.2c0.1,1.4,0.1,1.5,0.1,3.6c0,6.1-0.2,7.8-1.3,9.6c-0.8,1.5-2.2,2.5-4,3.1c-1.4,0.4-4.1,0.6-8.3,0.6
				c-6.6,0-8.9-0.5-11.3-2.5c-1.5-1.3-2.6-3.9-2.8-6.7c0-1.5,0-1.8-0.1-8.3v-1.4c0-6,0.4-8.6,1.6-11c1.1-2.2,3-3.4,5.9-3.9
				c1.1-0.2,3.3-0.3,6.3-0.3c7.5,0,8.8,0.2,11.1,1.7c1.3,0.8,2.2,2.3,2.5,4c0.1,1.2,0.2,1.9,0.2,4.4h-3.7c-0.1-6.5-0.6-6.8-10.6-6.8
				c-5.8,0-7.6,0.5-8.6,2.7c-0.8,1.7-1,3.8-1,10.7c0,8.7,0.1,10,0.9,11.7c1,2.1,3.1,2.7,10,2.7c8.5,0,9.2-0.6,9.2-8.5
				c0-0.4,0-1.1,0-2H38.6v-3.3H52.9z"/>
			<path class="st2" d="M61.8,50.7l-2.6,7.1h-4l12.2-33.4h5.3l12.5,33.4h-4l-2.6-7.1H61.8z M70.2,27.4l-7.3,20.3h14.7L70.2,27.4z"/>
			<path class="st2" d="M108.3,33.4c0-2.5-0.2-3.4-0.7-4.3c-0.9-1.5-2.5-1.9-7-1.9c-5.2,0-7,0.3-8,1.5c-0.8,0.9-1.2,2.3-1.2,4.4
				c0,3,0.7,4.5,2.4,5.2c1.1,0.4,1.4,0.5,6.9,0.7c6.2,0.3,8,0.6,9.5,1.8c1.8,1.4,2.4,3.4,2.4,7.4c0,4.6-0.8,7-2.8,8.3
				c-1.9,1.2-4.3,1.5-11.1,1.5c-4.6,0-6.2-0.3-8.2-1.3c-1.3-0.8-2.3-2.4-2.7-4.1c-0.3-1.5-0.4-2.4-0.4-5.3h3.8
				c0,3.6,0.1,4.3,0.8,5.5c0.9,1.7,2,2,8,2c8.1,0,8.9-0.7,8.9-6.9c0-2.8-0.5-4.1-2-4.7c-1-0.4-1-0.4-7.1-0.8
				c-6.2-0.3-6.7-0.4-8.3-1.2c-2.7-1.3-3.8-3.6-3.8-7.8c0-3.9,0.8-6.3,2.5-7.5c1.9-1.5,4.3-2,10-2c6.3,0,8.9,0.6,10.4,2.8
				c1.1,1.4,1.5,3.1,1.5,6.1v0.5H108.3z"/>
			<path class="st2" d="M133.9,39.2h16.3v3.1h-16.3v15.4h-3.8V24.4h20.5v3.3h-16.7V39.2z"/>
			<path class="st2" d="M158.3,54.2h17.2v3.5h-20.9V24.4h3.8V54.2z"/>
			<path class="st2" d="M205.2,24.4v23.4c0,4-0.4,5.7-1.7,7.4c-2,2.4-4.4,3-11.8,3c-4.5,0-6.3-0.2-8-0.8c-3.8-1.4-5-3.7-5-9.5V24.4
				h3.8v23.4c0,2.7,0.2,4.1,0.7,4.9c1,1.7,3,2.2,8.3,2.2c8.9,0,9.9-0.8,9.9-7.1V24.4H205.2z"/>
			<path class="st2" d="M230.8,33.4c0-2.5-0.2-3.4-0.7-4.3c-0.9-1.5-2.5-1.9-7-1.9c-5.2,0-7,0.3-8,1.5c-0.8,0.9-1.2,2.3-1.2,4.4
				c0,3,0.7,4.5,2.4,5.2c1.1,0.4,1.4,0.5,6.9,0.7c6.2,0.3,8,0.6,9.5,1.8c1.8,1.4,2.4,3.4,2.4,7.4c0,4.6-0.8,7-2.8,8.3
				c-1.9,1.2-4.3,1.5-11.1,1.5c-4.6,0-6.2-0.3-8.2-1.3c-1.3-0.8-2.3-2.4-2.7-4.1c-0.3-1.5-0.4-2.4-0.4-5.3h3.8
				c0,3.6,0.1,4.3,0.8,5.5c0.9,1.7,2,2,8,2c8.1,0,8.9-0.7,8.9-6.9c0-2.8-0.5-4.1-2-4.7c-1-0.4-1-0.4-7.1-0.8
				c-6.2-0.3-6.7-0.4-8.3-1.2c-2.7-1.3-3.8-3.6-3.8-7.8c0-3.9,0.8-6.3,2.5-7.5c1.9-1.5,4.3-2,10-2c6.3,0,8.9,0.6,10.4,2.8
				c1.1,1.4,1.5,3.1,1.5,6.1v0.5H230.8z"/>
			<path class="st2" d="M267.1,57.7h-3.8V42.2h-19.5v15.5h-3.8V24.4h3.8v14.7h19.5V24.4h3.8V57.7z"/>
		</g>
		<g>
			<g>
				<path class="st3" d="M86.8,145.5v4.6c2.4-1.6,4.8-3.2,7.2-4.8c5.8-3.8,11.5-7.5,17.3-11.3h-8.1
					C97.8,137.9,92.3,141.7,86.8,145.5z"/>
			</g>
			<g>
				<path class="st3" d="M95.4,146.2c-2.8,2-5.7,3.9-8.6,5.8v4.6c5.6-3.8,11.1-7.6,16.8-11.4c5.7-3.8,11.5-7.5,17.3-11.3h-8.1
					C107.1,138.1,101.2,142.2,95.4,146.2z"/>
			</g>
			<g>
				<path class="st3" d="M86.9,143.7c4.9-3.2,9.8-6.4,14.8-9.6C93.9,134.4,87.6,138.5,86.9,143.7z"/>
			</g>
			<g>
				<path class="st3" d="M105,146.2c-6,4.1-12.1,8.2-18.2,12.2v4.9c8.8-6,17.4-12.1,26.4-18c5.8-3.8,11.5-7.5,17.3-11.3h-8.1
					C116.7,138.1,110.8,142.2,105,146.2z"/>
			</g>
			<g>
				<path class="st3" d="M134.6,163.3c8.8-6,17.5-12.1,26.4-18c5.8-3.8,11.5-7.5,17.3-11.3h-8.1c-5.8,4.1-11.6,8.1-17.4,12.2
					c-8.8,6-17.8,11.9-26.7,17.8l-26.8,17.8l-3.3,2.2c2,0.6,4.2,1,6.6,1h0.4l5.2-3.6L134.6,163.3z"/>
			</g>
			<g>
				<path class="st3" d="M125.1,163.3c8.8-6,17.5-12.1,26.4-18c5.7-3.8,11.5-7.5,17.3-11.3h-8.1c-5.8,4.1-11.6,8.1-17.4,12.2
					c-8.8,6-17.8,11.9-26.7,17.8l-25.9,17.2c1.3,1,2.8,1.8,4.6,2.5l3.4-2.4L125.1,163.3z"/>
			</g>
			<g>
				<path class="st3" d="M114.6,146.2c-8.8,6-17.8,11.9-26.7,17.8l-1,0.7v5.1l9.5-6.5c8.8-6,17.5-12.1,26.4-18
					c5.8-3.8,11.5-7.5,17.3-11.3H132C126.2,138.1,120.4,142.2,114.6,146.2z"/>
			</g>
			<g>
				<path class="st3" d="M214.9,180.5c1.9-1.8,3-3.9,3-6.2v-1.2l-13.1,8.7l-4.7,3.1h2c3.6,0,6.8-0.8,9.5-2.1l2.1-1.5L214.9,180.5z"
					/>
			</g>
			<g>
				<path class="st3" d="M107,164l-19.6,13c0.5,1.3,1.5,2.6,2.7,3.6l25.4-17.4c8.8-6,17.5-12.1,26.4-18c5.8-3.8,11.5-7.5,17.3-11.3
					h-8.1c-5.8,4.1-11.6,8.1-17.4,12.2C125,152.2,115.9,158.1,107,164z"/>
			</g>
			<g>
				<path class="st3" d="M124.1,146.2c-8.8,6-17.8,11.9-26.7,17.8l-10.6,7v3.2c0,0.7,0.1,1.3,0.3,1.9l18.8-12.9
					c8.8-6,17.5-12.1,26.4-18c5.7-3.8,11.5-7.5,17.3-11.3h-8.1C135.8,138.1,130,142.2,124.1,146.2z"/>
			</g>
			<g>
				<path class="st3" d="M165.7,181.3l26.4-18.1c8.6-5.9,17.1-11.8,25.8-17.6v-1c0-1.1-0.3-2.2-0.7-3.2c-2.3,1.6-4.5,3.1-6.8,4.7
					c-8.8,6-17.8,11.9-26.7,17.8l-26.8,17.8l-4.7,3.1h8.4L165.7,181.3z"/>
			</g>
			<g>
				<path class="st3" d="M184.9,181.3l26.4-18.1c2.2-1.5,4.4-3,6.6-4.6V154c-5,3.3-10.1,6.7-15.1,10L176,181.8l-4.7,3.1h8.4
					L184.9,181.3z"/>
			</g>
			<g>
				<path class="st3" d="M175.3,181.3l26.4-18.1c5.4-3.7,10.8-7.4,16.2-11.1v-4.6c-8.1,5.5-16.4,11-24.7,16.4l-26.8,17.8l-4.7,3.1
					h8.4L175.3,181.3z"/>
			</g>
			<g>
				<path class="st3" d="M117.8,181.3l26.4-18.1c8.8-6,17.5-12.1,26.4-18c5.8-3.8,11.5-7.5,17.3-11.3h-8.1
					c-5.8,4.1-11.6,8.1-17.4,12.2c-8.8,6-17.8,11.9-26.7,17.8L109,181.8l-4.7,3.1h8.4L117.8,181.3z"/>
			</g>
			<g>
				<polygon class="st3" points="204.1,181.3 217.9,171.9 217.9,166.7 195.2,181.8 190.4,184.9 198.8,184.9 				"/>
			</g>
			<g>
				<path class="st3" d="M194.5,181.3l23.4-16v-4.9c-1.8,1.2-3.7,2.4-5.5,3.6l-26.8,17.8l-4.7,3.1h8.4L194.5,181.3z"/>
			</g>
			<g>
				<path class="st3" d="M137,181.3l26.4-18.1c8.8-6,17.5-12.1,26.4-18c5.5-3.6,11.1-7.2,16.6-10.8c-1.4-0.3-2.9-0.4-4.4-0.4h-3
					c-5.8,4.1-11.6,8.1-17.4,12.2c-8.8,6-17.8,11.9-26.7,17.8l-26.8,17.8l-4.7,3.1h8.4L137,181.3z"/>
			</g>
			<g>
				<path class="st3" d="M127.4,181.3l26.4-18.1c8.8-6,17.5-12.1,26.4-18c5.8-3.8,11.5-7.5,17.3-11.3h-8.1
					c-5.8,4.1-11.6,8.1-17.4,12.2c-8.8,6-17.8,11.9-26.7,17.8l-26.8,17.8l-4.7,3.1h8.4L127.4,181.3z"/>
			</g>
			<g>
				<path class="st3" d="M156.2,181.3l26.4-18.1c8.8-6,17.5-12.1,26.4-18c2.5-1.6,5-3.3,7.5-4.9c-0.7-1.1-1.8-2.1-3-3
					c-4.2,3-8.5,5.9-12.7,8.9c-8.8,6-17.8,11.9-26.7,17.8l-26.8,17.8l-4.7,3.1h8.4L156.2,181.3z"/>
			</g>
			<g>
				<path class="st3" d="M146.6,181.3l26.4-18.1c8.8-6,17.5-12.1,26.4-18c4.4-2.9,8.7-5.7,13.1-8.6c-1.4-0.8-3.1-1.5-4.9-2
					c-5.4,3.9-10.9,7.7-16.5,11.5c-8.8,6-17.8,11.9-26.7,17.8l-26.8,17.8l-4.7,3.1h8.4L146.6,181.3z"/>
			</g>
		</g>
		<g>
			<path class="st3" d="M261.8,90.4c-6.4,0.5-12.8,0.6-19.2,1.3c-6.3,0.6-12.6,1.6-18.4,3.7c-1.4,0.5-2.8,1.2-4.2,1.9
				c-1.3,0.7-2.6,1.5-3.7,2.5c-0.6,0.5-1.1,1-1.6,1.5c-0.5,0.6-1,1.1-1.4,1.7c-0.4,0.6-0.9,1.2-1.2,1.8c-0.3,0.7-0.7,1.3-1,1.9
				c-2.3,5.3-2.1,11.8,0.7,16.8c1.4,2.5,3.3,4.7,5.8,6c2.4,1.4,5.3,1.8,8.1,1.5c5.5-0.7,10.7-5.3,10.9-11c0.1-2.8-0.9-5.6-2.9-7.7
				c-1-1-2.1-1.9-3.4-2.4c-1.3-0.5-2.8-0.7-4.2-0.5c-1.4,0.2-2.8,0.7-4,1.6c-1.2,0.9-2.2,2-2.8,3.4c-1.2,2.8-0.4,6.3,2.1,8.4
				c-1.3-0.9-2.4-2.2-3-3.8c-0.6-1.6-0.6-3.3-0.1-5c0.5-1.7,1.5-3.1,2.8-4.3c1.3-1.1,2.9-2,4.6-2.3c1.7-0.4,3.6-0.3,5.3,0.2
				c1.7,0.5,3.3,1.5,4.6,2.7c2.6,2.4,4.1,6,4.1,9.6c0,1.8-0.3,3.6-1.1,5.3c-0.7,1.7-1.8,3.2-3,4.5c-2.5,2.6-5.8,4.3-9.4,4.9
				c-3.6,0.6-7.3,0-10.5-1.8c-3.2-1.7-5.7-4.5-7.4-7.5c-0.5-0.8-0.8-1.6-1.1-2.4c-0.3-0.8-0.5-1.7-0.8-2.5c-0.2-0.9-0.4-1.7-0.5-2.6
				c-0.1-0.9-0.2-1.7-0.2-2.6c-0.1-3.5,0.6-7,2-10.2c0.3-0.8,0.8-1.5,1.2-2.3c0.4-0.7,1-1.4,1.5-2.1c0.6-0.7,1.2-1.3,1.7-1.9
				c0.6-0.6,1.2-1.2,1.9-1.7c2.7-2.2,5.9-3.6,9-4.6c6.4-2,12.9-2.6,19.3-2.7C249,89.6,255.4,90.1,261.8,90.4z"/>
		</g>
		<g>
			<path class="st3" d="M40.3,89.4c6.4-0.3,12.8-0.8,19.3-0.6c6.4,0.2,13,0.7,19.3,2.7c3.2,1,6.3,2.4,9,4.6c0.7,0.5,1.3,1.1,1.9,1.7
				c0.6,0.6,1.2,1.3,1.7,1.9c0.5,0.7,1.1,1.4,1.5,2.1c0.4,0.8,0.9,1.5,1.2,2.3c1.5,3.2,2.1,6.7,2,10.2c0,0.9-0.1,1.7-0.2,2.6
				c-0.1,0.9-0.3,1.7-0.5,2.6c-0.3,0.8-0.5,1.7-0.8,2.5c-0.4,0.8-0.6,1.6-1.1,2.4c-1.7,3.1-4.2,5.9-7.4,7.5
				c-3.2,1.7-6.9,2.3-10.5,1.8c-3.6-0.6-6.9-2.3-9.4-4.9c-1.2-1.3-2.3-2.8-3-4.5c-0.7-1.7-1.1-3.5-1.1-5.3c0-3.6,1.5-7.2,4.1-9.6
				c1.3-1.2,2.8-2.2,4.6-2.7c1.7-0.5,3.6-0.6,5.3-0.2c1.7,0.4,3.3,1.2,4.6,2.3c1.3,1.1,2.4,2.6,2.8,4.3c0.5,1.7,0.4,3.4-0.1,5
				c-0.6,1.6-1.6,2.9-3,3.8c2.5-2.1,3.2-5.7,2.1-8.4c-0.6-1.4-1.5-2.5-2.8-3.4c-1.2-0.9-2.6-1.4-4-1.6c-1.4-0.2-2.9,0-4.2,0.5
				c-1.3,0.5-2.5,1.3-3.4,2.4c-1.9,2.1-3,4.9-2.9,7.7c0.2,5.7,5.4,10.3,10.9,11c2.8,0.4,5.7-0.1,8.1-1.5c2.5-1.3,4.4-3.5,5.8-6
				c2.8-5,3-11.5,0.7-16.8c-0.2-0.7-0.7-1.3-1-1.9c-0.4-0.6-0.8-1.2-1.2-1.8c-0.4-0.6-1-1.1-1.4-1.7c-0.5-0.5-1-1.1-1.6-1.5
				c-1.1-0.9-2.4-1.8-3.7-2.5c-1.3-0.7-2.7-1.4-4.2-1.9c-5.8-2.1-12.1-3.1-18.4-3.7C53.1,90.1,46.7,90,40.3,89.4z"/>
		</g>
		<g>
			<path class="st3" d="M129.3,128.6c3.8-2.1,6.8-5.4,8.4-9.3c1.6-3.8,1.7-8.1,0.5-11.9c-0.6-1.9-1.6-3.6-2.8-5.1
				c-1.3-1.4-2.9-2.5-4.6-3.3c-3.5-1.5-7.7-1.3-10.9,0.5c-0.8,0.4-1.5,1-2.2,1.6c-0.6,0.7-1.2,1.4-1.6,2.2c-0.9,1.6-1.3,3.4-1.2,5.3
				c0.1,0.9,0.2,1.8,0.5,2.7c0.3,0.9,0.7,1.6,1.2,2.3c1.1,1.4,2.7,2.4,4.5,2.8c1.8,0.4,3.7,0.1,5.3-0.8c1.6-0.9,2.7-2.5,3.1-4.4
				c0.3-1.9-0.1-4-1.5-5.4c-1.4-1.4-3.7-2-5.8-1.4c1-0.5,2.1-0.8,3.3-0.7c1.1,0.1,2.3,0.5,3.3,1.2c1,0.7,1.7,1.7,2.2,2.9
				c0.5,1.1,0.7,2.4,0.6,3.6c-0.2,2.5-1.5,4.9-3.6,6.4c-2.1,1.5-4.7,2-7.3,1.6c-2.5-0.3-4.9-1.6-6.6-3.6c-0.9-1-1.5-2.1-2-3.3
				c-0.5-1.2-0.8-2.4-0.9-3.7c-0.5-5.1,2.3-10.3,6.8-12.8c4.5-2.4,9.9-2.6,14.4-0.4c2.2,1,4.2,2.6,5.8,4.5c0.7,1,1.4,2,1.9,3.1
				c0.5,1.1,0.9,2.2,1.2,3.4c1.2,4.6,0.5,9.6-1.7,13.6C137.2,124.2,133.5,127.3,129.3,128.6z"/>
		</g>
		<g>
			<path class="st3" d="M166.7,95.1c-2.3,3.5-3.3,7.5-2.9,11.4c0.4,3.9,2.1,7.5,4.8,10.1c1.4,1.3,2.9,2.3,4.6,3
				c1.7,0.6,3.5,0.9,5.3,0.7c3.5-0.2,6.9-2.3,8.8-5.1c1.9-2.8,2-6.7,0.2-9.6c-0.4-0.7-0.9-1.4-1.6-2c-0.6-0.6-1.3-1.1-2-1.4
				c-1.5-0.7-3.3-0.8-4.9-0.4c-1.6,0.4-3.1,1.5-4.1,2.9c-0.9,1.4-1.2,3.3-0.7,5c0.5,1.7,1.8,3.3,3.6,3.8c1.8,0.6,3.9,0.1,5.4-1.4
				c-0.6,0.9-1.4,1.6-2.4,2c-1,0.4-2.1,0.6-3.3,0.4c-1.1-0.1-2.2-0.7-3.1-1.4c-0.9-0.7-1.6-1.7-2.1-2.7c-1-2.1-0.9-4.8,0.2-7
				c1.2-2.2,3.1-3.8,5.4-4.6c2.3-0.8,4.9-0.8,7.2,0.1c1.2,0.4,2.2,1.1,3.1,1.9c0.9,0.8,1.7,1.7,2.4,2.7c2.7,4.1,2.6,9.7-0.1,13.8
				c-2.7,3.9-7.2,6.5-11.9,6.7c-2.3,0.1-4.7-0.3-6.8-1.2c-1.1-0.5-2.1-1-3-1.7c-0.9-0.7-1.7-1.5-2.5-2.3c-3.1-3.3-4.6-7.8-4.5-12.2
				C162,102.3,163.8,98,166.7,95.1z"/>
		</g>
	</g>
	<g class="st0">
		<g class="st1">
			<path class="st2" d="M20.9,86.3c21.9-0.6,43.8-1.1,65.7-1.6l65.7-1.2c11-0.2,21.9-0.5,32.9-0.8c11-0.3,21.9-0.3,32.9,0l16.4,0.5
				c5.5,0.2,11,0.4,16.4,0.7c11,0.6,21.9,1.3,32.9,2.4v0.8c-11,1.1-21.9,1.9-32.9,2.4c-5.5,0.3-11,0.5-16.4,0.7l-16.4,0.5
				c-11,0.2-21.9,0.2-32.9,0c-11-0.3-21.9-0.5-32.9-0.8l-65.7-1.2c-21.9-0.5-43.8-1-65.7-1.6V86.3z"/>
		</g>
		<g class="st1">
			<path class="st3" d="M20.2,100.5l11-0.4l11-0.4l0.5,0l0.2,0.5c3.7,7.7,7.3,15.4,10.9,23.1l10.7,23.1l10.6,23.2
				c3.5,7.7,7,15.5,10.5,23.2l-2.4-1.6c11.5-0.1,23.1-0.2,34.6-0.2l34.6-0.1l34.6,0.1c11.5,0,23.1,0.2,34.6,0.2l-2.4,1.6
				c3.3-7.8,6.7-15.5,10.1-23.2l10.2-23.2l10.3-23.1c3.5-7.7,6.9-15.4,10.5-23.1l0.2-0.5l0.5,0l11,0.4l11,0.4l-11,0.4l-11,0.4
				l0.7-0.5c-3,7.9-6.1,15.7-9.2,23.6l-9.3,23.5l-9.5,23.5c-3.1,7.8-6.3,15.6-9.6,23.4l-0.7,1.6l-1.8,0c-11.5,0.1-23.1,0.2-34.6,0.2
				l-34.6,0.1l-34.6-0.1c-11.5,0-23.1-0.2-34.6-0.2l-1.8,0l-0.7-1.6c-3.4-7.8-6.7-15.6-10-23.4l-9.9-23.5l-9.8-23.5
				c-3.2-7.9-6.5-15.7-9.6-23.6l0.7,0.5l-11-0.4L20.2,100.5z"/>
		</g>
		<g class="st1">
			<path class="st2" d="M136.8,56.5h-3.8V29.8v-2v-1l0-1H133c-0.2,0.5-0.3,0.8-0.5,1.3c-0.2,0.5-0.3,0.5-0.8,1.9l-11.4,27.6h-3.8
				l-11.4-27.3l-0.6-1.5l-0.3-0.8l-0.3-0.8H104l0,0.9v1v1.8v26.7h-3.8V23.2h6.5l8.9,21.6l1.4,3.5l0.7,1.8l0.7,1.8h0.1l0.7-1.8
				l0.7-1.8l1.4-3.5l8.8-21.6h6.6V56.5z"/>
			<path class="st2" d="M147.4,49.5l-2.6,7.1h-4L153,23.2h5.3l12.5,33.4h-4l-2.6-7.1H147.4z M155.7,26.2l-7.3,20.3h14.7L155.7,26.2z
				"/>
			<path class="st2" d="M174.2,23.2h14c4.3,0,5.5,0.2,7,0.8c2.8,1.2,4,4.2,4,9.5c0,5-1.3,7.8-4,9.2c-1.5,0.8-1.8,0.8-7.6,0.9h-9.7
				v13.1h-3.8V23.2z M186.8,40.2c7.4,0,8.6-0.9,8.6-6.6c0-4.4-0.5-6-2-6.7c-1-0.5-1.4-0.5-5.4-0.6h-10.1v13.8H186.8z"/>
		</g>
		<g class="st1">
			<g>
				<path class="st3" d="M87.8,145.5v4.6c2.4-1.6,4.8-3.2,7.2-4.8c5.8-3.8,11.5-7.5,17.3-11.3h-8.1
					C98.8,137.9,93.3,141.7,87.8,145.5z"/>
			</g>
			<g>
				<path class="st3" d="M96.4,146.2c-2.8,2-5.7,3.9-8.6,5.8v4.6c5.6-3.8,11.1-7.6,16.8-11.4c5.7-3.8,11.5-7.5,17.3-11.3h-8.1
					C108.1,138.1,102.2,142.2,96.4,146.2z"/>
			</g>
			<g>
				<path class="st3" d="M87.9,143.7c4.9-3.2,9.8-6.4,14.8-9.6C94.9,134.4,88.6,138.5,87.9,143.7z"/>
			</g>
			<g>
				<path class="st3" d="M106,146.2c-6,4.1-12.1,8.2-18.2,12.2v4.9c8.8-6,17.4-12.1,26.4-18c5.8-3.8,11.5-7.5,17.3-11.3h-8.1
					C117.7,138.1,111.8,142.2,106,146.2z"/>
			</g>
			<g>
				<path class="st3" d="M135.6,163.3c8.8-6,17.5-12.1,26.4-18c5.8-3.8,11.5-7.5,17.3-11.3h-8.1c-5.8,4.1-11.6,8.1-17.4,12.2
					c-8.8,6-17.8,11.9-26.7,17.8l-26.8,17.8l-3.3,2.2c2,0.6,4.2,1,6.6,1h0.4l5.2-3.6L135.6,163.3z"/>
			</g>
			<g>
				<path class="st3" d="M126.1,163.3c8.8-6,17.5-12.1,26.4-18c5.7-3.8,11.5-7.5,17.3-11.3h-8.1c-5.8,4.1-11.6,8.1-17.4,12.2
					c-8.8,6-17.8,11.9-26.7,17.8l-25.9,17.2c1.3,1,2.8,1.8,4.6,2.5l3.4-2.4L126.1,163.3z"/>
			</g>
			<g>
				<path class="st3" d="M115.6,146.2c-8.8,6-17.8,11.9-26.7,17.8l-1,0.7v5.1l9.5-6.5c8.8-6,17.5-12.1,26.4-18
					c5.8-3.8,11.5-7.5,17.3-11.3H133C127.2,138.1,121.4,142.2,115.6,146.2z"/>
			</g>
			<g>
				<path class="st3" d="M215.9,180.5c1.9-1.8,3-3.9,3-6.2v-1.2l-13.1,8.7l-4.7,3.1h2c3.6,0,6.8-0.8,9.5-2.1l2.1-1.5L215.9,180.5z"
					/>
			</g>
			<g>
				<path class="st3" d="M108,164l-19.6,13c0.5,1.3,1.5,2.6,2.7,3.6l25.4-17.4c8.8-6,17.5-12.1,26.4-18c5.8-3.8,11.5-7.5,17.3-11.3
					h-8.1c-5.8,4.1-11.6,8.1-17.4,12.2C126,152.2,116.9,158.1,108,164z"/>
			</g>
			<g>
				<path class="st3" d="M125.1,146.2c-8.8,6-17.8,11.9-26.7,17.8l-10.6,7v3.2c0,0.7,0.1,1.3,0.3,1.9l18.8-12.9
					c8.8-6,17.5-12.1,26.4-18c5.7-3.8,11.5-7.5,17.3-11.3h-8.1C136.8,138.1,131,142.2,125.1,146.2z"/>
			</g>
			<g>
				<path class="st3" d="M166.7,181.3l26.4-18.1c8.6-5.9,17.1-11.8,25.8-17.6v-1c0-1.1-0.3-2.2-0.7-3.2c-2.3,1.6-4.5,3.1-6.8,4.7
					c-8.8,6-17.8,11.9-26.7,17.8l-26.8,17.8l-4.7,3.1h8.4L166.7,181.3z"/>
			</g>
			<g>
				<path class="st3" d="M185.9,181.3l26.4-18.1c2.2-1.5,4.4-3,6.6-4.6V154c-5,3.3-10.1,6.7-15.1,10L177,181.8l-4.7,3.1h8.4
					L185.9,181.3z"/>
			</g>
			<g>
				<path class="st3" d="M176.3,181.3l26.4-18.1c5.4-3.7,10.8-7.4,16.2-11.1v-4.6c-8.1,5.5-16.4,11-24.7,16.4l-26.8,17.8l-4.7,3.1
					h8.4L176.3,181.3z"/>
			</g>
			<g>
				<path class="st3" d="M118.8,181.3l26.4-18.1c8.8-6,17.5-12.1,26.4-18c5.8-3.8,11.5-7.5,17.3-11.3h-8.1
					c-5.8,4.1-11.6,8.1-17.4,12.2c-8.8,6-17.8,11.9-26.7,17.8L110,181.8l-4.7,3.1h8.4L118.8,181.3z"/>
			</g>
			<g>
				<polygon class="st3" points="205.1,181.3 218.9,171.9 218.9,166.7 196.2,181.8 191.4,184.9 199.8,184.9 				"/>
			</g>
			<g>
				<path class="st3" d="M195.5,181.3l23.4-16v-4.9c-1.8,1.2-3.7,2.4-5.5,3.6l-26.8,17.8l-4.7,3.1h8.4L195.5,181.3z"/>
			</g>
			<g>
				<path class="st3" d="M138,181.3l26.4-18.1c8.8-6,17.5-12.1,26.4-18c5.5-3.6,11.1-7.2,16.6-10.8c-1.4-0.3-2.9-0.4-4.4-0.4h-3
					c-5.8,4.1-11.6,8.1-17.4,12.2c-8.8,6-17.8,11.9-26.7,17.8l-26.8,17.8l-4.7,3.1h8.4L138,181.3z"/>
			</g>
			<g>
				<path class="st3" d="M128.4,181.3l26.4-18.1c8.8-6,17.5-12.1,26.4-18c5.8-3.8,11.5-7.5,17.3-11.3h-8.1
					c-5.8,4.1-11.6,8.1-17.4,12.2c-8.8,6-17.8,11.9-26.7,17.8l-26.8,17.8l-4.7,3.1h8.4L128.4,181.3z"/>
			</g>
			<g>
				<path class="st3" d="M157.2,181.3l26.4-18.1c8.8-6,17.5-12.1,26.4-18c2.5-1.6,5-3.3,7.5-4.9c-0.7-1.1-1.8-2.1-3-3
					c-4.2,3-8.5,5.9-12.7,8.9c-8.8,6-17.8,11.9-26.7,17.8l-26.8,17.8l-4.7,3.1h8.4L157.2,181.3z"/>
			</g>
			<g>
				<path class="st3" d="M147.6,181.3l26.4-18.1c8.8-6,17.5-12.1,26.4-18c4.4-2.9,8.7-5.7,13.1-8.6c-1.4-0.8-3.1-1.5-4.9-2
					c-5.4,3.9-10.9,7.7-16.5,11.5c-8.8,6-17.8,11.9-26.7,17.8l-26.8,17.8l-4.7,3.1h8.4L147.6,181.3z"/>
			</g>
		</g>
		<g class="st1">
			<path class="st3" d="M277.7,93.4c-4.1,0.6-8.1,1.3-12.1,2.1c-4,0.8-8,1.8-11.9,2.9c-3.9,1.2-7.6,2.7-11.1,4.6
				c-3.5,1.9-6.7,4.3-9.7,7c-3,2.7-6.1,5.6-9.5,8.1c-3.4,2.6-7.2,4.6-11.2,6.2c-7.9,3.2-16.4,4.8-24.7,4.3l-0.1-0.5
				c4-1.1,7.9-2.3,11.7-3.6c3.8-1.4,7.5-2.9,11-4.7c3.6-1.8,7-3.7,10.3-5.9c3.3-2.1,6.5-4.6,9.8-7.2c3.3-2.6,6.9-4.9,10.8-6.8
				c3.8-1.8,7.9-3.1,11.9-4.1c8.2-1.8,16.4-2.6,24.6-3L277.7,93.4z"/>
		</g>
		<g class="st1">
			<path class="st3" d="M277.6,93.5c-14.4,0.8-28.9,2-42.9,5c-7,1.5-13.9,3.4-20.6,5.9c-6.7,2.5-13.2,5.5-19.8,8.5
				c-6.6,3-13.3,6-20.2,8.4c-6.9,2.4-13.9,4.4-21,6.1c-7.1,1.6-14.4,2.8-21.8,3.1c-7.3,0.2-14.8-0.5-21.7-2.9l0.1-0.5
				c7.1,1.2,14.3,1.1,21.3,0.3c7.1-0.9,14-2.5,20.9-4.4c6.9-1.9,13.7-4.2,20.5-6.5c6.8-2.3,13.5-4.8,20.1-7.5
				c6.7-2.7,13.4-5.6,20.4-7.8c6.9-2.3,14.1-4,21.3-5.2c3.6-0.6,7.2-1.1,10.8-1.5c3.6-0.4,7.2-0.7,10.9-0.9
				c7.2-0.4,14.5-0.6,21.7-0.5L277.6,93.5z"/>
		</g>
		<g class="st1">
			<path class="st3" d="M277.1,93.5c-17.4-0.1-34.7,0.7-51.9,2.9c-8.6,1-17.2,2.4-25.6,4c-8.5,1.7-16.9,3.6-25.3,5.8
				c-8.4,2.2-16.8,4.4-25.3,6.5c-8.5,2.1-17,3.8-25.6,5.2l-3.2,0.5l-3.3,0.5c-2.2,0.2-4.4,0.5-6.6,0.6c-4.4,0.2-8.9,0.1-13.3-0.3
				c-8.8-0.8-17.5-2.7-25.7-5.7l0.1-0.5c8.5,1.6,17.1,2.6,25.7,2.7c4.3,0,8.5-0.2,12.8-0.6c2.1-0.2,4.2-0.5,6.3-0.8l3.1-0.6l3.2-0.6
				c17-3.4,33.9-6.8,50.9-10.8c8.5-1.9,17.1-3.7,25.7-5.1c8.6-1.4,17.3-2.5,26-3.3c17.4-1.5,34.8-1.8,52.2-0.9L277.1,93.5z"/>
		</g>
	</g>
	<g class="st0">
		<g class="st1">
			<path class="st3" d="M20.5,109.5l11-0.4l11-0.4l0.5,0l0.2,0.5L54,129.9l10.7,20.9c3.6,7,7.1,13.9,10.6,20.9
				c3.5,7,7.1,13.9,10.5,21l-2.4-1.5c11.5-0.1,23.1-0.3,34.6-0.3l34.6-0.1l34.6,0.1c11.5,0,23.1,0.2,34.6,0.3l-2.4,1.5
				c3.3-7,6.7-14,10.1-21c3.4-7,6.7-14,10.2-20.9l10.3-20.9l10.4-20.8l0.2-0.5l0.5,0l11,0.4l11,0.4l-11,0.4l-11,0.4l0.7-0.5
				l-9.2,21.4l-9.4,21.3c-3.1,7.1-6.3,14.2-9.5,21.2c-3.2,7.1-6.3,14.2-9.6,21.2l-0.7,1.5l-1.7,0c-11.5,0.1-23.1,0.3-34.6,0.3
				l-34.6,0.1l-34.6-0.1c-11.5,0-23.1-0.2-34.6-0.3l-1.7,0l-0.7-1.5c-3.4-7.1-6.7-14.1-10-21.2c-3.3-7.1-6.7-14.1-9.9-21.2
				l-9.8-21.3l-9.7-21.4l0.7,0.4l-11-0.4L20.5,109.5z"/>
		</g>
		<g class="st1">
			<path class="st2" d="M40.4,39.4h16.9v3.2H40.4V55H58v3.3H36.6V24.9H58v3.3H40.4V39.4z"/>
			<path class="st2" d="M67.8,51.2l-2.5,7.1h-4l12.2-33.4h5.3l12.5,33.4h-4l-2.6-7.1H67.8z M76.2,27.9l-7.3,20.3h14.7L76.2,27.9z"/>
			<path class="st2" d="M114.3,33.9c0-2.5-0.2-3.4-0.7-4.3c-0.9-1.5-2.5-1.9-7-1.9c-5.2,0-7,0.3-8,1.5c-0.8,0.9-1.2,2.3-1.2,4.4
				c0,3,0.7,4.5,2.4,5.2c1.1,0.4,1.4,0.5,6.9,0.7c6.2,0.3,8,0.6,9.5,1.8c1.8,1.4,2.4,3.4,2.4,7.4c0,4.6-0.8,7-2.8,8.3
				c-1.9,1.2-4.3,1.5-11.1,1.5c-4.7,0-6.2-0.3-8.2-1.3c-1.3-0.8-2.3-2.4-2.7-4.1c-0.3-1.5-0.4-2.4-0.5-5.3h3.8
				c0.1,3.6,0.1,4.3,0.8,5.5c0.9,1.7,2,2,8,2c8.1,0,8.9-0.7,8.9-6.9c0-2.8-0.5-4.1-2-4.7c-1-0.4-1-0.4-7.1-0.8
				c-6.2-0.3-6.7-0.4-8.3-1.2c-2.7-1.3-3.8-3.6-3.8-7.8c0-3.9,0.8-6.3,2.5-7.5c1.9-1.5,4.3-2,10-2c6.3,0,8.9,0.6,10.4,2.8
				c1,1.4,1.5,3.1,1.5,6.1v0.5H114.3z"/>
			<path class="st2" d="M136.1,44.3v14h-3.8v-14l-12.3-19.4h4.3l7.2,11.3c1,1.7,1.6,2.6,1.8,2.9c0.3,0.5,0.6,1,0.9,1.5h0.1
				c0.4-0.7,1-1.6,1.3-2.2l1.4-2.2l7.2-11.3h4.5L136.1,44.3z"/>
			<path class="st2" d="M164.1,24.9h14c4.3,0,5.5,0.2,7,0.8c2.8,1.2,4.1,4.2,4.1,9.5c0,5-1.3,7.8-4.1,9.2c-1.5,0.8-1.8,0.8-7.6,0.9
				h-9.7v13.1h-3.8V24.9z M176.8,41.9c7.4,0,8.6-0.9,8.6-6.6c0-4.4-0.5-6-2-6.7c-1-0.5-1.4-0.5-5.4-0.6h-10.1v13.8H176.8z"/>
			<path class="st2" d="M197.4,39.4h16.9v3.2h-16.9V55H215v3.3h-21.4V24.9H215v3.3h-17.7V39.4z"/>
			<path class="st2" d="M223.6,39.4h16.9v3.2h-16.9V55h17.7v3.3h-21.4V24.9h21.4v3.3h-17.7V39.4z"/>
			<path class="st2" d="M249.9,54.7H267v3.5h-20.9V24.9h3.8V54.7z"/>
		</g>
		<g class="st1">
			<g>
				<path class="st3" d="M86.3,125.3v6.9c2.4-2.5,4.8-4.9,7.2-7.3c5.8-5.7,11.5-11.4,17.3-17.1h-8.1
					C97.3,113.7,91.8,119.5,86.3,125.3z"/>
			</g>
			<g>
				<path class="st3" d="M94.9,126.3c-2.8,3-5.7,5.9-8.6,8.8v7c5.6-5.8,11.1-11.6,16.8-17.2c5.7-5.7,11.5-11.4,17.3-17.1h-8.1
					C106.5,114,100.7,120.2,94.9,126.3z"/>
			</g>
			<g>
				<path class="st3" d="M86.3,122.5c4.9-4.9,9.8-9.8,14.8-14.6C93.4,108.4,87.1,114.6,86.3,122.5z"/>
			</g>
			<g>
				<path class="st3" d="M104.4,126.3c-6,6.2-12.1,12.4-18.2,18.5v7.4c8.8-9.1,17.4-18.3,26.4-27.2c5.8-5.7,11.5-11.4,17.3-17.1
					h-8.1C116.1,114,110.3,120.2,104.4,126.3z"/>
			</g>
			<g>
				<path class="st3" d="M134.1,152.2c8.8-9.1,17.5-18.3,26.4-27.3c5.8-5.7,11.5-11.4,17.3-17.1h-8.1c-5.8,6.2-11.6,12.3-17.4,18.5
					c-8.8,9.1-17.8,18-26.7,27l-26.8,27l-3.3,3.3c2,0.9,4.2,1.5,6.6,1.5h0.4l5.2-5.5L134.1,152.2z"/>
			</g>
			<g>
				<path class="st3" d="M124.5,152.2c8.8-9.1,17.5-18.3,26.4-27.3c5.7-5.7,11.5-11.4,17.3-17.1h-8.1c-5.8,6.2-11.6,12.3-17.4,18.5
					c-8.8,9.1-17.8,18-26.7,27l-25.9,26.1c1.3,1.5,2.8,2.8,4.6,3.7l3.4-3.6L124.5,152.2z"/>
			</g>
			<g>
				<path class="st3" d="M114,126.3c-8.8,9.1-17.8,18-26.7,27l-1,1v7.7l9.5-9.9c8.8-9.1,17.5-18.3,26.4-27.3
					c5.8-5.7,11.5-11.4,17.3-17.1h-8.1C125.7,114,119.8,120.2,114,126.3z"/>
			</g>
			<g>
				<path class="st3" d="M214.4,178.3c1.9-2.7,3-5.9,3-9.4v-1.8l-13.1,13.2l-4.7,4.8h2c3.6,0,6.8-1.2,9.5-3.2l2.1-2.2L214.4,178.3z"
					/>
			</g>
			<g>
				<path class="st3" d="M106.5,153.3l-19.6,19.7c0.5,2,1.5,3.9,2.7,5.5l25.4-26.4c8.8-9.1,17.5-18.3,26.4-27.3
					c5.8-5.7,11.5-11.4,17.3-17.1h-8.1c-5.8,6.2-11.6,12.3-17.4,18.5C124.4,135.5,115.4,144.4,106.5,153.3z"/>
			</g>
			<g>
				<path class="st3" d="M123.6,126.3c-8.8,9.1-17.8,18-26.7,27L86.3,164v4.8c0,1,0.1,2,0.3,2.9l18.8-19.5
					c8.8-9.1,17.5-18.3,26.4-27.3c5.7-5.7,11.5-11.4,17.3-17.1H141C135.3,114,129.4,120.2,123.6,126.3z"/>
			</g>
			<g>
				<path class="st3" d="M165.2,179.6l26.4-27.4c8.6-8.9,17.1-17.9,25.8-26.6v-1.5c0-1.7-0.3-3.3-0.7-4.9c-2.3,2.4-4.5,4.8-6.8,7.2
					c-8.8,9.1-17.8,18-26.7,27l-26.8,27l-4.7,4.8h8.4L165.2,179.6z"/>
			</g>
			<g>
				<path class="st3" d="M184.3,179.6l26.4-27.4c2.2-2.3,4.4-4.6,6.6-6.9v-7.1c-5,5.1-10.1,10.1-15.1,15.1l-26.8,27l-4.7,4.8h8.4
					L184.3,179.6z"/>
			</g>
			<g>
				<path class="st3" d="M174.8,179.6l26.4-27.4c5.4-5.6,10.8-11.3,16.2-16.9v-6.9c-8.1,8.4-16.4,16.6-24.7,24.9l-26.8,27l-4.7,4.8
					h8.4L174.8,179.6z"/>
			</g>
			<g>
				<path class="st3" d="M117.3,179.6l26.4-27.4c8.8-9.1,17.5-18.3,26.4-27.3c5.8-5.7,11.5-11.4,17.3-17.1h-8.1
					c-5.8,6.2-11.6,12.3-17.4,18.5c-8.8,9.1-17.8,18-26.7,27l-26.8,27l-4.7,4.8h8.4L117.3,179.6z"/>
			</g>
			<g>
				<polygon class="st3" points="203.5,179.6 217.3,165.2 217.3,157.4 194.6,180.3 189.9,185.1 198.3,185.1 				"/>
			</g>
			<g>
				<path class="st3" d="M193.9,179.6l23.4-24.3v-7.5c-1.8,1.8-3.7,3.7-5.5,5.5l-26.8,27l-4.7,4.8h8.4L193.9,179.6z"/>
			</g>
			<g>
				<path class="st3" d="M136.5,179.6l26.4-27.4c8.8-9.1,17.5-18.3,26.4-27.3c5.5-5.5,11.1-11,16.6-16.4c-1.4-0.4-2.9-0.7-4.4-0.7
					h-3c-5.8,6.2-11.6,12.3-17.4,18.5c-8.8,9.1-17.8,18-26.7,27l-26.8,27l-4.7,4.8h8.4L136.5,179.6z"/>
			</g>
			<g>
				<path class="st3" d="M126.9,179.6l26.4-27.4c8.8-9.1,17.5-18.3,26.4-27.3c5.8-5.7,11.5-11.4,17.3-17.1h-8.1
					c-5.8,6.2-11.6,12.3-17.4,18.5c-8.8,9.1-17.8,18-26.7,27l-26.8,27l-4.7,4.8h8.4L126.9,179.6z"/>
			</g>
			<g>
				<path class="st3" d="M155.6,179.6l26.4-27.4c8.8-9.1,17.5-18.3,26.4-27.3c2.5-2.5,5-5,7.5-7.5c-0.7-1.7-1.8-3.2-3-4.5
					c-4.2,4.5-8.5,9-12.7,13.4c-8.8,9.1-17.8,18-26.7,27l-26.8,27l-4.7,4.8h8.4L155.6,179.6z"/>
			</g>
			<g>
				<path class="st3" d="M146,179.6l26.4-27.4c8.8-9.1,17.5-18.3,26.4-27.3c4.4-4.3,8.7-8.7,13.1-13c-1.4-1.3-3.1-2.3-4.9-3
					c-5.4,5.8-10.9,11.6-16.5,17.4c-8.8,9.1-17.8,18-26.7,27l-26.8,27l-4.7,4.8h8.4L146,179.6z"/>
			</g>
		</g>
		<g class="st1">
			<path class="st2" d="M20.5,98l16.9-0.5l16.9-0.4L88,96.4l67.5-1.2l33.8-0.8c11.3-0.2,22.5-0.2,33.8,0.1
				c11.1,0.2,22.3,0.2,33.2-1.2c5.4-0.8,10.8-1.8,15.7-3.9c2.5-1.1,4.8-2.4,6.7-4.2c1.9-1.8,3.4-4.1,4-6.8l0.8,0.1
				c-0.1,1.4-0.4,2.9-0.9,4.3c-0.5,1.4-1.3,2.7-2.2,3.9c-1.8,2.4-4.2,4.3-6.8,5.8c-2.5,1.5-5.3,2.7-8,3.7c-2.7,1-5.6,1.8-8.4,2.4
				c-5.6,1.3-11.3,2.1-17,2.7c-5.7,0.6-11.4,0.8-17.1,1c-11.3,0.3-22.5,0.4-33.8,0.1l-33.8-0.8L88,100.4l-33.8-0.8l-16.9-0.4
				l-16.9-0.5V98z"/>
		</g>
	</g>
	<g class="st0">
		<g class="st1">
			
				<rect x="81.3" y="129.8" transform="matrix(0.8909 -0.4542 0.4542 0.8909 -43.2607 81.6046)" class="st2" width="133.8" height="2"/>
		</g>
		<g class="st1">
			<rect x="150.2" y="129.2" class="st2" width="2" height="46.8"/>
		</g>
		<g class="st1">
			
				<rect x="184.6" y="109.5" transform="matrix(0.5377 -0.8431 0.8431 0.5377 -40.8842 225.9708)" class="st2" width="2" height="81.5"/>
		</g>
		<g class="st1">
			
				<rect x="118.6" y="71.5" transform="matrix(0.5411 -0.841 0.841 0.5411 -36.4193 150.3986)" class="st2" width="2" height="74.2"/>
		</g>
		<g class="st1">
			<path class="st2" d="M106.5,3.2h12.9c4,0,6.3,0.7,7.8,2.4c1.8,2.1,2.4,4.6,2.4,10.3c0,6.8-0.3,9.1-1.4,11.1c-1.1,2-2.5,3-4.8,3.5
				c-1.3,0.3-2.5,0.5-3.3,0.5h-13.6V3.2z M118.6,28.3c3,0,5.2-0.6,6.2-1.8c1.2-1.5,1.6-3.5,1.6-8.9c0-6.7-0.3-8.3-1.5-9.9
				c-1-1.3-2.6-1.8-5.6-1.8h-9.7v22.4H118.6z"/>
			<path class="st2" d="M136.6,25.2l-2.1,5.9h-3.3l10.2-27.8h4.4l10.4,27.8h-3.3l-2.2-5.9H136.6z M143.6,5.8l-6.1,16.9h12.3
				L143.6,5.8z"/>
			<path class="st2" d="M165.9,31.1h-3.1V6.1h-9.1V3.2h21.2v3l-9,0V31.1z"/>
			<path class="st2" d="M178,25.2l-2.1,5.9h-3.3l10.2-27.8h4.4l10.4,27.8h-3.3l-2.2-5.9H178z M184.9,5.8l-6.1,16.9h12.3L184.9,5.8z"
				/>
			<path class="st2" d="M47.1,66.2H44V43.9v-1.7v-0.8l0-0.8h-0.1c-0.1,0.4-0.3,0.7-0.4,1c-0.2,0.4-0.2,0.5-0.6,1.5l-9.5,23h-3.2
				l-9.5-22.7l-0.5-1.3L20,41.4l-0.3-0.6h-0.1l0,0.8v0.8v1.5v22.3h-3.1V38.3H22l7.4,18l1.2,2.9l0.6,1.5l0.6,1.5h0.1l0.6-1.5l0.6-1.5
				l1.2-2.9l7.4-18h5.5V66.2z"/>
			<path class="st2" d="M55.9,60.3l-2.1,5.9h-3.3l10.2-27.8h4.4l10.4,27.8h-3.3L70,60.3H55.9z M62.9,40.9l-6.1,16.9h12.3L62.9,40.9z
				"/>
			<path class="st2" d="M102,66.2h-5.1L85.2,47.2l-1.9-3.1l-1-1.5L81.5,41h-0.1l0,1v1v2.1v21h-3.1V38.3h5.1l10.1,16.6l2.7,4.3
				l1.3,2.2l1.3,2.2h0.1l0-1v-1v-2.1V38.3h3.1V66.2z"/>
			<path class="st2" d="M110.8,60.3l-2.1,5.9h-3.3l10.2-27.8h4.4l10.4,27.8h-3.3l-2.2-5.9H110.8z M117.8,40.9l-6.1,16.9H124
				L117.8,40.9z"/>
			<path class="st2" d="M155.2,52.3c0.1,1.2,0.1,1.3,0.1,3c0,5.1-0.2,6.5-1,8c-0.7,1.3-1.8,2.1-3.4,2.6c-1.1,0.3-3.4,0.5-6.9,0.5
				c-5.5,0-7.4-0.4-9.4-2c-1.3-1-2.2-3.3-2.3-5.6c0-1.3,0-1.5-0.1-6.9v-1.2c0-5,0.3-7.1,1.3-9.2c0.9-1.8,2.5-2.8,4.9-3.3
				c0.9-0.2,2.7-0.3,5.3-0.3c6.3,0,7.3,0.2,9.3,1.4c1,0.7,1.8,2,2.1,3.4c0.1,1,0.2,1.5,0.2,3.6h-3.1c0-5.4-0.5-5.7-8.8-5.7
				c-4.8,0-6.3,0.5-7.1,2.2c-0.6,1.4-0.8,3.2-0.8,8.9c0,7.3,0.1,8.3,0.8,9.7c0.9,1.8,2.6,2.2,8.4,2.2c7.1,0,7.7-0.5,7.7-7.1
				c0-0.3,0-0.9,0-1.6h-8.8v-2.7H155.2z"/>
			<path class="st2" d="M162.7,50.5h14.1v2.6h-14.1v10.3h14.7v2.7h-17.9V38.3h17.9V41h-14.7V50.5z"/>
			<path class="st2" d="M211.9,66.2h-3.1V43.9v-1.7v-0.8l0-0.8h-0.1c-0.1,0.4-0.3,0.7-0.4,1c-0.2,0.4-0.2,0.5-0.6,1.5l-9.5,23h-3.2
				l-9.5-22.7l-0.5-1.3l-0.3-0.7l-0.3-0.6h-0.1l0,0.8v0.8v1.5v22.3h-3.1V38.3h5.4l7.4,18l1.2,2.9l0.6,1.5l0.6,1.5h0.1l0.6-1.5
				l0.6-1.5l1.2-2.9l7.4-18h5.5V66.2z"/>
			<path class="st2" d="M220.4,50.5h14.1v2.6h-14.1v10.3h14.7v2.7h-17.9V38.3h17.9V41h-14.7V50.5z"/>
			<path class="st2" d="M262.9,66.2h-5.1l-11.7-18.9l-1.9-3.1l-1-1.5l-0.9-1.5h-0.1l0,1v1v2.1v21h-3.1V38.3h5.1l10.1,16.6l2.7,4.3
				l1.3,2.2l1.3,2.2h0.1l0-1v-1v-2.1V38.3h3.1V66.2z"/>
			<path class="st2" d="M278.4,66.2h-3.1V41.2h-9.1v-2.9h21.2v3l-9,0V66.2z"/>
		</g>
		<g class="st1">
			<circle class="st4" cx="80.4" cy="165.3" r="15.8"/>
			<path class="st3" d="M80.4,182.5c-9.5,0-17.3-7.7-17.3-17.3S70.9,148,80.4,148s17.3,7.7,17.3,17.3S89.9,182.5,80.4,182.5z
				 M80.4,151c-7.9,0-14.3,6.4-14.3,14.3s6.4,14.3,14.3,14.3s14.3-6.4,14.3-14.3S88.3,151,80.4,151z"/>
		</g>
		<g class="st1">
			<circle class="st3" cx="208.4" cy="100.2" r="12.7"/>
		</g>
		<g class="st1">
			<circle class="st3" cx="151.2" cy="184.9" r="11.9"/>
		</g>
		<g class="st1">
			<circle class="st4" cx="88.8" cy="88.5" r="7.4"/>
			<path class="st3" d="M88.8,97.4c-4.9,0-8.9-4-8.9-8.9c0-4.9,4-8.9,8.9-8.9c4.9,0,8.9,4,8.9,8.9C97.7,93.4,93.7,97.4,88.8,97.4z
				 M88.8,82.6c-3.2,0-5.9,2.6-5.9,5.9s2.6,5.9,5.9,5.9s5.9-2.6,5.9-5.9S92,82.6,88.8,82.6z"/>
		</g>
		<g class="st1">
			<circle class="st3" cx="218.9" cy="171.5" r="10.9"/>
		</g>
		<g class="st1">
			<circle class="st4" cx="151.3" cy="129.2" r="25.3"/>
			<path class="st3" d="M151.3,155.9c-14.8,0-26.8-12-26.8-26.8s12-26.8,26.8-26.8s26.8,12,26.8,26.8S166,155.9,151.3,155.9z
				 M151.3,105.4c-13.1,0-23.8,10.7-23.8,23.8s10.7,23.8,23.8,23.8s23.8-10.7,23.8-23.8S164.4,105.4,151.3,105.4z"/>
		</g>
	</g>
	<g class="st0">
		<g class="st1">
			<g>
				<path class="st3" d="M227.1,166.8V158c-2.9,3.1-5.8,6.2-8.7,9.3c-6.9,7.3-13.9,14.6-20.9,21.8h9.7
					C213.8,181.6,220.4,174.2,227.1,166.8z"/>
			</g>
			<g>
				<path class="st3" d="M216.7,165.5c3.4-3.8,6.9-7.5,10.4-11.2v-8.9c-6.7,7.4-13.4,14.8-20.3,22c-6.9,7.3-13.9,14.6-20.9,21.8h9.7
					C202.6,181.2,209.7,173.3,216.7,165.5z"/>
			</g>
			<g>
				<path class="st3" d="M227,170.4c-5.9,6.2-11.9,12.4-17.9,18.6C218.5,188.4,226.1,180.5,227,170.4z"/>
			</g>
			<g>
				<path class="st3" d="M205.1,165.5c7.2-8,14.6-15.8,21.9-23.5v-9.4c-10.6,11.6-21.1,23.3-31.8,34.7c-6.9,7.3-13.9,14.6-20.9,21.8
					h9.7C191,181.2,198.1,173.3,205.1,165.5z"/>
			</g>
			<g>
				<path class="st3" d="M169.3,132.5c-10.6,11.6-21.1,23.4-31.9,34.8c-6.9,7.3-13.9,14.6-20.9,21.8h9.7c7-7.9,14-15.7,21.1-23.6
					c10.6-11.7,21.5-23,32.3-34.5l32.3-34.4l4-4.2c-2.4-1.2-5.1-1.9-7.9-1.9h-0.4l-6.3,7L169.3,132.5z"/>
			</g>
			<g>
				<path class="st3" d="M180.9,132.5c-10.6,11.6-21.1,23.4-31.9,34.8c-6.9,7.3-13.9,14.6-20.9,21.8h9.7c7-7.9,14-15.7,21.1-23.6
					c10.6-11.7,21.5-23,32.3-34.5l31.3-33.2c-1.6-1.9-3.4-3.6-5.5-4.8l-4.1,4.6L180.9,132.5z"/>
			</g>
			<g>
				<path class="st3" d="M193.6,165.5c10.6-11.7,21.5-23,32.3-34.5l1.2-1.3v-9.8l-11.5,12.6c-10.6,11.6-21.1,23.4-31.9,34.8
					c-6.9,7.3-13.9,14.6-20.9,21.8h9.7C179.5,181.2,186.5,173.3,193.6,165.5z"/>
			</g>
			<g>
				<path class="st3" d="M72.4,99.3c-2.2,3.4-3.6,7.5-3.6,12v2.2l15.9-16.9l5.7-6.1H88c-4.3,0-8.2,1.5-11.4,4.1l-2.6,2.8L72.4,99.3z
					"/>
			</g>
			<g>
				<path class="st3" d="M202.7,131.1l23.7-25.2c-0.7-2.6-1.8-5-3.2-7l-30.7,33.7c-10.6,11.6-21.1,23.4-31.9,34.8
					c-6.9,7.3-13.9,14.6-20.9,21.8h9.7c7-7.9,14-15.7,21.1-23.6C181,153.9,191.9,142.5,202.7,131.1z"/>
			</g>
			<g>
				<path class="st3" d="M182,165.5c10.6-11.7,21.5-23,32.3-34.5l12.8-13.6v-6.1c0-1.3-0.1-2.5-0.3-3.7L204,132.5
					c-10.6,11.6-21.1,23.4-31.9,34.8c-6.9,7.3-13.9,14.6-20.9,21.8h9.7C167.9,181.2,175,173.3,182,165.5z"/>
			</g>
			<g>
				<path class="st3" d="M131.8,97.6l-31.8,34.9c-10.3,11.4-20.6,22.8-31.1,34v1.9c0,2.2,0.3,4.3,0.9,6.2c2.7-3,5.5-6.1,8.2-9.1
					c10.6-11.7,21.5-23,32.3-34.5l32.3-34.4l5.7-6.1h-10.1L131.8,97.6z"/>
			</g>
			<g>
				<path class="st3" d="M108.6,97.6l-31.8,34.9c-2.7,2.9-5.3,5.9-8,8.8v9.1c6.1-6.5,12.2-12.9,18.2-19.3l32.3-34.4l5.7-6.1H115
					L108.6,97.6z"/>
			</g>
			<g>
				<path class="st3" d="M120.2,97.6l-31.8,34.9c-6.5,7.2-13,14.4-19.6,21.5v8.8c9.8-10.7,19.8-21.2,29.8-31.8l32.3-34.4l5.7-6.1
					h-10.1L120.2,97.6z"/>
			</g>
			<g>
				<path class="st3" d="M189.6,97.6l-31.8,34.9c-10.6,11.6-21.1,23.4-31.9,34.8c-6.9,7.3-13.9,14.6-20.9,21.8h9.7
					c7-7.9,14-15.7,21.1-23.6c10.6-11.7,21.5-23,32.3-34.5l32.3-34.4l5.7-6.1h-10.1L189.6,97.6z"/>
			</g>
			<g>
				<polygon class="st3" points="85.5,97.6 68.8,115.9 68.8,125.9 96.2,96.7 102,90.6 91.8,90.6 				"/>
			</g>
			<g>
				<path class="st3" d="M97.1,97.6l-28.3,31v9.5c2.2-2.3,4.4-4.7,6.7-7.1l32.3-34.4l5.7-6.1h-10.1L97.1,97.6z"/>
			</g>
			<g>
				<path class="st3" d="M166.5,97.6l-31.8,34.9c-10.6,11.6-21.1,23.4-31.9,34.8c-6.7,7-13.4,14-20.1,20.9c1.7,0.5,3.5,0.8,5.3,0.8
					h3.6c7-7.9,14-15.7,21.1-23.6c10.6-11.7,21.5-23,32.3-34.5l32.3-34.4l5.7-6.1h-10.1L166.5,97.6z"/>
			</g>
			<g>
				<path class="st3" d="M178,97.6l-31.8,34.9c-10.6,11.6-21.1,23.4-31.9,34.8c-6.9,7.3-13.9,14.6-20.9,21.8h9.7
					c7-7.9,14-15.7,21.1-23.6c10.6-11.7,21.5-23,32.3-34.5l32.3-34.4l5.7-6.1h-10.1L178,97.6z"/>
			</g>
			<g>
				<path class="st3" d="M143.3,97.6l-31.8,34.9c-10.6,11.6-21.1,23.4-31.9,34.8c-3,3.2-6.1,6.4-9.1,9.5c0.9,2.2,2.1,4.1,3.6,5.8
					c5.1-5.7,10.2-11.4,15.4-17.1c10.6-11.7,21.5-23,32.3-34.5l32.3-34.4l5.7-6.1h-10.1L143.3,97.6z"/>
			</g>
			<g>
				<path class="st3" d="M154.9,97.6l-31.8,34.9c-10.6,11.6-21.1,23.4-31.9,34.8c-5.3,5.5-10.5,11.1-15.9,16.6
					c1.7,1.6,3.7,2.9,5.9,3.8c6.6-7.5,13.2-14.8,19.9-22.2c10.6-11.7,21.5-23,32.3-34.5l32.3-34.4l5.7-6.1h-10.1L154.9,97.6z"/>
			</g>
		</g>
		<g class="st1">
			<g>
				<path class="st2" d="M85.6,22.3L73.8,55.6h-5.4L56.5,22.3h4l8.9,25.2c0.4,1.1,0.8,2.2,1.1,3.4c0.3,0.6,0.3,0.8,0.6,1.8h0.1
					c0.5-1.8,0.9-2.9,1.6-5.1l8.8-25.3H85.6z"/>
			</g>
			<g>
				<path class="st2" d="M89.1,48.6l-2.6,7h-4l12.2-33.4h5.3l12.5,33.4h-4l-2.6-7H89.1z M97.4,25.3l-7.3,20.3h14.7L97.4,25.3z"/>
			</g>
			<g>
				<path class="st2" d="M141.6,44.5c0,6-0.2,7.2-1.6,8.9c-1.3,1.7-3.7,2.4-8,2.6c-1.3,0-3.3,0-5,0c-4.7,0-6.6-0.4-8.7-1.8
					c-1.6-1.1-2.8-3.3-3.1-5.7c-0.3-2-0.5-6.1-0.5-9.6c0-7.3,0-8.1,0.3-9.9c0.5-3.4,3.1-6,6.8-6.7c1.8-0.4,4.1-0.5,8.6-0.5
					c4.2,0,5.8,0.3,7.5,1.2c1.8,1,2.9,2.9,3.1,5.3c0.1,1.1,0.2,1.7,0.3,4.1h-3.8c0-3.6-0.2-4.6-0.8-5.6c-0.9-1.3-2.3-1.8-6.4-1.8
					c-4.7,0-7.7,0.3-8.9,0.8c-2.1,1-2.8,2.8-2.8,7.9c0,18.8,0.1,19,9.3,19c9,0,10-0.6,10-6.3v-1.9H141.6z"/>
			</g>
			<g>
				<path class="st2" d="M172.4,22.3v23.4c0,4-0.4,5.7-1.7,7.3c-1.9,2.4-4.4,3-11.8,3c-4.5,0-6.3-0.2-8-0.9
					c-3.8-1.4-4.9-3.7-4.9-9.5V22.3h3.8v23.4c0,2.7,0.2,4.1,0.7,4.9c1,1.7,3,2.2,8.3,2.2c8.9,0,9.9-0.8,9.9-7.1V22.3H172.4z"/>
			</g>
			<g>
				<path class="st2" d="M204.8,22.3v23.4c0,4-0.4,5.7-1.7,7.3c-2,2.4-4.4,3-11.8,3c-4.4,0-6.3-0.2-8-0.9c-3.8-1.4-5-3.7-5-9.5V22.3
					h3.8v23.4c0,2.7,0.2,4.1,0.7,4.9c1,1.7,2.9,2.2,8.3,2.2c8.9,0,9.9-0.8,9.9-7.1V22.3H204.8z"/>
			</g>
			<g>
				<path class="st2" d="M247.5,55.6h-3.8V28.9v-2v-1l0.1-1h-0.1c-0.2,0.5-0.3,0.8-0.5,1.3c-0.2,0.4-0.3,0.5-0.8,1.8l-11.3,27.6
					h-3.8L216,28.4l-0.6-1.5L215,26l-0.3-0.8h-0.1l0.1,0.9v0.9v1.8v26.7h-3.8V22.3h6.5l8.9,21.6l1.4,3.5l0.7,1.8l0.7,1.8h0.1
					l0.7-1.8l0.7-1.8l1.4-3.5l8.8-21.6h6.6V55.6z"/>
			</g>
		</g>
		<g class="st1">
			<path class="st2" d="M66.7,97.6l-0.9,20.9l-0.7,20.9l-0.5,20.9l-0.1,2.6c0,0.8,0,1.7,0.1,2.5c0.2,1.7,0.4,3.3,0.9,4.9
				c0.9,3.2,2.3,6.3,4.2,9c3.7,5.5,9.3,9.7,15.5,11.7c3.1,1,6.4,1.5,9.6,1.5l10.4-0.1l20.9-0.1l20.9,0.1c13.9,0.1,27.9,0.3,41.8,0.5
				l10.4,0.2c1.8,0,3.4,0.1,5.1-0.1c1.7-0.1,3.3-0.4,4.9-0.9c6.4-1.7,12.2-5.8,16.1-11.3c3.9-5.5,5.8-12.4,5.5-19.2l-0.9-20.9
				c-0.6-13.9-1.3-27.8-2.1-41.7l-0.1-1.3l0-0.7l0-0.3l0-0.4c0.1-1.1,0.5-2.1,1.1-3c0.7-0.8,1.6-1.5,2.7-1.8
				c0.5-0.2,1.1-0.2,1.6-0.2l1.3-0.1l10.4-0.6l20.9-1.1l10.4-0.6l5.2-0.3c0.8,0,1.4-0.1,1.8-0.4c0.4-0.2,0.5-0.4,0.6-0.7
				c0-0.1,0-0.2,0-0.3c0-0.1,0-0.1,0-0.2c0,0,0-0.1,0-0.1c0-0.1,0-0.1,0,0c0,0-0.1,0-0.3-0.1c-0.2-0.1-0.5-0.1-0.9-0.1l-5.2,0
				L267,86.8c-13.9,0.2-27.8,0.2-41.8,0.3l-41.8,0.2l-41.8,0L100,87.1C86,87,72.1,86.8,58.2,86.5L37.3,86l-10.4-0.2l-5.2-0.1
				L19,85.6c-0.4,0-0.7,0.1-0.8,0.1c0,0-0.1,0.1-0.1,0.5l-1.3,0.7l1.3-0.7c0,0.9,0.3,1.5,1.1,1.9c0.8,0.4,1.9,0.5,3,0.6l6.6,0.8
				l13.3,1.5l13.3,1.4l6.7,0.7c1.2,0.1,2.3,0.6,3.2,1.4C66.2,95.2,66.7,96.4,66.7,97.6z M66.2,97.6c0-1-0.4-2.1-1.2-2.8
				c-0.8-0.7-1.8-1.1-2.9-1.2L55.5,93l-13.3-1.2l-13.3-1.2L22.2,90c-1.1-0.1-2.3-0.1-3.5-0.6c-0.6-0.2-1.3-0.6-1.7-1.3
				c-0.4-0.6-0.6-1.4-0.6-2l1.3-0.7l-1.3,0.7c0-0.3,0-0.6,0.1-0.9c0.1-0.3,0.3-0.7,0.7-1c0.7-0.5,1.3-0.5,1.7-0.5l1.3-0.1
				c0.4,0,0.9,0,1.3,0l5.2-0.1l10.4-0.2l20.9-0.5C72,82.6,86,82.4,99.9,82.2l41.8-0.2l41.8,0l41.8,0.2c13.9,0.1,27.9,0.1,41.8,0.3
				l10.4,0.1l5.3,0.1c0.5,0,1.1,0.1,1.7,0.2c0.6,0.2,1.3,0.5,2,1.1c0.6,0.6,1,1.5,1.1,2.3c0,0.2,0,0.4,0,0.5c0,0.1,0,0.3,0,0.5
				c0,0.3-0.1,0.7-0.2,1c-0.2,0.7-0.5,1.4-1,1.9c-0.5,0.5-1.1,0.9-1.7,1.2c-1.2,0.5-2.3,0.6-3.3,0.6l-5.2,0.1l-10.4,0.3l-20.9,0.6
				l-10.4,0.3l-1.3,0c-0.4,0-0.7,0-1,0.1c-0.6,0.2-1.2,0.5-1.6,1c-0.4,0.5-0.7,1.1-0.7,1.8l0,0.2l0,0.3l0,0.7l0,1.3
				c0.5,13.9,1,27.8,1.6,41.7l1,20.9c0.4,7.1-1.5,14.4-5.5,20.3c-3.9,6-10,10.7-17,12.8c-1.7,0.5-3.5,0.9-5.3,1.1
				c-1.8,0.2-3.7,0.2-5.4,0.3l-10.4,0.2c-13.9,0.2-27.9,0.5-41.8,0.5l-20.9,0.1l-20.9-0.1l-10.4-0.1c-3.7-0.1-7.4-0.7-10.9-2
				c-6.9-2.6-12.9-7.5-16.7-13.7c-1.9-3.1-3.3-6.5-4.1-10c-0.4-1.8-0.6-3.6-0.8-5.4c-0.1-0.9-0.1-1.8,0-2.7l0.2-2.6l1.4-20.9
				l1.2-20.9L66.2,97.6z"/>
		</g>
	</g>
	<g class="st0">
		<g class="st1">
			<g>
				<path class="st3" d="M78.6,111.9v8.9c2.9-3.1,5.8-6.2,8.7-9.3c6.9-7.3,13.9-14.6,20.9-21.8h-9.7
					C91.9,97.2,85.2,104.6,78.6,111.9z"/>
			</g>
			<g>
				<path class="st3" d="M88.9,113.3c-3.4,3.8-6.9,7.5-10.4,11.2v8.9c6.7-7.4,13.4-14.8,20.3-22c6.9-7.3,13.9-14.6,20.9-21.8H110
					C103,97.6,96,105.4,88.9,113.3z"/>
			</g>
			<g>
				<path class="st3" d="M78.7,108.4c5.9-6.2,11.9-12.4,17.9-18.6C87.1,90.4,79.6,98.3,78.7,108.4z"/>
			</g>
			<g>
				<path class="st3" d="M100.5,113.3c-7.2,8-14.6,15.8-21.9,23.5v9.4c10.6-11.6,21.1-23.3,31.8-34.7c6.9-7.3,13.9-14.6,20.9-21.8
					h-9.7C114.6,97.6,107.6,105.4,100.5,113.3z"/>
			</g>
			<g>
				<path class="st3" d="M136.3,146.3c10.6-11.6,21.1-23.4,31.9-34.8c6.9-7.3,13.9-14.6,20.9-21.8h-9.7c-7,7.9-14,15.7-21.1,23.6
					c-10.6,11.7-21.5,23-32.3,34.5l-32.3,34.4l-4,4.2c2.4,1.2,5.1,1.9,7.9,1.9h0.4l6.3-7L136.3,146.3z"/>
			</g>
			<g>
				<path class="st3" d="M124.7,146.3c10.6-11.6,21.1-23.4,31.9-34.8c6.9-7.3,13.9-14.6,20.9-21.8h-9.7c-7,7.9-14,15.7-21.1,23.6
					c-10.6,11.7-21.5,23-32.3,34.5L83.2,181c1.6,1.9,3.4,3.6,5.5,4.8l4.1-4.6L124.7,146.3z"/>
			</g>
			<g>
				<path class="st3" d="M112.1,113.3c-10.6,11.7-21.5,23-32.3,34.5l-1.2,1.3v9.8L90,146.3c10.6-11.6,21.1-23.4,31.9-34.8
					c6.9-7.3,13.9-14.6,20.9-21.8h-9.7C126.2,97.6,119.1,105.4,112.1,113.3z"/>
			</g>
			<g>
				<path class="st3" d="M233.3,179.5c2.2-3.4,3.6-7.5,3.6-12v-2.2L221,182.1l-5.7,6.1h2.4c4.3,0,8.2-1.5,11.4-4.1l2.6-2.8
					L233.3,179.5z"/>
			</g>
			<g>
				<path class="st3" d="M102.9,147.7l-23.7,25.2c0.7,2.6,1.8,5,3.2,7l30.7-33.7c10.6-11.6,21.1-23.4,31.9-34.8
					c6.9-7.3,13.9-14.6,20.9-21.8h-9.7c-7,7.9-14,15.7-21.1,23.6C124.6,124.9,113.7,136.3,102.9,147.7z"/>
			</g>
			<g>
				<path class="st3" d="M123.6,113.3c-10.6,11.7-21.5,23-32.3,34.5l-12.8,13.6v6.1c0,1.3,0.1,2.5,0.3,3.7l22.7-24.9
					c10.6-11.6,21.1-23.4,31.9-34.8c6.9-7.3,13.9-14.6,20.9-21.8h-9.7C137.7,97.6,130.7,105.4,123.6,113.3z"/>
			</g>
			<g>
				<path class="st3" d="M173.9,181.2l31.8-34.9c10.3-11.4,20.6-22.8,31.1-34v-1.9c0-2.2-0.3-4.3-0.9-6.2c-2.7,3-5.5,6.1-8.2,9.1
					c-10.6,11.7-21.5,23-32.3,34.5l-32.3,34.4l-5.7,6.1h10.1L173.9,181.2z"/>
			</g>
			<g>
				<path class="st3" d="M197,181.2l31.8-34.9c2.7-2.9,5.3-5.9,8-8.8v-9.1c-6.1,6.5-12.2,12.9-18.2,19.3l-32.3,34.4l-5.7,6.1h10.1
					L197,181.2z"/>
			</g>
			<g>
				<path class="st3" d="M185.4,181.2l31.8-34.9c6.5-7.2,13-14.4,19.6-21.5v-8.8c-9.8,10.7-19.8,21.2-29.8,31.8l-32.3,34.4l-5.7,6.1
					h10.1L185.4,181.2z"/>
			</g>
			<g>
				<path class="st3" d="M116,181.2l31.8-34.9c10.6-11.6,21.1-23.4,31.9-34.8c6.9-7.3,13.9-14.6,20.9-21.8H191
					c-7,7.9-14,15.7-21.1,23.6c-10.6,11.7-21.5,23-32.3,34.5l-32.3,34.4l-5.7,6.1h10.1L116,181.2z"/>
			</g>
			<g>
				<polygon class="st3" points="220.2,181.2 236.9,162.9 236.9,152.9 209.4,182.1 203.7,188.1 213.8,188.1 				"/>
			</g>
			<g>
				<path class="st3" d="M208.6,181.2l28.3-31v-9.5c-2.2,2.3-4.4,4.7-6.7,7.1l-32.3,34.4l-5.7,6.1h10.1L208.6,181.2z"/>
			</g>
			<g>
				<path class="st3" d="M139.2,181.2l31.8-34.9c10.6-11.6,21.1-23.4,31.9-34.8c6.7-7,13.4-14,20.1-20.9c-1.7-0.5-3.5-0.8-5.3-0.8
					h-3.6c-7,7.9-14,15.7-21.1,23.6c-10.6,11.7-21.5,23-32.3,34.5l-32.3,34.4l-5.7,6.1h10.1L139.2,181.2z"/>
			</g>
			<g>
				<path class="st3" d="M127.6,181.2l31.8-34.9c10.6-11.6,21.1-23.4,31.9-34.8c6.9-7.3,13.9-14.6,20.9-21.8h-9.7
					c-7,7.9-14,15.7-21.1,23.6c-10.6,11.7-21.5,23-32.3,34.5l-32.3,34.4l-5.7,6.1h10.1L127.6,181.2z"/>
			</g>
			<g>
				<path class="st3" d="M162.3,181.2l31.8-34.9c10.6-11.6,21.1-23.4,31.9-34.8c3-3.2,6.1-6.4,9.1-9.5c-0.9-2.2-2.1-4.1-3.6-5.8
					c-5.1,5.7-10.2,11.4-15.4,17.1c-10.6,11.7-21.5,23-32.3,34.5l-32.3,34.4l-5.7,6.1H156L162.3,181.2z"/>
			</g>
			<g>
				<path class="st3" d="M150.7,181.2l31.8-34.9c10.6-11.6,21.1-23.4,31.9-34.8c5.3-5.5,10.5-11.1,15.9-16.6
					c-1.7-1.6-3.7-2.9-5.9-3.8c-6.6,7.5-13.2,14.8-19.9,22.2c-10.6,11.7-21.5,23-32.3,34.5L140,182.1l-5.7,6.1h10.1L150.7,181.2z"/>
			</g>
		</g>
		<g class="st1">
			<g>
				<path class="st2" d="M48.5,14.3h11.2v2.2H48.5v10.6h-2.6V4h14.1v2.2H48.5V14.3z"/>
			</g>
			<g>
				<path class="st2" d="M65.3,27.1H63V4h2.4V27.1z"/>
			</g>
			<g>
				<path class="st2" d="M69.5,15.5c0.1-3.9,1.3-4.8,6.4-4.8c5.2,0,6.7,1.3,6.7,5.7v10.6h-2.4l0.2-1.7l0,0c-1,1.5-2.4,2-5.5,2
					c-4.5,0-6.1-1.3-6.1-4.9c0-1.9,0.6-3.5,1.5-4.2c0.9-0.7,2.5-1,4.7-1c1.7,0,3.1,0.2,4.1,0.6c0.6,0.2,0.8,0.4,1.1,1.1l0.1,0V17
					c0-3.8-0.7-4.4-4.2-4.4c-3.3,0-4.2,0.6-4.2,2.4v0.5H69.5z M71.3,22c0,2.7,0.7,3.3,4.1,3.3c2.1,0,3.6-0.3,4.3-0.9
					c0.5-0.4,0.7-1,0.7-2c0-2.5-1-3.2-4.6-3.2C72.1,19.2,71.3,19.7,71.3,22z"/>
			</g>
			<g>
				<path class="st2" d="M95.7,12.9h-6.2v9.9c0,2,0.4,2.5,2.2,2.5c2,0,2.4-0.6,2.4-3.1c0-0.2,0-0.4,0-0.9h2.2c0,0.5,0,1,0,1.2
					c0,3.3-1.4,4.7-4.6,4.7c-2.5,0-3.8-0.7-4.3-2.1c-0.2-0.6-0.2-1-0.2-2.5v-9.9h-2.2v-2h2.2V7.1h2.4v3.9h6.2V12.9z"/>
			</g>
			<g>
				<path class="st2" d="M107.1,4h10.2c2.9,0,3.8,0.1,4.7,0.7c1.5,0.9,2.1,2.5,2.1,5.5c0,2.9-0.7,4-2.9,4.8v0.1
					c2.8,0.7,3.7,2,3.7,5.5c0,2.9-0.8,4.8-2.2,5.6c-0.9,0.5-2.5,0.9-4.3,0.9h-11.3V4z M116.6,14.2c2.2,0,2.9-0.1,3.7-0.6
					c1-0.6,1.3-1.5,1.3-3.6c0-2-0.3-2.9-1.3-3.4c-0.6-0.3-1.2-0.3-3-0.3h-7.5v7.9H116.6z M115.3,24.8c3.8,0,4.7-0.1,5.6-0.5
					c1-0.4,1.5-1.4,1.5-3.6c0-2.2-0.3-3.3-1.2-3.8c-0.8-0.5-1.2-0.6-4.7-0.6h-6.7v8.4H115.3z"/>
			</g>
			<g>
				<path class="st2" d="M142.2,19.1c0,6.9-1.2,8.3-7.2,8.3s-7.1-1.4-7.1-8.4c0-6.8,1.2-8.2,7.2-8.2C141,10.7,142.2,12.1,142.2,19.1
					z M131.1,13.8c-0.5,0.8-0.7,2.2-0.7,5.2c0,5.8,0.4,6.4,4.7,6.4s4.7-0.6,4.7-6.3c0-5.7-0.4-6.3-4.7-6.3
					C132.7,12.7,131.5,13,131.1,13.8z"/>
			</g>
			<g>
				<path class="st2" d="M145.9,15.5c0.1-3.9,1.3-4.8,6.4-4.8c5.2,0,6.7,1.3,6.7,5.7v10.6h-2.4l0.2-1.7l0,0c-1,1.5-2.4,2-5.5,2
					c-4.5,0-6.1-1.3-6.1-4.9c0-1.9,0.6-3.5,1.5-4.2c0.9-0.7,2.5-1,4.7-1c1.7,0,3.1,0.2,4.1,0.6c0.6,0.2,0.8,0.4,1.1,1.1l0.1,0V17
					c0-3.8-0.7-4.4-4.2-4.4c-3.3,0-4.2,0.6-4.2,2.4v0.5H145.9z M147.7,22c0,2.7,0.7,3.3,4.1,3.3c2.1,0,3.6-0.3,4.3-0.9
					c0.5-0.4,0.7-1,0.7-2c0-2.5-1-3.2-4.6-3.2C148.5,19.2,147.7,19.7,147.7,22z"/>
			</g>
			<g>
				<path class="st2" d="M165.4,10.9l-0.2,1.9l0.1,0c1-1.7,2.3-2.3,4.6-2.3c3.1,0,4.5,1.5,4.5,4.6v1.1H172V15c0-1.7-0.8-2.4-2.7-2.4
					c-1.7,0-2.9,0.6-3.5,1.7c-0.3,0.7-0.4,1.6-0.4,3.2v9.7h-2.4V10.9H165.4z"/>
			</g>
			<g>
				<path class="st2" d="M190.7,27.1h-2.4l0.1-2.1h0c-0.8,1.7-2.4,2.4-5.2,2.4c-2.3,0-3.9-0.6-4.9-1.6c-1.1-1.2-1.5-3.1-1.5-6.9
					c0-6.1,1.6-8.1,6.3-8.1c1.7,0,3,0.3,4,0.8c0.7,0.3,0.9,0.7,1.2,1.5l0.1,0V4h2.4V27.1z M180.3,13.5c-0.7,0.7-1.1,2.5-1.1,5.1
					c0,5.5,0.8,6.7,4.5,6.7c1.7,0,2.9-0.3,3.6-1c0.7-0.7,1.1-2.7,1.1-5.8c0-4.6-1-5.8-4.7-5.8C182.1,12.7,180.9,13,180.3,13.5z"/>
			</g>
			<g>
				<path class="st2" d="M217.1,10.3c0-1.7-0.1-2.4-0.5-3c-0.6-1-1.7-1.3-4.8-1.3c-3.6,0-4.8,0.2-5.5,1c-0.6,0.6-0.8,1.6-0.8,3
					c0,2.1,0.5,3.1,1.7,3.6c0.8,0.3,0.9,0.3,4.8,0.5c4.3,0.2,5.5,0.4,6.6,1.3c1.2,0.9,1.7,2.4,1.7,5.1c0,3.1-0.6,4.8-1.9,5.7
					c-1.3,0.8-2.9,1.1-7.6,1.1c-3.2,0-4.3-0.2-5.6-0.9c-0.9-0.5-1.6-1.6-1.9-2.8c-0.2-1-0.3-1.7-0.3-3.6h2.6c0,2.5,0.1,2.9,0.5,3.8
					c0.6,1.2,1.4,1.3,5.5,1.3c5.6,0,6.2-0.5,6.2-4.8c0-1.9-0.4-2.8-1.4-3.3c-0.7-0.3-0.7-0.3-4.9-0.5c-4.3-0.2-4.6-0.3-5.7-0.8
					c-1.9-0.9-2.6-2.5-2.6-5.4c0-2.7,0.6-4.3,1.7-5.2c1.3-1,3-1.3,6.9-1.3c4.4,0,6.1,0.4,7.2,1.9c0.7,1,1,2.1,1,4.2v0.4H217.1z"/>
			</g>
			<g>
				<path class="st2" d="M225.8,17.4h1.1l5.7-6.5h2.9l-6.9,7.4l8.2,8.7h-3.2l-6.8-7.8h-1v7.8h-2.4V4h2.4V17.4z"/>
			</g>
			<g>
				<path class="st2" d="M241.4,6.7H239V4h2.4V6.7z M241.4,27.1H239V10.9h2.4V27.1z"/>
			</g>
			<g>
				<path class="st2" d="M247.9,10.9l0,2.2l0,0c0.8-1.8,2.4-2.5,5.4-2.5c2.7,0,4.4,0.7,5.3,2.1c0.4,0.7,0.6,1.6,0.6,3.8v10.5h-2.4
					V16.8c0-1.7-0.1-2.2-0.4-2.8c-0.4-0.9-1.4-1.2-3.4-1.2c-3.6,0-4.9,1.3-4.9,4.7v9.7h-2.5V10.9H247.9z"/>
			</g>
			<g>
				<path class="st2" d="M16.8,51.8c0-1.7-0.1-2.4-0.5-3c-0.6-1-1.7-1.3-4.8-1.3c-3.6,0-4.8,0.2-5.5,1c-0.6,0.6-0.8,1.6-0.8,3
					c0,2.1,0.5,3.1,1.7,3.6c0.8,0.3,0.9,0.3,4.8,0.5c4.3,0.2,5.5,0.4,6.6,1.3c1.2,0.9,1.7,2.4,1.7,5.1c0,3.1-0.6,4.8-1.9,5.7
					c-1.3,0.8-2.9,1.1-7.6,1.1c-3.2,0-4.3-0.2-5.6-0.9c-0.9-0.5-1.6-1.6-1.9-2.8c-0.2-1-0.3-1.7-0.3-3.6H5c0,2.5,0.1,2.9,0.5,3.8
					c0.6,1.2,1.4,1.3,5.5,1.3c5.6,0,6.2-0.5,6.2-4.8c0-1.9-0.4-2.8-1.4-3.3c-0.7-0.3-0.7-0.3-4.9-0.5c-4.3-0.2-4.6-0.3-5.7-0.8
					c-1.9-0.9-2.6-2.5-2.6-5.4c0-2.7,0.6-4.3,1.7-5.2c1.3-1,3-1.3,6.9-1.3c4.4,0,6.1,0.4,7.2,1.9c0.7,1,1,2.1,1,4.2v0.4H16.8z"/>
				<path class="st2" d="M10.2,69.1c-3.3,0-4.4-0.2-5.8-1c-1-0.5-1.7-1.7-2-3c-0.2-1-0.3-1.7-0.3-3.7l0-0.3h3.1l0,0.2
					c0,2.5,0.1,2.9,0.5,3.7c0.5,1,1,1.2,5.3,1.2c5.6,0,5.9-0.5,5.9-4.5c0-1.8-0.3-2.7-1.3-3c-0.6-0.3-0.6-0.3-4.8-0.5
					c-4.3-0.2-4.7-0.3-5.8-0.8c-2-1-2.8-2.6-2.8-5.6c0-2.7,0.6-4.5,1.8-5.4c1.4-1.1,3-1.4,7.1-1.4c4.5,0,6.3,0.5,7.4,2
					c0.8,1,1.1,2.2,1.1,4.4V52h-3.1v-0.3c0-1.7-0.1-2.3-0.4-2.8c-0.6-0.9-1.6-1.2-4.6-1.2c-3.5,0-4.7,0.2-5.3,1
					c-0.5,0.6-0.8,1.5-0.8,2.9c0,2,0.4,2.9,1.5,3.3c0.7,0.3,0.8,0.3,4.7,0.5c4.4,0.2,5.6,0.5,6.7,1.3c1.3,1,1.8,2.5,1.8,5.3
					c0,3.3-0.6,5-2,5.9C16.6,68.8,14.9,69.1,10.2,69.1z M2.7,61.7c0,1.8,0.1,2.4,0.3,3.3c0.2,1.1,0.9,2.2,1.7,2.6
					c1.3,0.7,2.3,0.9,5.5,0.9c4.6,0,6.2-0.2,7.5-1c1.3-0.8,1.8-2.4,1.8-5.5c0-2.7-0.4-4-1.6-4.9c-1-0.8-2.2-1-6.4-1.2
					c-3.9-0.2-4-0.2-4.8-0.5c-1.3-0.5-1.8-1.6-1.8-3.8c0-1.5,0.3-2.5,0.9-3.2c0.8-0.9,2-1.1,5.7-1.1c3.2,0,4.3,0.3,5,1.4
					c0.4,0.6,0.5,1.3,0.5,2.9h2.1v-0.1c0-2-0.3-3.2-1-4.1c-1-1.4-2.7-1.8-7-1.8c-3.9,0-5.5,0.3-6.8,1.3c-1.1,0.9-1.6,2.4-1.6,5
					c0,2.8,0.7,4.3,2.5,5.2c1.1,0.5,1.4,0.6,5.6,0.8c4.3,0.2,4.3,0.2,5,0.5c1.1,0.5,1.6,1.4,1.6,3.5c0,4.5-0.7,5-6.4,5
					c-4,0-5-0.1-5.8-1.5c-0.5-0.8-0.5-1.3-0.5-3.6H2.7z"/>
			</g>
			<g>
				<path class="st2" d="M41.4,45.5v16.1c0,2.8-0.3,3.9-1.2,5.1c-1.3,1.6-3,2.1-8.1,2.1c-3.1,0-4.4-0.1-5.5-0.6
					c-2.6-1-3.4-2.5-3.4-6.6V45.5h2.6v16.1c0,1.8,0.1,2.8,0.5,3.4c0.7,1.2,2,1.5,5.7,1.5c6.2,0,6.8-0.5,6.8-4.9V45.5H41.4z"/>
				<path class="st2" d="M32.1,69.1c-3.1,0-4.4-0.1-5.6-0.6c-2.7-1-3.6-2.7-3.6-6.8V45.3h3.1v16.4c0,1.8,0.1,2.7,0.5,3.3
					c0.6,1.1,1.9,1.4,5.5,1.4c6.2,0,6.6-0.6,6.6-4.7V45.3h3.1v16.4c0,2.8-0.3,4-1.2,5.2C39,68.6,37.2,69.1,32.1,69.1z M23.4,45.8
					v15.9c0,3.9,0.8,5.4,3.3,6.3c1.1,0.4,2.4,0.6,5.4,0.6c4.9,0,6.6-0.4,7.9-2c0.9-1.1,1.1-2.2,1.1-4.9V45.8H39v15.9
					c0,4.6-0.8,5.2-7.1,5.2c-3.8,0-5.2-0.4-6-1.6c-0.4-0.6-0.5-1.6-0.5-3.5V45.8H23.4z"/>
			</g>
			<g>
				<path class="st2" d="M45.6,45.5h9.6c3,0,3.8,0.1,4.8,0.6c1.9,0.8,2.8,2.9,2.8,6.6c0,3.5-0.9,5.4-2.8,6.3
					c-1.1,0.5-1.2,0.5-5.2,0.6h-6.7v9h-2.6V45.5z M54.4,57.3c5.1,0,5.9-0.6,5.9-4.5c0-3-0.3-4.1-1.4-4.6c-0.7-0.3-1-0.3-3.7-0.4h-7
					v9.5H54.4z"/>
				<path class="st2" d="M48.5,68.8h-3.1V45.3h9.9c3,0,3.9,0.1,4.9,0.6c2,0.9,3,3,3,6.8c0,3.6-0.9,5.6-2.9,6.6
					c-1.1,0.5-1.3,0.5-5.3,0.6l-0.1,0h-6.4V68.8z M45.9,68.3H48v-9l7,0c3.9-0.1,4-0.1,5-0.6c1.8-0.9,2.7-2.8,2.7-6.1
					c0-3.5-0.8-5.6-2.7-6.3c-1-0.4-1.9-0.5-4.7-0.5h-9.4V68.3z M54.4,57.6H48v-10h7.2c2.7,0,3.1,0.1,3.8,0.4
					c1.2,0.5,1.6,1.7,1.6,4.9C60.6,56.8,59.6,57.6,54.4,57.6z M48.5,57.1h5.9c5,0,5.7-0.5,5.7-4.3c0-2.9-0.3-4-1.3-4.4
					C58.2,48.1,58,48,55.2,48h-6.7V57.1z"/>
			</g>
			<g>
				<path class="st2" d="M68.6,55.6h11.7v2.2H68.6v8.6h12.2v2.2H66V45.5h14.8v2.2H68.6V55.6z"/>
				<path class="st2" d="M81.1,68.8H65.8V45.3h15.3V48H68.8v7.3h11.7V58H68.8v8.1h12.2V68.8z M66.3,68.3h14.3v-1.7H68.3v-9.1H80
					v-1.7H68.3v-8.3h12.2v-1.7H66.3V68.3z"/>
			</g>
			<g>
				<path class="st2" d="M84.2,45.5h11c4.9,0,6.7,1.8,6.7,6.6c0,4.2-0.9,5.6-4,6.1v0c2.4,0.1,3.7,1.7,3.7,4.5v5.8H99v-5.3
					c0.1-2.9-1.2-4.1-4.4-4h-7.8v9.3h-2.6V45.5z M94.3,57.1c3.8,0,5-1,5-4.1c0-2.4-0.1-3.4-0.6-4c-0.5-0.8-1.7-1.1-3.5-1.1h-8.4v9.3
					H94.3z"/>
				<path class="st2" d="M101.8,68.8h-3.1v-5.5c0-1.4-0.2-2.3-0.8-2.9c-0.6-0.6-1.7-0.9-3.3-0.9H87v9.3h-3.1V45.3h11.2
					c5.1,0,7,1.9,7,6.9c0,3.8-0.7,5.4-3.1,6.1c1.8,0.5,2.8,2.1,2.7,4.5V68.8z M99.2,68.3h2.1v-5.6c0-2.6-1.2-4.1-3.4-4.2l-0.2,0
					v-0.4l0.2-0.1c3-0.5,3.8-1.8,3.8-5.8c0-4.7-1.7-6.4-6.5-6.4H84.4v22.6h2.1v-9.3h8.1c1.7-0.1,2.9,0.3,3.6,1c0.7,0.7,1,1.8,1,3.3
					V68.3z M94.3,57.3h-7.8v-9.8h8.7c1.9,0,3.1,0.4,3.7,1.3c0.5,0.7,0.7,1.7,0.7,4.2C99.5,56.2,98.2,57.3,94.3,57.3z M87,56.8h7.3
					c3.7,0,4.8-0.9,4.8-3.9c0-2.4-0.1-3.3-0.6-3.9c-0.5-0.7-1.6-1-3.3-1H87V56.8z"/>
			</g>
			<g>
				<path class="st2" d="M105.5,45.5h9.6c3,0,3.8,0.1,4.8,0.6c1.9,0.8,2.8,2.9,2.8,6.6c0,3.5-0.9,5.4-2.8,6.3
					c-1.1,0.5-1.2,0.5-5.2,0.6h-6.7v9h-2.6V45.5z M114.3,57.3c5.1,0,5.9-0.6,5.9-4.5c0-3-0.3-4.1-1.4-4.6c-0.7-0.3-1-0.3-3.7-0.4h-7
					v9.5H114.3z"/>
				<path class="st2" d="M108.4,68.8h-3.1V45.3h9.9c3,0,3.9,0.1,4.9,0.6c2,0.9,3,3,3,6.8c0,3.6-0.9,5.6-2.9,6.6
					c-1.1,0.5-1.3,0.5-5.3,0.6l-0.1,0h-6.4V68.8z M105.8,68.3h2.1v-9l7,0c3.9-0.1,4-0.1,5-0.6c1.8-0.9,2.7-2.8,2.7-6.1
					c0-3.5-0.8-5.6-2.7-6.3c-1-0.4-1.9-0.5-4.7-0.5h-9.4V68.3z M114.3,57.6h-6.4v-10h7.2c2.7,0,3.1,0.1,3.8,0.4
					c1.2,0.5,1.6,1.7,1.6,4.9C120.5,56.8,119.5,57.6,114.3,57.6z M108.4,57.1h5.9c5,0,5.7-0.5,5.7-4.3c0-2.9-0.3-4-1.3-4.4
					c-0.6-0.3-0.8-0.3-3.6-0.4h-6.7V57.1z"/>
			</g>
			<g>
				<path class="st2" d="M125.9,45.5h11c4.9,0,6.7,1.8,6.7,6.6c0,4.2-0.9,5.6-4,6.1v0c2.4,0.1,3.7,1.7,3.7,4.5v5.8h-2.6v-5.3
					c0.1-2.9-1.2-4.1-4.4-4h-7.8v9.3h-2.6V45.5z M136,57.1c3.8,0,5-1,5-4.1c0-2.4-0.1-3.4-0.6-4c-0.5-0.8-1.7-1.1-3.5-1.1h-8.4v9.3
					H136z"/>
				<path class="st2" d="M143.6,68.8h-3.1v-5.5c0-1.4-0.2-2.3-0.8-2.9c-0.6-0.6-1.7-0.9-3.3-0.9h-7.6v9.3h-3.1V45.3h11.2
					c5.1,0,7,1.9,7,6.9c0,3.8-0.7,5.4-3.1,6.1c1.8,0.5,2.8,2.1,2.7,4.5V68.8z M141,68.3h2.1v-5.6c0-2.6-1.2-4.1-3.4-4.2l-0.2,0v-0.4
					l0.2-0.1c3-0.5,3.8-1.8,3.8-5.8c0-4.7-1.7-6.4-6.5-6.4h-10.7v22.6h2.1v-9.3h8.1c1.7-0.1,2.9,0.3,3.6,1c0.7,0.7,1,1.8,1,3.3V68.3
					z M136,57.3h-7.8v-9.8h8.7c1.9,0,3.1,0.4,3.7,1.3c0.5,0.7,0.7,1.7,0.7,4.2C141.3,56.2,139.9,57.3,136,57.3z M128.8,56.8h7.3
					c3.7,0,4.8-0.9,4.8-3.9c0-2.4-0.1-3.3-0.6-3.9c-0.5-0.7-1.6-1-3.3-1h-8.2V56.8z"/>
			</g>
			<g>
				<path class="st2" d="M162.9,46c2,0.8,3,2.5,3.4,5.5c0.1,1,0.1,1.6,0.1,4.5c0,5.4,0,6.2-0.4,8c-0.4,2-1.4,3.4-3.1,4
					c-1.5,0.6-2.6,0.8-6,0.8c-4,0-5.2-0.1-6.6-0.8c-1.7-0.7-2.6-2-3.1-4c-0.4-1.8-0.4-2.6-0.4-7.9c0-4.8,0.2-6.2,1.1-7.9
					c0.8-1.4,2.1-2.3,4-2.7c0.8-0.1,2.6-0.2,4.6-0.2C160.2,45.3,161.6,45.4,162.9,46z M150.6,48.6c-0.7,0.8-1,1.8-1.1,3.8
					c0,0.5,0,0.5,0,4.6c0,4.8,0,4.8,0.2,6.1c0.2,1.6,0.9,2.6,1.9,3c0.9,0.4,1.9,0.5,5,0.5c4.2,0,5.4-0.2,6.2-1.1
					c0.7-0.8,1-1.8,1.1-3.8c0-0.5,0-0.5,0-4.7c0-4.7,0-4.7-0.2-6.1c-0.2-1.6-0.9-2.6-1.9-3c-0.9-0.4-1.9-0.5-5-0.5
					C152.5,47.5,151.4,47.7,150.6,48.6z"/>
				<path class="st2" d="M157,69.1c-4.1,0-5.2-0.1-6.7-0.8c-1.7-0.8-2.8-2.1-3.2-4.2c-0.4-1.8-0.4-2.6-0.4-8c0-4.8,0.2-6.2,1.2-8
					c0.8-1.5,2.2-2.4,4.2-2.8c0.9-0.2,2.7-0.2,4.7-0.2c3.5,0,5,0.2,6.4,0.8c2,0.9,3.1,2.6,3.6,5.7c0.1,1.1,0.1,1.7,0.1,4.6
					c0,5.5,0,6.2-0.4,8c-0.4,2.1-1.5,3.5-3.2,4.2C161.6,68.9,160.4,69.1,157,69.1z M156.7,45.5c-1.9,0-3.7,0.1-4.6,0.2
					c-1.8,0.4-3.1,1.2-3.9,2.5c-0.9,1.7-1.1,3.1-1.1,7.8c0,5.4,0,6.1,0.4,7.9c0.4,2,1.4,3.2,2.9,3.9c1.5,0.6,2.6,0.7,6.5,0.7
					c3.4,0,4.5-0.1,5.9-0.7c1.6-0.7,2.5-1.9,2.9-3.9c0.4-1.7,0.4-2.5,0.4-7.9c0-2.9,0-3.5-0.1-4.5c-0.4-2.9-1.4-4.5-3.3-5.3l0,0
					C161.5,45.7,160.1,45.5,156.7,45.5z M156.5,66.8c-3.1,0-4.1-0.1-5.1-0.5c-1.1-0.4-1.8-1.5-2.1-3.2c-0.2-1.3-0.2-1.3-0.2-6.1
					c0-4.2,0-4.2,0-4.7c0.1-2,0.5-3.1,1.2-3.9l0,0c0.9-1,2-1.2,6.3-1.2c3,0,4.1,0.1,5.1,0.5c1.1,0.4,1.8,1.5,2.1,3.2
					c0.2,1.3,0.2,1.3,0.2,6.1c0,4.2,0,4.2,0,4.7c-0.1,2-0.5,3.1-1.2,3.9C162,66.6,160.8,66.8,156.5,66.8z M150.8,48.8
					c-0.7,0.7-0.9,1.7-1.1,3.6c0,0.5,0,0.5,0,4.6c0,4.8,0,4.8,0.2,6c0.2,1.5,0.8,2.4,1.8,2.8c0.9,0.4,1.9,0.5,4.9,0.5
					c4.1,0,5.2-0.2,6-1c0.7-0.7,0.9-1.7,1.1-3.6c0-0.5,0-0.5,0-4.7c0-4.7,0-4.7-0.2-6c-0.2-1.5-0.8-2.4-1.8-2.8
					c-0.9-0.4-1.9-0.5-4.9-0.5C152.6,47.8,151.5,48,150.8,48.8z"/>
			</g>
			<g>
				<path class="st2" d="M178.4,68.6h-2.6V47.9h-7.5v-2.4h17.6V48l-7.5,0V68.6z"/>
				<path class="st2" d="M178.6,68.8h-3.1V48.2H168v-2.9h18.1v3l-7.5,0V68.8z M176,68.3h2.1V47.7l7.5,0v-2h-17.1v1.9h7.5V68.3z"/>
			</g>
			<g>
				<path class="st2" d="M188.6,45.5h11c4.9,0,6.7,1.8,6.7,6.6c0,4.2-0.9,5.6-4,6.1v0c2.4,0.1,3.7,1.7,3.7,4.5v5.8h-2.6v-5.3
					c0.1-2.9-1.2-4.1-4.4-4h-7.8v9.3h-2.6V45.5z M198.7,57.1c3.8,0,5-1,5-4.1c0-2.4-0.1-3.4-0.6-4c-0.5-0.8-1.7-1.1-3.5-1.1h-8.4
					v9.3H198.7z"/>
				<path class="st2" d="M206.2,68.8h-3.1v-5.5c0-1.4-0.2-2.3-0.8-2.9c-0.6-0.6-1.7-0.9-3.3-0.9h-7.6v9.3h-3.1V45.3h11.2
					c5.1,0,7,1.9,7,6.9c0,3.8-0.7,5.4-3.1,6.1c1.8,0.5,2.8,2.1,2.7,4.5V68.8z M203.6,68.3h2.1v-5.6c0-2.6-1.2-4.1-3.4-4.2l-0.2,0
					v-0.4l0.2-0.1c3-0.5,3.8-1.8,3.8-5.8c0-4.7-1.7-6.4-6.5-6.4h-10.7v22.6h2.1v-9.3h8.1c1.7-0.1,2.9,0.3,3.6,1c0.7,0.7,1,1.8,1,3.3
					V68.3z M198.7,57.3h-7.8v-9.8h8.7c1.9,0,3.1,0.4,3.7,1.3c0.5,0.7,0.7,1.7,0.7,4.2C203.9,56.2,202.6,57.3,198.7,57.3z
					 M191.4,56.8h7.3c3.7,0,4.8-0.9,4.8-3.9c0-2.4-0.1-3.3-0.6-3.9c-0.5-0.7-1.6-1-3.3-1h-8.2V56.8z"/>
			</g>
			<g>
				<path class="st2" d="M228,45.5v16.1c0,2.8-0.3,3.9-1.2,5.1c-1.3,1.6-3,2.1-8.1,2.1c-3.1,0-4.4-0.1-5.5-0.6
					c-2.6-1-3.4-2.5-3.4-6.6V45.5h2.6v16.1c0,1.8,0.1,2.8,0.5,3.4c0.7,1.2,2,1.5,5.7,1.5c6.2,0,6.8-0.5,6.8-4.9V45.5H228z"/>
				<path class="st2" d="M218.7,69.1c-3.1,0-4.4-0.1-5.6-0.6c-2.7-1-3.6-2.7-3.6-6.8V45.3h3.1v16.4c0,1.8,0.1,2.7,0.5,3.3
					c0.6,1.1,1.9,1.4,5.5,1.4c6.2,0,6.6-0.6,6.6-4.7V45.3h3.1v16.4c0,2.8-0.3,4-1.2,5.2C225.6,68.6,223.9,69.1,218.7,69.1z
					 M210,45.8v15.9c0,3.9,0.8,5.4,3.3,6.3c1.1,0.4,2.4,0.6,5.4,0.6c4.9,0,6.6-0.4,7.9-2c0.9-1.1,1.1-2.2,1.1-4.9V45.8h-2.1v15.9
					c0,4.6-0.8,5.2-7.1,5.2c-3.8,0-5.2-0.4-6-1.6c-0.4-0.6-0.5-1.6-0.5-3.5V45.8H210z"/>
			</g>
			<g>
				<path class="st2" d="M245.7,51.8c0-1.7-0.1-2.4-0.5-3c-0.6-1-1.7-1.3-4.8-1.3c-3.6,0-4.8,0.2-5.5,1c-0.6,0.6-0.8,1.6-0.8,3
					c0,2.1,0.5,3.1,1.7,3.6c0.8,0.3,0.9,0.3,4.8,0.5c4.3,0.2,5.5,0.4,6.6,1.3c1.2,0.9,1.7,2.4,1.7,5.1c0,3.1-0.6,4.8-1.9,5.7
					c-1.3,0.8-2.9,1.1-7.6,1.1c-3.2,0-4.3-0.2-5.6-0.9c-0.9-0.5-1.6-1.6-1.9-2.8c-0.2-1-0.3-1.7-0.3-3.6h2.6c0,2.5,0.1,2.9,0.5,3.8
					c0.6,1.2,1.4,1.3,5.5,1.3c5.6,0,6.2-0.5,6.2-4.8c0-1.9-0.4-2.8-1.4-3.3c-0.7-0.3-0.7-0.3-4.9-0.5c-4.3-0.2-4.6-0.3-5.7-0.8
					c-1.9-0.9-2.6-2.5-2.6-5.4c0-2.7,0.6-4.3,1.7-5.2c1.3-1,3-1.3,6.9-1.3c4.4,0,6.1,0.4,7.2,1.9c0.7,1,1,2.1,1,4.2v0.4H245.7z"/>
				<path class="st2" d="M239.1,69.1c-3.3,0-4.4-0.2-5.8-1c-1-0.5-1.7-1.7-2-3c-0.2-1-0.3-1.7-0.3-3.7l0-0.3h3.1l0,0.2
					c0,2.5,0.1,2.9,0.5,3.7c0.5,1,1,1.2,5.3,1.2c5.6,0,5.9-0.5,5.9-4.5c0-1.8-0.3-2.7-1.3-3c-0.6-0.3-0.6-0.3-4.8-0.5
					c-4.3-0.2-4.7-0.3-5.8-0.8c-2-1-2.8-2.6-2.8-5.6c0-2.7,0.6-4.5,1.8-5.4c1.4-1.1,3-1.4,7.1-1.4c4.5,0,6.3,0.5,7.4,2
					c0.8,1,1.1,2.2,1.1,4.4V52h-3.1v-0.3c0-1.7-0.1-2.3-0.4-2.8c-0.6-0.9-1.6-1.2-4.6-1.2c-3.5,0-4.7,0.2-5.3,1
					c-0.5,0.6-0.8,1.5-0.8,2.9c0,2,0.4,2.9,1.5,3.3c0.7,0.3,0.8,0.3,4.7,0.5c4.4,0.2,5.6,0.5,6.7,1.3c1.3,1,1.8,2.5,1.8,5.3
					c0,3.3-0.6,5-2,5.9C245.5,68.8,243.9,69.1,239.1,69.1z M231.6,61.7c0,1.8,0.1,2.4,0.3,3.3c0.2,1.1,0.9,2.2,1.7,2.6
					c1.3,0.7,2.3,0.9,5.5,0.9c4.6,0,6.2-0.2,7.5-1c1.3-0.8,1.8-2.4,1.8-5.5c0-2.7-0.4-4-1.6-4.9c-1-0.8-2.2-1-6.4-1.2
					c-3.9-0.2-4-0.2-4.8-0.5c-1.3-0.5-1.8-1.6-1.8-3.8c0-1.5,0.3-2.5,0.9-3.2c0.8-0.9,2-1.1,5.7-1.1c3.2,0,4.3,0.3,5,1.4
					c0.4,0.6,0.5,1.3,0.5,2.9h2.1v-0.1c0-2-0.3-3.2-1-4.1c-1-1.4-2.7-1.8-7-1.8c-3.9,0-5.5,0.3-6.8,1.3c-1.1,0.9-1.6,2.4-1.6,5
					c0,2.8,0.7,4.3,2.5,5.2c1.1,0.5,1.4,0.6,5.6,0.8c4.3,0.2,4.3,0.2,5,0.5c1.1,0.5,1.6,1.4,1.6,3.5c0,4.5-0.7,5-6.4,5
					c-4,0-5-0.1-5.8-1.5c-0.5-0.8-0.5-1.3-0.5-3.6H231.6z"/>
			</g>
			<g>
				<path class="st2" d="M254.7,68.6h-2.6V45.5h2.6V68.6z"/>
				<path class="st2" d="M255,68.8h-3.1V45.3h3.1V68.8z M252.4,68.3h2.1V45.8h-2.1V68.3z"/>
			</g>
			<g>
				<path class="st2" d="M274.6,46c2,0.8,3,2.5,3.4,5.5c0.1,1,0.1,1.6,0.1,4.5c0,5.4,0,6.2-0.4,8c-0.4,2-1.4,3.4-3.1,4
					c-1.5,0.6-2.6,0.8-6,0.8c-4,0-5.2-0.1-6.6-0.8c-1.7-0.7-2.6-2-3.1-4c-0.4-1.8-0.4-2.6-0.4-7.9c0-4.8,0.2-6.2,1.1-7.9
					c0.8-1.4,2.1-2.3,4-2.7c0.8-0.1,2.6-0.2,4.6-0.2C271.9,45.3,273.3,45.4,274.6,46z M262.3,48.6c-0.7,0.8-1,1.8-1.1,3.8
					c0,0.5,0,0.5,0,4.6c0,4.8,0,4.8,0.2,6.1c0.2,1.6,0.9,2.6,1.9,3c0.9,0.4,1.9,0.5,5,0.5c4.2,0,5.4-0.2,6.2-1.1
					c0.7-0.8,1-1.8,1.1-3.8c0-0.5,0-0.5,0-4.7c0-4.7,0-4.7-0.2-6.1c-0.2-1.6-0.9-2.6-1.9-3c-0.9-0.4-1.9-0.5-5-0.5
					C264.2,47.5,263.1,47.7,262.3,48.6z"/>
				<path class="st2" d="M268.7,69.1c-4.1,0-5.2-0.1-6.7-0.8c-1.7-0.8-2.8-2.1-3.2-4.2c-0.4-1.8-0.4-2.6-0.4-8c0-4.8,0.2-6.2,1.2-8
					c0.8-1.5,2.2-2.4,4.2-2.8c0.9-0.2,2.7-0.2,4.7-0.2c3.5,0,5,0.2,6.4,0.8c2,0.9,3.1,2.6,3.6,5.7c0.1,1.1,0.1,1.7,0.1,4.6
					c0,5.5,0,6.2-0.4,8c-0.4,2.1-1.5,3.5-3.2,4.2C273.3,68.9,272.1,69.1,268.7,69.1z M268.3,45.5c-1.9,0-3.7,0.1-4.6,0.2
					c-1.8,0.4-3.1,1.2-3.9,2.5c-0.9,1.7-1.1,3.1-1.1,7.8c0,5.4,0,6.1,0.4,7.9c0.4,2,1.4,3.2,2.9,3.9c1.5,0.6,2.6,0.7,6.5,0.7
					c3.4,0,4.5-0.1,5.9-0.7c1.6-0.7,2.5-1.9,2.9-3.9c0.4-1.7,0.4-2.5,0.4-7.9c0-2.9,0-3.5-0.1-4.5c-0.4-2.9-1.4-4.5-3.3-5.3l0,0
					C273.2,45.7,271.8,45.5,268.3,45.5z M268.2,66.8c-3.1,0-4.1-0.1-5.1-0.5c-1.1-0.4-1.8-1.5-2.1-3.2c-0.2-1.3-0.2-1.3-0.2-6.1
					c0-4.2,0-4.2,0-4.7c0.1-2,0.5-3.1,1.2-3.9l0,0c0.9-1,2-1.2,6.3-1.2c3,0,4.1,0.1,5.1,0.5c1.1,0.4,1.8,1.5,2.1,3.2
					c0.2,1.3,0.2,1.3,0.2,6.1c0,4.2,0,4.2,0,4.7c-0.1,2-0.5,3.1-1.2,3.9C273.7,66.6,272.5,66.8,268.2,66.8z M262.5,48.8
					c-0.7,0.7-0.9,1.7-1.1,3.6c0,0.5,0,0.5,0,4.6c0,4.8,0,4.8,0.2,6c0.2,1.5,0.8,2.4,1.8,2.8c0.9,0.4,1.9,0.5,4.9,0.5
					c4.1,0,5.2-0.2,6-1c0.7-0.7,0.9-1.7,1.1-3.6c0-0.5,0-0.5,0-4.7c0-4.7,0-4.7-0.2-6c-0.2-1.5-0.8-2.4-1.8-2.8
					c-0.9-0.4-1.9-0.5-4.9-0.5C264.3,47.8,263.2,48,262.5,48.8z"/>
			</g>
			<g>
				<path class="st2" d="M301.6,68.6h-4.3l-9.7-15.7l-1.6-2.6l-0.8-1.3l-0.8-1.3h-0.1l0,0.9v0.9v1.7v17.4h-2.6V45.5h4.3l8.4,13.8
					l2.2,3.6l1.1,1.8l1.1,1.8h0.1l0-0.9v-0.9V63V45.5h2.6V68.6z"/>
				<path class="st2" d="M301.9,68.8h-4.6L287.5,53l-2.7-4.4v20.2h-3.1V45.3h4.6l12.4,20.4V45.3h3.1V68.8z M297.5,68.3h3.9V45.8
					h-2.1v19.8l0,1.1h-0.5l-2.3-3.7l-2.2-3.6L286,45.8h-3.9v22.6h2.1V48.6l0-1.1h0.5l0.8,1.4l0.8,1.3l1.6,2.6L297.5,68.3z"/>
			</g>
		</g>
		<g class="st1">
			<path class="st2" d="M238.9,181.2l0.9-20.9l0.7-20.9l0.5-20.9l0.1-2.6c0-0.8,0-1.7-0.1-2.5c-0.2-1.7-0.4-3.3-0.9-4.9
				c-0.9-3.2-2.3-6.3-4.2-9c-3.7-5.5-9.3-9.7-15.5-11.7c-3.1-1-6.4-1.5-9.6-1.5l-10.4,0.1l-20.9,0.1l-20.9-0.1
				c-13.9-0.1-27.9-0.3-41.8-0.5l-10.4-0.2c-1.8,0-3.4-0.1-5.1,0.1c-1.7,0.1-3.3,0.4-4.9,0.9c-6.4,1.7-12.2,5.8-16.1,11.3
				c-3.9,5.5-5.8,12.4-5.5,19.2l0.9,20.9c0.6,13.9,1.3,27.8,2.1,41.7l0.1,1.3l0,0.7l0,0.3l0,0.4c-0.1,1.1-0.5,2.1-1.1,3
				c-0.7,0.8-1.6,1.5-2.7,1.8c-0.5,0.2-1.1,0.2-1.6,0.2l-1.3,0.1l-10.4,0.6l-20.9,1.1L29.5,190l-5.2,0.3c-0.8,0-1.4,0.1-1.8,0.4
				c-0.4,0.2-0.5,0.4-0.6,0.7c0,0.1,0,0.2,0,0.3c0,0.1,0,0.1,0,0.2c0,0,0,0.1,0,0.1c0,0.1,0,0.1,0,0c0,0,0.1,0,0.3,0.1
				c0.2,0.1,0.5,0.1,0.9,0.1l5.2,0l10.4-0.1c13.9-0.2,27.8-0.2,41.8-0.3l41.8-0.2l41.8,0l41.8,0.2c13.9,0.1,27.9,0.3,41.8,0.6
				l20.9,0.5l10.4,0.2l5.2,0.1l2.6,0.1c0.4,0,0.7-0.1,0.8-0.1c0,0,0.1-0.1,0.1-0.5l1.3-0.7l-1.3,0.7c0-0.9-0.3-1.5-1.1-1.9
				c-0.8-0.4-1.9-0.5-3-0.6l-6.6-0.8l-13.3-1.5l-13.3-1.4l-6.7-0.7c-1.2-0.1-2.3-0.6-3.2-1.4C239.4,183.5,238.9,182.4,238.9,181.2z
				 M239.4,181.2c0,1,0.4,2.1,1.2,2.8c0.8,0.7,1.8,1.1,2.8,1.2l6.7,0.6l13.3,1.2l13.3,1.2l6.7,0.5c1.1,0.1,2.3,0.1,3.5,0.6
				c0.6,0.2,1.3,0.6,1.7,1.3c0.4,0.6,0.6,1.4,0.6,2l-1.3,0.7l1.3-0.7c0,0.3,0,0.6-0.1,0.9c-0.1,0.3-0.3,0.7-0.7,1
				c-0.7,0.5-1.3,0.5-1.7,0.5l-1.3,0.1c-0.4,0-0.9,0-1.3,0l-5.2,0.1l-10.4,0.2l-20.9,0.5c-13.9,0.3-27.8,0.5-41.8,0.6l-41.8,0.2
				l-41.8,0l-41.8-0.2c-13.9-0.1-27.9-0.1-41.8-0.3l-10.4-0.1l-5.3-0.1c-0.5,0-1.1-0.1-1.7-0.2c-0.6-0.2-1.3-0.5-2-1.1
				c-0.6-0.6-1-1.5-1.1-2.3c0-0.2,0-0.4,0-0.5c0-0.1,0-0.3,0-0.5c0-0.3,0.1-0.7,0.2-1c0.2-0.7,0.5-1.4,1-1.9
				c0.5-0.5,1.1-0.9,1.7-1.2c1.2-0.5,2.3-0.6,3.3-0.6l5.2-0.1l10.4-0.3l20.9-0.6l10.4-0.3l1.3,0c0.4,0,0.7,0,1-0.1
				c0.6-0.2,1.2-0.5,1.6-1c0.4-0.5,0.7-1.1,0.7-1.8l0-0.2l0-0.3l0-0.7l0-1.3c-0.5-13.9-1-27.8-1.6-41.7l-1-20.9
				c-0.4-7.1,1.5-14.4,5.5-20.3c3.9-6,10-10.7,17-12.8c1.7-0.5,3.5-0.9,5.3-1.1c1.8-0.2,3.7-0.2,5.4-0.3l10.4-0.2
				c13.9-0.2,27.9-0.5,41.8-0.5l20.9-0.1l20.9,0.1l10.4,0.1c3.7,0.1,7.4,0.7,10.9,2c6.9,2.6,12.9,7.5,16.7,13.7
				c1.9,3.1,3.3,6.5,4.1,10c0.4,1.8,0.6,3.6,0.8,5.4c0.1,0.9,0.1,1.8,0,2.7l-0.2,2.6l-1.4,20.9l-1.2,20.9L239.4,181.2z"/>
		</g>
	</g>
	<g class="st0">
		<g class="st1">
			<path class="st2" d="M85.6,31.9c0-2.5-0.2-3.4-0.7-4.3c-0.9-1.5-2.5-1.8-7-1.8c-5.2,0-7,0.3-8,1.5c-0.8,0.9-1.2,2.3-1.2,4.4
				c0,3,0.7,4.5,2.4,5.1c1.1,0.4,1.4,0.5,6.9,0.7c6.2,0.3,8,0.7,9.5,1.9c1.8,1.3,2.4,3.4,2.4,7.4c0,4.5-0.8,7-2.8,8.3
				c-1.9,1.2-4.3,1.6-11.1,1.6c-4.6,0-6.2-0.3-8.2-1.4c-1.3-0.8-2.3-2.3-2.7-4c-0.3-1.5-0.4-2.4-0.4-5.3h3.8c0,3.6,0.1,4.3,0.8,5.5
				c0.9,1.7,2,1.9,8,1.9c8.1,0,8.9-0.7,8.9-6.9c0-2.8-0.5-4.1-2-4.7c-1-0.4-1-0.4-7.1-0.8c-6.2-0.3-6.7-0.4-8.3-1.1
				C66.1,38.4,65,36.2,65,32c0-3.9,0.8-6.3,2.5-7.6c1.9-1.5,4.3-2,10-2c6.3,0,8.9,0.7,10.4,2.8c1.1,1.4,1.5,3.1,1.5,6.1v0.6H85.6z"
				/>
			<path class="st2" d="M121.9,56.2h-3.8V40.7H98.6v15.5h-3.8V22.8h3.8v14.7h19.5V22.8h3.8V56.2z"/>
			<path class="st2" d="M128.2,22.8h15.9c7.2,0,9.8,2.5,9.8,9.6c0,6-1.3,8-5.8,8.8v0c3.5,0.2,5.4,2.5,5.3,6.5v8.5h-3.8v-7.6
				c0.1-4.3-1.8-6-6.3-5.8H132v13.4h-3.8V22.8z M142.8,39.5c5.5,0,7.3-1.5,7.3-6c0-3.5-0.2-4.9-0.9-5.8c-0.8-1.1-2.4-1.7-5.1-1.7
				H132v13.5H142.8z"/>
			<path class="st2" d="M162.9,56.2h-3.8V22.8h3.8V56.2z"/>
			<path class="st2" d="M197.6,56.2h-6.2l-14-22.7l-2.3-3.8l-1.1-1.9L173,26h-0.1l0,1.3v1.3V31v25.2h-3.8V22.8h6.2l12.2,19.9
				l3.2,5.2l1.6,2.6l1.5,2.6h0.1l0-1.3v-1.3v-2.5V22.8h3.8V56.2z"/>
			<path class="st2" d="M207.7,37.4h3.3l13.7-14.6h4.9L214.3,39l17.1,17.2h-5.1L211,40.8h-3.3v15.4H204V22.8h3.8V37.4z"/>
		</g>
		<g class="st1">
			<g>
				<path class="st3" d="M72.2,111.9v8.9c2.9-3.1,5.8-6.2,8.7-9.3c6.9-7.3,13.9-14.6,20.9-21.8H92C85.5,97.2,78.8,104.5,72.2,111.9z
					"/>
			</g>
			<g>
				<path class="st3" d="M82.5,113.3c-3.4,3.8-6.9,7.5-10.4,11.2v8.9c6.7-7.4,13.4-14.8,20.3-22c6.9-7.3,13.9-14.6,20.9-21.8h-9.7
					C96.6,97.6,89.6,105.4,82.5,113.3z"/>
			</g>
			<g>
				<path class="st3" d="M72.3,108.3c5.9-6.2,11.9-12.4,17.9-18.6C80.7,90.4,73.2,98.3,72.3,108.3z"/>
			</g>
			<g>
				<path class="st3" d="M94.1,113.3c-7.2,8-14.6,15.8-21.9,23.5v9.4c10.6-11.6,21.1-23.3,31.8-34.7c6.9-7.3,13.9-14.6,20.9-21.8
					h-9.7C108.2,97.6,101.2,105.4,94.1,113.3z"/>
			</g>
			<g>
				<path class="st3" d="M129.9,146.3c10.6-11.6,21.1-23.4,31.9-34.8c6.9-7.3,13.9-14.6,20.9-21.8H173c-7,7.9-14,15.7-21.1,23.6
					c-10.6,11.7-21.5,23-32.3,34.5l-32.3,34.4l-4,4.2c2.4,1.2,5.1,1.9,7.9,1.9h0.4l6.3-7L129.9,146.3z"/>
			</g>
			<g>
				<path class="st3" d="M118.4,146.3c10.6-11.6,21.1-23.4,31.9-34.8c6.9-7.3,13.9-14.6,20.9-21.8h-9.7c-7,7.9-14,15.7-21.1,23.6
					c-10.6,11.7-21.5,23-32.3,34.5L76.8,181c1.6,1.9,3.4,3.6,5.5,4.8l4.1-4.6L118.4,146.3z"/>
			</g>
			<g>
				<path class="st3" d="M105.7,113.3c-10.6,11.7-21.5,23-32.3,34.5l-1.2,1.3v9.8l11.5-12.6c10.6-11.6,21.1-23.4,31.9-34.8
					c6.9-7.3,13.9-14.6,20.9-21.8h-9.7C119.8,97.6,112.7,105.4,105.7,113.3z"/>
			</g>
			<g>
				<path class="st3" d="M226.9,179.5c2.2-3.4,3.6-7.5,3.6-12v-2.2l-15.9,16.9l-5.7,6.1h2.4c4.3,0,8.2-1.5,11.4-4.1l2.6-2.8
					L226.9,179.5z"/>
			</g>
			<g>
				<path class="st3" d="M96.6,147.7l-23.7,25.2c0.7,2.6,1.8,5,3.2,7l30.7-33.7c10.6-11.6,21.1-23.4,31.9-34.8
					c6.9-7.3,13.9-14.6,20.9-21.8h-9.7c-7,7.9-14,15.7-21.1,23.6C118.2,124.9,107.3,136.3,96.6,147.7z"/>
			</g>
			<g>
				<path class="st3" d="M117.2,113.3c-10.6,11.7-21.5,23-32.3,34.5l-12.8,13.6v6.1c0,1.3,0.1,2.5,0.3,3.7l22.7-24.9
					c10.6-11.6,21.1-23.4,31.9-34.8c6.9-7.3,13.9-14.6,20.9-21.8h-9.7C131.4,97.6,124.3,105.4,117.2,113.3z"/>
			</g>
			<g>
				<path class="st3" d="M167.5,181.2l31.8-34.9c10.3-11.4,20.6-22.8,31.1-34v-1.9c0-2.2-0.3-4.3-0.9-6.2c-2.7,3-5.5,6.1-8.2,9.1
					c-10.6,11.7-21.5,23-32.3,34.5l-32.3,34.4l-5.7,6.1h10.1L167.5,181.2z"/>
			</g>
			<g>
				<path class="st3" d="M190.6,181.2l31.8-34.9c2.7-2.9,5.3-5.9,8-8.8v-9.1c-6.1,6.5-12.2,12.9-18.2,19.3l-32.3,34.4l-5.7,6.1h10.1
					L190.6,181.2z"/>
			</g>
			<g>
				<path class="st3" d="M179.1,181.2l31.8-34.9c6.5-7.2,13-14.4,19.6-21.5v-8.8c-9.8,10.7-19.8,21.2-29.8,31.8l-32.3,34.4l-5.7,6.1
					h10.1L179.1,181.2z"/>
			</g>
			<g>
				<path class="st3" d="M109.6,181.2l31.8-34.9c10.6-11.6,21.1-23.4,31.9-34.8c6.9-7.3,13.9-14.6,20.9-21.8h-9.7
					c-7,7.9-14,15.7-21.1,23.6c-10.6,11.7-21.5,23-32.3,34.5l-32.3,34.4l-5.7,6.1h10.1L109.6,181.2z"/>
			</g>
			<g>
				<polygon class="st3" points="213.8,181.2 230.5,162.9 230.5,152.9 203,182.1 197.3,188.1 207.4,188.1 				"/>
			</g>
			<g>
				<path class="st3" d="M202.2,181.2l28.3-31v-9.5c-2.2,2.3-4.4,4.7-6.7,7.1l-32.3,34.4l-5.7,6.1h10.1L202.2,181.2z"/>
			</g>
			<g>
				<path class="st3" d="M132.8,181.2l31.8-34.9c10.6-11.6,21.1-23.4,31.9-34.8c6.7-7,13.4-14,20.1-20.9c-1.7-0.5-3.5-0.8-5.3-0.8
					h-3.6c-7,7.9-14,15.7-21.1,23.6c-10.6,11.7-21.5,23-32.3,34.5L122,182.1l-5.7,6.1h10.1L132.8,181.2z"/>
			</g>
			<g>
				<path class="st3" d="M121.2,181.2l31.8-34.9c10.6-11.6,21.1-23.4,31.9-34.8c6.9-7.3,13.9-14.6,20.9-21.8h-9.7
					c-7,7.9-14,15.7-21.1,23.6c-10.6,11.7-21.5,23-32.3,34.5l-32.3,34.4l-5.7,6.1h10.1L121.2,181.2z"/>
			</g>
			<g>
				<path class="st3" d="M155.9,181.2l31.8-34.9c10.6-11.6,21.1-23.4,31.9-34.8c3-3.2,6.1-6.4,9.1-9.5c-0.9-2.2-2.1-4.1-3.6-5.8
					c-5.1,5.7-10.2,11.4-15.4,17.1c-10.6,11.7-21.5,23-32.3,34.5l-32.3,34.4l-5.7,6.1h10.1L155.9,181.2z"/>
			</g>
			<g>
				<path class="st3" d="M144.3,181.2l31.8-34.9c10.6-11.6,21.1-23.4,31.9-34.8c5.3-5.5,10.5-11.1,15.9-16.6
					c-1.7-1.6-3.7-2.9-5.9-3.8c-6.6,7.5-13.2,14.8-19.9,22.2c-10.6,11.7-21.5,23-32.3,34.5l-32.3,34.4l-5.7,6.1H138L144.3,181.2z"/>
			</g>
		</g>
		<g class="st1">
			<path class="st2" d="M232.6,189.5c0.3-22.5,0.8-45,1.4-67.4l0.1-4.2l0.1-2.1c0-0.7,0-1.3-0.1-2c-0.2-2.7-0.8-5.3-1.7-7.8
				c-1.8-5-5-9.5-9-12.8c-4.1-3.4-9-5.6-14.2-6.4c-1.3-0.2-2.6-0.3-3.9-0.4c-0.6,0-1.3,0-2,0l-2.1,0l-8.4,0
				c-22.5,0.1-45,0.1-67.5-0.3l-16.9-0.3l-8.4-0.1l-2.1,0c-0.7,0-1.3,0-2,0.1c-1.3,0.1-2.7,0.3-4,0.5c-5.3,1-10.2,3.6-14.2,7.4
				c-3.9,3.7-6.8,8.6-8.2,13.9c-0.7,2.6-1.1,5.4-1.1,8.1l0.3,8.4l0.7,16.8c0.5,11.2,1.1,22.5,1.7,33.7l0.2,4.2l0.1,2.1l0.1,1.1
				c0,0.4,0,0.6,0.1,0.9c0.1,0.6,0.3,1.3,0.5,2c0.1,0.4,0.2,0.7,0.2,1.1c0.1,0.4,0.1,0.9,0,1.5c-0.1,0.6-0.7,1.2-1.2,1.5
				c-0.3,0.1-0.5,0.2-0.8,0.3c-0.2,0.1-0.4,0.1-0.5,0.2c-0.3,0.1-0.7,0.3-1,0.5c-0.3,0.2-0.7,0.4-1,0.4c-0.7,0.1-1.3,0.2-1.7,0.4
				c-0.5,0.2-0.5,0.3-0.5,0.4c0,0.1-0.1,0.2-0.1,0.4c0,0.1,0,0.2,0,0.3c0,0,0,0.1,0,0.1c0,0.1,0.2,0.2,0.3,0.3c0.1,0,0.1,0,0.2,0
				l1.1,0l2.1,0l4.2-0.1l33.7-0.3c22.5-0.2,45-0.4,67.4-0.1c5.6,0,11.2,0.1,16.9,0.2l16.9,0.2l31.5,0.6l2.1-1.2l-2.1,1.2
				c0,0,0.1,0,0-0.2c-0.1-0.2-0.3-0.4-0.5-0.5c-0.5-0.4-1.2-0.7-1.9-1c-0.7-0.3-1.4-0.5-2.2-0.7c-0.7-0.2-1.5-0.4-2.3-0.5v-0.5
				c1.6-0.2,3.2-0.2,4.9,0c0.8,0.1,1.7,0.3,2.5,0.6c0.4,0.2,0.9,0.5,1.3,0.9c0.4,0.4,0.8,1.1,0.9,1.9l-2.1,1.2l2.1-1.2
				c0,0.5,0,1.2-0.6,1.9c-0.3,0.3-0.6,0.6-1,0.7c-0.3,0.1-0.6,0.2-0.9,0.2c-1,0.1-1.6,0.1-2.3,0.1l-4.2,0.1l-8.4,0.2l-16.9,0.3
				l-16.9,0.2c-5.6,0.1-11.2,0.1-16.9,0.2c-22.5,0.3-45,0.1-67.5-0.1l-33.7-0.3l-4.2-0.1l-2.1,0l-1.1,0c-0.6,0-1.3-0.1-1.8-0.4
				c-1.2-0.6-2-1.6-2.3-2.9c-0.1-0.3-0.1-0.6-0.1-0.9c0-0.3,0-0.5,0-0.7c0.1-0.5,0.2-1.1,0.5-1.6c0.3-0.6,0.7-1.1,1.2-1.5
				c0.5-0.4,1-0.6,1.4-0.8c0.9-0.3,1.7-0.4,2.4-0.5c0.4-0.1,0.7,0,1.1,0.1c0.4,0.1,0.7,0.1,1.1,0.2c0.2,0,0.4,0.1,0.5,0.1
				c0.1,0,0.2,0,0.2-0.1c0.1-0.1,0,0,0.1-0.1c0.1-0.2,0-0.9-0.2-1.5c-0.2-0.7-0.3-1.4-0.5-2.2c-0.1-0.4-0.1-0.8-0.1-1.2l0-1.1
				l-0.1-2.1l-0.1-4.2c-0.4-11.2-0.8-22.5-1.3-33.7l-0.8-16.8l-0.4-8.4c0-2.9,0.3-5.8,1-8.6c1.4-5.6,4.3-10.8,8.4-15
				c4.1-4.2,9.4-7.2,15.1-8.5c1.4-0.3,2.9-0.6,4.3-0.7c0.7-0.1,1.5-0.1,2.2-0.1l2.1,0l8.4-0.1l16.9-0.3c22.5-0.4,45-0.4,67.5-0.3
				l8.4,0l2.1,0c0.7,0,1.4,0,2.2,0c1.5,0,3,0.2,4.5,0.5c5.9,1,11.5,3.7,16,7.6c4.5,3.9,8,9,9.9,14.6c1,2.8,1.5,5.8,1.7,8.7
				c0.1,0.7,0,1.5,0.1,2.3l-0.1,2.1l-0.2,4.2c-1.2,22.5-2.6,44.9-4.1,67.4L232.6,189.5z"/>
		</g>
	</g>
</g>
</svg>
