<?xml version="1.0" encoding="utf-8"?>
<!-- Generator: Adobe Illustrator 23.1.0, SVG Export Plug-In . SVG Version: 6.00 Build 0)  -->
<svg version="1.1" baseProfile="basic" id="Livello_1"
	 xmlns="http://www.w3.org/2000/svg" xmlns:xlink="http://www.w3.org/1999/xlink" x="0px" y="0px" viewBox="0 0 46 46"
	 xml:space="preserve">
<style type="text/css">
	.st0{fill:none;stroke:#4E4E4D;stroke-miterlimit:10;}
	.st1{fill:#3C3C3B;}
</style>
<title>Risorsa 4</title>
<g>
	<g>
		<circle id="XMLID_1_" class="st0" cx="23" cy="23" r="22.2"/>
		<g id="outline_1_">
			<path class="st1" d="M33.7,39.5v-3.7c0-0.3-0.3-0.6-0.6-0.6h-1.8c-0.2,0-0.3,0.1-0.4,0.2l-0.4,0.4h-2.8v-1.2
				c0-0.3-0.3-0.6-0.6-0.6v-4.9h0.6c1,0,1.8-0.8,1.8-1.8v-1.2c0-1-0.8-1.8-1.8-1.8H27v-5.5c0-0.3-0.3-0.6-0.6-0.6h-0.6v-0.6
				c0.2,0,0.3-0.1,0.4-0.2l1.2-1.2c0.1-0.1,0.2-0.3,0.2-0.4v-1.8c0-0.3-0.3-0.6-0.6-0.6h-3.7c-0.3,0-0.6,0.3-0.6,0.6v1.8
				c0,0.2,0.1,0.3,0.2,0.4l1.2,1.2c0.1,0.1,0.3,0.2,0.4,0.2v0.6h-0.6c-0.3,0-0.6,0.3-0.6,0.6v5.5h-3.7c-0.3,0-0.6-0.3-0.6-0.6V10.2
				c0-0.3,0.3-0.6,0.6-0.6h2.7l0.4,0.9c0.1,0.2,0.3,0.3,0.5,0.3H27c0.3,0,0.6-0.3,0.6-0.6v-0.1c0-2-1.1-3.9-3-4.8
				c-0.8-0.4-1.6-0.6-2.4-0.6h-3.5c-3.5,0-6.4,2.8-6.4,6.4l0,0v12.2c0,3.2,2.6,5.8,5.8,5.8h5.2V34c-0.3,0-0.6,0.3-0.6,0.6v1.2h-3.4
				l-0.4-0.4c-0.1-0.1-0.3-0.2-0.4-0.2h-1.8c-0.3,0-0.6,0.3-0.6,0.6v3.7c0,0.3,0.3,0.6,0.6,0.6h1.8c0.2,0,0.3-0.1,0.4-0.2l0.4-0.4
				h3.4v1.2c0,0.3,0.3,0.6,0.6,0.6H27c0.3,0,0.6-0.3,0.6-0.6v-1.2h2.8l0.4,0.4c0.1,0.1,0.3,0.2,0.4,0.2h1.8
				C33.4,40.1,33.7,39.8,33.7,39.5z M24.5,30.9l1.2-0.5v1.1l-1.2,0.5V30.9z M24.5,24.2L24.5,24.2l1.2-0.5v0.5H24.5L24.5,24.2z
				 M24.5,21.7l1.2-0.5v1.1l-1.2,0.5V21.7z M25.7,19.3V20l-1.2,0.5v-1.1H25.7z M14.9,26.5c-0.9-0.9-1.4-2-1.3-3.3V11
				c0-2.8,2.3-5.1,5.1-5.1h3.5c0.6,0,1.3,0.1,1.9,0.4c1.3,0.6,2.1,1.8,2.3,3.2h-2.6l-0.4-0.9c-0.1-0.2-0.3-0.3-0.5-0.3h-3.1
				c-1,0-1.8,0.8-1.8,1.8v13.4c0,1,0.8,1.8,1.8,1.8h7.9c0.3,0,0.6,0.3,0.6,0.6v1.2c0,0.3-0.3,0.6-0.6,0.6h-9.4
				C16.9,27.9,15.7,27.4,14.9,26.5z M25.7,29.1L25.7,29.1l-1.2,0.5v-0.5H25.7L25.7,29.1z M24.5,33.3l1.2-0.5V34h-1.2V33.3z"/>
			<path class="st1" d="M16,9.6c-0.3,0-0.6,0.3-0.6,0.6v13.4c0,0.3,0.3,0.6,0.6,0.6c0.3,0,0.6-0.3,0.6-0.6V10.2
				C16.6,9.9,16.3,9.6,16,9.6z"/>
			<path class="st1" d="M20.2,26.1h-1.8c-0.3,0-0.6,0.3-0.6,0.6s0.3,0.6,0.6,0.6h1.8c0.3,0,0.6-0.3,0.6-0.6S20.6,26.1,20.2,26.1z"/>
			<path class="st1" d="M18.4,7.7h1.8c0.3,0,0.6-0.3,0.6-0.6c0-0.3-0.3-0.6-0.6-0.6h-1.8c-0.3,0-0.6,0.3-0.6,0.6
				C17.8,7.5,18.1,7.7,18.4,7.7z"/>
		</g>
	</g>
</g>
</svg>
