<?xml version="1.0" encoding="utf-8"?>
<!-- Generator: Adobe Illustrator 23.1.0, SVG Export Plug-In . SVG Version: 6.00 Build 0)  -->
<svg version="1.1" baseProfile="basic" id="Livello_1"
	 xmlns="http://www.w3.org/2000/svg" xmlns:xlink="http://www.w3.org/1999/xlink" x="0px" y="0px" viewBox="0 0 46 46"
	 xml:space="preserve">
<style type="text/css">
	.st0{fill:none;stroke:#3C3C3B;stroke-miterlimit:10;}
	.st1{fill:#3C3C3B;}
</style>
<title>Risorsa 4</title>
<g>
	<g id="Livello_1-2">
		<g>
			<image style="overflow:visible;" width="46" height="46" xlink:href="922C5E28.png"  transform="matrix(1 0 0 1 3 80)">
			</image>
		</g>
		<circle class="st0" cx="26.1" cy="103.4" r="22.5"/>
	</g>
</g>
<g>
	<g id="XMLID_72_">
		<circle id="XMLID_74_" class="st0" cx="23" cy="23" r="21.7"/>
	</g>
	<g>
		<path class="st1" d="M25.9,22.4h-1.5l0.8-2.5c0.1-0.4,0-0.7-0.2-1c-0.2-0.3-0.6-0.5-0.9-0.5h-2.3c-0.5,0-1,0.3-1.1,0.8l-1.4,4.6
			c-0.1,0.4,0,0.7,0.2,1c0.2,0.3,0.6,0.5,0.9,0.5h1.9l-1.5,4.4c-0.1,0.3,0,0.6,0.3,0.7c0.2,0.1,0.5,0.1,0.7-0.1l5-6
			c0.3-0.3,0.4-0.8,0.2-1.2C26.8,22.7,26.4,22.4,25.9,22.4z"/>
		<path class="st1" d="M39.2,15.5H38c-0.6,0-1.1,0.5-1.1,1.1v2.9h-1.1v-2.9c0-1-0.8-1.7-1.7-1.7h-9.2v-1.1h2.9
			c0.6,0,1.1-0.5,1.1-1.1v-0.6c0-1.6-1.3-2.9-2.9-2.9h-5.8c-1.6,0-2.9,1.3-2.9,2.9v0.6c0,0.6,0.5,1.1,1.1,1.1h2.9v1.1h-0.6
			c-0.5,0-0.9,0.1-1.3,0.4l-4.3,2.9c-0.2,0.1-0.4,0.2-0.7,0.2h-1.8c-1,0-1.7,0.8-1.7,1.7v4H9.2v-2.9c0-0.6-0.5-1.1-1.1-1.1H6.9
			c-0.6,0-1.1,0.5-1.1,1.1v9.2c0,0.6,0.5,1.1,1.1,1.1h1.1c0.6,0,1.1-0.5,1.1-1.1v-2.9h1.7v3.5c0,1,0.8,1.7,1.7,1.7h12.1
			c0.5,0,1-0.2,1.4-0.5l6-4.5c0.2-0.2,0.4-0.2,0.7-0.2H34c1,0,1.7-0.8,1.7-1.7V23h1.1v2.9c0,0.6,0.5,1.1,1.1,1.1h1.1
			c0.6,0,1.1-0.5,1.1-1.1v-9.2C40.3,16,39.8,15.5,39.2,15.5z M22.5,13.8h1.1v1.1h-1.1V13.8z M8.1,30.5H6.9v-9.2h1.1V30.5z M9.2,26.5
			v-1.1H11v1.1H9.2z M34.6,25.9c0,0.3-0.3,0.6-0.6,0.6h-1.1c-0.5,0-1,0.2-1.4,0.5l-6,4.5c-0.2,0.2-0.4,0.2-0.7,0.2H12.7
			c-0.3,0-0.6-0.3-0.6-0.6V20.1c0-0.3,0.3-0.6,0.6-0.6h1.8c0.5,0,0.9-0.1,1.3-0.4l4.3-2.9c0.2-0.1,0.4-0.2,0.7-0.2H34
			c0.3,0,0.6,0.3,0.6,0.6V25.9L34.6,25.9z M35.7,21.9v-1.1h1.1v1.1H35.7z"/>
		<path class="st1" d="M14.3,20.9c-0.2-0.2-0.6-0.2-0.8,0c-0.1,0.1-0.1,0.1-0.1,0.2c0,0.1-0.1,0.1-0.1,0.2c0,0.2,0.1,0.4,0.4,0.5
			c0.2,0.1,0.5,0,0.6-0.1c0.2-0.2,0.2-0.4,0.1-0.6C14.4,21,14.3,20.9,14.3,20.9z"/>
		<path class="st1" d="M13.8,23c-0.3,0-0.6,0.3-0.6,0.6v5.2c0,0.3,0.3,0.6,0.6,0.6c0.3,0,0.6-0.3,0.6-0.6v-5.2
			C14.4,23.3,14.2,23,13.8,23z"/>
	</g>
</g>
</svg>
