<?xml version="1.0" encoding="utf-8"?>
<!-- Generator: Adobe Illustrator 23.0.1, SVG Export Plug-In . SVG Version: 6.00 Build 0)  -->
<svg version="1.1" id="Livello_1" xmlns="http://www.w3.org/2000/svg" xmlns:xlink="http://www.w3.org/1999/xlink" x="0px" y="0px"
	 viewBox="0 0 46 46.8" style="enable-background:new 0 0 46 46.8;" xml:space="preserve">
<style type="text/css">
	.st0{clip-path:url(#SVGID_2_);}
	.st1{fill:#3C3C3B;}
	.st2{fill:none;}
</style>
<title>Risorsa 7</title>
<g>
	<g id="Livello_1-2">
		<g>
			<defs>
				<circle id="SVGID_1_" cx="23" cy="23" r="22.5"/>
			</defs>
			<clipPath id="SVGID_2_">
				<use xlink:href="#SVGID_1_"  style="overflow:visible;"/>
			</clipPath>
			<g class="st0">
				<path class="st1" d="M5.8,30.5l7.2-6h15c0,0,2,0.5,2,1.9v1.4c0.1,0.9-0.5,1.6-1.4,1.9l-9,0.4h13.9l6.5-7.9
					c1-0.9,2.4-1.2,3.7-0.5l1.4,0.7c0.7,0.9,0.7,2.1,0,2.9L34.6,41.7H7.7l-5.1,5L2.5,33.1L5.8,30.5z"/>
				<path class="st1" d="M27,10.3c-0.5-0.5-1.1-1-1.8-1.2c-0.8-0.3-1.6-0.5-2.5-0.5c-1.1-0.1-2.1,0.2-3,0.8c-0.6,0.5-1,1.3-1,2.1
					c0,0.4,0,0.8,0.2,1.2c0.2,0.3,0.5,0.6,0.8,0.8c0.4,0.2,0.9,0.4,1.4,0.6c0.5,0.2,1.2,0.3,2,0.5c0.8,0.2,1.5,0.3,2.3,0.6
					c0.6,0.2,1.2,0.5,1.7,0.8c0.5,0.3,0.8,0.7,1.1,1.2c0.3,0.6,0.4,1.2,0.4,1.8c0,0.7-0.1,1.3-0.4,1.9c-0.3,0.5-0.7,1-1.2,1.3
					c-0.5,0.4-1.2,0.6-1.8,0.8c-0.7,0.2-1.5,0.3-2.3,0.3c-2.3,0.1-4.5-0.8-6.3-2.3l0.8-1.3c0.7,0.7,1.4,1.2,2.3,1.5
					c1,0.4,2.1,0.6,3.2,0.6c1,0.1,2-0.2,2.9-0.7c0.7-0.4,1.1-1.2,1-2c0-0.4-0.1-0.8-0.3-1.2c-0.2-0.4-0.5-0.7-0.9-0.9
					c-0.5-0.3-1-0.5-1.5-0.6c-0.6-0.2-1.3-0.4-2.1-0.5s-1.5-0.4-2.2-0.6c-0.6-0.2-1.1-0.4-1.5-0.8c-0.4-0.3-0.7-0.7-1-1.1
					c-0.2-0.5-0.3-1-0.3-1.6c0-0.7,0.1-1.3,0.4-1.9c0.3-0.6,0.7-1,1.1-1.4c0.5-0.4,1.1-0.7,1.8-0.9c0.7-0.2,1.5-0.3,2.3-0.3
					c0.9,0,1.9,0.1,2.8,0.5c0.8,0.3,1.6,0.8,2.2,1.3L27,10.3z"/>
				<line class="st2" x1="22.5" y1="7.8" x2="22.5" y2="5.9"/>
				<rect x="22" y="5.9" class="st1" width="1" height="2"/>
				<line class="st2" x1="22.6" y1="24" x2="22.6" y2="22"/>
				<rect x="22.1" y="22" class="st1" width="1" height="2.1"/>
				<path class="st1" d="M22.6,27.2c-6.7,0-12.1-5.4-12.1-12.1C10.6,8.4,16,3,22.6,3c6.7,0,12.1,5.4,12.1,12.1c0,0,0,0,0,0
					C34.7,21.8,29.3,27.2,22.6,27.2z M22.6,4c-6.1,0-11.1,5-11.1,11.1s5,11.1,11.1,11.1c6.1,0,11-4.9,11.1-11C33.7,9,28.8,4,22.6,4
					C22.7,4,22.7,4,22.6,4z"/>
			</g>
		</g>
		<path class="st1" d="M23,46C10.3,46,0,35.7,0,23S10.3,0,23,0s23,10.3,23,23S35.7,46,23,46z M23,1C10.8,1,1,10.8,1,23s9.8,22,22,22
			s22-9.8,22-22S35.2,1,23,1z"/>
	</g>
</g>
</svg>
