<?xml version="1.0" encoding="utf-8"?>
<!-- Generator: Adobe Illustrator 23.1.0, SVG Export Plug-In . SVG Version: 6.00 Build 0)  -->
<svg version="1.1" baseProfile="basic" id="Livello_1"
	 xmlns="http://www.w3.org/2000/svg" xmlns:xlink="http://www.w3.org/1999/xlink" x="0px" y="0px" viewBox="0 0 46 46"
	 xml:space="preserve">
<style type="text/css">
	.st0{fill:none;stroke:#4E4E4D;stroke-miterlimit:10;}
	.st1{fill:#3C3C3B;}
	.st2{fill:none;stroke:#3C3C3B;stroke-miterlimit:10;}
</style>
<title>Risorsa 4</title>
<g>
	<g>
		<circle id="XMLID_1_" class="st0" cx="-32.5" cy="27.9" r="22.2"/>
		<g id="outline_1_">
			<path class="st1" d="M-21.8,44.4v-3.7c0-0.3-0.3-0.6-0.6-0.6h-1.8c-0.2,0-0.3,0.1-0.4,0.2l-0.4,0.4h-2.8v-1.2
				c0-0.3-0.3-0.6-0.6-0.6V34h0.6c1,0,1.8-0.8,1.8-1.8v-1.2c0-1-0.8-1.8-1.8-1.8h-0.6v-5.5c0-0.3-0.3-0.6-0.6-0.6h-0.6v-0.6
				c0.2,0,0.3-0.1,0.4-0.2l1.2-1.2c0.1-0.1,0.2-0.3,0.2-0.4v-1.8c0-0.3-0.3-0.6-0.6-0.6h-3.7c-0.3,0-0.6,0.3-0.6,0.6v1.8
				c0,0.2,0.1,0.3,0.2,0.4l1.2,1.2c0.1,0.1,0.3,0.2,0.4,0.2V23h-0.6c-0.3,0-0.6,0.3-0.6,0.6v5.5h-3.7c-0.3,0-0.6-0.3-0.6-0.6V15.1
				c0-0.3,0.3-0.6,0.6-0.6h2.7l0.4,0.9c0.1,0.2,0.3,0.3,0.5,0.3h3.7c0.3,0,0.6-0.3,0.6-0.6V15c0-2-1.1-3.9-3-4.8
				c-0.8-0.4-1.6-0.6-2.4-0.6h-3.5c-3.5,0-6.4,2.8-6.4,6.4l0,0v12.2c0,3.2,2.6,5.8,5.8,5.8h5.2v4.9c-0.3,0-0.6,0.3-0.6,0.6v1.2h-3.4
				l-0.4-0.4c-0.1-0.1-0.3-0.2-0.4-0.2h-1.8c-0.3,0-0.6,0.3-0.6,0.6v3.7c0,0.3,0.3,0.6,0.6,0.6h1.8c0.2,0,0.3-0.1,0.4-0.2l0.4-0.4
				h3.4v1.2c0,0.3,0.3,0.6,0.6,0.6h3.7c0.3,0,0.6-0.3,0.6-0.6v-1.2h2.8l0.4,0.4c0.1,0.1,0.3,0.2,0.4,0.2h1.8
				C-22.1,45-21.8,44.7-21.8,44.4z M-31,35.8l1.2-0.5v1.1l-1.2,0.5V35.8z M-31,29.1L-31,29.1l1.2-0.5v0.5H-31L-31,29.1z M-31,26.6
				l1.2-0.5v1.1l-1.2,0.5V26.6z M-29.7,24.2v0.6l-1.2,0.5v-1.1H-29.7z M-40.6,31.4c-0.9-0.9-1.4-2-1.3-3.3V15.9
				c0-2.8,2.3-5.1,5.1-5.1h3.5c0.6,0,1.3,0.1,1.9,0.4c1.3,0.6,2.1,1.8,2.3,3.2h-2.6l-0.4-0.9c-0.1-0.2-0.3-0.3-0.5-0.3h-3.1
				c-1,0-1.8,0.8-1.8,1.8v13.4c0,1,0.8,1.8,1.8,1.8h7.9c0.3,0,0.6,0.3,0.6,0.6v1.2c0,0.3-0.3,0.6-0.6,0.6h-9.4
				C-38.6,32.8-39.7,32.3-40.6,31.4z M-29.7,34L-29.7,34l-1.2,0.5V34H-29.7L-29.7,34z M-31,38.2l1.2-0.5v1.1H-31V38.2z"/>
			<path class="st1" d="M-39.5,14.5c-0.3,0-0.6,0.3-0.6,0.6v13.4c0,0.3,0.3,0.6,0.6,0.6s0.6-0.3,0.6-0.6V15.1
				C-38.9,14.7-39.2,14.5-39.5,14.5z"/>
			<path class="st1" d="M-35.2,30.9h-1.8c-0.3,0-0.6,0.3-0.6,0.6c0,0.3,0.3,0.6,0.6,0.6h1.8c0.3,0,0.6-0.3,0.6-0.6
				C-34.6,31.2-34.9,30.9-35.2,30.9z"/>
			<path class="st1" d="M-37.1,12.6h1.8c0.3,0,0.6-0.3,0.6-0.6s-0.3-0.6-0.6-0.6h-1.8c-0.3,0-0.6,0.3-0.6,0.6S-37.4,12.6-37.1,12.6z
				"/>
		</g>
	</g>
</g>
<g>
	<g>
		<g id="XMLID_5_">
			<circle id="XMLID_6_" class="st2" cx="23" cy="23" r="21.8"/>
		</g>
		<circle id="XMLID_4_" class="st2" cx="16.1" cy="29" r="9.1"/>
		<circle id="XMLID_3_" class="st2" cx="29.9" cy="29" r="9.1"/>
		<circle id="XMLID_2_" class="st2" cx="22.6" cy="16" r="9.1"/>
		<path class="st1" d="M30.7,19.9c-2.3,0-5.2,0.3-7.7,2.9c-1-1-5-3.5-8.5-2.8l-0.2,0l0.1,0.2c0,0.1,1.1,3.2,7,5.1
			c-0.6,1.1-2.2,4.9,1.4,9.7l0.1,0.2L23,35c1.5-1.7,3.3-6.5,1.4-9.8c1.6-0.5,5.6-2.5,6.3-5l0.1-0.2H30.7z"/>
	</g>
</g>
</svg>
