<?xml version="1.0" encoding="utf-8"?>
<!-- Generator: Adobe Illustrator 23.0.1, SVG Export Plug-In . SVG Version: 6.00 Build 0)  -->
<svg version="1.1" id="Livello_1" xmlns="http://www.w3.org/2000/svg" xmlns:xlink="http://www.w3.org/1999/xlink" x="0px" y="0px"
	 viewBox="0 0 46 46" style="enable-background:new 0 0 46 46;" xml:space="preserve">
<style type="text/css">
	.st0{fill:none;stroke:#3C3C3B;stroke-miterlimit:10;}
	.st1{fill:#3C3C3B;}
</style>
<title>Risorsa 8</title>
<g>
	<g id="Livello_1-2">
		<circle class="st0" cx="23" cy="23" r="22.5"/>
		<path class="st1" d="M22.1,13c0,3.4,0.4,6.5,0.4,9.8c0,0,1.7-1.6,3.2-0.7l8.3,3.2c0,0,1.7,1,1.3,2.3v7.8c0,0-0.2,0.8-0.4,1.4
			l-4.3,6.8h-13l-4.2-7.8l-5.6-8.2c-0.4-0.8-0.4-1.7,0-2.5c0.1-0.2,0.3-0.4,0.5-0.5c0.3-0.2,0.8-0.4,1.2-0.4c1,0.1,1.9,0.6,2.4,1.4
			l1.8,1.8c0,0,2.3,2.2,3.3,1.4c0.4-5.6,0.3-10.1,0.7-15.7c0.1-0.6,0-2,0.2-2.6s0.8-1.6,1.6-1.7c0.6-0.1,1.1,0,1.6,0.3
			c0.3,0.3,0.5,0.6,0.7,1"/>
		<circle class="st0" cx="20.1" cy="12.5" r="8.9"/>
	</g>
</g>
</svg>
