<svg xmlns="http://www.w3.org/2000/svg" xmlns:xlink="http://www.w3.org/1999/xlink" id="Livello_1" x="0px" y="0px" viewBox="0 0 1000 1000" style="enable-background:new 0 0 1000 1000;" xml:space="preserve">
<style type="text/css">
	.st0{display:none;}
	.st1{display:inline;}
	.st2{clip-path:url(#SVGID_2_);fill:#6E9F39;}
	.st3{clip-path:url(#SVGID_2_);fill:#444343;}
	.st4{display:inline;fill:#6E9F39;}
	.st5{clip-path:url(#SVGID_4_);fill:#6E9F39;}
	.st6{clip-path:url(#SVGID_4_);fill:#444343;}
	.st7{display:inline;fill:#444343;}
	.st8{clip-path:url(#SVGID_6_);fill:#444343;}
	.st9{clip-path:url(#SVGID_8_);fill:#6E9F39;}
	.st10{clip-path:url(#SVGID_10_);fill:#6E9F39;}
	.st11{clip-path:url(#SVGID_12_);fill:#444343;}
	.st12{clip-path:url(#SVGID_14_);fill:#444343;}
	.st13{clip-path:url(#SVGID_14_);fill:#6E9F39;}
	.st14{clip-path:url(#SVGID_16_);fill:#444343;}
	.st15{clip-path:url(#SVGID_18_);fill:#444343;}
	.st16{clip-path:url(#SVGID_18_);fill:#6E9F39;}
	.st17{clip-path:url(#SVGID_20_);fill:#6E9F39;}
	.st18{clip-path:url(#SVGID_22_);fill:#6E9F39;}
	.st19{clip-path:url(#SVGID_24_);fill:#6E9F39;}
	.st20{fill:#6E9F39;}
	.st21{clip-path:url(#SVGID_26_);fill:#6E9F39;}
	.st22{clip-path:url(#SVGID_28_);fill:#6E9F39;}
	.st23{clip-path:url(#SVGID_28_);fill:#444343;}
	.st24{fill:#444343;}
	.st25{clip-path:url(#SVGID_30_);fill:#444343;}
	.st26{clip-path:url(#SVGID_30_);fill:#6E9F39;}
	.st27{clip-path:url(#SVGID_32_);fill:#6E9F39;}
	.st28{clip-path:url(#SVGID_34_);fill:#6E9F39;}
	.st29{clip-path:url(#SVGID_36_);fill:#6E9F39;}
	.st30{clip-path:url(#SVGID_38_);fill:#6E9F39;}
</style>
<g class="st0">
	<g class="st1">
		<defs>
			<rect id="SVGID_1_" x="53.2" y="205.7" width="893.7" height="588.6"></rect>
		</defs>
		<clipPath id="SVGID_2_">
			<use xlink:href="#SVGID_1_" style="overflow:visible;"></use>
		</clipPath>
		<path class="st2" d="M55.4,419.8c74.3-2.2,148.6-3.6,222.9-5.4l222.9-4.1c37.1-0.7,74.3-1.6,111.4-2.6    c37.1-0.9,74.3-0.9,111.4-0.1l55.7,1.6c18.6,0.8,37.1,1.3,55.7,2.4c37.1,1.9,74.3,4.3,111.4,8.2v2.7c-37.1,3.9-74.3,6.3-111.4,8.2    c-18.6,1.1-37.1,1.6-55.7,2.4l-55.7,1.6c-37.1,0.8-74.3,0.7-111.4-0.1c-37.1-1-74.3-1.8-111.4-2.6l-222.9-4.1    c-74.3-1.8-148.6-3.3-222.9-5.4V419.8z"></path>
		<path class="st3" d="M53.2,467.7l37.2-1.4l37.2-1.2l1.6-0.1l0.8,1.6c12.5,26,24.6,52.1,36.9,78.2l36.4,78.4l36,78.6    c12,26.2,23.9,52.4,35.7,78.7l-8.2-5.4c39.1-0.3,78.2-0.8,117.3-0.8l117.3-0.3l117.3,0.3c39.1,0,78.2,0.5,117.3,0.8l-8.3,5.5    c11.3-26.3,22.7-52.6,34.2-78.7l34.5-78.6l35-78.4c11.8-26.1,23.5-52.2,35.5-78.2l0.8-1.6l1.6,0.1l37.2,1.2l37.2,1.4l-37.2,1.4    l-37.2,1.2l2.4-1.6c-10.2,26.7-20.8,53.3-31.2,80l-31.7,79.8l-32.1,79.6c-10.7,26.6-21.5,53-32.4,79.5l-2.3,5.5l-6,0    c-39.1,0.3-78.2,0.8-117.3,0.8l-117.3,0.3L384.1,794c-39.1,0-78.2-0.6-117.3-0.8l-5.9,0l-2.3-5.3c-11.4-26.5-22.7-52.9-33.9-79.5    l-33.6-79.7l-33.2-79.8c-10.9-26.7-21.9-53.3-32.7-80.1l2.4,1.5l-37.2-1.2L53.2,467.7z"></path>
		<path class="st2" d="M448.5,318.8h-12.7v-90.5v-6.8v-3.4l0.2-3.4h-0.3c-0.5,1.7-1,2.9-1.5,4.2c-0.7,1.5-0.8,1.9-2.5,6.3L393,318.8    h-12.9l-38.5-92.4l-2.2-5.3l-1-2.7l-1-2.5h-0.3l0.2,3.1v3.2v6.1v90.5h-12.7V205.7h22l30.2,73.2l4.8,11.7l2.4,5.9l2.4,5.9h0.3    l2.4-5.9l2.4-5.9l4.7-11.7l30-73.2h22.4V318.8z"></path>
	</g>
	<path class="st4" d="M512.6,216l25.1,68.7h-49.8L512.6,216z M503.4,205.7L462,318.8h13.6l8.7-23.9h57.1l8.8,23.9h13.4l-42.2-113.1   H503.4z"></path>
	<g class="st1">
		<defs>
			<rect id="SVGID_3_" x="53.2" y="205.7" width="893.7" height="588.6"></rect>
		</defs>
		<clipPath id="SVGID_4_">
			<use xlink:href="#SVGID_3_" style="overflow:visible;"></use>
		</clipPath>
		<path class="st5" d="M618,263.5c25.1,0,29.2-3.1,29.2-22.2c0-14.8-1.7-20.3-7-22.7c-3.4-1.5-4.7-1.7-18.1-1.9h-34.3v46.8H618z     M575.1,205.7h47.3c14.6,0,18.7,0.5,23.7,2.7c9.3,4.1,13.7,14.2,13.7,32.2c0,17-4.2,26.5-13.7,31c-5.3,2.5-6.1,2.5-25.6,2.9h-32.7    v44.3h-12.7V205.7z"></path>
		<path class="st6" d="M282.4,620.5V636c8.1-5.5,16.2-11,24.4-16.4c19.5-12.8,39-25.6,58.7-38.2h-27.3    C319.7,594.5,301,607.5,282.4,620.5"></path>
		<path class="st6" d="M311.5,622.8c-9.6,6.6-19.4,13.2-29.1,19.7v15.7c18.8-13,37.7-25.9,56.9-38.6c19.5-12.8,39-25.6,58.7-38.2    h-27.3C351.1,595.3,331.3,609.1,311.5,622.8"></path>
		<path class="st6" d="M282.6,614.2c16.7-10.9,33.4-21.8,50.2-32.6C306.4,582.6,285.2,596.5,282.6,614.2"></path>
		<path class="st6" d="M344,622.8c-20.3,13.9-40.9,27.6-61.6,41.3v16.5c29.7-20.4,59.1-40.9,89.4-60.9c19.5-12.8,39-25.6,58.7-38.2    h-27.3C383.6,595.3,363.8,609.1,344,622.8"></path>
		<path class="st6" d="M444.5,680.7c29.8-20.4,59.3-41,89.6-61.1c19.5-12.8,39-25.6,58.7-38.2h-27.3c-19.5,13.9-39.4,27.6-59.2,41.4    c-29.7,20.5-60.3,40.4-90.6,60.5L325,743.6l-11.1,7.3c6.8,2.1,14.3,3.3,22.3,3.3h1.2l17.7-12.2L444.5,680.7z"></path>
		<path class="st6" d="M412,680.7c29.8-20.4,59.3-41,89.6-61.1c19.5-12.8,39-25.6,58.7-38.2H533c-19.5,13.9-39.4,27.6-59.2,41.4    c-29.7,20.5-60.3,40.4-90.6,60.5l-87.8,58.3c4.4,3.4,9.6,6.3,15.6,8.4l11.6-8L412,680.7z"></path>
		<path class="st6" d="M376.4,622.8c-29.7,20.5-60.3,40.4-90.6,60.5l-3.5,2.3v17.2l32.2-22.1c29.8-20.4,59.3-41,89.6-61.1    c19.5-12.8,39-25.6,58.7-38.2h-27.3C416.1,595.3,396.2,609.1,376.4,622.8"></path>
		<path class="st6" d="M716.8,739c6.3-5.9,10.1-13.2,10.1-21.1V714l-44.6,29.6l-16.1,10.6h6.9c12.1,0,23.2-2.7,32.1-7.2l7.2-5    L716.8,739z"></path>
		<path class="st6" d="M350.8,683.2l-66.5,44.2c1.8,4.5,4.9,8.7,9,12.4l86.2-59.1c29.8-20.4,59.3-41,89.6-61.1    c19.5-12.8,39-25.6,58.7-38.2h-27.3c-19.5,13.9-39.4,27.6-59.2,41.4C411.7,643.3,381.1,663.2,350.8,683.2"></path>
		<path class="st6" d="M408.9,622.8c-29.7,20.5-60.3,40.4-90.6,60.5l-36,23.9v10.7c0,2.2,0.3,4.4,0.9,6.5l63.8-43.7    c29.8-20.4,59.3-41,89.6-61.1c19.5-12.8,39-25.6,58.7-38.2h-27.3C448.5,595.3,428.7,609.1,408.9,622.8"></path>
		<path class="st6" d="M550,742l89.4-61.2c29.1-19.9,57.9-40,87.4-59.6v-3.4c0-3.8-0.9-7.5-2.5-10.9c-7.7,5.3-15.4,10.7-23.1,16    c-29.7,20.5-60.3,40.4-90.6,60.5l-90.8,60.3l-16.1,10.6h28.5L550,742z"></path>
		<path class="st6" d="M615,742l89.4-61.2c7.5-5.1,15-10.3,22.5-15.5v-15.9c-17,11.3-34.2,22.6-51.2,33.9l-90.8,60.3l-16.1,10.6    h28.5L615,742z"></path>
		<path class="st6" d="M582.5,742l89.4-61.2c18.3-12.6,36.6-25.2,55-37.7v-15.5c-27.6,18.8-55.7,37.2-83.7,55.8l-90.8,60.3    l-16.1,10.6h28.5L582.5,742z"></path>
		<path class="st6" d="M387.6,742l89.4-61.2c29.8-20.4,59.3-41,89.6-61.1c19.5-12.8,39-25.6,58.7-38.2H598    c-19.5,13.9-39.4,27.6-59.2,41.4c-29.7,20.5-60.3,40.4-90.6,60.5l-90.8,60.3l-16.1,10.6h28.5L387.6,742z"></path>
	</g>
	<polygon class="st7" points="679.9,742 726.8,709.8 726.8,692.4 649.8,743.6 633.7,754.2 662.2,754.2  "></polygon>
	<g class="st1">
		<defs>
			<rect id="SVGID_5_" x="53.2" y="205.7" width="893.7" height="588.6"></rect>
		</defs>
		<clipPath id="SVGID_6_">
			<use xlink:href="#SVGID_5_" style="overflow:visible;"></use>
		</clipPath>
		<path class="st8" d="M647.4,742l79.4-54.4v-16.7c-6.3,4.1-12.5,8.2-18.7,12.4l-90.8,60.3l-16.1,10.6h28.5L647.4,742z"></path>
		<path class="st8" d="M452.5,742l89.4-61.2c29.8-20.4,59.3-41,89.6-61.1c18.8-12.3,37.5-24.6,56.4-36.7c-4.8-0.9-9.8-1.5-15-1.5    H663c-19.5,13.9-39.4,27.6-59.2,41.4c-29.7,20.5-60.3,40.4-90.6,60.5l-90.8,60.3l-16.1,10.6h28.5L452.5,742z"></path>
		<path class="st8" d="M420.1,742l89.4-61.2c29.8-20.4,59.3-41,89.6-61.1c19.5-12.8,39-25.6,58.7-38.2h-27.3    c-19.5,13.9-39.4,27.6-59.2,41.4c-29.7,20.5-60.3,40.4-90.6,60.5l-90.8,60.3l-16.1,10.6h28.5L420.1,742z"></path>
		<path class="st8" d="M517.5,742l89.4-61.2c29.8-20.4,59.3-41,89.6-61.1c8.5-5.6,17-11.2,25.5-16.7c-2.5-3.8-6-7.2-10.1-10.2    c-14.3,10.1-28.8,20.1-43.2,30.1c-29.7,20.5-60.3,40.4-90.6,60.5l-90.8,60.3l-16.1,10.6h28.5L517.5,742z"></path>
		<path class="st8" d="M485,742l89.4-61.2c29.8-20.4,59.3-41,89.6-61.1c14.8-9.7,29.6-19.4,44.5-29.1c-4.8-2.9-10.4-5.2-16.5-6.7    c-18.5,13.1-37.1,26-55.8,39c-29.7,20.5-60.3,40.4-90.6,60.5l-90.8,60.3l-16.1,10.6h28.5L485,742z"></path>
		<path class="st8" d="M926.1,443.8c-13.8,2.1-27.5,4.3-41.2,7c-13.6,2.7-27.1,5.9-40.2,10c-13.1,4-25.8,9.1-37.6,15.6    c-11.8,6.6-22.6,14.6-32.8,23.6c-10.3,9-20.6,19-32.3,27.6c-11.6,8.7-24.5,15.7-37.8,21.1c-26.7,10.9-55.5,16.3-83.8,14.6    l-0.2-1.7c13.6-3.8,26.8-7.6,39.7-12.2c12.9-4.7,25.4-9.8,37.4-15.9c12.1-6,23.7-12.6,35-19.9c11.3-7.2,22-15.7,33.2-24.4    c11.2-8.7,23.4-16.7,36.5-22.9c13-6.2,26.7-10.6,40.5-13.9c27.7-6.2,55.6-8.8,83.5-10.3L926.1,443.8z"></path>
		<path class="st8" d="M926,444.1c-48.9,2.6-97.8,6.9-145.4,17c-23.8,4.9-47.1,11.6-69.8,20.1c-22.8,8.3-44.8,18.5-67.1,28.8    c-22.3,10.2-45,20.5-68.5,28.5c-23.4,8-47,15-71.3,20.6c-24.2,5.6-48.9,9.6-73.9,10.4c-24.9,0.7-50.2-1.7-73.6-9.9l0.4-1.6    c24.1,4.2,48.5,3.8,72.4,0.9c23.9-2.9,47.5-8.4,70.8-14.9c23.3-6.6,46.4-14.4,69.4-22.1c23-7.7,45.7-16.1,68.3-25.4    c22.6-9.2,45.5-18.8,69.1-26.6c23.5-7.9,47.7-13.7,72.1-17.8c12.2-2.1,24.4-3.8,36.7-5c12.3-1.3,24.5-2.3,36.8-3    c24.6-1.4,49.1-1.9,73.6-1.7L926,444.1z"></path>
		<path class="st8" d="M924.3,444.1c-58.9-0.4-117.8,2.5-176.1,9.8c-29.2,3.5-58.2,8.1-87,13.6c-28.8,5.6-57.3,12.4-85.8,19.7    c-28.5,7.4-57,15.1-85.7,22.2c-28.7,7-57.7,13-86.9,17.8l-11,1.7l-11.2,1.5c-7.5,0.8-15,1.6-22.5,1.9c-15,0.6-30.1,0.5-45-0.9    c-29.9-2.6-59.2-9.1-87-19.3l0.4-1.6c29,5.5,58.1,8.9,87.1,9.1c14.5,0,29-0.5,43.3-2.1c7.2-0.7,14.3-1.7,21.4-2.8l10.6-1.9    l10.8-2.2c57.6-11.6,115-23.1,172.5-36.5c28.8-6.5,57.8-12.6,87-17.4c29.2-4.8,58.6-8.6,88-11.2c58.9-5.1,118.1-6.2,177-3.1    L924.3,444.1z"></path>
	</g>
</g>
<g class="st0">
	<g class="st1">
		<defs>
			<rect id="SVGID_7_" x="115.4" y="129.2" width="769.1" height="741.6"></rect>
		</defs>
		<clipPath id="SVGID_8_">
			<use xlink:href="#SVGID_7_" style="overflow:visible;"></use>
		</clipPath>
		<path class="st9" d="M217.4,169.2c0-10.4-0.6-14.5-3-18.3c-3.8-6.2-10.4-7.9-29.6-7.9c-22.1,0-29.6,1.3-34,6.4    c-3.4,3.8-5.1,9.8-5.1,18.7c0,12.8,3,19.1,10.2,21.9c4.7,1.7,5.8,1.9,29.4,3c26.2,1.3,34,2.8,40.4,7.9    c7.4,5.7,10.2,14.5,10.2,31.5c0,19.4-3.4,29.6-11.9,35.1c-8.1,5.1-18.1,6.6-47,6.6c-19.8,0-26.4-1.1-34.7-5.7    c-5.5-3.2-10-10-11.5-17.2c-1.3-6.2-1.7-10.2-1.9-22.3h16c0.2,15.3,0.4,18.1,3.2,23.2c3.8,7.2,8.5,8.3,34,8.3    c34.2,0,37.9-3,37.9-29.4c0-11.9-2.3-17.4-8.7-20c-4-1.7-4-1.7-30-3.2c-26.4-1.3-28.3-1.7-35.3-4.9c-11.5-5.7-16.2-15.3-16.2-33.2    c0-16.6,3.4-26.6,10.6-32.1c8.1-6.4,18.3-8.3,42.6-8.3c26.8,0,37.7,2.8,44.2,11.7c4.5,6,6.2,13.2,6.2,26v2.3H217.4z"></path>
	</g>
	<polygon class="st4" points="355.9,130.7 355.9,193.2 273,193.2 273,130.7 257,130.7 257,272.6 273,272.6 273,206.6 355.9,206.6    355.9,272.6 371.9,272.6 371.9,130.7  "></polygon>
	<g class="st1">
		<defs>
			<rect id="SVGID_9_" x="115.4" y="129.2" width="769.1" height="741.6"></rect>
		</defs>
		<clipPath id="SVGID_10_">
			<use xlink:href="#SVGID_9_" style="overflow:visible;"></use>
		</clipPath>
		<path class="st10" d="M461,201.8c23.4,0,30.9-6.2,30.9-25.3c0-14.7-0.9-20.8-3.8-24.9c-3.2-4.7-10.2-7-21.5-7h-51.7v57.2H461z     M398.9,130.7h67.4c30.4,0,41.5,10.9,41.5,40.9c0,25.7-5.5,34.2-24.5,37.4v0.2c14.7,0.9,22.8,10.6,22.5,27.4v35.9H490v-32.3    c0.4-18.1-7.7-25.3-26.8-24.7h-48.3v57h-16V130.7z"></path>
	</g>
	<rect x="530.4" y="130.7" class="st4" width="16" height="141.9"></rect>
	<polygon class="st4" points="678.2,130.7 678.2,238.3 678.2,249 678.2,254.3 678.5,259.6 678,259.6 671.4,248.6 664.6,237.5    651,215.4 599.3,130.7 573.1,130.7 573.1,272.6 589.1,272.6 589.1,165.6 589.1,154.9 589.1,149.6 588.9,144.3 589.3,144.3    594,152.2 598.9,160.1 608.5,176 668,272.6 694.2,272.6 694.2,130.7  "></polygon>
	<polygon class="st4" points="809.3,130.7 751.2,192.8 737.2,192.8 737.2,130.7 721.2,130.7 721.2,272.6 737.2,272.6 737.2,207.1    751.2,207.1 816.1,272.6 837.8,272.6 765.2,199.6 830.1,130.7  "></polygon>
	<g class="st1">
		<defs>
			<rect id="SVGID_11_" x="115.4" y="129.2" width="769.1" height="741.6"></rect>
		</defs>
		<clipPath id="SVGID_12_">
			<use xlink:href="#SVGID_11_" style="overflow:visible;"></use>
		</clipPath>
		<path class="st11" d="M160.3,509.8v37.7c12.3-13.3,24.6-26.6,37-39.7c29.5-31,59.1-62,88.9-92.6h-41.4    C216.9,446.9,188.6,478.3,160.3,509.8"></path>
		<path class="st11" d="M204.5,515.4c-14.6,16.1-29.3,32-44.1,47.8v38c28.5-31.4,57.1-62.8,86.2-93.5c29.5-31,59.1-62,88.9-92.6    h-41.4C264.5,448.8,234.5,482.1,204.5,515.4"></path>
		<path class="st11" d="M160.7,494.5c25.3-26.5,50.5-53,76.1-79.2C196.8,418,164.6,451.7,160.7,494.5"></path>
		<path class="st11" d="M253.7,515.4c-30.7,33.8-62,67-93.4,100.2v39.9c45-49.4,89.6-99.2,135.5-147.7c29.5-31,59.1-62,88.9-92.6    h-41.4C313.7,448.8,283.7,482.1,253.7,515.4"></path>
		<path class="st11" d="M406.1,655.9c45.1-49.5,89.9-99.5,135.8-148.1c29.5-31,59.1-62,88.9-92.6h-41.4    c-29.6,33.7-59.6,67-89.6,100.3c-45,49.6-91.4,97.9-137.3,146.6L224.9,808.2L208.1,826c10.3,5.1,21.7,8,33.8,8h1.8l26.9-29.6    L406.1,655.9z"></path>
		<path class="st11" d="M356.8,655.9c45.1-49.5,89.9-99.5,135.8-148.1c29.5-31,59.1-62,88.9-92.6h-41.4    c-29.6,33.7-59.6,67-89.6,100.3C405.5,565,359.2,613.3,313.3,662L180.2,803.4c6.6,8.3,14.6,15.2,23.6,20.3l17.6-19.4L356.8,655.9z    "></path>
		<path class="st11" d="M302.9,515.4C257.9,565,211.5,613.3,165.7,662l-5.3,5.7v41.8l48.8-53.5c45.1-49.5,89.9-99.5,135.8-148.1    c29.5-31,59.1-62,88.9-92.6h-41.4C362.9,448.8,332.9,482.1,302.9,515.4"></path>
		<path class="st11" d="M818.6,797.1c9.6-14.4,15.3-32,15.3-51.1v-9.6l-67.6,71.8L741.9,834h10.4c18.3,0,35.1-6.6,48.7-17.5l11-12.1    L818.6,797.1z"></path>
		<path class="st11" d="M264.1,662L163.3,769.1c2.8,11,7.5,21.1,13.7,30l130.7-143.2c45.1-49.5,89.9-99.5,135.8-148.1    c29.5-31,59.1-62,88.9-92.6H491c-29.6,33.7-59.6,67-89.6,100.3C356.3,565,310,613.3,264.1,662"></path>
		<path class="st11" d="M352.1,515.4C307.1,565,260.8,613.3,214.9,662l-54.5,57.9V746c0,5.4,0.5,10.7,1.4,15.8l96.7-106    c45.1-49.5,89.9-99.5,135.9-148.1c29.5-31,59.1-62,88.9-92.6h-41.4C412.1,448.8,382.1,482.1,352.1,515.4"></path>
		<path class="st11" d="M565.9,804.4l135.5-148.5c44-48.3,87.7-97.1,132.5-144.6v-8.2c0-9.3-1.3-18.2-3.8-26.5    c-11.6,13-23.3,25.9-35,38.8C750,565,703.7,613.3,657.8,662L520.2,808.2L495.8,834H539L565.9,804.4z"></path>
		<path class="st11" d="M664.3,804.4l135.5-148.5c11.4-12.5,22.7-25,34.1-37.5v-38.6c-25.8,27.5-51.8,54.8-77.6,82.2L618.7,808.2    L594.3,834h43.2L664.3,804.4z"></path>
		<path class="st11" d="M615.1,804.4l135.5-148.5c27.8-30.5,55.4-61.1,83.3-91.5v-37.6C792.1,572.4,749.4,617,707.1,662L569.4,808.2    L545,834h43.2L615.1,804.4z"></path>
		<path class="st11" d="M319.8,804.4l135.5-148.5c45.1-49.5,89.9-99.5,135.8-148.1c29.5-31,59.1-62,88.9-92.6h-41.4    c-29.6,33.7-59.6,67-89.6,100.3C503.9,565,457.6,613.3,411.7,662L274.1,808.2L249.7,834h43.2L319.8,804.4z"></path>
	</g>
	<polygon class="st7" points="762.8,804.4 833.9,726.4 833.9,684.2 717.1,808.2 692.7,834 735.9,834  "></polygon>
	<g class="st1">
		<defs>
			<rect id="SVGID_13_" x="115.4" y="129.2" width="769.1" height="741.6"></rect>
		</defs>
		<clipPath id="SVGID_14_">
			<use xlink:href="#SVGID_13_" style="overflow:visible;"></use>
		</clipPath>
		<path class="st12" d="M713.5,804.4l120.3-131.9V632c-9.5,10-18.9,20-28.4,30L667.9,808.2L643.5,834h43.2L713.5,804.4z"></path>
		<path class="st12" d="M418.2,804.4l135.5-148.5c45.1-49.5,89.9-99.5,135.8-148.1c28.4-29.8,56.8-59.6,85.5-89.1    c-7.2-2.3-14.8-3.5-22.7-3.5h-15.2c-29.6,33.7-59.6,67-89.6,100.3C602.4,565,556.1,613.3,510.2,662L372.6,808.2L348.2,834h43.2    L418.2,804.4z"></path>
		<path class="st12" d="M369,804.4l135.5-148.5c45.1-49.5,89.9-99.5,135.8-148.1c29.5-31,59.1-62,88.9-92.6h-41.4    c-29.6,33.7-59.6,67-89.6,100.3C553.2,565,506.9,613.3,461,662L323.3,808.2L299,834h43.2L369,804.4z"></path>
		<path class="st12" d="M516.7,804.4l135.5-148.5c45.1-49.5,89.9-99.5,135.8-148.1c12.9-13.5,25.8-27.1,38.7-40.6    c-3.8-9.2-9-17.5-15.4-24.7c-21.7,24.4-43.6,48.6-65.5,72.9c-45,49.6-91.4,97.9-137.3,146.6L471,808.2L446.6,834h43.2L516.7,804.4    z"></path>
		<path class="st12" d="M467.4,804.4l135.5-148.5c45.1-49.5,89.9-99.5,135.8-148.1c22.5-23.6,44.9-47.1,67.5-70.5    c-7.3-7-15.8-12.5-25-16.3c-28,31.7-56.3,63.1-84.5,94.5c-45,49.6-91.4,97.9-137.3,146.6L421.8,808.2L397.4,834h43.2L467.4,804.4z    "></path>
		<path class="st13" d="M842.7,839.6c1.3-95.7,3.4-191.3,6-286.9l0.5-17.9l0.3-9c-0.2-2.8-0.1-5.5-0.4-8.3    c-0.9-11.3-3.3-22.4-7.2-33c-7.8-21.1-21.1-40.2-38.5-54.5c-17.3-14.3-38.3-24-60.4-27.4c-5.5-0.8-11.1-1.4-16.6-1.5    c-2.7-0.1-5.7-0.1-8.7-0.1l-9,0l-35.9,0.1c-95.7,0.6-191.3,0.3-287-1.3l-71.8-1.1l-35.9-0.6l-8.9-0.1c-2.8,0-5.7,0-8.6,0.2    c-5.7,0.2-11.4,1.1-17,2.1c-22.4,4.4-43.5,15.5-60.2,31.4c-16.8,15.9-28.8,36.7-34.9,59.2c-3.1,11.2-4.6,23-4.8,34.5l1.5,35.8    l3.2,71.7c2.2,47.8,4.7,95.6,7.2,143.4l1,17.9l0.5,9l0.3,4.5c0.1,1.5,0.1,2.6,0.4,3.9c0.4,2.6,1.2,5.3,2,8.3    c0.4,1.5,0.8,3.1,1,4.9c0.2,1.8,0.4,3.8-0.2,6.3c-0.6,2.6-3,5.3-5.3,6.3c-1.1,0.6-2.2,0.9-3.3,1.1c-1,0.3-1.5,0.6-2.3,0.9    c-1.4,0.6-2.9,1.3-4.3,2c-1.5,0.7-2.9,1.6-4.4,1.6c-2.8,0.4-5.3,0.9-7.1,1.6c-1.9,0.8-2.1,1.2-2.3,1.7c-0.1,0.3-0.3,0.9-0.3,1.7    c0,0.4,0,1,0,1.4c0,0.2,0.1,0.3,0.1,0.4c0.2,0.5,0.6,1,1.1,1.1c0.3,0.1,0.3,0.1,0.9,0.1l4.5-0.1l9-0.2l17.9-0.3l143.5-1.4    c95.6-0.9,191.3-1.6,286.9-0.5c23.9,0.1,47.8,0.4,71.8,0.7l71.8,1l134,2.7l8.8-5.1l-8.8,5.1c0.1,0,0.4-0.2,0-0.9    c-0.4-0.7-1.2-1.5-2.3-2.2c-2.2-1.5-5-3-7.9-4.1c-2.9-1.2-6.1-2.1-9.2-3c-3.2-0.8-6.4-1.6-9.7-2.1v-2.1c6.8-1,13.7-1,20.7-0.1    c3.5,0.5,7.1,1.1,10.8,2.7c1.8,0.9,3.8,1.9,5.6,3.8c1.9,1.7,3.6,4.8,3.7,8.1l-8.8,5.2l8.8-5.1c0,2.1-0.1,5-2.4,8    c-1.2,1.4-2.7,2.5-4.1,3.1c-1.4,0.6-2.6,0.8-3.7,1c-4.2,0.5-6.7,0.3-9.7,0.6l-17.9,0.4l-35.9,0.9l-71.8,1.4l-71.8,1    c-23.9,0.3-47.8,0.6-71.8,0.7c-95.7,1.1-191.4,0.4-287.1-0.5l-143.6-1.4L147,868l-9-0.2l-4.5-0.1c-2.5,0-5.4-0.6-7.8-1.8    c-5-2.3-8.6-7-9.8-12.3c-0.3-1.3-0.4-2.7-0.4-4c0-1.1,0-2,0.2-3.1c0.2-2.1,0.8-4.5,2-6.9c1.1-2.4,3.1-4.6,5.1-6.2    c2.1-1.6,4.2-2.5,6.1-3.2c3.9-1.3,7.3-1.8,10.4-2.1c1.5-0.3,3,0.1,4.5,0.3c1.5,0.2,3,0.5,4.5,0.7c0.7,0.1,1.6,0.2,2.1,0.2    c0.4-0.1,0.8-0.2,1-0.3c0.4-0.2,0.2,0,0.4-0.3c0.4-0.8,0-3.8-0.7-6.5c-0.6-2.8-1.5-5.8-2-9.1c-0.3-1.6-0.3-3.6-0.4-5.1l-0.1-4.5    l-0.3-9l-0.6-17.9c-1.8-47.8-3.6-95.6-5.7-143.4l-3.3-71.7l-1.7-35.8c0.1-12.4,1.4-24.6,4.4-36.5c5.9-23.9,18.4-46.1,35.7-63.8    c17.3-17.7,39.8-30.5,64.2-36.1c6.1-1.4,12.3-2.5,18.5-3c3.1-0.4,6.2-0.4,9.4-0.6l9-0.2L314,385l71.8-1.1    c95.7-1.6,191.4-1.9,287-1.3l35.9,0.1l9,0c3,0,6,0,9.3,0.1c6.4,0.2,12.7,0.9,19,2c25.2,4.3,49,15.8,68.2,32.3    c19.3,16.5,34,38.2,42.1,62.2c4.1,12,6.4,24.5,7.1,37.1c0.3,3.1,0.2,6.4,0.2,9.6l-0.5,9l-0.9,17.9    c-5.2,95.6-10.9,191.2-17.3,286.7L842.7,839.6z"></path>
	</g>
</g>
<g class="st0">
	<g class="st1">
		<defs>
			<rect id="SVGID_15_" x="52.8" y="180.5" width="894.3" height="639"></rect>
		</defs>
		<clipPath id="SVGID_16_">
			<use xlink:href="#SVGID_15_" style="overflow:visible;"></use>
		</clipPath>
		<path class="st14" d="M52.8,563l37.4-1.6l37.4-1.3l1.6-0.1l0.9,1.5l36.8,60.5l36.4,60.8l36,61c12,20.3,24,40.7,35.8,61.1l-7.8-4.5    c39.3-0.3,78.5-0.9,117.8-0.9l117.8-0.4l117.8,0.4c39.3,0,78.5,0.6,117.8,0.9l-7.9,4.7c11.3-20.4,22.8-40.8,34.3-61.1l34.6-61    l34.9-60.8l35.3-60.6l0.9-1.6l1.7,0.1l37.4,1.3l37.4,1.6l-37.4,1.6l-37.4,1.3l2.6-1.5L843.4,627l-32,62.4L779,751.5    c-10.8,20.7-21.6,41.4-32.6,62l-2.5,4.6l-5.4,0c-39.3,0.3-78.5,0.9-117.8,0.9l-117.8,0.4l-117.8-0.4c-39.3,0-78.5-0.6-117.8-0.9    l-5.3,0l-2.5-4.5c-11.5-20.6-22.8-41.3-34.1-62.1l-33.8-62.2l-33.5-62.4l-33.1-62.6l2.6,1.5l-37.4-1.3L52.8,563z"></path>
		<path class="st14" d="M276.8,542.9v27.5c8.1-9.7,16.3-19.4,24.5-29c19.6-22.6,39.2-45.3,58.9-67.6h-27.4    C314.3,497,295.6,519.9,276.8,542.9"></path>
		<path class="st14" d="M306.1,547c-9.7,11.7-19.4,23.3-29.3,34.9v27.8c18.9-22.9,37.9-45.8,57.2-68.3    c19.6-22.6,39.2-45.3,58.9-67.6h-27.4C345.8,498.4,325.9,522.7,306.1,547"></path>
		<path class="st14" d="M277.1,531.7c16.7-19.3,33.5-38.7,50.4-57.8C301,475.9,279.6,500.5,277.1,531.7"></path>
		<path class="st14" d="M338.7,547c-20.3,24.7-41.1,48.9-61.9,73.1v29.1c29.8-36.1,59.4-72.5,89.8-107.8    c19.6-22.6,39.2-45.3,58.9-67.6h-27.4C378.5,498.4,358.6,522.7,338.7,547"></path>
		<path class="st14" d="M439.7,649.5c29.9-36.2,59.6-72.7,90-108.2c19.6-22.6,39.2-45.3,58.9-67.6h-27.4    c-19.6,24.6-39.5,48.9-59.4,73.2c-29.9,36.2-60.5,71.5-91,107l-91.2,106.8l-11.2,13c6.8,3.7,14.4,5.8,22.4,5.8h1.2l17.8-21.6    L439.7,649.5z"></path>
		<path class="st14" d="M407,649.5c29.9-36.2,59.6-72.7,90-108.2c19.6-22.6,39.2-45.3,58.9-67.6h-27.4    c-19.6,24.6-39.5,48.9-59.4,73.2c-29.9,36.2-60.5,71.5-91,107L290,757.3c4.4,6,9.7,11.1,15.6,14.8l11.7-14.1L407,649.5z"></path>
		<path class="st14" d="M371.3,547c-29.9,36.2-60.5,71.5-91,107l-3.5,4.1v30.5l32.4-39.1c29.9-36.2,59.5-72.7,90-108.2    c19.6-22.6,39.2-45.3,58.9-67.6h-27.4C411.1,498.4,391.2,522.7,371.3,547"></path>
		<path class="st14" d="M713.1,752.7c6.3-10.5,10.1-23.4,10.1-37.3v-7l-44.8,52.4l-16.2,18.8h6.9c12.1,0,23.3-4.8,32.3-12.8l7.3-8.8    L713.1,752.7z"></path>
		<path class="st14" d="M345.6,654l-66.8,78.2c1.8,8,4.9,15.4,9.1,21.9l86.6-104.6c29.9-36.2,59.6-72.7,90-108.2    c19.6-22.6,39.2-45.3,58.9-67.6h-27.4c-19.6,24.6-39.5,48.9-59.4,73.2C406.7,583.2,376,618.4,345.6,654"></path>
		<path class="st14" d="M403.9,547c-29.9,36.2-60.6,71.5-91,107l-36.1,42.3v19c0,4,0.3,7.8,0.9,11.6l64.1-77.4    c29.9-36.2,59.5-72.7,90-108.2c19.6-22.6,39.2-45.3,58.9-67.6h-27.4C443.7,498.4,423.8,522.7,403.9,547"></path>
		<path class="st14" d="M545.6,758l89.8-108.4c29.2-35.3,58.1-70.9,87.8-105.5v-6c0-6.8-0.9-13.3-2.5-19.4    c-7.7,9.5-15.4,18.9-23.2,28.4c-29.9,36.2-60.6,71.5-91,107l-91.2,106.8l-16.2,18.8h28.6L545.6,758z"></path>
		<path class="st14" d="M610.8,758l89.8-108.4c7.5-9.1,15-18.2,22.6-27.4V594c-17.1,20.1-34.3,40-51.4,60l-91.2,106.8l-16.2,18.8    H593L610.8,758z"></path>
		<path class="st14" d="M578.2,758L668,649.5c18.4-22.3,36.7-44.6,55.2-66.8v-27.4c-27.7,33.3-56,65.9-84,98.7l-91.2,106.8    l-16.2,18.8h28.6L578.2,758z"></path>
		<path class="st14" d="M382.5,758l89.8-108.4c29.9-36.2,59.5-72.7,90-108.1c19.6-22.6,39.2-45.3,58.9-67.6h-27.5    c-19.6,24.6-39.5,48.9-59.4,73.2c-29.9,36.2-60.6,71.5-91,107l-91.2,106.8l-16.2,18.8h28.6L382.5,758z"></path>
	</g>
	<polygon class="st7" points="676.1,758 723.2,701.1 723.2,670.2 645.8,760.8 629.6,779.6 658.3,779.6  "></polygon>
	<g class="st1">
		<defs>
			<rect id="SVGID_17_" x="52.8" y="180.5" width="894.3" height="639"></rect>
		</defs>
		<clipPath id="SVGID_18_">
			<use xlink:href="#SVGID_17_" style="overflow:visible;"></use>
		</clipPath>
		<path class="st15" d="M643.4,758l79.7-96.3v-29.6c-6.3,7.3-12.5,14.6-18.8,21.9l-91.2,106.8L597,779.6h28.6L643.4,758z"></path>
		<path class="st15" d="M447.7,758l89.8-108.4c29.9-36.2,59.5-72.7,90-108.1c18.8-21.8,37.6-43.5,56.7-65.1    c-4.8-1.6-9.8-2.6-15.1-2.6H659c-19.6,24.6-39.5,48.9-59.4,73.2c-29.9,36.2-60.6,71.5-91,107l-91.2,106.8l-16.2,18.8h28.6    L447.7,758z"></path>
		<path class="st15" d="M415.1,758l89.8-108.4c29.9-36.2,59.5-72.7,90-108.1c19.6-22.6,39.2-45.3,58.9-67.6h-27.5    c-19.6,24.6-39.5,48.9-59.4,73.2c-29.9,36.2-60.6,71.5-91,107l-91.2,106.8l-16.2,18.8h28.6L415.1,758z"></path>
		<path class="st15" d="M513,758l89.8-108.4c29.9-36.2,59.5-72.7,90-108.1c8.5-9.9,17.1-19.8,25.7-29.6c-2.5-6.7-6-12.8-10.2-18    c-14.4,17.8-28.9,35.5-43.4,53.2c-29.9,36.2-60.6,71.5-91,107l-91.2,106.8l-16.2,18.8h28.6L513,758z"></path>
		<path class="st15" d="M480.3,758l89.8-108.4c29.9-36.2,59.5-72.7,90-108.1c14.9-17.2,29.7-34.4,44.7-51.5    c-4.8-5.1-10.4-9.1-16.6-11.9c-18.5,23.2-37.3,46.1-56,69c-29.9,36.2-60.6,71.5-91,107l-91.2,106.8l-16.2,18.8h28.6L480.3,758z"></path>
		<path class="st16" d="M396.6,207.9c0-7.1-0.4-9.9-2-12.5c-2.6-4.2-7.1-5.4-20.3-5.4c-15.2,0-20.3,0.9-23.3,4.4    c-2.3,2.6-3.5,6.7-3.5,12.8c0,8.7,2,13.1,7,15c3.2,1.2,3.9,1.3,20.1,2c17.9,0.9,23.3,1.9,27.7,5.4c5.1,3.9,7,9.9,7,21.6    c0,13.3-2.3,20.3-8.2,24c-5.5,3.5-12.4,4.5-32.2,4.5c-13.5,0-18.1-0.7-23.8-3.9c-3.8-2.2-6.9-6.8-7.9-11.8    c-0.9-4.2-1.2-7-1.3-15.3h10.9c0.1,10.5,0.3,12.4,2.2,15.9c2.6,4.9,5.8,5.7,23.3,5.7c23.5,0,25.9-2,25.9-20.1c0-8.2-1.6-12-6-13.7    c-2.8-1.2-2.8-1.2-20.6-2.2c-18.1-0.9-19.4-1.2-24.2-3.4c-7.9-3.9-11.1-10.5-11.1-22.7c0-11.4,2.3-18.2,7.3-22    c5.5-4.4,12.5-5.7,29.2-5.7c18.4,0,25.8,1.9,30.3,8c3.1,4.1,4.2,9,4.2,17.8v1.6H396.6z"></path>
	</g>
	<polygon class="st4" points="484.1,181.5 444.3,224.1 434.7,224.1 434.7,181.5 423.8,181.5 423.8,278.7 434.7,278.7 434.7,233.8    444.3,233.8 488.8,278.7 503.6,278.7 453.9,228.7 498.4,181.5  "></polygon>
	<rect x="513.8" y="181.5" class="st4" width="10.9" height="97.2"></rect>
	<polygon class="st4" points="615.1,181.5 615.1,255.2 615.1,262.5 615.1,266.2 615.3,269.8 615,269.8 610.5,262.2 605.8,254.7    596.5,239.5 561,181.5 543.1,181.5 543.1,278.7 554,278.7 554,205.4 554,198.1 554,194.5 553.9,190.8 554.2,190.8 557.4,196.2    560.8,201.6 567.3,212.5 608.1,278.7 626,278.7 626,181.5  "></polygon>
	<g class="st1">
		<defs>
			<rect id="SVGID_19_" x="52.8" y="180.5" width="894.3" height="639"></rect>
		</defs>
		<clipPath id="SVGID_20_">
			<use xlink:href="#SVGID_19_" style="overflow:visible;"></use>
		</clipPath>
		<path class="st17" d="M120.5,353.8c21.6,0,25.1-2.6,25.1-19.1c0-12.7-1.5-17.5-6-19.5c-2.9-1.3-4.1-1.5-15.6-1.6H94.6v40.2H120.5z     M83.7,304.1h40.7c12.5,0,16,0.4,20.4,2.3c8,3.5,11.8,12.2,11.8,27.7c0,14.6-3.6,22.7-11.8,26.7c-4.5,2.2-5.2,2.2-22,2.5H94.6v38    H83.7V304.1z"></path>
		<path class="st17" d="M212.2,352.8c16,0,21.1-4.2,21.1-17.3c0-10.1-0.6-14.3-2.6-17.1c-2.2-3.2-7-4.8-14.7-4.8h-35.4v39.2H212.2z     M169.7,304.1h46.2c20.8,0,28.4,7.4,28.4,28c0,17.6-3.8,23.5-16.8,25.7v0.1c10.1,0.6,15.6,7.3,15.4,18.8v24.6H232v-22.2    c0.3-12.4-5.2-17.3-18.4-16.9h-33.1v39.1h-10.9V304.1z"></path>
		<path class="st17" d="M273.7,317.2c-2.9,3.4-4.2,7.7-4.8,15.9c-0.1,2-0.1,2-0.1,19.5c0,20.1,0,20.1,0.9,25.7    c1,6.7,3.6,10.8,8.2,12.5c3.9,1.6,8,2,21,2c17.8,0,22.6-0.9,25.9-4.7c2.9-3.4,4.2-7.7,4.8-15.9c0.1-2,0.1-2,0.1-19.7    c0-20,0-20-0.9-25.5c-1-6.7-3.6-10.8-8.2-12.5c-3.9-1.6-8.2-2-21-2C281.9,312.5,277.1,313.4,273.7,317.2 M325.6,306.3    c8.3,3.5,12.7,10.6,14.4,23.2c0.4,4.4,0.6,6.7,0.6,19.1c0,22.7-0.1,26.1-1.7,33.5c-1.8,8.6-6,14.1-13,17.1    c-6.1,2.6-11.1,3.2-25.4,3.2c-17.1,0-21.7-0.6-28-3.2c-7-3.1-11.1-8.4-13-17.1c-1.6-7.6-1.8-10.8-1.8-33.4    c0-20.3,0.9-25.9,4.8-33.4c3.2-5.8,8.9-9.6,17.1-11.2c3.5-0.6,11.1-1,19.5-1C314.1,303.1,319.9,303.8,325.6,306.3"></path>
	</g>
	<polygon class="st4" points="390.7,401.3 379.8,401.3 379.8,314.3 348.2,314.3 348.2,304.1 422.2,304.1 422.2,314.4 390.7,314.3     "></polygon>
	<g class="st1">
		<defs>
			<rect id="SVGID_21_" x="52.8" y="180.5" width="894.3" height="639"></rect>
		</defs>
		<clipPath id="SVGID_22_">
			<use xlink:href="#SVGID_21_" style="overflow:visible;"></use>
		</clipPath>
		<path class="st18" d="M476.3,352.8c16,0,21.1-4.2,21.1-17.3c0-10.1-0.6-14.3-2.6-17.1c-2.2-3.2-7-4.8-14.7-4.8h-35.4v39.2H476.3z     M433.7,304.1h46.2c20.8,0,28.4,7.4,28.4,28c0,17.6-3.8,23.5-16.8,25.7v0.1c10.1,0.6,15.6,7.3,15.4,18.8v24.6h-10.9v-22.2    c0.3-12.4-5.2-17.3-18.4-16.9h-33.1v39.1h-10.9V304.1z"></path>
		<path class="st18" d="M600.2,304.1v68.1c0,11.7-1.2,16.6-5,21.4c-5.7,6.8-12.8,8.7-34.3,8.7c-13,0-18.4-0.6-23.3-2.5    c-11.1-4.1-14.4-10.6-14.4-27.7v-68.1h10.9v68.1c0,7.7,0.6,11.8,2,14.3c2.9,4.9,8.6,6.4,24.2,6.4c25.9,0,28.9-2.2,28.9-20.7v-68.1    H600.2z"></path>
		<path class="st18" d="M660.7,391.8c10.6,0,18.2-2.2,21.6-6.1c4.2-5.2,5.5-12.4,5.5-31c0-23.5-0.9-29-5.1-34.7    c-3.5-4.7-9-6.4-19.7-6.4h-34v78.3H660.7z M618.1,304.1H663c14.1,0,22,2.5,27.3,8.4c6.4,7.4,8.4,16,8.4,36c0,23.8-1,31.8-4.8,38.8    c-3.8,6.9-8.7,10.6-16.6,12.4c-4.4,1-8.7,1.6-11.5,1.6h-47.7V304.1z"></path>
	</g>
	<rect x="714.1" y="304.1" class="st4" width="10.9" height="97.2"></rect>
	<polygon class="st4" points="826.4,401.3 808.4,401.3 767.6,335.1 761.1,324.2 757.7,318.8 754.5,313.4 754.2,313.4 754.4,317.1    754.4,320.7 754.4,328 754.4,401.3 743.4,401.3 743.4,304.1 761.4,304.1 796.8,362.1 806.1,377.3 810.8,384.8 815.3,392.4    815.6,392.4 815.4,388.8 815.4,385.1 815.4,377.8 815.4,304.1 826.4,304.1  "></polygon>
	<g class="st1">
		<defs>
			<rect id="SVGID_23_" x="52.8" y="180.5" width="894.3" height="639"></rect>
		</defs>
		<clipPath id="SVGID_24_">
			<use xlink:href="#SVGID_23_" style="overflow:visible;"></use>
		</clipPath>
		<path class="st19" d="M922.1,353.1c0.3,4.1,0.3,4.5,0.3,10.5c0,17.8-0.6,22.7-3.6,28c-2.3,4.4-6.3,7.3-11.8,9    c-3.9,1.2-11.8,1.7-24,1.7c-19.1,0-25.9-1.5-32.8-7.1c-4.4-3.6-7.6-11.4-8-19.5c-0.1-4.4-0.1-5.2-0.3-24.2v-4.1    c0-17.5,1.2-24.9,4.7-32.1c3.2-6.3,8.7-9.9,17.1-11.4c3.2-0.6,9.5-0.9,18.4-0.9c21.9,0,25.7,0.6,32.4,4.8    c3.6,2.3,6.4,6.9,7.3,11.8c0.4,3.5,0.6,5.4,0.6,12.7h-10.8c-0.1-18.8-1.7-19.8-30.9-19.8c-16.8,0-22.2,1.6-24.9,7.7    c-2.2,4.8-2.8,11.2-2.8,31c0,25.4,0.3,29.1,2.6,34c3.1,6.1,9,7.7,29.3,7.7c24.8,0,26.8-1.9,26.8-24.8c0-1,0-3.2-0.1-5.7h-30.9    v-9.5H922.1z"></path>
		<path class="st19" d="M56.3,527.4l48.3-0.6l24.1-0.3l12.1-0.1c0.9,0,2.2,0,3.4,0.2c1.2,0.2,2.3,0.7,3.4,1.2c2.1,1.2,3.9,3,5,5.2    l-0.1-0.2l97.1,152.8l0.1,0.1l0.1,0.2c0.7,1.4,1.8,2.3,3.1,2.8c1.3,0.5,2.9,0.4,4.2-0.2c1.3-0.6,2.4-1.6,2.8-2.8    c0.2-0.6,0.4-1.3,0.4-2l0-3.6l-0.3-30l-0.5-60l-0.4-60l-0.2-30l0-7.5l0-3.7l0-1.9l0.1-2.3c0.3-6.1,2.5-12,5.8-17    c3.4-5,8.2-9.1,13.7-11.7c2.7-1.3,5.7-2.3,8.7-2.8c3-0.6,6.2-0.5,8.5-0.6l30-0.7l60-1.5l120-2.9l120-3.2c20-0.6,40-1.1,60-1.5    l30-0.7c1-0.1,3,0,4.7,0.1c1.7,0.1,3.4,0.4,5.1,0.7c3.4,0.7,6.6,1.9,9.7,3.5c6.1,3.2,11.3,8,14.9,13.9c3.7,5.8,5.7,12.7,5.8,19.6    c0,1,0,1.5,0,2.2l0,1.9l0,3.8l0,7.5l-0.3,30l-0.6,60l-0.8,60l-0.2,15l-0.1,7c0,1.7,0.3,3.3,0.7,4.5c0.4,1.2,1,2.1,1.3,2.4    c0.4,0.3-0.1,0-0.4,0.2c-0.4,0.1,0.1,0.1,0.8-0.6c0.7-0.7,1.6-2,2.3-3.6l0.4-0.9l0.2-0.4c15.4-23.2,30.6-46.5,46.1-69.5l23.3-34.6    l23.5-34.5l-0.3,0.6c1.3-2.9,3.8-5.1,6.7-6.1c0.7-0.3,1.5-0.4,2.2-0.5c0.7-0.1,1.7-0.1,2-0.1l2.9,0.1l11.4,0.4l22.8,0.8    c15.2,0.5,30.4,1.2,45.6,1.9v2c-15.2,0.7-30.4,1.4-45.6,1.9l-22.8,0.8l-11.4,0.4l-2.9,0.1c-0.6,0-0.6,0-0.8,0.1    c-0.2,0.1-0.4,0.1-0.5,0.2c-0.7,0.3-1.1,0.9-1.4,1.5l0,0.1l-0.3,0.5l-21,36.1l-21.2,35.9c-14.1,24-28.6,47.7-42.9,71.6l0.7-1.3    c-1.3,3-2.9,6.1-5.6,9c-2.7,2.9-6.7,5.8-12.1,6.5c-5.4,0.8-10.9-1.4-14.2-4.5c-3.5-3-5.5-6.6-6.8-10.1c-1.3-3.5-1.9-6.9-2.1-10.2    c-0.1-1.8-0.1-2.9-0.1-4.2l0-3.8l0-15l0-60l0.1-60l0.1-30l0-14.7c-0.1-3.1-1-6.2-2.7-8.8c-1.6-2.7-4.1-4.8-6.8-6.3    c-1.4-0.7-2.8-1.3-4.3-1.6c-0.8-0.1-1.5-0.3-2.3-0.4c-0.8,0-1.4-0.1-2.8-0.1l-30,0.2c-20,0.2-40,0.3-60,0.3l-120,0.3l-120,0.6    l-60,0.3l-30,0.2c-2.7,0-4.5,0-6.5,0.3c-1.9,0.3-3.8,0.9-5.6,1.7c-3.6,1.6-6.6,4.2-8.9,7.4c-2.2,3.2-3.7,7-3.9,11l-0.1,1.5l0,1.9    l0,3.7l0,7.5l-0.2,30l-0.4,60l-0.5,60l-0.3,30c0,1.3,0,2.3-0.1,3.9c-0.1,1.7-0.5,3.6-1.2,5.2c-1.5,3.4-4.4,6-7.7,7.3    c-3.3,1.3-7.1,1.4-10.5,0.1c-3.4-1.3-6.3-4.1-7.7-7.2l0.2,0.4l-93.5-155l-0.1-0.1l0-0.1c-1.4-2.9-4.4-4.7-8-4.5l-12.1-0.1    l-24.1-0.3l-48.3-0.6V527.4z"></path>
	</g>
</g>
<g>
	<polygon class="st20" points="179.6,209.2 179.6,278.9 187.4,278.9 187.4,246.8 221.4,246.8 221.4,240.2 187.4,240.2 187.4,216    222.3,216 222.3,209.2  "></polygon>
	<rect x="231.1" y="209.2" class="st20" width="7.1" height="69.7"></rect>
	<g>
		<defs>
			<rect id="SVGID_25_" x="47.3" y="208.5" width="905.4" height="583"></rect>
		</defs>
		<clipPath id="SVGID_26_">
			<use xlink:href="#SVGID_25_" style="overflow:visible;"></use>
		</clipPath>
		<path class="st21" d="M256.4,263.6c0,8.1,2.2,9.9,12.3,9.9c6.4,0,10.9-0.9,13.1-2.8c1.5-1.1,2.1-3.1,2.1-6.2    c0-7.4-3.1-9.6-13.8-9.6C258.7,255,256.4,256.4,256.4,263.6 M250.9,243.8c0.2-11.7,3.9-14.4,19.4-14.4c15.8,0,20.3,3.9,20.3,17.3    v32.2h-7.1l0.5-5.2l-0.1-0.1c-3,4.6-7.1,6.1-16.6,6.1c-13.6,0-18.4-3.9-18.4-14.8c0-5.6,1.8-10.6,4.5-12.6c2.6-2,7.4-2.9,14.2-2.9    c5.2,0,9.4,0.6,12.3,1.8c1.7,0.6,2.4,1.4,3.3,3.2l0.2-0.1v-5.8c0-11.4-2-13.4-12.7-13.4c-9.8,0-12.7,1.7-12.7,7.3v1.6H250.9z"></path>
		<path class="st21" d="M329.9,236.1h-18.8v29.9c0,6.1,1.4,7.6,6.8,7.6c6,0,7.3-1.7,7.3-9.3c0-0.7,0-1.4-0.1-2.6h6.6    c0.1,1.5,0.1,2.9,0.1,3.6c0,10-4.2,14.3-14,14.3c-7.5,0-11.5-2-13.1-6.3c-0.6-1.8-0.7-3-0.7-7.4v-29.9h-6.8v-6h6.8v-11.7h7.1v11.7    h18.8V236.1z"></path>
		<path class="st21" d="M389,272.1c11.6,0,14.3-0.2,16.9-1.4c3.1-1.4,4.4-4.3,4.4-10.8c0-6.7-1-9.8-3.7-11.6    c-2.5-1.6-3.5-1.7-14.1-1.7h-20.3v25.4H389z M393,239.9c6.6,0,8.8-0.3,11.1-1.7c3-1.7,4.1-4.4,4.1-10.9c0-6.1-1-8.8-4-10.3    c-1.7-0.8-3.6-1-9.1-1h-22.8v23.9H393z M364.4,209.2h30.8c8.9,0,11.5,0.4,14.3,2.1c4.6,2.7,6.4,7.4,6.4,16.5    c0,8.7-2.1,12.2-8.9,14.6v0.2c8.4,2,11.1,6,11.1,16.6c0,8.7-2.3,14.4-6.7,17c-2.7,1.6-7.6,2.6-12.9,2.6h-34.1V209.2z"></path>
		<path class="st21" d="M436.7,238.7c-1.5,2.4-2.1,6.8-2.1,15.6c0,17.5,1.3,19.3,14.1,19.3s14.2-1.9,14.2-19    c0-17.3-1.4-19.1-14.1-19.1C441.6,235.4,438.2,236.4,436.7,238.7 M470.3,254.7c0,20.8-3.7,25-21.6,25c-18,0-21.5-4.2-21.5-25.5    c0-20.5,3.8-24.8,21.6-24.8C466.8,229.4,470.3,233.6,470.3,254.7"></path>
		<path class="st21" d="M487.1,263.6c0,8.1,2.2,9.9,12.3,9.9c6.4,0,10.9-0.9,13.1-2.8c1.5-1.1,2.1-3.1,2.1-6.2    c0-7.4-3.1-9.6-13.8-9.6C489.4,255,487.1,256.4,487.1,263.6 M481.6,243.8c0.2-11.7,3.9-14.4,19.4-14.4c15.8,0,20.3,3.9,20.3,17.3    v32.2h-7.1l0.5-5.2l-0.1-0.1c-3,4.6-7.1,6.1-16.6,6.1c-13.6,0-18.4-3.9-18.4-14.8c0-5.6,1.8-10.6,4.5-12.6c2.6-2,7.4-2.9,14.2-2.9    c5.2,0,9.4,0.6,12.3,1.8c1.7,0.6,2.4,1.4,3.3,3.2l0.2-0.1v-5.8c0-11.4-2-13.4-12.7-13.4c-9.8,0-12.7,1.7-12.7,7.3v1.6H481.6z"></path>
		<path class="st21" d="M540.6,230.1l-0.7,5.6l0.2,0.1c3-5,6.9-6.9,13.9-6.9c9.3,0,13.5,4.4,13.5,13.9v3.3h-7v-4    c0-5.1-2.3-7.2-8-7.2c-5.1,0-8.9,1.8-10.4,5c-0.9,2-1.4,4.8-1.4,9.6v29.2h-7.1v-48.8H540.6z"></path>
		<path class="st21" d="M585.6,237.9c-2.2,2.2-3.3,7.4-3.3,15.5c0,16.7,2.3,20.2,13.6,20.2c5.2,0,8.7-0.9,10.8-2.9    c2.2-2,3.2-8,3.2-17.5c0-13.8-3.1-17.6-14.1-17.6C591.1,235.4,587.2,236.4,585.6,237.9 M617,278.9h-7.1l0.3-6.4h-0.1    c-2.4,5-7.1,7.1-15.8,7.1c-7,0-11.9-1.7-14.8-4.9c-3.3-3.7-4.6-9.5-4.6-20.9c0-18.3,4.7-24.4,18.9-24.4c5.1,0,9.2,0.8,12.2,2.4    c2,1,2.8,2.1,3.7,4.5l0.2-0.1v-27h7.1V278.9z"></path>
		<path class="st21" d="M696.6,228.1c0-5.1-0.3-7.1-1.5-9c-1.9-3-5.1-3.9-14.5-3.9c-10.9,0-14.5,0.6-16.7,3.1    c-1.7,1.9-2.5,4.8-2.5,9.2c0,6.3,1.5,9.4,5,10.8c2.3,0.8,2.8,0.9,14.4,1.5c12.8,0.6,16.7,1.4,19.8,3.9c3.7,2.8,5,7.1,5,15.5    c0,9.5-1.7,14.5-5.8,17.2c-4,2.5-8.9,3.2-23.1,3.2c-9.7,0-13-0.5-17-2.8c-2.7-1.6-4.9-4.9-5.6-8.5c-0.6-3-0.8-5-0.9-11h7.8    c0.1,7.5,0.2,8.9,1.6,11.4c1.9,3.5,4.2,4.1,16.7,4.1c16.8,0,18.6-1.5,18.6-14.4c0-5.8-1.1-8.6-4.3-9.8c-2-0.8-2-0.8-14.7-1.6    c-13-0.6-13.9-0.8-17.3-2.4c-5.6-2.8-7.9-7.5-7.9-16.3c0-8.1,1.7-13.1,5.2-15.8c4-3.1,9-4.1,20.9-4.1c13.2,0,18.5,1.4,21.7,5.7    c2.2,2.9,3,6.5,3,12.7v1.2H696.6z"></path>
	</g>
	<polygon class="st20" points="715.8,209.2 715.8,278.9 722.8,278.9 722.8,255.4 725.8,255.4 746.5,278.9 756.2,278.9 731.5,252.6    752.3,230.1 743.4,230.1 726.1,249.7 722.8,249.7 722.8,209.2  "></polygon>
	<path class="st20" d="M763,278.9h7.1v-48.8H763V278.9z M763,217.3h7.1v-8H763V217.3z"></path>
	<g>
		<defs>
			<rect id="SVGID_27_" x="47.3" y="208.5" width="905.4" height="583"></rect>
		</defs>
		<clipPath id="SVGID_28_">
			<use xlink:href="#SVGID_27_" style="overflow:visible;"></use>
		</clipPath>
		<path class="st22" d="M789.7,230.1l-0.1,6.7l0.1,0.1c2.3-5.3,7.1-7.5,16.3-7.5c8,0,13.4,2.1,15.9,6.3c1.3,2.1,1.7,4.8,1.7,11.5    v31.7h-7.1v-31.1c0-5.2-0.2-6.7-1.1-8.6c-1.3-2.7-4.3-3.8-10.3-3.8c-10.8,0-14.9,4-14.9,14.1v29.3h-7.4v-48.8H789.7z"></path>
		<path class="st23" d="M278.2,535.2V562c8.7-9.4,17.5-18.9,26.3-28.2c21-22,41.9-44,63.2-65.8h-29.4    C318.4,490.6,298.3,512.9,278.2,535.2"></path>
		<path class="st23" d="M309.5,539.2c-10.4,11.4-20.8,22.7-31.3,34v27c20.3-22.3,40.6-44.6,61.2-66.4c21-22,41.9-44,63.2-65.8h-29.4    C352.1,491.9,330.8,515.6,309.5,539.2"></path>
		<path class="st23" d="M278.5,524.4c17.9-18.8,35.9-37.6,54-56.2C304.1,470.1,281.2,494,278.5,524.4"></path>
		<path class="st23" d="M344.5,539.2c-21.8,24-44,47.6-66.3,71.1v28.3c32-35.1,63.6-70.5,96.2-104.9c21-22,41.9-44,63.2-65.8h-29.4    C387.1,491.9,365.7,515.6,344.5,539.2"></path>
		<path class="st23" d="M452.6,639c32-35.2,63.8-70.7,96.4-105.2c21-22,41.9-44,63.2-65.8h-29.4c-21,23.9-42.3,47.6-63.6,71.2    c-32,35.2-64.9,69.5-97.5,104.1L324,747.1l-11.9,12.6c7.3,3.6,15.4,5.7,24,5.7h1.3l19.1-21L452.6,639z"></path>
		<path class="st23" d="M417.7,639c32-35.2,63.8-70.7,96.4-105.2c21-22,41.9-44,63.2-65.8h-29.4c-21,23.9-42.3,47.6-63.6,71.2    c-32,35.2-64.9,69.5-97.5,104.1l-94.5,100.4c4.7,5.9,10.3,10.8,16.7,14.4l12.5-13.8L417.7,639z"></path>
		<path class="st23" d="M379.4,539.2c-32,35.2-64.9,69.5-97.5,104.1l-3.8,4V677l34.7-38c32-35.2,63.8-70.7,96.4-105.2    c21-22,41.9-44,63.2-65.8H443C422,491.9,400.7,515.6,379.4,539.2"></path>
		<path class="st23" d="M745.5,739.2c6.8-10.2,10.8-22.7,10.8-36.3v-6.8l-48,51l-17.3,18.3h7.4c13,0,24.9-4.7,34.6-12.5l7.8-8.6    L745.5,739.2z"></path>
		<path class="st23" d="M351.8,643.3l-71.6,76c2,7.8,5.3,15,9.7,21.3L382.7,639c32-35.2,63.8-70.7,96.4-105.2    c21-22,41.9-44,63.2-65.8h-29.4c-21,23.9-42.3,47.6-63.6,71.2C417.3,574.5,384.4,608.7,351.8,643.3"></path>
		<path class="st23" d="M414.3,539.2c-32,35.2-64.9,69.5-97.5,104.1l-38.7,41.1V703c0,3.8,0.4,7.6,1,11.2l68.6-75.2    c32-35.2,63.8-70.7,96.4-105.2c21-22,41.9-44,63.2-65.8H478C456.9,491.9,435.6,515.6,414.3,539.2"></path>
		<path class="st23" d="M566.1,744.4L662.3,639c31.3-34.3,62.3-68.9,94.1-102.6v-5.8c0-6.6-0.9-12.9-2.7-18.8    c-8.3,9.2-16.6,18.4-24.8,27.6c-32,35.2-64.9,69.5-97.5,104.1l-97.7,103.8l-17.3,18.3H547L566.1,744.4z"></path>
		<path class="st23" d="M636,744.4L732.2,639c8.1-8.9,16.1-17.7,24.2-26.6V585c-18.3,19.5-36.7,38.9-55.1,58.3l-97.7,103.8    l-17.3,18.3h30.7L636,744.4z"></path>
		<path class="st23" d="M601,744.4L697.2,639c19.7-21.6,39.3-43.4,59.1-65v-26.7c-29.6,32.4-59.9,64.1-90,96l-97.7,103.8l-17.3,18.3    H582L601,744.4z"></path>
		<path class="st23" d="M391.4,744.4L487.6,639c32-35.2,63.8-70.7,96.4-105.2c21-22,41.9-44,63.2-65.8h-29.4    c-21,23.9-42.3,47.6-63.6,71.2c-32,35.2-64.9,69.5-97.5,104.1L359,747.1l-17.3,18.3h30.7L391.4,744.4z"></path>
	</g>
	<polygon class="st24" points="705.9,744.4 756.4,689.1 756.4,659 673.4,747.1 656.1,765.4 686.8,765.4  "></polygon>
	<g>
		<defs>
			<rect id="SVGID_29_" x="47.3" y="208.5" width="905.4" height="583"></rect>
		</defs>
		<clipPath id="SVGID_30_">
			<use xlink:href="#SVGID_29_" style="overflow:visible;"></use>
		</clipPath>
		<path class="st25" d="M670.9,744.4l85.4-93.6V622c-6.7,7.1-13.4,14.2-20.1,21.3l-97.7,103.8l-17.3,18.3h30.7L670.9,744.4z"></path>
		<path class="st25" d="M461.3,744.4L557.5,639c32-35.2,63.8-70.7,96.4-105.2c20.2-21.2,40.3-42.3,60.7-63.3    c-5.1-1.6-10.5-2.5-16.1-2.5h-10.8c-21,23.9-42.3,47.6-63.6,71.2c-32,35.2-64.9,69.5-97.5,104.1l-97.7,103.8l-17.3,18.3h30.7    L461.3,744.4z"></path>
		<path class="st25" d="M426.3,744.4L522.5,639c32-35.2,63.8-70.7,96.4-105.2c21-22,41.9-44,63.2-65.8h-29.4    c-21,23.9-42.3,47.6-63.6,71.2c-32,35.2-64.9,69.5-97.5,104.1l-97.7,103.8l-17.3,18.3h30.7L426.3,744.4z"></path>
		<path class="st25" d="M531.1,744.4L627.3,639c32-35.2,63.8-70.7,96.4-105.2c9.2-9.6,18.3-19.2,27.5-28.8    c-2.7-6.5-6.4-12.4-10.9-17.5c-15.4,17.3-31,34.5-46.5,51.8c-32,35.2-64.9,69.5-97.5,104.1l-97.7,103.8l-17.3,18.3h30.7    L531.1,744.4z"></path>
		<path class="st25" d="M496.2,744.4L592.4,639c32-35.2,63.8-70.7,96.4-105.2c15.9-16.7,31.9-33.5,47.9-50.1    c-5.2-4.9-11.2-8.9-17.8-11.6c-19.9,22.5-39.9,44.8-60,67.1c-32,35.2-64.9,69.5-97.5,104.1l-97.7,103.8l-17.3,18.3h30.7    L496.2,744.4z"></path>
		<path class="st26" d="M91.5,353.4c0-5.1-0.3-7.1-1.5-9c-1.9-3-5.1-3.9-14.5-3.9c-10.9,0-14.5,0.6-16.7,3.1    c-1.7,1.9-2.5,4.8-2.5,9.2c0,6.3,1.5,9.4,5,10.8c2.3,0.8,2.8,0.9,14.4,1.5c12.8,0.6,16.7,1.4,19.8,3.9c3.7,2.8,5,7.1,5,15.5    c0,9.5-1.7,14.5-5.8,17.2c-4,2.5-8.9,3.2-23.1,3.2c-9.7,0-13-0.5-17-2.8c-2.7-1.6-4.9-4.9-5.6-8.5c-0.6-3-0.8-5-0.9-11h7.8    c0.1,7.5,0.2,8.9,1.6,11.4c1.9,3.5,4.2,4.1,16.7,4.1c16.8,0,18.6-1.5,18.6-14.4c0-5.8-1.1-8.6-4.3-9.8c-2-0.8-2-0.8-14.7-1.6    c-13-0.6-13.9-0.8-17.3-2.4c-5.6-2.8-7.9-7.5-7.9-16.3c0-8.1,1.7-13.1,5.2-15.8c4-3.1,9-4.1,20.9-4.1c13.2,0,18.5,1.4,21.7,5.7    c2.2,2.9,3,6.5,3,12.7v1.2H91.5z"></path>
		<path class="st26" d="M48.8,383.4c0.1,5.4,0.3,7.2,0.9,10.1c0.7,3.4,2.8,6.5,5.3,8c3.9,2.2,7,2.7,16.6,2.7    c13.9,0,18.8-0.7,22.7-3.1c3.9-2.5,5.5-7.3,5.5-16.6c0-8.2-1.3-12.2-4.7-14.9c-3-2.4-6.8-3.1-19.4-3.7    c-11.6-0.5-12.2-0.6-14.6-1.5c-3.9-1.5-5.5-4.9-5.5-11.5c0-4.5,0.9-7.6,2.7-9.7c2.3-2.7,5.9-3.4,17.3-3.4c9.7,0,13.1,0.9,15.2,4.2    c1.2,1.9,1.5,3.9,1.6,8.6h6.3v-0.4c0-6.1-0.8-9.5-2.9-12.3c-3-4.1-8.2-5.5-21.1-5.5c-11.9,0-16.6,0.9-20.4,3.9    c-3.4,2.6-4.9,7.4-4.9,15.2c0,8.4,2.2,12.9,7.5,15.6c3.3,1.5,4.2,1.7,17,2.3c12.9,0.7,12.9,0.7,15,1.6c3.4,1.4,4.8,4.3,4.8,10.5    c0,13.5-2.2,15.2-19.3,15.2c-12.2,0-15.2-0.4-17.4-4.5c-1.4-2.5-1.5-4-1.6-11H48.8z M71.7,405.7c-9.9,0-13.2-0.5-17.4-2.9    c-2.9-1.7-5.2-5.2-6-9c-0.6-3-0.8-5-1-11.1l0-0.8h9.3l0,0.7c0.1,7.5,0.2,8.7,1.5,11c1.6,3,3.2,3.7,16.1,3.7    c16.8,0,17.8-1.5,17.8-13.7c0-5.5-1-8-3.8-9.1c-1.9-0.8-1.9-0.8-14.5-1.5c-13.1-0.6-14.1-0.9-17.6-2.5c-6-3-8.4-7.9-8.4-17    c0-8.3,1.8-13.5,5.5-16.4c4.1-3.2,9.1-4.2,21.3-4.2c13.5,0,19,1.5,22.3,6.1c2.3,3,3.2,6.7,3.2,13.2v1.9h-9.3v-0.8    c0-5-0.3-6.9-1.4-8.6c-1.7-2.7-4.8-3.5-13.9-3.5c-10.7,0-14.2,0.6-16.1,2.9c-1.6,1.8-2.3,4.6-2.3,8.7c0,5.9,1.3,8.8,4.5,10.1    c2.1,0.8,2.4,0.9,14.2,1.4c13.2,0.6,17,1.4,20.3,4c3.8,2.9,5.3,7.4,5.3,16.1c0,9.8-1.8,15-6.2,17.9C91,405,85.9,405.7,71.7,405.7"></path>
		<path class="st26" d="M165.8,334.5v48.8c0,8.4-0.8,11.9-3.5,15.4c-4.1,4.9-9.2,6.3-24.5,6.3c-9.3,0-13.2-0.4-16.7-1.8    c-7.9-2.9-10.3-7.6-10.3-19.8v-48.8h7.8v48.8c0,5.5,0.4,8.5,1.5,10.2c2.1,3.5,6.2,4.6,17.3,4.6c18.6,0,20.7-1.6,20.7-14.8v-48.8    H165.8z"></path>
		<path class="st26" d="M111.4,335.3v48c0,11.9,2.3,16.4,9.8,19.1c3.5,1.3,7.3,1.7,16.5,1.7c14.9,0,20.1-1.3,24-6    c2.6-3.3,3.4-6.8,3.4-14.9v-48h-6.3v48c0,13.8-2.4,15.6-21.4,15.6c-11.5,0-15.7-1.2-18-5c-1.1-1.9-1.6-4.9-1.6-10.6v-48H111.4z     M137.7,405.7c-9.4,0-13.3-0.4-17-1.8c-8.2-3-10.8-8-10.8-20.5v-49.5h9.3v49.5c0,5.4,0.4,8.2,1.4,9.8c1.9,3.2,5.8,4.2,16.7,4.2    c18.7,0,19.9-1.8,19.9-14.1v-49.5h9.3v49.5c0,8.5-0.9,12.2-3.7,15.8C158.6,404.3,153.1,405.7,137.7,405.7"></path>
		<path class="st26" d="M205,370.2c15.5,0,18-1.9,18-13.7c0-9.1-1-12.5-4.3-14c-2.1-0.9-2.9-1-11.2-1.2h-21.1v28.8H205z     M178.6,334.5h29.1c9,0,11.5,0.3,14.6,1.7c5.7,2.5,8.5,8.8,8.5,19.8c0,10.4-2.6,16.3-8.5,19.1c-3.2,1.6-3.8,1.6-15.8,1.8h-20.2    v27.3h-7.8V334.5z"></path>
		<path class="st26" d="M187.2,369.4H205c15.1,0,17.2-1.6,17.2-12.9c0-8.8-0.9-12-3.8-13.3c-1.9-0.9-2.5-1-10.9-1.1h-20.3V369.4z     M205,370.9h-19.3v-30.3h21.8c8.3,0.1,9.2,0.2,11.5,1.2c3.6,1.6,4.7,5.2,4.7,14.7C223.8,368.8,221,370.9,205,370.9 M179.4,403.5    h6.3v-27.3h21.1c11.7-0.2,12.2-0.2,15.3-1.7c5.6-2.7,8-8.4,8-18.4c0-10.7-2.5-16.8-8-19.1c-3-1.3-5.6-1.6-14.3-1.6h-28.4V403.5z     M187.2,405h-9.3v-71.2h29.9c9,0,11.6,0.3,14.9,1.7c6.1,2.7,8.9,9.2,8.9,20.5c0,10.7-2.7,16.8-8.9,19.8c-3.4,1.6-4.1,1.6-15.9,1.8    l-0.2,0h-19.4V405z"></path>
	</g>
	<polygon class="st20" points="248.1,364.9 283.4,364.9 283.4,371.5 248.1,371.5 248.1,397.4 284.9,397.4 284.9,404.2 240.2,404.2    240.2,334.5 284.9,334.5 284.9,341.3 248.1,341.3  "></polygon>
	<path class="st20" d="M241,403.5h43.2v-5.3h-36.9v-27.4h35.3v-5.1h-35.3v-25.1h36.9v-5.3H241V403.5z M285.7,405h-46.2v-71.2h46.2   v8.3h-36.9v22.1h35.3v8.1h-35.3v24.4h36.9V405z"></path>
	<g>
		<defs>
			<rect id="SVGID_31_" x="47.3" y="208.5" width="905.4" height="583"></rect>
		</defs>
		<clipPath id="SVGID_32_">
			<use xlink:href="#SVGID_31_" style="overflow:visible;"></use>
		</clipPath>
		<path class="st27" d="M325.6,369.4c11.5,0,15.1-3,15.1-12.4c0-7.2-0.4-10.2-1.9-12.2c-1.6-2.3-5-3.5-10.5-3.5h-25.4v28.1H325.6z     M295.1,334.5h33.1c14.9,0,20.4,5.3,20.4,20.1c0,12.6-2.7,16.8-12,18.4v0.1c7.2,0.4,11.2,5.2,11.1,13.5v17.7h-7.8v-15.9    c0.2-8.9-3.8-12.4-13.2-12.1h-23.7v28h-7.8V334.5z"></path>
		<path class="st27" d="M303.6,368.7h21.9c11,0,14.4-2.7,14.4-11.7c0-7.1-0.4-10-1.7-11.8c-1.4-2.1-4.8-3.1-9.9-3.1h-24.6V368.7z     M325.6,370.2h-23.4v-29.6h26.1c5.8,0,9.4,1.2,11.2,3.8c1.5,2.1,2,5,2,12.6C341.5,366.9,337.4,370.2,325.6,370.2 M340.5,403.5h6.3    v-16.9c0.1-7.8-3.6-12.3-10.4-12.7l-0.7,0v-1.4l0.6-0.2c8.9-1.5,11.4-5.3,11.4-17.6c0-14.2-5.1-19.3-19.6-19.3h-32.4v68.2h6.3v-28    h24.5c5.1-0.2,8.7,0.8,10.9,3c2.1,2.1,3.1,5.3,3,9.8V403.5z M348.3,405H339v-16.6c0.1-4.1-0.7-7-2.5-8.8c-1.9-1.9-5.2-2.8-9.8-2.6    h-23v28h-9.3v-71.2h33.9c15.4,0,21.1,5.6,21.1,20.8c0,11.3-2.2,16.2-9.2,18.3c5.4,1.7,8.4,6.5,8.3,13.6V405z"></path>
		<path class="st27" d="M386,370.2c15.5,0,18-1.9,18-13.7c0-9.1-1-12.5-4.3-14c-2.1-0.9-2.9-1-11.2-1.2h-21.1v28.8H386z     M359.6,334.5h29.1c9,0,11.5,0.3,14.6,1.7c5.7,2.5,8.5,8.8,8.5,19.8c0,10.4-2.6,16.3-8.5,19.1c-3.2,1.6-3.8,1.6-15.8,1.8h-20.2    v27.3h-7.8V334.5z"></path>
		<path class="st27" d="M368.2,369.4H386c15.1,0,17.2-1.6,17.2-12.9c0-8.8-0.9-12-3.8-13.3c-1.9-0.9-2.5-1-10.9-1.1h-20.3V369.4z     M386,370.9h-19.3v-30.3h21.8c8.3,0.1,9.2,0.2,11.5,1.2c3.6,1.6,4.7,5.2,4.7,14.7C404.7,368.8,401.9,370.9,386,370.9 M360.3,403.5    h6.3v-27.3h21.1c11.7-0.2,12.2-0.2,15.3-1.7c5.6-2.7,8-8.4,8-18.4c0-10.7-2.5-16.8-8-19.1c-3-1.3-5.6-1.6-14.3-1.6h-28.4V403.5z     M368.2,405h-9.3v-71.2h29.9c9,0,11.6,0.3,14.9,1.7c6.1,2.7,8.9,9.2,8.9,20.5c0,10.7-2.7,16.8-8.9,19.8c-3.4,1.6-4.1,1.6-15.9,1.8    l-0.2,0h-19.4V405z"></path>
		<path class="st27" d="M451.7,369.4c11.5,0,15.1-3,15.1-12.4c0-7.2-0.4-10.2-1.9-12.2c-1.6-2.3-5-3.5-10.5-3.5H429v28.1H451.7z     M421.2,334.5h33.1c14.9,0,20.4,5.3,20.4,20.1c0,12.6-2.7,16.8-12,18.4v0.1c7.2,0.4,11.2,5.2,11.1,13.5v17.7h-7.8v-15.9    c0.2-8.9-3.8-12.4-13.2-12.1H429v28h-7.8V334.5z"></path>
		<path class="st27" d="M429.8,368.7h21.9c11,0,14.4-2.7,14.4-11.7c0-7.1-0.4-10-1.7-11.8c-1.4-2.1-4.8-3.1-9.9-3.1h-24.6V368.7z     M451.7,370.2h-23.4v-29.6h26.1c5.8,0,9.4,1.2,11.2,3.8c1.5,2.1,2,5,2,12.6C467.6,366.9,463.6,370.2,451.7,370.2 M466.7,403.5h6.3    v-16.9c0.1-7.8-3.6-12.3-10.4-12.7l-0.7,0v-1.4l0.6-0.2c8.9-1.5,11.4-5.3,11.4-17.6c0-14.2-5.1-19.3-19.6-19.3H422v68.2h6.3v-28    h24.5c5.2-0.2,8.7,0.8,10.9,3c2.1,2.1,3.1,5.3,3,9.8V403.5z M474.5,405h-9.3v-16.6c0.1-4.1-0.7-7-2.5-8.8    c-1.9-1.9-5.2-2.8-9.8-2.6h-23v28h-9.3v-71.2h33.9c15.4,0,21.1,5.6,21.1,20.8c0,11.3-2.2,16.2-9.2,18.3c5.4,1.7,8.4,6.5,8.3,13.6    V405z"></path>
		<path class="st27" d="M495.8,343.9c-2.1,2.4-3,5.5-3.5,11.4c-0.1,1.5-0.1,1.5-0.1,14c0,14.4,0,14.4,0.6,18.4    c0.7,4.8,2.6,7.7,5.8,9c2.8,1.2,5.7,1.5,15,1.5c12.7,0,16.2-0.6,18.6-3.3c2.1-2.4,3-5.5,3.4-11.4c0.1-1.5,0.1-1.5,0.1-14.1    c0-14.3,0-14.3-0.6-18.3c-0.7-4.8-2.6-7.7-5.8-9c-2.8-1.2-5.9-1.5-15-1.5C501.6,340.6,498.2,341.2,495.8,343.9 M533,336.1    c6,2.5,9.1,7.6,10.3,16.6c0.3,3.1,0.4,4.8,0.4,13.7c0,16.3-0.1,18.7-1.3,24c-1.3,6.2-4.3,10.1-9.3,12.2c-4.4,1.9-7.9,2.3-18.2,2.3    c-12.2,0-15.6-0.4-20.1-2.3c-5-2.2-7.9-6.1-9.3-12.2c-1.1-5.4-1.3-7.7-1.3-23.9c0-14.5,0.6-18.6,3.5-23.9c2.3-4.2,6.4-6.9,12.2-8    c2.5-0.4,7.9-0.7,14-0.7C524.7,333.8,528.9,334.3,533,336.1"></path>
		<path class="st27" d="M496.3,344.4c-2,2.3-2.8,5.2-3.3,10.9c-0.1,1.4-0.1,1.4-0.1,13.9c0,14.4,0,14.4,0.6,18.3    c0.7,4.6,2.4,7.2,5.4,8.4c2.8,1.1,5.8,1.4,14.8,1.4c12.4,0,15.8-0.6,18-3.1c2-2.3,2.8-5.2,3.3-10.9c0.1-1.4,0.1-1.4,0.1-14    c0-14.2,0-14.2-0.6-18.2c-0.7-4.6-2.4-7.2-5.4-8.4c-2.8-1.1-5.8-1.4-14.8-1.4C501.9,341.4,498.6,341.9,496.3,344.4 M513.7,398.9    c-9.3,0-12.3-0.3-15.3-1.5c-3.5-1.3-5.5-4.5-6.3-9.6c-0.6-4-0.6-4-0.6-18.5c0-12.6,0-12.6,0.1-14c0.4-6.1,1.4-9.3,3.6-11.8v0    c2.6-2.9,6.2-3.6,19.2-3.6c9.2,0,12.4,0.3,15.3,1.5c3.5,1.3,5.5,4.5,6.3,9.6c0.6,4,0.6,4,0.6,18.4c0,12.7,0,12.7-0.1,14.2    c-0.4,6.1-1.4,9.3-3.6,11.8C530.3,398.2,526.7,398.9,513.7,398.9 M514,334.6c-5.7,0-11.3,0.3-13.9,0.7c-5.6,1.1-9.5,3.7-11.7,7.7    c-2.8,5.2-3.4,9.4-3.4,23.6c0,16.2,0.1,18.4,1.2,23.8c1.3,5.9,4.1,9.6,8.9,11.7c4.4,1.9,7.8,2.2,19.7,2.2    c10.3,0,13.6-0.4,17.9-2.2c4.8-2,7.7-5.8,8.9-11.7c1.1-5.2,1.2-7.4,1.2-23.9c0-8.7-0.1-10.5-0.4-13.6c-1.2-8.8-4.2-13.6-9.9-16h0    C528.7,335.1,524.5,334.6,514,334.6 M515,405.7c-12.2,0-15.7-0.4-20.3-2.4c-5.2-2.3-8.3-6.3-9.7-12.8c-1.2-5.5-1.3-7.7-1.3-24.1    c0-14.5,0.6-18.8,3.5-24.3c2.4-4.4,6.7-7.2,12.7-8.4c2.7-0.5,8.3-0.7,14.1-0.7c10.7,0,15,0.5,19.2,2.4c6.2,2.6,9.5,7.9,10.8,17.2    c0.3,3.2,0.4,5,0.4,13.8c0,16.6-0.1,18.8-1.3,24.2c-1.3,6.4-4.5,10.6-9.7,12.8C529,405.2,525.4,405.7,515,405.7"></path>
	</g>
	<polygon class="st20" points="579.6,404.2 571.8,404.2 571.8,341.9 549.1,341.9 549.1,334.5 602.2,334.5 602.2,342 579.6,341.9     "></polygon>
	<path class="st20" d="M572.6,403.5h6.3v-62.4l22.6,0.1v-5.9h-51.6v5.8h22.7V403.5z M580.4,405H571v-62.4h-22.7v-8.8H603v8.9   l-22.6-0.1V405z"></path>
	<g>
		<defs>
			<rect id="SVGID_33_" x="47.3" y="208.5" width="905.4" height="583"></rect>
		</defs>
		<clipPath id="SVGID_34_">
			<use xlink:href="#SVGID_33_" style="overflow:visible;"></use>
		</clipPath>
		<path class="st28" d="M640.9,369.4c11.5,0,15.1-3,15.1-12.4c0-7.2-0.4-10.2-1.9-12.2c-1.6-2.3-5-3.5-10.5-3.5h-25.4v28.1H640.9z     M610.4,334.5h33.1c14.9,0,20.4,5.3,20.4,20.1c0,12.6-2.7,16.8-12,18.4v0.1c7.2,0.4,11.2,5.2,11.1,13.5v17.7h-7.8v-15.9    c0.2-8.9-3.8-12.4-13.2-12.1h-23.7v28h-7.8V334.5z"></path>
		<path class="st28" d="M619,368.7h21.9c11,0,14.4-2.7,14.4-11.7c0-7.1-0.4-10-1.7-11.8c-1.4-2.1-4.8-3.1-9.9-3.1H619V368.7z     M640.9,370.2h-23.4v-29.6h26.1c5.8,0,9.4,1.2,11.2,3.8c1.5,2.1,2,5,2,12.6C656.8,366.9,652.8,370.2,640.9,370.2 M655.9,403.5h6.3    v-16.9c0.1-7.8-3.6-12.3-10.4-12.7l-0.7,0v-1.4l0.6-0.2c8.9-1.5,11.4-5.3,11.4-17.6c0-14.2-5.1-19.3-19.6-19.3h-32.4v68.2h6.3v-28    H642c5.2-0.2,8.7,0.8,10.9,3c2.1,2.1,3.1,5.3,3,9.8V403.5z M663.7,405h-9.3v-16.6c0.1-4.1-0.7-7-2.5-8.8c-1.9-1.9-5.2-2.8-9.8-2.6    h-23v28h-9.3v-71.2h33.9c15.4,0,21.1,5.6,21.1,20.8c0,11.3-2.2,16.2-9.2,18.3c5.4,1.7,8.4,6.5,8.3,13.6V405z"></path>
		<path class="st28" d="M729.7,334.5v48.8c0,8.4-0.8,11.9-3.5,15.4c-4.1,4.9-9.2,6.3-24.5,6.3c-9.3,0-13.2-0.4-16.7-1.8    c-7.9-2.9-10.3-7.6-10.3-19.8v-48.8h7.8v48.8c0,5.5,0.4,8.5,1.5,10.2c2.1,3.5,6.2,4.6,17.3,4.6c18.6,0,20.7-1.6,20.7-14.8v-48.8    H729.7z"></path>
		<path class="st28" d="M675.3,335.3v48c0,11.9,2.3,16.4,9.8,19.1c3.5,1.3,7.3,1.7,16.5,1.7c14.9,0,20.1-1.3,24-6    c2.6-3.3,3.4-6.8,3.4-14.9v-48h-6.3v48c0,13.8-2.4,15.6-21.4,15.6c-11.5,0-15.7-1.2-18-5c-1.1-1.9-1.6-4.9-1.6-10.6v-48H675.3z     M701.6,405.7c-9.4,0-13.3-0.4-17-1.8c-8.2-3-10.8-8-10.8-20.5v-49.5h9.3v49.5c0,5.4,0.4,8.2,1.4,9.8c1.9,3.2,5.8,4.2,16.7,4.2    c18.7,0,19.9-1.8,19.9-14.1v-49.5h9.3v49.5c0,8.5-0.9,12.2-3.7,15.8C722.5,404.3,717.1,405.7,701.6,405.7"></path>
		<path class="st28" d="M783.1,353.4c0-5.1-0.3-7.1-1.5-9c-1.9-3-5.1-3.9-14.5-3.9c-10.9,0-14.5,0.6-16.7,3.1    c-1.7,1.9-2.5,4.8-2.5,9.2c0,6.3,1.5,9.4,5,10.8c2.3,0.8,2.8,0.9,14.4,1.5c12.8,0.6,16.7,1.4,19.8,3.9c3.6,2.8,5,7.1,5,15.5    c0,9.5-1.7,14.5-5.8,17.2c-4,2.5-8.9,3.2-23.1,3.2c-9.7,0-13-0.5-17-2.8c-2.7-1.6-4.9-4.9-5.6-8.5c-0.6-3-0.8-5-0.9-11h7.8    c0.1,7.5,0.2,8.9,1.6,11.4c1.9,3.5,4.2,4.1,16.7,4.1c16.8,0,18.6-1.5,18.6-14.4c0-5.8-1.2-8.6-4.3-9.8c-2-0.8-2-0.8-14.7-1.6    c-13-0.6-13.9-0.8-17.3-2.4c-5.6-2.8-7.9-7.5-7.9-16.3c0-8.1,1.7-13.1,5.2-15.8c4-3.1,9-4.1,20.9-4.1c13.2,0,18.5,1.4,21.7,5.7    c2.2,2.9,3,6.5,3,12.7v1.2H783.1z"></path>
		<path class="st28" d="M740.4,383.4c0.1,5.4,0.3,7.2,0.9,10.1c0.7,3.4,2.8,6.5,5.3,8c3.9,2.2,7,2.7,16.6,2.7    c13.9,0,18.8-0.7,22.7-3.1c3.9-2.5,5.5-7.3,5.5-16.6c0-8.2-1.3-12.2-4.7-14.9c-3-2.4-6.8-3.1-19.4-3.7    c-11.6-0.5-12.2-0.6-14.6-1.5c-3.9-1.5-5.5-4.9-5.5-11.5c0-4.5,0.9-7.6,2.7-9.7c2.4-2.7,5.9-3.4,17.3-3.4c9.7,0,13.1,0.9,15.2,4.2    c1.2,1.9,1.5,3.9,1.6,8.6h6.3v-0.4c0-6.1-0.8-9.5-2.9-12.3c-3-4.1-8.2-5.5-21.1-5.5c-11.9,0-16.6,0.9-20.4,3.9    c-3.4,2.6-4.9,7.4-4.9,15.2c0,8.4,2.2,12.9,7.5,15.6c3.3,1.5,4.2,1.7,17,2.3c12.9,0.7,12.9,0.7,15,1.6c3.4,1.4,4.8,4.3,4.8,10.5    c0,13.5-2.2,15.2-19.4,15.2c-12.2,0-15.2-0.4-17.4-4.5c-1.4-2.5-1.5-4-1.6-11H740.4z M763.2,405.7c-9.9,0-13.2-0.5-17.4-2.9    c-2.9-1.7-5.2-5.2-6-9c-0.6-3-0.8-5-1-11.1l0-0.8h9.3l0,0.7c0.1,7.5,0.2,8.7,1.5,11c1.6,3,3.2,3.7,16,3.7    c16.8,0,17.8-1.5,17.8-13.7c0-5.5-1-8-3.8-9.1c-1.9-0.8-1.9-0.8-14.5-1.5c-13.1-0.6-14.1-0.9-17.6-2.5c-6-3-8.4-7.9-8.4-17    c0-8.3,1.7-13.5,5.5-16.4c4.1-3.2,9.1-4.2,21.4-4.2c13.5,0,19,1.5,22.3,6.1c2.3,3,3.2,6.7,3.2,13.2v1.9h-9.3v-0.8    c0-5-0.3-6.9-1.4-8.6c-1.7-2.7-4.8-3.5-13.9-3.5c-10.7,0-14.2,0.6-16.1,2.9c-1.6,1.8-2.3,4.6-2.3,8.7c0,5.9,1.3,8.8,4.5,10.1    c2.1,0.8,2.4,0.9,14.2,1.4c13.2,0.6,17,1.4,20.3,4c3.8,2.9,5.3,7.4,5.3,16.1c0,9.8-1.8,15-6.2,17.9    C782.5,405,777.5,405.7,763.2,405.7"></path>
	</g>
	<rect x="802.5" y="334.5" class="st20" width="7.8" height="69.7"></rect>
	<path class="st20" d="M803.2,403.5h6.3v-68.2h-6.3V403.5z M811.1,405h-9.3v-71.2h9.3V405z"></path>
	<g>
		<defs>
			<rect id="SVGID_35_" x="47.3" y="208.5" width="905.4" height="583"></rect>
		</defs>
		<clipPath id="SVGID_36_">
			<use xlink:href="#SVGID_35_" style="overflow:visible;"></use>
		</clipPath>
		<path class="st29" d="M833.2,343.9c-2.1,2.4-3,5.5-3.5,11.4c-0.1,1.5-0.1,1.5-0.1,14c0,14.4,0,14.4,0.6,18.4    c0.7,4.8,2.6,7.7,5.8,9c2.8,1.2,5.7,1.5,15,1.5c12.7,0,16.2-0.6,18.6-3.3c2.1-2.4,3-5.5,3.5-11.4c0.1-1.5,0.1-1.5,0.1-14.1    c0-14.3,0-14.3-0.6-18.3c-0.7-4.8-2.6-7.7-5.8-9c-2.8-1.2-5.9-1.5-15-1.5C839,340.6,835.6,341.2,833.2,343.9 M870.4,336.1    c6,2.5,9.1,7.6,10.3,16.6c0.3,3.1,0.4,4.8,0.4,13.7c0,16.3-0.1,18.7-1.3,24c-1.3,6.2-4.3,10.1-9.3,12.2c-4.4,1.9-7.9,2.3-18.2,2.3    c-12.2,0-15.6-0.4-20.1-2.3c-5-2.2-7.9-6.1-9.3-12.2c-1.2-5.4-1.3-7.7-1.3-23.9c0-14.5,0.6-18.6,3.5-23.9c2.3-4.2,6.4-6.9,12.2-8    c2.5-0.4,7.9-0.7,14-0.7C862.1,333.8,866.3,334.3,870.4,336.1"></path>
		<path class="st29" d="M833.8,344.4c-2,2.3-2.8,5.2-3.3,10.9c-0.1,1.4-0.1,1.4-0.1,13.9c0,14.4,0,14.4,0.6,18.3    c0.7,4.6,2.4,7.2,5.4,8.4c2.8,1.1,5.8,1.4,14.8,1.4c12.4,0,15.8-0.6,18-3.1c2-2.3,2.8-5.2,3.3-10.9c0.1-1.4,0.1-1.4,0.1-14    c0-14.2,0-14.2-0.6-18.2c-0.7-4.6-2.4-7.2-5.4-8.4c-2.8-1.1-5.8-1.4-14.8-1.4C839.3,341.4,836,341.9,833.8,344.4 M851.2,398.9    c-9.3,0-12.3-0.3-15.3-1.5c-3.5-1.3-5.5-4.5-6.3-9.6c-0.6-4-0.6-4-0.6-18.5c0-12.6,0-12.6,0.1-14c0.4-6.1,1.4-9.3,3.6-11.8v0    c2.6-2.9,6.2-3.6,19.2-3.6c9.2,0,12.4,0.3,15.3,1.5c3.5,1.3,5.5,4.5,6.3,9.6c0.6,4,0.6,4,0.6,18.4c0,12.7,0,12.7-0.1,14.2    c-0.4,6.1-1.4,9.3-3.6,11.8C867.7,398.2,864.1,398.9,851.2,398.9 M851.5,334.6c-5.7,0-11.3,0.3-13.9,0.7    c-5.6,1.1-9.5,3.7-11.7,7.7c-2.8,5.2-3.4,9.4-3.4,23.6c0,16.2,0.1,18.4,1.2,23.8c1.3,5.9,4.1,9.6,8.9,11.7    c4.4,1.9,7.8,2.2,19.7,2.2c10.3,0,13.6-0.4,17.9-2.2c4.8-2,7.7-5.8,8.9-11.7c1.1-5.2,1.2-7.4,1.2-23.9c0-8.7-0.1-10.5-0.4-13.6    c-1.2-8.8-4.2-13.6-9.9-16h0C866.1,335.1,861.9,334.6,851.5,334.6 M852.4,405.7c-12.2,0-15.7-0.4-20.3-2.4    c-5.2-2.3-8.3-6.3-9.7-12.8c-1.2-5.5-1.3-7.7-1.3-24.1c0-14.5,0.6-18.8,3.5-24.3c2.4-4.4,6.7-7.2,12.7-8.4    c2.7-0.5,8.3-0.7,14.1-0.7c10.7,0,15,0.5,19.2,2.4c6.2,2.6,9.5,7.9,10.8,17.2c0.3,3.2,0.4,5,0.4,13.8c0,16.6-0.1,18.8-1.3,24.2    c-1.3,6.4-4.5,10.6-9.7,12.8C866.4,405.2,862.8,405.7,852.4,405.7"></path>
	</g>
	<polygon class="st20" points="944.1,334.5 944.1,387.4 944.1,392.6 944.1,395.2 944.2,397.8 944,397.8 940.8,392.4 937.4,387    930.7,376.1 905.4,334.5 892.5,334.5 892.5,404.2 900.3,404.2 900.3,351.7 900.3,346.4 900.3,343.8 900.2,341.2 900.4,341.2    902.7,345.1 905.1,349 909.8,356.8 939.1,404.2 951.9,404.2 951.9,334.5  "></polygon>
	<path class="st20" d="M945,398.6l-0.1-3.4v-59.9h6.3v68.2h-11.7l-29-47l-4.7-7.8l-2.4-3.8l-2.5-4.2h-1.4l0.1,3.4v59.6h-6.3v-68.2   h11.7l25.2,41.2l6.7,10.9l6.8,11.2H945z M943.3,333.8v61.5l-37.6-61.5h-14V405h9.3v-61.2l8.1,13.4l29.5,47.8h14v-71.2H943.3z"></path>
	<g>
		<defs>
			<rect id="SVGID_37_" x="47.3" y="208.5" width="905.4" height="583"></rect>
		</defs>
		<clipPath id="SVGID_38_">
			<use xlink:href="#SVGID_37_" style="overflow:visible;"></use>
		</clipPath>
		<path class="st30" d="M764.2,744.4c0,3.1,1.3,6.3,3.7,8.4c2.3,2.2,5.4,3.5,8.6,3.7l20.1,1.9l40.2,3.7l40.3,3.5l20.1,1.6    c3.3,0.3,6.9,0.3,10.6,1.7c1.8,0.7,3.8,2,5,3.9c1.3,1.9,1.7,4.2,1.7,6.1l-3.8,2.2l3.8-2.2c0,0.8,0,1.7-0.4,2.8c-0.3,1-1,2.2-2,2.9    c-2.1,1.5-3.8,1.4-5.2,1.6l-4,0.2c-1.3,0.1-2.6,0.1-3.9,0.1l-15.8,0.3l-31.5,0.7l-63.1,1.4c-42.1,1-84.1,1.6-126.2,2l-126.2,0.7    L410,791.4l-126.2-0.7c-42.1-0.2-84.2-0.4-126.2-0.9l-31.6-0.3l-16-0.2c-1.6-0.1-3.3-0.2-5.2-0.7c-1.9-0.5-4.1-1.4-6-3.3    c-2-1.9-3-4.7-3.3-6.9c-0.1-0.6-0.1-1.1-0.1-1.6c0-0.4,0-0.9,0.1-1.4c0-0.9,0.2-2,0.5-3c0.5-2,1.6-4.1,3-5.7    c1.5-1.7,3.2-2.8,5-3.6c3.5-1.6,7-1.9,9.9-1.9l15.8-0.4l31.5-0.9l63.1-1.8l31.5-0.9l3.9-0.1c1.2,0,2.1-0.1,3-0.4    c1.9-0.5,3.6-1.6,4.9-3.1c1.3-1.5,2.1-3.4,2.2-5.4l0-0.7l0-1l-0.1-2l-0.1-3.9c-1.4-42-3.1-84.1-5-126.1l-3-63    c-1.2-21.3,4.4-43.4,16.5-61.5c11.9-18.2,30.2-32.3,51.3-38.6c5.3-1.6,10.6-2.8,16.1-3.4c5.5-0.7,11.1-0.7,16.2-0.8l31.5-0.5    c42.1-0.7,84.1-1.4,126.2-1.6l63.1-0.2l63.1,0.3l31.6,0.4c11.2,0.2,22.4,2.1,32.8,6c20.9,7.7,38.9,22.5,50.5,41.2    c5.9,9.3,10,19.6,12.5,30.3c1.3,5.3,2,10.8,2.3,16.2c0.2,2.7,0.2,5.5,0.1,8.2l-0.5,7.9l-4.2,63l-3.7,63L764.2,744.4z M762.7,744.3    l2.7-63l2.1-63.1l1.6-63.1l0.2-7.9c-0.1-2.6-0.1-5-0.4-7.6c-0.5-5-1.4-10.1-2.7-14.9c-2.7-9.7-6.9-19-12.6-27.3    c-11.3-16.6-28.1-29.3-46.9-35.3c-9.4-3.1-19.3-4.6-29.1-4.5l-31.5,0.4l-63.1,0.3l-63.1-0.2c-42.1-0.2-84.1-1-126.2-1.6l-31.5-0.5    c-5.4-0.1-10.3-0.2-15.3,0.3s-10,1.4-14.8,2.7c-19.4,5.1-37,17.5-48.6,34.3c-11.6,16.7-17.6,37.4-16.6,58l2.7,63    c2,42,4,84,6.4,126.1l0.2,3.9l0.1,2l0.1,1l0,1.3c-0.2,3.3-1.4,6.5-3.5,9.1c-2,2.6-4.9,4.5-8,5.5c-1.6,0.5-3.3,0.7-4.8,0.7    l-3.9,0.2l-31.5,1.7l-63,3.5l-31.5,1.8l-15.8,0.9c-2.3,0-4.2,0.4-5.4,1.1c-1.3,0.7-1.6,1.2-1.8,2.2c0,0.3-0.1,0.6-0.1,0.9    c0,0.2,0,0.3,0,0.6c0,0.1,0,0.3,0,0.3c0.1,0.4,0.1,0.2,0,0.1c0-0.1,0.2,0.1,0.9,0.3c0.7,0.2,1.6,0.2,2.6,0.3l15.6-0.1l31.5-0.3    c42.1-0.5,84.1-0.7,126.2-0.9l126.2-0.7l126.2-0.1l126.2,0.7c42.1,0.4,84.1,1,126.2,2l63.1,1.4l31.6,0.7l15.8,0.3l7.8,0.2    c1.1,0,2.2-0.2,2.3-0.3c0.1,0,0.4-0.3,0.4-1.4l3.8-2.2l-3.8,2.2c0.1-2.8-0.9-4.7-3.5-5.8c-2.6-1.2-5.8-1.5-9.2-1.9l-20.1-2.3    l-40.2-4.4l-40.2-4.2l-20.1-2.1c-3.5-0.3-7-1.8-9.6-4.2C764.1,751.5,762.6,747.9,762.7,744.3"></path>
	</g>
</g>
</svg>