<svg xmlns="http://www.w3.org/2000/svg" xmlns:xlink="http://www.w3.org/1999/xlink" id="Livello_1" x="0px" y="0px" viewBox="0 0 1000 1000" style="enable-background:new 0 0 1000 1000;" xml:space="preserve">
<style type="text/css">
	.st0{clip-path:url(#SVGID_2_);fill:#6E9F39;}
	.st1{clip-path:url(#SVGID_2_);fill:#444343;}
	.st2{fill:#6E9F39;}
	.st3{clip-path:url(#SVGID_4_);fill:#6E9F39;}
	.st4{clip-path:url(#SVGID_4_);fill:#444343;}
	.st5{fill:#444343;}
	.st6{clip-path:url(#SVGID_6_);fill:#444343;}
</style>
<g>
	<g>
		<defs>
			<rect id="SVGID_1_" x="53.2" y="205.7" width="893.7" height="588.6"></rect>
		</defs>
		<clipPath id="SVGID_2_">
			<use xlink:href="#SVGID_1_" style="overflow:visible;"></use>
		</clipPath>
		<path class="st0" d="M55.4,419.8c74.3-2.2,148.6-3.6,222.9-5.4l222.9-4.1c37.1-0.7,74.3-1.6,111.4-2.6    c37.1-0.9,74.3-0.9,111.4-0.1l55.7,1.6c18.6,0.8,37.1,1.3,55.7,2.4c37.1,1.9,74.3,4.3,111.4,8.2v2.7c-37.1,3.9-74.3,6.3-111.4,8.2    c-18.6,1.1-37.1,1.6-55.7,2.4l-55.7,1.6c-37.1,0.8-74.3,0.7-111.4-0.1c-37.1-1-74.3-1.8-111.4-2.6l-222.9-4.1    c-74.3-1.8-148.6-3.3-222.9-5.4V419.8z"></path>
		<path class="st1" d="M53.2,467.7l37.2-1.4l37.2-1.2l1.6-0.1l0.8,1.6c12.5,26,24.6,52.1,36.9,78.2l36.4,78.4l36,78.6    c12,26.2,23.9,52.4,35.7,78.7l-8.2-5.4c39.1-0.3,78.2-0.8,117.3-0.8l117.3-0.3l117.3,0.3c39.1,0,78.2,0.5,117.3,0.8l-8.3,5.5    c11.3-26.3,22.7-52.6,34.2-78.7l34.5-78.6l35-78.4c11.8-26.1,23.5-52.2,35.5-78.2l0.8-1.6l1.6,0.1l37.2,1.2l37.2,1.4l-37.2,1.4    l-37.2,1.2l2.4-1.6c-10.2,26.7-20.8,53.3-31.2,80l-31.7,79.8l-32.1,79.6c-10.7,26.6-21.5,53-32.4,79.5l-2.3,5.5l-6,0    c-39.1,0.3-78.2,0.8-117.3,0.8l-117.3,0.3L384.1,794c-39.1,0-78.2-0.6-117.3-0.8l-5.9,0l-2.3-5.3c-11.4-26.5-22.7-52.9-33.9-79.5    l-33.6-79.7l-33.2-79.8c-10.9-26.7-21.9-53.3-32.7-80.1l2.4,1.5l-37.2-1.2L53.2,467.7z"></path>
		<path class="st0" d="M448.5,318.8h-12.7v-90.5v-6.8v-3.4l0.2-3.4h-0.3c-0.5,1.7-1,2.9-1.5,4.2c-0.7,1.5-0.8,1.9-2.5,6.3L393,318.8    h-12.9l-38.5-92.4l-2.2-5.3l-1-2.7l-1-2.5h-0.3l0.2,3.1v3.2v6.1v90.5h-12.7V205.7h22l30.2,73.2l4.8,11.7l2.4,5.9l2.4,5.9h0.3    l2.4-5.9l2.4-5.9l4.7-11.7l30-73.2h22.4V318.8z"></path>
	</g>
	<path class="st2" d="M512.6,216l25.1,68.7h-49.8L512.6,216z M503.4,205.7L462,318.8h13.6l8.7-23.9h57.1l8.8,23.9h13.4l-42.2-113.1   H503.4z"></path>
	<g>
		<defs>
			<rect id="SVGID_3_" x="53.2" y="205.7" width="893.7" height="588.6"></rect>
		</defs>
		<clipPath id="SVGID_4_">
			<use xlink:href="#SVGID_3_" style="overflow:visible;"></use>
		</clipPath>
		<path class="st3" d="M618,263.5c25.1,0,29.2-3.1,29.2-22.2c0-14.8-1.7-20.3-7-22.7c-3.4-1.5-4.7-1.7-18.1-1.9h-34.3v46.8H618z     M575.1,205.7h47.3c14.6,0,18.7,0.5,23.7,2.7c9.3,4.1,13.7,14.2,13.7,32.2c0,17-4.2,26.5-13.7,31c-5.3,2.5-6.1,2.5-25.6,2.9h-32.7    v44.3h-12.7V205.7z"></path>
		<path class="st4" d="M282.4,620.5V636c8.1-5.5,16.2-11,24.4-16.4c19.5-12.8,39-25.6,58.7-38.2h-27.3    C319.7,594.5,301,607.5,282.4,620.5"></path>
		<path class="st4" d="M311.5,622.8c-9.6,6.6-19.4,13.2-29.1,19.7v15.7c18.8-13,37.7-25.9,56.9-38.6c19.5-12.8,39-25.6,58.7-38.2    h-27.3C351.1,595.3,331.3,609.1,311.5,622.8"></path>
		<path class="st4" d="M282.6,614.2c16.7-10.9,33.4-21.8,50.2-32.6C306.4,582.6,285.2,596.5,282.6,614.2"></path>
		<path class="st4" d="M344,622.8c-20.3,13.9-40.9,27.6-61.6,41.3v16.5c29.7-20.4,59.1-40.9,89.4-60.9c19.5-12.8,39-25.6,58.7-38.2    h-27.3C383.6,595.3,363.8,609.1,344,622.8"></path>
		<path class="st4" d="M444.5,680.7c29.8-20.4,59.3-41,89.6-61.1c19.5-12.8,39-25.6,58.7-38.2h-27.3c-19.5,13.9-39.4,27.6-59.2,41.4    c-29.7,20.5-60.3,40.4-90.6,60.5L325,743.6l-11.1,7.3c6.8,2.1,14.3,3.3,22.3,3.3h1.2l17.7-12.2L444.5,680.7z"></path>
		<path class="st4" d="M412,680.7c29.8-20.4,59.3-41,89.6-61.1c19.5-12.8,39-25.6,58.7-38.2H533c-19.5,13.9-39.4,27.6-59.2,41.4    c-29.7,20.5-60.3,40.4-90.6,60.5l-87.8,58.3c4.4,3.4,9.6,6.3,15.6,8.4l11.6-8L412,680.7z"></path>
		<path class="st4" d="M376.4,622.8c-29.7,20.5-60.3,40.4-90.6,60.5l-3.5,2.3v17.2l32.2-22.1c29.8-20.4,59.3-41,89.6-61.1    c19.5-12.8,39-25.6,58.7-38.2h-27.3C416.1,595.3,396.2,609.1,376.4,622.8"></path>
		<path class="st4" d="M716.8,739c6.3-5.9,10.1-13.2,10.1-21.1V714l-44.6,29.6l-16.1,10.6h6.9c12.1,0,23.2-2.7,32.1-7.2l7.2-5    L716.8,739z"></path>
		<path class="st4" d="M350.8,683.2l-66.5,44.2c1.8,4.5,4.9,8.7,9,12.4l86.2-59.1c29.8-20.4,59.3-41,89.6-61.1    c19.5-12.8,39-25.6,58.7-38.2h-27.3c-19.5,13.9-39.4,27.6-59.2,41.4C411.7,643.3,381.1,663.2,350.8,683.2"></path>
		<path class="st4" d="M408.9,622.8c-29.7,20.5-60.3,40.4-90.6,60.5l-36,23.9v10.7c0,2.2,0.3,4.4,0.9,6.5l63.8-43.7    c29.8-20.4,59.3-41,89.6-61.1c19.5-12.8,39-25.6,58.7-38.2h-27.3C448.5,595.3,428.7,609.1,408.9,622.8"></path>
		<path class="st4" d="M550,742l89.4-61.2c29.1-19.9,57.9-40,87.4-59.6v-3.4c0-3.8-0.9-7.5-2.5-10.9c-7.7,5.3-15.4,10.7-23.1,16    c-29.7,20.5-60.3,40.4-90.6,60.5l-90.8,60.3l-16.1,10.6h28.5L550,742z"></path>
		<path class="st4" d="M615,742l89.4-61.2c7.5-5.1,15-10.3,22.5-15.5v-15.9c-17,11.3-34.2,22.6-51.2,33.9l-90.8,60.3l-16.1,10.6    h28.5L615,742z"></path>
		<path class="st4" d="M582.5,742l89.4-61.2c18.3-12.6,36.6-25.2,55-37.7v-15.5c-27.6,18.8-55.7,37.2-83.7,55.8l-90.8,60.3    l-16.1,10.6h28.5L582.5,742z"></path>
		<path class="st4" d="M387.6,742l89.4-61.2c29.8-20.4,59.3-41,89.6-61.1c19.5-12.8,39-25.6,58.7-38.2H598    c-19.5,13.9-39.4,27.6-59.2,41.4c-29.7,20.5-60.3,40.4-90.6,60.5l-90.8,60.3l-16.1,10.6h28.5L387.6,742z"></path>
	</g>
	<polygon class="st5" points="679.9,742 726.8,709.8 726.8,692.4 649.8,743.6 633.7,754.2 662.2,754.2  "></polygon>
	<g>
		<defs>
			<rect id="SVGID_5_" x="53.2" y="205.7" width="893.7" height="588.6"></rect>
		</defs>
		<clipPath id="SVGID_6_">
			<use xlink:href="#SVGID_5_" style="overflow:visible;"></use>
		</clipPath>
		<path class="st6" d="M647.4,742l79.4-54.4v-16.7c-6.3,4.1-12.5,8.2-18.7,12.4l-90.8,60.3l-16.1,10.6h28.5L647.4,742z"></path>
		<path class="st6" d="M452.5,742l89.4-61.2c29.8-20.4,59.3-41,89.6-61.1c18.8-12.3,37.5-24.6,56.4-36.7c-4.8-0.9-9.8-1.5-15-1.5    H663c-19.5,13.9-39.4,27.6-59.2,41.4c-29.7,20.5-60.3,40.4-90.6,60.5l-90.8,60.3l-16.1,10.6h28.5L452.5,742z"></path>
		<path class="st6" d="M420.1,742l89.4-61.2c29.8-20.4,59.3-41,89.6-61.1c19.5-12.8,39-25.6,58.7-38.2h-27.3    c-19.5,13.9-39.4,27.6-59.2,41.4c-29.7,20.5-60.3,40.4-90.6,60.5l-90.8,60.3l-16.1,10.6h28.5L420.1,742z"></path>
		<path class="st6" d="M517.5,742l89.4-61.2c29.8-20.4,59.3-41,89.6-61.1c8.5-5.6,17-11.2,25.5-16.7c-2.5-3.8-6-7.2-10.1-10.2    c-14.3,10.1-28.8,20.1-43.2,30.1c-29.7,20.5-60.3,40.4-90.6,60.5l-90.8,60.3l-16.1,10.6h28.5L517.5,742z"></path>
		<path class="st6" d="M485,742l89.4-61.2c29.8-20.4,59.3-41,89.6-61.1c14.8-9.7,29.6-19.4,44.5-29.1c-4.8-2.9-10.4-5.2-16.5-6.7    c-18.5,13.1-37.1,26-55.8,39c-29.7,20.5-60.3,40.4-90.6,60.5l-90.8,60.3l-16.1,10.6h28.5L485,742z"></path>
		<path class="st6" d="M926.1,443.8c-13.8,2.1-27.5,4.3-41.2,7c-13.6,2.7-27.1,5.9-40.2,10c-13.1,4-25.8,9.1-37.6,15.6    c-11.8,6.6-22.6,14.6-32.8,23.6c-10.3,9-20.6,19-32.3,27.6c-11.6,8.7-24.5,15.7-37.8,21.1c-26.7,10.9-55.5,16.3-83.8,14.6    l-0.2-1.7c13.6-3.8,26.8-7.6,39.7-12.2c12.9-4.7,25.4-9.8,37.4-15.9c12.1-6,23.7-12.6,35-19.9c11.3-7.2,22-15.7,33.2-24.4    c11.2-8.7,23.4-16.7,36.5-22.9c13-6.2,26.7-10.6,40.5-13.9c27.7-6.2,55.6-8.8,83.5-10.3L926.1,443.8z"></path>
		<path class="st6" d="M926,444.1c-48.9,2.6-97.8,6.9-145.4,17c-23.8,4.9-47.1,11.6-69.8,20.1c-22.8,8.3-44.8,18.5-67.1,28.8    c-22.3,10.2-45,20.5-68.5,28.5c-23.4,8-47,15-71.3,20.6c-24.2,5.6-48.9,9.6-73.9,10.4c-24.9,0.7-50.2-1.7-73.6-9.9l0.4-1.6    c24.1,4.2,48.5,3.8,72.4,0.9c23.9-2.9,47.5-8.4,70.8-14.9c23.3-6.6,46.4-14.4,69.4-22.1c23-7.7,45.7-16.1,68.3-25.4    c22.6-9.2,45.5-18.8,69.1-26.6c23.5-7.9,47.7-13.7,72.1-17.8c12.2-2.1,24.4-3.8,36.7-5c12.3-1.3,24.5-2.3,36.8-3    c24.6-1.4,49.1-1.9,73.6-1.7L926,444.1z"></path>
		<path class="st6" d="M924.3,444.1c-58.9-0.4-117.8,2.5-176.1,9.8c-29.2,3.5-58.2,8.1-87,13.6c-28.8,5.6-57.3,12.4-85.8,19.7    c-28.5,7.4-57,15.1-85.7,22.2c-28.7,7-57.7,13-86.9,17.8l-11,1.7l-11.2,1.5c-7.5,0.8-15,1.6-22.5,1.9c-15,0.6-30.1,0.5-45-0.9    c-29.9-2.6-59.2-9.1-87-19.3l0.4-1.6c29,5.5,58.1,8.9,87.1,9.1c14.5,0,29-0.5,43.3-2.1c7.2-0.7,14.3-1.7,21.4-2.8l10.6-1.9    l10.8-2.2c57.6-11.6,115-23.1,172.5-36.5c28.8-6.5,57.8-12.6,87-17.4c29.2-4.8,58.6-8.6,88-11.2c58.9-5.1,118.1-6.2,177-3.1    L924.3,444.1z"></path>
	</g>
</g>
</svg>