<svg xmlns="http://www.w3.org/2000/svg" xmlns:xlink="http://www.w3.org/1999/xlink" id="Livello_1" x="0px" y="0px" viewBox="0 0 167.4 60.1" style="enable-background:new 0 0 167.4 60.1;" xml:space="preserve">
<g>
	<g>
		<path style="fill:#3C3C3B;" d="M74.1,25.6l-3.7-5.2c-0.4,0-0.8,0.1-1.3,0.1h-4.3v5.1h-1.7V9.5h6c4.1,0,6.6,2.1,6.6,5.5    c0,2.5-1.3,4.3-3.7,5.1l3.9,5.5H74.1z M74,15c0-2.6-1.7-4-4.9-4h-4.3V19H69C72.3,19,74,17.5,74,15z"></path>
		<path style="fill:#3C3C3B;" d="M91.1,24.1v1.5H79.7V9.5h11v1.5h-9.3v5.7h8.3v1.4h-8.3v6H91.1z"></path>
		<path style="fill:#3C3C3B;" d="M93.6,17.5c0-4.7,3.6-8.2,8.4-8.2c2.3,0,4.5,0.8,5.9,2.3l-1.1,1.1c-1.3-1.3-2.9-1.9-4.8-1.9    c-3.9,0-6.8,2.9-6.8,6.7c0,3.8,2.9,6.7,6.8,6.7c1.8,0,3.4-0.6,4.8-1.9l1.1,1.1c-1.4,1.6-3.5,2.4-5.9,2.4    C97.2,25.7,93.6,22.2,93.6,17.5z"></path>
		<path style="fill:#3C3C3B;" d="M116.7,20v5.6H115V20l-6.4-10.5h1.8l5.5,9l5.5-9h1.7L116.7,20z"></path>
		<path style="fill:#3C3C3B;" d="M123.7,17.5c0-4.7,3.6-8.2,8.4-8.2c2.3,0,4.5,0.8,5.9,2.3l-1.1,1.1c-1.3-1.3-2.9-1.9-4.8-1.9    c-3.9,0-6.8,2.9-6.8,6.7c0,3.8,2.9,6.7,6.8,6.7c1.8,0,3.4-0.6,4.8-1.9l1.1,1.1c-1.4,1.6-3.5,2.4-5.9,2.4    C127.3,25.7,123.7,22.2,123.7,17.5z"></path>
		<path style="fill:#3C3C3B;" d="M141.7,9.5h1.7v14.6h9v1.5h-10.7V9.5z"></path>
		<path style="fill:#3C3C3B;" d="M166.6,24.1v1.5h-11.4V9.5h11v1.5h-9.3v5.7h8.3v1.4h-8.3v6H166.6z"></path>
	</g>
	<g>
		<path style="fill:#3C3C3B;" d="M81.1,38.5c0,4.7-3.4,7.5-9,7.5h-5.3v6.5h-3.1V30.9h8.4C77.7,30.9,81.1,33.8,81.1,38.5z M78,38.5    c0-3.1-2.1-4.8-6-4.8h-5.2v9.7H72C76,43.3,78,41.6,78,38.5z"></path>
		<path style="fill:#3C3C3B;" d="M98.3,47.2H86.8l-2.4,5.4h-3.2L91,30.9h3.1l9.8,21.6h-3.2L98.3,47.2z M97.2,44.7l-4.7-10.6    l-4.7,10.6H97.2z"></path>
		<path style="fill:#3C3C3B;" d="M124.5,38.5c0,4.7-3.4,7.5-9,7.5h-5.3v6.5H107V30.9h8.4C121.1,30.9,124.5,33.8,124.5,38.5z     M121.4,38.5c0-3.1-2.1-4.8-6-4.8h-5.2v9.7h5.2C119.3,43.3,121.4,41.6,121.4,38.5z"></path>
		<path style="fill:#3C3C3B;" d="M144.6,49.9v2.7h-15.7V30.9h15.2v2.7H132v6.6h10.8v2.6H132v7H144.6z"></path>
		<path style="fill:#3C3C3B;" d="M164,52.6l-4.7-6.6c-0.4,0-0.9,0.1-1.4,0.1h-5.3v6.6h-3.1V30.9h8.4c5.6,0,9,2.8,9,7.5    c0,3.3-1.7,5.7-4.8,6.8l5.1,7.3H164z M163.9,38.5c0-3.1-2.1-4.8-6-4.8h-5.2v9.7h5.2C161.9,43.4,163.9,41.6,163.9,38.5z"></path>
	</g>
	<path style="fill:#6A9E2F;" d="M40.5,0c0.2,0.1,0.5,0.1,0.7,0.2c1.5,0.3,2.6,1.2,3.6,2.4c1.1,1.3,1.8,2.8,2.7,4.3   c0.3,0.6,0.6,1.1,1,1.7c0.1,0.2,0.2,0.2,0.4,0.1c1-0.6,1.9-1.3,2.9-1.9c0.1-0.1,0.2-0.1,0.3-0.1c-0.1,0.1-0.1,0.3-0.2,0.4   c-2.1,3.9-4.2,7.7-6.3,11.6c-0.2,0.3-0.3,0.4-0.6,0.4c-4.6,0-9.3,0-13.9,0c-0.1,0-0.1,0-0.3,0c0.2-0.1,0.2-0.1,0.3-0.2   c1.3-0.7,2.5-1.4,3.8-2.1c0.2-0.1,0.3-0.2,0.2-0.5c-1.3-3-2.7-5.9-4.5-8.7c-1.3-2-2.8-3.9-4.5-5.5c-0.6-0.6-1.2-1.1-1.9-1.6   c-0.1-0.1-0.1-0.1-0.3-0.2c0.2,0,0.3,0,0.4,0c0.5,0,1,0,1.5-0.1H40.5z"></path>
	<path style="fill:#6A9E2F;" d="M0,32.4c0.1-0.1,0.1-0.2,0.2-0.3c1.5-3.2,3.1-6.5,4.6-9.7c0.1-0.3,0-0.4-0.2-0.5   c-1.3-0.7-2.7-1.5-4-2.3c-0.1,0-0.1-0.1-0.2-0.2c0.2,0,0.3,0,0.4,0c4.4,0,8.9,0,13.3,0c0.3,0,0.4,0.1,0.6,0.3c2.1,4,4.3,8,6.4,12   c0,0.1,0.1,0.2,0.2,0.3c-0.1-0.1-0.2-0.1-0.3-0.1c-1.3-0.8-2.6-1.6-3.9-2.4c-0.3-0.2-0.4-0.2-0.5,0.2c-1.4,3-2.8,6-4.1,9   c-0.1,0.3-0.3,0.4-0.6,0.4c-1.4,0-2.8-0.1-4.2-0.1c-0.9,0-1.8-0.3-2.6-0.8c-2.2-1.1-3.6-3-4.6-5.2C0.3,33,0.1,32.7,0,32.5V32.4z"></path>
	<path style="fill:#6A9E2F;" d="M60.4,32.5c-0.1,0.2-0.1,0.4-0.2,0.6c-0.4,1.2-1,2.1-1.8,3c-1.1,1.2-2.3,2.1-3.8,2.7   c-0.6,0.2-1.2,0.4-1.8,0.3c-1.6,0-3.1,0-4.7,0c-0.3,0-0.4-0.1-0.5-0.3c-2-3.7-3.9-7.5-5.9-11.2c-0.2-0.4-0.2-0.4,0.2-0.7   c4-2.5,8-5,12-7.5c0.1-0.1,0.2-0.1,0.3-0.2c0.1,0.1,0.1,0.2,0.2,0.3c1.9,4,3.9,8,5.8,12c0.1,0.1,0.1,0.2,0.2,0.3V32.5z"></path>
	<path style="fill:#6A9E2F;" d="M38.4,35.8c0,0.3,0,0.6,0,1c0,1,0,2,0,2.9c0,0.3,0.1,0.4,0.3,0.4c4.7,0,9.3,0.1,14,0   c2.3-0.1,4.3-1,5.9-2.7c0.1-0.1,0.2-0.2,0.3-0.2c-0.2,0.3-0.3,0.7-0.5,1c-1.1,2.5-2.2,5-3.4,7.5c-0.9,1.9-1.9,3.7-3.2,5.3   c-1.5,1.8-3.3,3.1-5.5,3.7c-1.5,0.4-3,0.6-4.6,0.6c-0.9,0-1.9,0-2.8,0c-0.4,0-0.5,0-0.5,0.5c0,1.4,0,2.7,0,4.1c0,0.1,0,0.2,0,0.4   c-0.1-0.2-0.2-0.3-0.3-0.4c-2.1-3.8-4.2-7.6-6.3-11.4c-0.1-0.2-0.1-0.4,0-0.6c2.1-3.9,4.2-7.8,6.3-11.7   C38.3,35.9,38.3,35.8,38.4,35.8C38.4,35.7,38.4,35.8,38.4,35.8"></path>
	<path style="fill:#6A9E2F;" d="M0.8,36.7c0.6,0.5,1.2,0.9,1.8,1.4c1,0.7,2,1.4,3.1,1.7c0.5,0.2,1.1,0.3,1.6,0.3   c6.5,0,12.9,0,19.4,0c0.5,0,0.5,0,0.5,0.5c0,4.8,0,9.5,0,14.3c0,0.3-0.1,0.4-0.4,0.4c-3.7,0-7.4,0-11,0c-0.7,0-1.2-0.3-1.8-0.6   c-2.1-1-3.7-2.4-5.2-4.2c-2-2.3-3.4-5-4.8-7.7c-1-1.9-1.9-3.9-2.9-5.9C0.8,36.9,0.8,36.8,0.8,36.7"></path>
	<path style="fill:#6A9E2F;" d="M19.6,0.4c2.4,0,4,0.7,5.5,2c1.5,1.2,2.6,2.7,3.7,4.2c0.3,0.4,0.3,0.7,0.1,1.1   c-1.9,3.7-3.7,7.4-5.6,11.1c0,0.1-0.1,0.1-0.1,0.2c-0.1,0.3-0.2,0.2-0.4,0.1c-1-0.7-2-1.3-3.1-2c-3-1.9-5.9-3.8-8.9-5.8   c-0.4-0.2-0.4-0.2-0.1-0.6c2-3.1,4-6.2,6.1-9.4c0.1-0.2,0.4-0.3,0.6-0.4C18.2,0.6,19.1,0.4,19.6,0.4"></path>
</g>
</svg>