<svg xmlns="http://www.w3.org/2000/svg" xmlns:xlink="http://www.w3.org/1999/xlink" id="Livello_1" x="0px" y="0px" viewBox="0 0 1000 1000" style="enable-background:new 0 0 1000 1000;" xml:space="preserve">
<style type="text/css">
	.st0{display:none;}
	.st1{display:inline;}
	.st2{clip-path:url(#SVGID_2_);fill:#6E9F39;}
	.st3{clip-path:url(#SVGID_4_);fill:#444343;}
	.st4{clip-path:url(#SVGID_6_);fill:#6E9F39;}
	.st5{display:inline;fill:#6E9F39;}
	.st6{clip-path:url(#SVGID_8_);fill:#6E9F39;}
	.st7{clip-path:url(#SVGID_10_);fill:#444343;}
	.st8{clip-path:url(#SVGID_12_);fill:#444343;}
	.st9{clip-path:url(#SVGID_14_);fill:#444343;}
	.st10{clip-path:url(#SVGID_16_);fill:#444343;}
	.st11{clip-path:url(#SVGID_18_);fill:#444343;}
	.st12{clip-path:url(#SVGID_20_);fill:#444343;}
	.st13{clip-path:url(#SVGID_22_);fill:#444343;}
	.st14{clip-path:url(#SVGID_24_);fill:#444343;}
	.st15{clip-path:url(#SVGID_26_);fill:#444343;}
	.st16{clip-path:url(#SVGID_28_);fill:#444343;}
	.st17{clip-path:url(#SVGID_30_);fill:#444343;}
	.st18{clip-path:url(#SVGID_32_);fill:#444343;}
	.st19{clip-path:url(#SVGID_34_);fill:#444343;}
	.st20{clip-path:url(#SVGID_36_);fill:#444343;}
	.st21{display:inline;fill:#444343;}
	.st22{clip-path:url(#SVGID_38_);fill:#444343;}
	.st23{clip-path:url(#SVGID_40_);fill:#444343;}
	.st24{clip-path:url(#SVGID_42_);fill:#444343;}
	.st25{clip-path:url(#SVGID_44_);fill:#444343;}
	.st26{clip-path:url(#SVGID_46_);fill:#444343;}
	.st27{clip-path:url(#SVGID_48_);fill:#444343;}
	.st28{clip-path:url(#SVGID_50_);fill:#444343;}
	.st29{clip-path:url(#SVGID_52_);fill:#444343;}
	.st30{clip-path:url(#SVGID_54_);}
	.st31{fill:#6A9F2F;}
	.st32{fill:#3C3C3B;}
	.st33{clip-path:url(#SVGID_56_);}
</style>
<g class="st0">
	<g class="st1">
		<g>
			<defs>
				<rect id="SVGID_1_" x="53.2" y="205.7" width="893.7" height="588.6"></rect>
			</defs>
			<clipPath id="SVGID_2_">
				<use xlink:href="#SVGID_1_" style="overflow:visible;"></use>
			</clipPath>
			<path class="st2" d="M55.4,419.8c74.3-2.2,148.6-3.6,222.9-5.4l222.9-4.1c37.1-0.7,74.3-1.6,111.4-2.6     c37.1-0.9,74.3-0.9,111.4-0.1l55.7,1.6c18.6,0.8,37.1,1.3,55.7,2.4c37.1,1.9,74.3,4.3,111.4,8.2v2.7     c-37.1,3.9-74.3,6.3-111.4,8.2c-18.6,1.1-37.1,1.6-55.7,2.4l-55.7,1.6c-37.1,0.8-74.3,0.7-111.4-0.1c-37.1-1-74.3-1.8-111.4-2.6     l-222.9-4.1c-74.3-1.8-148.6-3.3-222.9-5.4C55.4,422.5,55.4,419.8,55.4,419.8z"></path>
		</g>
		<g>
			<defs>
				<rect id="SVGID_3_" x="53.2" y="205.7" width="893.7" height="588.6"></rect>
			</defs>
			<clipPath id="SVGID_4_">
				<use xlink:href="#SVGID_3_" style="overflow:visible;"></use>
			</clipPath>
			<path class="st3" d="M53.2,467.7l37.2-1.4l37.2-1.2l1.6-0.1l0.8,1.6c12.5,26,24.6,52.1,36.9,78.2l36.4,78.4l36,78.6     c12,26.2,23.9,52.4,35.7,78.7l-8.2-5.4c39.1-0.3,78.2-0.8,117.3-0.8l117.3-0.3l117.3,0.3c39.1,0,78.2,0.5,117.3,0.8l-8.3,5.5     c11.3-26.3,22.7-52.6,34.2-78.7l34.5-78.6l35-78.4c11.8-26.1,23.5-52.2,35.5-78.2l0.8-1.6l1.6,0.1l37.2,1.2l37.2,1.4l-37.2,1.4     l-37.2,1.2l2.4-1.6c-10.2,26.7-20.8,53.3-31.2,80l-31.7,79.8l-32.1,79.6c-10.7,26.6-21.5,53-32.4,79.5l-2.3,5.5h-6     c-39.1,0.3-78.2,0.8-117.3,0.8l-117.3,0.3L384.1,794c-39.1,0-78.2-0.6-117.3-0.8h-5.9l-2.3-5.3c-11.4-26.5-22.7-52.9-33.9-79.5     l-33.6-79.7l-33.2-79.8c-10.9-26.7-21.9-53.3-32.7-80.1l2.4,1.5l-37.2-1.2L53.2,467.7z"></path>
		</g>
		<g>
			<defs>
				<rect id="SVGID_5_" x="53.2" y="205.7" width="893.7" height="588.6"></rect>
			</defs>
			<clipPath id="SVGID_6_">
				<use xlink:href="#SVGID_5_" style="overflow:visible;"></use>
			</clipPath>
			<path class="st4" d="M448.5,318.8h-12.7v-90.5v-6.8v-3.4l0.2-3.4h-0.3c-0.5,1.7-1,2.9-1.5,4.2c-0.7,1.5-0.8,1.9-2.5,6.3     L393,318.8h-12.9l-38.5-92.4l-2.2-5.3l-1-2.7l-1-2.5h-0.3l0.2,3.1v3.2v6.1v90.5h-12.7V205.7h22l30.2,73.2l4.8,11.7l2.4,5.9     l2.4,5.9h0.3l2.4-5.9l2.4-5.9l4.7-11.7l30-73.2h22.4L448.5,318.8L448.5,318.8z"></path>
		</g>
	</g>
	<path class="st5" d="M512.6,216l25.1,68.7h-49.8L512.6,216z M503.4,205.7L462,318.8h13.6l8.7-23.9h57.1l8.8,23.9h13.4l-42.2-113.1   L503.4,205.7L503.4,205.7z"></path>
	<g class="st1">
		<g>
			<defs>
				<rect id="SVGID_7_" x="53.2" y="205.7" width="893.7" height="588.6"></rect>
			</defs>
			<clipPath id="SVGID_8_">
				<use xlink:href="#SVGID_7_" style="overflow:visible;"></use>
			</clipPath>
			<path class="st6" d="M618,263.5c25.1,0,29.2-3.1,29.2-22.2c0-14.8-1.7-20.3-7-22.7c-3.4-1.5-4.7-1.7-18.1-1.9h-34.3v46.8H618z      M575.1,205.7h47.3c14.6,0,18.7,0.5,23.7,2.7c9.3,4.1,13.7,14.2,13.7,32.2c0,17-4.2,26.5-13.7,31c-5.3,2.5-6.1,2.5-25.6,2.9     h-32.7v44.3h-12.7V205.7z"></path>
		</g>
		<g>
			<defs>
				<rect id="SVGID_9_" x="53.2" y="205.7" width="893.7" height="588.6"></rect>
			</defs>
			<clipPath id="SVGID_10_">
				<use xlink:href="#SVGID_9_" style="overflow:visible;"></use>
			</clipPath>
			<path class="st7" d="M282.4,620.5V636c8.1-5.5,16.2-11,24.4-16.4c19.5-12.8,39-25.6,58.7-38.2h-27.3     C319.7,594.5,301,607.5,282.4,620.5"></path>
		</g>
		<g>
			<defs>
				<rect id="SVGID_11_" x="53.2" y="205.7" width="893.7" height="588.6"></rect>
			</defs>
			<clipPath id="SVGID_12_">
				<use xlink:href="#SVGID_11_" style="overflow:visible;"></use>
			</clipPath>
			<path class="st8" d="M311.5,622.8c-9.6,6.6-19.4,13.2-29.1,19.7v15.7c18.8-13,37.7-25.9,56.9-38.6c19.5-12.8,39-25.6,58.7-38.2     h-27.3C351.1,595.3,331.3,609.1,311.5,622.8"></path>
		</g>
		<g>
			<defs>
				<rect id="SVGID_13_" x="53.2" y="205.7" width="893.7" height="588.6"></rect>
			</defs>
			<clipPath id="SVGID_14_">
				<use xlink:href="#SVGID_13_" style="overflow:visible;"></use>
			</clipPath>
			<path class="st9" d="M282.6,614.2c16.7-10.9,33.4-21.8,50.2-32.6C306.4,582.6,285.2,596.5,282.6,614.2"></path>
		</g>
		<g>
			<defs>
				<rect id="SVGID_15_" x="53.2" y="205.7" width="893.7" height="588.6"></rect>
			</defs>
			<clipPath id="SVGID_16_">
				<use xlink:href="#SVGID_15_" style="overflow:visible;"></use>
			</clipPath>
			<path class="st10" d="M344,622.8c-20.3,13.9-40.9,27.6-61.6,41.3v16.5c29.7-20.4,59.1-40.9,89.4-60.9     c19.5-12.8,39-25.6,58.7-38.2h-27.3C383.6,595.3,363.8,609.1,344,622.8"></path>
		</g>
		<g>
			<defs>
				<rect id="SVGID_17_" x="53.2" y="205.7" width="893.7" height="588.6"></rect>
			</defs>
			<clipPath id="SVGID_18_">
				<use xlink:href="#SVGID_17_" style="overflow:visible;"></use>
			</clipPath>
			<path class="st11" d="M444.5,680.7c29.8-20.4,59.3-41,89.6-61.1c19.5-12.8,39-25.6,58.7-38.2h-27.3     c-19.5,13.9-39.4,27.6-59.2,41.4c-29.7,20.5-60.3,40.4-90.6,60.5L325,743.6l-11.1,7.3c6.8,2.1,14.3,3.3,22.3,3.3h1.2l17.7-12.2     L444.5,680.7z"></path>
		</g>
		<g>
			<defs>
				<rect id="SVGID_19_" x="53.2" y="205.7" width="893.7" height="588.6"></rect>
			</defs>
			<clipPath id="SVGID_20_">
				<use xlink:href="#SVGID_19_" style="overflow:visible;"></use>
			</clipPath>
			<path class="st12" d="M412,680.7c29.8-20.4,59.3-41,89.6-61.1c19.5-12.8,39-25.6,58.7-38.2H533c-19.5,13.9-39.4,27.6-59.2,41.4     c-29.7,20.5-60.3,40.4-90.6,60.5l-87.8,58.3c4.4,3.4,9.6,6.3,15.6,8.4l11.6-8L412,680.7z"></path>
		</g>
		<g>
			<defs>
				<rect id="SVGID_21_" x="53.2" y="205.7" width="893.7" height="588.6"></rect>
			</defs>
			<clipPath id="SVGID_22_">
				<use xlink:href="#SVGID_21_" style="overflow:visible;"></use>
			</clipPath>
			<path class="st13" d="M376.4,622.8c-29.7,20.5-60.3,40.4-90.6,60.5l-3.5,2.3v17.2l32.2-22.1c29.8-20.4,59.3-41,89.6-61.1     c19.5-12.8,39-25.6,58.7-38.2h-27.3C416.1,595.3,396.2,609.1,376.4,622.8"></path>
		</g>
		<g>
			<defs>
				<rect id="SVGID_23_" x="53.2" y="205.7" width="893.7" height="588.6"></rect>
			</defs>
			<clipPath id="SVGID_24_">
				<use xlink:href="#SVGID_23_" style="overflow:visible;"></use>
			</clipPath>
			<path class="st14" d="M716.8,739c6.3-5.9,10.1-13.2,10.1-21.1V714l-44.6,29.6l-16.1,10.6h6.9c12.1,0,23.2-2.7,32.1-7.2l7.2-5     L716.8,739z"></path>
		</g>
		<g>
			<defs>
				<rect id="SVGID_25_" x="53.2" y="205.7" width="893.7" height="588.6"></rect>
			</defs>
			<clipPath id="SVGID_26_">
				<use xlink:href="#SVGID_25_" style="overflow:visible;"></use>
			</clipPath>
			<path class="st15" d="M350.8,683.2l-66.5,44.2c1.8,4.5,4.9,8.7,9,12.4l86.2-59.1c29.8-20.4,59.3-41,89.6-61.1     c19.5-12.8,39-25.6,58.7-38.2h-27.3c-19.5,13.9-39.4,27.6-59.2,41.4C411.7,643.3,381.1,663.2,350.8,683.2"></path>
		</g>
		<g>
			<defs>
				<rect id="SVGID_27_" x="53.2" y="205.7" width="893.7" height="588.6"></rect>
			</defs>
			<clipPath id="SVGID_28_">
				<use xlink:href="#SVGID_27_" style="overflow:visible;"></use>
			</clipPath>
			<path class="st16" d="M408.9,622.8c-29.7,20.5-60.3,40.4-90.6,60.5l-36,23.9v10.7c0,2.2,0.3,4.4,0.9,6.5l63.8-43.7     c29.8-20.4,59.3-41,89.6-61.1c19.5-12.8,39-25.6,58.7-38.2H468C448.5,595.3,428.7,609.1,408.9,622.8"></path>
		</g>
		<g>
			<defs>
				<rect id="SVGID_29_" x="53.2" y="205.7" width="893.7" height="588.6"></rect>
			</defs>
			<clipPath id="SVGID_30_">
				<use xlink:href="#SVGID_29_" style="overflow:visible;"></use>
			</clipPath>
			<path class="st17" d="M550,742l89.4-61.2c29.1-19.9,57.9-40,87.4-59.6v-3.4c0-3.8-0.9-7.5-2.5-10.9c-7.7,5.3-15.4,10.7-23.1,16     c-29.7,20.5-60.3,40.4-90.6,60.5l-90.8,60.3l-16.1,10.6h28.5L550,742z"></path>
		</g>
		<g>
			<defs>
				<rect id="SVGID_31_" x="53.2" y="205.7" width="893.7" height="588.6"></rect>
			</defs>
			<clipPath id="SVGID_32_">
				<use xlink:href="#SVGID_31_" style="overflow:visible;"></use>
			</clipPath>
			<path class="st18" d="M615,742l89.4-61.2c7.5-5.1,15-10.3,22.5-15.5v-15.9c-17,11.3-34.2,22.6-51.2,33.9l-90.8,60.3l-16.1,10.6     h28.5L615,742z"></path>
		</g>
		<g>
			<defs>
				<rect id="SVGID_33_" x="53.2" y="205.7" width="893.7" height="588.6"></rect>
			</defs>
			<clipPath id="SVGID_34_">
				<use xlink:href="#SVGID_33_" style="overflow:visible;"></use>
			</clipPath>
			<path class="st19" d="M582.5,742l89.4-61.2c18.3-12.6,36.6-25.2,55-37.7v-15.5c-27.6,18.8-55.7,37.2-83.7,55.8l-90.8,60.3     l-16.1,10.6h28.5L582.5,742z"></path>
		</g>
		<g>
			<defs>
				<rect id="SVGID_35_" x="53.2" y="205.7" width="893.7" height="588.6"></rect>
			</defs>
			<clipPath id="SVGID_36_">
				<use xlink:href="#SVGID_35_" style="overflow:visible;"></use>
			</clipPath>
			<path class="st20" d="M387.6,742l89.4-61.2c29.8-20.4,59.3-41,89.6-61.1c19.5-12.8,39-25.6,58.7-38.2H598     c-19.5,13.9-39.4,27.6-59.2,41.4c-29.7,20.5-60.3,40.4-90.6,60.5l-90.8,60.3l-16.1,10.6h28.5L387.6,742z"></path>
		</g>
	</g>
	<polygon class="st21" points="679.9,742 726.8,709.8 726.8,692.4 649.8,743.6 633.7,754.2 662.2,754.2  "></polygon>
	<g class="st1">
		<g>
			<defs>
				<rect id="SVGID_37_" x="53.2" y="205.7" width="893.7" height="588.6"></rect>
			</defs>
			<clipPath id="SVGID_38_">
				<use xlink:href="#SVGID_37_" style="overflow:visible;"></use>
			</clipPath>
			<path class="st22" d="M647.4,742l79.4-54.4v-16.7c-6.3,4.1-12.5,8.2-18.7,12.4l-90.8,60.3l-16.1,10.6h28.5L647.4,742z"></path>
		</g>
		<g>
			<defs>
				<rect id="SVGID_39_" x="53.2" y="205.7" width="893.7" height="588.6"></rect>
			</defs>
			<clipPath id="SVGID_40_">
				<use xlink:href="#SVGID_39_" style="overflow:visible;"></use>
			</clipPath>
			<path class="st23" d="M452.5,742l89.4-61.2c29.8-20.4,59.3-41,89.6-61.1c18.8-12.3,37.5-24.6,56.4-36.7c-4.8-0.9-9.8-1.5-15-1.5     H663c-19.5,13.9-39.4,27.6-59.2,41.4c-29.7,20.5-60.3,40.4-90.6,60.5l-90.8,60.3l-16.1,10.6h28.5L452.5,742z"></path>
		</g>
		<g>
			<defs>
				<rect id="SVGID_41_" x="53.2" y="205.7" width="893.7" height="588.6"></rect>
			</defs>
			<clipPath id="SVGID_42_">
				<use xlink:href="#SVGID_41_" style="overflow:visible;"></use>
			</clipPath>
			<path class="st24" d="M420.1,742l89.4-61.2c29.8-20.4,59.3-41,89.6-61.1c19.5-12.8,39-25.6,58.7-38.2h-27.3     c-19.5,13.9-39.4,27.6-59.2,41.4c-29.7,20.5-60.3,40.4-90.6,60.5l-90.8,60.3l-16.1,10.6h28.5L420.1,742z"></path>
		</g>
		<g>
			<defs>
				<rect id="SVGID_43_" x="53.2" y="205.7" width="893.7" height="588.6"></rect>
			</defs>
			<clipPath id="SVGID_44_">
				<use xlink:href="#SVGID_43_" style="overflow:visible;"></use>
			</clipPath>
			<path class="st25" d="M517.5,742l89.4-61.2c29.8-20.4,59.3-41,89.6-61.1c8.5-5.6,17-11.2,25.5-16.7c-2.5-3.8-6-7.2-10.1-10.2     c-14.3,10.1-28.8,20.1-43.2,30.1c-29.7,20.5-60.3,40.4-90.6,60.5l-90.8,60.3l-16.1,10.6h28.5L517.5,742z"></path>
		</g>
		<g>
			<defs>
				<rect id="SVGID_45_" x="53.2" y="205.7" width="893.7" height="588.6"></rect>
			</defs>
			<clipPath id="SVGID_46_">
				<use xlink:href="#SVGID_45_" style="overflow:visible;"></use>
			</clipPath>
			<path class="st26" d="M485,742l89.4-61.2c29.8-20.4,59.3-41,89.6-61.1c14.8-9.7,29.6-19.4,44.5-29.1c-4.8-2.9-10.4-5.2-16.5-6.7     c-18.5,13.1-37.1,26-55.8,39c-29.7,20.5-60.3,40.4-90.6,60.5l-90.8,60.3l-16.1,10.6h28.5L485,742z"></path>
		</g>
		<g>
			<defs>
				<rect id="SVGID_47_" x="53.2" y="205.7" width="893.7" height="588.6"></rect>
			</defs>
			<clipPath id="SVGID_48_">
				<use xlink:href="#SVGID_47_" style="overflow:visible;"></use>
			</clipPath>
			<path class="st27" d="M926.1,443.8c-13.8,2.1-27.5,4.3-41.2,7c-13.6,2.7-27.1,5.9-40.2,10c-13.1,4-25.8,9.1-37.6,15.6     c-11.8,6.6-22.6,14.6-32.8,23.6c-10.3,9-20.6,19-32.3,27.6c-11.6,8.7-24.5,15.7-37.8,21.1c-26.7,10.9-55.5,16.3-83.8,14.6     l-0.2-1.7c13.6-3.8,26.8-7.6,39.7-12.2c12.9-4.7,25.4-9.8,37.4-15.9c12.1-6,23.7-12.6,35-19.9c11.3-7.2,22-15.7,33.2-24.4     c11.2-8.7,23.4-16.7,36.5-22.9c13-6.2,26.7-10.6,40.5-13.9c27.7-6.2,55.6-8.8,83.5-10.3L926.1,443.8z"></path>
		</g>
		<g>
			<defs>
				<rect id="SVGID_49_" x="53.2" y="205.7" width="893.7" height="588.6"></rect>
			</defs>
			<clipPath id="SVGID_50_">
				<use xlink:href="#SVGID_49_" style="overflow:visible;"></use>
			</clipPath>
			<path class="st28" d="M926,444.1c-48.9,2.6-97.8,6.9-145.4,17c-23.8,4.9-47.1,11.6-69.8,20.1c-22.8,8.3-44.8,18.5-67.1,28.8     c-22.3,10.2-45,20.5-68.5,28.5c-23.4,8-47,15-71.3,20.6c-24.2,5.6-48.9,9.6-73.9,10.4c-24.9,0.7-50.2-1.7-73.6-9.9l0.4-1.6     c24.1,4.2,48.5,3.8,72.4,0.9c23.9-2.9,47.5-8.4,70.8-14.9c23.3-6.6,46.4-14.4,69.4-22.1c23-7.7,45.7-16.1,68.3-25.4     c22.6-9.2,45.5-18.8,69.1-26.6c23.5-7.9,47.7-13.7,72.1-17.8c12.2-2.1,24.4-3.8,36.7-5c12.3-1.3,24.5-2.3,36.8-3     c24.6-1.4,49.1-1.9,73.6-1.7L926,444.1z"></path>
		</g>
		<g>
			<defs>
				<rect id="SVGID_51_" x="53.2" y="205.7" width="893.7" height="588.6"></rect>
			</defs>
			<clipPath id="SVGID_52_">
				<use xlink:href="#SVGID_51_" style="overflow:visible;"></use>
			</clipPath>
			<path class="st29" d="M924.3,444.1c-58.9-0.4-117.8,2.5-176.1,9.8c-29.2,3.5-58.2,8.1-87,13.6c-28.8,5.6-57.3,12.4-85.8,19.7     c-28.5,7.4-57,15.1-85.7,22.2c-28.7,7-57.7,13-86.9,17.8l-11,1.7l-11.2,1.5c-7.5,0.8-15,1.6-22.5,1.9c-15,0.6-30.1,0.5-45-0.9     c-29.9-2.6-59.2-9.1-87-19.3l0.4-1.6c29,5.5,58.1,8.9,87.1,9.1c14.5,0,29-0.5,43.3-2.1c7.2-0.7,14.3-1.7,21.4-2.8l10.6-1.9     l10.8-2.2c57.6-11.6,115-23.1,172.5-36.5c28.8-6.5,57.8-12.6,87-17.4s58.6-8.6,88-11.2c58.9-5.1,118.1-6.2,177-3.1L924.3,444.1z"></path>
		</g>
	</g>
</g>
<g>
	<g>
		<defs>
			<rect id="SVGID_53_" x="51" y="268" width="898" height="516.8"></rect>
		</defs>
		<clipPath id="SVGID_54_">
			<use xlink:href="#SVGID_53_" style="overflow:visible;"></use>
		</clipPath>
		<g class="st30">
			<path class="st31" d="M52,445.3c74.7-2.2,149.5-3.6,224.3-5.5l224.2-4.1c37.4-0.7,74.8-1.6,112.1-2.6     c37.4-0.9,74.8-0.9,112.1-0.1l56.1,1.6c18.7,0.8,37.4,1.3,56.1,2.4c37.4,1.9,74.7,4.3,112.1,8.2v2.7     c-37.4,3.9-74.7,6.3-112.1,8.2c-18.7,1.1-37.4,1.6-56.1,2.5l-56.1,1.6c-37.4,0.8-74.7,0.7-112.1-0.1c-37.4-1-74.7-1.8-112.1-2.6     l-224.2-4.1c-74.8-1.8-149.5-3.3-224.3-5.5V445.3z"></path>
		</g>
		<g class="st30">
			<path class="st32" d="M51,486.8l37.5-1.5l37.5-1.2l1.6,0l0.8,1.6l37,71l36.6,71.2c12.2,23.7,24.1,47.6,36.2,71.4     c12.1,23.8,24.1,47.6,35.9,71.5l-8.1-5c39.3-0.3,78.7-0.9,118-0.9l118-0.4l118,0.4c39.3,0,78.7,0.6,118,0.9l-8.1,5.2     c11.3-23.9,22.9-47.7,34.4-71.5c11.6-23.8,23-47.7,34.7-71.4l35.1-71.2l35.5-71l0.8-1.6l1.6,0l37.5,1.2l37.5,1.5l-37.5,1.5     l-37.5,1.2l2.5-1.6l-31.5,72.9l-32,72.7c-10.6,24.2-21.6,48.3-32.3,72.5c-10.8,24.2-21.6,48.3-32.6,72.3l-2.3,5.1l-5.8,0     c-39.3,0.3-78.7,0.9-118,0.9l-118,0.4l-118-0.4c-39.3,0-78.7-0.6-118-0.9l-5.7,0l-2.4-5c-11.5-24.1-22.8-48.2-34.1-72.4     c-11.3-24.2-22.7-48.3-33.8-72.5l-33.5-72.7l-33-72.9l2.4,1.5l-37.5-1.2L51,486.8z"></path>
		</g>
		<g class="st30">
			<path class="st31" d="M230.1,368.2h-11.1v-88.8h-32.3V269h75.5v10.6l-32.1-0.1V368.2z"></path>
			<path class="st31" d="M338.9,271.3c8.5,3.6,12.9,10.9,14.7,23.6c0.4,4.5,0.6,6.8,0.6,19.5c0,23.2-0.1,26.6-1.8,34.2     c-1.8,8.8-6.1,14.4-13.2,17.4c-6.2,2.7-11.3,3.3-25.9,3.3c-17.4,0-22.2-0.6-28.5-3.3c-7.1-3.1-11.3-8.6-13.2-17.4     c-1.6-7.7-1.8-11-1.8-34c0-20.7,0.9-26.5,4.9-34c3.3-6,9.1-9.8,17.4-11.5c3.6-0.6,11.3-1,19.9-1     C327.2,268,333.1,268.7,338.9,271.3z M286,282.4c-3,3.4-4.3,7.9-4.9,16.2c-0.1,2.1-0.1,2.1-0.1,19.9c0,20.5,0,20.5,0.9,26.2     c1,6.8,3.7,11,8.3,12.8c4,1.6,8.2,2.1,21.4,2.1c18.1,0,23-0.9,26.5-4.8c3-3.4,4.3-7.9,4.9-16.2c0.1-2.1,0.1-2.1,0.1-20.1     c0-20.4,0-20.4-0.9-26c-1-6.8-3.7-11-8.3-12.8c-4-1.6-8.3-2.1-21.4-2.1C294.3,277.7,289.4,278.5,286,282.4z"></path>
			<path class="st31" d="M370.5,269H412c12.8,0,16.4,0.5,20.8,2.4c8.2,3.6,12,12.5,12,28.2c0,14.9-3.7,23.2-12,27.2     c-4.6,2.2-5.4,2.2-22.5,2.5h-28.7v38.8h-11.2V269z M408.1,319.7c22,0,25.6-2.7,25.6-19.5c0-12.9-1.5-17.8-6.1-19.9     c-3-1.3-4.2-1.5-15.9-1.6h-30v41H408.1z"></path>
			<path class="st31" d="M553.2,295.9c0-7.3-0.4-10.1-2.1-12.8c-2.7-4.3-7.3-5.5-20.7-5.5c-15.5,0-20.7,0.9-23.8,4.5     c-2.4,2.7-3.6,6.8-3.6,13.1c0,8.9,2.1,13.4,7.1,15.3c3.3,1.2,4,1.3,20.5,2.1c18.3,0.9,23.8,1.9,28.2,5.5c5.2,4,7.1,10.1,7.1,22     c0,13.5-2.4,20.7-8.3,24.5c-5.7,3.6-12.6,4.6-32.9,4.6c-13.8,0-18.4-0.7-24.2-4c-3.9-2.2-7-7-8-12c-0.9-4.3-1.2-7.1-1.3-15.6     h11.2c0.1,10.7,0.3,12.6,2.2,16.2c2.7,5.1,6,5.8,23.8,5.8c23.9,0,26.5-2.1,26.5-20.5c0-8.3-1.6-12.2-6.1-14     c-2.8-1.2-2.8-1.2-21-2.2c-18.4-0.9-19.8-1.2-24.7-3.4c-8-4-11.3-10.7-11.3-23.2c0-11.6,2.4-18.6,7.4-22.5     c5.7-4.5,12.8-5.8,29.7-5.8c18.7,0,26.3,1.9,30.9,8.2c3.1,4.2,4.3,9.2,4.3,18.1v1.6H553.2z"></path>
		</g>
		<g class="st30">
			<g>
				<path class="st31" d="M592.1,312.3h50.3v9.4h-50.3v36.9h52.5v9.7h-63.6V269h63.6v9.7h-52.5V312.3z"></path>
			</g>
			<g>
				<path class="st31" d="M669.8,347.2l-7.6,21h-11.9l36.3-99.2h15.8l37,99.2h-11.7l-7.7-21H669.8z M694.7,278.1L673,338.3h43.7      L694.7,278.1z"></path>
			</g>
		</g>
		<g class="st30">
			<path class="st31" d="M764.6,357.8h51v10.4h-62.1V269h11.1V357.8z"></path>
		</g>
		<g class="st30">
			<path class="st32" d="M276.9,540.8v23.7c8.2-8.4,16.3-16.7,24.6-25c19.6-19.5,39.2-39,59.1-58.3H333     C314.5,501.3,295.7,521,276.9,540.8"></path>
		</g>
		<g class="st30">
			<path class="st32" d="M306.2,544.4c-9.7,10.1-19.5,20.1-29.3,30.1v23.9c18.9-19.8,37.9-39.5,57.3-58.8     c19.6-19.5,39.2-39,59.1-58.3h-27.5C346,502.5,326.1,523.4,306.2,544.4"></path>
		</g>
		<g class="st30">
			<path class="st32" d="M277.1,531.2c16.8-16.7,33.6-33.3,50.5-49.8C301.1,483.1,279.7,504.3,277.1,531.2"></path>
		</g>
		<g class="st30">
			<path class="st32" d="M338.9,544.4c-20.4,21.3-41.2,42.1-62,63v25.1c29.9-31.1,59.5-62.4,90-92.9c19.6-19.5,39.2-39,59.1-58.3     h-27.5C378.7,502.5,358.8,523.4,338.9,544.4"></path>
		</g>
		<g class="st30">
			<path class="st32" d="M440,632.7c30-31.2,59.7-62.6,90.2-93.2c19.6-19.5,39.2-39,59.1-58.3h-27.5c-19.7,21.2-39.6,42.1-59.5,63.1     c-29.9,31.2-60.7,61.6-91.2,92.2l-91.4,92l-11.2,11.2c6.8,3.2,14.4,5,22.4,5h1.2l17.8-18.6L440,632.7z"></path>
		</g>
		<g class="st30">
			<path class="st32" d="M407.4,632.7c30-31.2,59.7-62.6,90.2-93.2c19.6-19.5,39.2-39,59.1-58.3h-27.5     c-19.7,21.2-39.6,42.1-59.5,63.1c-29.9,31.2-60.7,61.6-91.2,92.2l-88.4,89c4.4,5.2,9.7,9.5,15.6,12.8l11.7-12.2L407.4,632.7z"></path>
		</g>
		<g class="st30">
			<path class="st32" d="M371.5,544.4c-29.9,31.2-60.7,61.6-91.2,92.2l-3.5,3.6v26.3l32.4-33.7c30-31.2,59.7-62.6,90.2-93.2     c19.6-19.5,39.2-39,59.1-58.3h-27.5C411.4,502.5,391.5,523.4,371.5,544.4"></path>
		</g>
		<g class="st30">
			<path class="st32" d="M714,721.5c6.3-9.1,10.1-20.1,10.1-32.1v-6l-44.9,45.1l-16.2,16.2h6.9c12.1,0,23.3-4.1,32.3-11l7.3-7.6     L714,721.5z"></path>
		</g>
		<g class="st30">
			<path class="st32" d="M345.8,636.6l-66.9,67.4c1.8,6.9,5,13.3,9.1,18.9l86.8-90.1c30-31.2,59.7-62.6,90.2-93.2     c19.6-19.5,39.2-39,59.1-58.3h-27.5c-19.7,21.2-39.6,42.1-59.5,63.1C407,575.6,376.2,605.9,345.8,636.6"></path>
		</g>
		<g class="st30">
			<path class="st32" d="M404.2,544.4c-29.9,31.2-60.7,61.6-91.2,92.2L276.9,673v16.4c0,3.4,0.3,6.7,0.9,10l64.2-66.7     c30-31.2,59.7-62.6,90.2-93.2c19.6-19.5,39.2-39,59.1-58.3h-27.5C444.1,502.5,424.2,523.4,404.2,544.4"></path>
		</g>
		<g class="st30">
			<path class="st32" d="M546.2,726.1l90-93.4c29.2-30.4,58.2-61,88-90.9v-5.2c0-5.8-0.9-11.4-2.5-16.7     c-7.7,8.2-15.5,16.3-23.2,24.4c-29.9,31.2-60.7,61.6-91.1,92.2l-91.4,92l-16.2,16.2h28.7L546.2,726.1z"></path>
		</g>
		<g class="st30">
			<path class="st32" d="M611.5,726.1l90-93.4c7.6-7.8,15.1-15.7,22.6-23.6v-24.2c-17.1,17.3-34.4,34.4-51.5,51.7l-91.4,92     L565,744.7h28.7L611.5,726.1z"></path>
		</g>
		<g class="st30">
			<path class="st32" d="M578.8,726.1l90-93.4c18.4-19.2,36.8-38.4,55.3-57.5v-23.6c-27.7,28.7-56.1,56.8-84.2,85l-91.4,92     l-16.2,16.2H561L578.8,726.1z"></path>
		</g>
		<g class="st30">
			<path class="st32" d="M382.8,726.1l90-93.4c30-31.2,59.7-62.6,90.2-93.2c19.6-19.5,39.2-39,59.1-58.3h-27.5     c-19.7,21.2-39.6,42.1-59.5,63.1c-29.9,31.2-60.7,61.6-91.1,92.2l-91.4,92l-16.2,16.2h28.7L382.8,726.1z"></path>
		</g>
	</g>
	<g>
		<polygon class="st32" points="676.9,726.1 724.1,677.1 724.1,650.5 646.6,728.5 630.4,744.7 659.1,744.7   "></polygon>
	</g>
	<g>
		<defs>
			<rect id="SVGID_55_" x="51" y="268" width="898" height="516.8"></rect>
		</defs>
		<clipPath id="SVGID_56_">
			<use xlink:href="#SVGID_55_" style="overflow:visible;"></use>
		</clipPath>
		<g class="st33">
			<path class="st32" d="M644.2,726.1l79.9-83v-25.5c-6.3,6.3-12.6,12.6-18.8,18.9l-91.4,92l-16.2,16.2h28.7L644.2,726.1z"></path>
		</g>
		<g class="st33">
			<path class="st32" d="M448.1,726.1l90-93.4c30-31.2,59.7-62.6,90.2-93.2c18.9-18.7,37.7-37.5,56.8-56c-4.8-1.4-9.9-2.2-15.1-2.2     h-10.1c-19.7,21.2-39.6,42.1-59.5,63.1c-29.9,31.2-60.7,61.6-91.1,92.2l-91.4,92l-16.2,16.2h28.7L448.1,726.1z"></path>
		</g>
		<g class="st33">
			<path class="st32" d="M415.4,726.1l90-93.4c30-31.2,59.7-62.6,90.2-93.2c19.6-19.5,39.2-39,59.1-58.3h-27.5     c-19.7,21.2-39.6,42.1-59.5,63.1c-29.9,31.2-60.7,61.6-91.1,92.2l-91.4,92l-16.2,16.2h28.7L415.4,726.1z"></path>
		</g>
		<g class="st33">
			<path class="st32" d="M513.5,726.1l90-93.4c30-31.2,59.7-62.6,90.2-93.2c8.6-8.5,17.1-17,25.7-25.5c-2.5-5.8-6-11-10.2-15.5     c-14.4,15.3-29,30.6-43.5,45.9c-29.9,31.2-60.7,61.6-91.1,92.2l-91.4,92L467,744.7h28.7L513.5,726.1z"></path>
		</g>
		<g class="st33">
			<path class="st32" d="M480.8,726.1l90-93.4c30-31.2,59.7-62.6,90.2-93.2c14.9-14.8,29.8-29.6,44.8-44.4     c-4.9-4.4-10.5-7.9-16.6-10.3c-18.6,20-37.4,39.7-56.1,59.5c-29.9,31.2-60.7,61.6-91.1,92.2l-91.4,92l-16.2,16.2H463L480.8,726.1     z"></path>
		</g>
	</g>
</g>
</svg>