<svg xmlns="http://www.w3.org/2000/svg" xmlns:xlink="http://www.w3.org/1999/xlink" id="Livello_1" x="0px" y="0px" viewBox="0 0 1000 1000" style="enable-background:new 0 0 1000 1000;" xml:space="preserve">
<style type="text/css">
	.st0{display:none;}
	.st1{display:inline;}
	.st2{clip-path:url(#SVGID_2_);fill:#6E9F39;}
	.st3{clip-path:url(#SVGID_2_);fill:#444343;}
	.st4{display:inline;fill:#6E9F39;}
	.st5{clip-path:url(#SVGID_4_);fill:#6E9F39;}
	.st6{clip-path:url(#SVGID_4_);fill:#444343;}
	.st7{display:inline;fill:#444343;}
	.st8{clip-path:url(#SVGID_6_);fill:#444343;}
	.st9{clip-path:url(#SVGID_8_);fill:#6E9F39;}
	.st10{clip-path:url(#SVGID_10_);fill:#6E9F39;}
	.st11{clip-path:url(#SVGID_12_);fill:#444343;}
	.st12{clip-path:url(#SVGID_14_);fill:#444343;}
	.st13{clip-path:url(#SVGID_14_);fill:#6E9F39;}
	.st14{clip-path:url(#SVGID_16_);fill:#444343;}
	.st15{clip-path:url(#SVGID_18_);fill:#444343;}
	.st16{clip-path:url(#SVGID_18_);fill:#6E9F39;}
	.st17{clip-path:url(#SVGID_20_);fill:#6E9F39;}
	.st18{clip-path:url(#SVGID_22_);fill:#6E9F39;}
	.st19{clip-path:url(#SVGID_24_);fill:#6E9F39;}
	.st20{clip-path:url(#SVGID_26_);fill:#444343;}
	.st21{fill:#444343;}
	.st22{clip-path:url(#SVGID_28_);fill:#444343;}
	.st23{clip-path:url(#SVGID_28_);fill:#6E9F39;}
	.st24{fill:#6E9F39;}
	.st25{clip-path:url(#SVGID_30_);fill:#6E9F39;}
</style>
<g class="st0">
	<g class="st1">
		<defs>
			<rect id="SVGID_1_" x="53.2" y="205.7" width="893.7" height="588.6"></rect>
		</defs>
		<clipPath id="SVGID_2_">
			<use xlink:href="#SVGID_1_" style="overflow:visible;"></use>
		</clipPath>
		<path class="st2" d="M55.4,419.8c74.3-2.2,148.6-3.6,222.9-5.4l222.9-4.1c37.1-0.7,74.3-1.6,111.4-2.6    c37.1-0.9,74.3-0.9,111.4-0.1l55.7,1.6c18.6,0.8,37.1,1.3,55.7,2.4c37.1,1.9,74.3,4.3,111.4,8.2v2.7c-37.1,3.9-74.3,6.3-111.4,8.2    c-18.6,1.1-37.1,1.6-55.7,2.4l-55.7,1.6c-37.1,0.8-74.3,0.7-111.4-0.1c-37.1-1-74.3-1.8-111.4-2.6l-222.9-4.1    c-74.3-1.8-148.6-3.3-222.9-5.4V419.8z"></path>
		<path class="st3" d="M53.2,467.7l37.2-1.4l37.2-1.2l1.6-0.1l0.8,1.6c12.5,26,24.6,52.1,36.9,78.2l36.4,78.4l36,78.6    c12,26.2,23.9,52.4,35.7,78.7l-8.2-5.4c39.1-0.3,78.2-0.8,117.3-0.8l117.3-0.3l117.3,0.3c39.1,0,78.2,0.5,117.3,0.8l-8.3,5.5    c11.3-26.3,22.7-52.6,34.2-78.7l34.5-78.6l35-78.4c11.8-26.1,23.5-52.2,35.5-78.2l0.8-1.6l1.6,0.1l37.2,1.2l37.2,1.4l-37.2,1.4    l-37.2,1.2l2.4-1.6c-10.2,26.7-20.8,53.3-31.2,80l-31.7,79.8l-32.1,79.6c-10.7,26.6-21.5,53-32.4,79.5l-2.3,5.5l-6,0    c-39.1,0.3-78.2,0.8-117.3,0.8l-117.3,0.3L384.1,794c-39.1,0-78.2-0.6-117.3-0.8l-5.9,0l-2.3-5.3c-11.4-26.5-22.7-52.9-33.9-79.5    l-33.6-79.7l-33.2-79.8c-10.9-26.7-21.9-53.3-32.7-80.1l2.4,1.5l-37.2-1.2L53.2,467.7z"></path>
		<path class="st2" d="M448.5,318.8h-12.7v-90.5v-6.8v-3.4l0.2-3.4h-0.3c-0.5,1.7-1,2.9-1.5,4.2c-0.7,1.5-0.8,1.9-2.5,6.3L393,318.8    h-12.9l-38.5-92.4l-2.2-5.3l-1-2.7l-1-2.5h-0.3l0.2,3.1v3.2v6.1v90.5h-12.7V205.7h22l30.2,73.2l4.8,11.7l2.4,5.9l2.4,5.9h0.3    l2.4-5.9l2.4-5.9l4.7-11.7l30-73.2h22.4V318.8z"></path>
	</g>
	<path class="st4" d="M512.6,216l25.1,68.7h-49.8L512.6,216z M503.4,205.7L462,318.8h13.6l8.7-23.9h57.1l8.8,23.9h13.4l-42.2-113.1   H503.4z"></path>
	<g class="st1">
		<defs>
			<rect id="SVGID_3_" x="53.2" y="205.7" width="893.7" height="588.6"></rect>
		</defs>
		<clipPath id="SVGID_4_">
			<use xlink:href="#SVGID_3_" style="overflow:visible;"></use>
		</clipPath>
		<path class="st5" d="M618,263.5c25.1,0,29.2-3.1,29.2-22.2c0-14.8-1.7-20.3-7-22.7c-3.4-1.5-4.7-1.7-18.1-1.9h-34.3v46.8H618z     M575.1,205.7h47.3c14.6,0,18.7,0.5,23.7,2.7c9.3,4.1,13.7,14.2,13.7,32.2c0,17-4.2,26.5-13.7,31c-5.3,2.5-6.1,2.5-25.6,2.9h-32.7    v44.3h-12.7V205.7z"></path>
		<path class="st6" d="M282.4,620.5V636c8.1-5.5,16.2-11,24.4-16.4c19.5-12.8,39-25.6,58.7-38.2h-27.3    C319.7,594.5,301,607.5,282.4,620.5"></path>
		<path class="st6" d="M311.5,622.8c-9.6,6.6-19.4,13.2-29.1,19.7v15.7c18.8-13,37.7-25.9,56.9-38.6c19.5-12.8,39-25.6,58.7-38.2    h-27.3C351.1,595.3,331.3,609.1,311.5,622.8"></path>
		<path class="st6" d="M282.6,614.2c16.7-10.9,33.4-21.8,50.2-32.6C306.4,582.6,285.2,596.5,282.6,614.2"></path>
		<path class="st6" d="M344,622.8c-20.3,13.9-40.9,27.6-61.6,41.3v16.5c29.7-20.4,59.1-40.9,89.4-60.9c19.5-12.8,39-25.6,58.7-38.2    h-27.3C383.6,595.3,363.8,609.1,344,622.8"></path>
		<path class="st6" d="M444.5,680.7c29.8-20.4,59.3-41,89.6-61.1c19.5-12.8,39-25.6,58.7-38.2h-27.3c-19.5,13.9-39.4,27.6-59.2,41.4    c-29.7,20.5-60.3,40.4-90.6,60.5L325,743.6l-11.1,7.3c6.8,2.1,14.3,3.3,22.3,3.3h1.2l17.7-12.2L444.5,680.7z"></path>
		<path class="st6" d="M412,680.7c29.8-20.4,59.3-41,89.6-61.1c19.5-12.8,39-25.6,58.7-38.2H533c-19.5,13.9-39.4,27.6-59.2,41.4    c-29.7,20.5-60.3,40.4-90.6,60.5l-87.8,58.3c4.4,3.4,9.6,6.3,15.6,8.4l11.6-8L412,680.7z"></path>
		<path class="st6" d="M376.4,622.8c-29.7,20.5-60.3,40.4-90.6,60.5l-3.5,2.3v17.2l32.2-22.1c29.8-20.4,59.3-41,89.6-61.1    c19.5-12.8,39-25.6,58.7-38.2h-27.3C416.1,595.3,396.2,609.1,376.4,622.8"></path>
		<path class="st6" d="M716.8,739c6.3-5.9,10.1-13.2,10.1-21.1V714l-44.6,29.6l-16.1,10.6h6.9c12.1,0,23.2-2.7,32.1-7.2l7.2-5    L716.8,739z"></path>
		<path class="st6" d="M350.8,683.2l-66.5,44.2c1.8,4.5,4.9,8.7,9,12.4l86.2-59.1c29.8-20.4,59.3-41,89.6-61.1    c19.5-12.8,39-25.6,58.7-38.2h-27.3c-19.5,13.9-39.4,27.6-59.2,41.4C411.7,643.3,381.1,663.2,350.8,683.2"></path>
		<path class="st6" d="M408.9,622.8c-29.7,20.5-60.3,40.4-90.6,60.5l-36,23.9v10.7c0,2.2,0.3,4.4,0.9,6.5l63.8-43.7    c29.8-20.4,59.3-41,89.6-61.1c19.5-12.8,39-25.6,58.7-38.2h-27.3C448.5,595.3,428.7,609.1,408.9,622.8"></path>
		<path class="st6" d="M550,742l89.4-61.2c29.1-19.9,57.9-40,87.4-59.6v-3.4c0-3.8-0.9-7.5-2.5-10.9c-7.7,5.3-15.4,10.7-23.1,16    c-29.7,20.5-60.3,40.4-90.6,60.5l-90.8,60.3l-16.1,10.6h28.5L550,742z"></path>
		<path class="st6" d="M615,742l89.4-61.2c7.5-5.1,15-10.3,22.5-15.5v-15.9c-17,11.3-34.2,22.6-51.2,33.9l-90.8,60.3l-16.1,10.6    h28.5L615,742z"></path>
		<path class="st6" d="M582.5,742l89.4-61.2c18.3-12.6,36.6-25.2,55-37.7v-15.5c-27.6,18.8-55.7,37.2-83.7,55.8l-90.8,60.3    l-16.1,10.6h28.5L582.5,742z"></path>
		<path class="st6" d="M387.6,742l89.4-61.2c29.8-20.4,59.3-41,89.6-61.1c19.5-12.8,39-25.6,58.7-38.2H598    c-19.5,13.9-39.4,27.6-59.2,41.4c-29.7,20.5-60.3,40.4-90.6,60.5l-90.8,60.3l-16.1,10.6h28.5L387.6,742z"></path>
	</g>
	<polygon class="st7" points="679.9,742 726.8,709.8 726.8,692.4 649.8,743.6 633.7,754.2 662.2,754.2  "></polygon>
	<g class="st1">
		<defs>
			<rect id="SVGID_5_" x="53.2" y="205.7" width="893.7" height="588.6"></rect>
		</defs>
		<clipPath id="SVGID_6_">
			<use xlink:href="#SVGID_5_" style="overflow:visible;"></use>
		</clipPath>
		<path class="st8" d="M647.4,742l79.4-54.4v-16.7c-6.3,4.1-12.5,8.2-18.7,12.4l-90.8,60.3l-16.1,10.6h28.5L647.4,742z"></path>
		<path class="st8" d="M452.5,742l89.4-61.2c29.8-20.4,59.3-41,89.6-61.1c18.8-12.3,37.5-24.6,56.4-36.7c-4.8-0.9-9.8-1.5-15-1.5    H663c-19.5,13.9-39.4,27.6-59.2,41.4c-29.7,20.5-60.3,40.4-90.6,60.5l-90.8,60.3l-16.1,10.6h28.5L452.5,742z"></path>
		<path class="st8" d="M420.1,742l89.4-61.2c29.8-20.4,59.3-41,89.6-61.1c19.5-12.8,39-25.6,58.7-38.2h-27.3    c-19.5,13.9-39.4,27.6-59.2,41.4c-29.7,20.5-60.3,40.4-90.6,60.5l-90.8,60.3l-16.1,10.6h28.5L420.1,742z"></path>
		<path class="st8" d="M517.5,742l89.4-61.2c29.8-20.4,59.3-41,89.6-61.1c8.5-5.6,17-11.2,25.5-16.7c-2.5-3.8-6-7.2-10.1-10.2    c-14.3,10.1-28.8,20.1-43.2,30.1c-29.7,20.5-60.3,40.4-90.6,60.5l-90.8,60.3l-16.1,10.6h28.5L517.5,742z"></path>
		<path class="st8" d="M485,742l89.4-61.2c29.8-20.4,59.3-41,89.6-61.1c14.8-9.7,29.6-19.4,44.5-29.1c-4.8-2.9-10.4-5.2-16.5-6.7    c-18.5,13.1-37.1,26-55.8,39c-29.7,20.5-60.3,40.4-90.6,60.5l-90.8,60.3l-16.1,10.6h28.5L485,742z"></path>
		<path class="st8" d="M926.1,443.8c-13.8,2.1-27.5,4.3-41.2,7c-13.6,2.7-27.1,5.9-40.2,10c-13.1,4-25.8,9.1-37.6,15.6    c-11.8,6.6-22.6,14.6-32.8,23.6c-10.3,9-20.6,19-32.3,27.6c-11.6,8.7-24.5,15.7-37.8,21.1c-26.7,10.9-55.5,16.3-83.8,14.6    l-0.2-1.7c13.6-3.8,26.8-7.6,39.7-12.2c12.9-4.7,25.4-9.8,37.4-15.9c12.1-6,23.7-12.6,35-19.9c11.3-7.2,22-15.7,33.2-24.4    c11.2-8.7,23.4-16.7,36.5-22.9c13-6.2,26.7-10.6,40.5-13.9c27.7-6.2,55.6-8.8,83.5-10.3L926.1,443.8z"></path>
		<path class="st8" d="M926,444.1c-48.9,2.6-97.8,6.9-145.4,17c-23.8,4.9-47.1,11.6-69.8,20.1c-22.8,8.3-44.8,18.5-67.1,28.8    c-22.3,10.2-45,20.5-68.5,28.5c-23.4,8-47,15-71.3,20.6c-24.2,5.6-48.9,9.6-73.9,10.4c-24.9,0.7-50.2-1.7-73.6-9.9l0.4-1.6    c24.1,4.2,48.5,3.8,72.4,0.9c23.9-2.9,47.5-8.4,70.8-14.9c23.3-6.6,46.4-14.4,69.4-22.1c23-7.7,45.7-16.1,68.3-25.4    c22.6-9.2,45.5-18.8,69.1-26.6c23.5-7.9,47.7-13.7,72.1-17.8c12.2-2.1,24.4-3.8,36.7-5c12.3-1.3,24.5-2.3,36.8-3    c24.6-1.4,49.1-1.9,73.6-1.7L926,444.1z"></path>
		<path class="st8" d="M924.3,444.1c-58.9-0.4-117.8,2.5-176.1,9.8c-29.2,3.5-58.2,8.1-87,13.6c-28.8,5.6-57.3,12.4-85.8,19.7    c-28.5,7.4-57,15.1-85.7,22.2c-28.7,7-57.7,13-86.9,17.8l-11,1.7l-11.2,1.5c-7.5,0.8-15,1.6-22.5,1.9c-15,0.6-30.1,0.5-45-0.9    c-29.9-2.6-59.2-9.1-87-19.3l0.4-1.6c29,5.5,58.1,8.9,87.1,9.1c14.5,0,29-0.5,43.3-2.1c7.2-0.7,14.3-1.7,21.4-2.8l10.6-1.9    l10.8-2.2c57.6-11.6,115-23.1,172.5-36.5c28.8-6.5,57.8-12.6,87-17.4c29.2-4.8,58.6-8.6,88-11.2c58.9-5.1,118.1-6.2,177-3.1    L924.3,444.1z"></path>
	</g>
</g>
<g class="st0">
	<g class="st1">
		<defs>
			<rect id="SVGID_7_" x="115.4" y="129.2" width="769.1" height="741.6"></rect>
		</defs>
		<clipPath id="SVGID_8_">
			<use xlink:href="#SVGID_7_" style="overflow:visible;"></use>
		</clipPath>
		<path class="st9" d="M217.4,169.2c0-10.4-0.6-14.5-3-18.3c-3.8-6.2-10.4-7.9-29.6-7.9c-22.1,0-29.6,1.3-34,6.4    c-3.4,3.8-5.1,9.8-5.1,18.7c0,12.8,3,19.1,10.2,21.9c4.7,1.7,5.8,1.9,29.4,3c26.2,1.3,34,2.8,40.4,7.9    c7.4,5.7,10.2,14.5,10.2,31.5c0,19.4-3.4,29.6-11.9,35.1c-8.1,5.1-18.1,6.6-47,6.6c-19.8,0-26.4-1.1-34.7-5.7    c-5.5-3.2-10-10-11.5-17.2c-1.3-6.2-1.7-10.2-1.9-22.3h16c0.2,15.3,0.4,18.1,3.2,23.2c3.8,7.2,8.5,8.3,34,8.3    c34.2,0,37.9-3,37.9-29.4c0-11.9-2.3-17.4-8.7-20c-4-1.7-4-1.7-30-3.2c-26.4-1.3-28.3-1.7-35.3-4.9c-11.5-5.7-16.2-15.3-16.2-33.2    c0-16.6,3.4-26.6,10.6-32.1c8.1-6.4,18.3-8.3,42.6-8.3c26.8,0,37.7,2.8,44.2,11.7c4.5,6,6.2,13.2,6.2,26v2.3H217.4z"></path>
	</g>
	<polygon class="st4" points="355.9,130.7 355.9,193.2 273,193.2 273,130.7 257,130.7 257,272.6 273,272.6 273,206.6 355.9,206.6    355.9,272.6 371.9,272.6 371.9,130.7  "></polygon>
	<g class="st1">
		<defs>
			<rect id="SVGID_9_" x="115.4" y="129.2" width="769.1" height="741.6"></rect>
		</defs>
		<clipPath id="SVGID_10_">
			<use xlink:href="#SVGID_9_" style="overflow:visible;"></use>
		</clipPath>
		<path class="st10" d="M461,201.8c23.4,0,30.9-6.2,30.9-25.3c0-14.7-0.9-20.8-3.8-24.9c-3.2-4.7-10.2-7-21.5-7h-51.7v57.2H461z     M398.9,130.7h67.4c30.4,0,41.5,10.9,41.5,40.9c0,25.7-5.5,34.2-24.5,37.4v0.2c14.7,0.9,22.8,10.6,22.5,27.4v35.9H490v-32.3    c0.4-18.1-7.7-25.3-26.8-24.7h-48.3v57h-16V130.7z"></path>
	</g>
	<rect x="530.4" y="130.7" class="st4" width="16" height="141.9"></rect>
	<polygon class="st4" points="678.2,130.7 678.2,238.3 678.2,249 678.2,254.3 678.5,259.6 678,259.6 671.4,248.6 664.6,237.5    651,215.4 599.3,130.7 573.1,130.7 573.1,272.6 589.1,272.6 589.1,165.6 589.1,154.9 589.1,149.6 588.9,144.3 589.3,144.3    594,152.2 598.9,160.1 608.5,176 668,272.6 694.2,272.6 694.2,130.7  "></polygon>
	<polygon class="st4" points="809.3,130.7 751.2,192.8 737.2,192.8 737.2,130.7 721.2,130.7 721.2,272.6 737.2,272.6 737.2,207.1    751.2,207.1 816.1,272.6 837.8,272.6 765.2,199.6 830.1,130.7  "></polygon>
	<g class="st1">
		<defs>
			<rect id="SVGID_11_" x="115.4" y="129.2" width="769.1" height="741.6"></rect>
		</defs>
		<clipPath id="SVGID_12_">
			<use xlink:href="#SVGID_11_" style="overflow:visible;"></use>
		</clipPath>
		<path class="st11" d="M160.3,509.8v37.7c12.3-13.3,24.6-26.6,37-39.7c29.5-31,59.1-62,88.9-92.6h-41.4    C216.9,446.9,188.6,478.3,160.3,509.8"></path>
		<path class="st11" d="M204.5,515.4c-14.6,16.1-29.3,32-44.1,47.8v38c28.5-31.4,57.1-62.8,86.2-93.5c29.5-31,59.1-62,88.9-92.6    h-41.4C264.5,448.8,234.5,482.1,204.5,515.4"></path>
		<path class="st11" d="M160.7,494.5c25.3-26.5,50.5-53,76.1-79.2C196.8,418,164.6,451.7,160.7,494.5"></path>
		<path class="st11" d="M253.7,515.4c-30.7,33.8-62,67-93.4,100.2v39.9c45-49.4,89.6-99.2,135.5-147.7c29.5-31,59.1-62,88.9-92.6    h-41.4C313.7,448.8,283.7,482.1,253.7,515.4"></path>
		<path class="st11" d="M406.1,655.9c45.1-49.5,89.9-99.5,135.8-148.1c29.5-31,59.1-62,88.9-92.6h-41.4    c-29.6,33.7-59.6,67-89.6,100.3c-45,49.6-91.4,97.9-137.3,146.6L224.9,808.2L208.1,826c10.3,5.1,21.7,8,33.8,8h1.8l26.9-29.6    L406.1,655.9z"></path>
		<path class="st11" d="M356.8,655.9c45.1-49.5,89.9-99.5,135.8-148.1c29.5-31,59.1-62,88.9-92.6h-41.4    c-29.6,33.7-59.6,67-89.6,100.3C405.5,565,359.2,613.3,313.3,662L180.2,803.4c6.6,8.3,14.6,15.2,23.6,20.3l17.6-19.4L356.8,655.9z    "></path>
		<path class="st11" d="M302.9,515.4C257.9,565,211.5,613.3,165.7,662l-5.3,5.7v41.8l48.8-53.5c45.1-49.5,89.9-99.5,135.8-148.1    c29.5-31,59.1-62,88.9-92.6h-41.4C362.9,448.8,332.9,482.1,302.9,515.4"></path>
		<path class="st11" d="M818.6,797.1c9.6-14.4,15.3-32,15.3-51.1v-9.6l-67.6,71.8L741.9,834h10.4c18.3,0,35.1-6.6,48.7-17.5l11-12.1    L818.6,797.1z"></path>
		<path class="st11" d="M264.1,662L163.3,769.1c2.8,11,7.5,21.1,13.7,30l130.7-143.2c45.1-49.5,89.9-99.5,135.8-148.1    c29.5-31,59.1-62,88.9-92.6H491c-29.6,33.7-59.6,67-89.6,100.3C356.3,565,310,613.3,264.1,662"></path>
		<path class="st11" d="M352.1,515.4C307.1,565,260.8,613.3,214.9,662l-54.5,57.9V746c0,5.4,0.5,10.7,1.4,15.8l96.7-106    c45.1-49.5,89.9-99.5,135.9-148.1c29.5-31,59.1-62,88.9-92.6h-41.4C412.1,448.8,382.1,482.1,352.1,515.4"></path>
		<path class="st11" d="M565.9,804.4l135.5-148.5c44-48.3,87.7-97.1,132.5-144.6v-8.2c0-9.3-1.3-18.2-3.8-26.5    c-11.6,13-23.3,25.9-35,38.8C750,565,703.7,613.3,657.8,662L520.2,808.2L495.8,834H539L565.9,804.4z"></path>
		<path class="st11" d="M664.3,804.4l135.5-148.5c11.4-12.5,22.7-25,34.1-37.5v-38.6c-25.8,27.5-51.8,54.8-77.6,82.2L618.7,808.2    L594.3,834h43.2L664.3,804.4z"></path>
		<path class="st11" d="M615.1,804.4l135.5-148.5c27.8-30.5,55.4-61.1,83.3-91.5v-37.6C792.1,572.4,749.4,617,707.1,662L569.4,808.2    L545,834h43.2L615.1,804.4z"></path>
		<path class="st11" d="M319.8,804.4l135.5-148.5c45.1-49.5,89.9-99.5,135.8-148.1c29.5-31,59.1-62,88.9-92.6h-41.4    c-29.6,33.7-59.6,67-89.6,100.3C503.9,565,457.6,613.3,411.7,662L274.1,808.2L249.7,834h43.2L319.8,804.4z"></path>
	</g>
	<polygon class="st7" points="762.8,804.4 833.9,726.4 833.9,684.2 717.1,808.2 692.7,834 735.9,834  "></polygon>
	<g class="st1">
		<defs>
			<rect id="SVGID_13_" x="115.4" y="129.2" width="769.1" height="741.6"></rect>
		</defs>
		<clipPath id="SVGID_14_">
			<use xlink:href="#SVGID_13_" style="overflow:visible;"></use>
		</clipPath>
		<path class="st12" d="M713.5,804.4l120.3-131.9V632c-9.5,10-18.9,20-28.4,30L667.9,808.2L643.5,834h43.2L713.5,804.4z"></path>
		<path class="st12" d="M418.2,804.4l135.5-148.5c45.1-49.5,89.9-99.5,135.8-148.1c28.4-29.8,56.8-59.6,85.5-89.1    c-7.2-2.3-14.8-3.5-22.7-3.5h-15.2c-29.6,33.7-59.6,67-89.6,100.3C602.4,565,556.1,613.3,510.2,662L372.6,808.2L348.2,834h43.2    L418.2,804.4z"></path>
		<path class="st12" d="M369,804.4l135.5-148.5c45.1-49.5,89.9-99.5,135.8-148.1c29.5-31,59.1-62,88.9-92.6h-41.4    c-29.6,33.7-59.6,67-89.6,100.3C553.2,565,506.9,613.3,461,662L323.3,808.2L299,834h43.2L369,804.4z"></path>
		<path class="st12" d="M516.7,804.4l135.5-148.5c45.1-49.5,89.9-99.5,135.8-148.1c12.9-13.5,25.8-27.1,38.7-40.6    c-3.8-9.2-9-17.5-15.4-24.7c-21.7,24.4-43.6,48.6-65.5,72.9c-45,49.6-91.4,97.9-137.3,146.6L471,808.2L446.6,834h43.2L516.7,804.4    z"></path>
		<path class="st12" d="M467.4,804.4l135.5-148.5c45.1-49.5,89.9-99.5,135.8-148.1c22.5-23.6,44.9-47.1,67.5-70.5    c-7.3-7-15.8-12.5-25-16.3c-28,31.7-56.3,63.1-84.5,94.5c-45,49.6-91.4,97.9-137.3,146.6L421.8,808.2L397.4,834h43.2L467.4,804.4z    "></path>
		<path class="st13" d="M842.7,839.6c1.3-95.7,3.4-191.3,6-286.9l0.5-17.9l0.3-9c-0.2-2.8-0.1-5.5-0.4-8.3    c-0.9-11.3-3.3-22.4-7.2-33c-7.8-21.1-21.1-40.2-38.5-54.5c-17.3-14.3-38.3-24-60.4-27.4c-5.5-0.8-11.1-1.4-16.6-1.5    c-2.7-0.1-5.7-0.1-8.7-0.1l-9,0l-35.9,0.1c-95.7,0.6-191.3,0.3-287-1.3l-71.8-1.1l-35.9-0.6l-8.9-0.1c-2.8,0-5.7,0-8.6,0.2    c-5.7,0.2-11.4,1.1-17,2.1c-22.4,4.4-43.5,15.5-60.2,31.4c-16.8,15.9-28.8,36.7-34.9,59.2c-3.1,11.2-4.6,23-4.8,34.5l1.5,35.8    l3.2,71.7c2.2,47.8,4.7,95.6,7.2,143.4l1,17.9l0.5,9l0.3,4.5c0.1,1.5,0.1,2.6,0.4,3.9c0.4,2.6,1.2,5.3,2,8.3    c0.4,1.5,0.8,3.1,1,4.9c0.2,1.8,0.4,3.8-0.2,6.3c-0.6,2.6-3,5.3-5.3,6.3c-1.1,0.6-2.2,0.9-3.3,1.1c-1,0.3-1.5,0.6-2.3,0.9    c-1.4,0.6-2.9,1.3-4.3,2c-1.5,0.7-2.9,1.6-4.4,1.6c-2.8,0.4-5.3,0.9-7.1,1.6c-1.9,0.8-2.1,1.2-2.3,1.7c-0.1,0.3-0.3,0.9-0.3,1.7    c0,0.4,0,1,0,1.4c0,0.2,0.1,0.3,0.1,0.4c0.2,0.5,0.6,1,1.1,1.1c0.3,0.1,0.3,0.1,0.9,0.1l4.5-0.1l9-0.2l17.9-0.3l143.5-1.4    c95.6-0.9,191.3-1.6,286.9-0.5c23.9,0.1,47.8,0.4,71.8,0.7l71.8,1l134,2.7l8.8-5.1l-8.8,5.1c0.1,0,0.4-0.2,0-0.9    c-0.4-0.7-1.2-1.5-2.3-2.2c-2.2-1.5-5-3-7.9-4.1c-2.9-1.2-6.1-2.1-9.2-3c-3.2-0.8-6.4-1.6-9.7-2.1v-2.1c6.8-1,13.7-1,20.7-0.1    c3.5,0.5,7.1,1.1,10.8,2.7c1.8,0.9,3.8,1.9,5.6,3.8c1.9,1.7,3.6,4.8,3.7,8.1l-8.8,5.2l8.8-5.1c0,2.1-0.1,5-2.4,8    c-1.2,1.4-2.7,2.5-4.1,3.1c-1.4,0.6-2.6,0.8-3.7,1c-4.2,0.5-6.7,0.3-9.7,0.6l-17.9,0.4l-35.9,0.9l-71.8,1.4l-71.8,1    c-23.9,0.3-47.8,0.6-71.8,0.7c-95.7,1.1-191.4,0.4-287.1-0.5l-143.6-1.4L147,868l-9-0.2l-4.5-0.1c-2.5,0-5.4-0.6-7.8-1.8    c-5-2.3-8.6-7-9.8-12.3c-0.3-1.3-0.4-2.7-0.4-4c0-1.1,0-2,0.2-3.1c0.2-2.1,0.8-4.5,2-6.9c1.1-2.4,3.1-4.6,5.1-6.2    c2.1-1.6,4.2-2.5,6.1-3.2c3.9-1.3,7.3-1.8,10.4-2.1c1.5-0.3,3,0.1,4.5,0.3c1.5,0.2,3,0.5,4.5,0.7c0.7,0.1,1.6,0.2,2.1,0.2    c0.4-0.1,0.8-0.2,1-0.3c0.4-0.2,0.2,0,0.4-0.3c0.4-0.8,0-3.8-0.7-6.5c-0.6-2.8-1.5-5.8-2-9.1c-0.3-1.6-0.3-3.6-0.4-5.1l-0.1-4.5    l-0.3-9l-0.6-17.9c-1.8-47.8-3.6-95.6-5.7-143.4l-3.3-71.7l-1.7-35.8c0.1-12.4,1.4-24.6,4.4-36.5c5.9-23.9,18.4-46.1,35.7-63.8    c17.3-17.7,39.8-30.5,64.2-36.1c6.1-1.4,12.3-2.5,18.5-3c3.1-0.4,6.2-0.4,9.4-0.6l9-0.2L314,385l71.8-1.1    c95.7-1.6,191.4-1.9,287-1.3l35.9,0.1l9,0c3,0,6,0,9.3,0.1c6.4,0.2,12.7,0.9,19,2c25.2,4.3,49,15.8,68.2,32.3    c19.3,16.5,34,38.2,42.1,62.2c4.1,12,6.4,24.5,7.1,37.1c0.3,3.1,0.2,6.4,0.2,9.6l-0.5,9l-0.9,17.9    c-5.2,95.6-10.9,191.2-17.3,286.7L842.7,839.6z"></path>
	</g>
</g>
<g class="st0">
	<g class="st1">
		<defs>
			<rect id="SVGID_15_" x="52.8" y="180.5" width="894.3" height="639"></rect>
		</defs>
		<clipPath id="SVGID_16_">
			<use xlink:href="#SVGID_15_" style="overflow:visible;"></use>
		</clipPath>
		<path class="st14" d="M52.8,563l37.4-1.6l37.4-1.3l1.6-0.1l0.9,1.5l36.8,60.5l36.4,60.8l36,61c12,20.3,24,40.7,35.8,61.1l-7.8-4.5    c39.3-0.3,78.5-0.9,117.8-0.9l117.8-0.4l117.8,0.4c39.3,0,78.5,0.6,117.8,0.9l-7.9,4.7c11.3-20.4,22.8-40.8,34.3-61.1l34.6-61    l34.9-60.8l35.3-60.6l0.9-1.6l1.7,0.1l37.4,1.3l37.4,1.6l-37.4,1.6l-37.4,1.3l2.6-1.5L843.4,627l-32,62.4L779,751.5    c-10.8,20.7-21.6,41.4-32.6,62l-2.5,4.6l-5.4,0c-39.3,0.3-78.5,0.9-117.8,0.9l-117.8,0.4l-117.8-0.4c-39.3,0-78.5-0.6-117.8-0.9    l-5.3,0l-2.5-4.5c-11.5-20.6-22.8-41.3-34.1-62.1l-33.8-62.2l-33.5-62.4l-33.1-62.6l2.6,1.5l-37.4-1.3L52.8,563z"></path>
		<path class="st14" d="M276.8,542.9v27.5c8.1-9.7,16.3-19.4,24.5-29c19.6-22.6,39.2-45.3,58.9-67.6h-27.4    C314.3,497,295.6,519.9,276.8,542.9"></path>
		<path class="st14" d="M306.1,547c-9.7,11.7-19.4,23.3-29.3,34.9v27.8c18.9-22.9,37.9-45.8,57.2-68.3    c19.6-22.6,39.2-45.3,58.9-67.6h-27.4C345.8,498.4,325.9,522.7,306.1,547"></path>
		<path class="st14" d="M277.1,531.7c16.7-19.3,33.5-38.7,50.4-57.8C301,475.9,279.6,500.5,277.1,531.7"></path>
		<path class="st14" d="M338.7,547c-20.3,24.7-41.1,48.9-61.9,73.1v29.1c29.8-36.1,59.4-72.5,89.8-107.8    c19.6-22.6,39.2-45.3,58.9-67.6h-27.4C378.5,498.4,358.6,522.7,338.7,547"></path>
		<path class="st14" d="M439.7,649.5c29.9-36.2,59.6-72.7,90-108.2c19.6-22.6,39.2-45.3,58.9-67.6h-27.4    c-19.6,24.6-39.5,48.9-59.4,73.2c-29.9,36.2-60.5,71.5-91,107l-91.2,106.8l-11.2,13c6.8,3.7,14.4,5.8,22.4,5.8h1.2l17.8-21.6    L439.7,649.5z"></path>
		<path class="st14" d="M407,649.5c29.9-36.2,59.6-72.7,90-108.2c19.6-22.6,39.2-45.3,58.9-67.6h-27.4    c-19.6,24.6-39.5,48.9-59.4,73.2c-29.9,36.2-60.5,71.5-91,107L290,757.3c4.4,6,9.7,11.1,15.6,14.8l11.7-14.1L407,649.5z"></path>
		<path class="st14" d="M371.3,547c-29.9,36.2-60.5,71.5-91,107l-3.5,4.1v30.5l32.4-39.1c29.9-36.2,59.5-72.7,90-108.2    c19.6-22.6,39.2-45.3,58.9-67.6h-27.4C411.1,498.4,391.2,522.7,371.3,547"></path>
		<path class="st14" d="M713.1,752.7c6.3-10.5,10.1-23.4,10.1-37.3v-7l-44.8,52.4l-16.2,18.8h6.9c12.1,0,23.3-4.8,32.3-12.8l7.3-8.8    L713.1,752.7z"></path>
		<path class="st14" d="M345.6,654l-66.8,78.2c1.8,8,4.9,15.4,9.1,21.9l86.6-104.6c29.9-36.2,59.6-72.7,90-108.2    c19.6-22.6,39.2-45.3,58.9-67.6h-27.4c-19.6,24.6-39.5,48.9-59.4,73.2C406.7,583.2,376,618.4,345.6,654"></path>
		<path class="st14" d="M403.9,547c-29.9,36.2-60.6,71.5-91,107l-36.1,42.3v19c0,4,0.3,7.8,0.9,11.6l64.1-77.4    c29.9-36.2,59.5-72.7,90-108.2c19.6-22.6,39.2-45.3,58.9-67.6h-27.4C443.7,498.4,423.8,522.7,403.9,547"></path>
		<path class="st14" d="M545.6,758l89.8-108.4c29.2-35.3,58.1-70.9,87.8-105.5v-6c0-6.8-0.9-13.3-2.5-19.4    c-7.7,9.5-15.4,18.9-23.2,28.4c-29.9,36.2-60.6,71.5-91,107l-91.2,106.8l-16.2,18.8h28.6L545.6,758z"></path>
		<path class="st14" d="M610.8,758l89.8-108.4c7.5-9.1,15-18.2,22.6-27.4V594c-17.1,20.1-34.3,40-51.4,60l-91.2,106.8l-16.2,18.8    H593L610.8,758z"></path>
		<path class="st14" d="M578.2,758L668,649.5c18.4-22.3,36.7-44.6,55.2-66.8v-27.4c-27.7,33.3-56,65.9-84,98.7l-91.2,106.8    l-16.2,18.8h28.6L578.2,758z"></path>
		<path class="st14" d="M382.5,758l89.8-108.4c29.9-36.2,59.5-72.7,90-108.1c19.6-22.6,39.2-45.3,58.9-67.6h-27.5    c-19.6,24.6-39.5,48.9-59.4,73.2c-29.9,36.2-60.6,71.5-91,107l-91.2,106.8l-16.2,18.8h28.6L382.5,758z"></path>
	</g>
	<polygon class="st7" points="676.1,758 723.2,701.1 723.2,670.2 645.8,760.8 629.6,779.6 658.3,779.6  "></polygon>
	<g class="st1">
		<defs>
			<rect id="SVGID_17_" x="52.8" y="180.5" width="894.3" height="639"></rect>
		</defs>
		<clipPath id="SVGID_18_">
			<use xlink:href="#SVGID_17_" style="overflow:visible;"></use>
		</clipPath>
		<path class="st15" d="M643.4,758l79.7-96.3v-29.6c-6.3,7.3-12.5,14.6-18.8,21.9l-91.2,106.8L597,779.6h28.6L643.4,758z"></path>
		<path class="st15" d="M447.7,758l89.8-108.4c29.9-36.2,59.5-72.7,90-108.1c18.8-21.8,37.6-43.5,56.7-65.1    c-4.8-1.6-9.8-2.6-15.1-2.6H659c-19.6,24.6-39.5,48.9-59.4,73.2c-29.9,36.2-60.6,71.5-91,107l-91.2,106.8l-16.2,18.8h28.6    L447.7,758z"></path>
		<path class="st15" d="M415.1,758l89.8-108.4c29.9-36.2,59.5-72.7,90-108.1c19.6-22.6,39.2-45.3,58.9-67.6h-27.5    c-19.6,24.6-39.5,48.9-59.4,73.2c-29.9,36.2-60.6,71.5-91,107l-91.2,106.8l-16.2,18.8h28.6L415.1,758z"></path>
		<path class="st15" d="M513,758l89.8-108.4c29.9-36.2,59.5-72.7,90-108.1c8.5-9.9,17.1-19.8,25.7-29.6c-2.5-6.7-6-12.8-10.2-18    c-14.4,17.8-28.9,35.5-43.4,53.2c-29.9,36.2-60.6,71.5-91,107l-91.2,106.8l-16.2,18.8h28.6L513,758z"></path>
		<path class="st15" d="M480.3,758l89.8-108.4c29.9-36.2,59.5-72.7,90-108.1c14.9-17.2,29.7-34.4,44.7-51.5    c-4.8-5.1-10.4-9.1-16.6-11.9c-18.5,23.2-37.3,46.1-56,69c-29.9,36.2-60.6,71.5-91,107l-91.2,106.8l-16.2,18.8h28.6L480.3,758z"></path>
		<path class="st16" d="M396.6,207.9c0-7.1-0.4-9.9-2-12.5c-2.6-4.2-7.1-5.4-20.3-5.4c-15.2,0-20.3,0.9-23.3,4.4    c-2.3,2.6-3.5,6.7-3.5,12.8c0,8.7,2,13.1,7,15c3.2,1.2,3.9,1.3,20.1,2c17.9,0.9,23.3,1.9,27.7,5.4c5.1,3.9,7,9.9,7,21.6    c0,13.3-2.3,20.3-8.2,24c-5.5,3.5-12.4,4.5-32.2,4.5c-13.5,0-18.1-0.7-23.8-3.9c-3.8-2.2-6.9-6.8-7.9-11.8    c-0.9-4.2-1.2-7-1.3-15.3h10.9c0.1,10.5,0.3,12.4,2.2,15.9c2.6,4.9,5.8,5.7,23.3,5.7c23.5,0,25.9-2,25.9-20.1c0-8.2-1.6-12-6-13.7    c-2.8-1.2-2.8-1.2-20.6-2.2c-18.1-0.9-19.4-1.2-24.2-3.4c-7.9-3.9-11.1-10.5-11.1-22.7c0-11.4,2.3-18.2,7.3-22    c5.5-4.4,12.5-5.7,29.2-5.7c18.4,0,25.8,1.9,30.3,8c3.1,4.1,4.2,9,4.2,17.8v1.6H396.6z"></path>
	</g>
	<polygon class="st4" points="484.1,181.5 444.3,224.1 434.7,224.1 434.7,181.5 423.8,181.5 423.8,278.7 434.7,278.7 434.7,233.8    444.3,233.8 488.8,278.7 503.6,278.7 453.9,228.7 498.4,181.5  "></polygon>
	<rect x="513.8" y="181.5" class="st4" width="10.9" height="97.2"></rect>
	<polygon class="st4" points="615.1,181.5 615.1,255.2 615.1,262.5 615.1,266.2 615.3,269.8 615,269.8 610.5,262.2 605.8,254.7    596.5,239.5 561,181.5 543.1,181.5 543.1,278.7 554,278.7 554,205.4 554,198.1 554,194.5 553.9,190.8 554.2,190.8 557.4,196.2    560.8,201.6 567.3,212.5 608.1,278.7 626,278.7 626,181.5  "></polygon>
	<g class="st1">
		<defs>
			<rect id="SVGID_19_" x="52.8" y="180.5" width="894.3" height="639"></rect>
		</defs>
		<clipPath id="SVGID_20_">
			<use xlink:href="#SVGID_19_" style="overflow:visible;"></use>
		</clipPath>
		<path class="st17" d="M120.5,353.8c21.6,0,25.1-2.6,25.1-19.1c0-12.7-1.5-17.5-6-19.5c-2.9-1.3-4.1-1.5-15.6-1.6H94.6v40.2H120.5z     M83.7,304.1h40.7c12.5,0,16,0.4,20.4,2.3c8,3.5,11.8,12.2,11.8,27.7c0,14.6-3.6,22.7-11.8,26.7c-4.5,2.2-5.2,2.2-22,2.5H94.6v38    H83.7V304.1z"></path>
		<path class="st17" d="M212.2,352.8c16,0,21.1-4.2,21.1-17.3c0-10.1-0.6-14.3-2.6-17.1c-2.2-3.2-7-4.8-14.7-4.8h-35.4v39.2H212.2z     M169.7,304.1h46.2c20.8,0,28.4,7.4,28.4,28c0,17.6-3.8,23.5-16.8,25.7v0.1c10.1,0.6,15.6,7.3,15.4,18.8v24.6H232v-22.2    c0.3-12.4-5.2-17.3-18.4-16.9h-33.1v39.1h-10.9V304.1z"></path>
		<path class="st17" d="M273.7,317.2c-2.9,3.4-4.2,7.7-4.8,15.9c-0.1,2-0.1,2-0.1,19.5c0,20.1,0,20.1,0.9,25.7    c1,6.7,3.6,10.8,8.2,12.5c3.9,1.6,8,2,21,2c17.8,0,22.6-0.9,25.9-4.7c2.9-3.4,4.2-7.7,4.8-15.9c0.1-2,0.1-2,0.1-19.7    c0-20,0-20-0.9-25.5c-1-6.7-3.6-10.8-8.2-12.5c-3.9-1.6-8.2-2-21-2C281.9,312.5,277.1,313.4,273.7,317.2 M325.6,306.3    c8.3,3.5,12.7,10.6,14.4,23.2c0.4,4.4,0.6,6.7,0.6,19.1c0,22.7-0.1,26.1-1.7,33.5c-1.8,8.6-6,14.1-13,17.1    c-6.1,2.6-11.1,3.2-25.4,3.2c-17.1,0-21.7-0.6-28-3.2c-7-3.1-11.1-8.4-13-17.1c-1.6-7.6-1.8-10.8-1.8-33.4    c0-20.3,0.9-25.9,4.8-33.4c3.2-5.8,8.9-9.6,17.1-11.2c3.5-0.6,11.1-1,19.5-1C314.1,303.1,319.9,303.8,325.6,306.3"></path>
	</g>
	<polygon class="st4" points="390.7,401.3 379.8,401.3 379.8,314.3 348.2,314.3 348.2,304.1 422.2,304.1 422.2,314.4 390.7,314.3     "></polygon>
	<g class="st1">
		<defs>
			<rect id="SVGID_21_" x="52.8" y="180.5" width="894.3" height="639"></rect>
		</defs>
		<clipPath id="SVGID_22_">
			<use xlink:href="#SVGID_21_" style="overflow:visible;"></use>
		</clipPath>
		<path class="st18" d="M476.3,352.8c16,0,21.1-4.2,21.1-17.3c0-10.1-0.6-14.3-2.6-17.1c-2.2-3.2-7-4.8-14.7-4.8h-35.4v39.2H476.3z     M433.7,304.1h46.2c20.8,0,28.4,7.4,28.4,28c0,17.6-3.8,23.5-16.8,25.7v0.1c10.1,0.6,15.6,7.3,15.4,18.8v24.6h-10.9v-22.2    c0.3-12.4-5.2-17.3-18.4-16.9h-33.1v39.1h-10.9V304.1z"></path>
		<path class="st18" d="M600.2,304.1v68.1c0,11.7-1.2,16.6-5,21.4c-5.7,6.8-12.8,8.7-34.3,8.7c-13,0-18.4-0.6-23.3-2.5    c-11.1-4.1-14.4-10.6-14.4-27.7v-68.1h10.9v68.1c0,7.7,0.6,11.8,2,14.3c2.9,4.9,8.6,6.4,24.2,6.4c25.9,0,28.9-2.2,28.9-20.7v-68.1    H600.2z"></path>
		<path class="st18" d="M660.7,391.8c10.6,0,18.2-2.2,21.6-6.1c4.2-5.2,5.5-12.4,5.5-31c0-23.5-0.9-29-5.1-34.7    c-3.5-4.7-9-6.4-19.7-6.4h-34v78.3H660.7z M618.1,304.1H663c14.1,0,22,2.5,27.3,8.4c6.4,7.4,8.4,16,8.4,36c0,23.8-1,31.8-4.8,38.8    c-3.8,6.9-8.7,10.6-16.6,12.4c-4.4,1-8.7,1.6-11.5,1.6h-47.7V304.1z"></path>
	</g>
	<rect x="714.1" y="304.1" class="st4" width="10.9" height="97.2"></rect>
	<polygon class="st4" points="826.4,401.3 808.4,401.3 767.6,335.1 761.1,324.2 757.7,318.8 754.5,313.4 754.2,313.4 754.4,317.1    754.4,320.7 754.4,328 754.4,401.3 743.4,401.3 743.4,304.1 761.4,304.1 796.8,362.1 806.1,377.3 810.8,384.8 815.3,392.4    815.6,392.4 815.4,388.8 815.4,385.1 815.4,377.8 815.4,304.1 826.4,304.1  "></polygon>
	<g class="st1">
		<defs>
			<rect id="SVGID_23_" x="52.8" y="180.5" width="894.3" height="639"></rect>
		</defs>
		<clipPath id="SVGID_24_">
			<use xlink:href="#SVGID_23_" style="overflow:visible;"></use>
		</clipPath>
		<path class="st19" d="M922.1,353.1c0.3,4.1,0.3,4.5,0.3,10.5c0,17.8-0.6,22.7-3.6,28c-2.3,4.4-6.3,7.3-11.8,9    c-3.9,1.2-11.8,1.7-24,1.7c-19.1,0-25.9-1.5-32.8-7.1c-4.4-3.6-7.6-11.4-8-19.5c-0.1-4.4-0.1-5.2-0.3-24.2v-4.1    c0-17.5,1.2-24.9,4.7-32.1c3.2-6.3,8.7-9.9,17.1-11.4c3.2-0.6,9.5-0.9,18.4-0.9c21.9,0,25.7,0.6,32.4,4.8    c3.6,2.3,6.4,6.9,7.3,11.8c0.4,3.5,0.6,5.4,0.6,12.7h-10.8c-0.1-18.8-1.7-19.8-30.9-19.8c-16.8,0-22.2,1.6-24.9,7.7    c-2.2,4.8-2.8,11.2-2.8,31c0,25.4,0.3,29.1,2.6,34c3.1,6.1,9,7.7,29.3,7.7c24.8,0,26.8-1.9,26.8-24.8c0-1,0-3.2-0.1-5.7h-30.9    v-9.5H922.1z"></path>
		<path class="st19" d="M56.3,527.4l48.3-0.6l24.1-0.3l12.1-0.1c0.9,0,2.2,0,3.4,0.2c1.2,0.2,2.3,0.7,3.4,1.2c2.1,1.2,3.9,3,5,5.2    l-0.1-0.2l97.1,152.8l0.1,0.1l0.1,0.2c0.7,1.4,1.8,2.3,3.1,2.8c1.3,0.5,2.9,0.4,4.2-0.2c1.3-0.6,2.4-1.6,2.8-2.8    c0.2-0.6,0.4-1.3,0.4-2l0-3.6l-0.3-30l-0.5-60l-0.4-60l-0.2-30l0-7.5l0-3.7l0-1.9l0.1-2.3c0.3-6.1,2.5-12,5.8-17    c3.4-5,8.2-9.1,13.7-11.7c2.7-1.3,5.7-2.3,8.7-2.8c3-0.6,6.2-0.5,8.5-0.6l30-0.7l60-1.5l120-2.9l120-3.2c20-0.6,40-1.1,60-1.5    l30-0.7c1-0.1,3,0,4.7,0.1c1.7,0.1,3.4,0.4,5.1,0.7c3.4,0.7,6.6,1.9,9.7,3.5c6.1,3.2,11.3,8,14.9,13.9c3.7,5.8,5.7,12.7,5.8,19.6    c0,1,0,1.5,0,2.2l0,1.9l0,3.8l0,7.5l-0.3,30l-0.6,60l-0.8,60l-0.2,15l-0.1,7c0,1.7,0.3,3.3,0.7,4.5c0.4,1.2,1,2.1,1.3,2.4    c0.4,0.3-0.1,0-0.4,0.2c-0.4,0.1,0.1,0.1,0.8-0.6c0.7-0.7,1.6-2,2.3-3.6l0.4-0.9l0.2-0.4c15.4-23.2,30.6-46.5,46.1-69.5l23.3-34.6    l23.5-34.5l-0.3,0.6c1.3-2.9,3.8-5.1,6.7-6.1c0.7-0.3,1.5-0.4,2.2-0.5c0.7-0.1,1.7-0.1,2-0.1l2.9,0.1l11.4,0.4l22.8,0.8    c15.2,0.5,30.4,1.2,45.6,1.9v2c-15.2,0.7-30.4,1.4-45.6,1.9l-22.8,0.8l-11.4,0.4l-2.9,0.1c-0.6,0-0.6,0-0.8,0.1    c-0.2,0.1-0.4,0.1-0.5,0.2c-0.7,0.3-1.1,0.9-1.4,1.5l0,0.1l-0.3,0.5l-21,36.1l-21.2,35.9c-14.1,24-28.6,47.7-42.9,71.6l0.7-1.3    c-1.3,3-2.9,6.1-5.6,9c-2.7,2.9-6.7,5.8-12.1,6.5c-5.4,0.8-10.9-1.4-14.2-4.5c-3.5-3-5.5-6.6-6.8-10.1c-1.3-3.5-1.9-6.9-2.1-10.2    c-0.1-1.8-0.1-2.9-0.1-4.2l0-3.8l0-15l0-60l0.1-60l0.1-30l0-14.7c-0.1-3.1-1-6.2-2.7-8.8c-1.6-2.7-4.1-4.8-6.8-6.3    c-1.4-0.7-2.8-1.3-4.3-1.6c-0.8-0.1-1.5-0.3-2.3-0.4c-0.8,0-1.4-0.1-2.8-0.1l-30,0.2c-20,0.2-40,0.3-60,0.3l-120,0.3l-120,0.6    l-60,0.3l-30,0.2c-2.7,0-4.5,0-6.5,0.3c-1.9,0.3-3.8,0.9-5.6,1.7c-3.6,1.6-6.6,4.2-8.9,7.4c-2.2,3.2-3.7,7-3.9,11l-0.1,1.5l0,1.9    l0,3.7l0,7.5l-0.2,30l-0.4,60l-0.5,60l-0.3,30c0,1.3,0,2.3-0.1,3.9c-0.1,1.7-0.5,3.6-1.2,5.2c-1.5,3.4-4.4,6-7.7,7.3    c-3.3,1.3-7.1,1.4-10.5,0.1c-3.4-1.3-6.3-4.1-7.7-7.2l0.2,0.4l-93.5-155l-0.1-0.1l0-0.1c-1.4-2.9-4.4-4.7-8-4.5l-12.1-0.1    l-24.1-0.3l-48.3-0.6V527.4z"></path>
	</g>
</g>
<g>
	<defs>
		<rect id="SVGID_25_" x="28.8" y="196.2" width="942.3" height="607.6"></rect>
	</defs>
	<clipPath id="SVGID_26_">
		<use xlink:href="#SVGID_25_" style="overflow:visible;"></use>
	</clipPath>
	<path class="st20" d="M760.9,699.8V669c-10,10.9-20.1,21.7-30.2,32.4c-24.1,25.3-48.2,50.6-72.6,75.7h33.8   C714.7,751.1,737.8,725.4,760.9,699.8"></path>
	<path class="st20" d="M724.9,695.2c11.9-13.1,24-26.1,36.1-39.1V625c-23.3,25.7-46.7,51.3-70.4,76.4   c-24.1,25.3-48.2,50.6-72.6,75.7h33.8C675.9,749.6,700.4,722.4,724.9,695.2"></path>
	<path class="st20" d="M760.6,712.2c-20.6,21.6-41.3,43.2-62.1,64.6C731.1,774.7,757.5,747.2,760.6,712.2"></path>
	<path class="st20" d="M684.7,695.2c25.1-27.6,50.6-54.7,76.2-81.8v-32.6c-36.8,40.4-73.2,81.1-110.6,120.7   c-24.1,25.3-48.2,50.6-72.6,75.7h33.8C635.7,749.6,660.2,722.4,684.7,695.2"></path>
	<path class="st20" d="M560.2,580.4c-36.9,40.5-73.4,81.3-110.9,121c-24.1,25.3-48.2,50.6-72.6,75.7h33.8   c24.2-27.5,48.7-54.7,73.2-81.9c36.8-40.5,74.6-80,112.1-119.7L708.2,456l13.7-14.5c-8.4-4.1-17.7-6.5-27.6-6.5h-1.5l-21.9,24.2   L560.2,580.4z"></path>
	<path class="st20" d="M600.4,580.4c-36.9,40.5-73.4,81.3-110.9,121c-24.1,25.3-48.2,50.6-72.6,75.7h33.8   c24.2-27.5,48.7-54.7,73.2-81.9c36.8-40.5,74.6-80,112.1-119.7l108.7-115.5c-5.4-6.7-11.9-12.4-19.3-16.6l-14.4,15.8L600.4,580.4z"></path>
	<path class="st20" d="M644.5,695.2c36.8-40.5,74.6-80,112.1-119.7l4.3-4.6v-34.1L721,580.4c-36.9,40.5-73.4,81.3-110.9,121   c-24.1,25.3-48.2,50.6-72.6,75.7h33.8C595.5,749.6,620,722.4,644.5,695.2"></path>
	<path class="st20" d="M223.3,465.1c-7.8,11.8-12.5,26.2-12.5,41.7v7.8L266,456l19.9-21h-8.5c-14.9,0-28.7,5.4-39.8,14.3l-8.9,9.9   L223.3,465.1z"></path>
	<path class="st20" d="M676.2,575.4l82.3-87.5c-2.3-9-6.1-17.3-11.2-24.5l-106.7,117c-36.9,40.5-73.4,81.3-110.9,121   c-24.1,25.3-48.2,50.6-72.6,75.7h33.8c24.2-27.5,48.7-54.7,73.2-81.9C600.9,654.6,638.7,615.2,676.2,575.4"></path>
	<path class="st20" d="M604.3,695.2c36.8-40.5,74.6-80,112.1-119.7l44.5-47.3v-21.3c0-4.4-0.4-8.7-1.1-12.9l-79,86.5   c-36.9,40.5-73.4,81.3-110.9,121c-24.1,25.3-48.2,50.6-72.6,75.7h33.8C555.3,749.6,579.8,722.4,604.3,695.2"></path>
	<path class="st20" d="M429.7,459.1L319.1,580.4c-36,39.5-71.6,79.3-108.2,118.1v6.7c0,7.6,1.1,14.8,3.1,21.7   c9.5-10.6,19-21.2,28.6-31.7c36.8-40.5,74.6-80,112.1-119.7L467,456l19.9-21h-35.3L429.7,459.1z"></path>
	<path class="st20" d="M349.3,459.1L238.7,580.4c-9.3,10.2-18.6,20.4-27.8,30.6v31.5c21.1-22.4,42.3-44.7,63.4-67.1L386.6,456   l19.9-21h-35.3L349.3,459.1z"></path>
	<path class="st20" d="M389.5,459.1L278.9,580.4c-22.7,24.9-45.3,49.9-68,74.7v30.7c34.1-37.3,69-73.7,103.6-110.4L426.8,456   l19.9-21h-35.3L389.5,459.1z"></path>
	<path class="st20" d="M630.7,459.1L520,580.4c-36.9,40.5-73.4,81.3-110.9,121c-24.1,25.3-48.2,50.6-72.6,75.7h33.8   c24.2-27.5,48.7-54.7,73.2-81.9c36.8-40.5,74.6-80,112.1-119.7L668,456l19.9-21h-35.3L630.7,459.1z"></path>
</g>
<polygon class="st21" points="268.9,459.1 210.8,522.8 210.8,557.3 306.2,456 326.1,435 290.9,435 "></polygon>
<g>
	<defs>
		<rect id="SVGID_27_" x="28.8" y="196.2" width="942.3" height="607.6"></rect>
	</defs>
	<clipPath id="SVGID_28_">
		<use xlink:href="#SVGID_27_" style="overflow:visible;"></use>
	</clipPath>
	<path class="st22" d="M309.1,459.1l-98.3,107.7v33.1c7.7-8.2,15.5-16.3,23.2-24.5L346.4,456l19.9-21h-35.3L309.1,459.1z"></path>
	<path class="st22" d="M550.3,459.1L439.6,580.4c-36.9,40.5-73.4,81.3-110.9,121c-23.2,24.3-46.4,48.7-69.8,72.8   c5.9,1.8,12.1,2.9,18.6,2.9h12.4c24.2-27.5,48.7-54.7,73.2-81.9c36.8-40.5,74.6-80,112.1-119.7L587.6,456l19.9-21h-35.3   L550.3,459.1z"></path>
	<path class="st22" d="M590.5,459.1L479.8,580.4c-36.9,40.5-73.4,81.3-110.9,121c-24.1,25.3-48.2,50.6-72.6,75.7h33.8   c24.2-27.5,48.7-54.7,73.2-81.9c36.8-40.5,74.6-80,112.1-119.7L627.8,456l19.9-21h-35.3L590.5,459.1z"></path>
	<path class="st22" d="M469.9,459.1L359.3,580.4c-36.9,40.5-73.4,81.3-110.9,121c-10.5,11-21.1,22.1-31.6,33.1   c3.1,7.5,7.4,14.3,12.5,20.1c17.7-19.9,35.6-39.7,53.5-59.5c36.8-40.5,74.6-80,112.1-119.7L507.2,456l19.9-21h-35.3L469.9,459.1z"></path>
	<path class="st22" d="M510.1,459.1L399.5,580.4c-36.9,40.5-73.4,81.3-110.9,121c-18.3,19.2-36.6,38.5-55.1,57.6   c6,5.7,12.9,10.2,20.4,13.3c22.8-25.9,45.9-51.6,69-77.2c36.8-40.5,74.6-80,112.1-119.7L547.4,456l19.9-21h-35.3L510.1,459.1z"></path>
	<path class="st23" d="M273.7,197.4l-41,115.9H214l-41.4-115.9h13.9l30.9,87.6c1.2,3.8,2.6,7.6,3.8,11.6c0.9,2.1,1,2.6,2.1,6.2h0.2   c1.9-6.4,3.1-10.1,5.7-17.7l30.4-87.8H273.7z"></path>
</g>
<path class="st24" d="M314.7,208l25.7,70.4h-51.1L314.7,208z M305.4,197.4L263,313.3h13.9l8.9-24.5h58.6l9,24.5H367l-43.3-115.9  H305.4z"></path>
<g>
	<defs>
		<rect id="SVGID_29_" x="28.8" y="196.2" width="942.3" height="607.6"></rect>
	</defs>
	<clipPath id="SVGID_30_">
		<use xlink:href="#SVGID_29_" style="overflow:visible;"></use>
	</clipPath>
	<path class="st25" d="M468.2,274.5c0,20.7-0.7,24.9-5.6,30.9c-4.7,5.9-12.7,8.3-27.6,8.9c-4.3,0.2-11.3,0.2-17.4,0.2   c-16.3,0-22.9-1.4-30.2-6.2c-5.4-3.7-9.6-11.3-10.8-19.6c-1-7-1.9-21.2-1.9-33.2c0-25.4,0-28,1.2-34.4   c1.9-11.8,10.8-20.7,23.5-23.1c6.4-1.2,14.1-1.7,29.7-1.7c14.6,0,20,0.9,25.9,4.2c6.1,3.3,10.1,10.1,10.9,18.4   c0.4,3.6,0.5,5.9,0.9,14.1h-13c-0.2-12.3-0.7-15.8-2.8-19.5c-3-4.7-8-6.1-22.2-6.1c-16.2,0-26.6,0.9-30.8,2.6   c-7.3,3.3-9.6,9.6-9.6,27.5c0,65.3,0.2,65.9,32.1,65.9c31.3,0,34.8-2.3,34.8-22.1v-6.6H468.2z"></path>
	<path class="st25" d="M575.4,197.4v81.1c0,13.9-1.4,19.8-5.9,25.5c-6.8,8.2-15.3,10.4-40.8,10.4c-15.5,0-21.9-0.7-27.8-3   c-13.2-4.9-17.2-12.7-17.2-33v-81.1h13v81.1c0,9.2,0.7,14.1,2.4,17c3.5,5.9,10.3,7.6,28.8,7.6c30.9,0,34.4-2.6,34.4-24.7v-81.1   H575.4z"></path>
	<path class="st25" d="M688,197.4v81.1c0,13.9-1.4,19.8-5.9,25.5c-6.8,8.2-15.3,10.4-40.8,10.4c-15.5,0-21.9-0.7-27.8-3   c-13.2-4.9-17.2-12.7-17.2-33v-81.1h13v81.1c0,9.2,0.7,14.1,2.4,17c3.5,5.9,10.2,7.6,28.8,7.6c30.9,0,34.4-2.6,34.4-24.7v-81.1H688   z"></path>
	<path class="st25" d="M836.3,313.3h-13v-92.8v-7v-3.5l0.2-3.5h-0.4c-0.5,1.7-1,3-1.6,4.3c-0.7,1.6-0.9,1.9-2.6,6.4l-39.4,95.9   h-13.2l-39.4-94.7l-2.3-5.4l-1.1-2.8l-1-2.6h-0.3l0.2,3.1v3.3v6.3v92.8h-13V197.4h22.6l30.9,75.1l4.9,12l2.4,6.1l2.4,6.1h0.3   l2.4-6.1l2.4-6.1l4.9-12l30.8-75.1h22.9V313.3z"></path>
	<path class="st25" d="M201.9,459.2c0-3.6-1.5-7.2-4.2-9.7c-2.7-2.5-6.2-4-9.9-4.3l-23.1-2.2l-46.3-4.2l-46.3-4l-23.2-1.9   c-3.8-0.4-7.9-0.4-12.2-2c-2.1-0.8-4.4-2.2-5.8-4.5c-1.5-2.2-2-4.8-2-7l4.4-2.6l-4.4,2.6c0-1,0-2,0.4-3.2c0.3-1.2,1.2-2.5,2.3-3.3   c2.4-1.7,4.4-1.6,6-1.8l4.6-0.2c1.5-0.1,3-0.1,4.5-0.1l18.1-0.4l36.3-0.8l72.6-1.6c48.4-1.1,96.8-1.8,145.2-2.3l145.2-0.8   l145.2,0.1l145.2,0.8c48.4,0.3,96.8,0.5,145.2,1.1l36.3,0.4l18.4,0.2c1.8,0.1,3.8,0.3,6,0.9c2.1,0.6,4.7,1.6,6.9,3.8   c2.3,2.2,3.5,5.4,3.7,7.9c0.1,0.7,0.1,1.2,0.1,1.9c0,0.5,0,1.1-0.1,1.6c0,1.1-0.3,2.3-0.5,3.4c-0.6,2.3-1.8,4.7-3.5,6.6   c-1.7,1.9-3.7,3.3-5.7,4.2c-4,1.8-8,2.2-11.4,2.2l-18.2,0.5l-36.3,1l-72.6,2l-36.3,1.1l-4.5,0.1c-1.4,0-2.4,0.1-3.5,0.4   c-2.2,0.6-4.1,1.9-5.6,3.6c-1.5,1.7-2.4,4-2.6,6.2l-0.1,0.8l0,1.1l0.1,2.3l0.1,4.5c1.6,48.4,3.6,96.7,5.7,145l3.4,72.5   c1.4,24.6-5.1,50-19,70.7c-13.6,20.9-34.8,37.1-59,44.4c-6,1.8-12.3,3.2-18.5,3.9s-12.7,0.9-18.6,0.9l-36.3,0.6   c-48.4,0.8-96.8,1.6-145.2,1.9l-72.6,0.2l-72.6-0.4l-36.3-0.4c-12.9-0.3-25.7-2.4-37.7-6.9c-24.1-8.9-44.8-25.9-58.1-47.4   c-6.7-10.7-11.5-22.6-14.4-34.8c-1.4-6.1-2.3-12.4-2.6-18.6c-0.2-3.1-0.2-6.4-0.2-9.4l0.6-9.1l4.8-72.5l4.3-72.5L201.9,459.2z    M203.6,459.2l-3.1,72.5l-2.4,72.5l-1.9,72.6l-0.2,9.1c0.1,2.9,0.2,5.7,0.5,8.7c0.6,5.8,1.6,11.6,3.1,17.2   c3.1,11.2,7.9,21.9,14.5,31.4c13,19.1,32.3,33.7,54,40.6c10.8,3.6,22.2,5.3,33.5,5.2l36.3-0.4l72.6-0.4l72.6,0.2   c48.4,0.3,96.8,1.1,145.2,1.9l36.3,0.6c6.2,0.1,11.8,0.2,17.6-0.3c5.8-0.5,11.5-1.6,17-3.1c22.4-5.9,42.5-20.2,55.9-39.4   c13.4-19.2,20.3-43,19.1-66.7l-3.1-72.5c-2.3-48.3-4.7-96.7-7.4-145l-0.3-4.5l-0.1-2.3l-0.1-1.1l0-1.5c0.2-3.8,1.6-7.4,4-10.4   c2.3-3,5.6-5.2,9.3-6.3c1.8-0.6,3.8-0.8,5.5-0.8l4.5-0.2l36.3-1.9l72.5-4l36.3-2l18.1-1c2.7-0.1,4.8-0.5,6.3-1.3   c1.5-0.8,1.8-1.4,2.1-2.5c0-0.3,0.1-0.6,0.1-1.1c0-0.2,0-0.4,0-0.6c0-0.1,0-0.3,0-0.4c-0.1-0.5-0.1-0.2,0-0.2c0,0.1-0.3-0.2-1-0.3   c-0.8-0.2-1.9-0.3-3-0.3l-17.9,0.2l-36.3,0.4c-48.4,0.6-96.8,0.8-145.2,1.1l-145.2,0.8l-145.1,0.1l-145.2-0.8   c-48.4-0.4-96.8-1.1-145.2-2.3l-72.6-1.6L65,418.1l-18.2-0.4l-9-0.2c-1.3,0-2.5,0.2-2.6,0.3c-0.1-0.1-0.4,0.3-0.5,1.6l-4.4,2.6   l4.4-2.6c-0.1,3.3,1,5.4,4,6.7c3,1.3,6.7,1.7,10.6,2.2l23.1,2.7l46.2,5.1l46.2,4.9l23.1,2.4c4,0.4,8,2,11,4.9   C201.9,451,203.6,455.1,203.6,459.2"></path>
</g>
</svg>