<?xml version="1.0" encoding="utf-8"?>
<!-- Generator: Adobe Illustrator 25.2.2, SVG Export Plug-In . SVG Version: 6.00 Build 0)  -->
<svg version="1.1" id="Livello_1" xmlns="http://www.w3.org/2000/svg" xmlns:xlink="http://www.w3.org/1999/xlink" x="0px" y="0px"
	 viewBox="0 0 131 75" style="enable-background:new 0 0 131 75;" xml:space="preserve">
<style type="text/css">
	.st0{fill:#6A9E2F;}
	.st1{fill:#3C3C3B;}
</style>
<g>
	<g>
		<path class="st0" d="M57.6,0L45.8,36h-9l-7.9-24.4L20.7,36h-8.9L0,0h8.6l8.2,25.3L25.3,0H33l8.2,25.5L49.6,0C49.6,0,57.6,0,57.6,0
			z"/>
		<path class="st0" d="M90.2,29.3V36H62.3V0h27.2v6.7H70.6v7.8h16.7V21H70.6v8.3H90.2z"/>
		<path class="st0" d="M129.8,26.2c0,6.2-4.9,9.8-14.4,9.8H96.8V0h17.6c9,0,13.6,3.8,13.6,9.4c0,3.6-1.9,6.4-4.8,7.9
			C127.2,18.6,129.8,21.7,129.8,26.2z M105.1,6.3v8.5h8.3c4.1,0,6.3-1.4,6.3-4.3s-2.2-4.2-6.3-4.2C113.4,6.3,105.1,6.3,105.1,6.3z
			 M121.4,25.3c0-3-2.3-4.5-6.6-4.5h-9.7v8.9h9.7C119.1,29.8,121.4,28.4,121.4,25.3z"/>
	</g>
	<g>
		<path class="st1" d="M1,70l1.2-2.3c2.1,2,5.7,3.5,9.5,3.5c5.4,0,7.7-2.3,7.7-5.1c0-7.9-17.7-3-17.7-13.7c0-4.2,3.3-7.9,10.6-7.9
			c3.3,0,6.6,0.9,8.9,2.6l-1,2.4c-2.5-1.6-5.4-2.4-7.9-2.4c-5.3,0-7.6,2.3-7.6,5.2c0,7.9,17.7,3.1,17.7,13.6c0,4.2-3.4,7.9-10.7,7.9
			C7.4,73.7,3.1,72.2,1,70z"/>
		<path class="st1" d="M48.7,59.9l-5.9,6v7.6h-3V44.7h3v17.4l16.9-17.4h3.5l-12.4,13l13.3,15.8h-3.6L48.7,59.9z"/>
		<path class="st1" d="M79.7,44.7h3v28.8h-3V44.7z"/>
		<path class="st1" d="M127,44.7v28.8h-2.5L106,50.1v23.4h-3V44.7h2.5l18.6,23.4V44.7H127z"/>
	</g>
</g>
</svg>
