<?xml version="1.0" encoding="utf-8"?>
<!-- Generator: Adobe Illustrator 23.1.0, SVG Export Plug-In . SVG Version: 6.00 Build 0)  -->
<svg version="1.1" id="Livello_1" xmlns="http://www.w3.org/2000/svg" xmlns:xlink="http://www.w3.org/1999/xlink" x="0px" y="0px"
	 viewBox="0 0 686 724.1" style="enable-background:new 0 0 686 724.1;" xml:space="preserve">
<style type="text/css">
	.st0{enable-background:new    ;}
	.st1{clip-path:url(#SVGID_2_);}
	.st2{fill:#3C3C3B;}
	.st3{fill:#E30613;}
	.st4{clip-path:url(#SVGID_4_);fill:none;stroke:#3C3C3B;stroke-width:0.25;}
	.st5{clip-path:url(#SVGID_6_);fill:none;stroke:#3C3C3B;stroke-width:0.25;}
	.st6{clip-path:url(#SVGID_8_);fill:none;stroke:#3C3C3B;stroke-width:0.25;}
	.st7{clip-path:url(#SVGID_10_);fill:none;stroke:#3C3C3B;stroke-width:0.25;}
	.st8{clip-path:url(#SVGID_12_);fill:none;stroke:#3C3C3B;stroke-width:0.25;}
</style>
<g>
	<g class="st0">
		<g>
			<g>
				<g>
					<defs>
						<rect id="SVGID_1_" y="138.6" width="696.1" height="652.4"/>
					</defs>
					<clipPath id="SVGID_2_">
						<use xlink:href="#SVGID_1_"  style="overflow:visible;"/>
					</clipPath>
					<g class="st1">
						<path class="st2" d="M515.9,650.4H180.3v-490h335.6V650.4z M181.3,649.4h333.6v-488H181.3V649.4z"/>
					</g>
				</g>
			</g>
		</g>
	</g>
</g>
<g class="st0">
	<path class="st3" d="M135.9,461.5H152v5h-16.2v43.6L66,461.5h65.1v-9.9h4.8V461.5z M81.1,466.5l50,34.9v-34.9H81.1z"/>
	<path class="st3" d="M146.8,400.4c4.5,4.7,6.8,10.6,6.8,17.7c0,7.2-2.2,13.2-6.7,17.8c-4.5,4.7-10.3,7-17.5,7
		c-5.2,0-9.7-1.4-13.7-4.2c-3.9-2.8-6.8-6.7-8.7-11.6c-1.2,4-3.7,7.1-7.6,9.5c-3.7,2.3-7.7,3.4-11.9,3.4c-6.4,0-11.6-2-15.7-6.1
		c-4.1-4-6.2-9.3-6.2-15.7c0-6.5,2-11.8,6.1-15.8c4-4,9.3-6.1,15.8-6.1c4.4,0,8.5,1.2,12.1,3.6c3.6,2.3,6,5.5,7.4,9.7
		c1.6-4.3,3.8-7.8,6.8-10.5c4.1-3.9,9.3-5.8,15.6-5.8C136.5,393.5,142.3,395.8,146.8,400.4z M75.4,406.1c-3.2,3.3-4.9,7.3-4.9,12.2
		c0,4.8,1.6,8.9,4.9,12.1c3.3,3.3,7.3,4.9,12.2,4.9c4.8,0,8.8-1.6,12-4.9c1.6-1.6,2.9-3.4,3.9-5.4c1-2,1.5-4.3,1.5-6.7
		c0-2.5-0.5-4.8-1.4-6.8s-2.2-3.8-3.8-5.4c-3.2-3.2-7.3-4.9-12.2-4.9C82.7,401.2,78.6,402.9,75.4,406.1z M115.7,404.2
		c-2,2-3.5,4.1-4.7,6.5c-1.1,2.3-1.7,4.9-1.7,7.7c0,2.7,0.6,5.2,1.7,7.5c1.1,2.3,2.7,4.4,4.6,6.4c4,4,8.6,5.9,13.9,5.9
		c5.4,0,9.9-1.9,13.7-5.6c3.8-3.8,5.7-8.6,5.7-14.3c0-5.8-1.8-10.5-5.5-14.3c-3.6-3.9-8.3-5.8-13.9-5.8
		C124.1,398.3,119.5,400.2,115.7,404.2z"/>
	<path class="st3" d="M138.3,328.5c10,5.7,15,13.8,15,24.2c0,10.4-5,18.4-15.1,24.1c-8.2,4.7-18,7-29.2,7c-11.3,0-21.1-2.3-29.4-7
		c-10.1-5.7-15.1-13.7-15.1-24.1c0-10.4,5-18.4,15.1-24.1c8.4-4.7,18.2-7,29.4-7C120.3,321.6,130.1,323.9,138.3,328.5z M83.1,332.3
		c-9.2,4.7-13.8,11.5-13.8,20.4c0,8,4.1,14.5,12.4,19.4c7.4,4.4,16.5,6.5,27.2,6.5c9.7,0,18.3-1.9,25.6-5.6
		c9.2-4.8,13.8-11.5,13.8-20.3c0-8.2-4.1-14.7-12.2-19.5c-7.2-4.4-16.2-6.5-27.1-6.5C99,326.7,90.4,328.6,83.1,332.3z"/>
</g>
<g class="st0">
	<path class="st3" d="M306.3,96.2c-0.7,0.9-1.8,2.2-3.2,3.9c-1.4,1.7-3.3,3.8-5.5,6.4L273.2,134h40.6v4.9h-51.3l41.6-48.1
		c3.3-4.8,5-9.7,5-14.9c0-5-2-9.2-5.9-12.7c-4-3.4-8.6-5.1-13.8-5.1c-6.4,0-11.5,2.1-15.1,6.2c-2.2,2.5-3.8,5.5-4.6,9.2h-5.3
		c0.6-4.1,2.6-8.2,6.2-12.2c4.8-5.2,11.1-7.8,18.9-7.8c6.7,0,12.5,2.1,17.4,6.3c4.8,4.1,7.3,9.5,7.3,16.3
		C314,82.8,311.4,89.5,306.3,96.2z"/>
</g>
<g class="st0">
	<path class="st3" d="M321.6,140l-4-3.1L369,58.9h-50.6V54h59.7L321.6,140z"/>
</g>
<g class="st0">
	<path class="st3" d="M417.8,131.1c-5.6,5.9-12.9,8.9-21.9,8.9c-13.5,0-22.7-5.9-27.7-17.8l4.5-1.8c2.3,4.7,5,8.2,8.1,10.5
		c3.9,2.9,8.9,4.3,15.1,4.3c7.4,0,13.4-2.6,18.2-7.7c4.8-5.1,7.1-11.4,7.1-18.9c0-7.4-2.7-13.3-8-17.8c-5-4.3-10.8-6.3-17.4-6.1
		l-3.8,0.1h-1.8c-0.7,0-1.7,0.2-2.9,0.5c-2.7,0-5.5,0.6-8.4,1.7l8.4-32.9H420v4.9h-28.8l-5.1,21.9l4.8-0.6l5-0.4
		c7.6-0.5,14.5,1.9,20.7,7.1c6.3,5.4,9.5,12.6,9.5,21.6C426.1,117.7,423.3,125.3,417.8,131.1z"/>
</g>
<g>
	<g class="st0">
		<g>
			<g>
				<g>
					<defs>
						<rect id="SVGID_3_" x="1167.2" y="608.9" width="124.1" height="68.3"/>
					</defs>
					<clipPath id="SVGID_4_">
						<use xlink:href="#SVGID_3_"  style="overflow:visible;"/>
					</clipPath>
					<rect x="1199.1" y="612.8" class="st4" width="60.2" height="39.5"/>
				</g>
			</g>
		</g>
	</g>
	<g class="st0">
		<g>
			<g>
				<g>
					<defs>
						<rect id="SVGID_5_" x="1167.2" y="655.8" width="124.1" height="68.3"/>
					</defs>
					<clipPath id="SVGID_6_">
						<use xlink:href="#SVGID_5_"  style="overflow:visible;"/>
					</clipPath>
					<rect x="1199.1" y="659.7" class="st5" width="60.2" height="39.5"/>
				</g>
			</g>
		</g>
	</g>
</g>
<text transform="matrix(-6.123234e-17 -1 1 -6.123234e-17 1193.0598 648.3184)" class="st3" style="font-family:'GeosansLight'; font-size:20.9974px;">2</text>
<text transform="matrix(-6.123234e-17 -1 1 -6.123234e-17 1193.0598 637.6484)" class="st3" style="font-family:'GeosansLight'; font-size:20.9974px;">2</text>
<text transform="matrix(-6.123234e-17 -1 1 -6.123234e-17 1193.0598 627.4688)" class="st3" style="font-family:'GeosansLight'; font-size:20.9974px;">5</text>
<text transform="matrix(1 0 0 1 1211.2981 608.9023)" class="st3" style="font-family:'GeosansLight'; font-size:20.9974px;">2</text>
<text transform="matrix(1 0 0 1 1221.7981 608.9023)" class="st3" style="font-family:'GeosansLight'; font-size:20.9974px;">7</text>
<text transform="matrix(1 0 0 1 1230.678 608.9023)" class="st3" style="font-family:'GeosansLight'; font-size:20.9974px;">5</text>
<g>
	<g class="st0">
		<g>
			<g>
				<g>
					<defs>
						<rect id="SVGID_7_" x="1159.4" y="444.8" width="123" height="54.2"/>
					</defs>
					<clipPath id="SVGID_8_">
						<use xlink:href="#SVGID_7_"  style="overflow:visible;"/>
					</clipPath>
					<rect x="1191.3" y="448.7" class="st6" width="59.1" height="25.3"/>
				</g>
			</g>
		</g>
	</g>
	<g class="st0">
		<g>
			<g>
				<g>
					<defs>
						<rect id="SVGID_9_" x="1159.4" y="474.4" width="123" height="54.2"/>
					</defs>
					<clipPath id="SVGID_10_">
						<use xlink:href="#SVGID_9_"  style="overflow:visible;"/>
					</clipPath>
					<rect x="1191.3" y="478.4" class="st7" width="59.1" height="25.3"/>
				</g>
			</g>
		</g>
	</g>
	<g class="st0">
		<g>
			<g>
				<g>
					<defs>
						<rect id="SVGID_11_" x="1159.4" y="504.1" width="123" height="54.2"/>
					</defs>
					<clipPath id="SVGID_12_">
						<use xlink:href="#SVGID_11_"  style="overflow:visible;"/>
					</clipPath>
					<rect x="1191.3" y="508" class="st8" width="59.1" height="25.3"/>
				</g>
			</g>
		</g>
	</g>
</g>
<text transform="matrix(-6.123234e-17 -1 1 -6.123234e-17 1188.1965 487.0039)" class="st3" style="font-family:'GeosansLight'; font-size:20.9974px; letter-spacing:-1;">1</text>
<text transform="matrix(-6.123234e-17 -1 1 -6.123234e-17 1188.1965 479.0635)" class="st3" style="font-family:'GeosansLight'; font-size:20.9974px;">4</text>
<text transform="matrix(-6.123234e-17 -1 1 -6.123234e-17 1188.1965 468.8838)" class="st3" style="font-family:'GeosansLight'; font-size:20.9974px;">3.5</text>
<text transform="matrix(1 0 0 1 1204.5793 444.8789)" class="st3" style="font-family:'GeosansLight'; font-size:20.9974px;">2</text>
<text transform="matrix(1 0 0 1 1215.0793 444.8789)" class="st3" style="font-family:'GeosansLight'; font-size:20.9974px;">7</text>
<text transform="matrix(1 0 0 1 1223.9592 444.8789)" class="st3" style="font-family:'GeosansLight'; font-size:20.9974px;">5</text>
</svg>
