<?xml version="1.0" encoding="utf-8"?>
<!-- Generator: Adobe Illustrator 23.1.0, SVG Export Plug-In . SVG Version: 6.00 Build 0)  -->
<svg version="1.1" id="Livello_1" xmlns="http://www.w3.org/2000/svg" xmlns:xlink="http://www.w3.org/1999/xlink" x="0px" y="0px"
	 viewBox="0 0 701.6 673.7" style="enable-background:new 0 0 701.6 673.7;" xml:space="preserve">
<style type="text/css">
	.st0{enable-background:new    ;}
	.st1{clip-path:url(#SVGID_2_);}
	.st2{fill:#3C3C3B;}
	.st3{clip-path:url(#SVGID_4_);}
	.st4{fill:#E30613;}
</style>
<g>
	<g class="st0">
		<g>
			<g>
				<g>
					<defs>
						<rect id="SVGID_1_" x="60.7" y="155.1" width="615.8" height="339.3"/>
					</defs>
					<clipPath id="SVGID_2_">
						<use xlink:href="#SVGID_1_"  style="overflow:visible;"/>
					</clipPath>
					<g class="st1">
						<path class="st2" d="M518.8,371.3H218.5V173.9h300.3V371.3z M220,369.8h297.3V175.4H220V369.8z"/>
					</g>
				</g>
			</g>
		</g>
	</g>
	<g class="st0">
		<g>
			<g>
				<g>
					<defs>
						<rect id="SVGID_3_" x="60.7" y="387.9" width="615.8" height="339.3"/>
					</defs>
					<clipPath id="SVGID_4_">
						<use xlink:href="#SVGID_3_"  style="overflow:visible;"/>
					</clipPath>
					<g class="st3">
						<path class="st2" d="M518.8,604H218.5V406.7h300.3V604z M220,602.5h297.3V408.2H220V602.5z"/>
					</g>
				</g>
			</g>
		</g>
	</g>
</g>
<g class="st0">
	<path class="st4" d="M151.7,306.2c0.8,0.6,1.9,1.6,3.4,2.8c1.5,1.3,3.4,2.8,5.6,4.8l24.2,21.4v-35.6h4.3v45l-42.2-36.5
		c-4.2-2.9-8.5-4.4-13-4.4c-4.4,0-8.1,1.7-11.2,5.2c-3,3.5-4.5,7.5-4.5,12.1c0,5.6,1.8,10,5.4,13.2c2.2,1.9,4.8,3.3,8,4.1v4.7
		c-3.6-0.5-7.2-2.3-10.7-5.4c-4.6-4.2-6.9-9.7-6.9-16.6c0-5.9,1.8-11,5.5-15.2c3.6-4.2,8.4-6.4,14.3-6.4
		C139.9,299.5,145.8,301.7,151.7,306.2z"/>
</g>
<g class="st0">
	<path class="st4" d="M151.7,253.3c0.8,0.6,1.9,1.6,3.4,2.8c1.5,1.3,3.4,2.8,5.6,4.8l24.2,21.4v-35.6h4.3v45l-42.2-36.5
		c-4.2-2.9-8.5-4.4-13-4.4c-4.4,0-8.1,1.7-11.2,5.2c-3,3.5-4.5,7.5-4.5,12.1c0,5.6,1.8,10,5.4,13.2c2.2,1.9,4.8,3.3,8,4.1v4.7
		c-3.6-0.5-7.2-2.3-10.7-5.4c-4.6-4.2-6.9-9.7-6.9-16.6c0-5.9,1.8-11,5.5-15.2c3.6-4.2,8.4-6.4,14.3-6.4
		C139.9,246.5,145.8,248.8,151.7,253.3z"/>
</g>
<g class="st0">
	<path class="st4" d="M182.3,201.2c5.2,4.9,7.8,11.3,7.8,19.2c0,11.8-5.2,19.9-15.6,24.3l-1.6-4c4.1-2,7.2-4.4,9.2-7.1
		c2.5-3.4,3.8-7.8,3.8-13.2c0-6.5-2.3-11.8-6.8-15.9c-4.4-4.2-10-6.3-16.6-6.3c-6.5,0-11.7,2.3-15.6,7c-3.8,4.4-5.5,9.4-5.3,15.2
		l0.1,3.3v1.6c0,0.6,0.1,1.5,0.4,2.5c0,2.4,0.5,4.8,1.5,7.4l-28.9-7.4v-28.6h4.3v25.2l19.2,4.5l-0.5-4.2l-0.3-4.4
		c-0.4-6.7,1.7-12.7,6.3-18.1c4.7-5.6,11-8.3,19-8.3C170.6,193.9,177.2,196.3,182.3,201.2z"/>
</g>
<g class="st0">
	<path class="st4" d="M324.3,117.9c-0.6,0.8-1.6,1.9-2.8,3.4c-1.3,1.5-2.8,3.4-4.8,5.6L295.3,151H331v4.3h-45l36.5-42.2
		c2.9-4.2,4.4-8.5,4.4-13c0-4.4-1.7-8.1-5.2-11.2c-3.5-3-7.5-4.5-12.1-4.5c-5.6,0-10,1.8-13.2,5.4c-1.9,2.2-3.3,4.8-4.1,8h-4.7
		c0.5-3.6,2.3-7.2,5.4-10.7c4.2-4.6,9.7-6.9,16.6-6.9c5.9,0,11,1.8,15.2,5.5c4.2,3.6,6.4,8.4,6.4,14.3
		C331.1,106.1,328.8,112.1,324.3,117.9z"/>
</g>
<g class="st0">
	<path class="st4" d="M337.8,156.4l-3.5-2.7l45.1-68.5h-44.4v-4.3h52.3L337.8,156.4z"/>
</g>
<g class="st0">
	<path class="st4" d="M422.1,148.5c-4.9,5.2-11.3,7.8-19.2,7.8c-11.8,0-19.9-5.2-24.3-15.6l4-1.6c2,4.1,4.4,7.2,7.1,9.2
		c3.4,2.5,7.8,3.8,13.2,3.8c6.5,0,11.8-2.3,15.9-6.8c4.2-4.4,6.3-10,6.3-16.6c0-6.5-2.3-11.7-7-15.6c-4.4-3.8-9.4-5.5-15.2-5.3
		l-3.3,0.1H398c-0.6,0-1.5,0.1-2.5,0.4c-2.4,0-4.8,0.5-7.4,1.5l7.4-28.9H424v4.3h-25.2l-4.5,19.2l4.2-0.5l4.4-0.3
		c6.7-0.4,12.7,1.7,18.1,6.3c5.6,4.7,8.3,11,8.3,19C429.4,136.8,426.9,143.4,422.1,148.5z"/>
</g>
</svg>
