<?xml version="1.0" encoding="utf-8"?>
<!-- Generator: Adobe Illustrator 23.1.0, SVG Export Plug-In . SVG Version: 6.00 Build 0)  -->
<svg version="1.1" id="Livello_1" xmlns="http://www.w3.org/2000/svg" xmlns:xlink="http://www.w3.org/1999/xlink" x="0px" y="0px"
	 viewBox="0 0 666.4 768" style="enable-background:new 0 0 666.4 768;" xml:space="preserve">
<style type="text/css">
	.st0{enable-background:new    ;}
	.st1{clip-path:url(#SVGID_2_);fill:none;stroke:#3C3C3B;stroke-width:0.25;}
	.st2{clip-path:url(#SVGID_4_);fill:none;stroke:#3C3C3B;stroke-width:0.25;}
	.st3{clip-path:url(#SVGID_6_);}
	.st4{fill:#3C3C3B;}
	.st5{clip-path:url(#SVGID_8_);}
	.st6{clip-path:url(#SVGID_10_);}
	.st7{fill:#E30613;}
</style>
<g>
	<g class="st0">
		<g>
			<g>
				<g>
					<defs>
						<rect id="SVGID_1_" x="1236.4" y="608.9" width="124.1" height="68.3"/>
					</defs>
					<clipPath id="SVGID_2_">
						<use xlink:href="#SVGID_1_"  style="overflow:visible;"/>
					</clipPath>
					<rect x="1268.3" y="612.8" class="st1" width="60.2" height="39.5"/>
				</g>
			</g>
		</g>
	</g>
	<g class="st0">
		<g>
			<g>
				<g>
					<defs>
						<rect id="SVGID_3_" x="1236.4" y="655.8" width="124.1" height="68.3"/>
					</defs>
					<clipPath id="SVGID_4_">
						<use xlink:href="#SVGID_3_"  style="overflow:visible;"/>
					</clipPath>
					<rect x="1268.3" y="659.7" class="st2" width="60.2" height="39.5"/>
				</g>
			</g>
		</g>
	</g>
</g>
<text transform="matrix(-6.123234e-17 -1 1 -6.123234e-17 1262.2704 648.3184)" class="st7" style="font-family:'GeosansLight'; font-size:20.9974px;">2</text>
<text transform="matrix(-6.123234e-17 -1 1 -6.123234e-17 1262.2704 637.6484)" class="st7" style="font-family:'GeosansLight'; font-size:20.9974px;">2</text>
<text transform="matrix(-6.123234e-17 -1 1 -6.123234e-17 1262.2704 627.4688)" class="st7" style="font-family:'GeosansLight'; font-size:20.9974px;">5</text>
<text transform="matrix(1 0 0 1 1280.5087 608.9023)" class="st7" style="font-family:'GeosansLight'; font-size:20.9974px;">2</text>
<text transform="matrix(1 0 0 1 1291.0087 608.9023)" class="st7" style="font-family:'GeosansLight'; font-size:20.9974px;">7</text>
<text transform="matrix(1 0 0 1 1299.8887 608.9023)" class="st7" style="font-family:'GeosansLight'; font-size:20.9974px;">5</text>
<g>
	<g class="st0">
		<g>
			<g>
				<g>
					<defs>
						<rect id="SVGID_5_" x="-6.3" y="193.5" width="691.8" height="304.7"/>
					</defs>
					<clipPath id="SVGID_6_">
						<use xlink:href="#SVGID_5_"  style="overflow:visible;"/>
					</clipPath>
					<g class="st3">
						<path class="st4" d="M506.5,358.6h-334V214.9h334V358.6z M174,357.1h331V216.4H174V357.1z"/>
					</g>
				</g>
			</g>
		</g>
	</g>
	<g class="st0">
		<g>
			<g>
				<g>
					<defs>
						<rect id="SVGID_7_" x="-6.3" y="360.4" width="691.8" height="304.7"/>
					</defs>
					<clipPath id="SVGID_8_">
						<use xlink:href="#SVGID_7_"  style="overflow:visible;"/>
					</clipPath>
					<g class="st5">
						<path class="st4" d="M506.4,525.4H172.7V381.9h333.8V525.4z M173.9,524.2h331.3v-141H173.9V524.2z"/>
					</g>
				</g>
			</g>
		</g>
	</g>
	<g class="st0">
		<g>
			<g>
				<g>
					<defs>
						<rect id="SVGID_9_" x="-6.3" y="527.3" width="691.8" height="304.7"/>
					</defs>
					<clipPath id="SVGID_10_">
						<use xlink:href="#SVGID_9_"  style="overflow:visible;"/>
					</clipPath>
					<g class="st6">
						<path class="st4" d="M506.5,692.5h-334V548.7h334V692.5z M174,691h331V550.2H174V691z"/>
					</g>
				</g>
			</g>
		</g>
	</g>
</g>
<g class="st0">
	<path class="st7" d="M155.9,396.3H76.5v14.3l-4.8-3.2v-15.9h84.3V396.3z"/>
</g>
<g class="st0">
	<path class="st7" d="M139.9,332.8h16.1v5h-16.1v43.3l-69.5-48.3h64.7V323h4.7V332.8z M85.4,337.8l49.7,34.7v-34.7H85.4z"/>
</g>
<g class="st0">
	<path class="st7" d="M150,280.1c4.3,4.6,6.5,10.4,6.5,17.4c0,5.8-1.6,10.8-4.8,15c-3.2,4-7.8,6.7-13.6,8v-5.2
		c3.9-1,7.1-3.3,9.7-6.7c2.6-3.4,3.9-7.1,3.9-11.1c0-5.2-1.8-9.6-5.3-13.3c-3.7-3.7-8.1-5.6-13.2-5.6c-6.4,0-11.4,2.3-15,6.9
		c-2.8,3.5-4.1,7-4.1,10.6v5h-7v-5c0-5-1.4-8.9-4.1-11.9c-2.7-2.9-6.6-4.4-11.7-4.4c-4.9,0-8.9,1.6-11.9,4.7
		c-3.1,3.2-4.7,7.2-4.7,12.2c0,9.4,5,15.2,14.9,17.1v5.6c-6.1-0.7-10.9-3.1-14.4-7.2c-3.5-4.1-5.3-9.3-5.3-15.5
		c0-6.5,2-11.9,5.9-16.2c3.9-4.3,9.1-6.5,15.6-6.5c10.5,0,16.9,5.3,19.3,15.8c3.3-11,10.9-16.5,22.7-16.5
		C140.2,273.3,145.8,275.6,150,280.1z"/>
	<path class="st7" d="M156.7,258.9c0,0.9-0.4,1.8-1.1,2.7c-0.7,0.7-1.7,1.1-2.8,1.2c-2.1,0-3.4-1.3-3.9-3.9c0-2,1.3-3.3,3.9-3.9
		C155.4,255,156.7,256.3,156.7,258.9z"/>
	<path class="st7" d="M148.3,199.1c5.9,5.6,8.9,12.8,8.9,21.7c0,13.4-5.9,22.6-17.7,27.5l-1.8-4.5c4.6-2.3,8.1-5,10.4-8
		c2.8-3.9,4.3-8.9,4.3-15c0-7.3-2.6-13.3-7.7-18.1c-5-4.7-11.3-7.1-18.8-7.1c-7.3,0-13.2,2.6-17.7,7.9c-4.3,5-6.3,10.7-6,17.2
		l0.1,3.8v1.8c0,0.7,0.2,1.7,0.5,2.8c0,2.7,0.6,5.5,1.7,8.4l-32.7-8.4v-32.4h4.8v28.6l21.7,5.1l-0.6-4.7l-0.4-5
		c-0.5-7.6,1.9-14.4,7.1-20.6c5.4-6.3,12.5-9.4,21.5-9.4C135,190.8,142.4,193.6,148.3,199.1z"/>
</g>
<g class="st0">
	<path class="st7" d="M298.8,151.8c-0.7,0.9-1.8,2.1-3.2,3.8c-1.4,1.7-3.2,3.8-5.4,6.3l-24.2,27.4h40.4v4.8h-51l41.3-47.8
		c3.3-4.7,5-9.6,5-14.8c0-5-2-9.2-5.9-12.6c-3.9-3.4-8.5-5.1-13.7-5.1c-6.4,0-11.4,2-15,6.1c-2.2,2.4-3.7,5.5-4.6,9.1h-5.3
		c0.6-4.1,2.6-8.2,6.1-12.2c4.7-5.2,11-7.8,18.8-7.8c6.7,0,12.4,2.1,17.2,6.3c4.8,4.1,7.2,9.5,7.2,16.2
		C306.5,138.5,303.9,145.2,298.8,151.8z"/>
</g>
<g class="st0">
	<path class="st7" d="M314,195.4l-4-3.1l51.1-77.6h-50.3v-4.8h59.3L314,195.4z"/>
</g>
<g class="st0">
	<path class="st7" d="M409.6,186.5c-5.6,5.9-12.8,8.9-21.7,8.9c-13.4,0-22.6-5.9-27.5-17.7l4.5-1.8c2.3,4.6,5,8.1,8,10.4
		c3.9,2.8,8.9,4.3,15,4.3c7.3,0,13.3-2.6,18.1-7.7c4.7-5,7.1-11.3,7.1-18.8c0-7.3-2.6-13.2-7.9-17.7c-5-4.3-10.7-6.3-17.2-6
		l-3.8,0.1h-1.8c-0.7,0-1.7,0.2-2.8,0.5c-2.7,0-5.5,0.6-8.4,1.7l8.4-32.7h32.4v4.8h-28.6l-5.1,21.7l4.7-0.6l5-0.4
		c7.6-0.5,14.4,1.9,20.6,7.1c6.3,5.4,9.4,12.5,9.4,21.5C417.8,173.2,415.1,180.7,409.6,186.5z"/>
</g>
</svg>
