<?xml version="1.0" encoding="utf-8"?>
<!-- Generator: Adobe Illustrator 23.1.0, SVG Export Plug-In . SVG Version: 6.00 Build 0)  -->
<svg version="1.1" id="Livello_1" xmlns="http://www.w3.org/2000/svg" xmlns:xlink="http://www.w3.org/1999/xlink" x="0px" y="0px"
	 viewBox="0 0 543.8 729.5" style="enable-background:new 0 0 543.8 729.5;" xml:space="preserve">
<style type="text/css">
	.st0{enable-background:new    ;}
	.st1{clip-path:url(#SVGID_2_);fill:none;stroke:#3C3C3B;stroke-width:0.25;}
	.st2{clip-path:url(#SVGID_4_);fill:none;stroke:#3C3C3B;stroke-width:0.25;}
	.st3{clip-path:url(#SVGID_6_);fill:none;stroke:#3C3C3B;stroke-width:0.25;}
	.st4{clip-path:url(#SVGID_8_);fill:none;stroke:#3C3C3B;stroke-width:0.25;}
	.st5{clip-path:url(#SVGID_10_);fill:none;stroke:#3C3C3B;stroke-width:0.25;}
	.st6{clip-path:url(#SVGID_12_);fill:none;stroke:#3C3C3B;stroke-width:0.25;}
	.st7{clip-path:url(#SVGID_14_);}
	.st8{fill:#3C3C3B;}
	.st9{clip-path:url(#SVGID_16_);}
	.st10{clip-path:url(#SVGID_18_);}
	.st11{clip-path:url(#SVGID_20_);}
	.st12{clip-path:url(#SVGID_22_);}
	.st13{fill:#E30613;}
</style>
<g>
	<g class="st0">
		<g>
			<g>
				<g>
					<defs>
						<rect id="SVGID_1_" x="1163.7" y="296.9" width="123" height="115.3"/>
					</defs>
					<clipPath id="SVGID_2_">
						<use xlink:href="#SVGID_1_"  style="overflow:visible;"/>
					</clipPath>
					<rect x="1195.6" y="300.8" class="st1" width="59.1" height="86.4"/>
				</g>
			</g>
		</g>
	</g>
</g>
<text transform="matrix(-6.123234e-17 -1 1 -6.123234e-17 1190.5387 363.4531)" class="st13" style="font-family:'GeosansLight'; font-size:20.9974px;">480</text>
<text transform="matrix(1 0 0 1 1208.7789 296.9023)" class="st13" style="font-family:'GeosansLight'; font-size:20.9974px;">2</text>
<text transform="matrix(1 0 0 1 1219.2789 296.9023)" class="st13" style="font-family:'GeosansLight'; font-size:20.9974px;">7</text>
<text transform="matrix(1 0 0 1 1228.1589 296.9023)" class="st13" style="font-family:'GeosansLight'; font-size:20.9974px;">5</text>
<g>
	<g class="st0">
		<g>
			<g>
				<g>
					<defs>
						<rect id="SVGID_3_" x="1170.5" y="608.9" width="124.1" height="68.3"/>
					</defs>
					<clipPath id="SVGID_4_">
						<use xlink:href="#SVGID_3_"  style="overflow:visible;"/>
					</clipPath>
					<rect x="1202.5" y="612.8" class="st2" width="60.2" height="39.5"/>
				</g>
			</g>
		</g>
	</g>
	<g class="st0">
		<g>
			<g>
				<g>
					<defs>
						<rect id="SVGID_5_" x="1170.5" y="655.8" width="124.1" height="68.3"/>
					</defs>
					<clipPath id="SVGID_6_">
						<use xlink:href="#SVGID_5_"  style="overflow:visible;"/>
					</clipPath>
					<rect x="1202.5" y="659.7" class="st3" width="60.2" height="39.5"/>
				</g>
			</g>
		</g>
	</g>
</g>
<text transform="matrix(-6.123234e-17 -1 1 -6.123234e-17 1196.3981 648.3184)" class="st13" style="font-family:'GeosansLight'; font-size:20.9974px;">2</text>
<text transform="matrix(-6.123234e-17 -1 1 -6.123234e-17 1196.3981 637.6484)" class="st13" style="font-family:'GeosansLight'; font-size:20.9974px;">2</text>
<text transform="matrix(-6.123234e-17 -1 1 -6.123234e-17 1196.3981 627.4688)" class="st13" style="font-family:'GeosansLight'; font-size:20.9974px;">5</text>
<text transform="matrix(1 0 0 1 1214.6364 608.9023)" class="st13" style="font-family:'GeosansLight'; font-size:20.9974px;">2</text>
<text transform="matrix(1 0 0 1 1225.1364 608.9023)" class="st13" style="font-family:'GeosansLight'; font-size:20.9974px;">7</text>
<text transform="matrix(1 0 0 1 1234.0164 608.9023)" class="st13" style="font-family:'GeosansLight'; font-size:20.9974px;">5</text>
<g>
	<g class="st0">
		<g>
			<g>
				<g>
					<defs>
						<rect id="SVGID_7_" x="1162.7" y="444.8" width="123" height="54.2"/>
					</defs>
					<clipPath id="SVGID_8_">
						<use xlink:href="#SVGID_7_"  style="overflow:visible;"/>
					</clipPath>
					<rect x="1194.6" y="448.7" class="st4" width="59.1" height="25.3"/>
				</g>
			</g>
		</g>
	</g>
	<g class="st0">
		<g>
			<g>
				<g>
					<defs>
						<rect id="SVGID_9_" x="1162.7" y="474.4" width="123" height="54.2"/>
					</defs>
					<clipPath id="SVGID_10_">
						<use xlink:href="#SVGID_9_"  style="overflow:visible;"/>
					</clipPath>
					<rect x="1194.6" y="478.4" class="st5" width="59.1" height="25.3"/>
				</g>
			</g>
		</g>
	</g>
	<g class="st0">
		<g>
			<g>
				<g>
					<defs>
						<rect id="SVGID_11_" x="1162.7" y="504.1" width="123" height="54.2"/>
					</defs>
					<clipPath id="SVGID_12_">
						<use xlink:href="#SVGID_11_"  style="overflow:visible;"/>
					</clipPath>
					<rect x="1194.6" y="508" class="st6" width="59.1" height="25.3"/>
				</g>
			</g>
		</g>
	</g>
</g>
<text transform="matrix(-6.123234e-17 -1 1 -6.123234e-17 1191.5348 487.0039)" class="st13" style="font-family:'GeosansLight'; font-size:20.9974px; letter-spacing:-1;">1</text>
<text transform="matrix(-6.123234e-17 -1 1 -6.123234e-17 1191.5348 479.0635)" class="st13" style="font-family:'GeosansLight'; font-size:20.9974px;">4</text>
<text transform="matrix(-6.123234e-17 -1 1 -6.123234e-17 1191.5348 468.8838)" class="st13" style="font-family:'GeosansLight'; font-size:20.9974px;">3.5</text>
<text transform="matrix(1 0 0 1 1207.9176 444.8789)" class="st13" style="font-family:'GeosansLight'; font-size:20.9974px;">2</text>
<text transform="matrix(1 0 0 1 1218.4176 444.8789)" class="st13" style="font-family:'GeosansLight'; font-size:20.9974px;">7</text>
<text transform="matrix(1 0 0 1 1227.2976 444.8789)" class="st13" style="font-family:'GeosansLight'; font-size:20.9974px;">5</text>
<g>
	<g class="st0">
		<g>
			<g>
				<g>
					<defs>
						<rect id="SVGID_13_" x="10.7" y="162.2" width="551.5" height="208.7"/>
					</defs>
					<clipPath id="SVGID_14_">
						<use xlink:href="#SVGID_13_"  style="overflow:visible;"/>
					</clipPath>
					<g class="st7">
						<path class="st8" d="M419.5,259.5H153.4v-80.2h266.1V259.5z M154.4,258.5h264.1v-78.2H154.4V258.5z"/>
					</g>
				</g>
			</g>
		</g>
	</g>
	<g class="st0">
		<g>
			<g>
				<g>
					<defs>
						<rect id="SVGID_15_" x="10.7" y="260.9" width="551.5" height="208.7"/>
					</defs>
					<clipPath id="SVGID_16_">
						<use xlink:href="#SVGID_15_"  style="overflow:visible;"/>
					</clipPath>
					<g class="st9">
						<path class="st8" d="M419.5,358.2H153.4V278h266.1V358.2z M154.4,357.2h264.1V279H154.4V357.2z"/>
					</g>
				</g>
			</g>
		</g>
	</g>
	<g class="st0">
		<g>
			<g>
				<g>
					<defs>
						<rect id="SVGID_17_" x="10.7" y="360.3" width="551.5" height="208.7"/>
					</defs>
					<clipPath id="SVGID_18_">
						<use xlink:href="#SVGID_17_"  style="overflow:visible;"/>
					</clipPath>
					<g class="st10">
						<path class="st8" d="M419.5,457.6H153.4v-80.2h266.1V457.6z M154.4,456.6h264.1v-78.2H154.4V456.6z"/>
					</g>
				</g>
			</g>
		</g>
	</g>
	<g class="st0">
		<g>
			<g>
				<g>
					<defs>
						<rect id="SVGID_19_" x="10.7" y="454.5" width="551.5" height="208.7"/>
					</defs>
					<clipPath id="SVGID_20_">
						<use xlink:href="#SVGID_19_"  style="overflow:visible;"/>
					</clipPath>
					<g class="st11">
						<path class="st8" d="M419.5,551.8H153.4v-80.2h266.1V551.8z M154.4,550.8h264.1v-78.2H154.4V550.8z"/>
					</g>
				</g>
			</g>
		</g>
	</g>
	<g class="st0">
		<g>
			<g>
				<g>
					<defs>
						<rect id="SVGID_21_" x="10.7" y="553.9" width="551.5" height="208.7"/>
					</defs>
					<clipPath id="SVGID_22_">
						<use xlink:href="#SVGID_21_"  style="overflow:visible;"/>
					</clipPath>
					<g class="st12">
						<path class="st8" d="M419.5,651.2H153.4V571h266.1V651.2z M154.4,650.2h264.1V572H154.4V650.2z"/>
					</g>
				</g>
			</g>
		</g>
	</g>
</g>
<g class="st0">
	<path class="st13" d="M137.3,293.3l-2.4,3.2L73,255.8v40.1h-3.9v-47.3L137.3,293.3z"/>
</g>
<g class="st0">
	<path class="st13" d="M130.3,217.1c4.7,4.5,7.1,10.2,7.1,17.3c0,10.7-4.7,18-14.1,21.9l-1.4-3.6c3.7-1.8,6.5-4,8.3-6.4
		c2.3-3.1,3.4-7.1,3.4-12c0-5.8-2-10.6-6.1-14.4c-4-3.8-9-5.6-15-5.6c-5.8,0-10.5,2.1-14.1,6.3c-3.4,4-5,8.5-4.8,13.7l0.1,3v1.4
		c0,0.6,0.1,1.3,0.4,2.3c0,2.1,0.4,4.4,1.3,6.7l-26.1-6.7v-25.8H73v22.8l17.3,4l-0.5-3.8l-0.3-4c-0.4-6,1.5-11.5,5.6-16.4
		c4.3-5,10-7.5,17.1-7.5C119.7,210.6,125.6,212.8,130.3,217.1z"/>
</g>
<g class="st0">
	<path class="st13" d="M247.5,127.9c-0.6,0.7-1.4,1.7-2.5,3.1c-1.1,1.4-2.6,3-4.3,5l-19.3,21.8h32.2v3.9h-40.7l33-38.1
		c2.6-3.8,4-7.7,4-11.8c0-4-1.6-7.3-4.7-10.1c-3.1-2.7-6.8-4-10.9-4c-5.1,0-9.1,1.6-12,4.9c-1.8,1.9-3,4.4-3.7,7.3h-4.2
		c0.4-3.3,2.1-6.5,4.9-9.7c3.8-4.1,8.8-6.2,15-6.2c5.3,0,9.9,1.7,13.7,5c3.8,3.3,5.7,7.6,5.7,12.9
		C253.6,117.3,251.6,122.6,247.5,127.9z"/>
</g>
<g class="st0">
	<path class="st13" d="M259.6,162.6l-3.2-2.4l40.8-61.9h-40.1v-3.9h47.3L259.6,162.6z"/>
</g>
<g class="st0">
	<path class="st13" d="M335.8,155.6c-4.5,4.7-10.2,7.1-17.3,7.1c-10.7,0-18-4.7-21.9-14.1l3.6-1.4c1.8,3.7,4,6.5,6.4,8.3
		c3.1,2.3,7.1,3.4,12,3.4c5.8,0,10.6-2,14.4-6.1c3.8-4,5.6-9,5.6-15c0-5.8-2.1-10.5-6.3-14.1c-4-3.4-8.5-5-13.7-4.8l-3,0.1H314
		c-0.6,0-1.3,0.1-2.3,0.4c-2.1,0-4.4,0.4-6.7,1.3l6.7-26.1h25.8v3.9h-22.8l-4,17.3l3.8-0.5l4-0.3c6-0.4,11.5,1.5,16.4,5.6
		c5,4.3,7.5,10,7.5,17.1C342.4,145,340.2,150.9,335.8,155.6z"/>
</g>
</svg>
