<?xml version="1.0" encoding="utf-8"?>
<!-- Generator: Adobe Illustrator 23.0.1, SVG Export Plug-In . SVG Version: 6.00 Build 0)  -->
<svg version="1.1" id="Livello_1" xmlns="http://www.w3.org/2000/svg" xmlns:xlink="http://www.w3.org/1999/xlink" x="0px" y="0px"
	 viewBox="0 0 53.3 46" style="enable-background:new 0 0 53.3 46;" xml:space="preserve">
<style type="text/css">
	.st0{clip-path:url(#SVGID_2_);}
	.st1{fill:#3C3C3B;}
	.st2{fill:none;stroke:#3C3C3B;stroke-miterlimit:10;}
</style>
<title>Risorsa 2</title>
<g>
	<g id="Livello_1-2">
		<g>
			<defs>
				<circle id="SVGID_1_" cx="26.9" cy="23" r="22.5"/>
			</defs>
			<clipPath id="SVGID_2_">
				<use xlink:href="#SVGID_1_"  style="overflow:visible;"/>
			</clipPath>
			<g class="st0">
				<path class="st1" d="M4.6,10.4l7,2.2l0.2,0.3v0.6L8.2,25.1L7.3,27l-0.4,0.3H6.4L0,25l0.5-0.7l0.7-1.2L2.3,20l1.5-4.8l0.3-1.5
					l0.3-1.9L4.6,10.4z"/>
				<path class="st1" d="M12.8,13.4l9.1,0.2c-1.9,0.9-3.1,4-3.1,4s-1.3,4.2,0.5,6s3.3,0,3.9-0.9s1.8-3,1.8-3s1.5-2.1,4-0.3
					s12.4,10.3,12.4,10.3c0.7,0.5,1,1.3,1,2.2c-0.1,0.6-0.5,1-1,1.3c-1.1,0.6-2.6-0.3-3.2-0.6c-0.1-0.1-0.5-0.4-1.3-1l-1.6-1.2
					c-0.7-0.5-1.7-1.4-3.3-2.7c0,0-0.8-0.4-0.4,0.5l3.6,3.1c1.1,0.8,2,1.6,2.8,2.2s1.1,1,1.1,1.5c0,0.4-0.2,0.7-0.4,1
					c-0.5,0.8-1.5,1-2.4,0.7l-2-1.2L29.4,32c0,0-1-0.4-0.5,0.5l6.4,4.6c0,0,0.2,0.3-0.3,0.7c-0.4,0.5-1,0.7-1.6,0.8
					c-1.1,0.2-2.2,0-3.2-0.6c-1.1-0.8-4.4-3.2-4.4-3.2s-0.2,0.1-0.2,0.2s0.3,0.3,0.4,0.4c1,0.6,3.6,2.8,3.8,2.9l1.3,0.7
					c-0.6,0.3-1.3,0.4-2,0.3c-0.5-0.1-1-0.2-1.4-0.4c-0.4-0.2-0.8-0.5-1.2-0.8c-0.2-0.3-0.5-0.6-0.6-0.9c-0.5-0.8-0.5-1.1-0.9-1.4
					c-0.3-0.2-0.6-0.3-0.9-0.3c0.2-0.5,0.2-1.1,0-1.6c-0.3-0.6-0.8-1.1-1.4-1.4c-0.6-0.2-1.2,0-1.7,0.4c0,0,0.4-1.2-1.1-2.2
					c0,0-1.3-1-3.6,0.4l-0.7,0.4c0.1-0.9-0.4-1.8-1.3-2.1c-1-0.5-2.2-0.4-3.1,0.2c0,0-3.4-1.6-2.3-4.7l3.2-11.1L12.8,13.4z"/>
				<path class="st1" d="M45.8,10c0.4,1.7,1,3.4,1.8,5c1.2,1.9,4.7,9.3,5.6,9.1S47,27.7,47,27.7c-2-2.8-3.7-5.7-5.2-8.8
					c-1-1.7-1.8-3.4-2.4-5.3C41.4,12.1,43.6,10.9,45.8,10z"/>
				<path class="st1" d="M38.2,13.8c0.8,1,1.5,2.2,1.9,3.4c0.9,1.5,1.8,3.1,2.5,4.7c0.4,1.1,2.8,4.4,2.3,5.7c-0.3,0.8-1,1.5-1.8,1.8
					c0,0-1.1,0.5-2.9-1.5l-10.5-9.2c-1.1-0.8-2.5-1-3.8-0.7c0,0-1.4,0.3-2.4,2.7c0,0-0.8,2.5-2.9,2.7c0,0-2-0.1-1.5-3.3
					c-0.2-1.9,0.4-3.7,1.6-5.2c1-0.7,2.1-1.4,3.1-2c1.9-1,2.9-1.6,4.2-1.7c1.6-0.1,3.2,0.4,4.5,1.3C34.5,12.5,36.5,12.8,38.2,13.8
					L38.2,13.8z"/>
				<path class="st1" d="M13.1,29.8c1.1,0,2,0.9,2,1.9c-0.1,0.5-0.4,1-0.9,1.2c-0.8,0.3-1.8-0.1-2.2-0.8c-0.3-0.5-0.3-1.2,0-1.7
					C12.3,30,12.7,29.8,13.1,29.8z"/>
				<path class="st1" d="M16.2,32c0.9-0.7,2.1-1,3.2-0.8c0.3,0.1,0.7,0.3,0.9,0.5c0.4,0.5,0.4,1.2,0.1,1.8c-0.1,0.3-0.2,0.3-0.9,1
					c-1.2,1.1-1.2,1.4-1.7,1.5c-0.5,0.2-1,0.2-1.5,0c-0.9-0.5-1.5-1.5-1.3-2.5C15.2,32.9,15.6,32.4,16.2,32z"/>
				<path class="st1" d="M23.8,34.5c0.1,0.5-0.2,0.9-0.6,1.8c-0.5,1-0.9,1.5-1.5,1.8c-0.5,0.2-1,0.3-1.5,0.2c-0.1,0-1.1-0.3-1.3-1.1
					c-0.1-0.4,0.1-0.8,0.5-1.4c0.5-1,1.3-1.8,2.3-2.3c0.3-0.2,0.6-0.3,1-0.3C23.3,33.4,23.7,33.9,23.8,34.5z"/>
				<path class="st1" d="M23.7,36.9c0.3-0.3,0.6-0.6,0.9-0.5s0.5,0.5,0.7,0.9c0.9,1.6,2.2,1.7,2.1,2.3S26,40.5,25,40.3
					c-0.6,0-1.2-0.3-1.5-0.8c-0.4-0.4-0.5-1-0.4-1.5C23.1,37.6,23.3,37.2,23.7,36.9z"/>
			</g>
		</g>
		<circle class="st2" cx="26.9" cy="23" r="22.5"/>
	</g>
</g>
</svg>
