<?xml version="1.0" encoding="utf-8"?>
<!-- Generator: Adobe Illustrator 23.0.1, SVG Export Plug-In . SVG Version: 6.00 Build 0)  -->
<svg version="1.1" id="Livello_1" xmlns="http://www.w3.org/2000/svg" xmlns:xlink="http://www.w3.org/1999/xlink" x="0px" y="0px"
	 viewBox="0 0 46 46" style="enable-background:new 0 0 46 46;" xml:space="preserve">
<style type="text/css">
	.st0{fill:#3C3C3B;}
	.st1{fill:#FFFFFF;}
	.st2{fill:none;stroke:#3C3C3B;stroke-miterlimit:10;}
</style>
<title>Risorsa 1</title>
<g>
	<g id="Livello_1-2">
		<path class="st0" d="M36,27.4c0,7.4-6,13.5-13.4,13.5c-7.4,0-13.5-6-13.5-13.4c0-7.4,6-13.5,13.4-13.5S36,20,36,27.4
			C36,27.4,36,27.4,36,27.4z"/>
		<path class="st0" d="M25.8,3c0.1,3.1,0.9,6.2,2.2,9.1c1.3,2.7,3,5.1,5.2,7.2c0.2,0.2,0.2,0.5,0,0.7c-0.1,0.1-0.2,0.1-0.3,0.2
			c-8,2.1-15.9,5.3-23.9,7.3c-0.1-2.6,0.3-5.2,1.1-7.7c1.3-3.6,3.4-6.9,6.1-9.6C19,7.3,22.2,4.8,25.8,3z"/>
		<path class="st1" d="M14.6,16.6c-0.2,0-5.6,11.8-0.4,18c2.6,3.1,7.1,4,7.2,3.6s-4-1.6-6.5-5.2C10.4,26.5,14.8,16.6,14.6,16.6z"/>
		<circle class="st2" cx="23" cy="23" r="22.5"/>
	</g>
</g>
</svg>
