<?xml version="1.0" encoding="utf-8"?>
<!-- Generator: Adobe Illustrator 23.0.1, SVG Export Plug-In . SVG Version: 6.00 Build 0)  -->
<svg version="1.1" id="Livello_1" xmlns="http://www.w3.org/2000/svg" xmlns:xlink="http://www.w3.org/1999/xlink" x="0px" y="0px"
	 viewBox="0 0 46 46" style="enable-background:new 0 0 46 46;" xml:space="preserve">
<style type="text/css">
	.st0{clip-path:url(#SVGID_2_);}
	.st1{fill:#FFFFFF;}
	.st2{fill:#3C3C3B;}
	.st3{fill:none;stroke:#3C3C3B;stroke-miterlimit:10;}
</style>
<title>Risorsa 10</title>
<g>
	<g id="Livello_1-2">
		<g>
			<g>
				<defs>
					<circle id="SVGID_1_" cx="23" cy="23" r="22.5"/>
				</defs>
				<clipPath id="SVGID_2_">
					<use xlink:href="#SVGID_1_"  style="overflow:visible;"/>
				</clipPath>
				<g class="st0">
					<path class="st1" d="M22.3,32.9l-6.4-4.6c-0.6-0.4-0.8-0.4-1.3,0.2c-1.2,1.5-2.4,3-3.7,4.5c-2.1,2.6-4.2,5.2-6.3,7.8
						c-0.1,0.1-0.2,0.3-0.3,0.5c-0.1,0.5,0.3,0.8,0.8,0.8c10,0,20,0,30,0c0.8,0,1-0.2,1-1c0-7.6,0-15.3,0-22.9c0-0.2,0-0.3,0-0.5
						c-0.1-0.3-0.4-0.5-0.7-0.5c-0.1,0-0.2,0.1-0.3,0.1c-0.1,0.1-0.2,0.2-0.3,0.3l-9,11L22.3,32.9z"/>
					<path class="st2" d="M1,41.2l8.2-10l5-6.1c0.4-0.5,0.7-0.6,1.3-0.2l6.1,4.4c0.1,0.1,0.2,0.2,0.3,0.2l12.4-15.8l-1-0.7l-1.4-1.1
						c-0.2-0.1-0.4-0.4-0.3-0.7s0.3-0.5,0.6-0.5L38.3,9c0.3-0.1,0.7,0,0.8,0.4c0,0.1,0.1,0.2,0,0.3c-0.1,1.3-0.2,2.7-0.2,4
						c0,0.6-0.1,1.3-0.1,1.9c0,0.3,0,0.6-0.4,0.8c-0.3,0.1-0.7,0.1-0.9-0.2c-0.7-0.6-1.5-1.2-2.3-1.8l-2.4,3.1l-10.3,13
						c-0.4,0.5-0.7,0.5-1.2,0.2l-6-4.3L15,26.1l-1.6,2l-11,13.5l-0.1,0.1c-0.5,0.6-0.9,0.5-1.3,0L1,41.2z M33.7,11.5l3.9,3.1
						l0.3-4.3L33.7,11.5z"/>
					<path class="st2" d="M22.3,32.9l3.5-4.3l9-11c0.1-0.1,0.2-0.2,0.3-0.3c0.3-0.2,0.6-0.2,0.9,0.1c0.1,0.1,0.1,0.2,0.1,0.3
						c0,0.2,0,0.3,0,0.5c0,7.6,0,15.3,0,22.9c0,0.8-0.2,1-1,1c-10,0-20,0-30,0c-0.5,0-1-0.3-0.8-0.8c0.1-0.2,0.2-0.4,0.3-0.5
						c2.1-2.6,4.2-5.2,6.3-7.8c1.2-1.5,2.4-3,3.7-4.5c0.4-0.5,0.7-0.6,1.3-0.2L22.3,32.9z"/>
				</g>
			</g>
		</g>
		<circle class="st3" cx="23" cy="23" r="22.5"/>
	</g>
</g>
</svg>
