<?xml version="1.0" encoding="utf-8"?>
<!-- Generator: Adobe Illustrator 23.0.3, SVG Export Plug-In . SVG Version: 6.00 Build 0)  -->
<svg version="1.1" id="Livello_1" xmlns="http://www.w3.org/2000/svg" xmlns:xlink="http://www.w3.org/1999/xlink" x="0px" y="0px"
	 viewBox="0 0 541.04 447.7" style="enable-background:new 0 0 541.04 447.7;" xml:space="preserve">
<style type="text/css">
	.st0{clip-path:url(#SVGID_2_);fill:#E20717;}
	.st1{clip-path:url(#SVGID_2_);fill:none;stroke:#3C3C3B;stroke-width:0.97;}
	.st2{fill:none;stroke:#3C3C3B;stroke-width:0.936;}
	.st3{clip-path:url(#SVGID_4_);fill:none;stroke:#3C3C3B;stroke-width:0.97;}
	.st4{clip-path:url(#SVGID_4_);fill:none;stroke:#3C3C3B;stroke-width:0.936;}
	.st5{fill:none;stroke:#3C3C3B;stroke-width:0.97;}
	.st6{clip-path:url(#SVGID_6_);fill:none;stroke:#3C3C3B;stroke-width:0.97;}
	.st7{clip-path:url(#SVGID_8_);fill:none;stroke:#3C3C3B;stroke-width:0.97;}
	.st8{fill:#3C3C3B;}
	.st9{clip-path:url(#SVGID_10_);fill:none;stroke:#E20717;stroke-width:3;stroke-miterlimit:10;}
	.st10{clip-path:url(#SVGID_10_);fill:#3C3C3B;}
	.st11{clip-path:url(#SVGID_12_);fill:#3C3C3B;}
	.st12{fill:none;stroke:#3C3C3B;}
	.st13{fill:#FFFFFF;}
	.st14{clip-path:url(#SVGID_14_);fill:none;stroke:#3C3C3B;stroke-width:0.97;}
	.st15{clip-path:url(#SVGID_16_);fill:none;stroke:#3C3C3B;stroke-width:0.97;}
	.st16{clip-path:url(#SVGID_18_);fill:none;stroke:#3C3C3B;stroke-width:0.97;}
	.st17{clip-path:url(#SVGID_18_);}
</style>
<g>
	<defs>
		<rect id="SVGID_1_" x="8.64" y="-21.2" width="524" height="345.9"/>
	</defs>
	<clipPath id="SVGID_2_">
		<use xlink:href="#SVGID_1_"  style="overflow:visible;"/>
	</clipPath>
	<path class="st0" d="M142.6,185.83c0-3.08-6.39-5.58-14.26-5.58c-7.88,0-14.26,2.5-14.26,5.58H142.6z"/>
	<path class="st0" d="M177.42,185.83c0-3.08-6.39-5.58-14.26-5.58c-7.88,0-14.26,2.5-14.26,5.58H177.42z"/>
	<path class="st0" d="M220.34,185.86c0-3.08-6.55-5.58-14.64-5.58s-14.64,2.5-14.64,5.58H220.34z"/>
	<path class="st0" d="M256.28,185.83c0-3.08-6.5-5.58-14.52-5.58c-8.02,0-14.52,2.5-14.52,5.58H256.28z"/>
	<path class="st0" d="M297.94,185.83c0-3.08-6.52-5.58-14.56-5.58c-8.04,0-14.56,2.5-14.56,5.58H297.94z"/>
	<path class="st0" d="M334.47,185.83c0-3.08-6.57-5.58-14.67-5.58c-8.1,0-14.67,2.5-14.67,5.58H334.47z"/>
	<path class="st0" d="M369.29,185.78c0-3.08-6.55-5.58-14.62-5.58c-8.08,0-14.62,2.5-14.62,5.58H369.29z"/>
	<path class="st0" d="M402.89,185.83c0-3.08-6.39-5.58-14.26-5.58c-7.88,0-14.26,2.5-14.26,5.58H402.89z"/>
	<path class="st1" d="M498.43,190.1c0,6.96,5.64,12.61,12.61,12.61c6.96,0,12.61-5.64,12.61-12.61c0-6.96-5.65-12.61-12.61-12.61
		C504.08,177.49,498.43,183.14,498.43,190.1z M464.12,248.72c0,11.79,9.56,21.34,21.34,21.34c11.79,0,21.34-9.56,21.34-21.34
		c0-11.79-9.56-21.34-21.34-21.34C473.67,227.38,464.12,236.93,464.12,248.72z M480.02,248.72c0,3.01,2.44,5.44,5.44,5.44
		c3.01,0,5.44-2.44,5.44-5.44s-2.44-5.44-5.44-5.44C482.45,243.28,480.02,245.71,480.02,248.72z M188.87,84.25
		c0,7.6,6.16,13.76,13.76,13.76c7.6,0,13.76-6.16,13.76-13.76c0-7.6-6.16-13.76-13.76-13.76C195.04,70.49,188.87,76.65,188.87,84.25
		z M199.13,84.25c0,1.94,1.57,3.51,3.51,3.51c1.94,0,3.51-1.57,3.51-3.51c0-1.94-1.57-3.51-3.51-3.51
		C200.7,80.74,199.13,82.31,199.13,84.25z M264.33,210.01h-82.69v-61.73h82.69V210.01z M267.51,173.16v-66.79h18.93l16.55,66.42
		L267.51,173.16z M110.76,143.86H80.58v-10.61h30.18V143.86z M89.89,176.94h11.58v-33.07H89.89V176.94z M34.21,164.13
		c0,7.11,5.77,12.88,12.89,12.88c7.12,0,12.88-5.77,12.88-12.88c0-7.12-5.77-12.88-12.88-12.88
		C39.98,151.24,34.21,157.01,34.21,164.13z M39.9,184.21c0,3.98,3.22,7.2,7.2,7.2c3.98,0,7.2-3.22,7.2-7.2c0-3.98-3.22-7.2-7.2-7.2
		C43.12,177.01,39.9,180.23,39.9,184.21z M106.77,188.58c0-6.13-4.97-11.09-11.09-11.09c-6.13,0-11.09,4.97-11.09,11.09H106.77z
		 M26.65,177.49h87.74v8.82h28.21v-9.92h6.43v9.92h28.2v-7.53h13.41v7.53h30.04v-7.99h6.34v7.99h29.58v-8.18h11.94v8.18h29.77v-8.45
		h6.34v8.45h30.04v-7.99h4.78v7.99h30.04v-7.72h4.41v7.72h28.85v-8.45h6.15v8.45h28.48v-7.72h5.28v7.72h31.1v-8.13h32.97
		c0,0,5.16-1.94,10.01,0.69s6.61,6.79,6.87,10.83c0.26,4.04,0.22,7.35,0.22,7.35c0.28,17.46,0,41.25,0,41.25s-2.09,7.98-24.38,26.5
		 M175.63,175.89h4.12c0-7.57,19.25-16.46,42.87-16.46c23.62,0,43.6,8.89,43.6,16.46h42.92l-14.33-59.44c0,0-8.42-43.83-92.81-45.95
		"/>
</g>
<line class="st2" x1="12.79" y1="163.29" x2="21.96" y2="163.29"/>
<g>
	<defs>
		<rect id="SVGID_3_" x="8.64" y="-21.2" width="524" height="345.9"/>
	</defs>
	<clipPath id="SVGID_4_">
		<use xlink:href="#SVGID_3_"  style="overflow:visible;"/>
	</clipPath>
	<polyline class="st3" points="14.2,159.51 9.41,163.37 14.04,167.07 	"/>
	<line class="st4" x1="523.8" y1="163.29" x2="532.98" y2="163.29"/>
</g>
<polyline class="st5" points="525.21,159.51 520.43,163.37 525.05,167.07 "/>
<g>
	<defs>
		<rect id="SVGID_5_" x="8.64" y="-21.2" width="524" height="345.9"/>
	</defs>
	<clipPath id="SVGID_6_">
		<use xlink:href="#SVGID_5_"  style="overflow:visible;"/>
	</clipPath>
	<line class="st6" x1="419.89" y1="324.5" x2="486.72" y2="324.5"/>
</g>
<path class="st5" d="M452.56,254.16v-61.8 M95.2,256.91v-61.8 M251.39,79.62v65.22 M251.39,57.93v17.9 M151.95,34.91h51.69
	 M295.64,107.67h67.73 M45.92,87.97h92.26 M385.68,253.68h67.36 M162.07,256.43H94.71 M250.98,58.41h86.45 M203.14,66.12V34.91
	 M46.4,141.1V87.97"/>
<g>
	<defs>
		<rect id="SVGID_7_" x="8.64" y="-21.2" width="524" height="345.9"/>
	</defs>
	<clipPath id="SVGID_8_">
		<use xlink:href="#SVGID_7_"  style="overflow:visible;"/>
	</clipPath>
	<line class="st7" x1="486.24" y1="324.98" x2="486.24" y2="279.17"/>
</g>
<g>
	<path class="st8" d="M57,76.48v7.3h2.17v0.47h-2.68v-7.77H57z"/>
	<path class="st8" d="M64.85,81.88c0,1.41-1.08,2.49-2.49,2.49s-2.49-1.08-2.49-2.49c0-1.41,1.08-2.49,2.49-2.49
		S64.85,80.48,64.85,81.88z M64.36,81.88c0-1.15-0.86-2.05-2-2.05c-1.14,0-2,0.9-2,2.05s0.86,2.05,2,2.05
		C63.5,83.93,64.36,83.04,64.36,81.88z"/>
</g>
<g>
	<path class="st8" d="M65.76,79.5h0.47v0.75c0.22-0.4,0.65-0.85,1.46-0.85c0.85,0,1.21,0.5,1.32,0.66c0.21,0.34,0.23,0.78,0.23,1.2
		v2.99h-0.47v-2.99c0-0.33-0.01-0.69-0.19-0.96c-0.1-0.17-0.36-0.46-0.93-0.46c-0.65,0-0.99,0.35-1.16,0.66
		c-0.21,0.37-0.26,0.82-0.26,1.28v2.47h-0.47V79.5z"/>
	<path class="st8" d="M75.28,79.5v4.61c0,1.79-0.9,2.82-2.39,2.82c-1.23,0-2.27-0.72-2.33-2.04h0.49c0.08,0.99,0.83,1.59,1.84,1.59
		c1.87,0,1.92-1.89,1.92-2.38v-0.68c-0.48,0.66-1.2,0.94-1.87,0.94c-1.16,0-2.34-0.85-2.34-2.5c0-1.37,0.91-2.48,2.4-2.48
		c0.78,0,1.41,0.35,1.82,0.93V79.5H75.28z M71.09,81.9c0,1.14,0.72,2.04,1.84,2.04c1.18,0,1.91-0.92,1.91-2.08
		c0-1.11-0.72-2.01-1.89-2.01C71.77,79.84,71.09,80.8,71.09,81.9z"/>
	<path class="st8" d="M76.77,77.91c0-0.26,0.19-0.43,0.42-0.43s0.42,0.17,0.42,0.43c0,0.26-0.19,0.43-0.42,0.43
		S76.77,78.17,76.77,77.91z M77.42,79.5v4.75h-0.47V79.5H77.42z"/>
	<path class="st8" d="M79.59,79.94v4.31h-0.47v-4.31H78.6V79.5h0.52v-1.7h0.47v1.7h0.83v0.44H79.59z"/>
	<path class="st8" d="M81.82,79.5v2.86c0,0.34,0.01,0.84,0.3,1.19c0.29,0.35,0.72,0.38,0.94,0.38s0.65-0.04,0.94-0.38
		c0.29-0.35,0.3-0.85,0.3-1.19V79.5h0.47v2.99c0,0.38-0.04,0.88-0.36,1.3c-0.36,0.47-0.93,0.58-1.35,0.58
		c-0.42,0-0.99-0.12-1.35-0.58c-0.33-0.42-0.36-0.92-0.36-1.3V79.5H81.82z"/>
	<path class="st8" d="M90.31,75.76h0.47v8.49h-0.47V83.4c-0.48,0.73-1.23,0.98-1.84,0.98c-1.2,0-2.33-0.86-2.33-2.53
		c0-1.73,1.18-2.46,2.33-2.46c0.86,0,1.47,0.4,1.84,0.93V75.76z M86.63,81.84c0,1.39,0.91,2.1,1.86,2.1c0.94,0,1.84-0.71,1.84-2.1
		c0-1.11-0.69-2-1.86-2C87.5,79.84,86.63,80.51,86.63,81.84z"/>
</g>
<g>
	<path class="st8" d="M92.86,77.91c0-0.26,0.19-0.43,0.42-0.43s0.42,0.17,0.42,0.43c0,0.26-0.19,0.43-0.42,0.43
		S92.86,78.17,92.86,77.91z M93.51,79.5v4.75h-0.47V79.5H93.51z"/>
	<path class="st8" d="M95.19,79.5h0.47v0.75c0.22-0.4,0.65-0.85,1.46-0.85c0.85,0,1.21,0.5,1.32,0.66c0.21,0.34,0.23,0.78,0.23,1.2
		v2.99h-0.47v-2.99c0-0.33-0.01-0.69-0.19-0.96c-0.1-0.17-0.36-0.46-0.93-0.46c-0.65,0-0.99,0.35-1.16,0.66
		c-0.21,0.37-0.26,0.82-0.26,1.28v2.47h-0.47V79.5z"/>
</g>
<g>
	<path class="st8" d="M103.76,79.5h0.47v4.75h-0.47V83.4c-0.48,0.73-1.23,0.98-1.85,0.98c-1.25,0-2.32-0.94-2.32-2.5
		c0-1.47,0.93-2.48,2.32-2.48c0.75,0,1.4,0.29,1.85,0.93V79.5z M100.08,81.84c0,1.07,0.66,2.1,1.86,2.1c1.19,0,1.84-1,1.84-2.1
		c0-1.41-1.04-2-1.85-2C100.99,79.84,100.08,80.55,100.08,81.84z"/>
	<path class="st8" d="M106.36,75.76v8.49h-0.47v-8.49H106.36z"/>
	<path class="st8" d="M114.56,80.61c-0.31-0.36-0.86-0.78-1.64-0.78c-1.16,0-1.98,0.9-1.98,2.06c0,1.36,1.04,2.04,1.96,2.04
		c0.76,0,1.35-0.44,1.72-0.85v0.63c-0.31,0.28-0.9,0.66-1.73,0.66c-1.43,0-2.43-1.06-2.43-2.47c0-1.41,0.94-2.51,2.47-2.51
		c0.34,0,0.99,0.06,1.64,0.61V80.61z"/>
</g>
<g>
	<path class="st8" d="M115.94,79.5v2.86c0,0.34,0.01,0.84,0.3,1.19c0.29,0.35,0.72,0.38,0.94,0.38s0.65-0.04,0.94-0.38
		c0.29-0.35,0.3-0.85,0.3-1.19V79.5h0.47v2.99c0,0.38-0.04,0.88-0.36,1.3c-0.36,0.47-0.93,0.58-1.35,0.58
		c-0.42,0-0.99-0.12-1.35-0.58c-0.33-0.42-0.36-0.92-0.36-1.3V79.5H115.94z"/>
	<path class="st8" d="M121.07,79.94v4.31h-0.47v-4.31h-0.52V79.5h0.52v-1.7h0.47v1.7h0.83v0.44H121.07z"/>
	<path class="st8" d="M123.33,79.94v4.31h-0.47v-4.31h-0.52V79.5h0.52v-1.7h0.47v1.7h0.83v0.44H123.33z"/>
</g>
<g>
	<path class="st8" d="M126.1,77.91c0-0.26,0.19-0.43,0.42-0.43s0.42,0.17,0.42,0.43c0,0.26-0.19,0.43-0.42,0.43
		S126.1,78.17,126.1,77.91z M126.75,79.5v4.75h-0.47V79.5H126.75z"/>
	<path class="st8" d="M128.43,79.5h0.47v0.75c0.22-0.4,0.65-0.85,1.46-0.85c0.85,0,1.21,0.5,1.32,0.66c0.21,0.34,0.23,0.78,0.23,1.2
		v2.99h-0.47v-2.99c0-0.33-0.01-0.69-0.19-0.96c-0.1-0.17-0.36-0.46-0.93-0.46c-0.65,0-0.99,0.35-1.16,0.66
		c-0.21,0.37-0.26,0.82-0.26,1.28v2.47h-0.47V79.5z"/>
</g>
<g>
	<path class="st8" d="M137.51,79.5v4.61c0,1.79-0.9,2.82-2.39,2.82c-1.23,0-2.27-0.72-2.33-2.04h0.49c0.08,0.99,0.83,1.59,1.84,1.59
		c1.87,0,1.92-1.89,1.92-2.38v-0.68c-0.48,0.66-1.2,0.94-1.87,0.94c-1.16,0-2.34-0.85-2.34-2.5c0-1.37,0.91-2.48,2.4-2.48
		c0.78,0,1.41,0.35,1.82,0.93V79.5H137.51z M133.32,81.9c0,1.14,0.72,2.04,1.84,2.04c1.18,0,1.91-0.92,1.91-2.08
		c0-1.11-0.72-2.01-1.89-2.01C134.01,79.84,133.32,80.8,133.32,81.9z"/>
</g>
<g>
	<path class="st8" d="M334.23,82.12c-0.48-0.93-1.32-0.95-1.53-0.95c-0.92,0-1.44,0.66-1.44,1.44c0,0.84,0.58,1.12,1.36,1.5
		c0.77,0.37,1.15,0.54,1.55,0.81c0.34,0.23,0.83,0.64,0.83,1.5c0,1.3-1.09,2.27-2.42,2.27c-1,0-1.51-0.48-1.8-0.81
		c-0.3-0.35-0.43-0.65-0.5-0.85l0.44-0.21c0.1,0.3,0.3,0.61,0.42,0.75c0.35,0.44,0.92,0.66,1.46,0.66c1.05,0,1.88-0.77,1.88-1.79
		c0-0.42-0.16-0.86-0.76-1.22c-0.22-0.13-0.68-0.36-1.32-0.67c-0.77-0.37-1.15-0.58-1.42-1.02c-0.17-0.29-0.24-0.58-0.24-0.88
		c0-0.9,0.61-1.93,1.99-1.93c0.78,0,1.49,0.37,1.89,1.11L334.23,82.12z"/>
	<path class="st8" d="M336.93,80.08v5.77l1.96-2.04h0.61l-2,2.06l2.66,2.69h-0.63l-2.34-2.35l-0.25,0.24v2.11h-0.47v-8.49H336.93z"
		/>
</g>
<g>
	<path class="st8" d="M341.38,82.9c-0.08,0-0.17-0.04-0.27-0.1c-0.07-0.07-0.11-0.16-0.12-0.28c0-0.21,0.13-0.34,0.38-0.38
		c0.19,0,0.32,0.13,0.38,0.38C341.77,82.77,341.64,82.9,341.38,82.9z M341.14,88.57v-4.81h0.48v4.81H341.14z"/>
	<path class="st8" d="M346.44,88.57v-2.88c0-1.02-0.46-1.52-1.37-1.52c-0.45,0-0.79,0.13-1.02,0.4c-0.24,0.26-0.36,0.63-0.36,1.08
		v2.92h-0.48v-4.81h0.48v0.58c0.22-0.43,0.68-0.64,1.38-0.64c0.6,0,1.06,0.17,1.37,0.51c0.32,0.34,0.48,0.82,0.48,1.43v2.92H346.44z
		"/>
</g>
<g>
	<path class="st8" d="M351.15,84.26v4.31h-0.47v-4.31h-0.54v-0.44h0.54v-2.26c0-1.34,0.69-1.62,1.25-1.62c0.2,0,0.33,0.05,0.41,0.07
		v0.43c-0.12-0.05-0.22-0.06-0.36-0.06c-0.41,0-0.83,0.17-0.83,1.27v2.17h1.19v0.44H351.15z"/>
</g>
<g>
	<path class="st8" d="M353.37,82.23c0-0.26,0.19-0.43,0.42-0.43c0.23,0,0.42,0.17,0.42,0.43c0,0.26-0.19,0.43-0.42,0.43
		C353.56,82.66,353.37,82.49,353.37,82.23z M354.02,83.82v4.75h-0.47v-4.75H354.02z"/>
	<path class="st8" d="M356.17,80.08v8.49h-0.47v-8.49H356.17z"/>
</g>
<g>
	<path class="st8" d="M362.16,88.57v-3.32c0-0.29-0.1-0.55-0.29-0.77c-0.19-0.22-0.47-0.33-0.84-0.33c-0.75,0-1.13,0.37-1.13,1.09
		v3.32h-0.48v-3.32c0-0.33-0.11-0.58-0.33-0.78c-0.23-0.21-0.49-0.31-0.8-0.31c-0.32,0-0.59,0.1-0.8,0.3
		c-0.22,0.19-0.33,0.46-0.33,0.79v3.32h-0.48v-4.81h0.48v0.48c0.23-0.36,0.61-0.55,1.13-0.55c0.62,0,1.08,0.25,1.37,0.76
		c0.28-0.5,0.73-0.76,1.36-0.76c0.48,0,0.87,0.14,1.16,0.41c0.29,0.28,0.44,0.66,0.44,1.15v3.32H362.16z"/>
</g>
<g>
	<path class="st8" d="M317.46,105.21h-0.47v-7.43h0.47v0.83c0.45-0.62,1.11-0.93,1.86-0.93c1.43,0,2.3,1.07,2.3,2.44
		c0,1.4-0.88,2.54-2.33,2.54c-1.18,0-1.7-0.75-1.84-0.98V105.21z M321.13,100.12c0-1.3-0.86-2-1.84-2c-0.93,0-1.86,0.66-1.86,1.98
		c0,1.19,0.65,2.12,1.85,2.12S321.13,101.29,321.13,100.12z"/>
	<path class="st8" d="M323,97.78h0.47v0.62c0.17-0.41,0.54-0.72,1.05-0.72c0.13,0,0.33,0.02,0.5,0.12l-0.23,0.42
		c-0.05-0.04-0.14-0.09-0.35-0.09c-0.96,0-0.97,1.27-0.97,1.86v2.55H323V97.78z"/>
</g>
<g>
	<path class="st8" d="M326.08,100.22c0,1.21,0.88,2,1.89,2c0.77,0,1.35-0.45,1.65-1.08l0.4,0.23c-0.28,0.54-0.91,1.29-2.08,1.29
		c-1.48,0-2.34-1.09-2.34-2.48c0-1.65,1.14-2.5,2.31-2.5c1.28,0,2.25,1.02,2.25,2.54H326.08z M329.65,99.77
		c-0.12-0.94-0.81-1.65-1.76-1.65c-0.97,0-1.65,0.73-1.78,1.65H329.65z"/>
	<path class="st8" d="M331.51,94.05h0.47v4.48c0.22-0.4,0.65-0.85,1.46-0.85c0.85,0,1.21,0.5,1.32,0.66
		c0.21,0.34,0.23,0.78,0.23,1.2v2.99h-0.47v-2.99c0-0.33-0.01-0.69-0.19-0.96c-0.1-0.17-0.36-0.46-0.93-0.46
		c-0.65,0-0.99,0.35-1.16,0.66c-0.21,0.37-0.26,0.82-0.26,1.28v2.47h-0.47V94.05z"/>
	<path class="st8" d="M336.85,100.22c0,1.21,0.88,2,1.89,2c0.77,0,1.35-0.45,1.65-1.08l0.4,0.23c-0.28,0.54-0.91,1.29-2.08,1.29
		c-1.48,0-2.34-1.09-2.34-2.48c0-1.65,1.14-2.5,2.31-2.5c1.28,0,2.25,1.02,2.25,2.54H336.85z M340.42,99.77
		c-0.12-0.94-0.81-1.65-1.76-1.65c-0.97,0-1.65,0.73-1.78,1.65H340.42z"/>
	<path class="st8" d="M346.15,97.78h0.47v4.75h-0.47v-0.85c-0.48,0.73-1.23,0.98-1.85,0.98c-1.25,0-2.32-0.94-2.32-2.5
		c0-1.47,0.93-2.48,2.32-2.48c0.75,0,1.4,0.29,1.85,0.93V97.78z M342.47,100.12c0,1.07,0.66,2.1,1.86,2.1c1.19,0,1.84-1,1.84-2.1
		c0-1.41-1.04-2-1.85-2C343.38,98.12,342.47,98.83,342.47,100.12z"/>
	<path class="st8" d="M348.79,98.23v4.31h-0.47v-4.31h-0.52v-0.44h0.52v-1.7h0.47v1.7h0.83v0.44H348.79z"/>
</g>
<g>
	<path class="st8" d="M351.27,96.2c0-0.26,0.19-0.43,0.42-0.43c0.23,0,0.42,0.17,0.42,0.43c0,0.26-0.19,0.43-0.42,0.43
		C351.45,96.63,351.27,96.46,351.27,96.2z M351.92,97.78v4.75h-0.47v-4.75H351.92z"/>
	<path class="st8" d="M353.59,97.78h0.47v0.75c0.22-0.4,0.65-0.85,1.46-0.85c0.85,0,1.21,0.5,1.32,0.66
		c0.21,0.34,0.23,0.78,0.23,1.2v2.99h-0.47v-2.99c0-0.33-0.01-0.69-0.19-0.96c-0.1-0.17-0.36-0.46-0.93-0.46
		c-0.65,0-0.99,0.35-1.16,0.66c-0.21,0.37-0.26,0.82-0.26,1.28v2.47h-0.47V97.78z"/>
</g>
<g>
	<path class="st8" d="M362.67,97.78v4.61c0,1.79-0.9,2.82-2.39,2.82c-1.23,0-2.27-0.72-2.33-2.04h0.49
		c0.08,0.99,0.83,1.59,1.84,1.59c1.87,0,1.92-1.89,1.92-2.38v-0.68c-0.48,0.66-1.2,0.94-1.87,0.94c-1.16,0-2.34-0.85-2.34-2.5
		c0-1.37,0.91-2.48,2.4-2.48c0.78,0,1.41,0.35,1.82,0.93v-0.83H362.67z M358.48,100.18c0,1.14,0.72,2.04,1.84,2.04
		c1.18,0,1.91-0.92,1.91-2.08c0-1.11-0.72-2.01-1.89-2.01C359.17,98.12,358.48,99.09,358.48,100.18z"/>
</g>
<g>
	<path class="st8" d="M167.72,10.74c-0.48-0.93-1.32-0.95-1.52-0.95c-0.92,0-1.44,0.66-1.44,1.44c0,0.84,0.58,1.12,1.36,1.5
		c0.77,0.37,1.15,0.54,1.55,0.81c0.34,0.23,0.83,0.64,0.83,1.5c0,1.3-1.09,2.27-2.42,2.27c-1,0-1.51-0.48-1.8-0.81
		c-0.3-0.35-0.43-0.65-0.5-0.85l0.44-0.21c0.1,0.3,0.3,0.61,0.42,0.75c0.35,0.44,0.92,0.66,1.46,0.66c1.05,0,1.87-0.77,1.87-1.79
		c0-0.42-0.16-0.86-0.76-1.22c-0.22-0.13-0.67-0.36-1.32-0.67c-0.77-0.37-1.15-0.58-1.42-1.02c-0.17-0.29-0.24-0.58-0.24-0.88
		c0-0.9,0.61-1.93,1.99-1.93c0.78,0,1.49,0.37,1.89,1.11L167.72,10.74z"/>
	<path class="st8" d="M170.42,8.7v5.77l1.96-2.04h0.61l-2,2.06l2.65,2.69h-0.63l-2.34-2.35l-0.24,0.24v2.11h-0.47V8.7H170.42z"/>
</g>
<g>
	<path class="st8" d="M174.44,10.85c0-0.26,0.19-0.43,0.42-0.43s0.42,0.17,0.42,0.43c0,0.26-0.19,0.43-0.42,0.43
		S174.44,11.11,174.44,10.85z M175.09,12.44v4.75h-0.47v-4.75H175.09z"/>
	<path class="st8" d="M176.77,12.44h0.47v0.75c0.22-0.4,0.65-0.85,1.46-0.85c0.85,0,1.21,0.5,1.32,0.66
		c0.21,0.34,0.23,0.78,0.23,1.2v2.99h-0.47v-2.99c0-0.33-0.01-0.69-0.19-0.96c-0.1-0.17-0.36-0.46-0.93-0.46
		c-0.65,0-0.99,0.35-1.16,0.66c-0.21,0.37-0.26,0.82-0.26,1.28v2.47h-0.47V12.44z"/>
</g>
<g>
	<path class="st8" d="M184.65,12.88v4.31h-0.47v-4.31h-0.54v-0.44h0.54v-2.26c0-1.34,0.69-1.62,1.25-1.62c0.2,0,0.33,0.05,0.41,0.07
		v0.43C185.72,9.01,185.61,9,185.47,9c-0.41,0-0.83,0.17-0.83,1.27v2.17h1.19v0.44H184.65z"/>
</g>
<g>
	<path class="st8" d="M186.86,10.85c0-0.26,0.19-0.43,0.42-0.43c0.23,0,0.42,0.17,0.42,0.43c0,0.26-0.19,0.43-0.42,0.43
		C187.04,11.28,186.86,11.11,186.86,10.85z M187.51,12.44v4.75h-0.47v-4.75H187.51z"/>
	<path class="st8" d="M189.65,8.7v8.49h-0.47V8.7H189.65z"/>
</g>
<g>
	<path class="st8" d="M190.24,12.44h0.47v0.59c0.36-0.62,0.91-0.7,1.23-0.7c0.93,0,1.23,0.62,1.33,0.86
		c0.27-0.57,0.78-0.86,1.41-0.86c0.52,0,0.86,0.19,1.07,0.4c0.38,0.38,0.41,0.91,0.41,1.29v3.17h-0.47v-3.17
		c0-0.31-0.02-0.71-0.28-0.98c-0.21-0.22-0.49-0.27-0.71-0.27c-1.26,0-1.27,1.26-1.27,1.55v2.86h-0.47v-3.05
		c0-0.3-0.02-1.36-1.05-1.36c-0.83,0-1.21,0.72-1.21,1.66v2.75h-0.47V12.44z"/>
</g>
<g>
	<path class="st8" d="M155.13,24.9v2.86c0,0.34,0.01,0.84,0.3,1.19c0.29,0.35,0.72,0.38,0.94,0.38s0.65-0.04,0.94-0.38
		c0.29-0.35,0.3-0.85,0.3-1.19V24.9h0.47v2.99c0,0.38-0.04,0.88-0.36,1.3c-0.36,0.47-0.93,0.58-1.35,0.58
		c-0.42,0-0.99-0.12-1.35-0.58c-0.33-0.42-0.36-0.92-0.36-1.3V24.9H155.13z"/>
	<path class="st8" d="M159.76,24.9h0.47v0.75c0.22-0.4,0.65-0.85,1.46-0.85c0.85,0,1.21,0.5,1.32,0.66c0.21,0.34,0.23,0.78,0.23,1.2
		v2.99h-0.47v-2.99c0-0.33-0.01-0.69-0.19-0.96c-0.1-0.17-0.36-0.46-0.93-0.46c-0.65,0-0.99,0.35-1.16,0.66
		c-0.21,0.37-0.26,0.82-0.26,1.28v2.47h-0.47V24.9z"/>
</g>
<g>
	<path class="st8" d="M164,24.9l1.64,3.92l1.64-4.21l1.64,4.21l1.69-3.92h0.51l-2.2,5.04l-1.64-4.21l-1.64,4.21l-2.15-5.04H164z"/>
	<path class="st8" d="M171.87,23.32c0-0.26,0.19-0.43,0.42-0.43s0.42,0.17,0.42,0.43c0,0.26-0.19,0.43-0.42,0.43
		S171.87,23.57,171.87,23.32z M172.52,24.9v4.75h-0.47V24.9H172.52z"/>
</g>
<g>
	<path class="st8" d="M173.79,24.9h0.47v0.75c0.22-0.4,0.65-0.85,1.46-0.85c0.85,0,1.21,0.5,1.32,0.66c0.21,0.34,0.23,0.78,0.23,1.2
		v2.99h-0.47v-2.99c0-0.33-0.01-0.69-0.19-0.96c-0.1-0.17-0.36-0.46-0.93-0.46c-0.65,0-0.99,0.35-1.16,0.66
		c-0.21,0.37-0.26,0.82-0.26,1.28v2.47h-0.47V24.9z"/>
	<path class="st8" d="M182.8,21.16h0.47v8.49h-0.47V28.8c-0.48,0.73-1.23,0.98-1.84,0.98c-1.2,0-2.33-0.86-2.33-2.53
		c0-1.73,1.18-2.46,2.33-2.46c0.86,0,1.47,0.4,1.84,0.93V21.16z M179.12,27.24c0,1.39,0.91,2.1,1.86,2.1c0.94,0,1.84-0.71,1.84-2.1
		c0-1.11-0.69-2-1.86-2C179.98,25.24,179.12,25.91,179.12,27.24z"/>
</g>
<g>
	<path class="st8" d="M184.91,23.32c0-0.26,0.19-0.43,0.42-0.43c0.23,0,0.42,0.17,0.42,0.43c0,0.26-0.19,0.43-0.42,0.43
		C185.1,23.75,184.91,23.57,184.91,23.32z M185.56,24.9v4.75h-0.47V24.9H185.56z"/>
	<path class="st8" d="M187.24,24.9h0.47v0.75c0.22-0.4,0.65-0.85,1.46-0.85c0.85,0,1.21,0.5,1.32,0.66c0.21,0.34,0.23,0.78,0.23,1.2
		v2.99h-0.47v-2.99c0-0.33-0.01-0.69-0.19-0.96c-0.1-0.17-0.36-0.46-0.93-0.46c-0.65,0-0.99,0.35-1.16,0.66
		c-0.21,0.37-0.26,0.82-0.26,1.28v2.47h-0.47V24.9z"/>
</g>
<g>
	<path class="st8" d="M196.32,24.9v4.61c0,1.79-0.9,2.82-2.39,2.82c-1.23,0-2.27-0.72-2.33-2.04h0.49c0.08,0.99,0.83,1.59,1.84,1.59
		c1.87,0,1.92-1.89,1.92-2.38v-0.68c-0.48,0.66-1.2,0.94-1.87,0.94c-1.16,0-2.34-0.85-2.34-2.5c0-1.37,0.91-2.48,2.4-2.48
		c0.78,0,1.41,0.35,1.82,0.93V24.9H196.32z M192.13,27.3c0,1.14,0.72,2.04,1.84,2.04c1.18,0,1.91-0.92,1.91-2.08
		c0-1.11-0.72-2.01-1.89-2.01C192.82,25.24,192.13,26.2,192.13,27.3z"/>
</g>
<g>
	<path class="st8" d="M262.26,31.39l2.28,6.61l2.21-6.61h0.56l-2.77,8.08l-2.84-8.08H262.26z"/>
	<path class="st8" d="M272.18,34.41h0.47v4.75h-0.47v-0.85c-0.48,0.73-1.23,0.98-1.85,0.98c-1.25,0-2.32-0.94-2.32-2.5
		c0-1.47,0.93-2.48,2.32-2.48c0.75,0,1.4,0.29,1.85,0.93V34.41z M268.5,36.75c0,1.07,0.66,2.1,1.86,2.1c1.19,0,1.84-1,1.84-2.1
		c0-1.41-1.04-2-1.85-2C269.41,34.75,268.5,35.46,268.5,36.75z"/>
</g>
<g>
	<path class="st8" d="M277.23,35.53c-0.31-0.36-0.86-0.78-1.64-0.78c-1.17,0-1.98,0.9-1.98,2.06c0,1.36,1.04,2.04,1.96,2.04
		c0.76,0,1.35-0.44,1.72-0.85v0.63c-0.31,0.28-0.9,0.66-1.73,0.66c-1.43,0-2.43-1.06-2.43-2.47c0-1.41,0.94-2.51,2.47-2.51
		c0.34,0,0.99,0.06,1.64,0.61V35.53z"/>
</g>
<g>
	<path class="st8" d="M278.34,34.41v2.86c0,0.34,0.01,0.84,0.3,1.19c0.29,0.35,0.72,0.38,0.94,0.38c0.22,0,0.65-0.04,0.94-0.38
		c0.29-0.35,0.3-0.85,0.3-1.19v-2.86h0.47v2.99c0,0.38-0.04,0.88-0.36,1.3c-0.36,0.47-0.93,0.58-1.35,0.58s-0.99-0.12-1.35-0.58
		c-0.33-0.42-0.36-0.92-0.36-1.3v-2.99H278.34z"/>
	<path class="st8" d="M283.43,34.41v2.86c0,0.34,0.01,0.84,0.3,1.19c0.29,0.35,0.72,0.38,0.94,0.38c0.22,0,0.65-0.04,0.94-0.38
		c0.29-0.35,0.3-0.85,0.3-1.19v-2.86h0.47v2.99c0,0.38-0.04,0.88-0.36,1.3c-0.36,0.47-0.93,0.58-1.35,0.58s-0.99-0.12-1.35-0.58
		c-0.33-0.42-0.36-0.92-0.36-1.3v-2.99H283.43z"/>
	<path class="st8" d="M288.07,34.41h0.46V35c0.36-0.62,0.91-0.7,1.23-0.7c0.93,0,1.23,0.62,1.33,0.86c0.27-0.57,0.78-0.86,1.41-0.86
		c0.52,0,0.86,0.19,1.07,0.4c0.38,0.38,0.41,0.91,0.41,1.29v3.17h-0.47v-3.17c0-0.31-0.02-0.71-0.28-0.98
		c-0.21-0.22-0.49-0.27-0.71-0.27c-1.26,0-1.27,1.26-1.27,1.55v2.86h-0.47v-3.05c0-0.3-0.02-1.36-1.05-1.36
		c-0.83,0-1.21,0.72-1.21,1.66v2.75h-0.46V34.41z"/>
</g>
<g>
	<path class="st8" d="M302.12,35.53c-0.31-0.36-0.86-0.78-1.64-0.78c-1.17,0-1.98,0.9-1.98,2.06c0,1.36,1.04,2.04,1.96,2.04
		c0.76,0,1.35-0.44,1.72-0.85v0.63c-0.31,0.28-0.9,0.66-1.73,0.66c-1.43,0-2.43-1.06-2.43-2.47c0-1.41,0.94-2.51,2.47-2.51
		c0.34,0,0.99,0.06,1.64,0.61V35.53z"/>
	<path class="st8" d="M303.45,30.67h0.46v4.48c0.22-0.4,0.65-0.85,1.46-0.85c0.85,0,1.21,0.5,1.32,0.66
		c0.21,0.34,0.23,0.78,0.23,1.2v2.99h-0.47v-2.99c0-0.33-0.01-0.69-0.19-0.96c-0.11-0.17-0.36-0.46-0.93-0.46
		c-0.65,0-0.99,0.35-1.16,0.66c-0.21,0.37-0.26,0.82-0.26,1.28v2.47h-0.46V30.67z"/>
</g>
<g>
	<path class="st8" d="M312.29,34.41h0.47v4.75h-0.47v-0.85c-0.48,0.73-1.23,0.98-1.85,0.98c-1.25,0-2.32-0.94-2.32-2.5
		c0-1.47,0.93-2.48,2.32-2.48c0.75,0,1.4,0.29,1.85,0.93V34.41z M308.61,36.75c0,1.07,0.66,2.1,1.86,2.1c1.19,0,1.84-1,1.84-2.1
		c0-1.41-1.04-2-1.85-2C309.52,34.75,308.61,35.46,308.61,36.75z"/>
	<path class="st8" d="M314.43,34.41h0.47V35c0.36-0.62,0.91-0.7,1.23-0.7c0.93,0,1.23,0.62,1.33,0.86c0.27-0.57,0.78-0.86,1.41-0.86
		c0.52,0,0.86,0.19,1.07,0.4c0.38,0.38,0.41,0.91,0.41,1.29v3.17h-0.47v-3.17c0-0.31-0.02-0.71-0.28-0.98
		c-0.21-0.22-0.49-0.27-0.71-0.27c-1.26,0-1.27,1.26-1.27,1.55v2.86h-0.47v-3.05c0-0.3-0.02-1.36-1.05-1.36
		c-0.83,0-1.21,0.72-1.21,1.66v2.75h-0.47V34.41z"/>
	<path class="st8" d="M322.48,30.67v4.56c0.45-0.62,1.11-0.93,1.86-0.93c1.43,0,2.3,1.07,2.3,2.44c0,1.4-0.88,2.54-2.33,2.54
		c-1.18,0-1.7-0.75-1.84-0.98v0.85h-0.47v-8.49H322.48z M326.16,36.75c0-1.3-0.86-2-1.84-2c-0.93,0-1.86,0.66-1.86,1.98
		c0,1.19,0.65,2.12,1.85,2.12S326.16,37.91,326.16,36.75z"/>
	<path class="st8" d="M328.21,36.84c0,1.21,0.88,2,1.89,2c0.77,0,1.35-0.45,1.65-1.08l0.4,0.23c-0.28,0.54-0.91,1.29-2.08,1.29
		c-1.48,0-2.34-1.09-2.34-2.48c0-1.65,1.14-2.5,2.31-2.5c1.28,0,2.25,1.02,2.25,2.54H328.21z M331.78,36.4
		c-0.12-0.94-0.81-1.65-1.76-1.65c-0.97,0-1.65,0.73-1.78,1.65H331.78z"/>
	<path class="st8" d="M333.64,34.41h0.47v0.62c0.17-0.41,0.54-0.72,1.05-0.72c0.13,0,0.33,0.02,0.5,0.12l-0.23,0.42
		c-0.05-0.04-0.14-0.09-0.35-0.09c-0.96,0-0.97,1.27-0.97,1.86v2.55h-0.47V34.41z"/>
</g>
<g>
	<path class="st8" d="M262.88,48.82v4.31h-0.47v-4.31h-0.52v-0.44h0.52v-1.7h0.47v1.7h0.83v0.44H262.88z"/>
</g>
<g>
	<path class="st8" d="M269.42,50.76c0,1.41-1.08,2.49-2.49,2.49s-2.49-1.08-2.49-2.49c0-1.41,1.08-2.49,2.49-2.49
		S269.42,49.35,269.42,50.76z M268.94,50.76c0-1.15-0.86-2.05-2-2.05c-1.14,0-2,0.9-2,2.05s0.86,2.05,2,2.05
		C268.07,52.81,268.94,51.91,268.94,50.76z"/>
	<path class="st8" d="M271.26,55.8h-0.47v-7.43h0.47v0.83c0.45-0.62,1.11-0.93,1.86-0.93c1.43,0,2.31,1.07,2.31,2.44
		c0,1.4-0.89,2.54-2.33,2.54c-1.18,0-1.7-0.75-1.84-0.98V55.8z M274.94,50.72c0-1.3-0.86-2-1.84-2c-0.93,0-1.86,0.66-1.86,1.98
		c0,1.19,0.65,2.12,1.85,2.12C274.29,52.81,274.94,51.88,274.94,50.72z"/>
	<path class="st8" d="M279.98,55.8h-0.46v-7.43h0.46v0.83c0.45-0.62,1.11-0.93,1.86-0.93c1.43,0,2.31,1.07,2.31,2.44
		c0,1.4-0.89,2.54-2.33,2.54c-1.18,0-1.7-0.75-1.84-0.98V55.8z M283.66,50.72c0-1.3-0.86-2-1.84-2c-0.93,0-1.86,0.66-1.86,1.98
		c0,1.19,0.65,2.12,1.85,2.12S283.66,51.88,283.66,50.72z"/>
	<path class="st8" d="M289.38,48.38h0.47v4.75h-0.47v-0.85c-0.48,0.73-1.23,0.98-1.85,0.98c-1.25,0-2.32-0.94-2.32-2.5
		c0-1.47,0.93-2.48,2.32-2.48c0.75,0,1.4,0.29,1.85,0.93V48.38z M285.7,50.72c0,1.07,0.66,2.1,1.86,2.1c1.19,0,1.84-1,1.84-2.1
		c0-1.41-1.04-2-1.85-2C286.61,48.71,285.7,49.42,285.7,50.72z"/>
	<path class="st8" d="M291.52,48.38h0.47v0.62c0.17-0.41,0.54-0.72,1.05-0.72c0.13,0,0.33,0.02,0.5,0.12l-0.23,0.42
		c-0.05-0.04-0.14-0.09-0.35-0.09c-0.96,0-0.97,1.27-0.97,1.86v2.55h-0.47V48.38z"/>
	<path class="st8" d="M295.05,48.82v4.31h-0.47v-4.31h-0.52v-0.44h0.52v-1.7h0.47v1.7h0.83v0.44H295.05z"/>
	<path class="st8" d="M299.89,47.71l-0.47-0.14l0.86-2.33l0.3,0.12L299.89,47.71z M301.24,47.71l-0.47-0.14l0.86-2.33l0.3,0.12
		L301.24,47.71z"/>
	<path class="st8" d="M307.39,44.64h0.47v8.49h-0.47v-0.85c-0.48,0.73-1.23,0.98-1.84,0.98c-1.2,0-2.33-0.86-2.33-2.53
		c0-1.73,1.18-2.46,2.33-2.46c0.86,0,1.47,0.4,1.84,0.93V44.64z M303.71,50.72c0,1.39,0.91,2.1,1.86,2.1c0.94,0,1.84-0.71,1.84-2.1
		c0-1.11-0.69-2-1.86-2C304.57,48.71,303.71,49.39,303.71,50.72z"/>
	<path class="st8" d="M314.21,50.76c0,1.41-1.08,2.49-2.49,2.49c-1.41,0-2.49-1.08-2.49-2.49c0-1.41,1.08-2.49,2.49-2.49
		C313.13,48.27,314.21,49.35,314.21,50.76z M313.72,50.76c0-1.15-0.86-2.05-2-2.05c-1.14,0-2,0.9-2,2.05s0.86,2.05,2,2.05
		C312.86,52.81,313.72,51.91,313.72,50.76z"/>
	<path class="st8" d="M315.58,48.38h0.47v0.59c0.36-0.62,0.91-0.7,1.23-0.7c0.93,0,1.23,0.62,1.33,0.86
		c0.27-0.57,0.78-0.86,1.41-0.86c0.52,0,0.86,0.19,1.07,0.4c0.38,0.38,0.41,0.91,0.41,1.29v3.17h-0.47v-3.17
		c0-0.31-0.02-0.71-0.28-0.98c-0.21-0.22-0.49-0.27-0.71-0.27c-1.26,0-1.27,1.26-1.27,1.55v2.86h-0.47v-3.05
		c0-0.3-0.02-1.36-1.05-1.36c-0.83,0-1.21,0.72-1.21,1.66v2.75h-0.47V48.38z"/>
	<path class="st8" d="M323.35,50.81c0,1.21,0.88,2,1.89,2c0.77,0,1.35-0.45,1.65-1.08l0.4,0.23c-0.28,0.54-0.91,1.29-2.08,1.29
		c-1.48,0-2.34-1.09-2.34-2.48c0-1.65,1.14-2.5,2.31-2.5c1.28,0,2.25,1.02,2.25,2.54H323.35z M326.93,50.37
		c-0.12-0.94-0.81-1.65-1.76-1.65c-0.97,0-1.65,0.73-1.78,1.65H326.93z"/>
	<path class="st8" d="M329.39,45.22l0.47,0.14L329,47.69l-0.3-0.12L329.39,45.22z M330.75,45.22l0.47,0.14l-0.86,2.33l-0.3-0.12
		L330.75,45.22z"/>
</g>
<g>
	<path class="st8" d="M114.36,245.4c-0.66-0.78-1.62-1.22-2.62-1.22c-1.99,0-3.48,1.59-3.48,3.56c0,2.3,1.92,3.5,3.49,3.5
		c0.78,0,1.82-0.31,2.61-1.18v0.68c-0.79,0.7-1.75,0.97-2.58,0.97c-2.33,0-4.05-1.83-4.05-3.99c0-2.24,1.79-4,4.03-4
		c1.48,0,2.38,0.79,2.61,1.01V245.4z"/>
	<path class="st8" d="M115.83,246.83h0.47v0.62c0.17-0.41,0.54-0.72,1.05-0.72c0.13,0,0.33,0.02,0.5,0.12l-0.23,0.42
		c-0.05-0.04-0.14-0.09-0.35-0.09c-0.96,0-0.97,1.27-0.97,1.86v2.55h-0.47V246.83z"/>
</g>
<g>
	<path class="st8" d="M123.14,249.22c0,1.41-1.08,2.49-2.49,2.49s-2.49-1.08-2.49-2.49c0-1.41,1.08-2.49,2.49-2.49
		S123.14,247.81,123.14,249.22z M122.65,249.22c0-1.15-0.86-2.05-2-2.05c-1.14,0-2,0.9-2,2.05s0.86,2.05,2,2.05
		C121.79,251.26,122.65,250.37,122.65,249.22z"/>
	<path class="st8" d="M126.53,247.7c-0.16-0.37-0.49-0.54-0.83-0.54c-0.54,0-0.8,0.41-0.8,0.76c0,0.46,0.37,0.62,0.84,0.8
		c0.48,0.19,0.92,0.31,1.22,0.7c0.2,0.25,0.24,0.5,0.24,0.77c0,1.08-0.81,1.51-1.55,1.51c-0.79,0-1.44-0.47-1.64-1.26l0.45-0.14
		c0.16,0.63,0.66,0.95,1.19,0.95c0.61,0,1.06-0.43,1.06-1.05c0-0.54-0.34-0.73-1.06-1.02c-0.48-0.2-0.83-0.35-1.04-0.63
		c-0.1-0.14-0.21-0.34-0.21-0.62c0-0.72,0.55-1.22,1.27-1.22c0.56,0,1.02,0.26,1.25,0.77L126.53,247.7z"/>
	<path class="st8" d="M130.42,247.7c-0.16-0.37-0.49-0.54-0.83-0.54c-0.54,0-0.8,0.41-0.8,0.76c0,0.46,0.37,0.62,0.84,0.8
		c0.48,0.19,0.92,0.31,1.22,0.7c0.2,0.25,0.24,0.5,0.24,0.77c0,1.08-0.82,1.51-1.55,1.51c-0.79,0-1.44-0.47-1.64-1.26l0.45-0.14
		c0.16,0.63,0.66,0.95,1.19,0.95c0.61,0,1.06-0.43,1.06-1.05c0-0.54-0.34-0.73-1.06-1.02c-0.48-0.2-0.83-0.35-1.04-0.63
		c-0.1-0.14-0.21-0.34-0.21-0.62c0-0.72,0.55-1.22,1.27-1.22c0.56,0,1.02,0.26,1.25,0.77L130.42,247.7z"/>
</g>
<g>
	<path class="st8" d="M138.73,247.95c-0.31-0.36-0.86-0.78-1.64-0.78c-1.16,0-1.98,0.9-1.98,2.06c0,1.36,1.04,2.04,1.96,2.04
		c0.76,0,1.35-0.44,1.72-0.85v0.63c-0.31,0.28-0.9,0.66-1.73,0.66c-1.43,0-2.43-1.06-2.43-2.47c0-1.41,0.94-2.51,2.47-2.51
		c0.34,0,0.99,0.06,1.64,0.61V247.95z"/>
	<path class="st8" d="M140.53,246.83v2.86c0,0.34,0.01,0.84,0.3,1.19c0.29,0.35,0.72,0.38,0.94,0.38s0.65-0.04,0.94-0.38
		c0.29-0.35,0.3-0.85,0.3-1.19v-2.86h0.47v2.99c0,0.38-0.04,0.88-0.36,1.3c-0.36,0.47-0.93,0.58-1.35,0.58
		c-0.42,0-0.99-0.12-1.35-0.58c-0.33-0.42-0.36-0.92-0.36-1.3v-2.99H140.53z"/>
</g>
<g>
	<path class="st8" d="M144.86,247.27v4.31h-0.47v-4.31h-0.52v-0.44h0.52v-1.7h0.47v1.7h0.83v0.44H144.86z"/>
	<path class="st8" d="M147.12,247.27v4.31h-0.47v-4.31h-0.52v-0.44h0.52v-1.7h0.47v1.7h0.83v0.44H147.12z"/>
</g>
<g>
	<path class="st8" d="M150,245.25c0-0.26,0.19-0.43,0.42-0.43s0.42,0.17,0.42,0.43c0,0.26-0.19,0.43-0.42,0.43S150,245.5,150,245.25
		z M150.65,246.83v4.75h-0.47v-4.75H150.65z"/>
	<path class="st8" d="M152.32,246.83h0.47v0.75c0.22-0.4,0.65-0.85,1.46-0.85c0.85,0,1.21,0.5,1.32,0.66
		c0.21,0.34,0.23,0.78,0.23,1.2v2.99h-0.47v-2.99c0-0.33-0.01-0.69-0.19-0.96c-0.1-0.17-0.36-0.46-0.93-0.46
		c-0.65,0-0.99,0.35-1.16,0.66c-0.21,0.37-0.26,0.82-0.26,1.28v2.47h-0.47V246.83z"/>
</g>
<g>
	<path class="st8" d="M161.4,246.83v4.61c0,1.79-0.9,2.82-2.39,2.82c-1.23,0-2.27-0.72-2.33-2.04h0.49
		c0.08,0.99,0.83,1.59,1.84,1.59c1.87,0,1.92-1.89,1.92-2.38v-0.68c-0.48,0.66-1.2,0.94-1.87,0.94c-1.16,0-2.34-0.85-2.34-2.5
		c0-1.37,0.91-2.48,2.4-2.48c0.78,0,1.41,0.35,1.82,0.93v-0.83H161.4z M157.21,249.23c0,1.14,0.72,2.04,1.84,2.04
		c1.18,0,1.91-0.92,1.91-2.08c0-1.11-0.72-2.01-1.89-2.01C157.9,247.17,157.21,248.13,157.21,249.23z"/>
</g>
<g>
	<path class="st8" d="M386.74,227.01h1.7c1.35,0,2.14,0.78,2.14,1.94c0,0.84-0.4,1.39-0.91,1.7c1.01,0.16,1.61,0.94,1.61,1.94
		c0,1.36-1,2.18-2.41,2.18h-2.13V227.01z M387.25,230.52h1.23c0.4,0,0.72-0.05,1.06-0.33c0.31-0.26,0.51-0.65,0.51-1.19
		c0-0.62-0.27-1-0.52-1.21c-0.38-0.3-0.88-0.33-1.29-0.33h-0.99V230.52z M387.25,234.31h1.3c0.52,0,1.16,0,1.69-0.47
		c0.42-0.37,0.5-0.83,0.5-1.19c0-0.7-0.24-1.18-0.83-1.44c-0.21-0.09-0.59-0.22-1.46-0.22h-1.21V234.31z"/>
	<path class="st8" d="M396.61,230.02h0.47v4.75h-0.47v-0.85c-0.48,0.73-1.23,0.98-1.85,0.98c-1.25,0-2.32-0.94-2.32-2.5
		c0-1.47,0.93-2.48,2.32-2.48c0.75,0,1.4,0.29,1.85,0.93V230.02z M392.93,232.36c0,1.07,0.66,2.1,1.86,2.1c1.19,0,1.84-1,1.84-2.1
		c0-1.41-1.04-2-1.85-2C393.84,230.36,392.93,231.07,392.93,232.36z"/>
	<path class="st8" d="M400.78,230.9c-0.16-0.37-0.49-0.54-0.83-0.54c-0.54,0-0.8,0.41-0.8,0.76c0,0.46,0.37,0.62,0.84,0.8
		c0.48,0.19,0.92,0.31,1.22,0.7c0.2,0.25,0.24,0.5,0.24,0.77c0,1.08-0.81,1.51-1.55,1.51c-0.79,0-1.44-0.47-1.64-1.26l0.45-0.14
		c0.16,0.63,0.66,0.95,1.19,0.95c0.61,0,1.06-0.43,1.06-1.05c0-0.54-0.34-0.73-1.06-1.02c-0.48-0.2-0.83-0.35-1.04-0.63
		c-0.11-0.14-0.21-0.34-0.21-0.62c0-0.72,0.55-1.22,1.27-1.22c0.56,0,1.03,0.26,1.25,0.77L400.78,230.9z"/>
	<path class="st8" d="M402.83,232.46c0,1.21,0.88,2,1.89,2c0.77,0,1.35-0.45,1.65-1.08l0.4,0.23c-0.28,0.54-0.91,1.29-2.08,1.29
		c-1.48,0-2.34-1.09-2.34-2.48c0-1.65,1.14-2.5,2.31-2.5c1.28,0,2.25,1.02,2.25,2.54H402.83z M406.4,232.01
		c-0.12-0.94-0.81-1.65-1.76-1.65c-0.97,0-1.65,0.73-1.78,1.65H406.4z"/>
	<path class="st8" d="M410.74,230.02l1.64,3.92l1.64-4.21l1.64,4.21l1.69-3.92h0.51l-2.2,5.04l-1.64-4.21l-1.64,4.21l-2.15-5.04
		H410.74z"/>
	<path class="st8" d="M418.98,232.46c0,1.21,0.88,2,1.89,2c0.77,0,1.35-0.45,1.65-1.08l0.4,0.23c-0.28,0.54-0.91,1.29-2.08,1.29
		c-1.48,0-2.34-1.09-2.34-2.48c0-1.65,1.14-2.5,2.31-2.5c1.28,0,2.25,1.02,2.25,2.54H418.98z M422.55,232.01
		c-0.12-0.94-0.81-1.65-1.76-1.65c-0.97,0-1.65,0.73-1.78,1.65H422.55z"/>
	<path class="st8" d="M424.88,226.28v4.56c0.45-0.62,1.11-0.93,1.86-0.93c1.43,0,2.3,1.07,2.3,2.44c0,1.4-0.88,2.54-2.33,2.54
		c-1.18,0-1.7-0.75-1.84-0.98v0.85h-0.47v-8.49H424.88z M428.56,232.36c0-1.3-0.86-2-1.84-2c-0.93,0-1.86,0.66-1.86,1.98
		c0,1.19,0.65,2.12,1.85,2.12S428.56,233.53,428.56,232.36z"/>
</g>
<g>
	<path class="st8" d="M387,244.43v4.31h-0.47v-4.31H386v-0.44h0.54v-2.26c0-1.34,0.69-1.62,1.25-1.62c0.2,0,0.33,0.05,0.41,0.07
		v0.43c-0.12-0.05-0.22-0.06-0.36-0.06c-0.41,0-0.83,0.17-0.83,1.27v2.17h1.19v0.44H387z"/>
	<path class="st8" d="M393.7,246.38c0,1.41-1.08,2.49-2.49,2.49c-1.41,0-2.49-1.08-2.49-2.49c0-1.41,1.08-2.49,2.49-2.49
		C392.62,243.88,393.7,244.97,393.7,246.38z M393.21,246.38c0-1.15-0.86-2.05-2-2.05c-1.14,0-2,0.9-2,2.05s0.86,2.05,2,2.05
		C392.35,248.42,393.21,247.53,393.21,246.38z"/>
</g>
<g>
	<path class="st8" d="M394.85,243.99h0.47v0.62c0.17-0.41,0.54-0.72,1.05-0.72c0.13,0,0.33,0.02,0.5,0.12l-0.23,0.42
		c-0.05-0.04-0.14-0.09-0.35-0.09c-0.96,0-0.97,1.27-0.97,1.86v2.55h-0.47V243.99z"/>
	<path class="st8" d="M397.88,243.99h0.47v0.59c0.36-0.62,0.91-0.7,1.23-0.7c0.93,0,1.23,0.62,1.33,0.86
		c0.27-0.57,0.78-0.86,1.41-0.86c0.52,0,0.86,0.19,1.07,0.4c0.38,0.38,0.41,0.91,0.41,1.29v3.17h-0.47v-3.17
		c0-0.31-0.02-0.71-0.28-0.98c-0.21-0.22-0.49-0.27-0.71-0.27c-1.26,0-1.27,1.26-1.27,1.55v2.86h-0.47v-3.05
		c0-0.3-0.02-1.36-1.05-1.36c-0.83,0-1.21,0.72-1.21,1.66v2.75h-0.47V243.99z"/>
</g>
<g>
	<path class="st8" d="M405.17,242.41c0-0.26,0.19-0.43,0.42-0.43c0.23,0,0.42,0.17,0.42,0.43c0,0.26-0.19,0.43-0.42,0.43
		C405.35,242.84,405.17,242.66,405.17,242.41z M405.82,243.99v4.75h-0.47v-4.75H405.82z"/>
	<path class="st8" d="M407.49,243.99h0.47v0.75c0.22-0.4,0.65-0.85,1.46-0.85c0.85,0,1.21,0.5,1.32,0.66
		c0.21,0.34,0.23,0.78,0.23,1.2v2.99h-0.47v-2.99c0-0.33-0.01-0.69-0.19-0.96c-0.1-0.17-0.36-0.46-0.93-0.46
		c-0.65,0-0.99,0.35-1.16,0.66c-0.21,0.37-0.26,0.82-0.26,1.28v2.47h-0.47V243.99z"/>
</g>
<g>
	<path class="st8" d="M416.57,243.99v4.61c0,1.79-0.9,2.82-2.39,2.82c-1.23,0-2.27-0.72-2.33-2.04h0.49
		c0.08,0.99,0.83,1.59,1.84,1.59c1.87,0,1.92-1.89,1.92-2.38v-0.68c-0.48,0.66-1.2,0.94-1.87,0.94c-1.16,0-2.34-0.85-2.34-2.5
		c0-1.37,0.91-2.48,2.4-2.48c0.78,0,1.41,0.35,1.82,0.93v-0.83H416.57z M412.38,246.39c0,1.14,0.72,2.04,1.84,2.04
		c1.18,0,1.91-0.92,1.91-2.08c0-1.11-0.72-2.01-1.89-2.01C413.07,244.33,412.38,245.29,412.38,246.39z"/>
</g>
<g>
	<path class="st8" d="M420.42,295.78h1.7c1.35,0,2.14,0.78,2.14,1.94c0,0.84-0.4,1.39-0.91,1.7c1.01,0.16,1.61,0.94,1.61,1.94
		c0,1.36-1,2.18-2.41,2.18h-2.13V295.78z M420.94,299.3h1.23c0.4,0,0.72-0.05,1.06-0.33c0.31-0.26,0.51-0.65,0.51-1.19
		c0-0.62-0.27-1-0.52-1.21c-0.38-0.3-0.88-0.33-1.29-0.33h-0.99V299.3z M420.94,303.08h1.3c0.52,0,1.16,0,1.69-0.47
		c0.42-0.37,0.5-0.83,0.5-1.19c0-0.7-0.24-1.18-0.83-1.44c-0.21-0.09-0.59-0.22-1.46-0.22h-1.21V303.08z"/>
	<path class="st8" d="M430.29,298.8h0.47v4.75h-0.47v-0.85c-0.48,0.73-1.23,0.98-1.85,0.98c-1.25,0-2.32-0.94-2.32-2.5
		c0-1.47,0.93-2.48,2.32-2.48c0.75,0,1.4,0.29,1.85,0.93V298.8z M426.62,301.14c0,1.07,0.66,2.1,1.86,2.1c1.19,0,1.84-1,1.84-2.1
		c0-1.41-1.04-2-1.85-2C427.52,299.13,426.62,299.84,426.62,301.14z"/>
	<path class="st8" d="M434.46,299.67c-0.16-0.37-0.49-0.54-0.83-0.54c-0.54,0-0.8,0.41-0.8,0.76c0,0.46,0.37,0.62,0.84,0.8
		c0.48,0.19,0.92,0.31,1.22,0.7c0.2,0.25,0.24,0.5,0.24,0.77c0,1.08-0.81,1.51-1.55,1.51c-0.79,0-1.44-0.47-1.64-1.26l0.45-0.14
		c0.16,0.63,0.66,0.95,1.19,0.95c0.61,0,1.06-0.43,1.06-1.05c0-0.54-0.34-0.73-1.06-1.02c-0.48-0.2-0.83-0.35-1.04-0.63
		c-0.11-0.14-0.21-0.34-0.21-0.62c0-0.72,0.55-1.22,1.27-1.22c0.56,0,1.03,0.26,1.25,0.77L434.46,299.67z"/>
	<path class="st8" d="M436.51,301.23c0,1.21,0.88,2,1.89,2c0.77,0,1.35-0.45,1.65-1.08l0.4,0.23c-0.28,0.54-0.91,1.29-2.08,1.29
		c-1.48,0-2.34-1.09-2.34-2.48c0-1.65,1.14-2.5,2.31-2.5c1.28,0,2.25,1.02,2.25,2.54H436.51z M440.08,300.79
		c-0.12-0.94-0.81-1.65-1.76-1.65c-0.97,0-1.65,0.73-1.78,1.65H440.08z"/>
	<path class="st8" d="M444.42,298.8l1.64,3.92l1.64-4.21l1.64,4.21l1.69-3.92h0.51l-2.2,5.04l-1.64-4.21l-1.64,4.21l-2.15-5.04
		H444.42z"/>
	<path class="st8" d="M452.66,301.23c0,1.21,0.88,2,1.89,2c0.77,0,1.35-0.45,1.65-1.08l0.4,0.23c-0.28,0.54-0.91,1.29-2.08,1.29
		c-1.48,0-2.34-1.09-2.34-2.48c0-1.65,1.14-2.5,2.31-2.5c1.28,0,2.25,1.02,2.25,2.54H452.66z M456.24,300.79
		c-0.12-0.94-0.81-1.65-1.76-1.65c-0.97,0-1.65,0.73-1.78,1.65H456.24z"/>
	<path class="st8" d="M458.56,295.06v4.56c0.45-0.62,1.11-0.93,1.86-0.93c1.43,0,2.3,1.07,2.3,2.44c0,1.4-0.88,2.54-2.33,2.54
		c-1.18,0-1.7-0.75-1.84-0.98v0.85h-0.47v-8.49H458.56z M462.24,301.14c0-1.3-0.86-2-1.84-2c-0.93,0-1.86,0.66-1.86,1.98
		c0,1.19,0.65,2.12,1.85,2.12S462.24,302.3,462.24,301.14z"/>
</g>
<g>
	<path class="st8" d="M420.68,312.76v2.86c0,0.34,0.01,0.84,0.3,1.19c0.29,0.35,0.72,0.38,0.94,0.38c0.22,0,0.65-0.04,0.94-0.38
		c0.29-0.35,0.3-0.85,0.3-1.19v-2.86h0.46v2.99c0,0.38-0.03,0.88-0.36,1.3c-0.36,0.47-0.93,0.58-1.35,0.58s-0.99-0.12-1.35-0.58
		c-0.33-0.42-0.36-0.92-0.36-1.3v-2.99H420.68z"/>
	<path class="st8" d="M425.31,312.76h0.47v0.75c0.22-0.4,0.65-0.85,1.46-0.85c0.85,0,1.21,0.5,1.32,0.66
		c0.21,0.34,0.23,0.78,0.23,1.2v2.99h-0.47v-2.99c0-0.33-0.01-0.69-0.19-0.96c-0.1-0.17-0.36-0.46-0.93-0.46
		c-0.65,0-0.99,0.35-1.16,0.66c-0.21,0.37-0.26,0.82-0.26,1.28v2.47h-0.47V312.76z"/>
</g>
<g>
	<path class="st8" d="M429.55,312.76l1.64,3.92l1.64-4.21l1.64,4.21l1.69-3.92h0.51l-2.2,5.04l-1.64-4.21l-1.64,4.21l-2.15-5.04
		H429.55z"/>
	<path class="st8" d="M437.42,311.18c0-0.26,0.19-0.43,0.42-0.43c0.23,0,0.42,0.17,0.42,0.43c0,0.26-0.19,0.43-0.42,0.43
		C437.6,311.61,437.42,311.44,437.42,311.18z M438.07,312.76v4.75h-0.47v-4.75H438.07z"/>
</g>
<g>
	<path class="st8" d="M439.34,312.76h0.47v0.75c0.22-0.4,0.65-0.85,1.46-0.85c0.85,0,1.21,0.5,1.32,0.66
		c0.21,0.34,0.23,0.78,0.23,1.2v2.99h-0.47v-2.99c0-0.33-0.01-0.69-0.19-0.96c-0.1-0.17-0.36-0.46-0.93-0.46
		c-0.65,0-0.99,0.35-1.16,0.66c-0.21,0.37-0.26,0.82-0.26,1.28v2.47h-0.47V312.76z"/>
	<path class="st8" d="M448.35,309.03h0.47v8.49h-0.47v-0.85c-0.48,0.73-1.23,0.98-1.84,0.98c-1.2,0-2.33-0.86-2.33-2.53
		c0-1.73,1.18-2.46,2.33-2.46c0.86,0,1.47,0.4,1.84,0.93V309.03z M444.67,315.1c0,1.39,0.91,2.1,1.86,2.1c0.94,0,1.84-0.71,1.84-2.1
		c0-1.11-0.69-2-1.86-2C445.53,313.1,444.67,313.78,444.67,315.1z"/>
</g>
<g>
	<path class="st8" d="M450.46,311.18c0-0.26,0.19-0.43,0.42-0.43c0.23,0,0.42,0.17,0.42,0.43c0,0.26-0.19,0.43-0.42,0.43
		C450.65,311.61,450.46,311.44,450.46,311.18z M451.12,312.76v4.75h-0.47v-4.75H451.12z"/>
	<path class="st8" d="M452.79,312.76h0.47v0.75c0.22-0.4,0.65-0.85,1.46-0.85c0.85,0,1.21,0.5,1.32,0.66
		c0.21,0.34,0.23,0.78,0.23,1.2v2.99h-0.47v-2.99c0-0.33-0.01-0.69-0.19-0.96c-0.1-0.17-0.36-0.46-0.93-0.46
		c-0.65,0-0.99,0.35-1.16,0.66c-0.21,0.37-0.26,0.82-0.26,1.28v2.47h-0.47V312.76z"/>
</g>
<g>
	<path class="st8" d="M461.87,312.76v4.61c0,1.79-0.9,2.82-2.39,2.82c-1.23,0-2.27-0.72-2.33-2.04h0.49
		c0.08,0.99,0.83,1.59,1.84,1.59c1.87,0,1.92-1.89,1.92-2.38v-0.68c-0.48,0.66-1.2,0.94-1.87,0.94c-1.16,0-2.34-0.85-2.34-2.5
		c0-1.37,0.91-2.48,2.4-2.48c0.78,0,1.41,0.35,1.82,0.93v-0.83H461.87z M457.68,315.16c0,1.14,0.72,2.04,1.84,2.04
		c1.18,0,1.91-0.92,1.91-2.08c0-1.11-0.72-2.01-1.89-2.01C458.37,313.1,457.68,314.07,457.68,315.16z"/>
</g>
<g>
	<g>
		<defs>
			<rect id="SVGID_9_" x="7.21" y="298.51" width="281.48" height="137.22"/>
		</defs>
		<clipPath id="SVGID_10_">
			<use xlink:href="#SVGID_9_"  style="overflow:visible;"/>
		</clipPath>
		<path class="st9" d="M50.51,359.45h13.11l20.38,38.78l16.28,0.1c-2.82-2.8-6.58-7.7-6.58-13.85c0-18.95,0.74-21.59,1.59-24.65
			l0.18-0.65c0.81-3.01,5.69-12.28,10.34-15.64c0.67-0.43,1.27-0.83,1.87-1.22c4.86-3.21,9.88-6.53,18.94-6.96
			c6.11-0.29,45.35-0.47,47.02-0.48c0.77,0.03,17.21,0.92,25.76,11.16c7.14,8.55,9.06,15.46,9.56,18.82
			c0.72,4.74,0.31,18.3,0.3,18.88c-0.01,0.44-0.34,9.39-6.67,14.93h17.65l22.45-39.11h10.4"/>
		<path class="st10" d="M188.86,377.65v-9.42c0-2.29,0.59-4.55,1.74-6.54c1.74,3.13,2.66,6.66,2.67,10.24v10.13
			c0,3.65-2.96,6.61-6.6,6.61h-10.63c0.93-2.64,3.43-4.41,6.23-4.4C185.9,384.25,188.86,381.3,188.86,377.65 M184.46,377.65
			c0,1.22-0.99,2.2-2.2,2.2c-6.07-0.01-11,4.91-11.01,10.99v0.02c0,1.22,0.99,2.2,2.2,2.2h13.21c6.08-0.01,11-4.93,11.01-11.01
			v-10.13c-0.02-5.57-1.85-10.97-5.21-15.41c-0.73-0.97-2.11-1.16-3.08-0.42c-0.1,0.08-0.2,0.17-0.29,0.26
			c-2.98,3.24-4.63,7.48-4.62,11.89L184.46,377.65z"/>
		<path class="st10" d="M153.63,372.15c-0.09-9.53,6.28-17.91,15.49-20.36c1.43-0.37,2.89-0.56,4.37-0.55c0.3,0,0.61,0,0.92,0.02
			c0.5,0.02,0.99,0.07,1.49,0.13l-4.18,1.87c-4.16,1.85-7.71,4.84-10.23,8.62c-3.7,5.54-3.49,12.82,0.52,18.15
			c0.29,0.37,0.44,0.83,0.44,1.3v5.13c0,0.6-0.24,1.16-0.68,1.57c-0.4,0.41-0.96,0.64-1.53,0.63c-3.65,0-6.6-2.96-6.6-6.61V372.15z
			 M149.23,382.05c0.01,6.08,4.93,11,11.01,11.01c3.64-0.02,6.59-2.96,6.6-6.61v-5.13c0-1.43-0.46-2.82-1.32-3.96
			c-2.88-3.83-3.03-9.06-0.37-13.04c2.07-3.09,4.97-5.54,8.37-7.05l9.64-4.29c1.11-0.5,1.61-1.8,1.11-2.91
			c-0.22-0.49-0.61-0.88-1.09-1.1c-2.7-1.26-5.61-1.98-8.59-2.12c-2.21-0.11-4.42,0.11-6.57,0.66
			c-11.15,2.96-18.89,13.1-18.79,24.63V382.05z"/>
		<path class="st10" d="M101.5,371.04c0-15.27,12.02-27.37,27.77-28.47c-5.13,2.79-9.39,6.92-12.35,11.95l3.81,2.2
			c5.06-8.25,13.82-13.53,23.48-14.13c-2.31,1.35-4.45,2.98-6.37,4.84l3.08,3.16c4.21-4.11,9.59-6.83,15.4-7.79
			c-9.88,5.98-15.91,16.69-15.9,28.24v11.01c-0.01,6,2.72,11.67,7.42,15.41h-0.11c-4.68,0.01-9.11-2.11-12.02-5.78l-3.44,2.75
			c0.89,1.12,1.9,2.13,3.01,3.03h-2.97c-8.51-0.01-15.4-6.9-15.41-15.41h-4.4c0,5.99,2.72,11.66,7.39,15.41h-2.98
			c-8.51-0.01-15.4-6.9-15.41-15.41V371.04z M168.77,342.81c2-0.34,4.02-0.45,6.04-0.35c15.5,0.95,27.52,13.93,27.26,29.46v10.13
			c-0.01,8.51-6.9,15.4-15.41,15.41h-26.42c-6.21,0.01-11.81-3.71-14.2-9.43c-0.8-1.89-1.21-3.92-1.21-5.98v-11.01
			C144.82,357.04,154.96,345.1,168.77,342.81 M97.1,382.05c0.01,10.94,8.88,19.8,19.81,19.82h69.75
			c10.94-0.01,19.8-8.88,19.82-19.82v-10.13c0.52-18.19-13.8-33.36-31.99-33.88c-1.08-0.03-2.16-0.01-3.24,0.07v-0.09h-4.4v0.25
			h-0.04v-0.25c-0.03,0-1.1,0.02-5.06,0.02c-0.08-0.01-0.17-0.01-0.25,0c-0.39-0.02-0.76-0.02-1.15,0c-0.13-0.01-0.26-0.01-0.38,0
			h-0.05c-0.9,0.02-1.92,0.02-3.08,0h-0.18c-0.51-0.02-0.82-0.02-0.81-0.02v0.02c-7.59,0.02-16.7,0.02-24.22,0.02
			c-19.36,0-34.52,14.49-34.52,32.98V382.05z"/>
	</g>
	<rect x="127.92" y="371.04" class="st8" width="4.4" height="11.01"/>
	<g>
		<defs>
			<rect id="SVGID_11_" x="7.21" y="298.51" width="281.48" height="137.22"/>
		</defs>
		<clipPath id="SVGID_12_">
			<use xlink:href="#SVGID_11_"  style="overflow:visible;"/>
		</clipPath>
		<path class="st11" d="M171.25,368.84c0-1.22,0.98-2.2,2.2-2.2s2.2,0.99,2.2,2.2s-0.99,2.2-2.2,2.2S171.25,370.06,171.25,368.84
			 M180.05,368.84c0-3.65-2.96-6.61-6.61-6.61c-3.65,0-6.6,2.96-6.6,6.61s2.96,6.61,6.6,6.61
			C177.1,375.45,180.05,372.49,180.05,368.84"/>
	</g>
	<polyline class="st12" points="64.65,368.56 82.07,401.87 222.53,401.87 241.69,368.5 	"/>
	<polygon class="st13" points="51.48,362.71 252.77,362.71 256.74,368.47 48.39,368.47 	"/>
	<polygon class="st12" points="51.48,362.71 252.77,362.71 256.74,368.47 48.39,368.47 	"/>
	<g>
		<defs>
			<rect id="SVGID_13_" x="7.21" y="298.51" width="281.48" height="137.22"/>
		</defs>
		<clipPath id="SVGID_14_">
			<use xlink:href="#SVGID_13_"  style="overflow:visible;"/>
		</clipPath>
		<line class="st14" x1="168.1" y1="312.47" x2="288.69" y2="312.47"/>
	</g>
	<line class="st5" x1="197.98" y1="421.04" x2="270.82" y2="421.04"/>
	<g>
		<defs>
			<rect id="SVGID_15_" x="7.21" y="298.51" width="281.48" height="137.22"/>
		</defs>
		<clipPath id="SVGID_16_">
			<use xlink:href="#SVGID_15_"  style="overflow:visible;"/>
		</clipPath>
		<line class="st15" x1="7.21" y1="435.24" x2="124.68" y2="435.24"/>
	</g>
	<line class="st5" x1="168.58" y1="311.98" x2="168.58" y2="334.65"/>
	<line class="st5" x1="198.47" y1="401.7" x2="198.47" y2="421.53"/>
	<g>
		<defs>
			<rect id="SVGID_17_" x="7.21" y="298.51" width="281.48" height="137.22"/>
		</defs>
		<clipPath id="SVGID_18_">
			<use xlink:href="#SVGID_17_"  style="overflow:visible;"/>
		</clipPath>
		<line class="st16" x1="124.2" y1="390.32" x2="124.2" y2="434.76"/>
		<g class="st17">
			<path class="st8" d="M257.55,302.57c-0.48-0.93-1.32-0.95-1.52-0.95c-0.92,0-1.44,0.66-1.44,1.44c0,0.84,0.58,1.12,1.36,1.5
				c0.77,0.37,1.15,0.54,1.55,0.81c0.34,0.23,0.83,0.64,0.83,1.5c0,1.3-1.09,2.27-2.42,2.27c-1,0-1.51-0.48-1.8-0.81
				c-0.3-0.35-0.43-0.65-0.5-0.85l0.44-0.21c0.1,0.3,0.3,0.61,0.42,0.75c0.35,0.44,0.92,0.66,1.46,0.66c1.05,0,1.88-0.77,1.88-1.79
				c0-0.42-0.16-0.86-0.76-1.22c-0.22-0.13-0.67-0.36-1.31-0.67c-0.77-0.37-1.15-0.58-1.42-1.02c-0.17-0.29-0.25-0.58-0.25-0.88
				c0-0.9,0.61-1.93,1.99-1.93c0.78,0,1.49,0.37,1.88,1.11L257.55,302.57z"/>
			<path class="st8" d="M260.24,300.53v5.77l1.96-2.04h0.61l-2,2.06l2.65,2.69h-0.63l-2.34-2.35l-0.25,0.24v2.11h-0.47v-8.49H260.24
				z"/>
			<path class="st8" d="M264.2,302.68c0-0.26,0.19-0.43,0.42-0.43c0.23,0,0.42,0.17,0.42,0.43c0,0.26-0.19,0.43-0.42,0.43
				C264.39,303.11,264.2,302.94,264.2,302.68z M264.85,304.27v4.75h-0.47v-4.75H264.85z"/>
			<path class="st8" d="M265.98,304.27h0.47v0.75c0.22-0.4,0.65-0.85,1.46-0.85c0.85,0,1.21,0.5,1.31,0.66
				c0.21,0.34,0.23,0.78,0.23,1.2v2.99h-0.47v-2.99c0-0.33-0.01-0.69-0.19-0.96c-0.11-0.17-0.36-0.46-0.93-0.46
				c-0.65,0-0.99,0.35-1.16,0.66c-0.21,0.37-0.26,0.82-0.26,1.28v2.47h-0.47V304.27z"/>
			<path class="st8" d="M277.19,301.72h-2.63v2.82h2.56V305h-2.56v4.02h-0.51v-7.77h3.14V301.72z"/>
			<path class="st8" d="M277.95,302.68c0-0.26,0.19-0.43,0.42-0.43c0.23,0,0.42,0.17,0.42,0.43c0,0.26-0.19,0.43-0.42,0.43
				C278.13,303.11,277.95,302.94,277.95,302.68z M278.6,304.27v4.75h-0.47v-4.75H278.6z"/>
			<path class="st8" d="M280.18,300.53v8.49h-0.46v-8.49H280.18z"/>
			<path class="st8" d="M281.25,304.27h0.47v0.59c0.36-0.62,0.91-0.7,1.23-0.7c0.93,0,1.23,0.62,1.33,0.86
				c0.27-0.57,0.78-0.86,1.41-0.86c0.52,0,0.86,0.19,1.07,0.4c0.38,0.38,0.41,0.91,0.41,1.29v3.17h-0.46v-3.17
				c0-0.31-0.02-0.71-0.28-0.98c-0.21-0.22-0.49-0.27-0.71-0.27c-1.26,0-1.27,1.26-1.27,1.55v2.86h-0.47v-3.05
				c0-0.3-0.02-1.36-1.05-1.36c-0.83,0-1.21,0.72-1.21,1.66v2.75h-0.47V304.27z"/>
		</g>
	</g>
	<g>
		<path class="st8" d="M255.65,409.57v7.3h-0.51v-7.3h-2.01v-0.47h4.54v0.47H255.65z"/>
		<path class="st8" d="M257.14,412.12h0.47v0.62c0.17-0.41,0.54-0.72,1.05-0.72c0.13,0,0.33,0.02,0.5,0.12l-0.23,0.42
			c-0.05-0.04-0.14-0.09-0.35-0.09c-0.96,0-0.97,1.27-0.97,1.86v2.55h-0.47V412.12z"/>
		<path class="st8" d="M263.81,412.12h0.47v4.75h-0.47v-0.85c-0.48,0.73-1.23,0.98-1.85,0.98c-1.25,0-2.32-0.94-2.32-2.5
			c0-1.47,0.93-2.48,2.32-2.48c0.74,0,1.4,0.29,1.85,0.93V412.12z M260.13,414.46c0,1.07,0.66,2.1,1.86,2.1c1.19,0,1.84-1,1.84-2.1
			c0-1.41-1.04-2-1.85-2C261.04,412.46,260.13,413.17,260.13,414.46z"/>
		<path class="st8" d="M267.46,416.95l-2.26-4.83h0.54l1.99,4.23l1.74-4.23H270l-3.12,7.43h-0.54L267.46,416.95z"/>
	</g>
	<g>
		<path class="st8" d="M10.19,427.38v3.69H9.67v-7.77h1.5c1.27,0,2.27,0.7,2.27,2.03c0,1.29-0.92,2.05-2.26,2.05H10.19z
			 M10.19,426.91h1.02c1.01,0,1.7-0.59,1.7-1.57c0-0.97-0.65-1.57-1.78-1.57h-0.94V426.91z"/>
		<path class="st8" d="M13.86,426.32h0.47v0.62c0.17-0.41,0.54-0.72,1.05-0.72c0.13,0,0.33,0.02,0.5,0.12l-0.23,0.42
			c-0.05-0.04-0.14-0.09-0.35-0.09c-0.96,0-0.97,1.27-0.97,1.86v2.55h-0.47V426.32z"/>
		<path class="st8" d="M20.84,428.7c0,1.41-1.08,2.49-2.49,2.49s-2.49-1.08-2.49-2.49c0-1.41,1.08-2.49,2.49-2.49
			S20.84,427.29,20.84,428.7z M20.35,428.7c0-1.15-0.86-2.05-2-2.05c-1.14,0-2,0.9-2,2.05s0.86,2.05,2,2.05
			C19.49,430.75,20.35,429.86,20.35,428.7z"/>
		<path class="st8" d="M26.07,422.58h0.47v8.49h-0.47v-0.85c-0.48,0.73-1.23,0.98-1.84,0.98c-1.2,0-2.33-0.86-2.33-2.53
			c0-1.73,1.18-2.46,2.33-2.46c0.86,0,1.47,0.4,1.84,0.93V422.58z M22.39,428.66c0,1.39,0.91,2.1,1.86,2.1
			c0.94,0,1.84-0.71,1.84-2.1c0-1.11-0.69-2-1.86-2C23.26,426.66,22.39,427.33,22.39,428.66z"/>
		<path class="st8" d="M28.68,426.32v2.86c0,0.34,0.01,0.84,0.3,1.19c0.29,0.35,0.72,0.38,0.94,0.38s0.65-0.04,0.94-0.38
			c0.29-0.35,0.3-0.85,0.3-1.19v-2.86h0.47v2.99c0,0.38-0.04,0.88-0.36,1.3c-0.36,0.47-0.93,0.58-1.35,0.58
			c-0.42,0-0.99-0.12-1.35-0.58c-0.33-0.42-0.36-0.92-0.36-1.3v-2.99H28.68z"/>
		<path class="st8" d="M37.12,427.43c-0.31-0.36-0.86-0.78-1.64-0.78c-1.16,0-1.98,0.9-1.98,2.06c0,1.36,1.04,2.04,1.96,2.04
			c0.76,0,1.35-0.44,1.72-0.85v0.63c-0.31,0.28-0.9,0.66-1.73,0.66c-1.43,0-2.43-1.06-2.43-2.47c0-1.41,0.94-2.51,2.47-2.51
			c0.34,0,0.99,0.06,1.64,0.61V427.43z"/>
		<path class="st8" d="M38.96,426.76v4.31h-0.47v-4.31h-0.52v-0.44h0.52v-1.7h0.47v1.7h0.83v0.44H38.96z"/>
	</g>
</g>
</svg>
