<?xml version="1.0" encoding="utf-8"?>
<!-- Generator: Adobe Illustrator 23.1.0, SVG Export Plug-In . SVG Version: 6.00 Build 0)  -->
<svg version="1.1" baseProfile="basic" id="Livello_1"
	 xmlns="http://www.w3.org/2000/svg" xmlns:xlink="http://www.w3.org/1999/xlink" x="0px" y="0px" viewBox="0 0 46 46"
	 xml:space="preserve">
<style type="text/css">
	.st0{fill:none;stroke:#4E4E4D;stroke-miterlimit:10;}
	.st1{fill:#3C3C3B;}
</style>
<title>Risorsa 4</title>
<g>
	<g>
		<circle id="XMLID_1_" class="st0" cx="-32.5" cy="27.9" r="22.2"/>
		<g id="outline_1_">
			<path class="st1" d="M-21.8,44.4v-3.7c0-0.3-0.3-0.6-0.6-0.6h-1.8c-0.2,0-0.3,0.1-0.4,0.2l-0.4,0.4h-2.8v-1.2
				c0-0.3-0.3-0.6-0.6-0.6V34h0.6c1,0,1.8-0.8,1.8-1.8v-1.2c0-1-0.8-1.8-1.8-1.8h-0.6v-5.5c0-0.3-0.3-0.6-0.6-0.6h-0.6v-0.6
				c0.2,0,0.3-0.1,0.4-0.2l1.2-1.2c0.1-0.1,0.2-0.3,0.2-0.4v-1.8c0-0.3-0.3-0.6-0.6-0.6h-3.7c-0.3,0-0.6,0.3-0.6,0.6v1.8
				c0,0.2,0.1,0.3,0.2,0.4l1.2,1.2c0.1,0.1,0.3,0.2,0.4,0.2V23h-0.6c-0.3,0-0.6,0.3-0.6,0.6v5.5h-3.7c-0.3,0-0.6-0.3-0.6-0.6V15.1
				c0-0.3,0.3-0.6,0.6-0.6h2.7l0.4,0.9c0.1,0.2,0.3,0.3,0.5,0.3h3.7c0.3,0,0.6-0.3,0.6-0.6V15c0-2-1.1-3.9-3-4.8
				c-0.8-0.4-1.6-0.6-2.4-0.6h-3.5c-3.5,0-6.4,2.8-6.4,6.4l0,0v12.2c0,3.2,2.6,5.8,5.8,5.8h5.2v4.9c-0.3,0-0.6,0.3-0.6,0.6v1.2h-3.4
				l-0.4-0.4c-0.1-0.1-0.3-0.2-0.4-0.2h-1.8c-0.3,0-0.6,0.3-0.6,0.6v3.7c0,0.3,0.3,0.6,0.6,0.6h1.8c0.2,0,0.3-0.1,0.4-0.2l0.4-0.4
				h3.4v1.2c0,0.3,0.3,0.6,0.6,0.6h3.7c0.3,0,0.6-0.3,0.6-0.6v-1.2h2.8l0.4,0.4c0.1,0.1,0.3,0.2,0.4,0.2h1.8
				C-22.1,45-21.8,44.7-21.8,44.4z M-31,35.8l1.2-0.5v1.1l-1.2,0.5V35.8z M-31,29.1L-31,29.1l1.2-0.5v0.5H-31L-31,29.1z M-31,26.6
				l1.2-0.5v1.1l-1.2,0.5V26.6z M-29.7,24.2v0.6l-1.2,0.5v-1.1H-29.7z M-40.6,31.4c-0.9-0.9-1.4-2-1.3-3.3V15.9
				c0-2.8,2.3-5.1,5.1-5.1h3.5c0.6,0,1.3,0.1,1.9,0.4c1.3,0.6,2.1,1.8,2.3,3.2h-2.6l-0.4-0.9c-0.1-0.2-0.3-0.3-0.5-0.3h-3.1
				c-1,0-1.8,0.8-1.8,1.8v13.4c0,1,0.8,1.8,1.8,1.8h7.9c0.3,0,0.6,0.3,0.6,0.6v1.2c0,0.3-0.3,0.6-0.6,0.6h-9.4
				C-38.6,32.8-39.7,32.3-40.6,31.4z M-29.7,34L-29.7,34l-1.2,0.5V34H-29.7L-29.7,34z M-31,38.2l1.2-0.5v1.1H-31V38.2z"/>
			<path class="st1" d="M-39.5,14.5c-0.3,0-0.6,0.3-0.6,0.6v13.4c0,0.3,0.3,0.6,0.6,0.6s0.6-0.3,0.6-0.6V15.1
				C-38.9,14.7-39.2,14.5-39.5,14.5z"/>
			<path class="st1" d="M-35.2,30.9h-1.8c-0.3,0-0.6,0.3-0.6,0.6c0,0.3,0.3,0.6,0.6,0.6h1.8c0.3,0,0.6-0.3,0.6-0.6
				C-34.6,31.2-34.9,30.9-35.2,30.9z"/>
			<path class="st1" d="M-37.1,12.6h1.8c0.3,0,0.6-0.3,0.6-0.6s-0.3-0.6-0.6-0.6h-1.8c-0.3,0-0.6,0.3-0.6,0.6S-37.4,12.6-37.1,12.6z
				"/>
		</g>
	</g>
</g>
<g>
	<path class="st1" d="M33.5,20.1L33.5,20.1L33.5,20.1c-0.5-0.7-1.1-1.4-1.7-2.1c-0.7-0.8-1.4-1.8-2.3-3.2c-2.2-3.3-3.6-7.2-3.8-11.2
		c0-0.1,0-0.1,0-0.2c-4.5,2.3-7.5,5.1-9.3,7.1c-2,2.1-4.5,4.9-6,9.4c-0.9,2.9-1.1,5.4-1.1,7.2c0,0.1,0,0.2,0,0.4
		c0,7.3,5.9,13.2,13.2,13.2s13.2-5.9,13.2-13.2C35.7,24.7,34.9,22.1,33.5,20.1z M21.5,38c-0.2,0.3-4.5-0.5-7.1-3.6
		c-5.2-6.2,0.2-17.7,0.3-17.7c0.1,0-4.1,9.7,0.4,16.2C17.6,36.4,21.7,37.7,21.5,38z"/>
	<circle id="XMLID_53_" class="st0" cx="23" cy="23" r="22.1"/>
</g>
</svg>
