<svg xmlns="http://www.w3.org/2000/svg" xmlns:xlink="http://www.w3.org/1999/xlink" viewBox="0 0 1640.39 485.73"><defs><style>.cls-1,.cls-2,.cls-3{fill:none;}.cls-2{clip-path:url(#clip-path);}.cls-3,.cls-4{clip-path:url(#clip-path-2);}.cls-5{opacity:0.5;}.cls-6{clip-path:url(#clip-path-93);}.cls-7{fill:#fff;}.cls-8{clip-path:url(#clip-path-95);}.cls-9{clip-path:url(#clip-path-97);}.cls-10{clip-path:url(#clip-path-99);}.cls-11{clip-path:url(#clip-path-101);}.cls-12{clip-path:url(#clip-path-103);}.cls-13{clip-path:url(#clip-path-105);}.cls-14{clip-path:url(#clip-path-107);}.cls-15{clip-path:url(#clip-path-109);}.cls-16{clip-path:url(#clip-path-111);}.cls-17{clip-path:url(#clip-path-113);}.cls-18{fill:#dadada;}.cls-19{fill:#799aa7;}.cls-20{fill:#d0d0d0;}.cls-21{fill:#ededed;}</style><clipPath id="clip-path"><rect class="cls-1" x="28.5" y="26.53" width="1752" height="427.2"/></clipPath><clipPath id="clip-path-2"><rect class="cls-2" x="28.5" y="26.53" width="1752" height="427.2"/></clipPath><clipPath id="clip-path-93"><rect class="cls-1" y="4.93" width="219.6" height="235.5"/></clipPath><clipPath id="clip-path-95"><rect class="cls-1" x="318" y="4.93" width="217.4" height="235.5"/></clipPath><clipPath id="clip-path-97"><rect class="cls-1" x="476.7" y="4.93" width="218.6" height="235.5"/></clipPath><clipPath id="clip-path-99"><rect class="cls-1" x="950.4" y="4.93" width="216.6" height="235.5"/></clipPath><clipPath id="clip-path-101"><rect class="cls-1" x="1108.3" y="4.93" width="219" height="235.5"/></clipPath><clipPath id="clip-path-103"><rect class="cls-1" x="161.1" y="215.73" width="215.6" height="239.4"/></clipPath><clipPath id="clip-path-105"><rect class="cls-1" y="215.73" width="219.6" height="239.4"/></clipPath><clipPath id="clip-path-107"><rect class="cls-1" x="161.1" y="4.93" width="215.6" height="235.5"/></clipPath><clipPath id="clip-path-109"><rect class="cls-1" x="1268.6" y="4.93" width="215.8" height="235.5"/></clipPath><clipPath id="clip-path-111"><rect class="cls-1" x="950.4" y="215.73" width="216.6" height="239.4"/></clipPath><clipPath id="clip-path-113"><rect class="cls-1" x="1108.3" y="215.73" width="219" height="239.4"/></clipPath></defs><title>Disegno-tecnico</title><g id="Livello_1" data-name="Livello 1"><g class="cls-4"><g class="cls-4"><g class="cls-5"><g class="cls-6"><rect class="cls-7" x="30.1" y="28.33" width="159.3" height="208.7"/></g></g><g class="cls-4"><g class="cls-5"><g class="cls-8"><rect class="cls-7" x="348.1" y="28.33" width="157.1" height="208.7"/></g></g><g class="cls-4"><g class="cls-5"><g class="cls-9"><rect class="cls-7" x="506.8" y="28.33" width="158.3" height="208.7"/></g></g><g class="cls-4"><g class="cls-5"><g class="cls-10"><rect class="cls-7" x="980.6" y="28.33" width="156.3" height="208.7"/></g></g><g class="cls-4"><g class="cls-5"><g class="cls-11"><rect class="cls-7" x="1138.5" y="28.33" width="158.7" height="208.7"/></g></g><g class="cls-4"><g class="cls-5"><g class="cls-12"><rect class="cls-7" x="191.2" y="239.23" width="155.4" height="212.7"/></g></g><g class="cls-4"><g class="cls-5"><g class="cls-13"><rect class="cls-7" x="30.1" y="239.23" width="159.3" height="212.7"/></g></g><g class="cls-4"><g class="cls-5"><g class="cls-14"><rect class="cls-7" x="191.2" y="28.33" width="155.4" height="208.7"/></g></g><g class="cls-4"><g class="cls-5"><g class="cls-15"><rect class="cls-7" x="1298.8" y="28.33" width="155.5" height="208.7"/></g></g><g class="cls-4"><g class="cls-5"><g class="cls-16"><rect class="cls-7" x="980.6" y="239.23" width="156.3" height="212.7"/></g></g><g class="cls-4"><g class="cls-5"><g class="cls-17"><rect class="cls-7" x="1138.5" y="239.23" width="158.7" height="212.7"/></g></g><g class="cls-4"><g class="cls-5"><rect class="cls-7" x="1298.8" y="239.23" width="155.5" height="212.7"/></g><g class="cls-4"><path class="cls-18" d="M30.1,28.13H189.4v209.2H30.1Zm-1.6,210.8H191V26.53H28.5Z"/><path class="cls-19" d="M153,193.43H137v-9.1h16Zm-25.7,0h-16v-9.1h16Zm-26.8,0h-16v-9.1h16Zm31.1-12.5v-23.6l-25.8,23.6v-23.3l-25.9,23.2c-1.2-38.9,0-57,0-57H62.2s1.2,25.3,0,75.8H157v-41.9Z"/><path class="cls-19" d="M65.4,115.73h.2a2.91,2.91,0,0,0,2.5-1.2,6,6,0,0,0,.9-3.6,6.45,6.45,0,0,0-.9-3.8,3,3,0,0,0-2.6-1.2h-.2v9.8Zm-3.1,2.9V103H65c2.4,0,4.2.6,5.4,1.9s1.8,3.2,1.8,5.9a9.55,9.55,0,0,1-.7,4,6,6,0,0,1-2,2.7,5.57,5.57,0,0,1-1.9.9,11.19,11.19,0,0,1-2.9.3H62.3Z"/><path class="cls-19" d="M77.7,116.33a1.41,1.41,0,0,0,1.2-.8,4.32,4.32,0,0,0,.4-2.2,4.56,4.56,0,0,0-.4-2.2,1.3,1.3,0,0,0-2.4,0,4.32,4.32,0,0,0-.4,2.2,4.56,4.56,0,0,0,.4,2.2,1.41,1.41,0,0,0,1.2.8m4.4-2.9a6.16,6.16,0,0,1-1.2,4,4.16,4.16,0,0,1-6.4,0,7.27,7.27,0,0,1,0-8,4.16,4.16,0,0,1,6.4,0,6.16,6.16,0,0,1,1.2,4"/><path class="cls-19" d="M90,108.13l.9,4.5a12.29,12.29,0,0,1,.2,1.3c.1.5.1,1.1.2,1.8a11,11,0,0,0,.2-1.8,12.29,12.29,0,0,1,.2-1.3l.8-4.5h2.8l-2.8,10.5H90l-.8-4.4c0-.2-.1-.6-.2-1.2s-.1-1.4-.2-2.3l-.1.5q-.3,2.7-.3,3l-.8,4.4H85.1l-2.8-10.5h2.8l.8,4.5c0,.1.1.8.3,2l.2,1.2a8.81,8.81,0,0,1,.2-1.7c.1-.5.1-1,.2-1.4l.8-4.5H90Z"/><path class="cls-19" d="M101.2,118.63v-6.4a2.87,2.87,0,0,0-.2-1.2.78.78,0,0,0-.7-.3.81.81,0,0,0-.8.4,2.36,2.36,0,0,0-.2,1.3v6.2H96.4v-10.5h2.7v1.6a4,4,0,0,1,1.3-1.3,2.93,2.93,0,0,1,1.6-.4,1.83,1.83,0,0,1,1.7.7,5.57,5.57,0,0,1,.5,2.7v7.2Z"/><path class="cls-19" d="M105.3,117.73l1.2-2.1c.4.2.7.4.9.5a2.54,2.54,0,0,0,.7.2,1.42,1.42,0,0,0,.6-.2.76.76,0,0,0,.2-.5c0-.4-.4-.8-1.1-1.2a1.38,1.38,0,0,1-.4-.3,4.48,4.48,0,0,1-1.4-1.3,2.73,2.73,0,0,1-.4-1.6,2.87,2.87,0,0,1,.9-2.3,3.33,3.33,0,0,1,2.5-.9,7.72,7.72,0,0,1,1.5.2,4.59,4.59,0,0,1,1.4.7l-1.2,2.1a3.51,3.51,0,0,0-.8-.5,1.85,1.85,0,0,0-.7-.2,1.42,1.42,0,0,0-.6.2.76.76,0,0,0-.2.5c0,.3.3.7,1,1.1a2.19,2.19,0,0,1,.5.3,5.85,5.85,0,0,1,1.6,1.5,2.93,2.93,0,0,1,.4,1.6,3.32,3.32,0,0,1-1,2.5,3.8,3.8,0,0,1-2.6,1,4,4,0,0,1-1.5-.3,7.84,7.84,0,0,1-1.5-1"/></g><g class="cls-4"><polygon class="cls-19" points="113.7 118.63 113.7 110.42 112.6 110.42 112.6 108.13 113.7 108.13 113.7 105.13 116.6 105.13 116.6 108.13 117.8 108.13 117.8 110.42 116.6 110.42 116.6 118.63 113.7 118.63"/><path class="cls-19" d="M119.1,118.63v-10.5h2.7V110a2.75,2.75,0,0,1,.9-1.5,2.39,2.39,0,0,1,1.4-.5v2.8h-.2a2.17,2.17,0,0,0-1.6.5,4.66,4.66,0,0,0-.4,2.5v4.9h-2.8Z"/><path class="cls-19" d="M130.7,112.53a3.53,3.53,0,0,0-.4-1.7,1.25,1.25,0,0,0-1.1-.6,1.15,1.15,0,0,0-1.1.6,2.67,2.67,0,0,0-.4,1.7Zm-3.1,1.7h0a3.16,3.16,0,0,0,.4,1.9,1.43,1.43,0,0,0,1.2.6,1.14,1.14,0,0,0,.8-.3,3.49,3.49,0,0,0,.6-.9h2.5a4.45,4.45,0,0,1-1.4,2.5,3.92,3.92,0,0,1-2.6.9,3.75,3.75,0,0,1-3.1-1.5,7.27,7.27,0,0,1,0-8,3.75,3.75,0,0,1,3.1-1.5,3.68,3.68,0,0,1,3.1,1.4,7.36,7.36,0,0,1,1.1,4.3v.5h-5.7Z"/><path class="cls-19" d="M139.8,113.23a5.15,5.15,0,0,0-.3-2.1,1,1,0,0,0-1-.7.93.93,0,0,0-.9.7,5.73,5.73,0,0,0-.3,2.2,6.08,6.08,0,0,0,.3,2.2,1.06,1.06,0,0,0,2,0,11.32,11.32,0,0,0,.2-2.3m2.7,5.4h-2.7V117a3.61,3.61,0,0,1-1.1,1.3,2,2,0,0,1-1.3.4,2.54,2.54,0,0,1-2.3-1.4,8.56,8.56,0,0,1-.8-4,8.86,8.86,0,0,1,.8-4,2.54,2.54,0,0,1,2.3-1.4,2,2,0,0,1,1.3.4,5,5,0,0,1,1.1,1.3V108h2.7Z"/><path class="cls-19" d="M144.6,118.63v-10.5h2.7v1.6a5.12,5.12,0,0,1,1.2-1.3,2.82,2.82,0,0,1,1.5-.4,2.12,2.12,0,0,1,1.4.4,1.86,1.86,0,0,1,.7,1.3,4,4,0,0,1,1.3-1.3,2.6,2.6,0,0,1,1.5-.4,1.7,1.7,0,0,1,1.6.8,7.38,7.38,0,0,1,.5,3.3v6.5h-2.8v-6.4a2.87,2.87,0,0,0-.2-1.2c-.1-.2-.3-.3-.7-.3a.81.81,0,0,0-.8.4,2.36,2.36,0,0,0-.2,1.3v6.2h-2.8v-6.4a2.87,2.87,0,0,0-.2-1.2.84.84,0,0,0-.7-.4c-.4,0-.7.1-.8.4a2.27,2.27,0,0,0-.3,1.3v6.2h-2.9Z"/></g><g class="cls-4"><path class="cls-18" d="M348.1,28.13H505.2v209.2H348.1Zm-1.6,210.8H506.8V26.53H346.5Z"/><path class="cls-19" d="M434.7,154s-25-23.2-42.9,0c-3.1,4-5.2,8-4.3,19.6H371.6l23.9,23.9,23.3-23.9H403.2s-2.3-34.4,31.5-19.6"/><path class="cls-19" d="M448.1,187.33,431.8,171l23.6-23.6,16.3,16.3Zm33.5-33.1-3.8-3.8a6.36,6.36,0,0,1-5.7,3.6,6.27,6.27,0,0,1-6.3-6.3,6.48,6.48,0,0,1,3.6-5.7l-4.4-4.4a5,5,0,0,0-7,0l-35.8,35.8a5,5,0,0,0,0,7l4.3,4.3a6.34,6.34,0,0,1,11.9,3,6.56,6.56,0,0,1-3.3,5.6l3.8,3.8a5,5,0,0,0,7,0l35.8-35.8a5.24,5.24,0,0,0-.1-7.1"/></g><g class="cls-4"><rect class="cls-19" x="440.77" y="161.53" width="22.6" height="11.8" transform="translate(14.01 368.7) rotate(-45)"/><path class="cls-18" d="M506.9,28.13H665.2v209.2H506.9Zm-1.7,210.8H666.7V26.53H505.2Z"/><path class="cls-19" d="M559.1,116a1.24,1.24,0,0,0-1.3,1.2v77a1.31,1.31,0,0,0,1.3,1.2h52.8a1.24,1.24,0,0,0,1.3-1.2v-77a1.31,1.31,0,0,0-1.3-1.2Zm52.7,82H559a4,4,0,0,1-4-3.9v-77a3.93,3.93,0,0,1,4-3.9h52.8a4,4,0,0,1,4,3.9v77a3.81,3.81,0,0,1-4,3.9"/><path class="cls-19" d="M574.7,134.73A4.7,4.7,0,1,1,570,130a4.69,4.69,0,0,1,4.7,4.7"/><path class="cls-19" d="M574.7,155.63a4.7,4.7,0,1,1-4.7-4.7,4.69,4.69,0,0,1,4.7,4.7"/><path class="cls-19" d="M574.7,178.33a4.7,4.7,0,1,1-4.7-4.7,4.69,4.69,0,0,1,4.7,4.7"/></g><g class="cls-4"><rect class="cls-19" x="579.6" y="131.93" width="25" height="4.1"/><rect class="cls-19" x="579.6" y="153.63" width="25" height="4.1"/><rect class="cls-19" x="579.6" y="176.23" width="25" height="4.1"/><path class="cls-19" d="M628.5,105.93a5.84,5.84,0,0,0-8,1.3l-12.7,17.7-5.3-6.7a5.69,5.69,0,0,0-8.9,7.1l10,12.6a5.25,5.25,0,0,0,3.8,2.1h.8a5.42,5.42,0,0,0,4.5-2.4l17.1-23.9a5.44,5.44,0,0,0-1.3-7.8"/></g><g class="cls-4"><path class="cls-18" d="M980.6,28.13h156.3v209.2H980.6ZM979,238.93h159.5V26.53H979Z"/><path class="cls-19" d="M1032.1,118a1.24,1.24,0,0,0-1.3,1.2v77a1.31,1.31,0,0,0,1.3,1.2h52.8a1.24,1.24,0,0,0,1.3-1.2v-77a1.31,1.31,0,0,0-1.3-1.2Zm52.8,82h-52.8a4,4,0,0,1-4-3.9v-77a3.93,3.93,0,0,1,4-3.9h52.8a4,4,0,0,1,4,3.9v77a3.93,3.93,0,0,1-4,3.9"/><path class="cls-19" d="M1047.7,136.73a4.7,4.7,0,1,1-4.7-4.7,4.69,4.69,0,0,1,4.7,4.7"/><path class="cls-19" d="M1047.7,157.63a4.7,4.7,0,1,1-4.7-4.7,4.69,4.69,0,0,1,4.7,4.7"/><path class="cls-19" d="M1047.7,180.33a4.7,4.7,0,1,1-4.7-4.7,4.63,4.63,0,0,1,4.7,4.7"/></g><g class="cls-4"><rect class="cls-19" x="1052.7" y="133.83" width="25" height="4.1"/><rect class="cls-19" x="1052.7" y="155.53" width="25" height="4.1"/><rect class="cls-19" x="1052.7" y="178.23" width="25" height="4.1"/><path class="cls-19" d="M1101.6,107.93a5.84,5.84,0,0,0-8,1.3l-12.7,17.7-5.3-6.7a5.69,5.69,0,0,0-8.9,7.1l10,12.6a5.25,5.25,0,0,0,3.8,2.1h.8a5.42,5.42,0,0,0,4.5-2.4l17.1-23.9a5.62,5.62,0,0,0-1.3-7.8"/></g><g class="cls-4"><path class="cls-18" d="M1138.5,28.13h158.7v209.2H1138.5Zm-1.6,210.8h161.9V26.53H1136.9Z"/><path class="cls-19" d="M1217.7,134.43c-16.9,0-30.5-3.3-30.5-7.4s13.7-7.4,30.5-7.4,30.5,3.3,30.5,7.4-13.6,7.4-30.5,7.4m33.8-9c0-5-15.1-9-33.8-9s-33.8,4-33.8,9a1.7,1.7,0,0,0,.1.7h-.1v7.4l25.2,24.9v21.9h.2c-.1.2-.1,14.2-.1,14.4,0,2.3,3.8,4.1,8.5,4.1s8.5-1.9,8.5-4.1c0-.2,0-14.2-.1-14.4h.2v-21.6l25.2-25.2v-7.4h-.1a1.48,1.48,0,0,0,.1-.7"/></g><g class="cls-4"><path class="cls-18" d="M191.2,238.93H346.5v213.2H191.2Zm-1.6,214.8H348.1V237.33H189.6Z"/><path d="M297.4,375.33H242v-38.6H230.1a2.11,2.11,0,0,1-2.1-2.1,2.05,2.05,0,0,1,2.1-2.1h16.1v38.6h47.1v-38.6h14a2.11,2.11,0,0,1,2.1,2.1,2.05,2.05,0,0,1-2.1,2.1h-9.9v38.6Z"/><path class="cls-19" d="M304.4,329.63H233a2.1,2.1,0,1,1,0-4.2h71.4a2.1,2.1,0,1,1,0,4.2"/><path class="cls-19" d="M292.3,290c-2.5.5-4.8-.4-5.1-2s1.4-3.3,3.9-3.8,4.8.4,5.1,2-1.4,3.3-3.9,3.8m-12.8,1.4a2.85,2.85,0,1,1,3-2.7,2.82,2.82,0,0,1-3,2.7m-5.6-14.3c-.3-2.5.7-4.7,2.4-4.9s3.2,1.7,3.5,4.2-.7,4.7-2.4,4.9-3.2-1.7-3.5-4.2m24.5,8.1c-.9-3.2-4.6-5-8.3-4a7.63,7.63,0,0,0-4.2,2.9c-1,.2-2.4.4-3.9.7-.2-1.3-.4-2.4-.5-3.4a7.32,7.32,0,0,0,1.3-5.9c-.7-3.8-3.9-6.4-7.2-5.7s-5.3,4.2-4.6,8a7.48,7.48,0,0,0,4.1,5.4c.1.8.3,1.7.5,2.8-5.9,1.1-11.9,2.3-13.5,3-3.5,1.4-4.3,6.7-4.3,6.7s10.3-1.8,18.9-3.2c1.4,8.6,3.2,19.1,3.2,19.1s4.7-2.5,4.9-6.3c.1-1.8-.7-8-1.6-13.9,1.2-.2,2.2-.4,3-.5a7,7,0,0,0,7.3,2c3.4-1.1,5.7-4.5,4.9-7.7"/></g><g class="cls-4"><path class="cls-18" d="M30.1,238.93H189.4v213.2H30.1Zm-1.6,214.8H191V237.33H28.5Z"/><path d="M139.6,375.33H84.2v-38.6H72.3a2.11,2.11,0,0,1-2.1-2.1,2.05,2.05,0,0,1,2.1-2.1H88.4v38.6h47.1v-38.6h14a2.11,2.11,0,0,1,2.1,2.1,2.05,2.05,0,0,1-2.1,2.1h-9.9v38.6Z"/><path class="cls-20" d="M146.5,329.63H75.1a2.1,2.1,0,1,1,0-4.2h71.4a2.11,2.11,0,0,1,2.1,2.1,2.05,2.05,0,0,1-2.1,2.1"/><path class="cls-19" d="M73.8,385.63c-5.7,0-10.3,4.1-10.3,9.2v.2c0,5.1,4.6,9.2,10.3,9.2H148c5.7,0,10.3-4.1,10.3-9.2v-.2c0-5.1-4.6-9.2-10.3-9.2Zm74.1,21.6H73.7c-7.3,0-13.2-5.4-13.2-12.1v-.2c0-6.7,5.9-12.1,13.2-12.1h74.2c7.3,0,13.2,5.4,13.2,12.1v.2c0,6.6-5.9,12.1-13.2,12.1"/><path class="cls-19" d="M68,394.73a8.5,8.5,0,1,0,8.5-8.5,8.49,8.49,0,0,0-8.5,8.5"/><path class="cls-19" d="M136.9,394.73a8.5,8.5,0,1,0,8.5-8.5,8.49,8.49,0,0,0-8.5,8.5"/></g><g class="cls-4"><path class="cls-18" d="M191.2,28.13H346.5v209.2H191.2Zm-1.6,210.8H348.1V26.53H189.6Z"/><polygon class="cls-20" points="256.4 180.53 248.5 159.63 249.9 159.32 257.7 180.22 256.4 180.53"/><polygon class="cls-20" points="272.7 171.43 265.3 147.93 266.6 147.53 274.1 171.03 272.7 171.43"/><path class="cls-19" d="M274.4,133a15.5,15.5,0,1,0,15.5-15.5A15.51,15.51,0,0,0,274.4,133"/><path class="cls-19" d="M223.7,159.33a10.5,10.5,0,1,0,10.5-10.5,10.5,10.5,0,0,0-10.5,10.5"/><path class="cls-19" d="M262.3,183.73a8.8,8.8,0,1,0,8.8-8.8,8.88,8.88,0,0,0-8.8,8.8"/><path class="cls-19" d="M289.1,145.73a12.5,12.5,0,1,1,12.5-12.5,12.5,12.5,0,0,1-12.5,12.5m12.5,7.6a23.29,23.29,0,0,0,5.1-4.3l5.4,3.1,4.9-8.5-5.4-3.1a24.07,24.07,0,0,0,1.2-6.6l6.1-1.1-1.7-9.6-6.1,1.1a25.57,25.57,0,0,0-3.3-5.8l4-4.7-7.5-6.3-4,4.7a24.81,24.81,0,0,0-6.3-2.3v-6.2h-9.8v6.2a23.83,23.83,0,0,0-6.3,2.3l-4-4.7-7.5,6.3,4,4.7a20.77,20.77,0,0,0-3.3,5.8l-6.1-1.1-1.7,9.6,6.1,1.1a24.07,24.07,0,0,0,1.2,6.6l-5.4,3.1,4.9,8.5,5.4-3.1a23.29,23.29,0,0,0,5.1,4.3l-2.1,5.8,9.2,3.3,2.1-5.8a18.29,18.29,0,0,0,3.3.2c1.1,0,2.2-.1,3.3-.2l2.1,5.8,9.2-3.3Z"/><path class="cls-19" d="M237.7,165.83a7.38,7.38,0,1,1,3-10,7.39,7.39,0,0,1-3,10m13.8-3.1.2-5.8-3.7-.1a12.34,12.34,0,0,0-1.2-3.7l2.9-2.3-3.6-4.5-2.9,2.3a14.84,14.84,0,0,0-3.4-2.1l.7-3.6-5.7-1.2-.7,3.6a13.2,13.2,0,0,0-3.9.6l-1.7-3.3-5.1,2.7,1.7,3.2a17.47,17.47,0,0,0-2.6,2.9l-3.4-1.4-2.1,5.4,3.4,1.4a12.76,12.76,0,0,0-.1,3.9l-3.5,1.1,1.8,5.5,3.5-1.1a15,15,0,0,0,2.4,3.1l-1.9,3.1,4.9,3,1.9-3.1a15.87,15.87,0,0,0,3.9.8l.5,3.6,5.7-.8-.5-3.6a14.17,14.17,0,0,0,1.8-.8,16.29,16.29,0,0,0,1.7-1.1l2.7,2.4,3.8-4.3-2.7-2.4a15.11,15.11,0,0,0,1.5-3.7Z"/><path class="cls-19" d="M274.2,189.43a6.42,6.42,0,1,1,2.6-8.7,6.43,6.43,0,0,1-2.6,8.7m12-2.7.2-5-3.2-.1a14.22,14.22,0,0,0-1.1-3.3l2.5-2-3.1-4-2.5,2a17.48,17.48,0,0,0-2.9-1.8l.6-3.1-4.9-1-.6,3.1a13.32,13.32,0,0,0-3.4.5l-1.5-2.8-4.4,2.4,1.5,2.8a11.31,11.31,0,0,0-2.3,2.6l-3-1.2-1.9,4.7,3,1.2a12.92,12.92,0,0,0-.1,3.4l-3,1,1.6,4.8,3-1a14,14,0,0,0,2.1,2.7l-1.7,2.7,4.3,2.6,1.7-2.7a12.85,12.85,0,0,0,3.4.7l.5,3.2,5-.7-.5-3.2a11.11,11.11,0,0,0,1.6-.7l1.5-.9,2.4,2.1,3.4-3.8-2.4-2.1a12.66,12.66,0,0,0,1.3-3.2Z"/><path class="cls-21" d="M234.2,153.23a6,6,0,1,0,6,6,5.89,5.89,0,0,0-6-6m0,14.9a8.8,8.8,0,1,1,8.8-8.8,8.81,8.81,0,0,1-8.8,8.8"/><path class="cls-21" d="M271.2,177.73a6,6,0,1,0,6,6,6,6,0,0,0-6-6m0,14.8a8.8,8.8,0,1,1,8.8-8.8,8.81,8.81,0,0,1-8.8,8.8"/><path class="cls-21" d="M289.1,120.93a12.2,12.2,0,1,0,12.2,12.2,12.25,12.25,0,0,0-12.2-12.2m0,28.6a16.4,16.4,0,1,1,16.4-16.4,16.41,16.41,0,0,1-16.4,16.4"/></g><g class="cls-4"><path class="cls-18" d="M1298.8,28.13h155.5v209.2H1298.8Zm-1.6,210.8h158.7V26.53H1297.2Z"/><path class="cls-19" d="M1384.4,141.33a8.5,8.5,0,1,0,8.5-8.5,8.49,8.49,0,0,0-8.5,8.5"/><path class="cls-19" d="M1392.9,168.53a27,27,0,0,1-24.8-16.1H1379v-4.5h-12.5a28.4,28.4,0,0,1-.8-6.6,27.2,27.2,0,1,1,27.2,27.2m5.5,5.2h-50.3v-2.3h50.3Zm-.1,10H1348v-2.3h50.3Zm.1-4.6h-50.3v-2.3h50.3Zm-50.3-39h11.6v2.3h-11.6Zm-.1-7.4h14.3V135H1348Zm.1-7.2h14.3v2.3h-14.3Zm0-6.8h20V121h-20Zm73,22.6a28.34,28.34,0,0,0-28.3-28.3,32.87,32.87,0,0,0-5.4.5h-44.8v34.2h-1.8v-21.5h-4.7v26.1h6.5v7.8h-6.5l1.8,29.2h3.6l-.3,9.8h8.5v-10.4h49.9v10.4h7.8v-10.5l4.2-26.4a27.65,27.65,0,0,0,9.5-20.9"/></g><g class="cls-4"><path class="cls-18" d="M980.6,238.93h156.3v213.2H980.6ZM979,453.73h159.5V237.33H979Z"/><path class="cls-18" d="M1138.5,238.93h158.7v213.2H1138.5Zm-1.6,214.8h161.9V237.33H1136.9Z"/><path class="cls-18" d="M1298.8,238.93h155.5v213.2H1298.8Zm-1.6,214.8h158.7V237.33H1297.2Z"/><path class="cls-18" d="M1455.9,238.93H1613v213.2H1455.9Zm-1.6,214.8h160.3V237.33H1454.3Z"/><path class="cls-18" d="M1614.6,238.93h164.3v213.2H1614.6Zm-1.6,214.8h167.5V237.33H1613Z"/><path d="M1697.5,333.33l-.3-.1-2.5-.7h-80.5v4.1h80l1.8.5a22.83,22.83,0,0,1,13.1,19.8,18,18,0,0,1-17.2,18.7,14,14,0,0,1-14.5-13.3,10.8,10.8,0,0,1,10.3-11.2,8.05,8.05,0,0,1,5.9,2.2,8.21,8.21,0,0,1,2.6,5.7,6.15,6.15,0,0,1-5.9,6.4,2.05,2.05,0,1,0,.1,4.1,10.28,10.28,0,0,0,9.8-10.7,11.64,11.64,0,0,0-4-8.5,12,12,0,0,0-8.8-3.2,14.84,14.84,0,0,0-14.2,15.4,18.09,18.09,0,0,0,18.8,17.3,22.08,22.08,0,0,0,21.1-22.9,27,27,0,0,0-15.6-23.6"/></g><g class="cls-4"><path class="cls-18" d="M506.9,238.93H665.2v213.2H506.9Zm-1.7,214.8H666.7V237.33H505.2Z"/><path class="cls-18" d="M666.8,238.93H823.5v213.2H666.8Zm-1.6,214.8H825.1V237.33H665.2Z"/><path class="cls-18" d="M825.1,238.93H979v213.2H825.1Zm-1.6,214.8H980.6V237.33H823.5Z"/><rect class="cls-19" x="867.9" y="306.03" width="4.1" height="50.8"/><rect class="cls-19" x="932.7" y="306.33" width="4.1" height="50.8"/><polygon points="979.8 332.52 925.8 332.52 925.8 371.13 878.7 371.13 878.7 332.52 824.3 332.52 824.3 336.73 874.6 336.73 874.6 375.32 930 375.32 930 336.73 979.8 336.73 979.8 332.52"/><path class="cls-20" d="M929.1,238.13v79.4a10,10,0,0,1-10,10H824.2v4.1h94.9a14.25,14.25,0,0,0,14.2-14.2V238h-4.2Z"/></g><g class="cls-4"><path class="cls-18" d="M666.8,28.13H823.5v209.2H666.8Zm-1.6,210.8H825.1V26.53H665.2Z"/><path class="cls-18" d="M825.1,28.13H979v209.2H825.1Zm-1.6,210.8H980.6V26.53H823.5Z"/><path class="cls-19" d="M918.3,142.23a2.5,2.5,0,1,1,2.5-2.5,2.48,2.48,0,0,1-2.5,2.5m-16.7,50.7H876.4v-31.2h25.2Zm15.6-63.4h-3.9v-17.6h-47v17.6h-3.9c-6.7,0-11.8,6-11.8,13.8v25.4a7.7,7.7,0,0,0,7.7,7.7h11.8v23.4h37.8v-23.4h13.5a7.7,7.7,0,0,0,7.7-7.7v-25.4c-.1-7.8-5.2-13.8-11.9-13.8"/><path class="cls-20" d="M919.1,122.53H824.3v4.1h94.8a10,10,0,0,1,10,10V238h4.1V136.73a14.11,14.11,0,0,0-14.1-14.2"/></g><g class="cls-4"><path class="cls-18" d="M348.1,238.93H505.2v213.2H348.1Zm-1.6,214.8H506.8V237.33H346.5Z"/><path d="M506.1,332.53H453.9v38.6H406.8v-38.6H363.1a2.11,2.11,0,0,0-2.1,2.1,2.05,2.05,0,0,0,2.1,2.1h39.5v38.6H458v-38.6h48.1v-4.2Z"/><path class="cls-20" d="M506.1,327.53H363.6a2.11,2.11,0,0,0-2.1,2.1,2.05,2.05,0,0,0,2.1,2.1H506.1Z"/><path class="cls-19" d="M437.4,387.13s-14.8,12.2-24-1.4c-1.6-2.3-2.6-4.7-1.8-11.1l-8.9-.5,14.2-12.6,12.3,14.2-8.8-.5c0-.1-2.4,19.1,17,11.9"/><path class="cls-19" d="M458.5,382.93l-9.7,8.6-12.5-14,9.7-8.6Zm5.4,1.7L445,363.43a2.81,2.81,0,0,0-3.9-.2l-2.2,2a3.5,3.5,0,1,1-5,4.4l-2.6,2.3a2.81,2.81,0,0,0-.2,3.9L450,397a2.81,2.81,0,0,0,3.9.2l2.6-2.3a3.53,3.53,0,0,1,1.9-6.6,3.66,3.66,0,0,1,3.1,2.2l2.3-2a2.91,2.91,0,0,0,.1-3.9"/></g><g class="cls-4"><rect class="cls-19" x="444.3" y="373.79" width="6.6" height="12.7" transform="translate(-139.49 393.65) rotate(-41.66)"/><path class="cls-19" d="M715,375.73h55.9V310H715Zm59.8,4.1H711.1V306h63.7Z"/><polygon points="824.3 332.52 772.6 332.52 768.4 332.52 766.6 332.52 766.6 371.13 719.5 371.13 719.5 332.52 665.8 332.52 665.8 336.73 715.4 336.73 715.4 375.32 770.8 375.32 770.8 336.73 772.6 336.73 824.3 336.73 824.3 332.52"/><rect class="cls-20" x="665.8" y="327.53" width="158.4" height="4.1"/><polygon points="1137.6 332.52 1081.1 332.52 1081.1 371.13 1033.9 371.13 1033.9 332.52 979.8 332.52 979.8 336.73 1029.8 336.73 1029.8 375.32 1085.2 375.32 1085.2 336.73 1137.6 336.73 1137.6 332.52"/><polygon class="cls-19" points="1252.9 366.23 1252.9 381.13 1183.8 381.13 1183.8 366.23 1187.6 366.23 1187.6 377.13 1249.1 377.13 1249.1 366.23 1252.9 366.23"/><polygon points="1298.1 332.52 1242.3 332.52 1242.3 371.13 1195.1 371.13 1195.1 332.52 1137.6 332.52 1137.6 336.73 1191 336.73 1191 375.32 1246.4 375.32 1246.4 336.73 1298.1 336.73 1298.1 332.52"/><polygon class="cls-19" points="1408.2 366.23 1408.2 381.13 1339 381.13 1339 366.23 1342.9 366.23 1342.9 377.13 1404.3 377.13 1404.3 366.23 1408.2 366.23"/><polygon points="1455.1 332.52 1397.3 332.52 1397.3 371.13 1350.2 371.13 1350.2 332.52 1306.5 332.52 1302.4 332.52 1298.1 332.52 1298.1 336.73 1302.4 336.73 1306.5 336.73 1346 336.73 1346 375.32 1401.4 375.32 1401.4 336.73 1455.1 336.73 1455.1 332.52"/><polygon class="cls-19" points="1566.2 346.93 1566.2 381.13 1497.1 381.13 1497.1 346.93 1489.4 346.82 1489.4 338.52 1500.9 338.52 1500.9 377.13 1562.3 377.13 1562.3 338.52 1573.9 338.52 1573.9 346.93 1566.2 346.93"/><polygon class="cls-19" points="1533.8 339.82 1533.9 300.63 1529.6 300.63 1529.5 339.82 1524.8 339.82 1531.3 361.02 1538.3 339.82 1533.8 339.82"/><polygon class="cls-19" points="1516.6 332.63 1526.6 302.63 1523.3 301.52 1513.4 331.52 1509.7 330.32 1509.3 348.13 1520.1 333.73 1516.6 332.63"/><polygon class="cls-19" points="1546.6 332.63 1536.6 302.63 1539.9 301.52 1549.9 331.52 1553.5 330.32 1553.9 348.13 1543.1 333.73 1546.6 332.63"/><polygon points="1613.8 332.52 1603.2 332.52 1569.8 332.52 1555.5 332.52 1555.5 371.13 1508.4 371.13 1508.4 332.52 1476.6 332.52 1464.7 332.52 1455.1 332.52 1455.1 336.73 1464.7 336.73 1492.6 336.73 1504.5 336.73 1504.5 375.32 1559.9 375.32 1559.9 336.73 1569.8 336.73 1603.2 336.63 1613.8 336.63 1613.8 332.52"/><polygon points="665.8 332.52 636.1 332.52 633.4 332.52 606.6 332.52 606.6 371.13 559.5 371.13 559.5 332.52 507.7 332.52 506.1 332.52 506.1 336.73 507.7 336.73 555.3 336.73 555.3 375.32 610.7 375.32 610.7 336.73 633.4 336.73 636.1 336.73 665.8 336.73 665.8 332.52"/><rect class="cls-20" x="506.1" y="327.53" width="159.8" height="4.1"/><path class="cls-19" d="M703.4,148.93a9.2,9.2,0,1,0,9.2-9.2,9.18,9.18,0,0,0-9.2,9.2"/><path class="cls-20" d="M712.1,137.13a11.8,11.8,0,0,0-8.9,3.3,12.24,12.24,0,0,0-4,8.6,10.45,10.45,0,0,0,9.9,10.8,2.11,2.11,0,0,0,2.2-2,2.18,2.18,0,0,0-2-2.2,6.12,6.12,0,0,1-5.9-6.5,7.92,7.92,0,0,1,2.7-5.7,8.05,8.05,0,0,1,5.9-2.2,10.91,10.91,0,0,1,10.4,11.3A14.1,14.1,0,0,1,707.7,166a18,18,0,0,1-17.3-18.9,23.14,23.14,0,0,1,13.3-20l1.8-.5h119v-4.1H704.7l-2.5.7-.3.1a27.18,27.18,0,0,0-15.8,23.6,22.26,22.26,0,0,0,21.3,23.2,18.22,18.22,0,0,0,19-17.4,14.91,14.91,0,0,0-14.3-15.6"/></g></g></g></g></g></g></g></g></g></g></g></g></g></g><rect class="cls-1" x="1268.6" y="215.73" width="215.8" height="239.4"/><rect class="cls-1" x="28.5" y="26.53" width="1752" height="427.2"/><rect class="cls-1" x="28.5" y="26.53" width="1752" height="427.2"/><rect class="cls-1" x="28.5" y="26.53" width="1752" height="427.2"/><rect class="cls-1" x="28.5" y="26.53" width="1752" height="427.2"/><rect class="cls-1" x="-52.63" y="-314.65" width="1751.98" height="427.2" transform="translate(312.61 552.61) rotate(-45)"/><rect class="cls-1" x="28.5" y="26.53" width="1752" height="427.2"/><rect class="cls-1" x="28.5" y="26.53" width="1752" height="427.2"/><rect class="cls-1" x="28.5" y="26.53" width="1752" height="427.2"/><rect class="cls-1" x="28.5" y="26.53" width="1752" height="427.2"/><rect class="cls-1" x="28.5" y="26.53" width="1752" height="427.2"/><rect class="cls-1" x="28.5" y="26.53" width="1752" height="427.2"/><rect class="cls-1" x="28.5" y="26.53" width="1752" height="427.2"/><rect class="cls-1" x="28.5" y="26.53" width="1752" height="427.2"/><rect class="cls-1" x="28.5" y="26.53" width="1752" height="427.2"/><rect class="cls-1" x="28.5" y="26.53" width="1752" height="427.2"/><rect class="cls-1" x="28.5" y="26.53" width="1752" height="427.2"/><rect class="cls-1" x="28.5" y="26.53" width="1752" height="427.2"/><rect class="cls-1" x="-180.14" y="-241.79" width="1751.99" height="427.2" transform="translate(194.72 455.41) rotate(-41.66)"/></g></svg>